<?xml version="1.0" encoding="UTF-8"?>
<svg id="Layer_2" xmlns="http://www.w3.org/2000/svg" xmlns:xlink="http://www.w3.org/1999/xlink" viewBox="0 0 32 32">
  <defs>
    <style>
      .cls-1 {
        fill: #112e57;
      }

      .cls-2 {
        fill: none;
      }

      .cls-3 {
        clip-path: url(#clippath);
      }
    </style>
    <clipPath id="clippath">
      <rect class="cls-2" width="32" height="32"/>
    </clipPath>
  </defs>
  <g id="Layer_1-2" data-name="Layer_1">
    <g class="cls-3">
      <g>
        <path class="cls-1" d="M3.2,29.67h.29V5.53c0-1.77,1.43-3.2,3.2-3.2,0,0,0,0,0,0h21.82v-.29c0-1.12-.91-2.03-2.04-2.04H3.2C2.08,0,1.17.91,1.16,2.04v25.6c0,1.12.91,2.03,2.04,2.04Z"/>
        <rect class="cls-1" x="11.05" y="9.31" width="13.38" height="5.24"/>
        <path class="cls-1" d="M30.31,27.35h-3.84c-.16,0-.29.13-.29.29v3.84s.06-.04.09-.07l3.97-3.97s.05-.06.07-.09Z"/>
        <path class="cls-1" d="M30.84,5.53c0-1.12-.91-2.03-2.04-2.04H6.69c-1.12,0-2.03.91-2.04,2.04v24.44c0,1.12.91,2.03,2.04,2.04h17.75v-4.36c0-1.12.91-2.03,2.04-2.04h4.36V5.53ZM21.82,27.35h-11.64c-.48,0-.87-.39-.87-.87s.39-.87.87-.87h11.64c.48,0,.87.39.87.87s-.39.87-.87.87ZM25.31,23.85h-15.13c-.48,0-.87-.39-.87-.87s.39-.87.87-.87h15.13c.48,0,.87.39.87.87s-.39.87-.87.87ZM25.31,20.36h-15.13c-.48,0-.87-.39-.87-.87s.39-.87.87-.87h15.13c.48,0,.87.39.87.87s-.39.87-.87.87ZM26.18,15.42c0,.48-.39.87-.87.87h-15.13c-.48,0-.87-.39-.87-.87v-6.98c0-.48.39-.87.87-.87h15.13c.48,0,.87.39.87.87v6.98Z"/>
      </g>
    </g>
  </g>
</svg>