<?xml version="1.0" encoding="UTF-8"?>
<svg id="Layer_2" xmlns="http://www.w3.org/2000/svg" xmlns:xlink="http://www.w3.org/1999/xlink" viewBox="0 0 32 32">
  <defs>
    <style>
      .cls-1 {
        fill: #112e57;
      }

      .cls-2 {
        fill: none;
      }

      .cls-3 {
        clip-path: url(#clippath);
      }
    </style>
    <clipPath id="clippath">
      <rect class="cls-2" width="32" height="32"/>
    </clipPath>
  </defs>
  <g id="Layer_1-2" data-name="Layer_1">
    <g class="cls-3">
      <path class="cls-1" d="M23.01,16.18c0-.38-.15-.72-.4-.97-.25-.25-.59-.4-.97-.4h-1.19v-1.84c.78-.73,1.83-1.18,2.98-1.18s2.29.49,3.09,1.28c.79.79,1.28,1.88,1.28,3.09,0,2.41-1.95,4.36-4.36,4.36-.14,0-.28,0-.42-.02v-4.32ZM31.92,14.98l-1.68-.42c-.18-.75-.47-1.45-.87-2.09l.4-.67.49-.82c-.48-.63-1.03-1.18-1.66-1.66l-.82.49-.67.4c-.64-.4-1.34-.69-2.09-.87l-.19-.76-.23-.92c-.38-.05-.78-.08-1.17-.08s-.79.03-1.17.08l-.23.92-.19.76c-.48.11-.94.27-1.38.48v1.98c.85-.58,1.87-.92,2.98-.92,1.46,0,2.78.59,3.73,1.54.95.95,1.54,2.28,1.54,3.73,0,2.91-2.36,5.28-5.28,5.28-.14,0-.28,0-.42-.02v3.31c.53.03,1.06,0,1.59-.07l.23-.92.19-.76c.75-.18,1.46-.47,2.09-.87l.67.4.82.49c.63-.48,1.18-1.03,1.66-1.66l-.49-.82-.4-.67c.4-.64.69-1.34.87-2.09l.76-.19.92-.23c.05-.38.08-.77.08-1.17s-.03-.79-.08-1.17h0ZM16.92,4.32v1.98h1.98l-1.98-1.98ZM3.8,17.99v-2.57H0v11.11c0,.49.2.93.52,1.26.22.22.5.39.81.47v-9.14c0-.31.13-.6.33-.8.2-.2.49-.33.8-.33h1.34ZM11.78,17.99h-7.07V3.68h11.3v3.08c0,.25.2.46.46.46h3.08v7.6h-5.58c-.15,0-.3.08-.39.22l-1.79,2.96h0ZM5.74,6.75c0,.25.2.46.46.46h8.06c.25,0,.46-.2.46-.46s-.2-.46-.46-.46H6.19c-.25,0-.46.2-.46.46ZM5.74,9.09c0,.25.2.46.46.46h11.86c.25,0,.46-.2.46-.46s-.2-.45-.46-.45H6.19c-.25,0-.46.2-.46.45ZM6.19,11.88h11.86c.25,0,.46-.2.46-.46s-.2-.46-.46-.46H6.19c-.25,0-.46.2-.46.46s.2.46.46.46ZM21.64,15.72h-7.43l-1.77,2.93c-.07.15-.23.26-.41.26H2.46c-.06,0-.11.02-.15.06-.04.04-.06.09-.06.15v9.2h19.86v-12.14c0-.13-.05-.24-.13-.32s-.2-.13-.32-.13h0Z"/>
    </g>
  </g>
</svg>