<?xml version="1.0" encoding="UTF-8"?>
<svg id="Layer_2" xmlns="http://www.w3.org/2000/svg" xmlns:xlink="http://www.w3.org/1999/xlink" viewBox="0 0 32 32">
  <defs>
    <style>
      .cls-1 {
        fill: #112e57;
      }

      .cls-2 {
        fill: none;
      }

      .cls-3 {
        clip-path: url(#clippath);
      }
    </style>
    <clipPath id="clippath">
      <rect class="cls-2" width="32" height="32"/>
    </clipPath>
  </defs>
  <g id="Layer_1-2" data-name="Layer_1">
    <g class="cls-3">
      <path class="cls-1" d="M20.9,1.77H2.56v-.83c0-.52.42-.94.94-.94h22.43c.46,0,.83.37.83.83v16.55l-1.57,3.88V6.03c0-.09-.04-.18-.1-.24l-3.96-3.92c-.06-.06-.15-.1-.24-.1h0ZM24.06,5.72l-2.82-2.79v2.79h2.82ZM22.33,28.41l.16,2.7H1.25c-.52,0-.94-.42-.94-.94V3.39c0-.52.42-.94.94-.94h19.31v3.61c0,.19.15.34.34.34h3.61v16.54l-2.16,5.31s-.03.1-.02.15h0ZM7.85,6.51c0,.19.15.34.34.34h10.85c.19,0,.34-.15.34-.34s-.15-.34-.34-.34h-10.85c-.19,0-.34.15-.34.34ZM4.93,26.01l.88-.88c.06-.06.1-.15.1-.24s-.04-.18-.1-.24-.15-.1-.24-.1-.18.04-.24.1l-.88.88-.88-.88c-.06-.06-.15-.1-.24-.1s-.18.04-.24.1c-.13.13-.13.35,0,.48l.88.88-.88.88c-.13.13-.13.35,0,.48.06.06.15.1.24.1s.18-.04.24-.1l.88-.88.88.88c.06.06.15.1.24.1s.18-.04.24-.1.1-.15.1-.24-.04-.18-.1-.24l-.88-.88ZM6.6,18.76c0-.09-.04-.18-.1-.24-.06-.06-.15-.1-.24-.1s-.18.04-.24.1l-2.01,2.01-.82-.82c-.06-.06-.15-.1-.24-.1s-.18.04-.24.1c-.13.13-.13.35,0,.48l1.06,1.06c.06.06.15.1.24.1s.18-.04.24-.1l2.25-2.25c.06-.06.1-.15.1-.24h0ZM3.97,13.75l-.88.88c-.13.13-.13.35,0,.48.06.06.15.1.24.1s.18-.04.24-.1l.88-.88.88.88c.06.06.15.1.24.1s.18-.04.24-.1.1-.15.1-.24-.04-.18-.1-.24l-.88-.88.88-.88c.06-.06.1-.15.1-.24s-.04-.18-.1-.24-.15-.1-.24-.1-.18.04-.24.1l-.88.88-.88-.88c-.06-.06-.15-.1-.24-.1s-.18.04-.24.1c-.13.13-.13.35,0,.48l.88.88ZM6.6,6.51c0-.09-.04-.18-.1-.24s-.15-.1-.24-.1-.18.04-.24.1l-2.01,2.01-.82-.82c-.06-.06-.15-.1-.24-.1s-.18.04-.24.1c-.13.13-.13.35,0,.48l1.06,1.06c.06.06.15.1.24.1s.18-.04.24-.1l2.25-2.25c.06-.06.1-.15.1-.24h0ZM21.49,27.14c0-.19-.15-.34-.34-.34h-12.95c-.19,0-.34.15-.34.34s.15.34.34.34h12.95c.19,0,.34-.15.34-.34ZM21.49,24.89c0-.19-.15-.34-.34-.34h-12.95c-.19,0-.34.15-.34.34s.15.34.34.34h12.95c.19,0,.34-.15.34-.34ZM21.49,21.01c0-.19-.15-.34-.34-.34h-12.95c-.19,0-.34.15-.34.34s.15.34.34.34h12.95c.19,0,.34-.15.34-.34ZM21.49,18.76c0-.19-.15-.34-.34-.34h-12.95c-.19,0-.34.15-.34.34s.15.34.34.34h12.95c.19,0,.34-.15.34-.34ZM21.49,14.89c0-.19-.15-.34-.34-.34h-12.95c-.19,0-.34.15-.34.34s.15.34.34.34h12.95c.19,0,.34-.15.34-.34ZM21.49,12.64c0-.19-.15-.34-.34-.34h-12.95c-.19,0-.34.15-.34.34s.15.34.34.34h12.95c.19,0,.34-.15.34-.34ZM21.49,8.76c0-.19-.15-.34-.34-.34h-12.95c-.19,0-.34.15-.34.34s.15.34.34.34h12.95c.19,0,.34-.15.34-.34ZM25.25,22.94l-2.13,5.26,2.88,1.19,4.95-12.2-2.88-1.19-2.82,6.94ZM23.24,32l2.32-2.05-2.5-1.04.19,3.09ZM31.64,15.02c-.07-.16-.19-.29-.35-.35l-1.68-.7c-.08-.03-.16-.05-.25-.05s-.17.02-.25.05c-.16.07-.29.19-.35.35l-.43,1.05,2.88,1.19.43-1.05c.07-.16.07-.34,0-.5h0Z"/>
    </g>
  </g>
</svg>