<?xml version="1.0" encoding="UTF-8"?>
<svg id="Layer_2" xmlns="http://www.w3.org/2000/svg" xmlns:xlink="http://www.w3.org/1999/xlink" viewBox="0 0 32 32">
  <defs>
    <style>
      .cls-1 {
        fill: #112e57;
      }

      .cls-2 {
        fill: none;
      }

      .cls-3 {
        clip-path: url(#clippath);
      }
    </style>
    <clipPath id="clippath">
      <rect class="cls-2" width="32" height="32"/>
    </clipPath>
  </defs>
  <g id="Layer_1-2" data-name="Layer_1">
    <g class="cls-3">
      <g>
        <path class="cls-1" d="M16.04,13.43h3.25l-3.25-3.25v3.25Z"/>
        <path class="cls-1" d="M7.3,23.94c-.78,0-1.42.63-1.42,1.42s.64,1.42,1.42,1.42,1.42-.63,1.42-1.42-.63-1.42-1.42-1.42Z"/>
        <path class="cls-1" d="M14.81,14.05v-4.48H2.6v22.43h17.3V14.66h-4.47c-.34,0-.61-.27-.61-.61h0ZM5.16,11.67h3.83c.34,0,.61.28.61.61s-.28.61-.61.61h-3.83c-.34,0-.61-.28-.61-.61s.28-.61.61-.61ZM5.16,13.71h3.83c.34,0,.61.28.61.61s-.28.61-.61.61h-3.83c-.34,0-.61-.28-.61-.61s.28-.61.61-.61ZM7.3,27.99c-1.46,0-2.64-1.18-2.64-2.64s1.18-2.64,2.64-2.64,2.64,1.18,2.64,2.64-1.18,2.64-2.64,2.64ZM7.3,21.7c-1.46,0-2.64-1.18-2.64-2.64s1.18-2.64,2.64-2.64,2.64,1.18,2.64,2.64-1.18,2.64-2.64,2.64ZM17.19,27.07h-5.94c-.34,0-.61-.27-.61-.61s.28-.61.61-.61h5.94c.34,0,.61.28.61.61s-.28.61-.61.61ZM17.19,24.86h-5.94c-.34,0-.61-.28-.61-.61s.28-.61.61-.61h5.94c.34,0,.61.28.61.61s-.28.61-.61.61ZM17.19,20.78h-5.94c-.34,0-.61-.27-.61-.61s.28-.61.61-.61h5.94c.34,0,.61.28.61.61s-.28.61-.61.61ZM17.8,17.95c0,.34-.28.61-.61.61h-5.94c-.34,0-.61-.28-.61-.61s.28-.61.61-.61h5.94c.34,0,.61.28.61.61Z"/>
        <path class="cls-1" d="M7.3,17.65c-.78,0-1.42.64-1.42,1.42s.64,1.42,1.42,1.42,1.42-.63,1.42-1.42-.63-1.42-1.42-1.42Z"/>
        <path class="cls-1" d="M15.43,5.95l7.66,7.66,2.99-2.34L17.77,2.96l-2.34,2.99Z"/>
        <path class="cls-1" d="M28.97,9.21L20.19.43c-.53-.53-1.36-.57-1.85-.09-.49.49-.45,1.31.09,1.85l8.79,8.79c.12.12.26.22.41.29v2.35c0,.34.27.61.61.61s.61-.27.61-.61v-2.38c.08-.05.15-.1.21-.17.49-.49.45-1.31-.09-1.85h0Z"/>
      </g>
    </g>
  </g>
</svg>