<?xml version="1.0" encoding="UTF-8"?>
<svg id="Layer_2" xmlns="http://www.w3.org/2000/svg" xmlns:xlink="http://www.w3.org/1999/xlink" viewBox="0 0 32 32">
  <defs>
    <style>
      .cls-1 {
        fill: #112e57;
        fill-rule: evenodd;
      }

      .cls-2 {
        fill: none;
      }

      .cls-3 {
        clip-path: url(#clippath);
      }
    </style>
    <clipPath id="clippath">
      <rect class="cls-2" width="32" height="32"/>
    </clipPath>
  </defs>
  <g id="Layer_1-2" data-name="Layer_1">
    <g class="cls-3">
      <path class="cls-1" d="M15.49,7.63h15.27c.68,0,1.24.56,1.24,1.24v9.5c0,.64-.49,1.17-1.12,1.23-.3.03-.52.28-.52.57v1.9c0,.25-.15.46-.38.54-.23.08-.48.02-.64-.17,0,0-1.75-2.97-1.75-3.13v-4.01c0-1.12-.91-2.04-2.04-2.04h-11.01c-.16,0-.29-.13-.29-.29v-4.11c0-.68.56-1.24,1.24-1.24h0ZM24.7,14.4h-15.63c-.24,0-.47.13-.59.34-.06.1-.12.2-.18.31l-.1.14c-.32.38-.77.58-1.25.58-.19,0-.38-.03-.57-.1-.46-.17-.8-.51-.97-.95-.07-.19-.25-.32-.45-.32H1.78c-.98,0-1.78.8-1.78,1.78v10.12c0,.98.8,1.78,1.78,1.78h.07c.46,0,.84.38.84.84v2.05c0,.32.16.64.45.78.32.16.74.15,1.03-.21l2.53-3.23c.11-.14.29-.23.47-.23h17.53c.98,0,1.78-.8,1.78-1.78v-10.12c0-.98-.8-1.78-1.78-1.78h0ZM27.05,1.53v4.62c0,.18-.15.32-.32.32h-11.56c-1.26,0-2.29,1.03-2.29,2.29v1.35c0,.51-.41.92-.92.92h-2.75c0,.18-1.77,3.51-1.77,3.51-.18.21-.46.29-.72.19-.26-.1-.43-.33-.43-.61v-2.16c0-.33-.26-.58-.6-.62-.7-.07-1.25-.67-1.25-1.38V1.53c0-.76.63-1.39,1.39-1.39h19.82c.76,0,1.39.63,1.39,1.39Z"/>
    </g>
  </g>
</svg>