<?xml version="1.0" encoding="UTF-8"?>
<svg id="Layer_2" xmlns="http://www.w3.org/2000/svg" xmlns:xlink="http://www.w3.org/1999/xlink" viewBox="0 0 32 32">
  <defs>
    <style>
      .cls-1 {
        fill: #112e57;
        fill-rule: evenodd;
      }

      .cls-2 {
        fill: none;
      }

      .cls-3 {
        clip-path: url(#clippath);
      }
    </style>
    <clipPath id="clippath">
      <rect class="cls-2" width="32" height="32"/>
    </clipPath>
  </defs>
  <g id="Layer_1-2" data-name="Layer_1">
    <g class="cls-3">
      <path class="cls-1" d="M23.79,5h-4.82c-.4,0-.72.33-.72.72,0,.21.07.31.16.46.1.15.35.27.56.27h4.82c.63,0,.97-.77.51-1.23-.13-.13-.31-.21-.51-.21h0ZM20.85,10.11c0-.29.23-.52.52-.52s.52.23.52.52v.39c.82.19,1.49.81,1.73,1.62.08.27-.07.56-.35.65-.27.08-.56-.07-.65-.35-.28-.93-1.46-1.26-2.17-.55-.55.55-.55,1.55.24,1.85l1.73.67c1.49.58,1.7,2.46.61,3.55-.31.31-.7.53-1.14.63v.39c0,.29-.23.52-.52.52s-.52-.23-.52-.52v-.39c-.82-.19-1.49-.81-1.73-1.62-.08-.27.07-.56.35-.65.27-.08.56.07.65.35.28.94,1.48,1.26,2.18.55.54-.55.55-1.55-.25-1.85l-1.73-.67c-1.48-.57-1.7-2.46-.61-3.55.31-.31.7-.53,1.14-.63v-.39h0ZM23.05,3.96l1.23-2.92c.07-.17.14-.51-.06-.6-.04-.02-.1-.03-.18-.03h-5.36c-.22,0-.31.08-.31.3h0c0,.1.02.21.07.33l1.23,2.92h3.37ZM0,24.16l5.43,7.42,1.35-.99c.29-.21.36-.63.14-.92l-4.64-6.33c-.12-.16-.24-.26-.45-.29-.21-.03-.35.03-.52.14l-1.32.97ZM9.25,20.96c-2.08.33-4.13,1.14-5.82,2.18l4.13,5.64c3.34-.74,6.03.16,8.31.92,2.05.69,3.74,1.26,5.14.25,1.26-.9,5.27-3.86,8.12-6.58,1.58-1.51,2.79-2.91,2.87-3.73.02-.17-.1-.26-.28-.34-.37-.18-1.05-.23-1.37-.06-1.06.53-4.22,3.07-5.1,3.79.3.59.21,1.37-.16,1.92-.47.7-1.28,1.14-2.1,1.29-1.81.34-4.18.16-6.12.19-.29,0-.52-.23-.52-.51,0-.29.23-.52.51-.52,1.87-.02,4.26.15,5.95-.17.54-.1,1.11-.39,1.42-.85.15-.23.2-.54.13-.78-.08-.27-.38-.38-.63-.46h0c-.79-.23-1.79-.25-2.61-.29-.96-.05-2.73-.13-3.7-.36-.8-.19-1.69-.64-2.49-.98-1.75-.74-3.75-.84-5.68-.53h0ZM15.68,10.06s-.02.02-.02.03c-1.16,1.7-1.85,3.23-2.18,4.58-.59,2.43.02,4.31,1.28,5.64.19.07.39.14.57.22,1.83.77,1.89.95,3.79,1.13,1.09.1,2.21.13,3.28.2.53.03,1.14.12,1.63.26h0c.17.05.32.11.46.18.8-.65,1.8-1.45,2.74-2.17.63-.48,1.24-.93,1.75-1.28.56-1.35.59-3.06-.19-5.14-.69-1.86-2.02-4.01-4.16-6.45-.25.14-.54.22-.85.22h-4.82c-.37,0-.71-.12-1-.31-.9,1.01-1.66,1.97-2.28,2.88h0ZM12.57,14.06c-.35,1.23-.44,2.39-.29,3.47-.71.06-1.41.03-2.1-.1l-.15-1.01c-.03-.22-.19-.38-.39-.43-.42-.14-.82-.31-1.2-.53-.38-.22-.75-.49-1.09-.8-.16-.15-.39-.17-.57-.08l-.92.37c-.62-.72-1.09-1.55-1.41-2.44l.8-.63c.16-.13.23-.33.18-.51h0c-.2-.9-.19-1.79,0-2.68.04-.21-.04-.41-.2-.53l-.79-.62c.31-.9.79-1.72,1.41-2.44l.96.38c.19.08.4.03.54-.1h0c.67-.61,1.46-1.06,2.32-1.34.2-.06.33-.23.36-.42h0l.15-1.01c.94-.18,1.88-.18,2.82,0l.15,1.01c.03.22.19.38.39.43.42.14.82.31,1.2.53.38.22.75.49,1.09.8.16.15.39.17.57.08l.92-.37h.01c-.16.42-.17.87-.01,1.28-.68.75-1.28,1.48-1.81,2.19-.91-2.42-3.77-3.45-6-2.16-2,1.16-2.68,3.71-1.53,5.71.94,1.62,2.82,2.4,4.6,1.97h0Z"/>
    </g>
  </g>
</svg>