<?xml version="1.0" encoding="UTF-8"?>
<svg id="Layer_2" xmlns="http://www.w3.org/2000/svg" xmlns:xlink="http://www.w3.org/1999/xlink" viewBox="0 0 32 32">
  <defs>
    <style>
      .cls-1 {
        fill: #112e57;
      }

      .cls-2 {
        fill: none;
      }

      .cls-3 {
        clip-path: url(#clippath);
      }
    </style>
    <clipPath id="clippath">
      <rect class="cls-2" width="32" height="32"/>
    </clipPath>
  </defs>
  <g id="Layer_1-2" data-name="Layer_1">
    <g class="cls-3">
      <path class="cls-1" d="M12.37,29.87h5.59l-3.88,2.06c-.27.14-.59.04-.73-.23l-.98-1.84ZM1.44,9.02c-.04.14-.03.29.04.42l4.09,7.67V6.64l-3.86,2.06c-.13.07-.22.18-.27.32h0ZM18.65.29c-.07-.13-.18-.22-.32-.27-.14-.04-.29-.03-.42.04l-3.87,2.06h5.59l-.98-1.84ZM25.73,3.38v25.23c0,.3-.25.55-.55.55H6.82c-.3,0-.54-.25-.54-.55V3.38c0-.3.24-.55.54-.55h18.36c.3,0,.55.25.55.55ZM23.78,9.46h-8.5c-.47,0-.46.7,0,.71h8.5c.47-.01.46-.7,0-.71h0ZM15.28,8.49h4.1c.47,0,.46-.7,0-.71h-4.1c-.46,0-.46.7,0,.71ZM14.92,14.76c0,.19.16.35.35.35h4.1c.19,0,.35-.16.35-.35s-.16-.35-.35-.35h-4.1c-.19,0-.35.16-.35.35ZM13.13,23.07c-.12-3.43-5.07-3.43-5.19,0,0,1.43,1.16,2.59,2.59,2.59s2.59-1.17,2.59-2.59h0ZM13.13,16.44c-.12-3.43-5.07-3.43-5.19,0,0,1.43,1.16,2.59,2.59,2.59,1.43,0,2.59-1.16,2.59-2.59h0ZM13.13,9.81c-.12-3.43-5.07-3.43-5.19,0,0,1.43,1.16,2.59,2.59,2.59,1.43,0,2.59-1.16,2.59-2.59h0ZM14.92,21.39c0,.2.16.35.35.35h4.1c.19,0,.35-.16.35-.35s-.16-.35-.35-.35h-4.1c-.19,0-.35.16-.35.35h0ZM15.28,18.47h8.5c.47,0,.46-.7,0-.71h-8.5c-.47,0-.46.7,0,.71ZM23.78,24.39h-8.5c-.47,0-.46.7,0,.71h8.5c.47,0,.46-.7,0-.71h0ZM23.78,22.72h-8.5c-.47,0-.46.7,0,.71h8.5c.47,0,.46-.7,0-.71h0ZM23.78,16.09h-8.5c-.47,0-.46.7,0,.71h8.5c.47,0,.46-.7,0-.71h0ZM23.78,11.14h-8.5c-.47,0-.46.7,0,.71h8.5c.47,0,.46-.7,0-.71h0ZM30.52,22.56l-4.08-7.66v10.46l3.86-2.05c.27-.15.37-.48.23-.74h0ZM10.54,24.96c-2.49-.08-2.49-3.7,0-3.78,2.49.08,2.49,3.69,0,3.78ZM11.17,22.26l-.88.88-.4-.4c-.33-.33-.82.17-.5.5l.65.65c.07.07.16.1.25.1s.18-.04.25-.1l1.13-1.13c.32-.32-.17-.83-.5-.5h0ZM10.54,18.33c-2.49-.08-2.49-3.7,0-3.78,2.49.08,2.49,3.7,0,3.78ZM11.17,15.63l-.88.88-.4-.4c-.33-.32-.82.17-.5.5l.65.65c.07.07.16.1.25.1s.18-.04.25-.1l1.13-1.13c.32-.33-.17-.83-.5-.5h0ZM10.54,11.7c-2.49-.08-2.49-3.7,0-3.78,2.49.08,2.49,3.7,0,3.78ZM11.17,9l-.88.88-.4-.4c-.33-.32-.82.17-.5.5l.65.65c.07.07.16.11.25.11s.18-.04.25-.11l1.13-1.13c.32-.33-.17-.82-.5-.5h0Z"/>
    </g>
  </g>
</svg>