<?xml version="1.0" encoding="UTF-8"?>
<svg id="Layer_2" xmlns="http://www.w3.org/2000/svg" xmlns:xlink="http://www.w3.org/1999/xlink" viewBox="0 0 32 32">
  <defs>
    <style>
      .cls-1 {
        fill: #112e57;
      }

      .cls-2 {
        fill: none;
      }

      .cls-3 {
        clip-path: url(#clippath);
      }
    </style>
    <clipPath id="clippath">
      <rect class="cls-2" width="32" height="32"/>
    </clipPath>
  </defs>
  <g id="Layer_1-2" data-name="Layer_1">
    <g class="cls-3">
      <path class="cls-1" d="M24.84,14.42c-.09-.16-.04-.37.13-.47.16-.09.37-.04.47.13l1.85,3.26c.09.16.04.37-.13.47-.16.09-.37.04-.47-.13l-1.85-3.26ZM8.83,9.58c-.09-.16-.04-.37.13-.47.16-.09.37-.04.47.13l1.85,3.26c.09.16.04.37-.13.47-.16.09-.37.04-.47-.13l-1.85-3.26ZM27.06,27.28h-2.9v1.13c0,.4.16.76.43,1.02.26.26.62.42,1.02.42s.76-.16,1.02-.43c.26-.26.43-.62.43-1.02v-1.13h0ZM7.83,27.28h-2.9v1.13c0,.39.16.74.42,1.01.27.27.63.43,1.03.43s.74-.16,1.01-.42c.27-.27.43-.63.43-1.03v-1.13h0ZM14.08,25.58c-.19,0-.34-.15-.34-.34s.15-.34.34-.34h3.85c.19,0,.34.15.34.34s-.15.34-.34.34h-3.85ZM12.07,23.99c-.19,0-.34-.15-.34-.34s.15-.34.34-.34h7.85c.19,0,.34.15.34.34s-.15.34-.34.34h-7.85ZM14.08,22.41c-.19,0-.34-.15-.34-.34s.15-.34.34-.34h3.85c.19,0,.34.15.34.34s-.15.34-.34.34h-3.85ZM24.06,21.97c.46,0,.88.19,1.19.49.31.31.49.73.49,1.19s-.19.89-.5,1.2c-.31.3-.72.48-1.18.48s-.88-.19-1.19-.49c-.31-.3-.49-.72-.49-1.19s.19-.89.5-1.2c.31-.3.73-.48,1.18-.48h0ZM24.77,22.95c-.18-.18-.43-.29-.7-.29s-.51.1-.69.28c-.19.19-.3.44-.3.71s.11.52.29.7c.18.18.43.29.7.29s.51-.1.69-.28c.19-.19.3-.44.3-.71s-.11-.52-.29-.7h0ZM7.93,21.97c.46,0,.88.19,1.19.49.31.3.49.73.49,1.19s-.19.89-.5,1.2c-.31.3-.73.48-1.18.48s-.88-.19-1.19-.49c-.31-.3-.49-.72-.49-1.19s.19-.89.5-1.2c.31-.3.72-.48,1.18-.48h0ZM8.64,22.95c-.18-.18-.43-.29-.7-.29s-.51.1-.69.28c-.19.19-.3.44-.3.71s.11.52.29.7c.18.18.43.29.7.29s.51-.1.69-.28c.19-.19.3-.44.3-.71s-.11-.52-.29-.7h0ZM6.16,7.33l7.18,12.69h2.31V7.33H6.16ZM12.56,20.02L5.38,7.33h-2.06v12.69h9.24ZM19.44,7.33l7.18,12.69h2.05V7.33h-9.24ZM25.84,20.02l-7.18-12.69h-2.31v12.69h9.49ZM28.68,20.71H3.32v4.62c0,.35.14.67.37.9.23.23.55.37.9.37h22.82c.35,0,.67-.14.9-.37.23-.23.37-.55.37-.9v-4.62ZM22.95,4.74c-.19,0-.34-.15-.34-.34s.15-.34.34-.34h1.67c.19,0,.34.15.34.34s-.15.34-.34.34h-1.67ZM7.38,4.74c-.19,0-.34-.15-.34-.34s.15-.34.34-.34h1.67c.19,0,.34.15.34.34s-.15.34-.34.34h-1.67ZM12.79,4.74c-.19,0-.34-.15-.34-.34s.15-.34.34-.34h6.41c.19,0,.34.15.34.34s-.15.34-.34.34h-6.41ZM3.32,6.64h25.36v-.9c0-.99-.4-1.89-1.06-2.54-.65-.65-1.55-1.06-2.54-1.06H6.91c-.98,0-1.87.4-2.53,1.05-.66.66-1.06,1.56-1.06,2.55v.9ZM2.63,16.26v-5.93H0v5.93h2.63ZM29.37,10.33v5.93h2.63v-5.93h-2.63Z"/>
    </g>
  </g>
</svg>