<?xml version="1.0" encoding="UTF-8"?>
<svg id="Layer_2" xmlns="http://www.w3.org/2000/svg" xmlns:xlink="http://www.w3.org/1999/xlink" viewBox="0 0 50 40">
  <defs>
    <style>
      .cls-1 {
        fill: #112e57;
      }

      .cls-2 {
        fill: none;
      }

      .cls-3 {
        clip-path: url(#clippath);
      }
    </style>
    <clipPath id="clippath">
      <rect class="cls-2" width="50" height="40"/>
    </clipPath>
  </defs>
  <g id="Layer_1-2" data-name="Layer_1">
    <g class="cls-3">
      <g>
        <path class="cls-1" d="M30.11,24.14h0s-4.47,3.76-4.47,3.76c.06.41.03.81-.08,1.15-.31,1.08-1.27,1.83-2.33,1.83h-4.26c-.47,0-.86-.39-.86-.86s.39-.86.86-.86h4.25c.64,0,1.16-.52,1.16-1.16s-.52-1.16-1.16-1.16h-3.13c-.72,0-1.42-.26-1.97-.72l-.78-.65c-.91-.77-2.05-1.19-3.23-1.19-1.31,0-2.57.52-3.51,1.43l-2.29,2.25,4.01,8.68,3.44-.61h9.48l7.81-9.88c.22-.27.32-.59.32-.91,0-.41-.17-.82-.5-1.11-.8-.7-1.99-.69-2.78.02Z"/>
        <polygon class="cls-1" points="15.43 9.09 15.43 9.09 15.43 9.09 15.43 9.09"/>
        <path class="cls-1" d="M15.43,9.09h-7.52v10.04h7.51c-1.52-1.16-2.5-2.97-2.5-5.02s.98-3.87,2.51-5.03Z"/>
        <path class="cls-1" d="M19.22,19.13h.03c2.77,0,5.01-2.26,5.01-5.02s-2.25-5.03-5.03-5.03-5.02,2.25-5.02,5.03,2.24,5.01,5.01,5.02Z"/>
        <path class="cls-1" d="M30.56,13.23l-.41.21c-.39.21-.85.32-1.32.32-.91,0-1.77-.44-2.29-1.18-.34-.46-.53-1.04-.53-1.65,0-.67.24-1.34.67-1.85h-3.63c1.52,1.16,2.51,2.97,2.51,5.03s-.98,3.86-2.5,5.02h7.51v-5.9Z"/>
        <path class="cls-1" d="M31.85,19.78c0,.35-.29.65-.65.65H7.26c-.35,0-.65-.29-.65-.65v-11.34c0-.36.29-.65.65-.65h20.8l1.97-1.8H6.5c-.94,0-1.7.76-1.7,1.7v12.85c0,.93.76,1.69,1.7,1.69h25.46c.93,0,1.7-.76,1.7-1.69v-8.88l-1.81.92v7.2Z"/>
        <path class="cls-1" d="M27.48,4.7h3.5l1.11,1.46-4.29,3.63c-.33.3-.5.72-.5,1.15,0,.31.09.63.29.9.45.63,1.29.82,1.97.46l5.07-2.77.33.43v4.23l1.33-.08c.89-.04,1.72-.45,2.3-1.12l1.48-1.7h1.68V.58l-10.13.56-4.14,3.56Z"/>
        <rect class="cls-1" x="43.22" width="3.51" height="11.53"/>
        <polygon class="cls-1" points="6.97 28.97 6.6 28.16 3.27 29.86 7.96 40 11.34 38.41 10.98 37.65 6.97 28.97"/>
      </g>
    </g>
  </g>
</svg>