<?xml version="1.0" encoding="UTF-8"?>
<svg id="Layer_2" xmlns="http://www.w3.org/2000/svg" xmlns:xlink="http://www.w3.org/1999/xlink" viewBox="0 0 50 40">
  <defs>
    <style>
      .cls-1 {
        fill: #112e57;
      }

      .cls-2 {
        fill: none;
      }

      .cls-3 {
        clip-path: url(#clippath);
      }
    </style>
    <clipPath id="clippath">
      <rect class="cls-2" width="50" height="40"/>
    </clipPath>
  </defs>
  <g id="Layer_1-2" data-name="Layer_1">
    <g class="cls-3">
      <g>
        <path class="cls-1" d="M44.02,17.07h-16.58c-.54,0-.98.44-.98.98v20.98c0,.54.44.98.98.98h16.58c.54,0,.98-.44.98-.98v-20.98c0-.54-.44-.98-.98-.98ZM31.34,38.05h-1.95c-.54,0-.98-.44-.98-.98s.44-.98.98-.98h1.95c.54,0,.98.44.98.98s-.44.98-.98.98ZM31.34,34.15h-1.95c-.54,0-.98-.44-.98-.98s.44-.98.98-.98h1.95c.54,0,.98.44.98.98s-.44.98-.98.98ZM36.71,38.05h-1.95c-.54,0-.98-.44-.98-.98s.44-.98.98-.98h1.95c.54,0,.98.44.98.98s-.44.98-.98.98ZM36.71,34.15h-1.95c-.54,0-.98-.44-.98-.98s.44-.98.98-.98h1.95c.54,0,.98.44.98.98s-.44.98-.98.98ZM42.07,38.05h-1.95c-.54,0-.98-.44-.98-.98s.44-.98.98-.98h1.95c.54,0,.98.44.98.98s-.44.98-.98.98ZM42.07,34.15h-1.95c-.54,0-.98-.44-.98-.98s.44-.98.98-.98h1.95c.54,0,.98.44.98.98s-.44.98-.98.98ZM43.05,29.27c0,.54-.44.98-.98.98h-12.68c-.54,0-.98-.44-.98-.98v-9.27c0-.54.44-.98.98-.98h12.68c.54,0,.98.44.98.98v9.27Z"/>
        <path class="cls-1" d="M27.44,15.12h0s5.85,0,5.85,0V.98c0-.54-.44-.98-.98-.98h-14.63v9.76c0,1.61-1.31,2.93-2.93,2.93H5s0,26.34,0,26.34c0,.54.44.98.98.98h18.71c-.11-.31-.17-.63-.17-.98v-20.98c0-1.61,1.31-2.93,2.93-2.93Z"/>
        <path class="cls-1" d="M15.73,9.76V1.38L6.38,10.73h8.38c.54,0,.97-.44.98-.97Z"/>
        <polygon class="cls-1" points="15.73 9.76 15.73 9.76 15.73 9.76 15.73 9.76"/>
        <rect class="cls-1" x="30.37" y="20.98" width="10.73" height="7.32"/>
      </g>
    </g>
  </g>
</svg>