<?xml version="1.0" encoding="UTF-8"?>
<svg id="Layer_2" xmlns="http://www.w3.org/2000/svg" xmlns:xlink="http://www.w3.org/1999/xlink" viewBox="0 0 50 40">
  <defs>
    <style>
      .cls-1 {
        fill: #112e57;
        fill-rule: evenodd;
      }

      .cls-2 {
        fill: none;
      }

      .cls-3 {
        clip-path: url(#clippath);
      }
    </style>
    <clipPath id="clippath">
      <rect class="cls-2" width="50" height="40"/>
    </clipPath>
  </defs>
  <g id="Layer_1-2" data-name="Layer_1">
    <g class="cls-3">
      <path class="cls-1" d="M20.43,12.12c-.31,0-.56-.25-.56-.56s.25-.56.56-.56h8.27c.31,0,.56.25.56.56s-.25.56-.56.56h-8.27ZM27.42,17.43l-.8,2.67,2.65-.84-1.86-1.83ZM36.17,8l2.39,2.35,1.07-1.09c.14-.14.21-.33.21-.52,0-.19-.07-.37-.22-.51l-1.35-1.33c-.14-.14-.33-.21-.52-.21s-.37.07-.51.22l-1.07,1.09h0ZM34.88,30.38c0-.31.25-.56.56-.56.31,0,.56.25.56.56v.5c.35.09.66.26.91.48.39.35.62.84.62,1.38,0,.31-.25.56-.56.56s-.56-.25-.56-.56c0-.21-.1-.41-.26-.55-.17-.16-.41-.25-.68-.25-.05,0,0,0-.01,0h-.02c-.26,0-.5.1-.66.26-.15.14-.25.32-.25.52,0,.07,0-.03,0,.02.01.57.58.72,1.13.87.95.26,1.89.51,1.87,1.88,0,.54-.24,1.03-.63,1.38-.23.21-.52.37-.85.47v.51c0,.31-.24.56-.55.56-.31,0-.56-.25-.56-.56v-.5c-.35-.09-.66-.26-.91-.48-.39-.35-.62-.84-.62-1.38,0-.31.25-.56.56-.56s.56.25.56.56c0,.21.1.41.26.55.17.16.41.25.68.25s.51-.1.68-.25c.16-.15.26-.35.26-.56,0-.5-.51-.64-1.04-.79-.95-.26-1.93-.52-1.96-1.93h0c0-.07,0,0,0-.04,0-.53.24-1.01.61-1.35.24-.22.53-.38.86-.47v-.51s0,0,0,0ZM37.53,26.22s.02,0,.02,0h-.02ZM33.35,26.22h0s4.18,0,4.18,0h.03c.09,0,.17.05.23.11.06.06.1.15.1.25s-.04.19-.11.25-.16.11-.25.11h-4.18c-.2,0-.36-.16-.36-.36,0-.1.04-.19.1-.25.06-.07.15-.11.25-.11h0,0ZM37.25,25.1c.27-.44.52-.89.76-1.35.28-.54.55-1.09.79-1.64.04-.09.06-.18.05-.26,0-.08-.03-.17-.08-.25-.05-.08-.1-.15-.17-.2-.07-.05-.15-.08-.25-.09-.98-.14-1.95-.22-2.92-.22s-1.94.07-2.92.22c-.1.01-.18.05-.25.09s-.13.11-.18.2-.07.17-.07.25c0,.09.01.17.05.26.24.54.51,1.08.8,1.64.25.46.5.91.76,1.35h3.61,0ZM17.47,10.84h-4.18v4.18h4.18v-4.18ZM12.72,9.72h5.31c.31,0,.56.25.56.56v5.31c0,.31-.25.56-.56.56h-5.31c-.31,0-.56-.25-.56-.56v-5.31c0-.31.25-.56.56-.56ZM13.82,13.16c-.22-.22-.22-.58,0-.8.22-.22.58-.22.8,0l.55.55.94-1.16c.19-.24.55-.28.79-.09.24.19.28.55.09.79l-1.3,1.62s-.04.05-.06.08c-.22.22-.58.22-.8,0l-.99-.99ZM8.45,31.35h0s0,0,0,0ZM28.31,36.52s0,.02,0,.03c.21.78.7,1.43,1.36,1.94.81.62,1.89,1.05,3.08,1.28,3.33.66,7.46-.13,9.24-2.26.86-1.12.98-2.43.36-3.97-.65-1.6-2.08-3.45-4.31-5.56-.16.06-.34.09-.52.09h-4.18c-.18,0-.35-.03-.51-.09-3.7,3.57-4.89,6.27-4.6,8.2.02.11.04.23.07.34h0ZM10.37,31.9l3.42,3.42v-3.42h-3.42ZM34.37,20v-3.79l-1.2,1.22v2.67c.4-.04.8-.07,1.2-.09h0ZM34.51,14.47l-2.27,2.3s-.04.04-.06.06l-1.85,1.88-.8-.78,7.45-7.57.8.78-3.21,3.26s-.04.04-.06.06h0ZM35.37,8.82s-.04.04-.06.06l-2.27,2.3s-.04.04-.06.06l-5.04,5.12.8.78,7.45-7.57-.8-.78-.02.02h0ZM18.17,1.92h-1.55c-.36,0-.69.11-.92.28-.19.14-.3.33-.3.52v.18s0,.03,0,.05c0,.02,0,.03,0,.05v2.5h10.8v-2.5s0-.03,0-.05c0-.02,0-.04,0-.05v-.18c0-.19-.12-.38-.3-.52-.23-.18-.55-.28-.92-.28h-1.55s-.01,0-.01,0c-.26,0-.47-.18-.53-.42-.01-.05-.02-.1-.02-.15,0-.34-.21-.66-.54-.9-.39-.28-.93-.45-1.54-.45s-1.15.17-1.54.45c-.33.24-.54.56-.54.9h0c0,.32-.25.57-.56.57h0ZM14.29,4.53v-1.01h-6.42c-.17,0-.32.07-.43.18s-.18.27-.18.43v33.49c0,.17.07.32.18.43.11.11.27.18.43.18h20.04c-.22-.31-.4-.65-.54-1.01h-13.01c-.09,0-.18-.02-.26-.06-.01,0-.02-.01-.03-.02h0s0,0,0,0h0s0,0,0,0h0s-.01,0-.01,0h0s-.05-.04-.07-.06l-5.33-5.33s-.02-.02-.02-.03h0s-.02-.03-.03-.04l-.02-.03h0s0-.02,0-.02h0s0-.01,0-.01h0s0-.01,0-.01h0s0-.01,0-.01h0s0-.01,0-.01h0s0,0,0,0h0s0,0,0,0h0s0-.01,0-.01h0s0-.01,0-.01h0s0,0,0,0h0s0-.01,0-.01h0s0-.01,0-.01h0s0-.01,0-.01c0,0,0-.02,0-.02h0s0,0,0,0h0s0-.02,0-.02h0s0-.01,0-.01h0s0-.02,0-.02h0s0-.02,0-.02h0v-.02h0s0-.01,0-.01h0v-.02h0s0-26.24,0-26.24c0-.31.25-.56.56-.56h5.27,0ZM27.34,3.52h6.42c.17,0,.32.07.43.18.11.11.18.27.18.43v4.09l-1.2,1.22v-4.36c0-.31-.25-.56-.56-.56h-5.27v-1.01h0ZM17.47,19.36v4.18h-4.18v-4.18h4.18ZM12.73,18.23h5.31c.31,0,.56.25.56.56v5.31c0,.31-.25.56-.56.56h-5.31c-.31,0-.56-.25-.56-.56v-5.31c0-.31.25-.56.56-.56ZM13.82,21.67c-.22-.22-.22-.58,0-.8.22-.22.58-.22.8,0l.55.55.94-1.16c.19-.24.55-.28.79-.09.24.19.28.55.09.79l-1.3,1.62s-.04.05-.06.08c-.22.22-.58.22-.8,0l-.99-.99ZM20.44,23.38c-.31,0-.56-.25-.56-.56s.25-.56.56-.56h8.27c.31,0,.56.25.56.56s-.25.56-.56.56h-8.27ZM20.44,29.14c-.31,0-.56-.25-.56-.56s.25-.56.56-.56h7.88c.31,0,.56.25.56.56s-.25.56-.56.56h-7.88ZM14.92,32.05v-.71c0-.31-.25-.56-.56-.56h-1.07v-2.9h4.18v4.18h-2.55ZM12.16,30.77v-3.47c0-.31.25-.56.56-.56h5.31c.31,0,.56.25.56.56v5.31c0,.31-.25.56-.56.56h-3.11v2.94h12.19c-.12-1.19.2-2.6,1.11-4.22h-7.78c-.31,0-.56-.25-.56-.56s.25-.56.56-.56h8.49c.76-1.1,1.77-2.28,3.09-3.55-.09-.19-.14-.41-.14-.64,0-.4.16-.77.42-1.03.06-.07.13-.12.21-.18-.22-.37-.42-.73-.61-1.09-.29-.55-.57-1.12-.84-1.71-.11-.25-.16-.51-.15-.76.01-.26.08-.51.21-.75.13-.24.31-.43.52-.58.13-.09.27-.16.41-.21v-1.7l-1.29,1.31c-.07.08-.15.14-.26.17l-4.55,1.44c-.1.03-.22.03-.33,0-.3-.09-.47-.4-.38-.7l.05-.16h-4.86c-.31,0-.56-.25-.56-.56s.25-.56.56-.56h5.19l.98-3.29c.03-.1.09-.19.16-.26l1.07-1.09h-7.4c-.31,0-.56-.25-.56-.56s.25-.56.56-.56h8.27c.07,0,.14.01.2.04l3.14-3.19v-4.94h-4.71v.42c0,.31-.25.56-.56.56h-11.93c-.31,0-.56-.25-.56-.56v-.42h-4.71v25.12h2.59,0Z"/>
    </g>
  </g>
</svg>