<?xml version="1.0" encoding="UTF-8"?>
<svg id="Layer_2" xmlns="http://www.w3.org/2000/svg" xmlns:xlink="http://www.w3.org/1999/xlink" viewBox="0 0 50 40">
  <defs>
    <style>
      .cls-1 {
        fill: #112e57;
        fill-rule: evenodd;
      }

      .cls-2 {
        fill: none;
      }

      .cls-3 {
        clip-path: url(#clippath);
      }
    </style>
    <clipPath id="clippath">
      <rect class="cls-2" width="50" height="40"/>
    </clipPath>
  </defs>
  <g id="Layer_1-2" data-name="Layer_1">
    <g class="cls-3">
      <path class="cls-1" d="M17.19,1.09c.26,0,.5.11.68.28h0s0,0,0,0c.17.17.28.41.28.68s-.11.5-.28.68h0c-.17.18-.41.28-.68.28s-.5-.11-.68-.28h0c-.17-.18-.28-.42-.28-.68s.11-.51.28-.68c.02-.02.03-.03.05-.04.17-.15.39-.24.64-.24h0ZM34.55,17.39c.06-.12.12-.24.19-.35.1-.18.1-.38-.02-.55l-.33-.48c-.13-.19-.12-.44.03-.62.21-.25.44-.49.69-.71.18-.16.44-.18.63-.04l.49.34c.17.12.38.12.55.02.45-.27.94-.47,1.46-.6.2-.05.34-.2.38-.4l.12-.68c.04-.23.23-.4.46-.42.21-.02.43-.03.64-.03s.43.01.64.03c.23.02.42.19.46.42l.13.68c.04.2.18.35.38.4.52.14,1.01.34,1.46.6.18.1.38.1.55-.02l.49-.34c.2-.14.46-.12.63.04.25.22.48.46.69.71.15.18.16.43.03.62l-.33.48c-.12.17-.12.38-.02.55.27.45.47.94.61,1.46.05.2.2.34.41.38l.53.1c.23.04.4.23.42.47.01.17.02.34.02.51s0,.34-.02.51c-.02.24-.19.43-.42.47l-.53.1c-.2.04-.35.18-.41.38-.14.52-.34,1.01-.61,1.46-.1.18-.1.38.02.55l.33.48c.13.19.12.44-.03.62-.21.25-.44.49-.69.71-.18.16-.44.18-.63.04l-.49-.34c-.17-.12-.38-.12-.55-.02-.17.1-.33.18-.51.27v-2.43c.76-.69,1.24-1.69,1.24-2.8,0-2.09-1.7-3.79-3.79-3.79-1.11,0-2.11.48-2.8,1.24h-2.51ZM27.72,18.27c-.55,0-1,.47-1,1.06v15.48c0,.58.45,1.06,1,1.06h12.82c.55,0,1-.47,1-1.06v-15.48c0-.58-.45-1.06-1-1.06h-12.82ZM37.59,34.02c-.27,0-.5-.23-.5-.5v-4.23c0-.28.23-.5.5-.5h1.83c.28,0,.5.23.5.5v4.23c0,.28-.23.5-.5.5h-1.83ZM33.21,34.02c-.27,0-.5-.22-.5-.5v-.77c0-.27.22-.5.5-.5h1.83c.27,0,.5.22.5.5v.77c0,.27-.22.5-.5.5h-1.83ZM28.83,34.02c-.27,0-.5-.22-.5-.5v-.77c0-.27.22-.5.5-.5h1.83c.27,0,.5.22.5.5v.77c0,.27-.22.5-.5.5h-1.83ZM28.83,27.09c-.27,0-.5-.22-.5-.5v-.77c0-.27.22-.5.5-.5h1.83c.27,0,.5.22.5.5v.77c0,.27-.22.5-.5.5h-1.83ZM37.59,27.09h1.83c.27,0,.5-.22.5-.5v-.77c0-.27-.22-.5-.5-.5h-1.83c-.27,0-.5.22-.5.5v.77c0,.27.22.5.5.5ZM33.21,27.09h1.83c.27,0,.5-.22.5-.5v-.77c0-.27-.22-.5-.5-.5h-1.83c-.27,0-.5.22-.5.5v.77c0,.27.22.5.5.5ZM33.21,30.55c-.27,0-.5-.22-.5-.5v-.77c0-.27.22-.5.5-.5h1.83c.27,0,.5.22.5.5v.77c0,.27-.22.5-.5.5h-1.83ZM28.83,30.55c-.27,0-.5-.22-.5-.5v-.77c0-.27.22-.5.5-.5h1.83c.27,0,.5.22.5.5v.77c0,.27-.22.5-.5.5h-1.83ZM28.39,20.28v2.65c0,.18.15.33.33.33h10.8c.18,0,.33-.15.33-.33v-2.65c0-.18-.15-.33-.33-.33h-10.8c-.18,0-.33.15-.33.33ZM10.4,4.17v.82h-5.39c-.32,0-.6.13-.81.34-.21.21-.34.5-.34.81v31.83c0,.32.13.6.34.81.21.21.5.34.81.34h24.35c.32,0,.6-.13.81-.34h0,0c.21-.21.34-.5.34-.81v-1.23h.82v3.16s0,.02-.01.03h0s-.01.02-.02.02h0s-28.2.05-28.2.05c0,0-.02,0-.02,0l-.03-.03V4.22s0-.02.02-.03c0,0,.02-.01.03-.01h7.31ZM31.33,17.39V4.22h0s0-.02,0-.02h0s-.02-.02-.03-.02h-7.31v.82h5.39c.32,0,.6.13.81.34h0c.21.21.34.49.34.81v11.25h.82ZM11.59,11.04v.27c-.34.08-.66.24-.91.5-.16.16-.29.36-.38.6-.16.42-.15.84.03,1.23.16.35.46.65.9.87.31.16.66.25,1,.34.22.06.44.11.62.19h.02c.23.11.33.24.33.36,0,.09-.03.2-.11.3-.08.12-.21.23-.38.31-.16.08-.35.12-.56.12h-.04c-.37,0-.8-.15-1.27-.5-.24-.18-.59-.13-.77.11-.18.24-.13.59.11.77.48.36.95.57,1.39.66v.3c0,.3.25.55.55.55s.55-.25.55-.55v-.3c.18-.04.35-.1.51-.18.34-.17.61-.41.8-.68.2-.29.31-.63.3-.97-.02-.55-.33-1.05-1.01-1.34h-.03c-.23-.11-.5-.18-.76-.24-.28-.07-.57-.15-.78-.26-.21-.1-.34-.23-.4-.35-.05-.11-.05-.23,0-.36h0c.04-.09.09-.17.15-.23.12-.13.3-.2.5-.22.04,0,.08,0,.13,0,.02,0,.03,0,.04,0h.03c.17,0,.35.05.51.11.17.06.32.15.43.26.22.21.57.21.78-.01.21-.22.21-.57-.01-.78-.22-.21-.5-.38-.81-.5-.12-.05-.25-.09-.38-.12v-.27c0-.3-.25-.55-.55-.55-.31,0-.56.24-.56.55h0ZM10.4,6.1v1.02c0,.3.25.55.55.55h12.47c.31,0,.55-.25.55-.55v-1.02h5.39s.02,0,.03.01h0s0,0,0,0c0,0,.01.02.01.03v11.25h-1.69c-1.06,0-1.88.89-1.88,1.94v15.48c0,1.04.82,1.94,1.88,1.94h1.69v1.23s0,.02-.01.03h0s-.02.01-.03.01H5.01s-.02,0-.03-.01c0,0-.01-.02-.01-.03V6.14s0-.02.01-.03c0,0,.02-.01.03-.01h5.39ZM8.42,30.41c-.47,0-.85.38-.85.85v3.47c0,.47.38.85.85.85h3.47c.47,0,.85-.39.85-.86v-3.47c0-.47-.38-.85-.85-.85h-3.47ZM8.42,22.47c-.47,0-.85.38-.85.85v3.47c0,.47.38.85.85.85h3.47c.47,0,.85-.39.85-.86v-3.47c0-.47-.38-.85-.85-.85h-3.47ZM15.71,34.79h8.13c.3,0,.55-.25.55-.55s-.25-.55-.55-.55h-8.13c-.3,0-.55.25-.55.55s.25.55.55.55ZM15.71,24.37h6.45c.3,0,.55-.25.55-.55s-.25-.55-.55-.55h-6.45c-.3,0-.55.25-.55.55s.25.55.55.55ZM15.71,26.84h8.13c.3,0,.55-.25.55-.55s-.25-.55-.55-.55h-8.13c-.3,0-.55.25-.55.55s.25.55.55.55ZM15.71,32.32h6.45c.3,0,.55-.25.55-.55s-.25-.55-.55-.55h-6.45c-.3,0-.55.25-.55.55s.25.55.55.55ZM19.26,12.28h7.76c.3,0,.55-.25.55-.55s-.25-.55-.55-.55h-7.76c-.31,0-.55.25-.55.55s.25.55.55.55ZM19.26,17.34h5.36c.31,0,.55-.25.55-.55s-.25-.55-.55-.55h-5.36c-.3,0-.55.25-.55.55s.25.55.55.55ZM19.26,14.81h7.76c.3,0,.55-.25.55-.55s-.25-.55-.55-.55h-7.76c-.31,0-.55.25-.55.55s.25.55.55.55ZM12.14,9.47c-2.65,0-4.79,2.14-4.79,4.79s2.14,4.79,4.79,4.79,4.79-2.14,4.79-4.79c0-2.65-2.14-4.79-4.79-4.79ZM8.7,33.31l.87.84c.22.21.57.2.78-.02.01-.01.02-.02.03-.03l1.26-1.52c.2-.24.16-.58-.07-.78-.24-.2-.58-.16-.78.07l-.88,1.06-.44-.43c-.22-.21-.57-.2-.78.02-.21.22-.21.57.02.78h0ZM8.7,25.37l.87.84c.22.21.57.2.78-.02.02-.02.03-.03.05-.05l1.24-1.49c.2-.23.16-.58-.07-.78-.23-.2-.58-.16-.78.07l-.88,1.06-.44-.43c-.22-.21-.57-.2-.78.02-.21.22-.2.57.02.78h0ZM19.79,2.6c-.31,0-.55-.25-.55-.55,0-.57-.23-1.08-.6-1.45h0c-.37-.37-.88-.6-1.45-.6s-1.06.22-1.43.57l-.03.03c-.37.37-.6.88-.6,1.45,0,.3-.25.55-.55.55h-1.64c-.39,0-.75.16-1.01.42-.26.26-.42.62-.42,1.01v2.52h11.36v-2.52c0-.39-.16-.75-.42-1.01-.26-.26-.62-.42-1.01-.42h-1.64Z"/>
    </g>
  </g>
</svg>