<?xml version="1.0" encoding="UTF-8"?>
<svg id="Layer_2" xmlns="http://www.w3.org/2000/svg" xmlns:xlink="http://www.w3.org/1999/xlink" viewBox="0 0 50 40">
  <defs>
    <style>
      .cls-1 {
        fill: #112e57;
        fill-rule: evenodd;
      }

      .cls-2 {
        fill: none;
      }

      .cls-3 {
        clip-path: url(#clippath);
      }
    </style>
    <clipPath id="clippath">
      <rect class="cls-2" width="50" height="40"/>
    </clipPath>
  </defs>
  <g id="Layer_1-2" data-name="Layer_1">
    <g class="cls-3">
      <path class="cls-1" d="M27.14,13.96h-1.83v9.86h1.83v-9.86ZM24.75,12.84h2.95c.31,0,.56.25.56.56v10.97c0,.31-.25.56-.56.56h-2.95c-.31,0-.56-.25-.56-.56v-10.97c0-.31.25-.56.56-.56ZM21.45,17.12h-1.83v6.7h1.83v-6.7ZM19.07,15.99h2.95c.31,0,.56.25.56.56v7.83c0,.31-.25.56-.56.56h-2.95c-.31,0-.56-.25-.56-.56v-7.83c0-.31.25-.56.56-.56ZM15.77,20.33h-1.83v3.49h1.83v-3.49ZM13.39,19.21h2.94c.31,0,.56.25.56.56v4.61c0,.31-.25.56-.56.56h-2.95c-.31,0-.56-.25-.56-.56v-4.61c0-.31.25-.56.56-.56h0ZM34.07,5.14L29.58.76v3.66c0,.19.06.37.18.5.13.13.31.21.49.21h3.81ZM10.53,29.6c-.31,0-.56-.25-.56-.56s.25-.56.56-.56h20.01c.31,0,.56.25.56.56s-.25.56-.56.56H10.53ZM39.2,15.99l4.24-.43c-.49-2.19-2.42-3.76-4.67-3.79l.43,4.24v-.02ZM34.89,23.08v16.22c0,.39-.31.7-.7.7H6.89c-.19,0-.37-.07-.5-.21-.13-.13-.2-.31-.21-.49V.7c0-.19.07-.36.21-.49.13-.13.31-.21.5-.21h21.54v4.46c0,.49.19.95.54,1.29s.81.54,1.29.54h4.63v5.26c-.68.4-1.29.92-1.79,1.54-1.12,1.37-1.65,3.14-1.47,4.9.18,1.76,1.05,3.38,2.42,4.5.26.22.54.41.84.59h0ZM37.72,17.37c.03.31.31.53.61.5l5.48-.56h0c0,1.93-1,3.73-2.65,4.74-1.65,1.01-3.7,1.1-5.42.23l-.07-.04c-1.82-.97-2.95-2.86-2.95-4.92s1.14-3.95,2.95-4.91l.08-.04h0c.44-.23.92-.4,1.41-.49l.56,5.48h0ZM10.53,32.96h20.01c.31,0,.56-.25.56-.56s-.25-.56-.56-.56H10.53c-.31,0-.56.25-.56.56s.25.56.56.56ZM10.53,36.31h20.01c.31,0,.56-.25.56-.56s-.25-.56-.56-.56H10.53c-.31,0-.56.25-.56.56s.25.56.56.56ZM18.86,4.14c-1.99-1.99-5.11-2.3-7.45-.73-2.34,1.57-3.25,4.57-2.17,7.17,1.08,2.6,3.84,4.08,6.61,3.53,2.76-.55,4.75-2.98,4.75-5.79,0-1.57-.62-3.07-1.73-4.18h0ZM14.68,1.29c-2.19,0-4.25,1.02-5.58,2.75-1.33,1.73-1.78,3.99-1.22,6.1s2.08,3.84,4.1,4.68c2.02.84,4.32.69,6.21-.41,1.89-1.09,3.17-3.01,3.46-5.18.29-2.17-.46-4.35-2-5.9-1.32-1.32-3.11-2.06-4.97-2.06h0ZM14.12,4.13v.52h0c-.95.26-1.61,1.11-1.62,2.1,0,1.68,1.02,1.92,2.05,2.17.59.14,1.18.28,1.18,1.07h0c0,.29-.12.56-.32.76-.2.2-.47.31-.75.31s-.55-.11-.74-.31c-.2-.2-.31-.47-.31-.75,0-.31-.25-.56-.56-.56s-.56.25-.56.56c0,.58.23,1.14.64,1.54.27.27.61.47.98.57v.52c0,.31.25.56.56.56s.56-.25.56-.56v-.52c.37-.1.71-.29.98-.57.41-.41.64-.97.64-1.54,0-1.67-1.02-1.92-2.05-2.16-.59-.14-1.19-.28-1.19-1.07,0-.58.47-1.05,1.06-1.05.28,0,.55.1.75.3.2.2.31.46.32.75,0,.31.25.56.56.56s.56-.25.56-.56c0-.99-.66-1.85-1.62-2.11v-.51c0-.31-.25-.56-.56-.56s-.56.25-.56.56h0Z"/>
    </g>
  </g>
</svg>