<?xml version="1.0" encoding="UTF-8"?>
<svg id="Layer_2" xmlns="http://www.w3.org/2000/svg" xmlns:xlink="http://www.w3.org/1999/xlink" viewBox="0 0 50 40">
  <defs>
    <style>
      .cls-1 {
        fill: #112e57;
      }

      .cls-2 {
        fill: none;
      }

      .cls-3 {
        clip-path: url(#clippath);
      }
    </style>
    <clipPath id="clippath">
      <rect class="cls-2" width="50" height="40"/>
    </clipPath>
  </defs>
  <g id="Layer_1-2" data-name="Layer_1">
    <g class="cls-3">
      <g>
        <polygon class="cls-1" points="29.34 21.76 40.83 11.22 17.84 11.22 29.34 21.76"/>
        <path class="cls-1" d="M15.29,28.63V10.5s.01-.07.02-.1c0-.05.01-.11.03-.16.02-.05.05-.09.08-.14.02-.03.03-.06.05-.09,0,0,0,0,.01,0,.04-.04.09-.07.14-.1.03-.02.06-.05.09-.06.04-.02.07-.02.11-.03.05-.01.1-.03.16-.03,0,0,.01,0,.02,0h15.58V2.3C31.59,1.03,30.55,0,29.29,0h-2.84v1.99c0,1.3-1.12,2.35-2.5,2.35h-8.26c-1.37,0-2.49-1.06-2.49-2.35V0h-2.84c-1.27,0-2.3,1.03-2.3,2.3v35.4c0,1.27,1.03,2.3,2.3,2.3h18.94c1.27,0,2.3-1.03,2.3-2.3v-8.36h-15.58c-.39,0-.71-.32-.71-.71ZM18.47,36.44h2.7c.39,0,.71.32.71.71s-.32.71-.71.71h-2.7c-.39,0-.71-.32-.71-.71s.32-.71.71-.71Z"/>
        <path class="cls-1" d="M33.96,19.45l6.32,5.7c.29.26.32.72.05,1.01-.14.16-.34.24-.53.24-.17,0-.34-.06-.48-.18l-6.43-5.79-3.08,2.82c-.14.12-.31.19-.48.19s-.35-.06-.48-.19l-2.97-2.72-6.53,5.99c-.14.12-.31.19-.48.19-.19,0-.39-.08-.53-.23-.27-.29-.25-.74.04-1.01l6.44-5.91h0s-8.11-7.43-8.11-7.43v15.79h25.24v-15.79l-8,7.33Z"/>
        <path class="cls-1" d="M15.68,2.92h8.26c.58,0,1.07-.42,1.07-.92V0h-10.4v1.99c0,.51.48.92,1.07.92Z"/>
      </g>
    </g>
  </g>
</svg>