<?xml version="1.0" encoding="UTF-8"?>
<svg id="Layer_2" xmlns="http://www.w3.org/2000/svg" xmlns:xlink="http://www.w3.org/1999/xlink" viewBox="0 0 50 40">
  <defs>
    <style>
      .cls-1 {
        fill: #112e57;
      }

      .cls-2 {
        fill: none;
      }

      .cls-3 {
        clip-path: url(#clippath);
      }
    </style>
    <clipPath id="clippath">
      <rect class="cls-2" width="50" height="40"/>
    </clipPath>
  </defs>
  <g id="Layer_1-2" data-name="Layer_1">
    <g class="cls-3">
      <path class="cls-1" d="M39.09,6.43c-3.67-3.67-9.63-3.67-13.31,0-3.67,3.68-3.67,9.63,0,13.31,3.68,3.67,9.63,3.67,13.31,0,3.68-3.68,3.68-9.63,0-13.31h0ZM35.01,8.92c.61,0,.61.93,0,.93h-2.57c-.76,0-1.44.18-1.93.47-.41.25-.67.57-.67.91,0,1.01,1.33,1.2,2.67,1.39,1.74.25,3.47.5,3.47,2.31,0,.69-.43,1.29-1.13,1.71-.52.31-1.2.53-1.96.59v.79c0,.61-.93.61-.93,0v-.77h-2.35c-.61,0-.61-.93,0-.93h2.83c.76,0,1.44-.18,1.93-.47.42-.25.68-.57.68-.91,0-1.01-1.33-1.2-2.67-1.39-1.74-.25-3.47-.5-3.47-2.31,0-.69.43-1.29,1.12-1.71.52-.31,1.19-.52,1.93-.59l.03-.8c0-.26.22-.46.48-.45.26,0,.46.22.45.48l-.03.75h2.12ZM28.47,24.24l1.51,2.26c.2.3,0,.7-.36.72h0l-2.71.18c-.35.02-.63-.34-.43-.7l.43-.88c-8.57-3.83-10.74-15.15-4.03-21.87,5.27-5.27,13.82-5.27,19.09,0,6.79,6.79,4.47,18.26-4.27,21.97-.23.1-.51-.01-.61-.25-.1-.24.01-.51.25-.61,8.08-3.42,10.34-14.09,3.97-20.46C36.41-.3,28.46-.3,23.55,4.61c-6.27,6.27-4.21,16.82,3.78,20.37l.34-.69c.16-.33.61-.35.8-.05h0ZM7.03,28.53l-2.29,1.33c-.64.37-.86,1.2-.49,1.84l4.45,7.64c.37.64,1.2.85,1.84.48l2.32-1.35c.65-.37.85-1.22.49-1.84l-4.43-7.61c-.21-.34-.45-.55-.83-.65-.32-.08-.68-.05-.99.12-.02.01-.03.02-.05.03h0ZM10,29.06l4.14,7.11s.04.08.06.12l8.61,2.01c.49.11.93.06,1.37-.17l12.28-6.41c3.1-1.62,1.86-4.02-1.17-2.86l-9.96,3.82c-.11.06-.24.08-.39.02l-7.32-2.7c-.57-.21-.25-1.08.32-.87l7.13,2.62c2.13-1.24.71-2.83-1.19-3.67l-5.89-2.61c-.6-.26-1.21-.23-1.78.09l-6.2,3.5Z"/>
    </g>
  </g>
</svg>