<?xml version="1.0" encoding="UTF-8"?>
<svg id="Layer_2" xmlns="http://www.w3.org/2000/svg" xmlns:xlink="http://www.w3.org/1999/xlink" viewBox="0 0 50 40">
  <defs>
    <style>
      .cls-1 {
        fill: #112e57;
      }

      .cls-2 {
        fill: none;
      }

      .cls-3 {
        clip-path: url(#clippath);
      }
    </style>
    <clipPath id="clippath">
      <rect class="cls-2" width="50" height="40"/>
    </clipPath>
  </defs>
  <g id="Layer_1-2" data-name="Layer_1">
    <g class="cls-3">
      <g>
        <rect class="cls-1" x="11.26" y="9.34" width="6.24" height="4.83"/>
        <rect class="cls-1" x="11.26" y="15.27" width="6.24" height="4.83"/>
        <rect class="cls-1" x="11.26" y="21.2" width="6.24" height="4.83"/>
        <rect class="cls-1" x="18.6" y="9.34" width="15.16" height="4.83"/>
        <rect class="cls-1" x="18.6" y="15.27" width="15.16" height="4.83"/>
        <rect class="cls-1" x="18.6" y="21.2" width="15.16" height="4.83"/>
        <path class="cls-1" d="M37.72,0H7.31c-.47,0-.9.34-.9.79v31.39h5.85c1.38,0,2.58,1.06,2.58,2.43v5.39h18.82c-2.04-1.27-3.39-3.53-3.39-6.11,0-3.98,3.23-7.21,7.21-7.21.39,0,.77.03,1.14.09h0V.79c0-.46-.43-.79-.9-.79ZM17.75,5.14h16.56c.3,0,.55.24.55.55s-.24.55-.55.55h-16.56c-.3,0-.55-.25-.55-.55s.25-.55.55-.55ZM27.67,36.92h-10.6c-.3,0-.55-.25-.55-.55s.25-.55.55-.55h10.6c.3,0,.55.24.55.55s-.24.55-.55.55ZM27.67,33.8h-10.6c-.3,0-.55-.24-.55-.55s.25-.55.55-.55h10.6c.3,0,.55.25.55.55s-.24.55-.55.55ZM27.67,30.68H10.72c-.3,0-.55-.24-.55-.55s.24-.55.55-.55h16.95c.3,0,.55.24.55.55s-.24.55-.55.55ZM34.86,26.58c0,.3-.24.55-.55.55H10.72c-.3,0-.55-.24-.55-.55V8.8c0-.3.24-.55.55-.55h0s23.59,0,23.59,0c.3,0,.55.24.55.55v17.79Z"/>
        <path class="cls-1" d="M12.26,33.28h-5.01l6.49,6.02v-4.68c0-.77-.7-1.34-1.49-1.34h0Z"/>
        <path class="cls-1" d="M41.8,29.56c-2.39-2.39-6.26-2.39-8.64,0-2.39,2.39-2.39,6.26,0,8.65,2.39,2.39,6.26,2.39,8.64,0,2.39-2.39,2.39-6.26,0-8.65ZM37.58,33.35c1.15.21,2.3.41,2.3,1.93,0,.99-.84,1.69-1.85,1.89v.6c0,.3-.24.55-.55.55s-.55-.24-.55-.55v-.6c-.39-.07-.76-.23-1.09-.47-.47-.35-.76-.85-.76-1.42,0-.3.25-.55.55-.55s.55.24.55.55c0,.48.62.83,1.27.85,0,0,.02,0,.02,0s.02,0,.03,0c.33,0,.67-.09.94-.3.2-.15.32-.34.32-.55,0-.6-.7-.73-1.4-.85-1.15-.21-2.3-.41-2.3-1.93,0-.99.84-1.69,1.85-1.88v-.6h0c0-.3.25-.55.55-.55s.55.24.55.55v.6c.39.07.76.23,1.09.47.47.36.76.86.76,1.42,0,.3-.24.55-.55.55s-.55-.24-.55-.55c0-.47-.61-.82-1.26-.84-.01,0-.02,0-.04,0-.02,0-.03,0-.05,0-.33,0-.66.1-.93.3-.2.15-.32.34-.32.55,0,.6.7.73,1.4.86Z"/>
      </g>
    </g>
  </g>
</svg>