<?xml version="1.0" encoding="UTF-8"?>
<svg id="Layer_2" xmlns="http://www.w3.org/2000/svg" xmlns:xlink="http://www.w3.org/1999/xlink" viewBox="0 0 40 40">
  <defs>
    <style>
      .cls-1 {
        fill: #fbecb3;
      }

      .cls-2 {
        fill: #3a4b81;
      }

      .cls-3 {
        fill: #e7e6fd;
      }

      .cls-4 {
        fill: #fff;
      }

      .cls-5 {
        fill: none;
      }

      .cls-6 {
        fill: #9a88fb;
      }

      .cls-7 {
        clip-path: url(#clippath);
      }
    </style>
    <clipPath id="clippath">
      <rect class="cls-5" width="40" height="40"/>
    </clipPath>
  </defs>
  <g id="Layer_1-2" data-name="Layer_1">
    <g class="cls-7">
      <g id="_x31_9_Compiler">
        <g>
          <path class="cls-6" d="M3.35,3.22h33.3c1.63,0,2.96,1.32,2.96,2.96v5.93H.39v-5.93c0-1.63,1.32-2.96,2.96-2.96h0Z"/>
          <path class="cls-4" d="M39.61,12.15v21.67c0,1.63-1.32,2.96-2.96,2.96H3.35c-1.63,0-2.96-1.32-2.96-2.96V12.15h8.26l.96-2.35h9.32l.96,2.35h19.72Z"/>
          <path class="cls-3" d="M39.61,32.52v1.31c0,1.64-1.33,2.96-2.96,2.96H3.35c-1.64,0-2.96-1.33-2.96-2.96V12.15h4.27v17.4c0,1.64,1.32,2.96,2.96,2.96h31.99Z"/>
          <path class="cls-1" d="M21.99,12.15v24.63h14.66c1.63,0,2.96-1.32,2.96-2.96V12.15h-17.62Z"/>
          <path class="cls-6" d="M18.49,22.39v1.81c0,.45-.32.84-.76.93l-.6.12c-.09.28-.2.55-.33.81l.34.51c.25.38.2.87-.12,1.19l-1.28,1.28c-.32.32-.82.37-1.19.12l-.51-.33c-.26.13-.53.24-.81.33l-.12.6c-.09.44-.48.76-.93.76h-1.81c-.45,0-.84-.32-.93-.76l-.12-.6c-.28-.09-.55-.2-.81-.33l-.51.33c-.38.25-.87.2-1.19-.12l-1.28-1.28c-.32-.32-.37-.82-.12-1.19l.34-.51c-.13-.26-.24-.53-.33-.81l-.6-.12c-.44-.09-.76-.48-.76-.93v-1.81c0-.45.32-.84.76-.93l.6-.12c.09-.28.2-.55.33-.81l-.34-.51c-.25-.38-.2-.87.12-1.19l1.28-1.28c.32-.32.82-.37,1.19-.12l.51.33c.26-.13.53-.24.81-.33l.12-.6c.09-.44.48-.76.93-.76h1.81c.45,0,.84.32.93.76l.12.6c.28.09.55.2.81.33l.51-.33c.38-.25.87-.2,1.19.12l1.28,1.28c.32.32.37.82.12,1.19l-.34.51c.13.26.24.53.33.81l.6.12c.44.09.76.48.76.93Z"/>
          <path class="cls-4" d="M14.63,23.29c0,1.86-1.5,3.36-3.36,3.36s-3.36-1.51-3.36-3.36,1.51-3.36,3.36-3.36,3.36,1.5,3.36,3.36Z"/>
          <g>
            <path class="cls-2" d="M36.65,2.83H3.35c-1.85,0-3.35,1.5-3.35,3.35v27.64c0,1.85,1.5,3.35,3.35,3.35h33.3c1.85,0,3.35-1.5,3.35-3.35V6.18c0-1.85-1.5-3.35-3.35-3.35ZM.78,33.82V12.55h7.87c.16,0,.3-.1.36-.24l.86-2.11h8.79l.86,2.11c.06.15.2.24.36.24h1.71v23.84H3.35c-1.42,0-2.57-1.15-2.57-2.57h0ZM39.22,33.82c0,1.42-1.15,2.57-2.57,2.57h-14.27V12.55h16.84v21.28ZM39.22,11.72c-27.32.07,8.25-.02-19.07.04l-.86-2.11c-.06-.15-.2-.24-.36-.24h-9.32c-.16,0-.3.1-.36.24l-.86,2.11c-.51,0,2.27.01-7.6-.04v-5.54c0-1.42,1.15-2.57,2.57-2.57h33.3c1.42,0,2.57,1.15,2.57,2.57v5.54Z"/>
            <path class="cls-2" d="M35.84,7.27h-1.85c-.22,0-.39.18-.39.39s.18.39.39.39h1.85c.22,0,.39-.18.39-.39s-.18-.39-.39-.39Z"/>
            <path class="cls-2" d="M32.06,7.27h-1.85c-.22,0-.39.18-.39.39s.18.39.39.39h1.85c.22,0,.39-.18.39-.39s-.18-.39-.39-.39Z"/>
            <path class="cls-2" d="M28.29,7.27h-1.85c-.22,0-.39.18-.39.39s.18.39.39.39h1.85c.22,0,.39-.18.39-.39s-.18-.39-.39-.39Z"/>
            <path class="cls-2" d="M17.82,21.07l-.38-.08c-.05-.15-.11-.29-.18-.44l.21-.32c.35-.53.28-1.24-.17-1.68l-1.28-1.28c-.45-.45-1.16-.52-1.68-.17l-.32.21c-.14-.07-.29-.13-.44-.18l-.08-.38c-.13-.62-.68-1.07-1.31-1.07h-1.81c-.63,0-1.19.45-1.31,1.07l-.08.38c-.15.05-.29.12-.44.18l-.32-.21c-.53-.35-1.24-.28-1.68.17l-1.28,1.28c-.45.45-.52,1.16-.17,1.69l.21.32c-.07.15-.13.29-.18.44l-.38.08c-.62.13-1.07.68-1.07,1.31v1.81c0,.63.45,1.19,1.07,1.31l.38.08c.05.15.11.29.18.44l-.21.32c-.35.53-.28,1.24.17,1.68l1.28,1.28c.45.45,1.16.52,1.68.17l.32-.21c.15.07.29.13.44.18l.08.38c.13.62.68,1.07,1.31,1.07h1.81c.63,0,1.19-.45,1.31-1.07l.08-.38c.15-.06.3-.12.44-.18l.32.21c.53.35,1.24.28,1.68-.17l1.28-1.28c.45-.45.52-1.16.17-1.69l-.21-.32c.07-.14.13-.29.18-.44l.38-.08c.62-.13,1.07-.68,1.07-1.31v-1.81c0-.63-.45-1.19-1.07-1.31h0ZM18.1,24.2c0,.26-.19.49-.44.54l-.6.12c-.14.03-.25.13-.29.26-.08.25-.19.5-.31.75-.06.13-.05.28.02.39l.34.51c.14.22.11.51-.07.7l-1.28,1.28c-.18.19-.48.22-.7.07l-.51-.33c-.12-.08-.27-.09-.39-.02-.24.12-.49.23-.76.31-.13.04-.23.16-.26.29l-.12.6c-.05.26-.28.44-.54.44h-1.81c-.26,0-.49-.19-.54-.44l-.12-.6c-.03-.14-.13-.25-.26-.29-.25-.08-.51-.19-.75-.31-.13-.06-.27-.05-.39.02l-.51.34c-.22.14-.51.12-.7-.07l-1.28-1.28c-.19-.18-.22-.48-.07-.7l.34-.51c.08-.12.09-.27.02-.39-.13-.25-.23-.5-.31-.75-.04-.13-.16-.23-.29-.26l-.6-.12c-.26-.05-.44-.28-.44-.54v-1.81c0-.26.19-.49.44-.54l.6-.12c.14-.03.25-.13.29-.26.08-.25.19-.5.31-.75.06-.13.05-.28-.02-.39l-.34-.51c-.14-.22-.11-.51.07-.7l1.28-1.28c.18-.19.48-.22.7-.07l.51.33c.12.08.27.09.39.02.25-.12.5-.23.75-.31.13-.04.23-.16.26-.29l.12-.6c.05-.26.28-.44.54-.44h1.81c.26,0,.49.19.54.44l.12.6c.03.14.13.25.26.29.26.09.52.19.76.31.13.06.28.05.39-.02l.51-.33c.22-.14.51-.11.7.07l1.28,1.28c.19.18.22.48.07.7l-.34.51c-.08.12-.09.27-.02.39.12.25.23.5.31.75.04.13.16.23.29.26l.6.12c.26.05.44.28.44.54v1.81h0Z"/>
            <path class="cls-2" d="M11.27,19.54c-2.07,0-3.75,1.68-3.75,3.75s1.68,3.75,3.75,3.75,3.75-1.68,3.75-3.75-1.68-3.75-3.75-3.75ZM11.27,26.26c-1.64,0-2.97-1.33-2.97-2.97s1.33-2.97,2.97-2.97,2.97,1.33,2.97,2.97-1.33,2.97-2.97,2.97Z"/>
            <path class="cls-2" d="M26.14,17.28h9.31c.22,0,.39-.18.39-.39s-.18-.39-.39-.39h-9.31c-.22,0-.39.18-.39.39s.18.39.39.39Z"/>
            <path class="cls-2" d="M35.45,20.28h-4.65c-.22,0-.39.18-.39.39s.18.39.39.39h4.65c.22,0,.39-.18.39-.39s-.18-.39-.39-.39Z"/>
            <path class="cls-2" d="M26.14,21.07h2.53c.22,0,.39-.18.39-.39s-.18-.39-.39-.39h-2.53c-.22,0-.39.18-.39.39,0,.22.18.39.39.39Z"/>
            <path class="cls-2" d="M26.14,28.65h4.65c.22,0,.39-.18.39-.39s-.18-.39-.39-.39h-4.65c-.22,0-.39.18-.39.39s.18.39.39.39Z"/>
            <path class="cls-2" d="M35.45,27.87h-2.53c-.22,0-.39.18-.39.39s.18.39.39.39h2.53c.22,0,.39-.18.39-.39s-.18-.39-.39-.39Z"/>
            <path class="cls-2" d="M26.14,24.86h9.31c.22,0,.39-.18.39-.39s-.18-.39-.39-.39h-9.31c-.22,0-.39.18-.39.39,0,.22.18.39.39.39Z"/>
            <path class="cls-2" d="M26.14,32.44h9.31c.22,0,.39-.18.39-.39s-.18-.39-.39-.39h-9.31c-.22,0-.39.18-.39.39,0,.22.18.39.39.39Z"/>
          </g>
        </g>
      </g>
    </g>
  </g>
</svg>