<?xml version="1.0" encoding="UTF-8"?>
<svg id="Layer_2" xmlns="http://www.w3.org/2000/svg" xmlns:xlink="http://www.w3.org/1999/xlink" viewBox="0 0 40 40">
  <defs>
    <style>
      .cls-1 {
        fill: #51bfe7;
      }

      .cls-2 {
        fill: #434a54;
      }

      .cls-3 {
        fill: none;
      }

      .cls-4 {
        fill: #3badd8;
      }

      .cls-5 {
        fill: #f5f5fa;
      }

      .cls-6 {
        fill: #e5e8ec;
      }

      .cls-7 {
        fill: #ffce57;
      }

      .cls-8 {
        fill: #ffcc54;
      }

      .cls-9 {
        fill: #434753;
      }

      .cls-10 {
        clip-path: url(#clippath);
      }

      .cls-11 {
        fill: #f3bd3f;
      }
    </style>
    <clipPath id="clippath">
      <rect class="cls-3" width="40" height="40"/>
    </clipPath>
  </defs>
  <g id="Layer_1-2" data-name="Layer_1">
    <g class="cls-10">
      <g>
        <g>
          <path class="cls-5" d="M36.76,8.79c.51.19.89.63,1.01,1.18l1.49,7.3c1,4.88-.79,9.9-4.65,13.05l-9.32-3.45.77-2.08c.54-1.45,1.77-2.52,3.27-2.86l.87-.2.75-2.03c.44-1.18,1.54-1.92,2.71-1.95l.95-7.67c.1-.8.78-1.4,1.59-1.4.2,0,.38.04.56.11Z"/>
          <path class="cls-6" d="M39.14,16.68l.12.59c1,4.88-.79,9.9-4.65,13.05l-9.32-3.45.57-1.54c.47.49,1.02.87,1.64,1.1,3.75,1.39,8.82-2.94,11.63-9.75h0Z"/>
          <path class="cls-9" d="M34.62,30.78c-.05,0-.11,0-.16-.03l-9.32-3.45c-.23-.09-.36-.35-.27-.59l.77-2.08c.59-1.59,1.94-2.78,3.6-3.15l.63-.14.66-1.79c.45-1.22,1.53-2.04,2.73-2.21l.9-7.3c.13-1.03,1.01-1.8,2.04-1.8.97,0,1.82.69,2.01,1.65l1.49,7.3c1.03,5.06-.81,10.23-4.8,13.5-.09.06-.2.09-.3.09h0ZM25.89,26.6l8.64,3.2c3.59-3.06,5.23-7.8,4.29-12.44l-1.49-7.29c-.11-.53-.58-.91-1.12-.91-.58,0-1.06.43-1.13,1l-.89,7.18c.25.03.51.09.76.19.9.34,1.37,1.35,1.04,2.25l-1.22,3.31c-.09.24-.35.36-.59.27s-.36-.35-.27-.59l1.22-3.31c.16-.43-.06-.92-.49-1.08-.31-.11-.62-.16-.93-.16h-.03c-.99.04-1.92.66-2.28,1.65l-.75,2.03c-.05.15-.18.25-.33.29l-.87.2c-1.36.3-2.46,1.27-2.94,2.58l-.61,1.64Z"/>
          <path class="cls-1" d="M25.69,27.02l8.6,3.18c1.03.38,1.56,1.53,1.18,2.56l-1.65,4.47c-.38,1.03-1.53,1.56-2.56,1.18l-8.6-3.18c-1.03-.38-1.56-1.53-1.18-2.56l1.65-4.47c.39-1.03,1.53-1.56,2.56-1.18Z"/>
          <path class="cls-4" d="M33,29.72l1.29.47c1.03.38,1.56,1.53,1.18,2.57l-1.66,4.47c-.38,1.03-1.53,1.56-2.56,1.18l-8.61-3.18c-1.03-.38-1.56-1.53-1.18-2.56l.56-1.51c.73.51,1.57.96,2.5,1.3,3.73,1.38,7.44.62,8.3-1.69.13-.34.18-.68.18-1.04h0Z"/>
          <path class="cls-9" d="M31.94,39c-.28,0-.57-.05-.85-.15l-8.6-3.18c-1.27-.47-1.92-1.89-1.45-3.15l1.65-4.47c.47-1.27,1.89-1.92,3.15-1.45l8.6,3.18c1.27.47,1.92,1.89,1.45,3.15l-1.65,4.47c-.36.99-1.3,1.6-2.3,1.6h0ZM25,27.35c-.63,0-1.22.39-1.44,1.01l-1.66,4.47c-.29.8.11,1.68.91,1.97l8.6,3.18c.8.3,1.68-.11,1.97-.91l1.65-4.47c.29-.8-.11-1.68-.91-1.97l-8.6-3.18c-.16-.06-.35-.09-.53-.09h0Z"/>
          <path class="cls-8" d="M32.06,31.99c.49.18.74.73.56,1.22l-.7,1.9c-.18.49-.73.74-1.22.56-.49-.18-.74-.73-.56-1.22l.7-1.9c.19-.49.73-.75,1.22-.56Z"/>
          <path class="cls-2" d="M31.03,36.18c-.16,0-.33-.03-.49-.09-.35-.13-.63-.39-.79-.73s-.17-.72-.04-1.08l.7-1.9c.27-.73,1.08-1.1,1.8-.83.73.27,1.1,1.08.83,1.8l-.7,1.9c-.2.57-.73.92-1.31.92h0ZM31.73,32.38c-.2,0-.39.12-.46.32l-.7,1.9c-.04.12-.04.25.01.37.06.12.15.21.28.25.25.09.54-.04.63-.29l.7-1.9c.09-.25-.04-.54-.29-.63-.06-.02-.11-.03-.17-.03Z"/>
        </g>
        <g>
          <path class="cls-5" d="M3.23,8.79c-.51.19-.89.63-1.01,1.18l-1.49,7.3c-1,4.88.79,9.9,4.65,13.05l9.32-3.45-.77-2.08c-.54-1.45-1.77-2.52-3.27-2.86l-.87-.2-.75-2.03c-.44-1.18-1.54-1.92-2.71-1.95l-.95-7.66c-.1-.8-.78-1.4-1.59-1.4-.2,0-.38.03-.56.1h0Z"/>
          <path class="cls-6" d="M.85,16.68l-.12.59c-1,4.88.79,9.9,4.65,13.05l9.32-3.45-.57-1.54c-.47.49-1.02.87-1.64,1.1-3.75,1.39-8.82-2.94-11.63-9.75h0Z"/>
          <path class="cls-9" d="M5.38,30.78c-.1,0-.21-.04-.29-.1C1.09,27.41-.75,22.23.28,17.18l1.49-7.3c.2-.96,1.04-1.65,2.01-1.65,1.04,0,1.91.78,2.04,1.8l.9,7.3c1.21.18,2.28.99,2.73,2.21l.66,1.79.63.14c1.66.37,3.01,1.55,3.6,3.15l.77,2.08c.09.23-.03.5-.27.59l-9.32,3.45c-.06.03-.11.04-.16.04h0ZM3.79,9.15c-.54,0-1.01.39-1.12.91l-1.49,7.3c-.95,4.64.7,9.38,4.29,12.44l8.64-3.2-.61-1.65c-.48-1.3-1.58-2.27-2.94-2.58l-.87-.2c-.15-.03-.27-.15-.33-.29l-.75-2.03c-.37-.99-1.29-1.61-2.28-1.65h-.03c-.31,0-.62.04-.93.16-.21.08-.38.23-.47.44-.09.2-.1.43-.03.64l1.22,3.31c.09.23-.03.5-.27.59-.23.09-.5-.03-.59-.27l-1.22-3.31c-.16-.44-.15-.92.05-1.34s.54-.75.99-.91c.25-.09.51-.15.76-.19l-.89-7.18c-.08-.57-.56-1-1.14-1h0Z"/>
          <path class="cls-1" d="M14.31,27.02l-8.6,3.18c-1.03.38-1.56,1.53-1.18,2.56l1.65,4.47c.38,1.03,1.53,1.56,2.56,1.18l8.6-3.18c1.03-.38,1.56-1.53,1.18-2.56l-1.65-4.47c-.38-1.03-1.53-1.56-2.56-1.18h0Z"/>
          <path class="cls-4" d="M6.99,29.72l-1.29.47c-1.03.38-1.56,1.53-1.18,2.57l1.66,4.47c.38,1.03,1.53,1.56,2.56,1.18l8.61-3.18c1.03-.38,1.56-1.53,1.18-2.56l-.56-1.51c-.73.51-1.57.96-2.5,1.3-3.73,1.38-7.44.62-8.3-1.69-.13-.34-.18-.68-.18-1.04h0Z"/>
          <path class="cls-9" d="M8.05,39c-.35,0-.7-.08-1.03-.23-.59-.27-1.05-.77-1.28-1.38l-1.65-4.47c-.23-.61-.2-1.28.07-1.88.27-.59.77-1.05,1.38-1.28l8.6-3.18c1.27-.47,2.68.18,3.15,1.45l1.65,4.47c.47,1.27-.18,2.68-1.45,3.15l-8.6,3.18c-.27.11-.56.16-.85.16h0ZM15,27.35c-.18,0-.35.03-.53.09l-8.61,3.18c-.39.15-.69.42-.86.8s-.19.79-.04,1.18l1.65,4.47c.15.39.42.69.8.86s.79.19,1.18.04l8.6-3.18c.8-.29,1.2-1.18.91-1.97l-1.65-4.47c-.23-.62-.82-1-1.44-1Z"/>
          <path class="cls-8" d="M7.94,31.99c-.49.18-.74.73-.56,1.22l.7,1.9c.18.49.73.74,1.22.56.49-.18.74-.73.56-1.22l-.7-1.9c-.18-.49-.73-.75-1.22-.56h0Z"/>
          <path class="cls-2" d="M8.96,36.18c-.2,0-.4-.04-.59-.13-.34-.16-.6-.44-.73-.79l-.7-1.9c-.27-.73.1-1.54.83-1.8s1.54.1,1.8.83l.7,1.9c.13.35.11.73-.04,1.08s-.44.6-.79.73c-.15.05-.31.08-.47.08h0ZM8.09,32.42c-.25.09-.39.37-.29.63l.7,1.9c.04.12.13.22.25.27.12.06.25.06.37.01.13-.04.22-.14.28-.25.06-.12.06-.25.01-.37l-.7-1.9c-.09-.26-.38-.39-.63-.29Z"/>
        </g>
        <path class="cls-7" d="M10.5,3.96v13.54c0,.8.91,1.27,1.56.8l3.46-2.51h12.8c1.38,0,2.5-1.12,2.5-2.5V3.96c0-1.38-1.12-2.5-2.5-2.5h-15.32c-1.38,0-2.49,1.12-2.49,2.5Z"/>
        <path class="cls-11" d="M30.81,12.12v1.16c0,1.38-1.11,2.5-2.5,2.5h-12.8l-3.46,2.52c-.65.47-1.57,0-1.57-.8V3.96c0-1.38,1.11-2.5,2.5-2.5h4.42c-2.13,1.19-3.4,2.04-3.4,3.63,0,3.71,8.08,6.77,16.8,7.04Z"/>
        <path class="cls-9" d="M11.48,18.94c-.22,0-.45-.05-.66-.16-.49-.25-.79-.74-.79-1.28V3.96c0-1.63,1.32-2.96,2.96-2.96h15.32c1.63,0,2.96,1.32,2.96,2.96v9.33c0,1.63-1.32,2.96-2.96,2.96h-12.64l-3.34,2.42c-.25.18-.54.28-.85.28h0ZM12.99,1.91c-1.13,0-2.04.92-2.04,2.04v13.54c0,.2.11.38.29.47.18.09.39.08.55-.04l3.46-2.51c.08-.06.17-.09.27-.09h12.8c1.13,0,2.04-.92,2.04-2.04V3.96c0-1.13-.92-2.04-2.04-2.04h-15.33Z"/>
        <g>
          <g>
            <path class="cls-5" d="M16.85,8.46c0,.78-.63,1.42-1.42,1.42s-1.42-.63-1.42-1.42.64-1.42,1.42-1.42,1.42.63,1.42,1.42Z"/>
            <path class="cls-6" d="M16.84,8.46c0,.78-.63,1.42-1.42,1.42s-1.42-.63-1.42-1.42c0-.54.31-1.02.77-1.25.08.71.68,1.26,1.4,1.26.23,0,.46-.06.65-.16,0,.04,0,.09,0,.15Z"/>
            <path class="cls-9" d="M15.42,10.34c-1.03,0-1.87-.84-1.87-1.87s.84-1.87,1.87-1.87,1.87.84,1.87,1.87c0,1.03-.84,1.87-1.87,1.87ZM15.42,7.51c-.53,0-.96.43-.96.96s.43.96.96.96.96-.43.96-.96-.43-.96-.96-.96Z"/>
          </g>
          <g>
            <path class="cls-5" d="M22.07,8.46c0,.78-.63,1.42-1.42,1.42s-1.42-.63-1.42-1.42.64-1.42,1.42-1.42,1.42.63,1.42,1.42Z"/>
            <path class="cls-6" d="M22.07,8.46c0,.78-.63,1.42-1.42,1.42s-1.42-.63-1.42-1.42c0-.54.31-1.02.77-1.25.08.71.68,1.26,1.4,1.26.23,0,.46-.06.65-.16,0,.04,0,.09,0,.15h0Z"/>
            <path class="cls-9" d="M20.65,10.34c-1.03,0-1.87-.84-1.87-1.87s.84-1.87,1.87-1.87,1.88.84,1.88,1.87-.84,1.87-1.88,1.87ZM20.65,7.51c-.53,0-.96.43-.96.96s.43.96.96.96.96-.43.96-.96-.43-.96-.96-.96Z"/>
          </g>
          <g>
            <path class="cls-5" d="M27.3,8.46c0,.78-.63,1.42-1.42,1.42s-1.42-.63-1.42-1.42.64-1.42,1.42-1.42,1.42.63,1.42,1.42Z"/>
            <path class="cls-6" d="M27.3,8.46c0,.78-.63,1.42-1.42,1.42s-1.42-.63-1.42-1.42c0-.54.31-1.02.77-1.25.08.71.68,1.26,1.4,1.26.23,0,.46-.06.65-.16,0,.04,0,.09,0,.15h0Z"/>
            <path class="cls-9" d="M25.88,10.34c-1.03,0-1.87-.84-1.87-1.87s.84-1.87,1.87-1.87,1.87.84,1.87,1.87-.84,1.87-1.87,1.87ZM25.88,7.51c-.53,0-.96.43-.96.96s.43.96.96.96.96-.43.96-.96c0-.53-.44-.96-.96-.96Z"/>
          </g>
        </g>
      </g>
    </g>
  </g>
</svg>