<?xml version="1.0" encoding="UTF-8"?>
<svg id="Layer_2" xmlns="http://www.w3.org/2000/svg" xmlns:xlink="http://www.w3.org/1999/xlink" viewBox="0 0 40 40">
  <defs>
    <style>
      .cls-1 {
        fill: #837683;
      }

      .cls-1, .cls-2, .cls-3, .cls-4, .cls-5, .cls-6, .cls-7, .cls-8, .cls-9, .cls-10 {
        fill-rule: evenodd;
      }

      .cls-2 {
        fill: #c4e2ff;
      }

      .cls-3 {
        fill: #d8ecfe;
      }

      .cls-4 {
        fill: #ffe177;
      }

      .cls-11 {
        fill: none;
      }

      .cls-5 {
        fill: #eceff1;
      }

      .cls-6 {
        fill: #a79ba7;
      }

      .cls-7 {
        fill: #ffd064;
      }

      .cls-8 {
        fill: #d1d1d6;
      }

      .cls-10 {
        fill: #add5fa;
      }

      .cls-12 {
        clip-path: url(#clippath);
      }
    </style>
    <clipPath id="clippath">
      <rect class="cls-11" width="40" height="40"/>
    </clipPath>
  </defs>
  <g id="Layer_1-2" data-name="Layer_1">
    <g class="cls-12">
      <g>
        <g>
          <g>
            <path class="cls-6" d="M12.28,27.59h10.72v6.1h-10.72v-6.1Z"/>
            <path class="cls-1" d="M22.16,27.59h.83v6.1h-.83v-6.1Z"/>
            <path class="cls-5" d="M6.05,36.3h23.17v-1.79c0-.98-1.01-1.79-2.24-1.79H8.29c-1.23,0-2.24.81-2.24,1.79v1.79Z"/>
            <path class="cls-8" d="M6.05,36.3h23.17v-1.79c0-.58-.36-1.1-.9-1.43.12.22.19.47.19.72v1.79H6.05v.71Z"/>
            <path class="cls-5" d="M3.2,5.28h28.86c1.44,0,2.62,1.18,2.62,2.62v18.04c0,1.44-1.18,2.62-2.62,2.62H3.2c-1.44,0-2.62-1.18-2.62-2.62V7.9c0-1.44,1.18-2.62,2.62-2.62h0Z"/>
            <path class="cls-8" d="M33.53,5.73c.7.47,1.16,1.27,1.16,2.17v18.04c0,1.44-1.18,2.62-2.62,2.62H3.2c-.9,0-1.7-.46-2.17-1.16.42.28.92.45,1.46.45h28.86c1.44,0,2.62-1.18,2.62-2.62V7.19c0-.54-.17-1.04-.45-1.46h0Z"/>
            <path class="cls-3" d="M3.14,7.47h28.99c.2,0,.36.16.36.36v16.33H2.78V7.84c0-.2.16-.36.36-.36h0Z"/>
            <path class="cls-2" d="M30.71,7.47h1.42c.2,0,.36.16.36.36v16.33h-1.42V7.84c0-.2-.17-.36-.36-.36h0Z"/>
          </g>
          <g>
            <g>
              <path class="cls-2" d="M39.29,32.81c0,.73-.6,1.33-1.33,1.33h-14.15c-.73,0-1.33-.6-1.33-1.33V4.72c0-.73.6-1.33,1.33-1.33h14.15c.73,0,1.33.6,1.33,1.33v28.09Z"/>
              <path class="cls-10" d="M36.75,3.39h1.21c.73,0,1.33.6,1.33,1.33v28.09c0,.73-.6,1.33-1.33,1.33h-1.21c.73,0,1.33-.6,1.33-1.33V4.72c0-.73-.6-1.33-1.33-1.33Z"/>
            </g>
            <path class="cls-6" d="M26.15,3.39h9.47l-.6,1.85c-.03.08-.1.13-.18.13h-7.91c-.08,0-.16-.05-.18-.13l-.6-1.85Z"/>
          </g>
          <g>
            <path class="cls-4" d="M29,16.02c.06-.05.09-.13.09-.2s-.03-.15-.09-.2l-2.31-2.15h-10.64c-.84-1.56-2.49-2.62-4.38-2.62-2.75,0-4.98,2.23-4.98,4.98s2.23,4.98,4.98,4.98c1.89,0,3.54-1.06,4.38-2.62h4.61l1.17-1.29s.08-.05.12-.05.09.02.12.05l1.04,1.15s.08.05.12.05.09-.02.12-.05l1.04-1.15s.08-.05.12-.05.09.02.12.05l1.16,1.29h.88l2.31-2.16Z"/>
            <path class="cls-7" d="M29,16.02c.06-.05.09-.13.09-.2s-.03-.15-.09-.2l-.44-.41-1.88,1.75h-.88l-1.16-1.29s-.08-.05-.12-.05-.09.02-.12.05l-1.04,1.15s-.08.05-.12.05c-.05,0-.09-.02-.12-.05l-1.04-1.15s-.08-.05-.12-.05-.09.02-.12.05l-1.17,1.29h-4.61c-.84,1.56-2.49,2.62-4.38,2.62-2.54,0-4.64-1.91-4.94-4.37-.03.2-.04.4-.04.61,0,2.75,2.23,4.98,4.98,4.98,1.89,0,3.54-1.06,4.38-2.62h4.61l1.17-1.29s.08-.05.12-.05.09.02.12.05l1.04,1.15s.08.05.12.05.09-.02.12-.05l1.04-1.15s.08-.05.12-.05.09.02.12.05l1.16,1.29h.88l2.31-2.16Z"/>
            <path class="cls-5" d="M9.72,14.53c.71-.41,1.61-.17,2.02.54.41.71.17,1.61-.54,2.02s-1.61.17-2.02-.54c-.41-.71-.17-1.61.54-2.02Z"/>
            <path class="cls-8" d="M9.72,14.53c.71-.41,1.61-.17,2.02.54.21.36.25.76.14,1.13-.03-.12-.08-.23-.14-.34-.41-.71-1.31-.95-2.02-.54-.35.2-.59.53-.69.89-.18-.63.09-1.33.69-1.68Z"/>
          </g>
        </g>
        <path class="cls-9" d="M11.87,29.43H3.31c-1.82,0-3.31-1.49-3.31-3.31V7.82c0-1.82,1.49-3.31,3.31-3.31h18.52c.1-1.01.95-1.8,1.97-1.8h14.21c1.09,0,1.98.89,1.98,1.99v28.33c0,1.1-.89,1.99-1.98,1.99h-7.66v1.61c0,.36-.29.65-.65.65H6.19c-.36,0-.65-.29-.65-.65v-1.81c0-1.31,1.28-2.46,2.91-2.46h3.4v-2.94ZM21.82,5.81H3.31c-1.11,0-2.02.91-2.02,2.02v18.3c0,1.11.91,2.02,2.02,2.02h18.51v-3.19H2.87c-.36,0-.65-.29-.65-.65V7.76c0-.56.46-1.01,1.02-1.01h18.58v-.94ZM21.82,29.43h-8.66v2.94h8.66v-2.94ZM29.06,35.02h-5.26c-.87,0-1.62-.57-1.88-1.37h-13.46c-.86,0-1.62.48-1.62,1.17v1.17h22.22v-.97ZM21.82,23.66v-5.71l-.69.76c-.12.13-.3.21-.48.21h-4.24c-1,1.57-2.75,2.62-4.75,2.62-3.1,0-5.62-2.52-5.62-5.62s2.52-5.62,5.62-5.62c2,0,3.76,1.05,4.75,2.62h5.41v-4.89H3.51v15.63h18.31ZM23.11,18.91v14.12c0,.38.31.7.69.7h14.21c.38,0,.69-.32.69-.7V4.71c0-.38-.31-.7-.69-.7h-1.66l-.65,1.24c-.25.47-.73.76-1.26.76h-7.06c-.53,0-1.02-.29-1.26-.76l-.65-1.24h-1.66c-.38,0-.69.32-.69.7v8.22h3.57c.16,0,.32.06.44.17l2.53,2.36c.13.12.21.29.21.47,0,.18-.07.35-.21.47l-2.53,2.36c-.12.11-.28.17-.44.17h-.88c-.18,0-.36-.08-.48-.21l-.81-.89-.81.89c-.12.14-.3.21-.48.21-.04,0-.08,0-.12-.01h0ZM34.9,4.01h-7.97l.33.63s.07.07.12.07h7.06c.05,0,.1-.03.12-.07l.33-.63ZM29.15,31.89c-.36,0-.65-.29-.65-.65s.29-.65.65-.65h3.53c.36,0,.65.29.65.65s-.29.65-.65.65h-3.53ZM28.26,15.92l-1.84-1.71h-10.38c-.24,0-.46-.13-.57-.34-.73-1.36-2.17-2.28-3.82-2.28-2.39,0-4.33,1.94-4.33,4.33s1.94,4.33,4.33,4.33c1.65,0,3.08-.92,3.82-2.28.11-.21.33-.34.57-.34h4.32l1.1-1.21c.12-.14.3-.21.48-.21.18,0,.36.08.48.21l.81.89.81-.89c.12-.13.3-.21.48-.21s.36.08.48.21l1.1,1.21h.34l1.84-1.71ZM10.46,13.8c1.17,0,2.12.95,2.12,2.12s-.95,2.13-2.12,2.13-2.13-.95-2.13-2.13.95-2.12,2.13-2.12ZM10.46,15.09c-.46,0-.83.37-.83.83s.37.83.83.83.83-.37.83-.83-.37-.83-.83-.83Z"/>
      </g>
    </g>
  </g>
</svg>