<?xml version="1.0" encoding="UTF-8"?>
<svg id="Layer_2" xmlns="http://www.w3.org/2000/svg" xmlns:xlink="http://www.w3.org/1999/xlink" viewBox="0 0 40 40">
  <defs>
    <style>
      .cls-1 {
        fill: #083863;
      }

      .cls-2 {
        fill: none;
      }

      .cls-3 {
        fill: #00acea;
      }

      .cls-4 {
        fill: #fedb41;
      }

      .cls-5 {
        fill: #00efd1;
      }

      .cls-6 {
        clip-path: url(#clippath);
      }
    </style>
    <clipPath id="clippath">
      <rect class="cls-2" width="40" height="40"/>
    </clipPath>
  </defs>
  <g id="Layer_1-2" data-name="Layer_1">
    <g class="cls-6">
      <g id="surface1">
        <path class="cls-4" d="M19.71,36.23c-.91-.88-1.65-1.92-2.19-3.08-.62-1.33-.96-2.82-.96-4.4,0-5.76,4.67-10.43,10.43-10.43.58,0,1.15.05,1.72.14,1.36.22,2.62.71,3.74,1.4,2.98,1.83,4.97,5.13,4.97,8.89,0,5.76-4.67,10.43-10.43,10.43-2.84,0-5.41-1.11-7.28-2.94Z"/>
        <path class="cls-5" d="M32.45,9.1v10.74l-.02.02c-1.13-.7-2.4-1.18-3.75-1.4v-8.2l-11.15-5.48-11.15,5.46v11.04c0,2.27,1.64,5.38,3.52,6.66l7.61,5.19c.54,1.16,1.28,2.2,2.19,3.08l-1.11.76c-.32.22-.69.33-1.06.33s-.74-.11-1.06-.33l-8.69-5.93c-2.89-1.97-5.16-6.26-5.16-9.76v-12.22c0-.72.41-1.37,1.05-1.69L16.71,1c.52-.25,1.14-.25,1.66,0l13.03,6.4c.64.32,1.05.97,1.05,1.69Z"/>
        <path class="cls-3" d="M28.69,10.27v8.19c-.56-.09-1.13-.14-1.72-.14-5.76,0-10.43,4.67-10.43,10.43,0,1.57.34,3.06.96,4.4l-7.61-5.19c-1.88-1.28-3.52-4.39-3.52-6.66v-11.04l11.16-5.46,11.15,5.48Z"/>
        <path class="cls-1" d="M33.26,19.43v-10.34c0-1.02-.59-1.97-1.5-2.42L18.72.28c-.74-.37-1.64-.37-2.38,0L3.3,6.65c-.92.45-1.52,1.41-1.52,2.43v12.22c0,1.82.58,3.9,1.6,5.84,1.03,1.94,2.43,3.57,3.94,4.6l8.69,5.93c.45.31.97.47,1.52.47s1.07-.16,1.52-.47l.58-.39c2.04,1.77,4.62,2.72,7.34,2.72,6.2,0,11.24-5.05,11.24-11.24,0-1.95-.52-3.88-1.48-5.57-.85-1.5-2.01-2.79-3.48-3.75ZM17.53,36.5c-.21,0-.43-.07-.6-.19l-8.69-5.93c-1.29-.88-2.52-2.31-3.42-4.02-.91-1.7-1.41-3.5-1.41-5.06v-12.22c0-.4.25-.78.61-.96L17.06,1.74c.29-.15.64-.15.94,0l13.03,6.4c.36.18.59.55.59.96v9.41c-.65-.31-1.39-.55-2.13-.72v-7.52c0-.31-.17-.6-.45-.74l-11.15-5.48c-.23-.11-.49-.11-.72,0l-11.17,5.46c-.28.14-.47.43-.47.74v11.04c0,2.54,1.79,5.9,3.89,7.34l7.43,5.07c.43.87.96,1.67,1.59,2.4l-.32.22c-.18.11-.38.18-.6.18ZM27.86,17.55c-.33-.02-.59-.03-.89-.03-6.2,0-11.24,5.05-11.24,11.24,0,.8.08,1.59.25,2.36l-5.63-3.83c-1.65-1.13-3.17-3.98-3.17-5.99v-10.54l10.34-5.06,10.34,5.08v6.77ZM26.98,38.36c-2.52,0-4.9-.96-6.7-2.71-.84-.82-1.52-1.77-2.02-2.85-.59-1.28-.89-2.63-.89-4.05,0-5.3,4.31-9.61,9.61-9.61.53,0,1.06.04,1.58.13,1.23.2,2.39.64,3.45,1.29,2.87,1.77,4.58,4.82,4.58,8.19,0,5.29-4.31,9.6-9.61,9.6Z"/>
        <path class="cls-1" d="M27.58,25c-.31-.29-.8-.29-1.11,0l-2.58,2.4c-.33.31-.35.83-.04,1.15.31.33.83.35,1.17.04l1.21-1.11v4.34c0,.45.37.82.82.82s.82-.37.82-.82v-4.34l1.19,1.11c.16.15.35.22.55.22.22,0,.43-.09.6-.26.31-.33.29-.85-.04-1.15l-2.58-2.4Z"/>
      </g>
    </g>
  </g>
</svg>