<?xml version="1.0" encoding="UTF-8"?>
<svg id="Layer_2" xmlns="http://www.w3.org/2000/svg" viewBox="0 0 90 90">
  <defs>
    <style>
      .cls-1 {
        fill: #fff;
      }

      .cls-2 {
        fill: #112e57;
      }
    </style>
  </defs>
  <g id="Layer_1-2" data-name="Layer_1">
    <rect class="cls-2" x="0" y="0" width="90" height="90" rx="45" ry="45"/>
    <path class="cls-1" d="M54.12,63.79h-18.23c-.27,0-.49-.22-.49-.49s.22-.49.49-.49h6.74v-5.11h-17.88c-1.39,0-2.52-1.13-2.52-2.53v-26.43c0-1.39,1.13-2.53,2.52-2.53h40.51c1.39,0,2.52,1.13,2.52,2.53v26.43c0,1.39-1.13,2.53-2.52,2.53h-17.88v5.11h6.74c.27,0,.49.22.49.49s-.22.49-.49.49h0ZM43.6,62.81h2.79v-5.11h-2.79v5.11ZM46.89,56.71h18.37c.85,0,1.53-.69,1.53-1.54v-2.28H23.21v2.28c0,.85.69,1.54,1.53,1.54h22.14,0ZM23.21,51.9h43.58v-23.16c0-.85-.69-1.54-1.53-1.54H24.74c-.85,0-1.53.69-1.53,1.54,0,0,0,23.16,0,23.16ZM63.82,55.14h-2.03c-.27,0-.49-.22-.49-.49s.22-.49.49-.49h2.03c.27,0,.49.22.49.49s-.22.49-.49.49ZM28.8,55.14h-2.03c-.27,0-.49-.22-.49-.49s.22-.49.49-.49h2.03c.27,0,.49.22.49.49s-.22.49-.49.49ZM35.88,46.51c-3.62,0-6.57-2.96-6.57-6.59s2.95-6.59,6.57-6.59c.27,0,.49.22.49.49s-.22.49-.49.49c-3.08,0-5.58,2.52-5.58,5.61s2.51,5.61,5.58,5.61,5.58-2.52,5.58-5.61c0-.27.22-.49.49-.49s.49.22.49.49c0,3.63-2.95,6.59-6.57,6.59h0ZM56.14,44.48h-8.1c-.27,0-.49-.22-.49-.49s.22-.49.49-.49h8.1c.27,0,.49.22.49.49s-.22.49-.49.49ZM58.93,40.41h-10.89c-.27,0-.49-.22-.49-.49s.22-.49.49-.49h10.89c.27,0,.49.22.49.49s-.22.49-.49.49h0ZM43.99,38.38h-6.08c-.27,0-.49-.22-.49-.49v-6.1c0-.27.22-.49.49-.49,3.62,0,6.57,2.96,6.57,6.59,0,.27-.22.49-.49.49ZM38.4,37.39h5.07c-.23-2.7-2.38-4.86-5.07-5.09v5.09ZM61.21,36.34h-13.17c-.27,0-.49-.22-.49-.49s.22-.49.49-.49h13.17c.27,0,.49.22.49.49s-.22.49-.49.49Z"/>
  </g>
</svg>