<?xml version="1.0" encoding="UTF-8"?>
<svg id="Layer_2" xmlns="http://www.w3.org/2000/svg" viewBox="0 0 90 90">
  <defs>
    <style>
      .cls-1 {
        fill: #112e57;
      }

      .cls-2 {
        fill: #fff;
        fill-rule: evenodd;
      }
    </style>
  </defs>
  <g id="Layer_1-2" data-name="Layer_1">
    <rect class="cls-1" x="0" y="0" width="90" height="90" rx="45" ry="45"/>
    <path class="cls-2" d="M31.92,69.62c-.33,0-.65-.07-.95-.2-.59-.26-1.05-.76-1.27-1.36l-3.65-10.16c-.43-1.2.16-2.51,1.34-2.98l2.02-.81c.28-.11.57-.17.88-.17.33,0,.65.07.95.2.5.22.92.61,1.16,1.11l.19.37,2.29-2.25c.72-.71,1.62-1.22,2.59-1.48.75-.2,1.49-.31,2.21-.31,1.21,0,2.4.29,3.53.86.2.1.39.24.55.39.11.1.24.22.36.34.15.15.37.24.58.24h5.79c.63,0,1.22.25,1.66.69.1.1.19.2.26.31l.19.28,7.08-6.26c.43-.38.98-.59,1.56-.59.62,0,1.21.24,1.65.68l.48.47c.81.8.94,2.07.3,3l-6.64,9.78c-1.1,1.62-2.92,2.59-4.88,2.59h-16.28l.44,1.16c.46,1.2-.11,2.52-1.29,3.01l-2.2.92c-.29.12-.59.18-.91.18ZM30.29,55.12c-.15,0-.3.03-.44.08l-2.02.81c-.6.24-.89.9-.68,1.5l3.65,10.15c.11.31.35.56.64.68.15.07.31.1.48.1.16,0,.31-.03.46-.09l2.2-.92c.59-.25.88-.92.65-1.51l-3.83-10.04c-.11-.3-.34-.54-.63-.66-.15-.07-.31-.1-.47-.1ZM39.67,52.75c-.62,0-1.26.09-1.9.26-.78.21-1.49.62-2.07,1.19l-2.65,2.6,2.43,6.38h16.69c1.57,0,3.03-.77,3.91-2.07l6.64-9.78c.32-.47.26-1.11-.15-1.51l-.48-.47c-.22-.22-.52-.34-.83-.34-.29,0-.57.11-.79.3l-7.58,6.7-.03.66c0,.63-.25,1.22-.69,1.67-.44.45-1.03.69-1.67.69h-6.37c-.32,0-.58-.26-.58-.59s.26-.59.58-.59h6.37c.31,0,.62-.13.84-.34.22-.22.35-.53.35-.84v-.9c0-.31-.12-.61-.35-.84-.23-.22-.53-.35-.84-.35h-5.79c-.53,0-1.03-.2-1.4-.57l-.1-.1c-.09-.08-.15-.15-.22-.2-.1-.1-.19-.17-.31-.22-.96-.49-1.98-.73-3.01-.73ZM45,48.12c-7.65,0-13.87-6.22-13.87-13.87s6.22-13.87,13.87-13.87,13.87,6.22,13.87,13.87-6.22,13.87-13.87,13.87ZM45,21.55c-7,0-12.7,5.7-12.7,12.7s5.7,12.7,12.7,12.7,12.7-5.7,12.7-12.7-5.7-12.7-12.7-12.7ZM51.2,39.48c-.13,0-.25-.04-.35-.12l-3.64-2.73-.18.14c-.57.46-1.29.71-2.02.71-1.79,0-3.25-1.46-3.25-3.24,0-1.48,1-2.77,2.43-3.14l.22-.06v-7.43c0-.32.26-.59.59-.59s.58.26.58.59v7.43l.23.06c1.43.37,2.43,1.66,2.43,3.14,0,.43-.08.84-.25,1.24l-.09.22,3.64,2.73c.12.09.21.23.23.39.02.15-.02.31-.11.43-.11.15-.29.23-.47.23ZM45,32.18c-1.14,0-2.07.93-2.07,2.07s.93,2.07,2.07,2.07c.65,0,1.26-.3,1.66-.83.27-.37.42-.8.42-1.25,0-1.14-.93-2.07-2.07-2.07Z"/>
  </g>
</svg>