<?xml version="1.0" encoding="UTF-8"?>
<svg id="Layer_2" xmlns="http://www.w3.org/2000/svg" viewBox="0 0 90 90">
  <defs>
    <style>
      .cls-1 {
        fill: #fff;
      }

      .cls-2 {
        fill: #112e57;
      }
    </style>
  </defs>
  <g id="Layer_1-2" data-name="Layer_1">
    <rect class="cls-2" x="0" y="0" width="90" height="90" rx="45" ry="45"/>
    <g>
      <path class="cls-1" d="M38.49,48.05c-.24,0-.44-.2-.44-.44s.2-.45.44-.45h12.57c.25,0,.45.2.45.45s-.2.44-.45.44h-12.57Z"/>
      <path class="cls-1" d="M51.42,47.61c0,.19-.16.34-.35.34h-12.57c-.19,0-.34-.16-.34-.34s.16-.35.34-.35h12.57c.19,0,.35.16.35.35Z"/>
      <path class="cls-1" d="M38.49,48.05c-.24,0-.44-.2-.44-.44s.2-.45.44-.45h12.57c.25,0,.45.2.45.45s-.2.44-.45.44h-12.57Z"/>
      <path class="cls-1" d="M51.42,47.61c0,.19-.16.34-.35.34h-12.57c-.19,0-.34-.16-.34-.34s.16-.35.34-.35h12.57c.19,0,.35.16.35.35Z"/>
      <path class="cls-1" d="M38.49,51.66c-.24,0-.44-.21-.44-.45s.2-.44.44-.44h12.57c.25,0,.45.2.45.44s-.2.45-.45.45h-12.57Z"/>
      <path class="cls-1" d="M51.42,51.21c0,.19-.16.35-.35.35h-12.57c-.19,0-.34-.16-.34-.35s.16-.34.34-.34h12.57c.19,0,.35.16.35.34Z"/>
      <path class="cls-1" d="M38.49,51.66c-.24,0-.44-.21-.44-.45s.2-.44.44-.44h12.57c.25,0,.45.2.45.44s-.2.45-.45.45h-12.57Z"/>
      <path class="cls-1" d="M51.42,51.21c0,.19-.16.35-.35.35h-12.57c-.19,0-.34-.16-.34-.35s.16-.34.34-.34h12.57c.19,0,.35.16.35.34Z"/>
      <path class="cls-1" d="M38.92,28.27c-.25,0-.45-.19-.45-.44s.2-.45.45-.45h11.73c.25,0,.44.2.44.45s-.19.44-.44.44h-11.73Z"/>
      <path class="cls-1" d="M50.99,27.82c0,.19-.15.34-.34.34h-11.73c-.19,0-.35-.15-.35-.34s.16-.35.35-.35h11.73c.19,0,.34.16.34.35Z"/>
      <path class="cls-1" d="M38.92,28.27c-.25,0-.45-.19-.45-.44s.2-.45.45-.45h11.73c.25,0,.44.2.44.45s-.19.44-.44.44h-11.73Z"/>
      <path class="cls-1" d="M50.99,27.82c0,.19-.15.34-.34.34h-11.73c-.19,0-.35-.15-.35-.34s.16-.35.35-.35h11.73c.19,0,.34.16.34.35Z"/>
      <path class="cls-1" d="M55.53,51.87c-.76,0-1.38-.62-1.38-1.39v-2.23c0-.76.62-1.38,1.38-1.38h3.24c.77,0,1.39.62,1.39,1.38v2.23c0,.77-.62,1.39-1.39,1.39h-3.24ZM59.26,50.98v-3.23h-4.23v3.23h4.23Z"/>
      <path class="cls-1" d="M58.77,46.97h-3.24c-.71,0-1.28.57-1.28,1.28v2.23c0,.71.57,1.29,1.28,1.29h3.24c.71,0,1.29-.58,1.29-1.29v-2.23c0-.71-.58-1.28-1.29-1.28ZM59.36,51.08h-4.43v-3.42h4.43v3.42Z"/>
      <path class="cls-1" d="M55.53,51.87c-.76,0-1.38-.62-1.38-1.39v-2.23c0-.76.62-1.38,1.38-1.38h3.24c.77,0,1.39.62,1.39,1.38v2.23c0,.77-.62,1.39-1.39,1.39h-3.24ZM59.26,50.98v-3.23h-4.23v3.23h4.23Z"/>
      <path class="cls-1" d="M58.77,46.97h-3.24c-.71,0-1.28.57-1.28,1.28v2.23c0,.71.57,1.29,1.28,1.29h3.24c.71,0,1.29-.58,1.29-1.29v-2.23c0-.71-.58-1.28-1.29-1.28ZM59.36,51.08h-4.43v-3.42h4.43v3.42Z"/>
      <path class="cls-1" d="M31.24,51.94c-.77,0-1.39-.62-1.39-1.39v-2.23c0-.77.62-1.39,1.39-1.39h3.23c.77,0,1.39.62,1.39,1.39v2.23c0,.77-.62,1.39-1.39,1.39h-3.23ZM34.97,51.05v-3.22h-4.22v3.22h4.22Z"/>
      <path class="cls-1" d="M34.47,47.04h-3.23c-.71,0-1.29.58-1.29,1.29v2.23c0,.71.58,1.29,1.29,1.29h3.23c.71,0,1.29-.58,1.29-1.29v-2.23c0-.71-.58-1.29-1.29-1.29ZM35.07,51.15h-4.42v-3.42h4.42v3.42Z"/>
      <path class="cls-1" d="M31.24,51.94c-.77,0-1.39-.62-1.39-1.39v-2.23c0-.77.62-1.39,1.39-1.39h3.23c.77,0,1.39.62,1.39,1.39v2.23c0,.77-.62,1.39-1.39,1.39h-3.23ZM34.97,51.05v-3.22h-4.22v3.22h4.22Z"/>
      <path class="cls-1" d="M34.47,47.04h-3.23c-.71,0-1.29.58-1.29,1.29v2.23c0,.71.58,1.29,1.29,1.29h3.23c.71,0,1.29-.58,1.29-1.29v-2.23c0-.71-.58-1.29-1.29-1.29ZM35.07,51.15h-4.42v-3.42h4.42v3.42Z"/>
      <path class="cls-1" d="M55.19,67.1c-1.24,0-2.24-1.01-2.24-2.24v-4.35h-15.9v4.35c0,1.24-1.01,2.24-2.24,2.24h-2.68c-1.24,0-2.24-1.01-2.24-2.24v-4.35h-2.95c-.77,0-1.39-.62-1.39-1.39v-1.55c0-.64.46-1.2,1.08-1.35l.38-.09v-9.05c0-.44.08-.88.25-1.34l.22-.66h-1.58c-1.22,0-2.21-.96-2.24-2.18v-.44s-.45-.04-.45-.04c-.7-.08-1.23-.67-1.23-1.37v-6.1c0-.7.53-1.29,1.24-1.37l.43-.05v-.43c.05-1.22,1.04-2.18,2.26-2.18h3.55v-1.72c0-1.17.64-2.24,1.68-2.78,2.51-1.31,7.65-3.51,13.87-3.51s11.37,2.2,13.87,3.51c1.03.54,1.68,1.6,1.68,2.78v1.72h3.56c1.22,0,2.21.96,2.24,2.18l.02.48.28-.28-.03.26.18.02c.71.08,1.24.67,1.24,1.37v6.1c0,.7-.53,1.29-1.23,1.37l-.44.04v.44c-.04,1.22-1.03,2.18-2.26,2.18h-1.58l.23.66c.17.46.24.9.24,1.34v9.05l.38.09c.63.14,1.08.71,1.08,1.35v1.55c-.06.24-.15.62-.15.62-.07.14-.15.24-.21.33-.19.19-.41.33-.65.39-.11.04-.23.05-.37.05h-2.96v4.35c0,1.24-1.01,2.24-2.24,2.24h-2.68ZM53.84,64.86c0,.75.61,1.36,1.36,1.36h2.68c.53,0,1.02-.32,1.23-.8l.03-.06h.07l.03-.21v-4.64s-5.39,0-5.39,0v4.35ZM30.78,64.86c0,.75.61,1.36,1.35,1.36h2.68c.53,0,1.02-.32,1.24-.81l.03-.06h.06l.03-.21v-4.64h-5.39v4.35ZM63.45,59.61l.13-.77v-1.77H26.43v2.54h37.02ZM62.1,56.18v-9.1c0-1.74-1.42-3.16-3.16-3.16h-3.8c-.24,0-.44-.2-.44-.45,0-2.19-1.78-3.98-3.97-3.98h-11.46c-2.19,0-3.97,1.78-3.97,3.96,0,.25-.2.46-.44.46h-3.8c-1.74,0-3.16,1.42-3.16,3.17v9.1h34.2ZM60.82,43.51c.31.16.58.35.8.55l.16.15,2.82-.02v-.1l.06-.03c.43-.2.72-.6.78-1.07l.07-.56h-2.33c-.25,0-.45-.2-.45-.44v-8c0-.24.2-.44.45-.44h2.33l-.07-.56c-.09-.68-.67-1.19-1.34-1.19h-3.56v11.57l.27.14ZM24.57,42.93c.09.72.65,1.25,1.34,1.25h2.38l.11-.12c.25-.23.52-.41.8-.56l.27-.14v-11.57h-3.56c-.67,0-1.25.51-1.34,1.19l-.08.56h2.33c.25,0,.45.2.45.44v8c0,.24-.2.44-.45.44h-2.25v.5ZM45,23.79c-6.07,0-11.04,2.14-13.46,3.41-.74.38-1.2,1.14-1.2,1.99v13.88l.53-.02s.12-.01.14-.02h1.41v-10.18c0-1.24,1.01-2.25,2.25-2.25h8.93c.25,0,.44.19.44.44v7.55h1.9v-7.55c0-.24.2-.44.44-.44h8.94c1.24,0,2.24,1.01,2.24,2.25v10.18h1.36l.13.02.59.03v-13.88c0-.84-.46-1.6-1.19-1.99-2.43-1.27-7.41-3.41-13.47-3.41ZM56.69,43.02v-10.18c0-.75-.61-1.36-1.36-1.36h-8.49v7.11h3.89c2.37,0,4.38,1.69,4.79,4.02l.07.41h1.1ZM34.41,43.02l.07-.41c.41-2.33,2.42-4.02,4.79-4.02h3.89v-7.11h-8.49c-.75,0-1.36.61-1.36,1.36v10.18h1.1ZM67.14,41.54v-7.1h-3.51v7.1h3.51ZM26.38,41.54v-7.1h-3.51v7.1h3.51Z"/>
      <path class="cls-1" d="M66.78,33.67l-.28-.03v-.07s-.23.25-.23.25l-.02-.71c-.03-1.17-.97-2.08-2.14-2.08h-3.66v-1.82c0-1.14-.62-2.17-1.62-2.7-2.49-1.3-7.59-3.5-13.83-3.5s-11.33,2.2-13.83,3.5c-1.01.53-1.62,1.56-1.62,2.7v1.82h-3.65c-1.16,0-2.11.92-2.14,2.08v.51s-.54.06-.54.06c-.66.07-1.15.62-1.15,1.27v6.1c0,.66.49,1.2,1.14,1.27l.53.04v.53c.05,1.17,1,2.08,2.16,2.08h1.72l-.27.8c-.16.45-.25.87-.25,1.3v9.13l-.46.1c-.58.13-1.01.66-1.01,1.25v1.55c0,.71.58,1.29,1.29,1.29h3.05v4.45c0,1.18.96,2.14,2.14,2.14h2.68c1.18,0,2.14-.96,2.14-2.14v-4.45h16.1v4.45c0,1.18.96,2.14,2.14,2.14h2.68c1.18,0,2.14-.96,2.14-2.14v-4.45h3.06c.12,0,.23-.01.34-.05.22-.06.43-.19.59-.35t0,0c.07-.09.14-.18.19-.28,0,0,.09-.38.15-.6v-1.55c0-.6-.42-1.12-1.01-1.25l-.46-.1v-9.13c0-.42-.07-.86-.24-1.31l-.28-.79h1.73c1.17,0,2.11-.92,2.14-2.08v-.53s.54-.04.54-.04c.66-.07,1.15-.62,1.15-1.27v-6.1c0-.66-.49-1.2-1.15-1.27ZM30.24,29.19c0-.89.48-1.68,1.25-2.08,2.43-1.28,7.42-3.42,13.51-3.42s11.07,2.14,13.51,3.42c.77.4,1.24,1.2,1.24,2.08v13.98l-.63-.03h-.07s-.09-.01-.09-.01h-.03s-1.46,0-1.46,0v-10.28c0-1.18-.96-2.15-2.14-2.15h-8.94c-.19,0-.34.16-.34.34v7.65h-2.1v-7.65c0-.19-.15-.34-.34-.34h-8.93c-1.18,0-2.15.97-2.15,2.15v10.28h-1.48s-.16.02-.16.02l-.63.03v-13.98ZM34.86,43.81c.19,0,.34-.16.34-.36,0-2.24,1.82-4.06,4.06-4.06h11.47c2.24,0,4.06,1.83,4.06,4.08,0,.19.16.35.34.35h3.8c1.79,0,3.26,1.46,3.26,3.26v9.2H27.8v-9.2c0-1.8,1.47-3.27,3.26-3.27h3.8ZM33.21,43.12v-10.28c0-.8.66-1.46,1.46-1.46h8.59v7.31h-3.99c-2.32,0-4.29,1.65-4.69,3.94l-.09.49h-1.28ZM46.74,38.69v-7.31h8.59c.8,0,1.46.66,1.46,1.46v10.28h-1.28l-.09-.49c-.4-2.29-2.37-3.94-4.69-3.94h-3.99ZM22.77,41.64v-7.3h3.71v7.3h-3.71ZM25.9,44.29c-.73,0-1.34-.57-1.44-1.35v-.6h2.35c.19,0,.35-.16.35-.34v-8c0-.19-.16-.34-.35-.34h-2.44l.09-.67c.1-.73.71-1.28,1.44-1.28h3.66v11.73l-.33.16c-.27.13-.53.31-.78.54l-.17.14h-2.37ZM36.27,65.15l-.04.3h-.09c-.24.52-.75.86-1.33.86h-2.68c-.8,0-1.45-.66-1.45-1.46v-4.45h5.59v4.75ZM59.33,65.15l-.04.3h-.09c-.23.52-.75.86-1.33.86h-2.68c-.8,0-1.46-.66-1.46-1.46v-4.45h5.6v4.75ZM63.67,56.97v1.89l-.14.85H26.33v-2.74h37.34ZM65.54,43c-.07.51-.39.94-.84,1.15v.13h-2.99l-.16-.15c-.21-.19-.48-.38-.77-.54l-.33-.16v-11.73h3.66c.72,0,1.34.55,1.44,1.28l.09.67h-2.44c-.19,0-.35.16-.35.34v8c0,.19.16.34.35.34h2.44l-.09.67ZM67.24,41.64h-3.71v-7.3h3.71v7.3Z"/>
    </g>
  </g>
</svg>