<svg xmlns="http://www.w3.org/2000/svg" viewBox="0 0 48 48"><defs><style>.cls-1{fill:#da3544;}.cls-2{fill:#fff;}</style></defs><g id="Layer_2" data-name="Layer 2"><g id="Layer_7" data-name="Layer 7"><circle class="cls-1" cx="24" cy="24" r="24"/><path class="cls-2" d="M12,35.67c0-.34.07-.68.1-1a28.14,28.14,0,0,1,1.17-6.57c.13-.39.28-.77.44-1.14a5,5,0,0,1,3.88-2.84,5.32,5.32,0,0,1,1-.07.5.5,0,0,0,.4-.15q3.2-3.22,6.4-6.43c1.45-1.45,2.9-2.92,4.36-4.36a3.67,3.67,0,1,1,5.13,5.24h0L28,25.16l-3.9,3.89a.54.54,0,0,0-.17.4A5.19,5.19,0,0,1,20.8,34.4a18.16,18.16,0,0,1-4.24,1.12c-1.34.19-2.7.3-4,.44l-.22,0H12Zm11.4-8.62a1.44,1.44,0,0,1,.18-.25L33.38,17c.08-.07.15-.15.22-.22a1.68,1.68,0,0,0-.18-2.36h0a1.63,1.63,0,0,0-.49-.29,1.67,1.67,0,0,0-1.86.47L21.2,24.47l-.16.17A5.66,5.66,0,0,1,23.4,27.05Zm-9.24,6.77.64-.07a24.1,24.1,0,0,0,4.6-1,3.72,3.72,0,0,0,1.6-.86,3.51,3.51,0,0,0,0-4.84,3.42,3.42,0,0,0-5.7,1.11,23.09,23.09,0,0,0-.83,3.35c-.11.74-.2,1.47-.32,2.25Z"/><path class="cls-2" d="M30.8,36l-1.94-2L25.6,30.78a1.07,1.07,0,0,0-.16-.14l1.42-1.42a1.14,1.14,0,0,1,.16.15l4.45,4.47a.51.51,0,0,0,.4.16H34V31.88a.47.47,0,0,0-.17-.4Q31.61,29.24,29.36,27l-.16-.17,1.41-1.41.15.15,5.07,5.07a.54.54,0,0,1,.17.4V36Z"/><path class="cls-2" d="M12,15.28c.05-.2.09-.4.15-.61a3.65,3.65,0,0,1,4.49-2.54,3.75,3.75,0,0,1,1.51.84c1.49,1.43,2.92,2.91,4.37,4.37a.1.1,0,0,1,0,.05l-1.44,1.43a.8.8,0,0,0-.13-.19L16.9,14.54a1.68,1.68,0,0,0-2.5,2.23h0l.11.11,2.19,2.19L18.64,21l.14.15L17.34,22.6a.9.9,0,0,0-.14-.2q-2-2-4-4A3.74,3.74,0,0,1,12,16.17a.2.2,0,0,0,0-.08Z"/></g></g></svg>