<?xml version="1.0" encoding="UTF-8"?>
<svg id="Layer_2" xmlns="http://www.w3.org/2000/svg" xmlns:xlink="http://www.w3.org/1999/xlink" viewBox="0 0 50 31">
  <defs>
    <style>
      .cls-1 {
        fill: #fff;
      }

      .cls-2 {
        fill: none;
      }

      .cls-3 {
        clip-path: url(#clippath);
      }
    </style>
    <clipPath id="clippath">
      <rect class="cls-2" width="50" height="31"/>
    </clipPath>
  </defs>
  <g id="Layer_1-2" data-name="Layer_1">
    <g class="cls-3">
      <g>
        <path class="cls-1" d="M20.35,25.05h-10V3.59h2.4v3.71l1.69-1.35,1.69,1.35v-3.71h.38v.67h.85v-.67h4.3v5.8h4.6v11.91h.85v-12.48l-4.82-6.08h-4.93V.85h10.74v5.8h4.6v11.66h.85V6.08L28.7,0h-12.21v2.74h-6.99v23.15h10.84v-.85ZM22.48,4.38l3.31,4.17h-3.31v-4.17ZM28.92,1.63l3.31,4.16h-3.31V1.63ZM13.59,3.59h1.68v1.95l-.84-.67-.84.67v-1.95h0Z"/>
        <rect class="cls-1" x="12.56" y="8.54" width="7.39" height=".85"/>
        <rect class="cls-1" x="12.56" y="10.61" width="10.96" height=".85"/>
        <path class="cls-1" d="M23.04,27.25l.46,3.75h2.53v-3.74h.34l6.79,3.16c.2.09.41.14.63.14.28,0,.55-.08.79-.23.43-.27.68-.74.68-1.25v-1.86c.85-.18,1.5-.94,1.5-1.85v-1.32c0-.91-.64-1.67-1.5-1.85v-1.86c0-.51-.26-.97-.68-1.25s-.96-.31-1.42-.09l-6.79,3.17h-3.15c-1.23,0-2.22,1-2.22,2.22v.65c0,1.17.9,2.12,2.05,2.21ZM35.26,23.1c.38.16.65.53.65.96v1.32c0,.44-.27.81-.65.96v-3.24ZM26.89,22.87l6.63-3.09c.2-.09.42-.08.61.04s.29.31.29.53v8.73c0,.22-.11.41-.29.53s-.41.13-.61.04l-6.63-3.08v-3.71ZM25.19,30.15h-.94l-.36-2.89h1.3v2.89ZM21.84,24.4c0-.76.62-1.38,1.38-1.38h2.83v3.4h-2.82c-.76,0-1.38-.62-1.38-1.38v-.65h0Z"/>
        <rect class="cls-1" x="28.15" y="22.34" width="5" height=".85" transform="translate(-6.75 15.08) rotate(-24.99)"/>
        <path class="cls-1" d="M39.3,27.62c1.6-1.6,1.6-4.2,0-5.79l-.6.6c1.27,1.27,1.27,3.33,0,4.6l.6.6Z"/>
        <path class="cls-1" d="M37.94,26.26c.41-.41.64-.96.64-1.54s-.23-1.13-.64-1.54l-.6.6c.25.25.39.59.39.94s-.14.69-.39.94l.6.6Z"/>
        <rect class="cls-1" x="11.62" y="15.22" width="6.44" height=".85" transform="translate(-6.72 15.07) rotate(-45)"/>
        <path class="cls-1" d="M14.23,15.04c.48-.48.52-1.24.07-1.69-.22-.22-.54-.34-.86-.31-.31.02-.6.16-.83.39-.48.48-.52,1.24-.07,1.69.21.21.49.31.77.31.32,0,.66-.13.91-.39ZM13.08,14.31c0-.1.06-.21.14-.29.08-.08.19-.13.29-.14h.03c.06,0,.12.01.18.07.11.11.08.34-.07.49-.08.08-.19.13-.29.14-.06,0-.14,0-.2-.06-.06-.06-.07-.14-.07-.2Z"/>
        <path class="cls-1" d="M16.18,18.29c.32,0,.65-.13.91-.39.48-.48.52-1.24.07-1.69s-1.2-.41-1.69.07c-.48.48-.52,1.24-.07,1.69.21.21.49.31.78.31ZM16.08,16.88c.09-.09.21-.14.31-.14.07,0,.13.02.18.07.11.11.08.34-.07.49-.15.15-.38.19-.49.07-.11-.11-.08-.34.07-.49Z"/>
      </g>
    </g>
  </g>
</svg>