<?xml version="1.0" encoding="UTF-8"?>
<svg id="Layer_2" xmlns="http://www.w3.org/2000/svg" viewBox="0 0 1920 207.37">
  <defs>
    <style>
      .cls-1 {
        fill: #fff;
      }
    </style>
  </defs>
  <g id="Layer_1-2" data-name="Layer_1">
    <path class="cls-1" d="M1918.69,131.72h0c-3.6-1.24-7.01-2.35-10.38-3.58-51.06-18.67-103.3-33.07-156.82-42.65-38.19-6.84-76.64-12.32-115.46-13.58-34.6-1.12-69.27-1.78-103.86-.79-39.78,1.14-79.29,6.23-118.52,13.14-59.23,10.43-117.09,26.52-175.14,41.82-49.87,13.14-99.75,26.47-150.9,33.61-36.06,5.03-72.36,8.95-108.69,11.37-29.53,1.96-59.32,2.29-88.88.9-33.88-1.59-67.73-4.99-101.4-9.17-83-10.32-161.54-37.16-239.63-65.62-52.2-19.02-104.54-37.72-157.21-55.42-46.41-15.6-94.12-26.39-142.56-33.88C215.95,2.72,182.48-.04,148.79,0,101.07.06,54.19,5.9,8.56,20.34c-1.83.58-3.69,1.05-5.55,1.54l.08-.02-.08.02c-.07.02-.14.04-.21.06,0,0-.01,0-.01,0l-2.79.7v184.74h1920c0-25.08,0-50.15,0-75.22l-1.31-.44Z"/>
  </g>
</svg>