<?xml version="1.0" encoding="UTF-8"?>
<svg id="Layer_2" xmlns="http://www.w3.org/2000/svg" xmlns:xlink="http://www.w3.org/1999/xlink" viewBox="0 0 40 40">
  <defs>
    <style>
      .cls-1 {
        fill: #c87848;
      }

      .cls-2 {
        fill: #fc575b;
      }

      .cls-3 {
        fill: #65cef8;
      }

      .cls-4 {
        fill: none;
      }

      .cls-5 {
        fill: #fff;
        isolation: isolate;
        opacity: .4;
      }

      .cls-6 {
        fill: #efe9e5;
      }

      .cls-7 {
        fill: #fbca43;
      }

      .cls-8 {
        clip-path: url(#clippath);
      }
    </style>
    <clipPath id="clippath">
      <rect class="cls-4" width="40" height="40"/>
    </clipPath>
  </defs>
  <g id="Layer_1-2" data-name="Layer_1">
    <g class="cls-8">
      <g id="_x39_2_Business_Insights">
        <g>
          <path class="cls-7" d="M31.7,15.05c0,3.95-1.96,7.44-4.96,9.56-.83.59-1.33,1.55-1.33,2.57h-10.81c0-1.02-.5-1.98-1.33-2.57-3-2.12-4.96-5.61-4.96-9.56,0-6.46,5.23-11.7,11.7-11.7s11.7,5.24,11.7,11.7h0Z"/>
          <path class="cls-5" d="M31.7,15.05c0,3.95-1.96,7.44-4.96,9.56-.84.59-1.33,1.55-1.33,2.57h-10.81c0-.51-.12-1.01-.35-1.45-.23-.44-.56-.82-.98-1.12-1.22-.86-2.27-1.96-3.08-3.21,1.87,1.1,4.04,1.73,6.37,1.73,6.93,0,12.55-5.62,12.55-12.55,0-1.19-.16-2.33-.47-3.42,1.9,2.08,3.06,4.85,3.06,7.89h0Z"/>
          <path class="cls-3" d="M26.55,28.55c0,.75-.61,1.37-1.37,1.37h-10.36c-.75,0-1.37-.61-1.37-1.37s.61-1.37,1.37-1.37h10.36c.75,0,1.37.61,1.37,1.37Z"/>
          <path class="cls-3" d="M26.55,31.28c0,.75-.61,1.37-1.37,1.37h-10.36c-.75,0-1.37-.61-1.37-1.37s.61-1.37,1.37-1.37h10.36c.75,0,1.37.61,1.37,1.37Z"/>
          <path class="cls-6" d="M24.54,32.65c0,2.21-1.79,4-4,4h-1.09c-2.21,0-4-1.79-4-4h9.08Z"/>
          <path class="cls-3" d="M16.55,18.71s0,.03,0,.04c-.02.39-.34.71-.73.73-.01,0-.03,0-.04,0h-1.91s-.03,0-.04,0h-.22s.02-.02.03-.03c-.31-.1-.54-.39-.54-.74v-7.36c0-.43.34-.77.77-.77h1.91c.41,0,.75.32.77.73,0,9.35,0,7.01,0,7.39Z"/>
          <path class="cls-5" d="M16.55,11.32v7.44c-.02.39-.34.71-.73.73h-2.21s.02-.02.03-.03c1.24-1.21,2.01-2.9,2.01-4.77,0-1.54-.52-2.96-1.4-4.09h1.53c.41,0,.75.32.77.73Z"/>
          <path class="cls-2" d="M21.72,8.79v9.92c0,.41-.32.75-.73.77-.01,0-.03,0-.04,0h-1.91s-.03,0-.04,0c-.41-.02-.73-.35-.73-.77v-9.92c0-.31.19-.58.46-.7.1-.04.2-.07.32-.07h1.91c.42,0,.77.34.77.77h0Z"/>
          <path class="cls-5" d="M21.72,8.79v9.92c0,.41-.32.75-.73.77h-1.98c-.41-.02-.73-.35-.73-.77v-1.98c1.51-.92,2.52-2.57,2.52-4.47,0-1.7-.81-3.21-2.07-4.16.1-.04.2-.07.32-.07h1.91c.42,0,.77.34.77.77h0Z"/>
          <path class="cls-1" d="M26.89,12.37v6.34c0,.41-.32.75-.73.77-.01,0-.03,0-.04,0h-1.91s-.03,0-.04,0c-.41-.02-.73-.35-.73-.77v-6.34c0-.42.35-.77.77-.77h1.91c.43,0,.77.35.77.77Z"/>
          <path class="cls-5" d="M26.89,12.37v6.34c0,.41-.32.75-.73.77h-1.98c-.41-.02-.73-.35-.73-.77v-.25c1.5-.59,2.56-2.06,2.56-3.77,0-1.24-.56-2.35-1.43-3.1h1.55c.43,0,.77.35.77.77Z"/>
          <g>
            <path d="M20,2.87c-6.72,0-12.18,5.47-12.18,12.19,0,3.95,1.93,7.68,5.17,9.96.62.44,1.01,1.08,1.1,1.84-.66.29-1.12.94-1.12,1.7,0,.54.24,1.03.61,1.37-.37.34-.61.82-.61,1.37,0,1.02.83,1.85,1.85,1.85h.18c.24,2.24,2.15,4,4.46,4h1.09c2.31,0,4.21-1.75,4.46-4h.18c1.02,0,1.85-.83,1.85-1.85,0-.54-.24-1.03-.61-1.37.37-.34.61-.82.61-1.37,0-.76-.46-1.41-1.12-1.7.09-.73.49-1.4,1.1-1.84,2.32-1.64,4-4.04,4.74-6.77.07-.26-.08-.53-.34-.6-.26-.07-.53.08-.6.34-.68,2.51-2.23,4.72-4.36,6.23-.83.58-1.37,1.49-1.5,2.48h-9.9c-.13-.98-.65-1.87-1.5-2.48-2.98-2.1-4.75-5.53-4.75-9.16,0-6.18,5.03-11.21,11.21-11.21,5.72,0,10.51,4.28,11.14,9.96.03.27.27.47.54.43.27-.03.46-.27.43-.54-.68-6.17-5.89-10.83-12.11-10.83h0ZM20.55,36.16h-1.09c-1.77,0-3.24-1.32-3.48-3.02h8.04c-.24,1.71-1.71,3.02-3.48,3.02ZM26.06,31.28c0,.48-.39.88-.88.88h-10.36c-.48,0-.88-.39-.88-.88s.39-.88.88-.88h10.36c.48,0,.88.39.88.88h0ZM25.18,29.43h-10.36c-.48,0-.88-.39-.88-.88s.39-.88.88-.88h10.36c.48,0,.88.39.88.88,0,.48-.39.88-.88.88Z"/>
            <path d="M15.78,10.1h-1.91c-.69,0-1.26.56-1.26,1.26v7.36c0,.7.56,1.26,1.26,1.26h1.91c.68,0,1.26-.56,1.26-1.26,0-7.97,0-7.35,0-7.42-.03-.67-.58-1.2-1.26-1.2ZM16.06,18.73c0,.14-.12.26-.27.26-.08,0-1.84,0-1.94,0-.15,0-.26-.14-.26-.28v-7.36c0-.16.13-.28.28-.28h1.91c.15,0,.27.12.28.27,0,.05,0,7.3,0,7.39Z"/>
            <path d="M19.05,7.54c-.18,0-.36.04-.51.11-.45.2-.75.65-.75,1.15v9.92c0,.7.57,1.26,1.26,1.26h1.91c.69,0,1.26-.55,1.26-1.26v-9.92c0-.69-.56-1.26-1.26-1.26h-1.91ZM21.24,8.79v9.92c0,.15-.12.27-.27.28-.07,0-1.85,0-1.94,0-.15,0-.27-.13-.27-.28v-9.92c0-.11.06-.21.17-.26.03-.02.07-.02.11-.02h1.91c.16,0,.28.13.28.28h0Z"/>
            <path d="M24.22,11.11c-.69,0-1.26.56-1.26,1.26v6.34c0,.7.57,1.26,1.26,1.26h1.91c.69,0,1.26-.56,1.26-1.26v-6.34c0-.69-.56-1.26-1.26-1.26h-1.91ZM26.41,12.37v6.34c0,.15-.11.27-.27.28,0,0-.02,0-.03,0-.91,0-1.81,0-1.91,0-.15,0-.27-.13-.27-.28v-6.34c0-.15.13-.28.28-.28h1.91c.16,0,.28.13.28.28h0Z"/>
            <path d="M34.02,11.45l2.71-2.71c.19-.19.19-.5,0-.69s-.5-.19-.69,0l-2.71,2.71c-.19.19-.19.5,0,.69s.5.19.69,0h0Z"/>
            <path d="M39.51,15.44h-3.84c-.27,0-.49.22-.49.49s.22.49.49.49h3.84c.27,0,.49-.22.49-.49s-.22-.49-.49-.49Z"/>
            <path d="M34.02,20.4c-.19-.19-.5-.19-.69,0s-.19.5,0,.69l2.71,2.71c.19.19.5.19.69,0s.19-.5,0-.69l-2.71-2.71Z"/>
            <path d="M3.95,8.05c-.19-.19-.5-.19-.69,0s-.19.5,0,.69l2.71,2.71c.19.19.5.19.69,0s.19-.5,0-.69l-2.71-2.71Z"/>
            <path d="M4.81,15.93c0-.27-.22-.49-.49-.49H.49c-.27,0-.49.22-.49.49s.22.49.49.49h3.84c.27,0,.49-.22.49-.49Z"/>
            <path d="M5.98,20.4l-2.71,2.71c-.19.19-.19.5,0,.69s.5.19.69,0l2.71-2.71c.19-.19.19-.5,0-.69s-.5-.19-.69,0Z"/>
          </g>
        </g>
      </g>
    </g>
  </g>
</svg>