<?xml version="1.0" encoding="UTF-8"?>
<svg id="Layer_2" xmlns="http://www.w3.org/2000/svg" xmlns:xlink="http://www.w3.org/1999/xlink" viewBox="0 0 40 40">
  <defs>
    <style>
      .cls-1 {
        fill: #083863;
      }

      .cls-2 {
        fill: none;
      }

      .cls-3 {
        fill: #00acea;
      }

      .cls-4 {
        fill: #fedb41;
      }

      .cls-5 {
        fill: #00efd1;
      }

      .cls-6 {
        clip-path: url(#clippath);
      }
    </style>
    <clipPath id="clippath">
      <rect class="cls-2" width="40" height="40"/>
    </clipPath>
  </defs>
  <g id="Layer_1-2" data-name="Layer_1">
    <g class="cls-6">
      <g id="surface1">
        <path class="cls-4" d="M32.57,19.85h-.01c-.15-.08-.28-.17-.44-.25-.44-.25-.89-.46-1.36-.63-.17-.05-.33-.11-.5-.17-.48-.17-.97-.28-1.49-.36-.56-.09-1.14-.15-1.72-.16-.74,0-1.45.07-2.14.23-.34.06-.68.16-1.01.26-1.98.61-3.71,1.79-5,3.36-.21.26-.4.53-.59.8h-.01c-.19.29-.36.58-.52.87,0,0-.01,0-.01.01-.32.59-.59,1.22-.79,1.88-.31,1-.48,2.04-.48,3.13,0,.8.08,1.58.25,2.32.04.19.08.36.13.55.1.36.23.72.36,1.07.07.17.15.34.23.51h0c.55,1.18,1.3,2.23,2.22,3.12,1.9,1.85,4.48,2.98,7.34,2.98,5.82,0,10.53-4.72,10.53-10.53,0-3.79-2.01-7.11-5.02-8.98ZM27.09,32.86l-4.01,2.12.78-4.47-3.25-3.15,4.48-.65,2-4.05,2,4.05h.01l4.47.65-3.25,3.15.77,4.47-4-2.12Z"/>
        <path class="cls-4" d="M32.45,20.03c-1.15-.71-2.4-1.17-3.71-1.38-.55-.09-1.12-.15-1.69-.15-5.69,0-10.33,4.62-10.33,10.33,0,1.52.32,3,.95,4.35.53,1.14,1.26,2.17,2.18,3.05,1.93,1.89,4.49,2.92,7.2,2.92,5.69,0,10.33-4.63,10.33-10.33,0-3.62-1.85-6.91-4.92-8.8ZM27.09,33.09l-4.28,2.25.82-4.77-3.46-3.37,4.79-.69,2.14-4.34,2.14,4.34,4.79.69-3.46,3.37.82,4.77-4.28-2.25Z"/>
        <path class="cls-4" d="M33.58,27.35l-3.25,3.16.77,4.46-4.01-2.11-4.01,2.11.77-4.46-3.24-3.16,4.48-.65,2-4.06,2.01,4.06,4.48.65Z"/>
        <polygon class="cls-4" points="27.09 32.63 23.36 34.59 24.08 30.43 21.06 27.49 25.23 26.89 27.09 23.11 28.96 26.89 33.13 27.49 30.11 30.43 30.82 34.59 27.09 32.63"/>
        <path class="cls-5" d="M32.58,8.98v10.86l-.02.02c-1.14-.7-2.42-1.19-3.78-1.41v-8.29l-11.27-5.54-11.27,5.52v11.15c0,2.3,1.66,5.44,3.56,6.73l7.69,5.25c.55,1.17,1.3,2.22,2.21,3.11l-1.12.77c-.32.22-.69.33-1.07.33s-.75-.11-1.07-.33l-8.78-5.99c-2.92-1.99-5.21-6.33-5.21-9.86v-12.34c0-.73.41-1.39,1.07-1.71L16.67.8c.53-.26,1.15-.26,1.68,0l13.17,6.47c.64.32,1.06.98,1.06,1.71Z"/>
        <path class="cls-5" d="M17.51,37.29c-.34,0-.68-.1-.96-.29l-8.78-5.99c-2.87-1.96-5.12-6.21-5.12-9.69v-12.34c0-.65.36-1.23.95-1.52L16.76.99c.23-.11.49-.17.75-.17s.52.06.75.17l13.17,6.47c.58.29.94.87.94,1.52v10.53c-1.05-.6-2.19-1.02-3.38-1.23v-8.24l-11.48-5.64-11.48,5.62v11.28c0,2.35,1.71,5.58,3.65,6.9l7.64,5.22c.51,1.09,1.2,2.08,2.05,2.95l-.92.63c-.28.19-.61.29-.96.29Z"/>
        <path class="cls-3" d="M28.78,10.16v8.28c-.56-.09-1.14-.14-1.74-.14-5.82,0-10.53,4.72-10.53,10.53,0,1.59.35,3.09.97,4.44l-7.69-5.25c-1.9-1.29-3.56-4.44-3.56-6.73v-11.15l11.28-5.52,11.27,5.54Z"/>
        <path class="cls-3" d="M9.91,27.86c-1.85-1.25-3.47-4.32-3.47-6.56v-11.02l11.07-5.42,11.06,5.43v7.91c-.51-.07-1.02-.11-1.53-.11-5.92,0-10.74,4.82-10.74,10.74,0,1.34.24,2.64.72,3.88l-7.11-4.85Z"/>
        <path class="cls-1" d="M34.35,27.09c-.09-.3-.35-.52-.66-.56l-4.04-.59-1.8-3.66c-.15-.29-.44-.47-.75-.47s-.6.18-.75.47l-1.8,3.66-4.05.59c-.31.04-.57.26-.66.56-.1.3-.02.63.21.85l2.92,2.86-.68,4.03c-.05.31.07.62.32.81.26.18.6.21.87.06l3.62-1.9,3.62,1.9c.12.07.26.09.39.09.17,0,.33-.05.49-.16.25-.19.37-.5.32-.81l-.68-4.03,2.92-2.86c.23-.22.31-.54.21-.85ZM31.81,27.93l-2.05,1.99c-.2.19-.28.46-.24.74l.48,2.81-2.52-1.34c-.12-.06-.25-.09-.38-.09s-.27.04-.39.09l-2.52,1.34.49-2.81c.04-.27-.04-.55-.24-.74l-2.04-1.99,2.83-.41c.27-.04.51-.21.62-.46l1.26-2.55,1.26,2.55c.12.25.35.41.61.46l2.83.41Z"/>
        <path class="cls-1" d="M34.15,27.15c-.07-.22-.27-.38-.5-.41l-4.15-.6-1.86-3.76c-.1-.22-.33-.35-.56-.35s-.46.13-.56.34l-1.86,3.77-4.16.6c-.23.03-.43.2-.5.41-.07.23-.02.48.16.64l3.01,2.93-.72,4.14c-.03.24.06.47.25.61.1.07.24.11.37.11.09,0,.2-.02.28-.06l3.71-1.96,3.71,1.96c.09.04.19.06.3.06.13,0,.25-.04.36-.11.19-.13.28-.37.25-.61l-.72-4.14,3.01-2.93c.18-.18.23-.41.16-.64ZM27.38,32.32c-.08-.04-.18-.07-.29-.07-.1,0-.21.03-.29.07l-2.89,1.52.55-3.22c.03-.2-.03-.4-.18-.55l-2.33-2.28,3.23-.48c.21-.03.37-.16.47-.34l1.45-2.92,1.44,2.92c.09.19.27.31.47.34l3.25.48-2.35,2.28c-.15.15-.21.34-.18.55l.55,3.22-2.89-1.52Z"/>
        <path class="cls-1" d="M36.73,23.32c-.87-1.53-2.03-2.79-3.45-3.72l-.09-.05v-10.56c0-.95-.55-1.84-1.41-2.25L18.61.26c-.34-.18-.73-.26-1.11-.26s-.77.08-1.11.26L3.21,6.7c-.86.43-1.42,1.32-1.42,2.27v12.34c0,1.79.57,3.86,1.6,5.81,1.03,1.93,2.42,3.56,3.91,4.57l8.79,5.99c.4.29.9.44,1.42.44s1-.16,1.42-.44l.72-.49.11.1c2.02,1.74,4.6,2.71,7.29,2.71,6.15,0,11.16-5.01,11.16-11.16,0-1.94-.51-3.85-1.47-5.53ZM27.05,38.55c-2.55,0-4.95-.97-6.77-2.74-.85-.83-1.53-1.79-2.04-2.87-.59-1.3-.89-2.66-.89-4.1,0-5.35,4.35-9.7,9.7-9.7.54,0,1.07.04,1.6.13,1.23.2,2.41.64,3.48,1.3,2.9,1.79,4.62,4.88,4.62,8.28,0,5.34-4.35,9.69-9.7,9.69ZM17.51,36.67c-.22,0-.44-.07-.61-.2l-8.78-5.98c-1.31-.89-2.54-2.33-3.45-4.06-.91-1.72-1.43-3.54-1.43-5.12v-12.34c0-.4.25-.79.61-.96L17.02,1.54c.3-.15.65-.13.95,0l13.17,6.47c.36.19.6.56.6.96v9.52c-.66-.32-1.41-.56-2.16-.74v-7.6c0-.31-.17-.6-.45-.74l-11.27-5.54c-.24-.11-.5-.11-.74,0l-11.28,5.52c-.28.15-.47.43-.47.75v11.16c0,2.56,1.8,5.96,3.93,7.41l7.51,5.12c.44.88.96,1.69,1.61,2.43l-.32.22c-.19.11-.39.19-.6.19ZM7.04,10.66l10.45-5.11,10.45,5.13v6.84c-.33-.03-.59-.04-.9-.04-6.26,0-11.36,5.1-11.36,11.36,0,.81.08,1.61.25,2.38l-5.68-3.87c-1.67-1.14-3.2-4.02-3.2-6.05v-10.65Z"/>
        <path class="cls-1" d="M36.73,23.32c-.87-1.53-2.03-2.79-3.45-3.72l-.09-.05v-10.56c0-.95-.55-1.84-1.41-2.25L18.61.26c-.34-.18-.73-.26-1.11-.26s-.77.08-1.11.26L3.21,6.7c-.86.43-1.42,1.32-1.42,2.27v12.34c0,1.79.57,3.86,1.6,5.81,1.03,1.93,2.42,3.56,3.91,4.57l8.79,5.99c.4.29.9.44,1.42.44s1-.16,1.42-.44l.72-.49.11.1c2.02,1.74,4.6,2.71,7.29,2.71,6.15,0,11.16-5.01,11.16-11.16,0-1.94-.51-3.85-1.47-5.53ZM27.05,38.76c-2.6,0-5.06-1-6.92-2.8-.86-.84-1.57-1.82-2.08-2.93-.61-1.33-.91-2.73-.91-4.18,0-5.46,4.45-9.91,9.91-9.91.57,0,1.11.04,1.63.13,1.26.21,2.47.65,3.56,1.33,2.97,1.82,4.73,4.99,4.73,8.46,0,5.46-4.45,9.9-9.91,9.9ZM17.51,36.88c-.26,0-.52-.08-.73-.23l-8.78-5.99c-1.36-.92-2.61-2.4-3.51-4.14-.94-1.75-1.46-3.61-1.46-5.22v-12.34c0-.48.29-.93.74-1.15L16.93,1.36c.18-.08.37-.12.56-.12.2,0,.39.04.58.12l13.17,6.47c.44.22.72.66.72,1.15v9.84l-.3-.13c-.6-.29-1.32-.53-2.1-.72l-.17-.04v-7.77c0-.24-.12-.45-.33-.55l-11.27-5.54c-.09-.04-.18-.07-.27-.07-.1,0-.19.03-.28.07l-11.28,5.52c-.22.1-.35.32-.35.56v11.16c0,2.5,1.75,5.82,3.84,7.25l7.56,5.15.02.04c.43.86.95,1.66,1.58,2.38l.15.17-.52.36c-.22.13-.47.22-.71.22ZM16.13,31.18l.1.51-6.11-4.16c-1.72-1.17-3.3-4.14-3.3-6.22v-10.77l10.66-5.22,10.66,5.23v7.2h-.23c-.32-.04-.58-.05-.88-.05-6.15,0-11.16,5.01-11.16,11.16,0,.8.08,1.58.25,2.33Z"/>
      </g>
    </g>
  </g>
</svg>