<?xml version="1.0" encoding="UTF-8"?>
<svg id="Layer_2" xmlns="http://www.w3.org/2000/svg" xmlns:xlink="http://www.w3.org/1999/xlink" viewBox="0 0 40 40">
  <defs>
    <style>
      .cls-1 {
        fill: #6cb3ff;
      }

      .cls-2 {
        fill: none;
      }

      .cls-3 {
        fill: #cfeae7;
      }

      .cls-4 {
        fill: #f1edee;
      }

      .cls-5 {
        clip-path: url(#clippath);
      }

      .cls-6 {
        fill: #0019a3;
      }
    </style>
    <clipPath id="clippath">
      <rect class="cls-2" width="40" height="40"/>
    </clipPath>
  </defs>
  <g id="Layer_1-2" data-name="Layer_1">
    <g class="cls-5">
      <g>
        <g>
          <path class="cls-3" d="M32.56,9.55v27.87c0,1.3-1.05,2.35-2.35,2.35H2.35c-1.3,0-2.35-1.05-2.35-2.35V9.55c0-1.3,1.05-2.35,2.35-2.35h27.87c.07,0,.13,0,.2,0,.18.01.35.05.52.1.15.05.3.11.43.19.05.03.09.06.14.09.64.42,1.05,1.14,1.05,1.96Z"/>
          <path class="cls-1" d="M40,9.9c0,4.57-3.17,8.4-7.44,9.41-.71.17-1.46.26-2.23.26-5.34,0-9.66-4.33-9.66-9.66,0-.94.13-1.85.38-2.7C22.22,3.18,25.94.24,30.34.24c5.34,0,9.66,4.33,9.66,9.66Z"/>
          <g>
            <path class="cls-4" d="M32.3,5.56l-2.61-2.64c-.16-.16-.44-.05-.44.18v.84c0,.13-.1.24-.24.26-2.69.23-4.81,2.48-4.81,5.24,0,.23.01.46.04.68.03.25.37.31.48.08.78-1.61,2.37-2.76,4.24-2.93.15-.01.28.1.28.26v.88c0,.23.28.34.44.18l2.61-2.64c.1-.1.1-.26,0-.36h0Z"/>
            <path class="cls-4" d="M28.37,14.24l2.61,2.64c.16.16.44.05.44-.18v-.84c0-.13.1-.24.24-.26,2.69-.23,4.81-2.48,4.81-5.24,0-.23-.01-.46-.04-.68-.03-.25-.37-.31-.48-.08-.78,1.61-2.37,2.76-4.24,2.93-.15.01-.28-.1-.28-.26v-.88c0-.23-.28-.34-.44-.18l-2.61,2.64c-.1.1-.1.26,0,.36h0Z"/>
          </g>
        </g>
        <g>
          <path class="cls-6" d="M32.62,5.25l-2.61-2.64c-.13-.14-.31-.21-.5-.21-.09,0-.18.02-.27.05-.26.11-.43.36-.43.65v.67l-.14.02c-1.3.18-2.5.81-3.4,1.78-.45.49-.81,1.04-1.06,1.64-.29.7-.45,1.45-.45,2.22,0,.25.02.49.05.73.04.31.27.55.58.6.04,0,.08,0,.12,0,.27,0,.51-.15.62-.39.67-1.38,1.98-2.36,3.49-2.63l.19-.03v.68c0,.28.17.54.43.65.09.03.18.05.27.05.19,0,.36-.07.5-.21l1.36-1.38,1.25-1.27c.27-.27.27-.71,0-.98ZM30.42,7.21l-.71.73v-.43c0-.11-.02-.21-.07-.3-.04-.08-.09-.15-.16-.21-.13-.12-.3-.18-.47-.18-.02,0-.04,0-.06,0-.55.05-1.09.19-1.6.39-.92.37-1.74.98-2.36,1.78l-.05.06h-.26l.02-.18c.07-.59.24-1.15.51-1.66.19-.37.44-.72.73-1.04.82-.89,1.93-1.43,3.13-1.53.36-.03.64-.33.64-.69v-.39s2.16,2.19,2.16,2.19l-1.45,1.47Z"/>
          <path class="cls-6" d="M32.62,5.25l-2.61-2.64c-.13-.14-.31-.21-.5-.21-.09,0-.18.02-.27.05-.26.11-.43.36-.43.65v.67l-.14.02c-1.3.18-2.5.81-3.4,1.78-.45.49-.81,1.04-1.06,1.64-.29.7-.45,1.45-.45,2.22,0,.25.02.49.05.73.04.31.27.55.58.6.04,0,.08,0,.12,0,.27,0,.51-.15.62-.39.67-1.38,1.98-2.36,3.49-2.63l.19-.03v.68c0,.28.17.54.43.65.09.03.18.05.27.05.19,0,.36-.07.5-.21l1.36-1.38,1.25-1.27c.27-.27.27-.71,0-.98ZM30.42,7.21l-.71.73v-.43c0-.11-.02-.21-.07-.3-.04-.08-.09-.15-.16-.21-.13-.12-.3-.18-.47-.18-.02,0-.04,0-.06,0-.55.05-1.09.19-1.6.39-.92.37-1.74.98-2.36,1.78l-.05.06h-.26l.02-.18c.07-.59.24-1.15.51-1.66.19-.37.44-.72.73-1.04.82-.89,1.93-1.43,3.13-1.53.36-.03.64-.33.64-.69v-.39s2.16,2.19,2.16,2.19l-1.45,1.47Z"/>
          <path class="cls-6" d="M36.86,9.65c-.04-.31-.27-.55-.58-.6-.04,0-.08,0-.12,0-.27,0-.51.15-.62.39-.59,1.22-1.68,2.13-2.97,2.51-.17.05-.34.09-.52.12l-.19.03v-.68c0-.28-.17-.54-.43-.65-.09-.03-.18-.05-.27-.05-.19,0-.36.07-.5.21l-2.61,2.64c-.27.27-.27.71,0,.98l2.61,2.64c.13.13.31.21.5.21.09,0,.18-.02.27-.05.26-.11.43-.36.43-.65v-.67l.14-.02c.19-.03.38-.06.57-.11,1.08-.26,2.07-.85,2.83-1.67.98-1.06,1.51-2.43,1.51-3.87,0-.25-.02-.49-.05-.73ZM35.99,10.95c-.12,1.01-.55,1.95-1.24,2.7-.6.65-1.35,1.11-2.18,1.35-.31.09-.62.15-.95.18-.36.03-.64.33-.64.69v.39s-2.16-2.19-2.16-2.19l2.16-2.19v.43c0,.2.08.38.23.52.13.12.3.18.47.18.02,0,.04,0,.06,0,.28-.03.55-.07.82-.14,1.23-.3,2.34-1.02,3.14-2.03l.35-.45-.07.57Z"/>
          <path class="cls-6" d="M36.86,9.65c-.04-.31-.27-.55-.58-.6-.04,0-.08,0-.12,0-.27,0-.51.15-.62.39-.59,1.22-1.68,2.13-2.97,2.51-.17.05-.34.09-.52.12l-.19.03v-.68c0-.28-.17-.54-.43-.65-.09-.03-.18-.05-.27-.05-.19,0-.36.07-.5.21l-2.61,2.64c-.27.27-.27.71,0,.98l2.61,2.64c.13.13.31.21.5.21.09,0,.18-.02.27-.05.26-.11.43-.36.43-.65v-.67l.14-.02c.19-.03.38-.06.57-.11,1.08-.26,2.07-.85,2.83-1.67.98-1.06,1.51-2.43,1.51-3.87,0-.25-.02-.49-.05-.73ZM35.99,10.95c-.12,1.01-.55,1.95-1.24,2.7-.6.65-1.35,1.11-2.18,1.35-.31.09-.62.15-.95.18-.36.03-.64.33-.64.69v.39s-2.16-2.19-2.16-2.19l2.16-2.19v.43c0,.2.08.38.23.52.13.12.3.18.47.18.02,0,.04,0,.06,0,.28-.03.55-.07.82-.14,1.23-.3,2.34-1.02,3.14-2.03l.35-.45-.07.57Z"/>
          <path class="cls-6" d="M30.34.24c-4.4,0-8.11,2.94-9.28,6.96H2.35c-1.3,0-2.35,1.05-2.35,2.35v27.87c0,1.3,1.05,2.35,2.35,2.35h27.87c1.3,0,2.35-1.05,2.35-2.35v-18.11c4.26-1.01,7.44-4.83,7.44-9.41C40,4.56,35.67.24,30.34.24ZM32.56,18.68c-.71.18-1.46.28-2.23.28-5,0-9.06-4.06-9.06-9.06,0-.94.14-1.85.41-2.7,1.15-3.68,4.59-6.36,8.65-6.36,5,0,9.06,4.06,9.06,9.06,0,4.23-2.91,7.79-6.83,8.78ZM31.96,37.42c0,.96-.78,1.74-1.74,1.74H2.35c-.96,0-1.74-.78-1.74-1.74V9.55c0-.96.78-1.74,1.74-1.74h17.94c-.14.68-.22,1.38-.22,2.1,0,5.66,4.61,10.27,10.27,10.27.55,0,1.09-.04,1.62-.13v17.37Z"/>
          <path class="cls-6" d="M30.34.24c-4.4,0-8.11,2.94-9.28,6.96H2.35c-1.3,0-2.35,1.05-2.35,2.35v27.87c0,1.3,1.05,2.35,2.35,2.35h27.87c1.3,0,2.35-1.05,2.35-2.35v-18.11c4.26-1.01,7.44-4.83,7.44-9.41C40,4.56,35.67.24,30.34.24ZM32.12,37.42c0,1.05-.85,1.9-1.9,1.9H2.35c-1.05,0-1.9-.85-1.9-1.9V9.55c0-1.05.85-1.9,1.9-1.9h18.14l-.04.19c-.14.68-.21,1.37-.21,2.07,0,5.57,4.53,10.11,10.11,10.11.53,0,1.07-.04,1.6-.13l.19-.03v17.56ZM32.56,18.85c-.71.18-1.46.27-2.23.27-5.08,0-9.22-4.14-9.22-9.22,0-.94.14-1.85.4-2.7,1.16-3.77,4.67-6.52,8.82-6.52,5.08,0,9.22,4.14,9.22,9.22,0,4.32-2.98,7.95-6.99,8.95Z"/>
          <path class="cls-6" d="M5.01,13.56c0,.24-.2.44-.44.44h-.47c-.16-.01-.31-.12-.38-.28-.25-.64-.12-1.35.33-1.86l.06-.07c.08-.09.2-.15.33-.15.11,0,.21.04.29.11.09.08.14.19.15.3,0,.12-.03.23-.11.32l-.06.07c-.12.14-.2.31-.22.49l-.02.16.16.02c.22.03.38.22.38.44Z"/>
          <path class="cls-6" d="M5.01,13.56c0,.24-.2.44-.44.44h-.47c-.16-.01-.31-.12-.38-.28-.25-.64-.12-1.35.33-1.86l.06-.07c.08-.09.2-.15.33-.15.11,0,.21.04.29.11.09.08.14.19.15.3,0,.12-.03.23-.11.32l-.06.07c-.12.14-.2.31-.22.49l-.02.16.16.02c.22.03.38.22.38.44Z"/>
          <path class="cls-6" d="M7.46,13.62c0,.24-.2.44-.44.44h-.43c-.18,0-.35-.11-.41-.28-.25-.64-.12-1.35.33-1.86l.06-.07c.08-.09.2-.15.33-.15.11,0,.21.04.29.11.18.16.2.44.04.62l-.06.07c-.12.14-.2.31-.22.49l-.02.16.16.02c.22.03.38.22.38.44Z"/>
          <path class="cls-6" d="M7.46,13.62c0,.24-.2.44-.44.44h-.43c-.18,0-.35-.11-.41-.28-.25-.64-.12-1.35.33-1.86l.06-.07c.08-.09.2-.15.33-.15.11,0,.21.04.29.11.18.16.2.44.04.62l-.06.07c-.12.14-.2.31-.22.49l-.02.16.16.02c.22.03.38.22.38.44Z"/>
          <path class="cls-6" d="M27.63,35.1l-.06.07c-.08.1-.21.15-.33.15-.11,0-.21-.04-.29-.11-.18-.16-.2-.44-.04-.62l.06-.07c.12-.14.2-.31.22-.49l.02-.16-.16-.02c-.22-.03-.38-.22-.38-.44,0-.24.2-.44.44-.44h.43c.18,0,.35.11.41.28.25.63.12,1.35-.33,1.86Z"/>
          <path class="cls-6" d="M27.63,35.1l-.06.07c-.08.1-.21.15-.33.15-.11,0-.21-.04-.29-.11-.18-.16-.2-.44-.04-.62l.06-.07c.12-.14.2-.31.22-.49l.02-.16-.16-.02c-.22-.03-.38-.22-.38-.44,0-.24.2-.44.44-.44h.43c.18,0,.35.11.41.28.25.63.12,1.35-.33,1.86Z"/>
          <path class="cls-6" d="M25.18,35.03l-.06.07c-.08.09-.2.15-.33.15-.11,0-.21-.04-.29-.11-.18-.16-.2-.44-.04-.62l.06-.07c.12-.14.2-.31.22-.49l.02-.16-.16-.02c-.22-.03-.38-.22-.38-.44,0-.24.2-.44.44-.44h.43c.18,0,.35.11.41.28.25.64.12,1.35-.33,1.86Z"/>
          <path class="cls-6" d="M25.18,35.03l-.06.07c-.08.09-.2.15-.33.15-.11,0-.21-.04-.29-.11-.18-.16-.2-.44-.04-.62l.06-.07c.12-.14.2-.31.22-.49l.02-.16-.16-.02c-.22-.03-.38-.22-.38-.44,0-.24.2-.44.44-.44h.43c.18,0,.35.11.41.28.25.64.12,1.35-.33,1.86Z"/>
          <path class="cls-6" d="M4.3,17.61c-.24,0-.44-.2-.44-.44s.2-.44.44-.44h15.14c.24,0,.44.2.44.44s-.2.44-.44.44H4.3Z"/>
          <path class="cls-6" d="M4.3,20.85c-.24,0-.44-.2-.44-.44s.2-.44.44-.44h18.13c.24,0,.44.2.44.44s-.2.44-.44.44H4.3Z"/>
          <path class="cls-6" d="M4.3,24.1c-.24,0-.44-.2-.44-.44s.2-.44.44-.44h22.82c.24,0,.44.2.44.44s-.2.44-.44.44H4.3Z"/>
          <path class="cls-6" d="M4.3,27.35c-.24,0-.44-.2-.44-.44s.2-.44.44-.44h22.82c.24,0,.44.2.44.44s-.2.44-.44.44H4.3Z"/>
          <path class="cls-6" d="M4.3,30.6c-.24,0-.44-.2-.44-.44s.2-.44.44-.44h17.41c.24,0,.44.2.44.44s-.2.44-.44.44H4.3Z"/>
          <path class="cls-6" d="M4.3,33.85c-.24,0-.44-.2-.44-.44,0-.24.2-.44.44-.44l15.7-.07c.24,0,.44.2.44.44,0,.24-.2.44-.44.44l-15.7.07h0Z"/>
        </g>
      </g>
    </g>
  </g>
</svg>