<?xml version="1.0" encoding="UTF-8"?>
<svg id="Layer_2" xmlns="http://www.w3.org/2000/svg" viewBox="0 0 38.56 40">
  <defs>
    <style>
      .cls-1 {
        fill: #f79559;
      }

      .cls-2 {
        fill: #61e1ff;
      }

      .cls-3 {
        fill: #3f4d81;
      }

      .cls-4 {
        fill: #ffa85a;
      }

      .cls-5 {
        fill: #f8f8f8;
      }
    </style>
  </defs>
  <g id="Layer_1-2" data-name="Layer_1">
    <g>
      <g>
        <path class="cls-3" d="M9.69,24.64l9.46,4.04,9.46-4.04-9.46-4.04-9.46,4.04Z"/>
        <path class="cls-1" d="M19.16,28.68v9.46l9.46-4.04v-7.15l-6.96,2.97-2.51-1.25Z"/>
        <path class="cls-3" d="M22.52,36.71l2.75-1.17v-3.53l-2.75,1.17v3.53Z"/>
        <path class="cls-5" d="M19.16,28.68l2.51,1.25,9.46-4.04-2.51-1.25-9.46,4.04Z"/>
        <path class="cls-5" d="M7.19,25.89l9.46,4.04,2.51-1.25-9.46-4.04-2.51,1.25Z"/>
        <path class="cls-5" d="M7.19,23.4l2.51,1.25,9.46-4.04-2.51-1.25-9.46,4.04Z"/>
        <path class="cls-5" d="M19.16,20.61l9.46,4.04,2.51-1.25-9.46-4.04-2.51,1.25Z"/>
        <path class="cls-4" d="M9.69,26.96v7.15l9.46,4.04v-9.46l-2.51,1.25-6.96-2.97Z"/>
        <path class="cls-1" d="M9.69,34.11l1.05.45v-7.15l-1.05-.45v7.15Z"/>
      </g>
      <g>
        <path class="cls-2" d="M27.04,39.65h5.92l-5.09-2.07-.83,2.07Z"/>
        <path class="cls-5" d="M35.94,25.98c-.64,0-1.17.5-1.23,1.13l-.35,4h0c-.11-.15-.26-.28-.45-.35-.54-.22-1.16.04-1.38.58l-1.06,2.6-1.88,1.53-.98,2.41,3.75,1.52.56-1.38,3.44-2.9c.51-.43.8-1.06.8-1.72l.02-6.18c0-.69-.56-1.25-1.25-1.24h0Z"/>
      </g>
      <g>
        <path class="cls-2" d="M5.37,39.65h5.92l-.83-2.07-5.09,2.07Z"/>
        <path class="cls-5" d="M6.85,33.95l-1.06-2.6c-.22-.54-.84-.81-1.38-.58-.19.08-.34.2-.45.36h0s-.35-4-.35-4c-.06-.64-.59-1.13-1.23-1.13-.69,0-1.25.55-1.25,1.24l.02,6.18c0,.66.3,1.29.8,1.72l3.44,2.9.56,1.38,3.75-1.52-.98-2.41-1.88-1.53Z"/>
      </g>
      <g>
        <path class="cls-3" d="M19.16,29.03s-.09,0-.14-.03l-9.46-4.04c-.13-.06-.21-.18-.21-.32s.08-.27.21-.32l9.46-4.04c.09-.04.19-.04.28,0l9.46,4.04c.13.06.21.18.21.32s-.08.27-.21.32l-9.46,4.04s-.09.03-.14.03ZM10.59,24.64l8.57,3.65,8.57-3.65-8.57-3.65-8.57,3.65Z"/>
        <path class="cls-3" d="M19.16,38.49c-.07,0-.14-.02-.19-.06-.1-.06-.16-.17-.16-.29v-9.46c0-.12.06-.23.17-.3.1-.06.23-.07.34-.02l2.36,1.18,6.81-2.9c.11-.05.23-.04.33.03.1.06.16.17.16.29v7.15c0,.14-.08.27-.21.32l-9.46,4.04s-.09.03-.14.03ZM19.51,29.25v8.37l8.76-3.74v-6.38l-6.47,2.76c-.1.04-.2.04-.29,0l-2-1ZM28.62,34.11h0,0Z"/>
        <path class="cls-3" d="M22.52,37.06c-.07,0-.14-.02-.19-.06-.1-.06-.16-.17-.16-.29v-3.53c0-.14.08-.27.21-.32l2.75-1.17c.11-.05.23-.04.33.03.1.06.16.17.16.29v3.53c0,.14-.08.27-.21.32l-2.75,1.17s-.09.03-.14.03ZM22.87,33.41v2.77l2.05-.87v-2.77l-2.05.87ZM25.26,35.54h0,0Z"/>
        <path class="cls-3" d="M14.43,34.88s-.09,0-.14-.03l-3.6-1.54c-.18-.08-.26-.28-.19-.46s.28-.26.46-.18l3.6,1.54c.18.08.26.28.19.46-.06.13-.19.21-.32.21Z"/>
        <path class="cls-3" d="M14.43,33.34s-.09,0-.14-.03l-3.6-1.54c-.18-.08-.26-.28-.19-.46s.28-.26.46-.18l3.6,1.54c.18.08.26.28.19.46-.06.13-.19.21-.32.21Z"/>
        <path class="cls-3" d="M14.43,31.74s-.09,0-.14-.03l-3.6-1.54c-.18-.08-.26-.28-.19-.46s.28-.26.46-.18l3.6,1.54c.18.08.26.28.19.46-.06.13-.19.21-.32.21Z"/>
        <path class="cls-3" d="M21.67,30.28c-.05,0-.11-.01-.16-.04l-2.51-1.25c-.12-.06-.2-.19-.19-.32s.09-.26.21-.31l9.46-4.04c.09-.04.2-.04.29,0l2.51,1.25c.12.06.2.19.19.32,0,.14-.09.26-.21.31l-9.46,4.04s-.09.03-.14.03ZM20,28.7l1.68.84,8.62-3.67-1.68-.84-8.62,3.67Z"/>
        <path class="cls-3" d="M16.65,30.28s-.09,0-.14-.03l-9.46-4.04c-.13-.05-.21-.18-.21-.31s.07-.26.19-.32l2.51-1.25c.09-.05.2-.05.29,0l9.46,4.04c.13.05.21.18.21.31s-.07.26-.19.32l-2.51,1.25s-.1.04-.16.04ZM8.02,25.87l8.62,3.67,1.68-.84-8.62-3.67-1.68.84Z"/>
        <path class="cls-3" d="M9.69,24.99c-.05,0-.11-.01-.16-.04l-2.51-1.25c-.12-.06-.2-.19-.19-.32s.09-.26.21-.31l9.46-4.04c.09-.04.2-.04.29,0l2.51,1.25c.12.06.2.19.19.32s-.09.26-.21.31l-9.46,4.04s-.09.03-.14.03ZM8.02,23.42l1.68.84,8.62-3.67-1.68-.84-8.62,3.67Z"/>
        <path class="cls-3" d="M28.62,24.99s-.09,0-.14-.03l-9.46-4.04c-.13-.05-.21-.18-.21-.31s.07-.26.19-.32l2.51-1.25c.09-.05.2-.05.29,0l9.46,4.04c.13.05.21.18.21.31s-.07.26-.19.32l-2.51,1.25s-.1.04-.16.04ZM20,20.58l8.62,3.67,1.68-.84-8.62-3.67-1.68.84Z"/>
        <path class="cls-3" d="M19.16,38.49s-.09,0-.14-.03l-9.46-4.04c-.13-.06-.21-.18-.21-.32v-7.15c0-.12.06-.23.16-.29.1-.07.22-.08.33-.03l6.81,2.9,2.36-1.18c.11-.05.24-.05.34.02.1.06.17.18.17.3v9.46c0,.12-.06.23-.16.29-.06.04-.13.06-.19.06ZM10.05,33.88l8.76,3.74v-8.37l-2,1c-.09.05-.2.05-.29,0l-6.47-2.76v6.38h0Z"/>
      </g>
      <g>
        <path class="cls-3" d="M32.95,40h-5.92c-.12,0-.23-.06-.29-.15s-.08-.22-.04-.33l.83-2.07c.03-.09.1-.16.19-.19.09-.04.18-.04.27,0l5.09,2.07c.16.06.24.23.21.39s-.18.28-.34.28ZM27.55,39.3h3.6l-3.1-1.26-.5,1.26Z"/>
        <path class="cls-3" d="M32.36,39.76s-.09,0-.13-.03l-3.75-1.52c-.18-.07-.27-.28-.19-.46l.98-2.41c.02-.05.06-.1.1-.14l1.81-1.48,1.02-2.52c.29-.72,1.12-1.07,1.84-.78,0,0,.02,0,.03.01l.29-3.36c.07-.82.75-1.45,1.57-1.45.44,0,.83.16,1.13.46.3.3.47.7.47,1.13l-.02,6.18c0,.77-.34,1.49-.93,1.99l-3.37,2.84-.53,1.3c-.05.14-.19.22-.32.22h0ZM29.07,37.69l3.1,1.26.43-1.06c.02-.05.06-.1.1-.14l3.44-2.9c.43-.36.68-.89.68-1.45l.02-6.18c0-.24-.09-.46-.26-.63-.17-.17-.39-.26-.63-.26h0c-.46,0-.84.35-.88.81l-.34,3.88c.22.37.27.83.1,1.25l-.86,2.12c-.07.18-.07.37,0,.55l.16.38c.08.18,0,.38-.19.46-.18.08-.38,0-.46-.19l-.16-.38c-.15-.35-.15-.73,0-1.08l.86-2.12c.09-.23.06-.48-.08-.67,0-.01-.02-.02-.02-.03-.07-.1-.17-.17-.29-.22-.36-.15-.78.03-.93.39l-1.06,2.6c-.02.05-.06.1-.1.14l-1.81,1.48-.81,2Z"/>
      </g>
      <g>
        <path class="cls-3" d="M11.28,40h-5.92c-.17,0-.31-.12-.34-.28s.06-.33.21-.39l5.09-2.07c.09-.04.18-.03.27,0,.09.04.15.11.19.19l.83,2.07c.04.11.03.23-.04.33s-.17.15-.29.15ZM7.16,39.3h3.6l-.5-1.26-3.1,1.26Z"/>
        <path class="cls-3" d="M5.95,39.76s-.09,0-.14-.03c-.09-.04-.15-.1-.19-.19l-.53-1.3-3.37-2.84c-.59-.49-.93-1.22-.93-1.99l-.02-6.18c0-.43.16-.83.47-1.13s.71-.45,1.13-.46c.83,0,1.5.63,1.57,1.45l.29,3.36s.02,0,.03-.01c.72-.29,1.55.06,1.84.78l1.02,2.52,1.81,1.47s.08.09.1.14l.98,2.41c.04.09.03.18,0,.27-.04.09-.1.15-.19.19l-3.75,1.52s-.09.03-.13.03ZM2.37,26.33c-.24,0-.46.09-.63.26-.17.17-.26.39-.26.63l.02,6.18c0,.56.25,1.09.68,1.45l3.44,2.9s.08.08.1.14l.43,1.06,3.1-1.26-.81-2-1.81-1.47s-.08-.09-.1-.14l-1.06-2.6c-.15-.36-.56-.54-.93-.39-.12.05-.22.13-.29.22,0,.01-.02.02-.02.03-.13.19-.17.44-.08.67l.86,2.12c.14.35.14.73,0,1.08l-.16.38c-.08.18-.28.26-.46.19-.18-.08-.26-.28-.19-.46l.16-.38c.07-.18.08-.37,0-.54l-.86-2.12c-.17-.43-.12-.89.1-1.25l-.34-3.88c-.04-.46-.42-.81-.88-.81,0,0,0,0,0,0Z"/>
      </g>
      <g>
        <g>
          <circle class="cls-4" cx="19.28" cy="6.3" r="5.94"/>
          <path class="cls-5" d="M19.8.38c-.17-.02-.35-.03-.53-.03-3.28,0-5.94,2.66-5.94,5.94s2.66,5.94,5.94,5.94c.18,0,.35-.01.53-.03-3.04-.27-5.42-2.81-5.42-5.92S16.77.64,19.8.38Z"/>
          <path class="cls-2" d="M19.44,9.29h-.45c-.32,0-.58.26-.58.58s.26.58.58.58h.45c.32,0,.58-.26.58-.58s-.26-.58-.58-.58Z"/>
          <path class="cls-2" d="M21.23,2.8c-.22-.2-.49-.36-.81-.48-.32-.11-.66-.17-1.04-.17s-.75.05-1.08.16c-.34.1-.63.26-.88.47s-.45.46-.6.77c-.15.3-.22.66-.22,1.07h1.49c0-.38.11-.66.34-.86.22-.2.52-.29.89-.29s.65.1.84.29c.19.2.28.42.28.68,0,.18-.05.34-.14.48-.1.13-.2.25-.31.35-.14.12-.28.24-.42.35-.14.11-.28.23-.42.36-.13.13-.25.29-.36.46-.1.17-.18.39-.24.64-.04.17-.06.36-.06.56v.56h1.43v-.32c0-.22.03-.4.09-.55.06-.15.14-.28.24-.4.1-.12.22-.22.35-.33.14-.1.28-.22.42-.34.27-.22.49-.48.66-.78s.25-.65.25-1.06c0-.32-.06-.61-.19-.89-.13-.28-.3-.52-.53-.72Z"/>
        </g>
        <g>
          <path class="cls-3" d="M19.28,12.59c-3.47,0-6.3-2.82-6.3-6.3S15.81,0,19.28,0s6.3,2.82,6.3,6.3-2.82,6.3-6.3,6.3ZM19.28.7c-3.08,0-5.59,2.51-5.59,5.59s2.51,5.59,5.59,5.59,5.59-2.51,5.59-5.59S22.36.7,19.28.7Z"/>
          <path class="cls-3" d="M19.44,10.79h-.45c-.51,0-.93-.42-.93-.93s.42-.93.93-.93h.45c.51,0,.93.42.93.93s-.42.93-.93.93ZM18.99,9.64c-.12,0-.23.1-.23.23s.1.23.23.23h.45c.12,0,.23-.1.23-.23s-.1-.23-.23-.23h-.45ZM19.94,8.55h-1.43c-.19,0-.35-.16-.35-.35v-.56c0-.23.02-.44.07-.64.06-.28.15-.54.28-.74.12-.2.26-.38.41-.53.14-.14.29-.28.45-.4.14-.1.27-.21.4-.33.09-.08.17-.18.25-.29.05-.07.08-.16.08-.28,0-.16-.06-.3-.19-.43-.12-.12-.31-.19-.58-.19-.28,0-.5.07-.66.21-.14.13-.22.32-.22.6,0,.19-.16.35-.35.35h-1.49c-.19,0-.35-.16-.35-.35,0-.46.09-.87.25-1.22.17-.35.4-.65.69-.89.29-.24.62-.42,1-.53.73-.23,1.63-.24,2.34.02.36.13.67.32.93.55.26.23.46.52.61.84.15.32.22.67.22,1.04,0,.47-.1.88-.3,1.23-.19.33-.44.62-.74.88-.15.13-.29.24-.43.35-.12.09-.22.18-.3.28-.07.09-.13.18-.18.3-.04.11-.06.25-.06.42v.32c0,.19-.16.35-.35.35ZM18.85,7.84h.73c0-.24.04-.46.11-.65.07-.19.18-.36.3-.5.11-.13.25-.26.4-.38.13-.1.27-.21.41-.33.24-.2.43-.43.58-.69.14-.24.21-.54.21-.88,0-.26-.05-.51-.16-.74-.11-.24-.25-.44-.44-.61-.19-.17-.42-.31-.69-.41-.57-.21-1.31-.19-1.9-.01-.29.09-.54.22-.76.4-.21.17-.38.39-.5.65-.08.17-.13.36-.16.57h.8c.06-.32.2-.58.42-.77.29-.25.67-.38,1.12-.38s.84.14,1.09.4c.25.26.38.57.38.92,0,.26-.07.49-.21.68-.11.15-.23.29-.35.41-.16.14-.3.26-.45.37-.13.1-.26.21-.38.33-.11.11-.22.25-.31.4-.08.14-.15.32-.19.53-.03.15-.05.31-.05.49v.21Z"/>
        </g>
      </g>
      <g>
        <g>
          <circle class="cls-4" cx="32.26" cy="14.02" r="5.94"/>
          <path class="cls-5" d="M32.79,8.1c-.17-.02-.35-.03-.53-.03-3.28,0-5.94,2.66-5.94,5.94s2.66,5.94,5.94,5.94c.18,0,.35-.01.53-.03-3.04-.27-5.42-2.81-5.42-5.92s2.38-5.65,5.42-5.92Z"/>
          <path class="cls-2" d="M32.42,17.01h-.45c-.32,0-.58.26-.58.58s.26.58.58.58h.45c.32,0,.58-.26.58-.58s-.26-.58-.58-.58Z"/>
          <path class="cls-2" d="M34.21,10.52c-.22-.2-.49-.36-.81-.48-.32-.11-.66-.17-1.04-.17s-.75.05-1.08.16c-.34.1-.63.26-.88.47s-.45.46-.6.77c-.15.3-.22.66-.22,1.07h1.49c0-.38.11-.66.34-.86.22-.2.52-.29.89-.29s.65.1.84.29c.19.2.28.42.28.68,0,.18-.05.34-.14.48-.1.13-.2.25-.31.35-.14.12-.28.24-.42.35-.14.11-.28.23-.42.36-.13.13-.25.29-.36.46-.1.17-.18.39-.24.64-.04.17-.06.36-.06.56v.56h1.43v-.32c0-.22.03-.4.09-.55.06-.15.14-.28.24-.4.1-.12.22-.22.35-.33.14-.1.28-.22.42-.34.27-.22.49-.48.66-.78s.25-.65.25-1.06c0-.32-.06-.61-.19-.89-.13-.28-.3-.52-.53-.72Z"/>
        </g>
        <g>
          <path class="cls-3" d="M32.26,20.31c-3.47,0-6.3-2.82-6.3-6.3s2.82-6.3,6.3-6.3,6.3,2.82,6.3,6.3-2.82,6.3-6.3,6.3ZM32.26,8.42c-3.08,0-5.59,2.51-5.59,5.59s2.51,5.59,5.59,5.59,5.59-2.51,5.59-5.59-2.51-5.59-5.59-5.59Z"/>
          <path class="cls-3" d="M32.42,18.51h-.45c-.51,0-.93-.42-.93-.93s.42-.93.93-.93h.45c.51,0,.93.42.93.93,0,.51-.42.93-.93.93ZM31.97,17.36c-.12,0-.23.1-.23.23s.1.23.23.23h.45c.12,0,.23-.1.23-.23s-.1-.23-.23-.23h-.45ZM32.92,16.27h-1.43c-.19,0-.35-.16-.35-.35v-.56c0-.23.02-.44.07-.64.06-.28.15-.54.28-.74.12-.2.26-.38.41-.53.14-.14.29-.27.45-.4.14-.1.27-.21.4-.33.09-.08.17-.18.25-.29.05-.07.08-.16.08-.28,0-.16-.06-.3-.19-.43-.12-.12-.31-.19-.58-.19-.28,0-.5.07-.66.21-.14.13-.22.32-.22.6,0,.19-.16.35-.35.35h-1.49c-.19,0-.35-.16-.35-.35,0-.46.09-.87.25-1.22.17-.35.4-.65.69-.89.29-.24.62-.42,1-.53.72-.23,1.63-.24,2.34.02.36.13.67.32.93.55.26.23.46.52.61.84.15.32.22.67.22,1.04,0,.47-.1.88-.3,1.23-.19.33-.44.62-.74.88-.15.13-.29.24-.43.35-.12.09-.22.18-.3.28-.07.09-.13.18-.18.3-.04.11-.06.25-.06.42v.32c0,.19-.16.35-.35.35ZM31.84,15.56h.73c0-.24.04-.46.11-.65.07-.19.18-.36.3-.5.11-.13.25-.26.4-.38.13-.1.27-.21.41-.33.24-.2.43-.43.58-.69.14-.24.21-.54.21-.88,0-.26-.05-.51-.16-.74-.11-.24-.25-.44-.44-.61-.19-.17-.42-.31-.69-.41-.57-.21-1.31-.19-1.9-.01-.29.09-.54.22-.76.4-.21.17-.38.39-.5.65-.08.17-.13.36-.16.57h.8c.06-.32.2-.58.42-.77.29-.25.67-.38,1.12-.38s.84.14,1.09.4c.25.26.38.57.38.92,0,.26-.07.49-.21.68-.11.15-.23.29-.35.41-.16.14-.3.26-.45.37-.13.1-.26.21-.38.33-.11.11-.22.25-.31.4-.08.14-.15.32-.19.53-.03.15-.05.31-.05.49v.21h0Z"/>
        </g>
      </g>
      <g>
        <g>
          <circle class="cls-4" cx="6.3" cy="14.02" r="5.94"/>
          <path class="cls-5" d="M6.82,8.1c-.17-.02-.35-.03-.53-.03C3.01,8.07.35,10.73.35,14.02s2.66,5.94,5.94,5.94c.18,0,.35-.01.53-.03-3.04-.27-5.42-2.81-5.42-5.92s2.38-5.65,5.42-5.92Z"/>
          <path class="cls-2" d="M6.46,17.01h-.45c-.32,0-.58.26-.58.58s.26.58.58.58h.45c.32,0,.58-.26.58-.58s-.26-.58-.58-.58Z"/>
          <path class="cls-2" d="M8.25,10.52c-.22-.2-.49-.36-.81-.48-.32-.11-.66-.17-1.04-.17s-.75.05-1.08.16c-.34.1-.63.26-.88.47s-.45.46-.6.77c-.15.3-.22.66-.22,1.07h1.49c0-.38.11-.66.34-.86.22-.2.52-.29.89-.29s.65.1.84.29c.19.2.28.42.28.68,0,.18-.05.34-.14.48-.1.13-.2.25-.31.35-.14.12-.28.24-.42.35-.14.11-.28.23-.42.36-.13.13-.25.29-.36.46-.1.17-.18.39-.24.64-.04.17-.06.36-.06.56v.56h1.43v-.32c0-.22.03-.4.09-.55.06-.15.14-.28.24-.4.1-.12.22-.22.35-.33.14-.1.28-.22.42-.34.27-.22.49-.48.66-.78s.25-.65.25-1.06c0-.32-.06-.61-.19-.89-.13-.28-.3-.52-.53-.72Z"/>
        </g>
        <g>
          <path class="cls-3" d="M6.3,20.31c-3.47,0-6.3-2.82-6.3-6.3s2.82-6.3,6.3-6.3,6.3,2.82,6.3,6.3-2.82,6.3-6.3,6.3ZM6.3,8.42c-3.08,0-5.59,2.51-5.59,5.59s2.51,5.59,5.59,5.59,5.59-2.51,5.59-5.59-2.51-5.59-5.59-5.59Z"/>
          <path class="cls-3" d="M6.46,18.51h-.45c-.51,0-.93-.42-.93-.93s.42-.93.93-.93h.45c.51,0,.93.42.93.93s-.42.93-.93.93ZM6.01,17.36c-.12,0-.23.1-.23.23s.1.23.23.23h.45c.12,0,.23-.1.23-.23s-.1-.23-.23-.23h-.45ZM6.95,16.27h-1.43c-.19,0-.35-.16-.35-.35v-.56c0-.23.02-.44.07-.64.06-.28.15-.54.28-.74.12-.2.26-.38.41-.53.14-.14.29-.28.45-.4.14-.1.27-.21.4-.33.09-.08.17-.18.25-.29.05-.07.08-.16.08-.28,0-.16-.06-.3-.19-.43-.12-.12-.32-.19-.58-.19-.28,0-.5.07-.66.21-.14.13-.22.32-.22.6,0,.19-.16.35-.35.35h-1.49c-.19,0-.35-.16-.35-.35,0-.46.09-.87.25-1.22.17-.35.4-.65.69-.89.29-.24.62-.42,1-.53.73-.23,1.63-.24,2.34.02.36.13.67.32.93.55.26.23.46.52.61.84.15.32.22.67.22,1.04,0,.47-.1.88-.3,1.23-.19.33-.44.62-.74.88-.15.13-.29.24-.43.35-.12.09-.22.18-.3.28-.07.09-.13.18-.18.3-.04.11-.06.25-.06.42v.32c0,.19-.16.35-.35.35ZM5.87,15.56h.73c0-.25.04-.46.11-.65.07-.19.17-.36.3-.5.11-.13.25-.26.4-.38.13-.1.27-.21.41-.33.24-.2.43-.43.58-.69.14-.24.21-.54.21-.88,0-.26-.05-.51-.16-.74-.11-.24-.25-.44-.44-.61-.19-.17-.42-.31-.69-.41-.57-.21-1.31-.19-1.9-.01-.29.09-.54.22-.76.4-.21.17-.38.39-.5.65-.08.17-.13.36-.16.57h.8c.06-.32.2-.58.42-.77.29-.25.67-.38,1.12-.38s.84.14,1.09.4c.25.26.38.57.38.92,0,.26-.07.49-.21.68-.11.15-.23.29-.35.41-.15.14-.3.26-.45.37-.13.1-.26.21-.38.33-.11.11-.22.25-.31.4-.08.14-.15.32-.19.53-.03.15-.05.31-.05.49v.21h0ZM8.71,13.19h0,0Z"/>
        </g>
      </g>
    </g>
  </g>
</svg>