<?xml version="1.0" encoding="UTF-8"?>
<svg id="Layer_2" xmlns="http://www.w3.org/2000/svg" xmlns:xlink="http://www.w3.org/1999/xlink" viewBox="0 0 40 40">
  <defs>
    <style>
      .cls-1 {
        fill: #78a0d4;
      }

      .cls-2 {
        fill: #f0ae42;
      }

      .cls-3 {
        fill: #5e87ca;
      }

      .cls-4 {
        fill: #f9d266;
      }

      .cls-5 {
        fill: #3b5892;
      }

      .cls-6 {
        fill: none;
      }

      .cls-7 {
        fill: #e2e7f6;
      }

      .cls-8 {
        fill: #4c6cb5;
      }

      .cls-9 {
        fill: #93bee5;
      }

      .cls-10 {
        fill: #f4a93c;
      }

      .cls-11 {
        clip-path: url(#clippath);
      }
    </style>
    <clipPath id="clippath">
      <rect class="cls-6" width="40" height="40"/>
    </clipPath>
  </defs>
  <g id="Layer_1-2" data-name="Layer_1">
    <g class="cls-11">
      <g>
        <path class="cls-8" d="M38.67,10.66c0,4.93-3.81,8.96-8.66,9.3-.07.01-.14.02-.22.02-.14.01-.3.01-.45.01s-.31,0-.45-.01c-.07,0-.14-.01-.22-.02-1.55-.1-2.99-.59-4.24-1.37-.18-.1-.34-.22-.51-.33-.17-.11-.32-.24-.48-.36-.31-.26-.6-.53-.88-.81-.25-.27-.49-.55-.71-.85-.71-.97-1.25-2.07-1.56-3.24-.08-.35-.16-.7-.2-1.05-.03-.23-.06-.45-.07-.69-.01-.2-.02-.39-.02-.59h0c0-.97.14-1.89.42-2.77.04-.16.09-.3.14-.43.16-.43.34-.85.56-1.24.22-.4.45-.79.73-1.15.27-.36.57-.7.88-1.01,1.68-1.68,4.02-2.73,6.59-2.73v9.33h9.33Z"/>
        <path class="cls-8" d="M29.34,19.79c-5.03,0-9.13-4.09-9.13-9.13S24.19,1.65,29.13,1.54v9.33h9.33c-.11,4.94-4.16,8.92-9.12,8.92Z"/>
        <rect class="cls-10" y="36" width="26.67" height="4"/>
        <rect class="cls-10" x=".21" y="36.21" width="26.25" height="3.59"/>
        <path class="cls-4" d="M24.67,36v.66c0,.73-.59,1.33-1.33,1.33H0v-1.99h24.67Z"/>
        <path class="cls-4" d="M.21,37.79v-1.59h24.25v.46c0,.62-.51,1.13-1.13,1.13H.21Z"/>
        <path class="cls-5" d="M1.34,36v-10h5.33v10H1.34Z"/>
        <polygon class="cls-5" points="6.88 25.79 6.88 36 6.46 36 6.46 26.21 1.54 26.21 1.54 36 1.13 36 1.13 25.79 6.88 25.79"/>
        <path class="cls-8" d="M4,32v-6H1.34v7.33h1.33c.74,0,1.33-.6,1.33-1.33Z"/>
        <path class="cls-8" d="M1.54,33.12v-6.92h2.25v5.79c0,.62-.51,1.13-1.13,1.13h-1.13Z"/>
        <path class="cls-8" d="M6.67,36v-14.67h5.33v14.67h-5.33Z"/>
        <polygon class="cls-8" points="12.21 21.12 12.21 36 11.8 36 11.8 21.53 6.88 21.53 6.88 36 6.46 36 6.46 21.12 12.21 21.12"/>
        <path class="cls-3" d="M9.34,32v-10.67h-2.67v12h1.33c.74,0,1.33-.6,1.33-1.33Z"/>
        <path class="cls-3" d="M6.88,33.12v-11.59h2.25v10.46c0,.62-.51,1.13-1.13,1.13h-1.13Z"/>
        <path class="cls-1" d="M17.34,36v-14.67h5.33v14.67h-5.33Z"/>
        <polygon class="cls-1" points="22.88 21.12 22.88 36 22.46 36 22.46 21.53 17.55 21.53 17.55 36 17.13 36 17.13 21.12 22.88 21.12"/>
        <path class="cls-9" d="M20,32v-10.67h-2.67v12h1.33c.74,0,1.33-.6,1.33-1.33Z"/>
        <path class="cls-9" d="M17.54,33.12v-11.59h2.25v10.46c0,.62-.51,1.13-1.13,1.13h-1.13Z"/>
        <rect class="cls-3" x="12.01" y="15.33" width="5.33" height="20.67"/>
        <polygon class="cls-3" points="17.55 21.12 17.55 36 17.13 36 17.13 15.54 12.21 15.54 12.21 36 11.8 36 11.8 21.12 12.01 21.12 12.01 15.33 17.34 15.33 17.34 21.12 17.55 21.12"/>
        <path class="cls-1" d="M14.67,15.33v16.67c0,.73-.6,1.33-1.33,1.33h-1.33V15.33h2.67Z"/>
        <path class="cls-1" d="M12.21,33.12V15.54h2.25v16.46c0,.62-.51,1.13-1.13,1.13h-1.13Z"/>
        <circle class="cls-2" cx="3.34" cy="17.33" r="1.33"/>
        <path class="cls-2" d="M3.34,18.46c-.62,0-1.13-.51-1.13-1.13s.51-1.13,1.13-1.13,1.13.51,1.13,1.13-.51,1.13-1.13,1.13Z"/>
        <circle class="cls-2" cx="8.67" cy="12" r="1.33"/>
        <path class="cls-2" d="M8.67,13.12c-.62,0-1.13-.51-1.13-1.13s.51-1.13,1.13-1.13,1.13.51,1.13,1.13-.51,1.13-1.13,1.13Z"/>
        <circle class="cls-2" cx="14.67" cy="5.33" r="1.33"/>
        <path class="cls-2" d="M14.67,6.46c-.62,0-1.13-.51-1.13-1.13s.51-1.13,1.13-1.13,1.13.51,1.13,1.13-.51,1.13-1.13,1.13Z"/>
        <path class="cls-2" d="M40,10.66h-10.66V0c.22,0,.43.01.66.02.05,0,.1.01.17.01.17.01.33.03.49.05.28.03.56.08.84.13.23.05.45.1.68.17.69.19,1.36.44,1.98.77.22.11.42.23.63.35,0,.01.01.02.02.04,3.11,1.85,5.2,5.24,5.2,9.12Z"/>
        <path class="cls-2" d="M29.54,10.46V.21c5.6.11,10.14,4.65,10.25,10.25h-10.25Z"/>
        <path class="cls-3" d="M36.25,10.66c-.02.07-.04.14-.07.21-.02.09-.04.18-.08.26-.01.07-.03.14-.07.21-1.03,2.95-3.25,5.25-6.01,6.44-.07.03-.14.06-.22.08-.3.12-.6.24-.91.32-.07.03-.14.05-.22.06-.86.25-1.76.39-2.69.41h-.03c-.09.01-.19.01-.28.01h-.17s-.02-.01-.02-.01c-.2.01-.38,0-.58-.02-.15-.01-.32-.02-.48-.04-.18-.1-.34-.22-.51-.33-.17-.11-.32-.24-.48-.36-.31-.26-.6-.53-.88-.81-.25-.27-.49-.55-.71-.85-.71-.97-1.25-2.07-1.56-3.24-.08-.35-.16-.7-.2-1.05-.03-.23-.06-.45-.07-.69-.01-.2-.02-.39-.02-.59h0c0-.97.14-1.89.42-2.77.04-.16.09-.3.14-.43.14-.42.34-.85.56-1.24.22-.4.45-.79.73-1.15.27-.36.56-.69.88-1.01,1.68-1.68,4.02-2.73,6.59-2.73v9.33h6.91Z"/>
        <path class="cls-3" d="M25.67,18.46c-.41,0-.82-.03-1.22-.07-2.62-1.65-4.24-4.55-4.24-7.73,0-4.96,3.99-9.01,8.92-9.11v9.33h6.84c-1.39,4.48-5.59,7.58-10.3,7.59Z"/>
        <path class="cls-4" d="M36.67,7.67c-.01.79-.09,1.57-.26,2.34-.01.07-.03.13-.05.21-.01.08-.03.17-.06.25-.01.07-.03.13-.05.21h-6.91V0c.22,0,.43.01.66.02.05,0,.1.01.17.01.17.01.33.03.49.05.28.03.56.08.84.13.23.05.45.1.68.17.68.19,1.35.45,1.98.77.22.11.42.23.63.35.09.12.18.26.25.39.11.18.22.35.31.54.08.13.15.27.22.4.73,1.5,1.12,3.14,1.12,4.83Z"/>
        <path class="cls-4" d="M29.54,10.46V.21c1.81.04,3.58.54,5.14,1.48,1.15,1.73,1.79,3.82,1.78,5.98,0,.95-.13,1.89-.38,2.79h-6.54Z"/>
        <path class="cls-7" d="M39.79,24.87v.92h-10.46c-.26,0-.45-.21-.45-.47v-5.34c-.07,0-.14-.01-.22-.02v-3.97h1.34v3.97c-.07.01-.14.02-.22.02v4.89h10Z"/>
        <path class="cls-7" d="M39.79,24.87v.92h-10.46c-.26,0-.45-.21-.45-.47v-9.12h.91v8.67h10Z"/>
        <rect class="cls-7" x="31.55" y="22.21" width="8.25" height=".92"/>
        <rect class="cls-7" x="31.55" y="22.21" width="8.25" height=".92"/>
        <path d="M22.88,36v-14.88h-5.54v-5.79h-5.33v5.79h-5.55v4.67H1.13v10.21H0v4h26.67v-4h-3.79ZM18,22h4v13.33h-4v-13.33ZM12.67,16h4v19.33h-4V16ZM7.34,22h4v13.33h-4v-13.33ZM2,26.66h4v8.67h-4v-8.67ZM.67,36.66h25.33v2.67H.67v-2.67Z"/>
        <path d="M22.88,36v-14.88h-5.54v-5.79h-5.33v5.79h-5.55v4.67H1.13v10.21H0v4h26.67v-4h-3.79ZM26.21,39.53H.47v-3.08h25.74v3.08ZM12.46,15.79h4.41v19.75h-4.41V15.79ZM17.79,21.79h4.41v13.74h-4.41v-13.74ZM7.13,21.79h4.41v13.74h-4.41v-13.74ZM1.8,26.45h4.41v9.08H1.8v-9.08Z"/>
        <path d="M16.36,4.72c-.25-.71-.93-1.19-1.68-1.19-.21,0-.4.03-.6.09-.45.17-.82.5-1.02.92-.21.43-.23.92-.07,1.37.19.52.58.91,1.1,1.1l.13.04v2.94c0,.85-.69,1.54-1.54,1.54h-2.27l-.04-.14c-.25-.71-.93-1.2-1.68-1.2-.2,0-.39.04-.59.1-.52.19-.91.58-1.1,1.1l-.04.14h-1.61c-1.35,0-2.46,1.1-2.46,2.46v1.6l-.13.04c-.93.33-1.42,1.35-1.1,2.28.26.71.93,1.2,1.69,1.2.98,0,1.79-.81,1.79-1.79,0-.75-.48-1.44-1.19-1.69l-.14-.04v-1.6c0-.86.69-1.54,1.54-1.54h1.61l.04.13c.25.71.93,1.2,1.68,1.2.2,0,.39-.04.59-.1.52-.18.91-.58,1.1-1.1l.05-.13h2.26c1.35,0,2.46-1.11,2.46-2.46v-2.94l.14-.04c.44-.17.81-.49,1.01-.92.21-.43.24-.92.07-1.37ZM3.34,18c-.37,0-.67-.3-.67-.67s.3-.66.67-.66.66.3.66.66-.29.67-.66.67ZM8.67,12.67c-.37,0-.67-.3-.67-.67s.3-.66.67-.66.67.29.67.66-.3.67-.67.67ZM14.67,5.99c-.37,0-.67-.29-.67-.66s.3-.67.67-.67.66.3.66.67-.3.66-.66.66Z"/>
        <path d="M16.36,4.72c-.25-.71-.93-1.19-1.68-1.19-.21,0-.4.03-.6.09-.45.17-.82.5-1.02.92-.21.43-.23.92-.07,1.37.19.52.58.91,1.1,1.1l.13.04v2.94c0,.85-.69,1.54-1.54,1.54h-2.27l-.04-.14c-.25-.71-.93-1.2-1.68-1.2-.2,0-.39.04-.59.1-.52.19-.91.58-1.1,1.1l-.04.14h-1.61c-1.35,0-2.46,1.1-2.46,2.46v1.6l-.13.04c-.93.33-1.42,1.35-1.1,2.28.26.71.93,1.2,1.69,1.2.98,0,1.79-.81,1.79-1.79,0-.75-.48-1.44-1.19-1.69l-.14-.04v-1.6c0-.86.69-1.54,1.54-1.54h1.61l.04.13c.25.71.93,1.2,1.68,1.2.2,0,.39-.04.59-.1.52-.18.91-.58,1.1-1.1l.05-.13h2.26c1.35,0,2.46-1.11,2.46-2.46v-2.94l.14-.04c.44-.17.81-.49,1.01-.92.21-.43.24-.92.07-1.37ZM3.34,18.21c-.49,0-.88-.39-.88-.88s.39-.87.88-.87.87.39.87.87-.39.88-.87.88ZM8.67,12.88c-.49,0-.88-.39-.88-.88s.39-.87.88-.87.88.39.88.87-.39.88-.88.88ZM14.67,6.21c-.49,0-.88-.39-.88-.88s.39-.88.88-.88.87.39.87.88-.39.88-.87.88Z"/>
        <path d="M29.79,19.98c.07,0,.14-.01.22-.02,4.85-.34,8.66-4.37,8.66-9.3h1.33c0-3.89-2.09-7.26-5.2-9.12-.01-.01-.01-.02-.02-.03-.21-.12-.41-.24-.63-.35-.1-.05-.22-.1-.32-.16-.05-.03-.1-.05-.15-.07-.03-.02-.06-.03-.08-.04-.04-.02-.08-.03-.11-.05-.03-.01-.06-.03-.08-.03-.07-.03-.14-.06-.22-.08-.17-.07-.33-.13-.5-.19-.18-.06-.34-.11-.52-.16-.23-.06-.45-.11-.68-.17-.28-.05-.56-.1-.84-.13-.15-.02-.32-.04-.49-.05-.06,0-.11-.01-.17-.01-.23-.01-.44-.02-.66-.02v1.33c-2.57,0-4.91,1.04-6.59,2.73-.31.31-.61.65-.88,1.01-.28.36-.52.74-.73,1.15-.22.39-.41.82-.56,1.24-.05.13-.1.28-.14.43-.28.88-.42,1.8-.42,2.76h0c0,.21.01.4.02.6.01.24.04.47.07.69.04.35.11.7.2,1.05.31,1.18.85,2.27,1.56,3.24.23.3.46.58.71.85.28.28.57.55.88.81.16.12.31.25.48.36.17.11.33.23.51.33,1.25.79,2.69,1.27,4.24,1.37.07.01.14.02.22.02v5.34c0,.26.2.47.45.47h10.46v-.92h-10v-4.89ZM30.01,10V.68c1.94.13,3.71.82,5.19,1.89,0,0,.01,0,.01.01.12.08.24.17.35.26,2.14,1.69,3.56,4.26,3.76,7.16h-9.31ZM25.95,18.65c-.14-.06-.28-.13-.42-.2h-.01s-.01-.01-.01-.01c-3.08-1.52-5.09-4.8-4.82-8.43.32-4.27,3.72-7.66,7.98-7.98v8.63c0,.37.3.67.67.67h8.63c-.33,4.25-3.71,7.63-7.96,7.97v-3.31h-1.34v3.31c-.95-.07-1.85-.3-2.69-.65h-.03Z"/>
        <path d="M29.79,19.98c.07,0,.14-.01.22-.02,4.85-.34,8.66-4.37,8.66-9.3h1.33c0-3.89-2.09-7.26-5.2-9.12-.01-.01-.01-.02-.02-.03-.21-.12-.41-.24-.63-.35-.1-.05-.22-.1-.32-.16-.05-.03-.1-.05-.15-.07-.03-.02-.06-.03-.08-.04-.04-.02-.08-.03-.11-.05-.03-.01-.06-.03-.08-.03-.07-.03-.14-.06-.22-.08-.17-.07-.33-.13-.5-.19-.18-.06-.34-.11-.52-.16-.23-.06-.45-.11-.68-.17-.28-.05-.56-.1-.84-.13-.15-.02-.32-.04-.49-.05-.06,0-.11-.01-.17-.01-.23-.01-.44-.02-.66-.02v1.33c-2.57,0-4.91,1.04-6.59,2.73-.31.31-.61.65-.88,1.01-.28.36-.52.74-.73,1.15-.22.39-.41.82-.56,1.24-.05.13-.1.28-.14.43-.28.88-.42,1.8-.42,2.76h0c0,.21.01.4.02.6.01.24.04.47.07.69.04.35.11.7.2,1.05.31,1.18.85,2.27,1.56,3.24.23.3.46.58.71.85.28.28.57.55.88.81.16.12.31.25.48.36.17.11.33.23.51.33,1.25.79,2.69,1.27,4.24,1.37.07.01.14.02.22.02v5.34c0,.26.2.47.45.47h10.46v-.92h-10v-4.89ZM25.51,18.66h-.01s-.02-.01-.02-.01c-.14-.06-.28-.13-.42-.22-.92-.5-1.75-1.17-2.46-1.99-1.54-1.8-2.29-4.08-2.12-6.45.34-4.4,3.77-7.83,8.17-8.16l.23-.02v8.86c0,.26.2.47.45.47h8.86l-.02.22c-.34,4.38-3.77,7.81-8.15,8.15h-.01l-.22.02v-3.32h-.91v3.32l-.22-.02h-.01c-1.12-.08-2.16-.37-3.14-.84ZM29.79.47l.23.02c1.83.12,3.52.73,4.97,1.71.12.07.24.16.35.25,2.37,1.73,3.97,4.45,4.18,7.54v.23s-9.73,0-9.73,0V.47Z"/>
        <rect x="31.55" y="22.21" width="8.25" height=".92"/>
        <rect x="31.55" y="22.21" width="8.25" height=".92"/>
      </g>
    </g>
  </g>
</svg>