<?xml version="1.0" encoding="UTF-8"?>
<svg id="Layer_2" xmlns="http://www.w3.org/2000/svg" xmlns:xlink="http://www.w3.org/1999/xlink" viewBox="0 0 40 40">
  <defs>
    <style>
      .cls-1 {
        fill: #fd715c;
      }

      .cls-2 {
        fill: #cdd6df;
      }

      .cls-3 {
        fill: #5abfe9;
      }

      .cls-4 {
        fill: none;
      }

      .cls-5 {
        fill: #88dbfd;
      }

      .cls-6 {
        clip-path: url(#clippath-1);
      }

      .cls-7 {
        fill: #f2f2f2;
      }

      .cls-8 {
        fill: #426175;
      }

      .cls-9 {
        clip-path: url(#clippath);
      }
    </style>
    <clipPath id="clippath">
      <rect class="cls-4" width="40" height="40"/>
    </clipPath>
    <clipPath id="clippath-1">
      <rect class="cls-4" width="40" height="40"/>
    </clipPath>
  </defs>
  <g id="Layer_1-2" data-name="Layer_1">
    <g class="cls-9">
      <g id="g3333">
        <g id="g3335">
          <g id="path3337">
            <path d="M30.64,34.55h-6.3c-.16,0-.29-.13-.29-.29s.13-.29.29-.29h6.3c.16,0,.29.13.29.29s-.13.29-.29.29Z"/>
          </g>
        </g>
        <g id="g3339">
          <g id="path3341">
            <path d="M15.68,34.55h-6.29c-.16,0-.29-.13-.29-.29s.13-.29.29-.29h6.29c.16,0,.29.13.29.29s-.13.29-.29.29Z"/>
          </g>
        </g>
        <g id="g3343">
          <g id="path3345">
            <path d="M20,30.93c-.16,0-.29-.13-.29-.29v-3.78c0-.16.13-.29.29-.29s.29.13.29.29v3.78c0,.16-.13.29-.29.29Z"/>
          </g>
        </g>
        <g id="g3347">
          <g class="cls-6">
            <g id="g3349">
              <g id="g3355">
                <g id="path3357">
                  <path class="cls-2" d="M24.39,35.03c0,2.42-1.96,4.39-4.39,4.39s-4.39-1.96-4.39-4.39,1.96-4.39,4.39-4.39,4.39,1.96,4.39,4.39"/>
                </g>
              </g>
              <g id="g3359">
                <g id="path3361">
                  <path class="cls-8" d="M20,35.78h0c-1.49,0-2.7,1.2-2.71,2.69.75.59,1.69.94,2.71.94s1.97-.35,2.71-.94c-.01-1.49-1.22-2.69-2.71-2.69"/>
                </g>
              </g>
              <g id="g3363">
                <g id="path3365">
                  <path class="cls-8" d="M21.52,34.26c0,.84-.68,1.52-1.52,1.52s-1.52-.68-1.52-1.52.68-1.52,1.52-1.52,1.52.68,1.52,1.52"/>
                </g>
              </g>
              <g id="g3367">
                <g id="path3369">
                  <path class="cls-2" d="M39.35,35.03c0,2.42-1.96,4.39-4.39,4.39s-4.39-1.96-4.39-4.39,1.96-4.39,4.39-4.39,4.39,1.96,4.39,4.39"/>
                </g>
              </g>
              <g id="g3371">
                <g id="path3373">
                  <path class="cls-8" d="M34.96,35.78h0c-1.49,0-2.7,1.2-2.71,2.69.75.59,1.69.94,2.71.94s1.97-.35,2.71-.94c-.01-1.49-1.22-2.69-2.71-2.69"/>
                </g>
              </g>
              <g id="g3375">
                <g id="path3377">
                  <path class="cls-8" d="M36.48,34.26c0,.84-.68,1.52-1.52,1.52s-1.52-.68-1.52-1.52.68-1.52,1.52-1.52,1.52.68,1.52,1.52"/>
                </g>
              </g>
              <g id="g3379">
                <g id="path3381">
                  <path class="cls-2" d="M9.43,35.06c-.02,2.42-2,4.37-4.42,4.35-2.42-.02-4.37-2-4.35-4.42.02-2.42,2-4.37,4.42-4.35,2.42.02,4.37,2,4.35,4.42"/>
                </g>
              </g>
              <g id="g3383">
                <g id="path3385">
                  <path class="cls-8" d="M5.03,35.78h0c-1.49-.01-2.71,1.18-2.74,2.67.74.59,1.68.95,2.71.96,1.02,0,1.97-.34,2.72-.92,0-1.49-1.2-2.7-2.69-2.71"/>
                </g>
              </g>
              <g id="g3387">
                <g id="path3389">
                  <path class="cls-8" d="M6.56,34.27c0,.84-.69,1.51-1.53,1.51-.84,0-1.51-.69-1.51-1.53,0-.84.69-1.51,1.53-1.51.84,0,1.51.69,1.51,1.53"/>
                </g>
              </g>
              <g id="g3391">
                <g id="path3393">
                  <path class="cls-5" d="M29.28,9c-.28,0-.56.02-.83.05-.02-4.67-3.81-8.46-8.49-8.46-3.31,0-6.18,1.9-7.58,4.67-4.87.11-8.78,4.09-8.78,8.98s4.02,8.98,8.98,8.98h16.7c3.93,0,7.11-3.18,7.11-7.11s-3.18-7.11-7.11-7.11"/>
                </g>
              </g>
              <g id="g3395">
                <g id="path3397">
                  <path class="cls-3" d="M29.28,9c-.28,0-.56.02-.83.05-.02-4.67-3.81-8.46-8.49-8.46-1.89,0-3.63.62-5.04,1.66.23-.02.45-.03.68-.03,4.68,0,8.47,3.78,8.49,8.46.27-.03.55-.05.83-.05,3.93,0,7.11,3.18,7.11,7.11,0,2.2-1,4.17-2.57,5.48,3.85-.1,6.93-3.24,6.93-7.11,0-3.93-3.18-7.11-7.11-7.11"/>
                </g>
              </g>
              <g id="g3399">
                <g id="path3401">
                  <path class="cls-7" d="M27.21,16.33h-14.42c-.54,0-.97-.43-.97-.97v-3.33c0-.54.43-.97.97-.97h14.42c.54,0,.97.43.97.97v3.33c0,.54-.43.97-.97.97"/>
                </g>
              </g>
              <g id="g3403">
                <g id="path3405">
                  <path class="cls-2" d="M27.21,11.06h-3.39v3.03c0,.54-.43.97-.97.97h-11.03v.3c0,.54.43.97.97.97h14.42c.54,0,.97-.43.97-.97v-3.33c0-.54-.43-.97-.97-.97"/>
                </g>
              </g>
              <g id="g3407">
                <g id="path3409">
                  <path class="cls-7" d="M27.21,21.59h-14.42c-.54,0-.97-.43-.97-.97v-3.33c0-.54.43-.97.97-.97h14.42c.54,0,.97.43.97.97v3.33c0,.54-.43.97-.97.97"/>
                </g>
              </g>
              <g id="g3411">
                <g id="path3413">
                  <path class="cls-2" d="M27.21,16.33h-3.39v3.03c0,.54-.43.97-.97.97h-11.03v.3c0,.54.43.97.97.97h14.42c.54,0,.97-.43.97-.97v-3.33c0-.54-.43-.97-.97-.97"/>
                </g>
              </g>
              <g id="g3415">
                <g id="path3417">
                  <path class="cls-7" d="M27.21,26.86h-14.42c-.54,0-.97-.43-.97-.97v-3.33c0-.54.43-.97.97-.97h14.42c.54,0,.97.43.97.97v3.33c0,.54-.43.97-.97.97"/>
                </g>
              </g>
              <g id="g3419">
                <g id="path3421">
                  <path class="cls-2" d="M27.21,21.59h-3.39v3.03c0,.54-.43.97-.97.97h-11.03v.3c0,.54.43.97.97.97h14.42c.54,0,.97-.43.97-.97v-3.33c0-.54-.43-.97-.97-.97"/>
                </g>
              </g>
              <g id="g3423">
                <g id="path3425">
                  <path class="cls-1" d="M15.12,13.54c0,.39-.32.71-.71.71s-.71-.32-.71-.71.32-.71.71-.71.71.32.71.71"/>
                </g>
              </g>
              <g id="g3427">
                <g id="path3429">
                  <path class="cls-1" d="M17.93,13.54c0,.39-.32.71-.71.71s-.71-.32-.71-.71.32-.71.71-.71.71.32.71.71"/>
                </g>
              </g>
              <g id="g3431">
                <g id="path3433">
                  <path class="cls-1" d="M15.12,18.96c0,.39-.32.71-.71.71s-.71-.32-.71-.71.32-.71.71-.71.71.32.71.71"/>
                </g>
              </g>
              <g id="g3435">
                <g id="path3437">
                  <path class="cls-1" d="M17.93,18.96c0,.39-.32.71-.71.71s-.71-.32-.71-.71.32-.71.71-.71.71.32.71.71"/>
                </g>
              </g>
              <g id="g3439">
                <g id="path3441">
                  <path class="cls-1" d="M15.12,24.23c0,.39-.32.71-.71.71s-.71-.32-.71-.71.32-.71.71-.71.71.32.71.71"/>
                </g>
              </g>
              <g id="g3443">
                <g id="path3445">
                  <path class="cls-1" d="M17.93,24.23c0,.39-.32.71-.71.71s-.71-.32-.71-.71.32-.71.71-.71.71.32.71.71"/>
                </g>
              </g>
              <g id="g3447">
                <g id="path3449">
                  <path d="M27.21,16.62h-14.42c-.7,0-1.26-.57-1.26-1.26v-3.33c0-.7.57-1.26,1.26-1.26h14.42c.7,0,1.26.57,1.26,1.26v3.33c0,.7-.57,1.26-1.26,1.26ZM12.79,11.35c-.37,0-.68.3-.68.68v3.33c0,.37.3.68.68.68h14.42c.37,0,.68-.3.68-.68v-3.33c0-.37-.3-.68-.68-.68h-14.42Z"/>
                </g>
              </g>
              <g id="g3451">
                <g id="path3453">
                  <path d="M27.21,21.89h-14.42c-.7,0-1.26-.57-1.26-1.26v-3.33c0-.7.57-1.26,1.26-1.26h14.42c.7,0,1.26.57,1.26,1.26v3.33c0,.7-.57,1.26-1.26,1.26ZM12.79,16.62c-.37,0-.68.3-.68.68v3.33c0,.37.3.68.68.68h14.42c.37,0,.68-.3.68-.68v-3.33c0-.37-.3-.68-.68-.68h-14.42Z"/>
                </g>
              </g>
              <g id="g3455">
                <g id="path3457">
                  <path d="M27.21,27.16h-14.42c-.7,0-1.26-.57-1.26-1.26v-3.33c0-.7.57-1.26,1.26-1.26h14.42c.7,0,1.26.57,1.26,1.26v3.33c0,.7-.57,1.26-1.26,1.26ZM12.79,21.89c-.37,0-.68.3-.68.68v3.33c0,.37.3.68.68.68h14.42c.37,0,.68-.3.68-.68v-3.33c0-.37-.3-.68-.68-.68h-14.42Z"/>
                </g>
              </g>
              <g id="g3459">
                <g id="path3461">
                  <path d="M30.62,23.39c-.14,0-.26-.1-.29-.24-.03-.16.07-.31.23-.34,3.21-.61,5.54-3.43,5.54-6.7,0-3.76-3.06-6.82-6.82-6.82-.26,0-.53.02-.8.05-.08,0-.17-.02-.23-.07-.06-.06-.1-.13-.1-.22-.01-4.5-3.69-8.17-8.19-8.17-3.11,0-5.92,1.73-7.32,4.51-.05.1-.15.16-.26.16-4.69.1-8.5,4-8.5,8.69,0,3.59,2.25,6.85,5.6,8.13.15.06.23.23.17.38s-.23.23-.38.17c-1.74-.66-3.23-1.82-4.3-3.35-1.1-1.56-1.68-3.41-1.68-5.32,0-2.44.94-4.75,2.65-6.49,1.67-1.7,3.88-2.68,6.25-2.78.72-1.36,1.79-2.51,3.1-3.33,1.4-.88,3.01-1.34,4.67-1.34,2.34,0,4.54.91,6.2,2.56,1.58,1.58,2.49,3.65,2.57,5.87.18-.01.36-.02.54-.02,4.08,0,7.41,3.32,7.41,7.41,0,3.55-2.53,6.61-6.01,7.27-.02,0-.04,0-.06,0Z"/>
                </g>
              </g>
              <g id="g3463">
                <g id="path3465">
                  <path d="M20,39.71c-2.58,0-4.68-2.1-4.68-4.68s2.1-4.68,4.68-4.68,4.68,2.1,4.68,4.68-2.1,4.68-4.68,4.68ZM20,30.93c-2.26,0-4.09,1.84-4.09,4.09s1.84,4.09,4.09,4.09,4.09-1.84,4.09-4.09-1.84-4.09-4.09-4.09Z"/>
                </g>
              </g>
              <g id="g3467">
                <g id="path3469">
                  <path d="M34.96,39.71c-2.58,0-4.68-2.1-4.68-4.68s2.1-4.68,4.68-4.68,4.68,2.1,4.68,4.68-2.1,4.68-4.68,4.68ZM34.96,30.93c-2.26,0-4.09,1.84-4.09,4.09s1.84,4.09,4.09,4.09,4.09-1.84,4.09-4.09-1.84-4.09-4.09-4.09Z"/>
                </g>
              </g>
              <g id="g3471">
                <g id="path3473">
                  <path d="M5.04,39.71s-.03,0-.04,0c-1.25,0-2.42-.51-3.3-1.4-.88-.89-1.35-2.07-1.34-3.32.02-2.57,2.12-4.64,4.68-4.64.01,0,.02,0,.04,0,1.25,0,2.42.51,3.3,1.4.88.89,1.35,2.07,1.34,3.32s-.51,2.42-1.4,3.3c-.88.87-2.05,1.34-3.28,1.34ZM5.04,30.93c-2.24,0-4.08,1.82-4.09,4.06,0,1.09.41,2.13,1.18,2.9.77.78,1.79,1.21,2.89,1.22.01,0,.02,0,.03,0,1.08,0,2.1-.42,2.87-1.18.78-.77,1.21-1.79,1.22-2.89h0c0-1.09-.41-2.13-1.18-2.9-.77-.78-1.79-1.21-2.89-1.22-.01,0-.02,0-.03,0Z"/>
                </g>
              </g>
              <g id="g3475">
                <g id="path3477">
                  <path d="M22.71,39.06c-.32,0-.58-.26-.59-.58,0-1.16-.96-2.11-2.13-2.11s-2.12.95-2.13,2.11c0,.32-.26.58-.59.58h0c-.32,0-.58-.27-.58-.59.01-1.81,1.49-3.27,3.3-3.27s3.29,1.47,3.3,3.27c0,.32-.26.59-.58.59h0Z"/>
                </g>
              </g>
              <g id="g3479">
                <g id="path3481">
                  <path d="M20,36.37c-1.16,0-2.1-.94-2.1-2.1s.94-2.11,2.1-2.11,2.11.94,2.11,2.11-.94,2.1-2.11,2.1ZM20,33.33c-.51,0-.93.42-.93.93s.42.93.93.93.93-.42.93-.93-.42-.93-.93-.93Z"/>
                </g>
              </g>
              <g id="g3483">
                <g id="path3485">
                  <path d="M37.68,39.06c-.32,0-.58-.26-.59-.58,0-1.16-.96-2.11-2.13-2.11s-2.12.95-2.13,2.11c0,.32-.26.58-.59.58h0c-.32,0-.58-.27-.58-.59.01-1.81,1.49-3.27,3.3-3.27s3.29,1.47,3.3,3.27c0,.32-.26.59-.58.59h0Z"/>
                </g>
              </g>
              <g id="g3487">
                <g id="path3489">
                  <path d="M34.96,36.37c-1.16,0-2.1-.94-2.1-2.1s.94-2.11,2.1-2.11,2.1.94,2.1,2.11-.94,2.1-2.1,2.1ZM34.96,33.33c-.51,0-.93.42-.93.93s.42.93.93.93.93-.42.93-.93-.42-.93-.93-.93Z"/>
                </g>
              </g>
              <g id="g3491">
                <g id="path3493">
                  <path d="M7.73,39.08c-.32,0-.59-.26-.59-.59,0-1.16-.95-2.12-2.11-2.13,0,0-.01,0-.02,0-1.16,0-2.11.94-2.13,2.09,0,.32-.27.58-.6.58-.32,0-.58-.27-.58-.6.03-1.8,1.51-3.25,3.3-3.25,0,0,.02,0,.03,0,1.81.01,3.27,1.49,3.27,3.3,0,.32-.26.59-.59.59Z"/>
                </g>
              </g>
              <g id="g3495">
                <g id="path3497">
                  <path d="M5.04,36.37s-.01,0-.02,0c-1.16,0-2.1-.96-2.09-2.12,0-1.16.95-2.09,2.1-2.09,0,0,.01,0,.02,0,1.16,0,2.1.96,2.09,2.12,0,1.16-.95,2.09-2.1,2.09ZM5.04,33.33c-.51,0-.93.41-.93.93,0,.51.41.94.93.94,0,0,0,0,0,0,.25,0,.48-.1.65-.27.18-.17.28-.41.28-.66,0-.51-.41-.94-.93-.94,0,0,0,0,0,0Z"/>
                </g>
              </g>
            </g>
          </g>
        </g>
      </g>
    </g>
  </g>
</svg>