<?xml version="1.0" encoding="UTF-8"?>
<svg id="Layer_2" xmlns="http://www.w3.org/2000/svg" xmlns:xlink="http://www.w3.org/1999/xlink" viewBox="0 0 40 40">
  <defs>
    <style>
      .cls-1 {
        fill: none;
      }

      .cls-2 {
        fill: #282828;
      }

      .cls-3 {
        clip-path: url(#clippath);
      }

      .cls-4 {
        fill: #ffd859;
        fill-rule: evenodd;
      }
    </style>
    <clipPath id="clippath">
      <rect class="cls-1" width="40" height="40"/>
    </clipPath>
  </defs>
  <g id="Layer_1-2" data-name="Layer_1">
    <g class="cls-3">
      <g>
        <path class="cls-4" d="M37.92,27.64c0,2.84-2.3,5.14-5.14,5.14s-5.14-2.3-5.14-5.14c0-2.84,2.3-5.14,5.14-5.14,2.84,0,5.14,2.3,5.14,5.14h0Z"/>
        <path class="cls-4" d="M35.48,19.04c0,.81-.09,1.61-.25,2.4-3.43-1.35-7.31.34-8.66,3.77-.62,1.58-.62,3.34,0,4.92-6.12,1.35-12.17-2.52-13.52-8.64s2.52-12.17,8.64-13.52c6.12-1.35,12.17,2.52,13.52,8.64.18.8.27,1.62.27,2.44Z"/>
        <path class="cls-2" d="M26.5,32.19c.04.3-.17.58-.47.62,0,0,0,0,0,0-4.06.56-8.17-.71-11.21-3.46H6.71c-.3,0-.55-.24-.55-.55s.24-.55.55-.55h7.03c-.59-.67-1.12-1.39-1.58-2.16h-7.46c-.3,0-.55-.24-.55-.55s.24-.55.55-.55h6.88c-.81-1.7-1.26-3.54-1.33-5.42h-5.34c-.3,0-.55-.24-.55-.55s.24-.55.55-.55h5.34c.03-.73.11-1.45.25-2.16h-2.44c-.3,0-.55-.24-.55-.55s.24-.55.55-.55h2.7c.57-2.01,1.59-3.86,2.98-5.42h-6.18c-.3,0-.55-.24-.55-.55s.24-.55.55-.55h7.27c2.55-2.31,5.87-3.59,9.31-3.59,7.67,0,13.9,6.24,13.9,13.9,0,.62-.04,1.23-.12,1.84-.04.3-.32.51-.61.47s-.51-.32-.47-.61h0c.08-.56.11-1.13.11-1.7,0-7.06-5.75-12.81-12.81-12.81s-12.81,5.75-12.81,12.81,5.75,12.81,12.81,12.81c.59,0,1.17-.04,1.75-.12.3-.04.58.17.62.47h0ZM28.63,10.16l-.68,1.18c-.15.26-.06.6.2.75s.6.06.75-.2l.68-1.18c.15-.26.06-.6-.2-.75s-.6-.06-.75.2h0ZM33.22,13.8c-.15-.26-.48-.35-.75-.2,0,0,0,0,0,0l-1.18.68c-.26.15-.35.49-.2.75s.49.35.75.2h0l1.18-.68c.26-.15.35-.48.2-.75,0,0,0,0,0,0h0ZM32.71,19.58h1.37c.3,0,.55-.24.55-.55s-.24-.55-.55-.55h-1.37c-.3,0-.55.24-.55.55s.24.55.55.55h0ZM23.59,27.61v1.37c0,.3.24.55.55.55s.55-.24.55-.55v-1.37c0-.3-.24-.55-.55-.55s-.55.24-.55.55ZM18.89,28.12c.26.15.6.06.75-.2,0,0,0,0,0,0l.68-1.18c.15-.26.06-.6-.2-.75-.26-.15-.6-.06-.75.2l-.68,1.18c-.15.26-.06.6.2.75,0,0,0,0,0,0ZM15.53,24.55c.1,0,.19-.03.27-.07l1.18-.68c.26-.15.35-.49.2-.75-.15-.26-.49-.35-.75-.2l-1.18.68c-.26.15-.35.49-.2.75.1.17.28.27.47.27h0ZM16.11,19.04c0-.3-.24-.55-.55-.55h-1.37c-.3,0-.55.24-.55.55s.24.55.55.55h1.37c.3,0,.55-.24.55-.55h0s0,0,0,0ZM16.99,14.28l-1.18-.68c-.26-.15-.6-.06-.75.2-.15.26-.06.6.2.75l1.18.68c.26.15.6.06.75-.2.15-.26.06-.6-.2-.75h0ZM19.85,12.16c.3,0,.55-.25.55-.55,0-.1-.03-.19-.07-.27l-.68-1.19c-.15-.26-.49-.35-.75-.2s-.35.49-.2.75l.68,1.18c.1.17.28.27.47.27h0ZM24.14,11.01c.3,0,.55-.24.55-.55v-1.37c0-.3-.24-.55-.55-.55s-.55.24-.55.55v1.37c0,.3.24.55.55.55h0,0ZM24.14,20.49c-.07,0-.13,0-.2-.02l-1.54,2.66c-.15.26-.49.35-.75.2s-.35-.49-.2-.75l1.54-2.66c-.49-.63-.38-1.54.25-2.03.11-.08.22-.15.35-.2v-5.35c0-.3.24-.55.55-.55s.55.24.55.55v5.35c.74.3,1.1,1.15.8,1.89-.22.55-.75.91-1.35.91h0ZM24.5,19.04c0-.2-.16-.36-.36-.36-.2,0-.36.16-.36.36s.16.36.36.36c.2,0,.36-.16.36-.36h0ZM3.55,15.24c-.3,0-.55.24-.55.55s.24.55.55.55h2.94c.3,0,.55-.24.55-.55s-.24-.55-.55-.55h-2.94ZM1.95,13.07h7.25c.3,0,.55-.24.55-.55s-.24-.55-.55-.55H1.95c-.3,0-.55.24-.55.55s.24.55.55.55ZM3.88,19.04c0-.3-.24-.55-.55-.55H.55c-.3,0-.55.24-.55.55s.24.55.55.55h2.79c.3,0,.55-.24.55-.55h0ZM4.5,9.82h1.48c.3,0,.55-.24.55-.55s-.24-.55-.55-.55h-1.48c-.3,0-.55.24-.55.55s.24.55.55.55ZM1.5,22.29c0,.3.24.55.55.55h7.15c.3,0,.55-.24.55-.55s-.24-.55-.55-.55H2.05c-.3,0-.55.24-.55.55h0s0,0,0,0ZM5.14,28.26H1.95c-.3,0-.55.24-.55.55s.24.55.55.55h3.19c.3,0,.55-.24.55-.55s-.24-.55-.55-.55ZM40,27.64c0,3.99-3.23,7.22-7.22,7.22-3.99,0-7.22-3.23-7.22-7.22,0-3.99,3.23-7.22,7.22-7.22,3.99,0,7.22,3.24,7.22,7.22h0ZM38.91,27.64c0-3.38-2.74-6.13-6.13-6.13-3.38,0-6.13,2.74-6.13,6.13,0,3.38,2.74,6.13,6.13,6.13h0c3.38,0,6.12-2.75,6.13-6.13h0ZM37.16,26.17l-4.91,4.91c-.54.54-1.43.54-1.97,0l-1.88-1.88c-.55-.54-.55-1.42-.01-1.97.54-.55,1.42-.55,1.97-.01,0,0,0,0,.01.01l.9.9,3.92-3.93c.55-.54,1.43-.54,1.97,0,.54.54.54,1.42,0,1.97h0ZM36.39,24.98c-.12-.12-.31-.12-.43,0l-4.31,4.31c-.1.1-.24.16-.39.16-.15,0-.28-.06-.39-.16l-1.28-1.28c-.12-.12-.31-.12-.42,0s-.12.31,0,.42l1.88,1.88c.12.12.31.12.42,0l4.91-4.91c.12-.12.12-.31,0-.42h0Z"/>
      </g>
    </g>
  </g>
</svg>