<?xml version="1.0" encoding="UTF-8"?>
<svg id="Layer_2" xmlns="http://www.w3.org/2000/svg" xmlns:xlink="http://www.w3.org/1999/xlink" viewBox="0 0 40 40">
  <defs>
    <style>
      .cls-1 {
        fill: #4cb799;
      }

      .cls-2 {
        fill: #fccd3a;
      }

      .cls-3 {
        fill: none;
      }

      .cls-4 {
        fill: #373737;
      }

      .cls-5 {
        fill: #cfd2da;
      }

      .cls-6 {
        fill: #4e98ec;
      }

      .cls-7 {
        clip-path: url(#clippath);
      }
    </style>
    <clipPath id="clippath">
      <rect class="cls-3" width="40" height="40"/>
    </clipPath>
  </defs>
  <g id="Layer_1-2" data-name="Layer_1">
    <g class="cls-7">
      <g>
        <path class="cls-5" d="M.67,6v-3.33c0-1.1.9-2,2-2h18.67c1.1,0,2,.9,2,2v3.33l-1.33,1.33H1.33l-.67-1.33Z"/>
        <path class="cls-5" d="M.67,28.67v3.33c0,1.1.9,2,2,2h18.67c1.1,0,2-.9,2-2v-3.33l-1.33-.67H1.33l-.67.67Z"/>
        <path class="cls-6" d="M.67,6h22.67v22.67H.67V6Z"/>
        <circle class="cls-1" cx="30.66" cy="30.67" r="8.67"/>
        <circle class="cls-2" cx="12" cy="17.34" r="8"/>
        <g>
          <path class="cls-4" d="M30.66,21.34c-2.51,0-4.92,1.01-6.67,2.81V2.67C24,1.2,22.8,0,21.33,0H2.67C1.19,0,0,1.2,0,2.67v3.33c0,.37.3.67.67.67h22v19.22c-.4.66-.72,1.37-.94,2.12H1.33V10c0-.37-.3-.67-.67-.67s-.67.3-.67.67v22c0,1.47,1.19,2.67,2.67,2.67h18.67c.29,0,.57-.05.85-.14,2.13,4.69,7.67,6.76,12.35,4.63,4.69-2.13,6.76-7.67,4.63-12.35-1.52-3.33-4.84-5.47-8.5-5.46ZM1.33,5.34v-2.67c0-.74.6-1.33,1.33-1.33h18.67c.74,0,1.33.6,1.33,1.33v2.67H1.33ZM21.33,33.34H2.67c-.74,0-1.33-.6-1.33-1.33v-2.67h20.11c-.21,1.32-.11,2.66.27,3.94-.12.04-.25.06-.38.06ZM30.66,38.67c-4.42,0-8-3.58-8-8s3.58-8,8-8,8,3.58,8,8c0,4.42-3.58,7.99-8,8Z"/>
          <path class="cls-4" d="M20.67,17.34c0-4.79-3.88-8.67-8.67-8.67S3.33,12.55,3.33,17.34s3.88,8.67,8.67,8.67c4.78,0,8.66-3.88,8.67-8.67ZM4.67,17.34c0-4.05,3.28-7.33,7.33-7.33s7.33,3.28,7.33,7.33-3.28,7.33-7.33,7.33c-4.05,0-7.33-3.29-7.33-7.33Z"/>
          <path class="cls-4" d="M15.33,2.67h-.67c-.37,0-.67.3-.67.67s.3.67.67.67h.67c.37,0,.67-.3.67-.67s-.3-.67-.67-.67Z"/>
          <path class="cls-4" d="M12,2.67h-3.33c-.37,0-.67.3-.67.67s.3.67.67.67h3.33c.37,0,.67-.3.67-.67s-.3-.67-.67-.67Z"/>
          <path class="cls-4" d="M13.33,30.67h-2.67c-.37,0-.67.3-.67.67s.3.67.67.67h2.67c.37,0,.67-.3.67-.67s-.3-.67-.67-.67Z"/>
          <path class="cls-4" d="M34.33,26.09c-.32-.19-.73-.08-.91.24,0,0,0,0,0,0l-4.23,7.25-1.39-1.39c-.26-.26-.69-.25-.94.02-.25.26-.25.67,0,.93l2,2c.12.13.29.2.47.2.03,0,.06,0,.09,0,.21-.03.39-.15.49-.33l4.67-8c.18-.32.08-.73-.24-.91,0,0,0,0,0,0Z"/>
          <path class="cls-4" d="M15.96,19.55c.12-.35-.07-.73-.42-.84-.35-.12-.73.07-.84.42h0s-.54,1.54-2.7,1.54-2.68-1.49-2.7-1.54c-.12-.35-.49-.54-.84-.42-.35.12-.54.49-.42.84.03.1.86,2.46,3.97,2.46s3.93-2.36,3.97-2.46Z"/>
          <path class="cls-4" d="M9.33,16c.37,0,.67-.3.67-.67v-1.33c0-.37-.3-.67-.67-.67s-.67.3-.67.67v1.33c0,.37.3.67.67.67Z"/>
          <path class="cls-4" d="M14.67,16c.37,0,.67-.3.67-.67v-1.33c0-.37-.3-.67-.67-.67s-.67.3-.67.67v1.33c0,.37.3.67.67.67Z"/>
        </g>
      </g>
    </g>
  </g>
</svg>