<?xml version="1.0" encoding="UTF-8"?>
<svg id="Layer_2" xmlns="http://www.w3.org/2000/svg" viewBox="0 0 96.5 112">
  <defs>
    <style>
      .cls-1 {
        fill: #ffd05b;
      }

      .cls-2 {
        fill: #fff;
      }

      .cls-3 {
        fill: #f1543f;
      }

      .cls-4 {
        fill: #e6e9ee;
      }

      .cls-5 {
        fill: #324a5e;
      }

      .cls-6 {
        fill: #ff7058;
      }

      .cls-7 {
        fill: #f9b54c;
      }
    </style>
  </defs>
  <g id="Layer_1-2" data-name="Layer_1">
    <g>
      <g>
        <path class="cls-4" d="M39.63,111.34c.66.09,1.41.19,2.07.28-.66-.09-1.41-.19-2.07-.28h0Z"/>
        <path class="cls-4" d="M41.7,111.62c.66.09,1.41.09,2.07.19h0c-.66,0-1.32-.09-2.07-.19Z"/>
        <path class="cls-4" d="M48.29,65.04c-.09,0-.09.09,0,0h-.19.19Z"/>
        <path class="cls-4" d="M52.53,111.81c1.41-.09,2.82-.28,4.23-.47h0c-2.82.38-5.65.66-8.56.66-1.51,0-2.92-.09-4.33-.19-5.36-13.36-8.19-25.6-9.69-35.66,3.2-10.16,14.02-11.01,14.02-11.01,0,0,10.82.85,14.02,11.01-1.51,10.07-4.33,22.3-9.69,35.66Z"/>
      </g>
      <g>
        <path class="cls-7" d="M61.09,48.86s1.69,9.13-12.8,16.19h-.19c-14.49-7.06-12.8-16.19-12.8-16.19h-.09c0-.09.09-.28.09-.38,3.58,4.33,8.09,7.15,12.89,7.15s9.32-2.82,12.89-7.25c0,.28.09.38,0,.47.09.09,0,0,0,0Z"/>
        <path class="cls-7" d="M38.04,51.4l-2.45,1.13c-.56-2.16-.38-3.67-.38-3.67h-.09c0-.09.09-.28.09-.38.94,1.04,1.88,2.07,2.82,2.92Z"/>
        <path class="cls-7" d="M61.09,48.86s.28,1.41-.38,3.67l-2.45-1.13c.94-.85,1.88-1.79,2.73-2.92.09.19.19.28.09.38.09.09,0,0,0,0Z"/>
      </g>
      <g>
        <path class="cls-3" d="M48.29,65.04c-.09,0-.09.09,0,0h-.19.19Z"/>
        <path class="cls-3" d="M53.28,66.46l-1.69,4.99h-6.87l-1.69-4.99c2.82-1.22,5.08-1.41,5.08-1.41,0,0,2.45.28,5.18,1.41Z"/>
      </g>
      <g>
        <path class="cls-6" d="M52.53,111.81c.38,0,.66-.09,1.04-.09h0c-.28.09-.66.09-1.04.09Z"/>
        <path class="cls-6" d="M56.01,102.4c-1.04,3.11-2.16,6.21-3.39,9.41-1.41.09-2.92.19-4.33.19-3.11,0-4.33-.19-4.33-.19-1.32-3.2-2.45-6.3-3.39-9.41l4.42-30.96h6.87l4.14,30.96Z"/>
      </g>
      <g>
        <path class="cls-5" d="M52.62,111.81s8.19-25.6,9.69-35.66c0,.28,3.76-13.55,1.79-22.02l25.78,12.42,6.61,45.26h-43.88Z"/>
        <path class="cls-5" d="M43.87,111.81l-43.87-.05,6.61-45.21,25.78-12.42c-1.98,8.28,1.6,21.83,1.79,22.02h0c1.51,10.07,9.69,35.66,9.69,35.66Z"/>
      </g>
      <g>
        <path class="cls-2" d="M61.09,48.86s1.69,9.13-12.89,16.19c0,0,10.82.85,14.02,11.01.09.47,6.02-21.74-1.13-27.19Z"/>
        <path class="cls-2" d="M35.31,48.86s-1.69,9.13,12.89,16.19c0,0-10.82.85-14.02,11.01-.09.47-6.02-21.74,1.13-27.19Z"/>
      </g>
      <path class="cls-1" d="M64.67,38.51c-1.79,5.36-2.35,8.28-2.45,8.47h0c-3.76,5.18-8.66,8.66-14.02,8.66-4.99,0-9.69-3.11-13.36-7.81l.09.09c-7.9-9.69-2.45-27.67-2.45-27.67,3.95,4.52,16.75,4.8,16.75,4.8-5.55-.94-6.49-5.36-6.49-5.36.94,2.73,13.36,4.42,13.36,4.42,12.8,1.88,8.56,14.4,8.56,14.4Z"/>
      <path class="cls-5" d="M40.76,1.53s17.41-6.96,26.35,8.85c9.5,16.84-2.45,35.19-4.89,36.7,0,0,.66-2.92,2.45-8.56,0,0,4.23-12.52-8.56-14.4,0,0-12.42-1.69-13.36-4.42,0,0,.94,4.52,6.49,5.36,0,0-12.8-.28-16.75-4.8,0,0-5.46,17.97,2.45,27.67,0,0-13.74-11.01-12.04-27.95,0,.09-.66-23.15,17.88-18.44Z"/>
    </g>
  </g>
</svg>