<?xml version="1.0" encoding="UTF-8"?>
<svg id="Layer_2" xmlns="http://www.w3.org/2000/svg" viewBox="0 0 88.07 112">
  <defs>
    <style>
      .cls-1, .cls-2 {
        fill: #ffdd95;
      }

      .cls-3 {
        fill: #fff;
      }

      .cls-3, .cls-2, .cls-4, .cls-5, .cls-6 {
        fill-rule: evenodd;
      }

      .cls-7 {
        fill: #4c4c4c;
      }

      .cls-4 {
        fill: #4796e7;
      }

      .cls-5 {
        fill: #d8d8d8;
      }

      .cls-6 {
        fill: #595959;
      }
    </style>
  </defs>
  <g id="Layer_1-2" data-name="Layer_1">
    <g>
      <path class="cls-6" d="M0,82.25c0-4.08,3.27-7.77,7.32-8.26l36.71-4.41,36.71,4.41c4.04.49,7.32,4.18,7.32,8.26v29.75H0v-29.75Z"/>
      <polygon class="cls-5" points="44.27 111.74 29.51 89.56 59.02 89.56 44.27 111.74"/>
      <path class="cls-2" d="M29.45,64.12c-7.32-6.94-12.16-18.18-12.16-27.57,0-14.77,11.97-26.74,26.74-26.74s26.74,11.97,26.74,26.74c0,9.39-4.84,20.63-12.16,27.57v16.28s-9.89,3.52-14.59,3.52-14.59-3.52-14.59-3.52v-16.28Z"/>
      <polygon class="cls-5" points="44.27 76.88 29.51 89.6 59.02 89.6 44.27 76.88"/>
      <polygon class="cls-4" points="38.74 76.88 49.79 76.88 51.63 82.41 47.92 86.1 40.66 86.1 36.89 82.41 38.74 76.88"/>
      <polygon class="cls-3" points="29.51 71.34 44.26 77.07 29.51 89.64 29.51 71.34"/>
      <polygon class="cls-3" points="59.17 71.34 44.27 76.99 59.17 89.64 59.17 71.34"/>
      <circle class="cls-1" cx="18.21" cy="41.83" r="5.53"/>
      <circle class="cls-1" cx="69.86" cy="41.83" r="5.53"/>
      <polygon class="cls-4" points="40.58 86.1 47.96 86.1 49.8 111.92 38.73 111.92 40.58 86.1"/>
      <path class="cls-7" d="M68.76,28.68v14.61c.19-3.33,1.41-5.64,2.59-7.1,1.5-1.86,2.29-4.19,2.29-6.57v-11.02C73.64,8.32,65.31,0,55.05,0h-28.09c-7.62,1.48-4.68,7.75-4.68,7.75-7.22,1.74-8.16,9.1-8.16,9.1v15c0,1.36.39,2.7,1.12,3.85,2.97,4.77,3.83,10.57,3.83,10.57v-17.39s.67-6.15,7.22-8.56l9.74-3.42c1.82-.64,3.8-.61,5.6.07,2.02.77,4.68,1.76,6.36,2.3.8.26,1.64.39,2.49.39h9.25s7.22.94,9.03,9.03Z"/>
    </g>
  </g>
</svg>