<?xml version="1.0" encoding="UTF-8"?>
<svg id="Layer_2" xmlns="http://www.w3.org/2000/svg" viewBox="0 0 89.6 112">
  <defs>
    <style>
      .cls-1 {
        fill: #d32f2f;
      }

      .cls-2 {
        fill: #fff;
      }

      .cls-3 {
        fill: #424242;
      }

      .cls-4 {
        fill: #ff9800;
      }

      .cls-5 {
        fill: #ffb74d;
      }

      .cls-6 {
        fill: #546e7a;
      }

      .cls-7 {
        fill: #ffa726;
      }
    </style>
  </defs>
  <g id="Layer_1-2" data-name="Layer_1">
    <g>
      <path class="cls-4" d="M44.8,92.4l-14-16.8v-16.8h28v16.8l-14,16.8Z"/>
      <path class="cls-7" d="M64.4,42c0,3.09,2.5,5.6,5.6,5.6,3.09,0,5.6-2.5,5.6-5.6h0c0-3.1-2.5-5.61-5.6-5.61-3.09,0-5.6,2.5-5.6,5.6h0Z"/>
      <path class="cls-7" d="M14,42c0,3.09,2.51,5.6,5.6,5.6s5.6-2.51,5.6-5.6-2.51-5.6-5.6-5.6-5.6,2.51-5.6,5.6Z"/>
      <path class="cls-5" d="M70,25.2c0-21.28-50.4-14-50.4,0v19.6c0,14,11.2,25.2,25.2,25.2s25.2-11.2,25.2-25.2v-19.6h0Z"/>
      <path class="cls-3" d="M44.8,0C27.72,0,16.8,13.72,16.8,30.8v6.44l5.6,4.76v-14l33.6-11.2,11.2,11.2v14l5.6-4.76v-6.44c0-11.2-2.8-22.4-16.8-25.2l-2.8-5.6h-8.4Z"/>
      <path class="cls-2" d="M44.8,109.2l-14-33.6,14,2.8,14-2.8-14,33.6Z"/>
      <path class="cls-1" d="M42,86.8l-1.96,12.6,4.76,11.2,4.76-11.2-1.96-12.6,2.8-2.8-5.6-5.6-5.6,5.6,2.8,2.8Z"/>
      <path class="cls-6" d="M58.8,75.6l-14,33.6-14-33.6S0,81.2,0,112h89.6c0-30.8-30.8-36.4-30.8-36.4h0Z"/>
    </g>
  </g>
</svg>