<?xml version="1.0" encoding="UTF-8"?>
<svg id="Layer_2" xmlns="http://www.w3.org/2000/svg" viewBox="0 0 86 112">
  <defs>
    <style>
      .cls-1 {
        fill: #dadde0;
      }

      .cls-2 {
        fill: #141414;
      }

      .cls-3 {
        fill: #295d66;
      }

      .cls-4 {
        fill: #e2a379;
      }

      .cls-5 {
        fill: #dee0e2;
      }

      .cls-6 {
        fill: #f4b382;
      }

      .cls-7 {
        fill: #e8d3bb;
      }

      .cls-8 {
        fill: #c16952;
      }

      .cls-9 {
        fill: #cc785e;
      }
    </style>
  </defs>
  <g id="Layer_1-2" data-name="Layer_1">
    <g>
      <polygon class="cls-2" points="68.83 89.5 17.17 89.5 20.42 24.29 65.27 19.05 68.83 89.5"/>
      <rect class="cls-5" x="32" y="68.22" width="21.99" height="6.39"/>
      <path class="cls-3" d="M42.92,70.4c-19.74,0-34.95,5.09-37.44,12.61S0,111.52,0,111.52l43.03.48,42.97-.48s-3.87-21.03-5.44-28.52-17.93-12.61-37.64-12.61Z"/>
      <g>
        <path class="cls-1" d="M54.71,71.11c-3.71-.46-7.67-.69-11.79-.69s-7.98.23-11.63.69l11.71,23.27,11.71-23.27Z"/>
        <path class="cls-1" d="M22.54,76.48l9.46-8.26,8.18,16.34s-6.44,1.82-6.52,1.74l-11.12-9.82Z"/>
        <path class="cls-1" d="M63.46,76.48l-9.46-8.26-8.18,16.34s6.44,1.82,6.52,1.74l11.12-9.82Z"/>
      </g>
      <g>
        <path class="cls-4" d="M43,90.52l-9.67-19.64s2.35-3.17,9.56-3.17,9.74,3.2,9.74,3.2l-9.64,19.61Z"/>
        <path class="cls-4" d="M52.95,57.28h-19.89c3.09,9.36.26,13.63.26,13.63,0,0,4.19,1.56,9.69,1.56s9.69-1.56,9.69-1.56c0,0-2.84-4.27.26-13.63Z"/>
      </g>
      <path class="cls-6" d="M63.41,29.94C63.41,6.31,54.28.89,43,.89s-20.41,5.42-20.41,29.05c0,8,1.43,14.27,3.58,19.1,4.71,10.64,12.86,14.35,16.83,14.35s12.1-3.71,16.83-14.35c2.15-4.83,3.58-11.1,3.58-19.1Z"/>
      <g>
        <path class="cls-2" d="M53.38,3.32C49.24-1.05,40.16.15,40.16.15h0C22.57.15,20.75,19.05,20.75,19.05l-.33,5.24c0,3.63,1.94,8.13,3.84,12.61,0,0-.38-14.75,8.46-18.69,8.85-3.94,23.55-2.99,22.91-7.52-.03-.23.38-4.55-2.25-7.36Z"/>
        <path class="cls-2" d="M48.55.51c2.71-1.25,9.13,1.94,12.35,6.73,1.71,2.53,3.71,6.39,4.37,11.81,0,0,.08,10.82-2.61,17.52,0,0-7.72-22.32-16.14-31.86.03-.13.28-3.38,2.02-4.19Z"/>
      </g>
      <g>
        <path class="cls-6" d="M20.65,38.25c1.1,6.44,2.45,6.73,4.42,6.39l-2.07-14.01c-1.97.36-3.45,1.2-2.35,7.62Z"/>
        <path class="cls-6" d="M63.05,30.66l-2.07,14.01c1.94.33,3.32.03,4.42-6.39,1.07-6.44-.41-7.29-2.35-7.62Z"/>
      </g>
      <path class="cls-9" d="M49.83,52.6s-3.63,2.45-6.83,2.45-6.83-2.45-6.83-2.45c0-.36,2.89-1.36,4.12-1.53.77-.13,2.71.64,2.71.64,0,0,1.92-.74,2.66-.64,1.25.18,4.17,1.53,4.17,1.53Z"/>
      <path class="cls-8" d="M49.83,52.6s-3.63,3.45-6.83,3.45-6.83-3.45-6.83-3.45c0,0,1.66.38,5.01.18.56-.03,1.3.41,1.79.41.43,0,1.07-.46,1.56-.43,3.53.2,5.29-.15,5.29-.15Z"/>
      <g>
        <polygon class="cls-2" points="27.27 34.9 23.69 34.72 23.85 33.98 27.4 34.16 27.27 34.9"/>
        <polygon class="cls-2" points="58.65 34.9 58.5 34.16 62.05 33.98 62.2 34.72 58.65 34.9"/>
        <path class="cls-2" d="M39.57,31.02h-11.74c-.54,0-.97.43-.97.97v6.55c0,.54.43.97.97.97h11.74c.54,0,.97-.43.97-.97v-6.57c0-.51-.43-.95-.97-.95ZM39.09,37.46c0,.43-.33.77-.77.77h-9.28c-.43,0-.77-.33-.77-.77v-4.35c0-.43.33-.77.77-.77h9.28c.43,0,.77.33.77.77v4.35Z"/>
        <path class="cls-2" d="M58.16,31.02h-11.74c-.54,0-.97.43-.97.97v6.55c0,.54.43.97.97.97h11.74c.54,0,.97-.43.97-.97v-6.57c0-.51-.43-.95-.97-.95ZM57.7,37.46c0,.43-.33.77-.77.77h-9.28c-.43,0-.77-.33-.77-.77v-4.35c0-.43.33-.77.77-.77h9.28c.43,0,.77.33.77.77v4.35Z"/>
        <path class="cls-2" d="M42.97,32.6c-2.86,0-3.15,1.76-3.07,2.66-.05.74.13.46.13.46.54-1.13,1.71-1.87,2.97-1.87s2.4.74,2.97,1.87c0,0,.18.28.13-.46.03-.89-.26-2.66-3.12-2.66Z"/>
      </g>
      <g>
        <path class="cls-7" d="M57.7,37.46c0,.43-.33.77-.77.77h-9.28c-.43,0-.77-.33-.77-.77v-4.35c0-.43.33-.77.77-.77h9.28c.43,0,.77.33.77.77v4.35Z"/>
        <path class="cls-7" d="M39.09,37.46c0,.43-.33.77-.77.77h-9.28c-.43,0-.77-.33-.77-.77v-4.35c0-.43.33-.77.77-.77h9.28c.43,0,.77.33.77.77v4.35Z"/>
      </g>
    </g>
  </g>
</svg>