<?xml version="1.0" encoding="UTF-8"?>
<svg id="Layer_2" xmlns="http://www.w3.org/2000/svg" viewBox="0 0 90 90">
  <defs>
    <style>
      .cls-1 {
        fill: #112e57;
      }

      .cls-2 {
        fill: #fff;
        fill-rule: evenodd;
      }
    </style>
  </defs>
  <g id="Layer_1-2" data-name="Layer_1">
    <rect class="cls-1" x="0" y="0" width="90" height="90" rx="45" ry="45"/>
    <path class="cls-2" d="M47.47,23.38h7.26c1.72,0,3.12,1.4,3.12,3.12v19.84h7.96c.71,0,1.29.58,1.3,1.29v11.51c0,.71-.58,1.29-1.3,1.3h-7.96v4.44h0c0,1.72-1.4,3.12-3.12,3.12h-28.71c-1.72,0-3.12-1.4-3.12-3.12V26.5c0-1.73,1.4-3.12,3.12-3.12h8.2c.21-.81.93-1.38,1.77-1.38h9.72c.83,0,1.56.57,1.76,1.38h0ZM48.26,50.38h-2.84c-.12,0-.23-.05-.31-.13-.08-.08-.13-.2-.13-.31v-2.72h-3.89c-.23,0-.41.18-.41.41v11.51c0,.23.19.41.41.41h11.51c.23,0,.41-.19.41-.41v-11.51c0-.23-.19-.41-.41-.41h-3.89v2.72h0c0,.12-.05.23-.13.31-.08.08-.19.13-.31.13h0ZM45.86,49.5h1.96v-2.28h-1.96v2.28ZM52.59,60.44h-11.51c-.71,0-1.29-.58-1.29-1.3v-11.51c0-.71.58-1.29,1.29-1.29h11.51c.31,0,.62.11.85.32.09-.08.2-.15.31-.2v-18.98h-6.3c-.23.78-.94,1.32-1.75,1.32h-9.72c-.81,0-1.52-.54-1.75-1.32h-7.24v36.42h26.76v-3.58c-.11-.05-.22-.12-.31-.2-.24.21-.54.32-.85.32h0ZM44.4,57.01h-2.32c-.24,0-.44.2-.44.44s.2.44.44.44h2.32c.24,0,.44-.2.44-.44s-.2-.44-.44-.44ZM44.4,55.69h-2.32c-.24,0-.43.2-.43.44s.19.43.43.44h2.32c.24,0,.43-.2.43-.44s-.19-.43-.43-.44h0ZM51.19,56.1h-4.03v1.37h4.03v-1.37s0,0,0,0ZM46.73,55.22c-.24,0-.44.2-.44.44v2.25h0c0,.12.05.23.13.31.08.08.19.13.31.13h4.91c.12,0,.23-.05.31-.13.08-.08.13-.19.13-.31v-2.25c0-.24-.2-.44-.44-.44h-4.91ZM59.08,49.5h1.96v-2.28h-1.96v2.28ZM61.48,50.38h-2.84c-.24,0-.44-.2-.44-.44v-2.72h-3.89c-.23,0-.41.19-.41.41v11.51c0,.23.19.41.41.41h11.51c.23,0,.41-.19.41-.41v-11.51c0-.23-.18-.41-.41-.41h-3.89v2.72h0c0,.12-.05.23-.13.31-.08.08-.2.13-.31.13h0ZM56.97,46.34v-19.83c0-1.24-1.01-2.24-2.24-2.24h-7.21v2.34h6.67c.12,0,.23.05.31.13.08.08.13.19.13.31v19.3h2.34ZM54.63,60.44v3.9c0,.12-.05.23-.13.31-.08.08-.19.13-.31.13h-27.64c-.24,0-.44-.2-.44-.44V27.04c0-.24.2-.44.44-.44h7.61v-2.34h-8.15c-1.24,0-2.24,1.01-2.24,2.24v38.37c0,1.24,1,2.24,2.24,2.24h28.71c1.24,0,2.24-1.01,2.24-2.24v-4.43h-2.34ZM62.49,57.89h2.32c.24,0,.44-.2.44-.44s-.2-.44-.44-.44h-2.32c-.24,0-.44.2-.44.44s.2.44.44.44ZM62.49,56.57h2.32c.24,0,.43-.2.43-.44s-.19-.43-.43-.44h-2.32c-.24,0-.43.2-.43.44s.19.43.43.44h0ZM55.26,55.22c-.24,0-.44.2-.44.44v2.25h0c0,.12.05.23.13.31.08.08.2.13.31.13h4.91c.12,0,.23-.05.31-.13.08-.08.13-.19.13-.31v-2.25c0-.24-.2-.44-.44-.44h-4.91ZM59.73,56.1h-4.03v1.37h4.03v-1.37h0ZM36.99,52.34l-3.09,3.09-1.6-1.6c-.17-.17-.45-.17-.62,0-.17.17-.17.45,0,.62l1.91,1.91h0c.17.17.45.17.62,0l3.4-3.4h0c.08-.08.13-.2.13-.31,0-.12-.05-.23-.13-.31-.08-.08-.2-.13-.31-.13-.12,0-.23.05-.31.13h0ZM36.99,46.23l-3.09,3.09-1.6-1.6c-.17-.17-.45-.17-.62,0-.17.17-.17.45,0,.62l1.91,1.91c.17.17.45.17.62,0l3.4-3.4c.16-.17.15-.44-.01-.61-.17-.17-.44-.17-.61-.01h0ZM40.81,42.38h7.95c.24,0,.44-.2.44-.44s-.2-.44-.44-.44h-7.95c-.24,0-.44.2-.44.44s.2.44.44.44ZM36.99,40.24l-3.09,3.09-1.6-1.6c-.08-.08-.19-.13-.31-.13-.12,0-.23.05-.31.13-.08.08-.13.2-.13.31s.05.23.13.31l1.91,1.91c.17.17.45.17.62,0l3.4-3.4c.17-.17.17-.45,0-.62-.17-.17-.45-.17-.62,0h0ZM40.81,36.27h7.95c.24,0,.44-.2.44-.44s-.2-.44-.44-.44h-7.95c-.24,0-.44.2-.44.44s.2.44.44.44ZM36.99,34.13l-3.09,3.09-1.6-1.6c-.08-.08-.19-.13-.31-.13s-.23.05-.31.13c-.08.08-.13.2-.13.31s.05.23.13.31l1.91,1.91c.08.08.2.13.31.13s.23-.05.31-.13l3.4-3.4c.17-.17.17-.45,0-.62-.17-.17-.45-.17-.62,0h0ZM38.12,25.84h5.45c.24,0,.44-.2.44-.44s-.2-.44-.44-.44h-5.45c-.24,0-.44.2-.44.44s.2.44.44.44ZM45.7,22.88h-9.72c-.52,0-.93.42-.94.94v3.2h0s0,0,0,0c.02.5.44.89.94.89h9.72c.5,0,.91-.4.94-.89h0v-3.2c0-.52-.42-.93-.94-.94Z"/>
  </g>
</svg>