<?xml version="1.0" encoding="UTF-8"?>
<svg id="Layer_2" xmlns="http://www.w3.org/2000/svg" viewBox="0 0 90 90">
  <defs>
    <style>
      .cls-1 {
        fill: #fff;
      }

      .cls-2 {
        fill: #112e57;
      }
    </style>
  </defs>
  <g id="Layer_1-2" data-name="Layer_1">
    <rect class="cls-2" x="0" y="0" width="90" height="90" rx="45" ry="45"/>
    <path class="cls-1" d="M31.58,67.9c-.29,0-.53-.24-.53-.53v-12.51c0-.1-.04-.2-.11-.27-.07-.07-.16-.11-.27-.11-.22,0-.38.16-.38.38v12.51c0,.29-.24.53-.53.53h-3.79c-.29,0-.53-.24-.53-.53v-10.5h-2.83c-.29,0-.53-.24-.53-.53v-11.66c0-2.69,2.19-4.88,4.88-4.88h.85l-.18-.17c-.88-.84-1.36-1.97-1.36-3.18,0-2.17,1.62-4.05,3.76-4.36h.09v-4.85h-.1c-1.02-.04-1.84-.89-1.84-1.91v-1.33c0-1.05.85-1.91,1.9-1.91h35.9c1.05,0,1.91.85,1.91,1.91v1.33c0,1.01-.83,1.87-1.84,1.9h-.1v24.24c0,.78-.64,1.42-1.42,1.42h-15.97v6.52l6.88,5c.11.08.19.21.21.34.02.14-.01.28-.09.39-.08.11-.21.19-.34.21-.02,0-.03,0-.05,0-.17,0-.26-.03-.35-.09l-6.79-4.89-6.79,4.89c-.09.07-.2.1-.31.1-.23-.03-.35-.11-.43-.22-.08-.11-.12-.26-.09-.39.02-.14.1-.26.21-.34l6.84-4.92.04-6.6h-11.62v14.48c0,.29-.24.53-.53.53h-3.78ZM30.68,53.43c.38,0,.75.15,1.01.42.27.27.42.64.42,1.02v11.98h2.73v-21.76c0-.22.13-.41.33-.49.06-.03.13-.04.2-.04.14,0,.28.06.38.16l3.4,3.4c.36.36.84.56,1.35.56s.98-.2,1.34-.56l5.64-5.64-1.63-1.62-4.98,4.99c-.1.1-.23.15-.37.15s-.27-.05-.37-.15l-3.95-3.95c-.64-.64-1.53-1.01-2.44-1.01h-6.74c-2.11,0-3.82,1.72-3.82,3.82v11.13h2.3v-10.45c0-.29.24-.53.53-.53.14,0,.27.06.37.16s.16.23.16.37v21.47h2.73v-11.98c0-.79.64-1.43,1.43-1.43ZM35.9,51.83h28.65c.21,0,.36-.15.36-.36v-24.23H31.19v4.83s.09.01.09.01c1.74.23,3.18,1.47,3.66,3.16.04.13.07.26.09.39.03.15.05.28.06.41.01.16.02.29.02.42,0,1.21-.49,2.34-1.37,3.19l-.17.17h.24c1.01.03,2,.39,2.78,1.03.11.09.22.19.33.3l3.58,3.58,4.98-4.98c.1-.1.23-.16.38-.16s.27.06.37.16l.84.84,4.64-4.64c.1-.1.24-.15.37-.15s.27.05.38.15c.1.1.16.23.16.38,0,.14-.06.27-.16.37l-4.64,4.64.79.78c.1.1.16.23.16.37s-.06.27-.16.38l-6.01,6.01c-.56.56-1.3.86-2.09.86s-1.54-.31-2.1-.86l-2.5-2.5v5.47ZM30.54,33.14c-1.73,0-3.2,1.5-3.2,3.32s1.46,3.33,3.32,3.35c1.88,0,3.39-1.5,3.39-3.35,0-.12,0-.23-.02-.34-.17-1.72-1.61-3.01-3.34-3.01h-.05l-.07.04h-.04ZM30.1,23.16c-.47,0-.85.37-.85.85v1.33c0,.48.37.85.85.85h35.89c.48,0,.85-.37.85-.85v-1.33c0-.48-.37-.85-.85-.85H30.1ZM53.33,48.07c-.29,0-.53-.24-.53-.53s.24-.53.53-.53h8.73c.14,0,.27.06.37.16.1.1.16.23.16.37,0,.29-.24.53-.53.53h-8.73ZM53.33,42.74c-.29,0-.53-.24-.53-.53s.24-.53.53-.53h8.73c.14,0,.28.06.38.15.1.1.15.24.15.37,0,.29-.24.53-.53.53h-8.73ZM53.33,37.39c-.29,0-.53-.24-.53-.53s.24-.53.53-.53h8.73c.14,0,.27.06.37.16.1.1.16.23.16.37,0,.29-.24.53-.53.53h-8.73ZM38.12,35.26c-.76,0-1.39-.62-1.39-1.39v-2.3c0-.76.62-1.39,1.39-1.39h9.09c.76,0,1.39.62,1.39,1.39v2.3c0,.76-.62,1.39-1.39,1.39h-9.09ZM38.12,31.25c-.19,0-.33.14-.33.33v2.3c0,.19.14.33.33.33h9.09c.19,0,.33-.14.33-.33v-2.3c0-.19-.14-.33-.33-.33h-9.09ZM53.33,32.05c-.29,0-.53-.24-.53-.53s.24-.53.53-.53h8.73c.14,0,.28.06.38.15.1.1.15.23.15.37,0,.29-.24.53-.53.53h-8.73Z"/>
  </g>
</svg>