<?xml version="1.0" encoding="UTF-8"?>
<svg id="Layer_2" xmlns="http://www.w3.org/2000/svg" viewBox="0 0 90 90">
  <defs>
    <style>
      .cls-1 {
        fill: #fff;
      }

      .cls-2 {
        fill: #112e57;
      }
    </style>
  </defs>
  <g id="Layer_1-2" data-name="Layer_1">
    <rect class="cls-2" x="0" y="0" width="90" height="90" rx="45" ry="45"/>
    <g>
      <path class="cls-1" d="M30.49,67h29.01c1.1,0,1.99-.9,1.99-2.01V25.01c0-1.11-.89-2.01-1.99-2.01h-20.82c-.06,0-.13.02-.19.04-.05.03-.11.06-.15.11l-9.71,9.78h0c-.08.1-.13.21-.13.34v31.72c0,1.11.89,2.01,1.99,2.01h0ZM38.2,24.67v7.07c0,.57-.46,1.03-1.03,1.03h-7.03l8.05-8.1ZM29.47,33.76h7.71c1.1,0,1.99-.9,1.99-2.01v-7.77h20.33c.56,0,1.03.46,1.03,1.03v39.98c0,.57-.46,1.03-1.03,1.03h-29.01c-.56,0-1.03-.46-1.03-1.03v-31.23Z"/>
      <path class="cls-1" d="M53.64,39.16c.65-.63,1.06-1.5,1.06-2.47,0-1.88-1.53-3.42-3.39-3.42s-3.39,1.54-3.39,3.42c0,.97.41,1.85,1.06,2.47-2.23.26-3.97,2.17-3.97,4.48v1.67c0,.9.73,1.64,1.63,1.64h9.37c.89,0,1.63-.73,1.63-1.64v-1.67c0-2.31-1.74-4.22-3.97-4.48h0ZM48.88,36.69c0-1.35,1.09-2.45,2.43-2.45s2.43,1.1,2.43,2.45-1.09,2.45-2.43,2.45-2.43-1.1-2.43-2.45ZM56.64,45.31c0,.37-.29.66-.65.66h-9.36c-.36,0-.65-.29-.65-.66v-1.67c0-1.95,1.57-3.54,3.51-3.54h3.65c1.94,0,3.51,1.59,3.51,3.54v1.67Z"/>
      <path class="cls-1" d="M35.51,46.53c.26.27.61.43,1,.44.38,0,.72-.16.97-.43l1.38-1.44,3.79-3.79h0c.54-.57.54-1.48,0-2.04l-.65-.68c-.27-.28-.62-.43-.99-.43-.36-.02-.73.15-1.01.42l-3.5,3.54-1.04-1.04c-.54-.55-1.47-.55-2.01,0l-.65.67c-.55.56-.55,1.47,0,2.04l2.71,2.74h0ZM33.49,42.44l.65-.68c.08-.09.19-.13.3-.13s.22.04.31.14l1.39,1.38c.19.19.49.19.69,0l3.85-3.88c.09-.09.19-.16.31-.13.12,0,.22.04.3.13l.65.68c.18.18.18.48,0,.66l-3.79,3.79-1.39,1.45c-.08.09-.18.13-.28.13-.12,0-.22-.04-.3-.13l-2.71-2.74c-.18-.18-.18-.48,0-.66h0Z"/>
      <path class="cls-1" d="M53.64,55.3c.65-.63,1.06-1.5,1.06-2.47,0-1.88-1.53-3.42-3.39-3.42s-3.39,1.54-3.39,3.42c0,.97.41,1.85,1.06,2.47-2.23.26-3.97,2.17-3.97,4.48v1.67c0,.9.73,1.64,1.63,1.64h9.37c.89,0,1.63-.73,1.63-1.64v-1.67c0-2.31-1.74-4.22-3.97-4.48h0ZM48.88,52.83c0-1.35,1.09-2.45,2.43-2.45s2.43,1.1,2.43,2.45-1.09,2.45-2.43,2.45-2.43-1.1-2.43-2.45ZM56.64,61.45c0,.37-.29.66-.65.66h-9.36c-.36,0-.65-.29-.65-.66v-1.67c0-1.95,1.57-3.54,3.51-3.54h3.65c1.94,0,3.51,1.59,3.51,3.54v1.67Z"/>
      <path class="cls-1" d="M35.51,62.65c.26.27.61.43,1,.44.38,0,.72-.16.97-.43l1.38-1.44,3.79-3.79h0c.54-.57.54-1.48,0-2.04l-.65-.68c-.27-.28-.62-.43-.99-.43s-.73.15-1,.42l-3.5,3.54-1.04-1.04c-.54-.55-1.47-.55-2.01,0l-.65.67c-.55.56-.55,1.47,0,2.04l2.71,2.74h0ZM33.49,58.56l.65-.68c.08-.09.19-.13.3-.13s.22.04.31.14l1.39,1.38c.19.19.49.19.69,0l3.85-3.88c.09-.09.19-.12.31-.13.12,0,.22.04.3.13l.65.68c.18.18.18.48,0,.66l-3.79,3.79-1.39,1.45c-.08.09-.18.13-.28.13-.12,0-.22-.04-.3-.13l-2.71-2.74c-.18-.18-.18-.48,0-.66h0Z"/>
      <path class="cls-1" d="M42.57,30.34h14.56c.54,0,.97-.44.97-.98v-1.96c0-.54-.44-.98-.97-.98h-14.56c-.54,0-.97.44-.97.98v1.96c0,.54.44.98.97.98ZM42.57,27.4h14.56v1.96h-14.56v-1.96Z"/>
    </g>
  </g>
</svg>