<?xml version="1.0" encoding="UTF-8"?>
<svg id="Layer_2" xmlns="http://www.w3.org/2000/svg" viewBox="0 0 90 90">
  <defs>
    <style>
      .cls-1 {
        fill: #112e57;
      }

      .cls-2 {
        fill: #fff;
        fill-rule: evenodd;
      }
    </style>
  </defs>
  <g id="Layer_1-2" data-name="Layer_1">
    <rect class="cls-1" x="0" y="0" width="90" height="90" rx="45" ry="45"/>
    <path class="cls-2" d="M23.58,66.9c-.26,0-.48-.22-.48-.48v-3.06c0-.26.21-.47.48-.47h1.82v-5.65c0-2.99,1.16-5.8,3.28-7.91,2.02-2.02,4.71-3.18,7.56-3.27h.34s-.3-.19-.3-.19c-2.46-1.46-4-4.14-4-7,0-4.48,3.65-8.13,8.13-8.13s8.12,3.65,8.12,8.13c0,2.86-1.53,5.54-4,7l-.3.17h.34c2.85.1,5.54,1.26,7.56,3.28,2.08,2.08,3.28,4.96,3.28,7.91v5.65h11.01c.26,0,.47.21.47.47v3.06c0,.26-.21.48-.47.48H23.58ZM24.05,65.95h41.9v-2.11H24.05v2.11ZM32.87,53.12c-.29,0-.57.12-.77.34-.2.21-.3.5-.28.79l.62,8.63h15.95l.62-8.63c.02-.29-.08-.58-.28-.79-.2-.21-.48-.34-.77-.34h-15.08ZM47.96,52.17c.55,0,1.08.23,1.46.64.38.41.57.96.53,1.51l-.61,8.56h5.14v-5.65c0-2.7-1.09-5.33-3-7.24s-4.5-3-7.24-3h-7.65c-2.74,0-5.31,1.07-7.24,3-1.91,1.91-3,4.54-3,7.24v5.65h5.14l-.61-8.56c-.04-.55.16-1.1.53-1.51.38-.41.91-.64,1.46-.64h15.09ZM40.41,31.7c-3.96,0-7.18,3.22-7.18,7.18s3.22,7.18,7.18,7.18,7.18-3.22,7.18-7.18-3.22-7.18-7.18-7.18ZM40.41,60.78c-1.53,0-2.77-1.24-2.77-2.77s1.24-2.77,2.77-2.77,2.77,1.24,2.77,2.77-1.24,2.77-2.77,2.77ZM40.41,56.19c-1.01,0-1.82.82-1.82,1.82s.82,1.82,1.82,1.82,1.82-.82,1.82-1.82-.82-1.82-1.82-1.82ZM54.95,40.12c-.06,0-.12-.01-.18-.04-.18-.08-.29-.25-.29-.44v-3.36h-1.82c-.54,0-1.04-.21-1.42-.58-.37-.37-.59-.89-.59-1.42v-9.18c0-.54.21-1.04.58-1.42.38-.38.88-.59,1.42-.59h12.24c.53,0,1.04.22,1.42.59.38.38.59.88.59,1.42v9.18c0,.54-.21,1.04-.58,1.42-.37.37-.89.58-1.41.58h-5.89s-3.73,3.69-3.73,3.69c-.09.09-.21.14-.34.14ZM54.95,35.34c.12,0,.25.05.34.14.09.09.14.21.14.34v2.68l3.02-3.02c.09-.09.21-.14.34-.14h6.12c.28,0,.54-.11.75-.31.2-.2.31-.46.31-.75v-9.18c0-.28-.11-.54-.31-.75-.2-.2-.47-.31-.74-.31h-12.25c-.28,0-.55.11-.75.31-.2.2-.31.46-.31.75v9.18c0,.28.11.54.31.75.2.2.47.31.75.31h2.29ZM54.19,31.7c-.26,0-.48-.22-.48-.48s.21-.48.48-.48h9.18c.26,0,.47.21.47.48s-.21.47-.47.48h-9.18ZM54.19,28.64c-.26,0-.48-.21-.48-.48s.21-.47.48-.47h9.18c.26,0,.47.21.47.47s-.21.48-.47.48h-9.18Z"/>
  </g>
</svg>