<?xml version="1.0" encoding="UTF-8"?>
<svg id="Layer_2" xmlns="http://www.w3.org/2000/svg" viewBox="0 0 90 90">
  <defs>
    <style>
      .cls-1 {
        fill: #fff;
      }

      .cls-2 {
        fill: #112e57;
      }
    </style>
  </defs>
  <g id="Layer_1-2" data-name="Layer_1">
    <rect class="cls-2" x="0" y="0" width="90" height="90" rx="45" ry="45"/>
    <path class="cls-1" d="M39.26,66.89c-.11,0-.22-.04-.32-.1-.14-.11-.22-.27-.22-.44v-6.34h-8.67c-.3,0-.55-.25-.55-.55v-15.53h-9.61c-1.25,0-2.26-1.01-2.26-2.26v-.2c0-1.25,1.02-2.26,2.26-2.26h9.61v-15.53c0-.3.25-.55.55-.55h29.59s.12,0,.12,0h.01s.09.03.09.03h.01s.08.06.08.06l.08.06.07.1.06.12.04.07-.02,9.4,10.68,5.18v.04h.11s.03.04.07.08l.1.1.03.05h.06v.03s.03.11.03.11v6.6s.97.98.97.98c.11.11.17.25.18.41v3.67c0,.19-.11.37-.28.48-.08.05-.18.07-.28.07s-.19-.03-.27-.07l-.88-.51-.88.51c-.09.05-.19.07-.28.07s-.19-.03-.27-.07c-.17-.1-.27-.28-.27-.47v-3.68c0-.16.06-.3.17-.4l.95-.91.03-5.71-2.13,1.03v6.56c0,.17-.09.34-.23.45-2.37,1.69-4.9,2.63-7.5,2.79h-.09v9.21c0,.2-.11.38-.29.48-.07.05-.12.08-.18.1l-20.28,6.71c-.06.02-.12.03-.17.03ZM39.8,29.39v36.19s19.28-6.36,19.28-6.36v-8.83h-.1c-2.75-.1-5.65-1.03-8.61-2.78-.17-.1-.27-.27-.27-.47v-6.56l-2.91-1.42c-.19-.09-.31-.28-.31-.49s.12-.4.31-.49l11.62-5.64c.07-.03.13-.05.18-.05h.09v-8.11l-19.28,5.02ZM30.58,47.63v11.27h8.13v-29.94c0-.25.17-.46.41-.53l15.5-4.03-.03-.2h-24.01v11.27l.19.03c.18-.55.56-1.01,1.05-1.29.35-.2.76-.31,1.17-.31.84,0,1.63.45,2.05,1.18l2.95,5.11c.28.41.42.87.42,1.35s-.14.95-.41,1.34l-2.96,5.13c-.42.73-1.21,1.18-2.05,1.18-.41,0-.82-.11-1.17-.31-.5-.29-.87-.75-1.05-1.3l-.19.03ZM51.2,46.82l.05.03c2.9,1.66,5.58,2.47,8.18,2.47.12-.01.16-.02.2-.02.03,0,.07,0,.1.01,2.51-.06,4.83-.86,7.13-2.44l.05-5.78-7.61,3.7c-.08.04-.15.05-.24.05s-.17-.02-.24-.05l-7.62-3.7v5.72ZM70.67,49c.1,0,.19.03.28.08l.33.2v-2.46l-.54-.55-.07-.07-.58.55-.03,2.52.33-.19c.08-.05.18-.08.27-.08ZM32.93,42.8c.2,0,.37.1.48.27.1.17.1.38,0,.55l-1.5,2.58c-.34.6-.13,1.38.47,1.73.19.11.41.17.62.17.45,0,.88-.24,1.1-.64l2.97-5.14c.18-.25.26-.51.26-.78s-.08-.52-.23-.74l-2.99-5.18c-.23-.39-.65-.64-1.1-.64-.22,0-.43.06-.62.17-.6.35-.81,1.13-.46,1.73l1.49,2.57c.1.17.1.38,0,.55-.1.17-.28.27-.48.27h-13.05c-.65,0-1.17.53-1.17,1.17v.2c0,.64.51,1.16,1.14,1.16h13.08ZM30.58,46.06l.19.04c.05-.14.11-.28.19-.42l1.02-1.76h-1.4v2.14ZM48.68,38.66l10.33,5.01,10.42-5.01-10.37-5.04-10.37,5.04ZM30.58,37.05v2.15h1.4l-1.02-1.76c-.08-.13-.14-.28-.19-.42l-.19.03Z"/>
  </g>
</svg>