<?xml version="1.0" encoding="UTF-8"?>
<svg id="Layer_2" xmlns="http://www.w3.org/2000/svg" viewBox="0 0 90 90">
  <defs>
    <style>
      .cls-1 {
        fill: #fff;
      }

      .cls-2 {
        fill: #112e57;
      }
    </style>
  </defs>
  <g id="Layer_1-2" data-name="Layer_1">
    <circle class="cls-2" cx="45" cy="45" r="45"/>
    <path class="cls-1" d="M22.56,67.3c-.29,0-.53-.24-.53-.53V27.08c0-.29.24-.53.53-.53h4.77v-3.31c0-.29.24-.53.53-.53h23.39c.07.01.11.02.16.03.1.04.16.07.21.11l6.94,6.3s.06.06.09.11c.04.07.05.1.06.15.02.06.02.09.02.14v11.06l.07.02c.56.16,1.03.52,1.31,1.03l7.59,13.31h.06c.31.66.31,1.46-.1,2.16-.4.69-1.11,1.1-1.91,1.1h-7.02v4.44c0,.29-.24.53-.53.53h-4.77v3.58c0,.29-.24.53-.53.53h-30.33ZM23.09,66.24h29.26v-3.05h-24.49c-.29,0-.53-.24-.53-.53V27.62h-4.24v38.62ZM28.39,62.12h29.26v-3.9h-7.02c-.81,0-1.5-.4-1.91-1.1s-.41-1.5,0-2.21l7.56-13.26c.29-.51.76-.88,1.31-1.03l.07-.02v-10.53h-6.4c-.29,0-.53-.24-.53-.53v-5.77h-22.32v38.36ZM58.2,41.6c-.43,0-.78.2-.99.58l-7.56,13.26c-.21.37-.21.77,0,1.14.21.37.56.57.99.57h15.12c.4,0,.74-.18.95-.52l.03-.05c.22-.36.22-.77.01-1.15l-7.56-13.26c-.21-.37-.57-.58-.99-.58ZM51.79,29h5.02l-5.02-4.56v4.56ZM31.33,59.3c-.29,0-.53-.24-.53-.53s.24-.53.53-.53h7.1c.29,0,.53.24.53.53s-.24.53-.53.53h-7.1ZM58.19,56.13c-.51,0-.99-.2-1.36-.55-.38-.36-.59-.85-.6-1.37,0-.52.19-1.02.55-1.39.33-.34.77-.55,1.24-.59,0,0,.13,0,.14,0,.56,0,1.01.19,1.38.55.38.36.59.85.6,1.37,0,.52-.19,1.01-.55,1.39-.36.38-.85.59-1.37.6h-.03ZM58.18,53.28c-.23,0-.46.1-.63.27-.16.16-.25.39-.25.63s.1.46.27.63c.16.16.37.26.57.26.3,0,.52-.1.69-.27.17-.17.26-.39.26-.63s-.1-.46-.27-.63c-.17-.16-.39-.25-.62-.25h-.01ZM31.33,53.99c-.29,0-.53-.24-.53-.53s.24-.53.53-.53h15.84c.29,0,.53.24.53.53s-.24.53-.53.53h-15.84ZM57.7,51.46c-.61,0-1.1-.47-1.2-1.12l-.48-3.24c-.08-.53.09-1.05.46-1.47.43-.49,1.08-.79,1.73-.79.73.01,1.38.33,1.8.83.36.44.51.98.43,1.5l-.54,3.22c-.1.63-.62,1.09-1.22,1.09l-.99-.02ZM58.22,45.9c-.36,0-.72.16-.95.42-.17.19-.24.4-.2.61l.48,3.24c.01.11.08.18.09.19l1.04.05c.09,0,.15-.1.17-.2l.55-3.29h-.01c.02-.27-.12-.48-.21-.58-.23-.27-.58-.44-.93-.45h-.02ZM31.33,49.74c-.29,0-.53-.24-.53-.54s.24-.53.53-.53h18.4c.29,0,.53.24.53.53s-.24.54-.53.54h-18.4ZM31.33,45.49c-.29,0-.53-.24-.53-.53s.24-.53.53-.53h20.71c.29,0,.53.24.53.53s-.24.53-.53.53h-20.71ZM31.26,41.11c-.26-.04-.46-.26-.46-.53v-13.46c0-.29.24-.53.53-.53h13.46c.29,0,.53.24.53.53v13.45c0,.29-.24.54-.53.54h-13.53ZM38.06,35.94c2.3,0,4.27,1.72,4.58,4.01v.09h1.61v-12.39h-12.39v12.39h1.6v-.09c.32-2.29,2.29-4.01,4.59-4.01ZM38.06,37.01c-1.72,0-3.19,1.22-3.5,2.91l-.02.12h7.04l-.02-.12c-.31-1.69-1.78-2.91-3.5-2.91ZM47.62,41.1c-.29,0-.53-.24-.53-.53s.24-.54.53-.54h7.1c.29,0,.53.24.53.54s-.24.53-.53.53h-7.1ZM47.62,36.89c-.29,0-.53-.24-.53-.53s.24-.53.53-.53h7.1c.29,0,.53.24.53.53s-.24.53-.53.53h-7.1ZM38.06,35.08c-1.66,0-3.01-1.35-3.01-3.01s1.35-3.01,3.01-3.01,3.01,1.35,3.01,3.01-1.35,3.01-3.01,3.01ZM38.06,30.13c-1.07,0-1.94.87-1.94,1.94s.87,1.94,1.94,1.94,1.94-.87,1.94-1.94-.87-1.94-1.94-1.94Z"/>
  </g>
</svg>