<?xml version="1.0" encoding="UTF-8"?>
<svg id="Layer_2" xmlns="http://www.w3.org/2000/svg" viewBox="0 0 90 90">
  <defs>
    <style>
      .cls-1 {
        fill: #fff;
      }

      .cls-2 {
        fill: #112e57;
      }
    </style>
  </defs>
  <g id="Layer_1-2" data-name="Layer_1">
    <rect class="cls-2" x="0" y="0" width="90" height="90" rx="45" ry="45"/>
    <g>
      <path class="cls-1" d="M41.41,22.98c-5.74,0-10.4,4.66-10.4,10.4s4.67,10.4,10.4,10.4,10.4-4.66,10.4-10.4-4.67-10.4-10.4-10.4ZM41.41,42.39c-4.97,0-9.01-4.04-9.01-9.01s4.04-9.01,9.01-9.01,9.01,4.05,9.01,9.01-4.05,9.01-9.01,9.01Z"/>
      <path class="cls-1" d="M41.41,22.98c-5.74,0-10.4,4.66-10.4,10.4s4.67,10.4,10.4,10.4,10.4-4.66,10.4-10.4-4.67-10.4-10.4-10.4ZM41.41,42.39c-4.97,0-9.01-4.04-9.01-9.01s4.04-9.01,9.01-9.01,9.01,4.05,9.01,9.01-4.05,9.01-9.01,9.01Z"/>
      <path class="cls-1" d="M47.8,46.86c0,.39-.31.69-.69.69h-10.65c-7.18,0-13.02,5.85-13.02,13.03v4.67h22.04c.39,0,.69.31.69.7s-.31.69-.69.69h-22.74c-.39,0-.7-.31-.7-.69v-5.37c0-7.95,6.47-14.41,14.41-14.41h10.65c.39,0,.69.31.69.69Z"/>
      <path class="cls-1" d="M47.8,46.86c0,.39-.31.69-.69.69h-10.65c-7.18,0-13.02,5.85-13.02,13.03v4.67h22.04c.39,0,.69.31.69.7s-.31.69-.69.69h-22.74c-.39,0-.7-.31-.7-.69v-5.37c0-7.95,6.47-14.41,14.41-14.41h10.65c.39,0,.69.31.69.69Z"/>
      <path class="cls-1" d="M67.96,51.35c0-.32-.24-.59-.55-.66-2.86-.57-6.58-3.24-7.77-4.22-.13-.1-.29-.16-.45-.16s-.31.06-.44.16c-.18.14-4.37,3.53-7.77,4.22-.31.06-.55.34-.55.66-.01.5-.21,12.14,8.51,15.62.08.03.16.05.25.05.08,0,.18-.02.25-.05,8.71-3.48,8.53-15.12,8.51-15.62ZM66.55,52.17c-.11,2.42-.97,10.54-7.23,13.34l-.13.06-.14-.06c-6.25-2.81-7.11-10.92-7.23-13.34v-.25s.24-.07.24-.07c2.79-.83,5.78-2.94,6.93-3.81l.2-.15.2.15c1.16.87,4.15,2.99,6.93,3.81l.24.07v.25Z"/>
      <path class="cls-1" d="M67.96,51.35c0-.32-.24-.59-.55-.66-2.86-.57-6.58-3.24-7.77-4.22-.13-.1-.29-.16-.45-.16s-.31.06-.44.16c-.18.14-4.37,3.53-7.77,4.22-.31.06-.55.34-.55.66-.01.5-.21,12.14,8.51,15.62.08.03.16.05.25.05.08,0,.18-.02.25-.05,8.71-3.48,8.53-15.12,8.51-15.62ZM66.55,52.17c-.11,2.42-.97,10.54-7.23,13.34l-.13.06-.14-.06c-6.25-2.81-7.11-10.92-7.23-13.34v-.25s.24-.07.24-.07c2.79-.83,5.78-2.94,6.93-3.81l.2-.15.2.15c1.16.87,4.15,2.99,6.93,3.81l.24.07v.25Z"/>
      <path class="cls-1" d="M62.88,55.09l-4.15,4.18c-.13.13-.31.2-.5.2s-.36-.07-.48-.2l-2.24-2.2c-.27-.27-.27-.71,0-.99.13-.13.31-.2.49-.2s.36.07.49.2l1.74,1.72,3.67-3.69c.13-.13.31-.2.49-.2s.36.07.49.2c.27.27.27.71,0,.98Z"/>
      <path class="cls-1" d="M62.88,55.09l-4.15,4.18c-.13.13-.31.2-.5.2s-.36-.07-.48-.2l-2.24-2.2c-.27-.27-.27-.71,0-.99.13-.13.31-.2.49-.2s.36.07.49.2l1.74,1.72,3.67-3.69c.13-.13.31-.2.49-.2s.36.07.49.2c.27.27.27.71,0,.98Z"/>
    </g>
  </g>
</svg>