<?xml version="1.0" encoding="UTF-8"?>
<svg id="Layer_2" xmlns="http://www.w3.org/2000/svg" viewBox="0 0 90 90">
  <defs>
    <style>
      .cls-1 {
        fill: #fff;
      }

      .cls-2 {
        fill: #112e57;
      }
    </style>
  </defs>
  <g id="Layer_1-2" data-name="Layer_1">
    <rect class="cls-2" x="0" y="0" width="90" height="90" rx="45" ry="45"/>
    <g>
      <g>
        <path class="cls-1" d="M42.71,22.2h-18.34c-1.19,0-2.09.9-2.09,2.09v16.81c0,1.2.9,2.1,2.09,2.1h18.34c1.15,0,2.09-.94,2.09-2.1v-16.81c0-1.19-.9-2.09-2.09-2.09ZM43.67,41.1c0,.57-.39.97-.96.97h-18.34c-.57,0-.97-.4-.97-.97v-16.81c0-.57.4-.96.97-.96h18.34c.57,0,.96.39.96.96v16.81Z"/>
        <path class="cls-1" d="M42.71,22.2h-18.34c-1.19,0-2.09.9-2.09,2.09v16.81c0,1.2.9,2.1,2.09,2.1h18.34c1.15,0,2.09-.94,2.09-2.1v-16.81c0-1.19-.9-2.09-2.09-2.09ZM43.67,41.1c0,.57-.39.97-.96.97h-18.34c-.57,0-.97-.4-.97-.97v-16.81c0-.57.4-.96.97-.96h18.34c.57,0,.96.39.96.96v16.81Z"/>
      </g>
      <g>
        <path class="cls-1" d="M42.71,46.8h-18.34c-1.19,0-2.09.9-2.09,2.1v16.81c0,1.19.9,2.09,2.09,2.09h18.34c1.19,0,2.09-.9,2.09-2.09v-16.81c0-1.2-.9-2.1-2.09-2.1ZM43.67,65.71c0,.57-.39.96-.96.96h-18.34c-.57,0-.97-.39-.97-.96v-16.81c0-.57.4-.97.97-.97h18.34c.57,0,.96.4.96.97v16.81Z"/>
        <path class="cls-1" d="M42.71,46.8h-18.34c-1.19,0-2.09.9-2.09,2.1v16.81c0,1.19.9,2.09,2.09,2.09h18.34c1.19,0,2.09-.9,2.09-2.09v-16.81c0-1.2-.9-2.1-2.09-2.1ZM43.67,65.71c0,.57-.39.96-.96.96h-18.34c-.57,0-.97-.39-.97-.96v-16.81c0-.57.4-.97.97-.97h18.34c.57,0,.96.4.96.97v16.81Z"/>
      </g>
      <path class="cls-1" d="M65.63,22.2h-16.05c-1.19,0-2.09.9-2.09,2.09v1.68c0,1.2.9,2.1,2.09,2.1h16.05c1.17,0,2.09-.89,2.09-2.02v-1.76c0-1.19-.9-2.09-2.09-2.09ZM66.6,26.05c0,.57-.4.96-.97.96h-16.05c-.56,0-.96-.39-.96-.96v-1.76c0-.57.4-.96.96-.96h16.05c.57,0,.97.39.97.96v1.76Z"/>
      <path class="cls-1" d="M65.63,22.2h-16.05c-1.19,0-2.09.9-2.09,2.09v1.68c0,1.2.9,2.1,2.09,2.1h16.05c1.17,0,2.09-.89,2.09-2.02v-1.76c0-1.19-.9-2.09-2.09-2.09ZM66.6,26.05c0,.57-.4.96-.97.96h-16.05c-.56,0-.96-.39-.96-.96v-1.76c0-.57.4-.96.96-.96h16.05c.57,0,.97.39.97.96v1.76Z"/>
      <g>
        <path class="cls-1" d="M65.63,37.18h-16.05c-1.19,0-2.09.9-2.09,2.09v1.76c0,1.19.9,2.09,2.09,2.09h16.05c1.19,0,2.09-.9,2.09-2.09v-1.76c0-1.19-.9-2.09-2.09-2.09ZM66.6,41.1c0,.57-.4.97-.97.97h-16.05c-.56,0-.96-.4-.96-.97v-1.75c0-.57.4-.97.96-.97h16.05c.57,0,.97.4.97.97v1.75Z"/>
        <path class="cls-1" d="M65.63,37.18h-16.05c-1.19,0-2.09.9-2.09,2.09v1.76c0,1.19.9,2.09,2.09,2.09h16.05c1.19,0,2.09-.9,2.09-2.09v-1.76c0-1.19-.9-2.09-2.09-2.09ZM66.6,41.1c0,.57-.4.97-.97.97h-16.05c-.56,0-.96-.4-.96-.97v-1.75c0-.57.4-.97.96-.97h16.05c.57,0,.97.4.97.97v1.75Z"/>
      </g>
      <path class="cls-1" d="M65.63,30.07h-16.05c-1.19,0-2.09.9-2.09,2.09v1c0,1.19.9,2.09,2.09,2.09h16.05c1.16,0,2.09-.94,2.09-2.09v-1c0-1.19-.9-2.09-2.09-2.09ZM66.6,33.16c0,.56-.4.96-.97.96h-16.05c-.56,0-.96-.4-.96-.96v-1c0-.57.4-.96.96-.96h16.05c.57,0,.97.39.97.96v1Z"/>
      <g>
        <path class="cls-1" d="M65.63,46.8h-16.05c-1.19,0-2.09.9-2.09,2.1v1.75c0,1.2.9,2.1,2.09,2.1h16.05c1.19,0,2.09-.9,2.09-2.1v-1.75c0-1.2-.9-2.1-2.09-2.1ZM66.6,50.73c0,.57-.4.97-.97.97h-16.05c-.56,0-.96-.4-.96-.97v-1.76c0-.56.4-.96.96-.96h16.05c.57,0,.97.4.97.96v1.76Z"/>
        <path class="cls-1" d="M65.63,46.8h-16.05c-1.19,0-2.09.9-2.09,2.1v1.75c0,1.2.9,2.1,2.09,2.1h16.05c1.19,0,2.09-.9,2.09-2.1v-1.75c0-1.2-.9-2.1-2.09-2.1ZM66.6,50.73c0,.57-.4.97-.97.97h-16.05c-.56,0-.96-.4-.96-.97v-1.76c0-.56.4-.96.96-.96h16.05c.57,0,.97.4.97.96v1.76Z"/>
      </g>
      <g>
        <path class="cls-1" d="M65.63,61.86h-16.05c-1.19,0-2.09.9-2.09,2.09v1.76c0,1.19.9,2.09,2.09,2.09h16.05c1.19,0,2.09-.9,2.09-2.09v-1.76c0-1.19-.9-2.09-2.09-2.09ZM66.6,65.78c0,.57-.4.97-.97.97h-16.05c-.56,0-.96-.4-.96-.97v-1.75c0-.57.4-.97.96-.97h16.05c.57,0,.97.4.97.97v1.75Z"/>
        <path class="cls-1" d="M65.63,61.86h-16.05c-1.19,0-2.09.9-2.09,2.09v1.76c0,1.19.9,2.09,2.09,2.09h16.05c1.19,0,2.09-.9,2.09-2.09v-1.76c0-1.19-.9-2.09-2.09-2.09ZM66.6,65.78c0,.57-.4.97-.97.97h-16.05c-.56,0-.96-.4-.96-.97v-1.75c0-.57.4-.97.96-.97h16.05c.57,0,.97.4.97.97v1.75Z"/>
      </g>
      <g>
        <path class="cls-1" d="M65.63,54.75h-16.05c-1.19,0-2.09.9-2.09,2.09v1c0,1.19.9,2.09,2.09,2.09h16.05c1.16,0,2.09-.94,2.09-2.09v-1c0-1.19-.9-2.09-2.09-2.09ZM66.6,57.84c0,.57-.4.96-.97.96h-16.05c-.56,0-.96-.39-.96-.96v-1c0-.56.4-.96.96-.96h16.05c.57,0,.97.4.97.96v1Z"/>
        <path class="cls-1" d="M65.63,54.75h-16.05c-1.19,0-2.09.9-2.09,2.09v1c0,1.19.9,2.09,2.09,2.09h16.05c1.16,0,2.09-.94,2.09-2.09v-1c0-1.19-.9-2.09-2.09-2.09ZM66.6,57.84c0,.57-.4.96-.97.96h-16.05c-.56,0-.96-.39-.96-.96v-1c0-.56.4-.96.96-.96h16.05c.57,0,.97.4.97.96v1Z"/>
      </g>
    </g>
  </g>
</svg>