<?xml version="1.0" encoding="UTF-8"?>
<svg id="Layer_2" xmlns="http://www.w3.org/2000/svg" viewBox="0 0 90 90">
  <defs>
    <style>
      .cls-1 {
        fill: #112e57;
      }

      .cls-2 {
        fill: #fff;
        fill-rule: evenodd;
      }
    </style>
  </defs>
  <g id="Layer_1-2" data-name="Layer_1">
    <rect class="cls-1" x="0" y="0" width="90" height="90" rx="45" ry="45"/>
    <path class="cls-2" d="M51.59,57.31l.98-4.77c.55-2.67,4.62-3.04,5.34-4.94l1.64-4.37c.64-1.21,2.19-1.24,3.28-.69l.16-7.55c.48-2.75,4.39-2.21,4.66-.22l-.36,17.54c-.02.92-.48,1.78-1.24,2.3-1.97,1.32-3.51,3.19-4.43,5.37l.54.15c1.17.32,1.87,1.53,1.56,2.7l-.83,3.09c-.32,1.18-1.53,1.87-2.71,1.56l-11.41-3.06c-1.18-.32-1.87-1.53-1.56-2.7l.82-3.06h0c.15-.57.52-1.06,1.04-1.36.51-.3,1.13-.38,1.7-.22l.82.22h0ZM45,30.13c-2.4,0-4.57,1.45-5.49,3.67-.92,2.22-.41,4.78,1.29,6.48,1.7,1.7,4.26,2.21,6.48,1.29,2.22-.92,3.67-3.09,3.67-5.49,0-3.29-2.66-5.95-5.95-5.95h0ZM48.53,32.54c-1.43-1.43-3.58-1.85-5.44-1.08-1.87.77-3.08,2.59-3.08,4.61s1.22,3.84,3.08,4.62c1.87.77,4.01.34,5.44-1.08,1.95-1.95,1.95-5.11,0-7.06h0ZM47.75,24.05c-.35-2.16-5.15-2.16-5.49,0l-.12.74c-.11.71-2.51,1.71-3.09,1.28l-.6-.44c-1.8-1.31-5.19,2.08-3.89,3.89l.44.6c.45.63-.63,2.99-1.28,3.09l-.74.12c-2.18.35-2.18,5.14,0,5.49l.74.12c.71.11,1.71,2.51,1.28,3.09l-.44.6c-1.31,1.8,2.08,5.19,3.89,3.89l.6-.44c.63-.45,2.99.63,3.09,1.28l.12.74c.35,2.16,5.15,2.16,5.49,0l.12-.74c.11-.71,2.51-1.71,3.09-1.28l.6.44c1.8,1.31,5.19-2.08,3.89-3.89l-.44-.6c-.45-.63.63-2.99,1.28-3.09l.74-.12c2.18-.35,2.18-5.14,0-5.49l-.74-.12c-.71-.11-1.71-2.51-1.28-3.09l.44-.6c1.31-1.8-2.08-5.19-3.89-3.89l-.6.44c-.63.45-2.99-.63-3.09-1.28l-.12-.74ZM46.93,24.93l-.12-.74c-.17-1.07-3.45-1.07-3.62,0l-.12.74c-.22,1.41-3.4,2.76-4.59,1.9l-.6-.44c-.91-.66-3.22,1.64-2.56,2.56l.44.6c.83,1.15-.45,4.36-1.9,4.59l-.74.12c-1.1.18-1.1,3.44,0,3.62l.74.12c1.41.22,2.76,3.4,1.9,4.59l-.44.6c-.66.91,1.64,3.22,2.56,2.56l.6-.44c1.15-.83,4.36.45,4.59,1.9l.12.74c.17,1.08,3.45,1.07,3.62,0l.12-.74c.22-1.41,3.4-2.76,4.59-1.9l.6.44c.91.66,3.22-1.64,2.56-2.56l-.44-.6c-.83-1.15.45-4.36,1.9-4.59l.74-.12c1.1-.18,1.1-3.44,0-3.62l-.74-.12c-1.41-.23-2.76-3.4-1.9-4.59l.44-.6c.66-.91-1.64-3.22-2.56-2.56l-.6.44c-1.15.83-4.36-.45-4.59-1.9ZM41.58,60.9l-6.34,1.7c-.25.07-.52-.08-.58-.34-.07-.25.08-.51.34-.58l6.34-1.7-.29-1.08c-.18-.67-.87-1.07-1.54-.89l-11.41,3.06h0c-.67.18-1.07.87-.89,1.54l.83,3.09c.18.67.87,1.07,1.54.89l11.41-3.06h0c.67-.18,1.07-.87.89-1.54l-.29-1.08ZM42.78,61.73h0c.31,1.18-.39,2.39-1.56,2.71l-11.41,3.06c-1.18.31-2.38-.39-2.7-1.56l-.83-3.09c-.31-1.18.39-2.39,1.56-2.7l.55-.15c-.92-2.19-2.46-4.05-4.44-5.37-.76-.52-1.22-1.38-1.24-2.3l-.36-17.55c.27-1.99,4.18-2.53,4.66.22l.17,7.55c1.1-.55,2.64-.52,3.28.69l1.64,4.37c.71,1.9,4.79,2.27,5.34,4.94l.98,4.77.87-.23h0c1.16-.29,2.34.39,2.67,1.54.32.93.57,2.14.84,3.12h0ZM29.31,59.75c-.98-2.4-2.65-4.45-4.8-5.9-.52-.35-.83-.93-.84-1.55l-.37-17.43c.17-.93,2.5-1.33,2.77.25l.17,8.16c-.38.46-.51,1.09-.33,1.66l1.52,5.13c.08.25.34.39.59.31.25-.07.39-.33.32-.58l-1.52-5.13c-.36-1.26,2.16-2.13,2.78-1.03l1.6,4.27c.88,2.35,4.87,2.71,5.3,4.8l.99,4.83-8.18,2.19ZM48.67,59.98l6.34,1.7h0c.25.07.41.33.34.58-.07.25-.33.41-.58.34l-6.34-1.7-.29,1.08h0c-.18.67.22,1.36.89,1.54l11.41,3.06h0c.32.09.66.04.95-.13.29-.17.5-.44.58-.76l.83-3.09c.13-.66-.25-1.32-.89-1.54l-11.41-3.06h0c-.67-.18-1.36.22-1.54.89l-.29,1.09h0ZM60.69,59.75h0c.98-2.4,2.65-4.45,4.8-5.9.52-.35.83-.93.84-1.55l.36-17.43c-.17-.93-2.5-1.33-2.77.25l-.17,8.16c.38.46.51,1.09.33,1.66l-1.52,5.13c-.08.25-.34.39-.59.31-.25-.07-.39-.33-.32-.58l1.52-5.13c.36-1.26-2.16-2.13-2.78-1.03l-1.6,4.27c-.88,2.35-4.87,2.71-5.3,4.8l-.99,4.83,8.19,2.19Z"/>
  </g>
</svg>