<?xml version="1.0" encoding="UTF-8"?>
<svg id="Layer_2" xmlns="http://www.w3.org/2000/svg" viewBox="0 0 90 90">
  <defs>
    <style>
      .cls-1 {
        fill: #fff;
      }

      .cls-2 {
        fill: #112e57;
      }
    </style>
  </defs>
  <g id="Layer_1-2" data-name="Layer_1">
    <rect class="cls-2" x="0" y="0" width="90" height="90" rx="45" ry="45"/>
    <path class="cls-1" d="M26.3,61.6c-2.29,0-4.26-1.71-4.59-3.99-.36-2.53,1.41-4.88,3.94-5.24.22-.03.44-.05.66-.05,2.29,0,4.27,1.71,4.59,3.99v.09h10.53v-.08c.28-1.53,1.5-2.75,3.03-3.02.22-.04.44-.06.65-.06,1.8,0,3.34,1.29,3.66,3.07v.08h10.33v-.09c.34-2.27,2.31-3.99,4.6-3.99,2.3,0,4.27,1.71,4.59,3.99.17,1.23-.14,2.45-.88,3.44-.75.99-1.83,1.63-3.06,1.8-.22.03-.44.05-.66.05h0c-2.29,0-4.26-1.71-4.59-3.99v-.09h-10.33v.08c-.28,1.53-1.5,2.75-3.03,3.02-.22.04-.43.06-.65.06-1.81,0-3.34-1.29-3.66-3.07v-.08h-10.53v.09c-.3,2.03-1.92,3.65-3.96,3.94-.22.03-.44.05-.66.05ZM63.7,53.45c-1.94,0-3.51,1.57-3.51,3.51,0,.94.36,1.82,1.03,2.48.66.66,1.54,1.03,2.48,1.03,1.93,0,3.51-1.58,3.51-3.51,0-1.94-1.57-3.51-3.51-3.51ZM26.31,53.45c-1.94,0-3.51,1.57-3.51,3.51s1.57,3.51,3.51,3.51c1.93,0,3.51-1.58,3.51-3.51,0-1.94-1.57-3.51-3.51-3.51ZM45.1,54.37c-1.43,0-2.59,1.16-2.59,2.59s1.16,2.59,2.59,2.59c1.43,0,2.59-1.16,2.59-2.59,0-1.43-1.16-2.59-2.59-2.59ZM45.16,50.98c-.16,0-.33-.02-.48-.06l-2.3-.62c-.83-.22-1.4-.98-1.38-1.83l.02-1.18c0-.22-.09-.44-.27-.58-.5-.42-.97-.9-1.37-1.42-.13-.18-.34-.29-.57-.29,0,0-1.05.02-1.06.02-.88,0-1.62-.57-1.83-1.38l-.62-2.3c-.22-.83.15-1.7.9-2.12l1.03-.58c.2-.1.34-.3.37-.52.05-.26.11-.53.18-.8.1-.38.22-.75.37-1.1.09-.21.08-.46-.05-.66l-.53-.88c-.44-.74-.33-1.67.28-2.28l1.68-1.68c.35-.35.82-.55,1.32-.55.34,0,.67.09.96.27l1.01.61c.11.07.24.11.38.11.09,0,.18-.02.26-.05.62-.23,1.27-.39,1.92-.48.23-.02.44-.16.55-.37l.5-.89c.33-.59.95-.96,1.63-.96.17,0,.33.02.49.07l2.29.62c.83.22,1.4.97,1.38,1.83l-.02,1.18c0,.22.09.44.27.58.51.42.97.9,1.37,1.42.13.18.34.29.57.29l1.06-.02c.88,0,1.62.57,1.83,1.38l.62,2.29c.22.83-.15,1.7-.9,2.11l-1.03.58c-.2.1-.34.3-.37.52-.11.65-.3,1.29-.55,1.9-.1.21-.08.46.05.66l.53.88c.44.74.33,1.67-.28,2.28l-1.68,1.68c-.35.35-.82.55-1.32.55-.34,0-.67-.09-.96-.27l-1.01-.61c-.11-.07-.24-.11-.38-.11-.09,0-.18.02-.26.05-.62.23-1.27.39-1.92.48-.23.02-.44.16-.55.37l-.5.89c-.33.59-.95.96-1.63.96ZM38.81,43.87c.57,0,1.11.27,1.46.73.35.46.76.88,1.2,1.25.44.35.69.9.67,1.46l-.02,1.18c-.01.34.22.64.55.73l2.29.62c.06.02.13.03.2.03.27,0,.51-.15.64-.38l.5-.9c.28-.52.8-.87,1.38-.94.57-.08,1.14-.22,1.68-.42.21-.08.42-.12.65-.12.34,0,.67.09.96.27l1.01.61c.11.07.25.11.38.11.2,0,.39-.08.52-.22l1.68-1.68c.24-.24.29-.62.11-.9l-.53-.88c-.31-.5-.36-1.12-.13-1.66.22-.54.38-1.1.48-1.67.09-.56.43-1.04.93-1.31l1.03-.58c.3-.16.45-.51.35-.84l-.61-2.29c-.08-.32-.37-.55-.7-.55,0,0-1.05.02-1.05.02-.62,0-1.16-.27-1.5-.73-.35-.46-.76-.88-1.2-1.25-.44-.36-.68-.89-.67-1.46l.02-1.18c.01-.34-.22-.64-.55-.72l-2.29-.62c-.06-.02-.13-.03-.2-.03-.27,0-.51.15-.64.38l-.5.89c-.28.52-.79.87-1.38.94-.58.08-1.14.22-1.69.42-.21.08-.42.12-.65.12-.34,0-.67-.09-.96-.27l-1.02-.61c-.11-.07-.25-.11-.38-.11-.2,0-.39.08-.52.22l-1.68,1.68c-.24.23-.29.61-.11.9l.53.88c.31.5.35,1.12.13,1.66-.13.32-.24.64-.32.97-.06.23-.11.47-.15.7-.09.55-.44,1.04-.93,1.31l-1.03.58c-.3.16-.45.51-.35.84l.61,2.29c.08.32.37.55.7.55l1.1-.02ZM46.61,46.21c-.57,0-1.14-.08-1.69-.22-3.46-.94-5.52-4.52-4.61-7.98.76-2.85,3.35-4.83,6.29-4.83.57,0,1.14.08,1.69.22,3.47.93,5.54,4.51,4.6,7.98-.76,2.84-3.35,4.83-6.29,4.83h0ZM46.6,34.31c-2.43,0-4.57,1.64-5.2,3.99-.76,2.86.95,5.82,3.81,6.6.46.12.93.18,1.4.18,2.43,0,4.57-1.64,5.2-3.99.37-1.39.18-2.84-.54-4.09s-1.88-2.14-3.27-2.51c-.46-.12-.93-.18-1.4-.18ZM28.25,46.11c-.31,0-.56-.24-.56-.55,0-.15.05-.29.15-.4.1-.11.24-.17.39-.18h7.07c.15,0,.29.06.4.17.11.11.16.25.16.4,0,.31-.25.57-.56.57h-7.05ZM25.91,41.18c-.31,0-.56-.25-.56-.56s.25-.56.56-.56h8.28c.31,0,.56.25.56.56s-.25.56-.56.56h-8.28ZM28.27,36.84c-.31,0-.56-.25-.56-.56,0-.31.25-.57.56-.57h7.03c.33,0,.57.24.58.55,0,.15-.05.29-.15.4-.1.11-.24.17-.39.18h-7.07Z"/>
  </g>
</svg>