<?xml version="1.0" encoding="UTF-8"?>
<svg id="Layer_2" xmlns="http://www.w3.org/2000/svg" viewBox="0 0 90 90">
  <defs>
    <style>
      .cls-1 {
        fill: #112e57;
      }

      .cls-2 {
        fill: #fff;
        fill-rule: evenodd;
      }
    </style>
  </defs>
  <g id="Layer_1-2" data-name="Layer_1">
    <rect class="cls-1" x="0" y="0" width="90" height="90" rx="45" ry="45"/>
    <path class="cls-2" d="M58.24,68.1c-2.56,0-4.96-.35-6.77-.99-2.56-.9-3.1-2.04-3.1-2.84v-6.35l-.17.12c-.78.55-1.32,1.5-1.56,2.75-.19.98-.98,1.71-1.96,1.82-.77.09-1.57.14-2.36.14-.75,0-1.54-.05-2.36-.14-.99-.11-1.78-.84-1.96-1.82-.29-1.52-1.03-2.6-2.08-3.04-.34-.14-.7-.21-1.09-.21-.79,0-1.67.31-2.53.89-.38.26-.81.39-1.27.39-.51,0-1-.17-1.4-.49-1.24-.98-2.37-2.11-3.35-3.35-.61-.77-.65-1.85-.1-2.66.87-1.28,1.11-2.57.67-3.61-.43-1.04-1.5-1.78-3.02-2.07-.97-.19-1.7-.98-1.81-1.96-.18-1.55-.18-3.12,0-4.68.11-.98.84-1.77,1.81-1.96,1.52-.3,2.59-1.04,3.02-2.08.43-1.05.19-2.33-.67-3.61-.55-.82-.51-1.89.1-2.67,1-1.25,2.12-2.38,3.35-3.35.4-.32.9-.49,1.4-.49.45,0,.89.13,1.27.39.86.58,1.73.89,2.52.89.39,0,.75-.07,1.09-.21,1.05-.43,1.78-1.51,2.08-3.04.19-.98.98-1.71,1.96-1.82.78-.09,1.58-.14,2.37-.14s1.58.05,2.36.14c.99.11,1.78.84,1.96,1.82.29,1.52,1.03,2.6,2.08,3.04.34.14.71.21,1.09.21.79,0,1.67-.31,2.53-.89.38-.26.81-.39,1.27-.39.51,0,1,.17,1.4.49,1.24.98,2.36,2.1,3.35,3.35.62.78.66,1.85.1,2.67-.87,1.28-1.11,2.56-.67,3.61.43,1.05,1.5,1.78,3.02,2.08.97.19,1.7.98,1.81,1.96.1.88.14,1.81.12,2.76v.09s.09.02.09.02c.81.16,1.55.35,2.18.58,2.56.9,3.1,2.04,3.1,2.83v18.01c0,.8-.54,1.93-3.1,2.84-1.81.64-4.21.99-6.77.99ZM49.48,64.28c0,1.26,3.83,2.73,8.76,2.73s8.76-1.47,8.76-2.73v-4.16l-.17.11c-.5.34-1.12.63-1.83.88-1.81.64-4.22.99-6.77.99s-4.96-.35-6.77-.99c-.73-.26-1.34-.55-1.83-.88l-.17-.11v4.16ZM34.83,56.44c.53,0,1.04.1,1.51.29,1.4.59,2.37,1.95,2.74,3.85.1.51.49.87,1.01.93.74.08,1.49.13,2.24.13s1.5-.04,2.24-.13c.51-.06.91-.43,1.01-.93.37-1.9,1.34-3.27,2.74-3.85l.07-.03v-5.71s-.16.11-.16.11c-1.76,1.18-3.79,1.8-5.89,1.8-5.84,0-10.59-4.75-10.59-10.59s4.75-10.59,10.59-10.59,10.58,4.75,10.58,10.59c0,.17,0,.34-.02.51v.16s.14,0,.14,0c1.54-.36,3.34-.54,5.2-.54,1.09,0,2.2.07,3.28.21l.12.02v-.12c.01-.79-.03-1.61-.12-2.43-.06-.51-.42-.91-.93-1.01-1.89-.37-3.25-1.34-3.83-2.73-.58-1.39-.3-3.04.78-4.65.29-.42.27-.96-.05-1.37-.93-1.17-2-2.24-3.17-3.17-.21-.17-.46-.26-.72-.26-.23,0-.45.07-.65.2-1.04.7-2.13,1.07-3.14,1.07-.53,0-1.04-.1-1.51-.29-1.4-.58-2.37-1.95-2.74-3.85-.1-.51-.49-.88-1.01-.93-.74-.08-1.49-.13-2.24-.13s-1.5.04-2.24.13c-.51.05-.91.42-1.01.93-.37,1.9-1.34,3.27-2.74,3.85-.48.2-.99.3-1.51.3-1.01,0-2.1-.37-3.13-1.08-.2-.13-.42-.2-.65-.2-.26,0-.51.09-.72.26-1.18.94-2.24,2-3.17,3.17-.32.41-.34.94-.05,1.37,1.08,1.6,1.36,3.25.78,4.65-.58,1.39-1.94,2.36-3.83,2.73-.5.1-.87.49-.93,1.01-.17,1.47-.17,2.96,0,4.43.06.51.42.91.93,1.01,1.89.36,3.25,1.33,3.83,2.73.58,1.39.3,3.05-.78,4.65-.29.42-.27.96.05,1.37.93,1.17,2,2.24,3.17,3.17.21.17.46.26.72.26.23,0,.45-.07.65-.2,1.04-.7,2.13-1.07,3.14-1.07ZM49.48,58.27c0,1.26,3.83,2.73,8.76,2.73s8.76-1.47,8.76-2.73v-4.16l-.17.11c-.5.34-1.12.63-1.83.88-1.81.64-4.22.99-6.77.99s-4.96-.35-6.77-.99c-.73-.25-1.34-.55-1.83-.88l-.17-.12v4.16ZM49.48,52.27c0,1.26,3.83,2.73,8.76,2.73s8.76-1.47,8.76-2.73v-4.16l-.17.11c-.5.34-1.12.63-1.83.88-1.81.64-4.22.99-6.77.99s-4.96-.35-6.77-.99c-.73-.26-1.34-.55-1.83-.88l-.17-.12v4.16ZM42.32,32.84c-5.23,0-9.49,4.26-9.49,9.49s4.26,9.49,9.49,9.49c2.19,0,4.32-.77,6.01-2.16l.23-.19h-.2v-3.2c0-.8.54-1.93,3.1-2.84l.28-.09v-.07c.04-.31.06-.63.06-.94,0-5.23-4.26-9.49-9.49-9.49ZM58.24,43.53c-4.93,0-8.76,1.47-8.76,2.73s3.83,2.73,8.76,2.73,8.76-1.47,8.76-2.73-3.83-2.72-8.76-2.73h0ZM53.39,64.86c-.44,0-.79-.35-.79-.79s.35-.79.79-.79.79.35.79.79-.35.79-.79.79ZM53.39,58.86c-.44,0-.79-.35-.79-.79s.35-.79.79-.79.79.35.79.79-.35.79-.79.79ZM53.39,52.85c-.44,0-.79-.35-.79-.79s.35-.79.79-.79.79.35.79.79-.35.79-.79.79Z"/>
    <path class="cls-2" d="M58.24,68c-2.55,0-4.94-.35-6.74-.99-2.51-.88-3.03-1.98-3.03-2.74v-6.54l-.33.23c-.8.56-1.36,1.53-1.6,2.81-.18.93-.94,1.63-1.87,1.74-.76.09-1.55.14-2.35.14-.75,0-1.54-.05-2.35-.14-.94-.11-1.7-.8-1.87-1.74-.29-1.55-1.05-2.66-2.14-3.11-.35-.15-.73-.22-1.13-.22-.81,0-1.7.31-2.58.9-.36.25-.78.38-1.21.38-.48,0-.96-.17-1.34-.47-1.24-.98-2.36-2.1-3.33-3.33-.59-.74-.63-1.76-.1-2.55.89-1.31,1.13-2.63.68-3.71-.44-1.08-1.54-1.83-3.09-2.13-.93-.18-1.62-.94-1.73-1.87-.18-1.54-.18-3.11,0-4.66.11-.94.8-1.69,1.73-1.87,1.55-.31,2.65-1.07,3.09-2.14.45-1.08.2-2.4-.69-3.71-.53-.78-.49-1.8.1-2.55.99-1.25,2.11-2.37,3.33-3.33.38-.3.86-.47,1.34-.47.43,0,.85.13,1.21.37.87.59,1.76.9,2.58.9.4,0,.78-.07,1.13-.22,1.08-.45,1.84-1.55,2.14-3.11.18-.93.94-1.63,1.87-1.74.78-.09,1.57-.14,2.36-.14s1.58.05,2.35.14c.94.11,1.7.81,1.87,1.74.29,1.56,1.05,2.66,2.14,3.11.35.14.73.22,1.13.22.81,0,1.71-.31,2.58-.9.36-.25.78-.38,1.21-.38.48,0,.96.17,1.34.47,1.23.97,2.35,2.09,3.33,3.33.59.74.63,1.76.1,2.55-.89,1.31-1.13,2.63-.68,3.71.44,1.08,1.54,1.84,3.09,2.14.93.18,1.62.94,1.73,1.87.1.89.14,1.81.12,2.75v.17s.17.03.17.03c.81.16,1.54.35,2.17.57,2.5.88,3.03,1.98,3.04,2.74v18.01c0,.76-.53,1.86-3.03,2.74-1.8.64-4.2.99-6.74.99ZM49.38,64.28c0,1.33,3.79,2.83,8.86,2.83s8.86-1.49,8.86-2.83v-4.35l-.32.22c-.49.33-1.1.62-1.8.87-1.81.64-4.2.99-6.74.99s-4.94-.35-6.74-.99c-.72-.25-1.33-.55-1.8-.87l-.32-.22v4.35ZM34.83,56.54c.51,0,1.01.1,1.47.29,1.37.57,2.32,1.91,2.68,3.78.11.55.54.95,1.09,1.01.74.09,1.5.13,2.25.13s1.51-.04,2.25-.13c.56-.06.99-.46,1.09-1.01.36-1.87,1.31-3.21,2.68-3.78l.13-.05v-5.96s-.32.22-.32.22c-1.74,1.16-3.76,1.78-5.83,1.78-5.78,0-10.49-4.7-10.49-10.49s4.7-10.49,10.49-10.49,10.49,4.7,10.49,10.49c0,.17,0,.34-.02.5v.27s.25-.02.25-.02c1.55-.36,3.34-.55,5.19-.55,1.1,0,2.2.07,3.27.21l.23.03v-.23c.01-.79-.03-1.61-.12-2.44-.06-.56-.46-.99-1.01-1.09-1.85-.36-3.19-1.31-3.75-2.67-.57-1.36-.29-2.98.77-4.56.31-.46.29-1.04-.05-1.48-.94-1.18-2.01-2.25-3.18-3.19-.23-.18-.5-.28-.78-.28-.25,0-.49.08-.7.22-1.02.69-2.09,1.06-3.08,1.06-.51,0-1.01-.1-1.47-.29-1.37-.57-2.32-1.91-2.68-3.78-.11-.55-.54-.95-1.09-1.02-.74-.08-1.5-.13-2.25-.13s-1.51.04-2.25.13c-.56.06-.99.45-1.09,1.01-.36,1.87-1.31,3.21-2.68,3.78-.46.19-.96.29-1.48.29-.99,0-2.06-.37-3.08-1.06-.21-.14-.46-.22-.71-.22-.28,0-.55.1-.78.28-1.19.94-2.26,2.02-3.18,3.19-.35.44-.37,1.02-.05,1.49,1.06,1.57,1.33,3.19.77,4.55-.56,1.36-1.9,2.31-3.75,2.67-.55.11-.94.53-1.01,1.09-.17,1.48-.17,2.97,0,4.45.06.56.46.99,1.01,1.09,1.85.36,3.19,1.31,3.75,2.67.57,1.36.29,2.98-.77,4.55-.31.46-.29,1.04.05,1.48.94,1.18,2.01,2.25,3.18,3.19.23.18.5.28.78.28.25,0,.49-.08.7-.22,1.03-.69,2.09-1.06,3.08-1.06ZM49.38,58.27c0,1.33,3.79,2.83,8.86,2.83s8.86-1.49,8.86-2.83v-4.35l-.32.22c-.49.33-1.1.62-1.8.87-1.8.64-4.2.99-6.74.99s-4.94-.35-6.74-.99c-.72-.25-1.33-.55-1.8-.87l-.32-.22v4.35ZM49.38,52.27c0,1.33,3.79,2.83,8.86,2.83s8.86-1.49,8.86-2.83v-4.35l-.32.22c-.49.33-1.1.62-1.8.87-1.8.64-4.2.99-6.74.99s-4.94-.35-6.74-.99c-.72-.25-1.33-.55-1.8-.87l-.32-.22v4.35ZM42.32,32.74c-5.29,0-9.59,4.3-9.59,9.59s4.3,9.59,9.59,9.59c2.21,0,4.37-.77,6.08-2.18l.45-.37h-.38v-3.1c0-.76.53-1.86,3.03-2.74l.22-.07.12-.04v-.13c.04-.31.06-.63.06-.95,0-5.29-4.3-9.59-9.59-9.59ZM58.24,43.44c-5.07,0-8.86,1.49-8.86,2.83s3.79,2.83,8.86,2.83,8.86-1.49,8.86-2.83-3.79-2.83-8.86-2.83h0ZM53.39,64.76c-.38,0-.69-.31-.69-.69s.31-.69.69-.69.69.31.69.69-.31.69-.69.69ZM53.39,58.76c-.38,0-.69-.31-.69-.69s.31-.69.69-.69.69.31.69.69-.31.69-.69.69ZM53.39,52.75c-.38,0-.69-.31-.69-.69s.31-.69.69-.69.69.31.69.69-.31.69-.69.69Z"/>
  </g>
</svg>