<?xml version="1.0" encoding="UTF-8"?>
<svg id="Layer_2" xmlns="http://www.w3.org/2000/svg" viewBox="0 0 90 90">
  <defs>
    <style>
      .cls-1 {
        fill: #fff;
      }

      .cls-2 {
        fill: #112e57;
      }
    </style>
  </defs>
  <g id="Layer_1-2" data-name="Layer_1">
    <rect class="cls-2" x="0" y="0" width="90" height="90" rx="45" ry="45"/>
    <path class="cls-1" d="M28.19,68.93c-.77,0-1.44-.46-1.73-1.17l-4-10.06c-.38-.95.09-2.04,1.04-2.42l1.51-.6c.22-.09.45-.13.69-.13.77,0,1.45.46,1.73,1.17l.24.62.09-.03c1.52-.57,3.17-1.23,3.83-1.85,2.43-2.27,5-3.29,8.33-3.29.23,0,.47,0,.71.02.61.03,1.15.04,1.62.04,2.37,0,3.12-.3,4.25-.76,1.08-.46,2.22-.82,3.37-1.09.33-.08.67-.12.99-.12,1.56,0,2.43.95,2.71,1.76.39,1.14-.05,2.66-1.92,3.51l-8.38,3.81.03.15c0,.05.08.11.16.11h.16c2.57,0,7.47-1.35,8.7-1.99l.44-.23q4.54-2.35,6.45-3.59l.39-.25c.83-.53,1.94-1.25,3.72-2.35.67-.42,1.33-.63,1.97-.63.83,0,1.58.38,2.01,1.03.34.55.45,1.2.31,1.83-.15.62-.53,1.15-1.07,1.49-1.88,1.31-6.64,4.73-10.07,7.2l-2.38,1.71c-3.99,1.87-7.39,2.78-10.41,2.78-1.87-.02-3.71-.36-5.46-1.02-.69-.27-1.42-.45-2.16-.54-.13,0-.26,0-.38,0-1.55,0-3.05.32-4.46.96l-.09.04.3.75c.38.95-.09,2.04-1.04,2.42l-1.51.6c-.22.09-.45.13-.69.13ZM25.7,55.67c-.09,0-.18.02-.27.05l-1.51.6c-.38.15-.56.58-.41.96l4,10.06c.11.28.38.47.69.47.09,0,.19-.02.27-.05l1.51-.6c.18-.07.33-.21.41-.4.08-.17.08-.39,0-.56l-4-10.06c-.12-.28-.39-.46-.69-.46ZM35.67,62.91c.15,0,.29,0,.44,0,.84.09,1.67.29,2.46.59,1.31.43,2.94.97,5.14.97,2.8,0,6-.85,9.76-2.61l2.54-1.82c2.57-1.85,7.91-5.69,9.88-7.06.33-.2.54-.48.62-.82.08-.33.03-.68-.15-.97-.22-.34-.62-.53-1.07-.53-.42,0-.88.16-1.38.47-1.95,1.22-3.11,1.96-3.95,2.5l-.15.1q-1.96,1.26-6.54,3.64l-.44.23c-1.5.78-6.64,2.12-9.24,2.12h-.16c-.6,0-1.12-.45-1.23-1.04-.11-.59.19-1.18.75-1.42l8.25-3.75c1.31-.59,1.53-1.52,1.32-2.12-.17-.48-.69-1-1.65-1-.23,0-.48.03-.73.09-1.1.25-2.18.6-3.21,1.04-1.21.49-2.09.85-4.68.85-.49,0-1.03-.01-1.66-.04-.23,0-.45-.01-.67-.01-3.02,0-5.35.92-7.56,2.99-.75.7-2.22,1.33-4.18,2.07l-.1.04,2.63,6.61.09-.04c1.54-.69,3.18-1.04,4.86-1.04ZM48.51,47.72c-3.55,0-6.89-1.38-9.4-3.9-2.52-2.51-3.91-5.86-3.91-9.42s1.38-6.91,3.9-9.43c2.51-2.52,5.86-3.91,9.42-3.91,7.35,0,13.33,5.97,13.34,13.32,0,3.56-1.38,6.91-3.9,9.43-2.51,2.52-5.86,3.91-9.42,3.91h-.03ZM48.54,22.18c-3.26,0-6.33,1.27-8.64,3.58l-.11.11c-2.28,2.31-3.52,5.36-3.5,8.6.02,3.24,1.3,6.28,3.61,8.56,2.31,2.31,5.37,3.58,8.64,3.58s6.33-1.27,8.64-3.58c4.76-4.76,4.76-12.51,0-17.27-2.31-2.31-5.38-3.58-8.64-3.58ZM48.54,45.8c-.3,0-.55-.24-.56-.54v-1.09c0-.15.05-.29.15-.4.1-.11.24-.17.39-.17.32,0,.57.24.58.54v1.09c0,.31-.24.57-.54.58h-.02ZM56.21,42.63c-.14,0-.27-.05-.38-.15l-.79-.79c-.23-.21-.25-.57-.04-.79.1-.12.26-.18.41-.18.14,0,.27.05.38.14l.79.79c.23.21.25.56.04.79-.11.12-.26.18-.41.18ZM40.88,42.61c-.15,0-.29-.06-.39-.16-.11-.1-.16-.24-.16-.39s.06-.29.16-.39l.75-.75c.1-.09.23-.13.36-.13.16,0,.32.07.42.19.18.21.18.53,0,.73l-.74.74c-.11.11-.25.16-.39.16ZM48.56,36.18c-.73,0-1.38-.46-1.61-1.15l-.02-.07h-3.98c-.29,0-.53-.24-.54-.54,0-.15.05-.29.15-.4.11-.11.25-.17.39-.17h3.98l.03-.06c.29-.67.9-1.08,1.59-1.08.24,0,.47.05.68.14l.06.03,4.01-4c.1-.09.23-.13.36-.13s.26.05.37.14c.23.2.26.56.06.79l-4,4s.08.19.11.25c.31.89-.17,1.87-1.06,2.17-.18.06-.37.09-.56.09ZM48.54,33.81c-.16,0-.31.06-.42.17-.23.23-.23.6,0,.83.11.11.26.17.42.17s.31-.06.42-.17c.11-.11.17-.26.17-.42s-.06-.3-.17-.42-.26-.17-.42-.17ZM58.3,34.96c-.31,0-.56-.25-.56-.56s.25-.56.56-.56h1.06c.15,0,.29.07.39.17.1.11.16.25.15.4,0,.29-.25.53-.54.54h-1.06ZM37.7,34.96c-.31,0-.55-.24-.56-.54,0-.15.05-.29.15-.4.1-.11.24-.17.39-.17h1.09c.31,0,.56.25.56.56s-.25.56-.56.56h-1.07ZM41.66,28.08c-.13,0-.27-.05-.37-.13l-.81-.81c-.23-.21-.25-.56-.04-.79.11-.12.26-.18.42-.18.14,0,.27.05.38.15l.79.79c.12.1.19.24.2.39.01.15-.04.29-.14.41-.1.12-.26.19-.42.19ZM55.44,28.05c-.15,0-.29-.06-.4-.16-.22-.22-.22-.57,0-.79l.75-.75c.1-.11.25-.16.4-.16s.29.06.4.16c.11.1.16.24.16.39s-.06.29-.16.4l-.75.75c-.1.11-.24.16-.39.16ZM48.52,25.17c-.3,0-.54-.25-.54-.54v-1.05c0-.15.05-.29.15-.4.1-.11.24-.17.39-.17.32,0,.57.24.58.54v1.09c0,.3-.25.54-.56.54h-.01Z"/>
    <path class="cls-1" d="M28.19,68.83c-.73,0-1.37-.44-1.64-1.11l-4-10.06c-.36-.9.09-1.93.99-2.29l1.51-.6c.21-.08.43-.12.65-.12.73,0,1.37.44,1.64,1.11l.28.71.18-.07c1.53-.57,3.19-1.24,3.86-1.87,2.41-2.25,4.96-3.26,8.26-3.26.23,0,.47,0,.71.02.62.03,1.15.04,1.62.04,2.38,0,3.14-.31,4.29-.77,1.08-.46,2.21-.82,3.36-1.08.33-.08.66-.12.96-.12,1.5,0,2.35.91,2.61,1.69.37,1.09-.06,2.56-1.86,3.39l-8.38,3.81-.03.23c.02.13.13.23.26.23h.16c2.58,0,7.51-1.36,8.75-2l.44-.23q4.54-2.36,6.46-3.59l.23-.15c.84-.54,1.99-1.28,3.89-2.46.66-.41,1.3-.62,1.92-.62.8,0,1.52.37,1.92.99.33.53.43,1.15.29,1.75s-.5,1.11-1.03,1.43c-1.93,1.34-6.83,4.87-10.07,7.2l-2.38,1.71c-3.99,1.87-7.36,2.76-10.35,2.76-1.86-.02-3.68-.36-5.43-1.01-.7-.27-1.44-.45-2.19-.54-.14,0-.27,0-.39,0-1.56,0-3.08.33-4.5.97l-.17.08.33.84c.36.9-.09,1.93-.98,2.29l-1.51.6c-.21.08-.43.12-.65.12ZM25.7,55.57c-.11,0-.21.02-.31.06l-1.51.6c-.43.17-.64.66-.47,1.09l4,10.06c.13.32.43.53.78.53.11,0,.21-.02.31-.06l1.51-.6c.21-.08.37-.24.46-.45.09-.2.09-.44,0-.64l-4-10.06c-.13-.32-.44-.53-.78-.53ZM35.68,63.01c.14,0,.29,0,.43,0,.82.08,1.64.28,2.42.58,1.32.44,2.96.98,5.18.98,2.81,0,6.02-.86,9.81-2.62l2.56-1.83c3.19-2.29,8-5.76,9.88-7.06.36-.22.58-.52.67-.88.09-.36.03-.73-.16-1.04-.25-.37-.67-.58-1.16-.58-.44,0-.92.16-1.43.48-1.95,1.22-3.11,1.96-3.95,2.5l-.15.1q-1.96,1.26-6.53,3.64l-.44.23c-1.5.77-6.6,2.11-9.2,2.11h-.16c-.55,0-1.03-.41-1.13-.96-.1-.55.18-1.09.69-1.31l8.25-3.75c1.37-.62,1.6-1.6,1.37-2.25-.18-.52-.73-1.07-1.74-1.07-.24,0-.49.03-.75.09-1.1.25-2.19.6-3.23,1.04-1.2.49-2.07.84-4.64.84-.49,0-1.03-.01-1.65-.04-.23,0-.46-.01-.68-.01-3.05,0-5.4.93-7.63,3.01-.74.69-2.19,1.32-4.14,2.04l-.19.07,2.71,6.8.19-.08c1.53-.68,3.15-1.03,4.82-1.03ZM48.51,47.63c-3.53,0-6.84-1.37-9.33-3.87-2.5-2.5-3.88-5.82-3.88-9.35,0-3.53,1.37-6.86,3.87-9.36,2.5-2.5,5.82-3.88,9.35-3.88,7.3,0,13.23,5.93,13.24,13.22,0,3.53-1.37,6.86-3.87,9.36-2.5,2.5-5.82,3.88-9.35,3.88h-.03ZM48.54,22.08c-3.29,0-6.38,1.28-8.71,3.61l-.11.11c-2.29,2.33-3.55,5.41-3.53,8.67.02,3.27,1.31,6.33,3.64,8.63,2.33,2.32,5.42,3.61,8.71,3.61s6.38-1.28,8.71-3.61c4.8-4.8,4.8-12.61,0-17.42-2.33-2.33-5.42-3.61-8.71-3.61ZM48.54,45.7c-.25,0-.45-.2-.46-.45v-1.09c0-.13.04-.25.12-.33.08-.09.2-.14.32-.14h0c.26,0,.47.2.47.45v1.09c0,.26-.19.47-.45.48h-.01ZM56.21,42.53c-.11,0-.22-.04-.31-.12l-.79-.78c-.19-.18-.21-.47-.04-.66.09-.09.21-.15.34-.15.11,0,.22.04.31.12l.79.78c.19.18.21.47.04.66-.09.1-.21.15-.34.15ZM40.88,42.51c-.12,0-.24-.05-.32-.13-.18-.18-.18-.47,0-.65l.75-.75c.07-.06.18-.1.29-.1.13,0,.26.06.35.16.15.17.15.43,0,.6l-.74.74c-.09.09-.2.13-.32.13ZM48.56,36.08c-.69,0-1.3-.43-1.52-1.08l-.05-.13h-4.06c-.24,0-.43-.2-.44-.44,0-.12.04-.24.12-.33.08-.09.2-.14.32-.14h4.04l.05-.12c.28-.65.86-1.02,1.5-1.02.22,0,.44.04.64.13l.12.05,4.05-4.05c.07-.06.18-.1.29-.1s.22.04.3.11c.19.17.21.46.05.65l-4.05,4.05.06.13c.03.06.05.12.07.18.29.84-.16,1.76-1,2.05-.17.06-.35.09-.53.09ZM48.54,33.71c-.18,0-.36.07-.49.2-.27.27-.27.71,0,.97.13.13.3.2.49.2s.36-.07.49-.2c.27-.27.27-.7,0-.97-.13-.13-.3-.2-.49-.2ZM37.7,34.86c-.25,0-.45-.2-.46-.45,0-.12.04-.24.13-.33.08-.09.2-.14.32-.14h1.09c.25,0,.46.21.46.46s-.21.46-.46.46h-1.07ZM58.3,34.86c-.25,0-.46-.21-.46-.46s.21-.46.46-.46h1.06c.12,0,.23.05.32.14.08.09.13.21.13.33,0,.24-.2.44-.44.45h-1.05ZM41.66,27.98c-.11,0-.22-.04-.3-.11l-.8-.8c-.19-.18-.21-.47-.04-.66.09-.09.21-.15.34-.15.11,0,.22.04.31.12l.79.79c.1.09.16.2.17.32,0,.12-.03.24-.11.33-.09.1-.21.16-.35.16ZM55.44,27.95c-.12,0-.24-.05-.33-.13-.18-.18-.18-.47,0-.65l.75-.75c.09-.09.2-.13.33-.13s.24.05.32.13c.18.18.18.47,0,.65l-.75.75c-.09.09-.2.13-.32.13ZM48.52,25.07c-.24,0-.44-.2-.45-.45v-1.05c0-.13.04-.25.12-.33.08-.09.2-.14.32-.14h0c.26,0,.47.2.47.45v1.09c0,.25-.21.44-.46.44h-.01Z"/>
  </g>
</svg>