<?xml version="1.0" encoding="UTF-8"?>
<svg id="Layer_2" xmlns="http://www.w3.org/2000/svg" viewBox="0 0 90 90">
  <defs>
    <style>
      .cls-1 {
        fill: #fff;
      }

      .cls-2 {
        fill: #112e57;
      }
    </style>
  </defs>
  <g id="Layer_1-2" data-name="Layer_1">
    <rect class="cls-2" x="0" y="0" width="90" height="90" rx="45" ry="45"/>
    <g>
      <path class="cls-1" d="M60.34,59.55c-1.87,0-4.3-1.04-5-3.96l-.02-.07-.09-.07h-20.55l-.02.07c-.72,3-3.15,4.04-5.02,4.04s-4.29-1.04-4.99-3.96l-.02-.07-.09-.07h-4.92c-.23,0-.41-.18-.41-.41v-4.72c0-.23.19-.41.41-.41h.77v-16.11c0-1.85,1.51-3.36,3.36-3.36h33.79c1.78,0,3.26,1.39,3.36,3.17l.42,7.48,4.61.33c2.06.15,3.67,1.88,3.67,3.94v4.56h.81c.21.01.37.19.37.41v4.72c0,.22-.18.41-.41.41h-5.01v.08c-.72,2.99-3.15,4.02-5.02,4.02ZM60.34,50.17c-2,0-4.2,1.34-4.31,4.27,0,2.39,1.93,4.32,4.31,4.32s4.3-1.93,4.3-4.31c-.11-2.94-2.31-4.28-4.3-4.28ZM29.66,50.17c-1.99,0-4.19,1.34-4.3,4.27,0,2.39,1.93,4.32,4.3,4.32s4.31-1.93,4.31-4.31c-.11-2.94-2.31-4.28-4.31-4.28ZM67.83,54.64h2.13v-3.91h-2.13v3.91ZM60.34,49.32c2.83.03,5.13,2.33,5.13,5.14v.18h1.53v-4.31c0-.23.18-.41.42-.41h1.35v-4.56c0-1.63-1.28-3.01-2.91-3.13l-4.94-.35h-4.71c-.23,0-.42-.18-.42-.41v-7.08c0-.23.18-.41.42-.41h3.88v-.18c0-1.4-1.14-2.54-2.53-2.54H23.76c-1.4,0-2.53,1.14-2.53,2.54v.18h19.06c.22,0,.41.18.41.41v7.67c0,.23-.18.41-.41.41h-19.06v3.31h21.6v-11.39c0-.23.18-.41.41-.41h10.03c.22,0,.41.19.41.41v20.24h1.54v-.18c0-2.83,2.3-5.13,5.13-5.13h0ZM48.65,54.64h4.19v-9.8h-4.19v9.8ZM43.64,54.64h4.19v-9.8h-4.19v9.8ZM29.66,49.33c2.83,0,5.13,2.3,5.13,5.13v.18h8.04v-8.04h-21.6v3.31h1.36c.22,0,.41.19.41.41v4.31h1.54v-.18c0-2.83,2.3-5.13,5.12-5.13ZM20.04,54.64h2.13v-3.91h-2.13v3.91ZM48.65,44.01h4.19v-9.21h-4.19v9.21ZM43.64,44.01h4.19v-9.21h-4.19v9.21ZM34.2,41.66h5.66v-6.86h-5.66v6.86ZM27.71,41.66h5.67v-6.86h-5.67v6.86ZM21.22,41.66h5.66v-6.85h-5.66v6.85ZM56.62,41.06h3.87l-.34-6.26h-3.53v6.26Z"/>
      <path class="cls-1" d="M60.34,59.55c-1.87,0-4.3-1.04-5-3.96l-.02-.07-.09-.07h-20.55l-.02.07c-.72,3-3.15,4.04-5.02,4.04s-4.29-1.04-4.99-3.96l-.02-.07-.09-.07h-4.92c-.23,0-.41-.18-.41-.41v-4.72c0-.23.19-.41.41-.41h.77v-16.11c0-1.85,1.51-3.36,3.36-3.36h33.79c1.78,0,3.26,1.39,3.36,3.17l.42,7.48,4.61.33c2.06.15,3.67,1.88,3.67,3.94v4.56h.81c.21.01.37.19.37.41v4.72c0,.22-.18.41-.41.41h-5.01v.08c-.72,2.99-3.15,4.02-5.02,4.02ZM60.34,50.17c-2,0-4.2,1.34-4.31,4.27,0,2.39,1.93,4.32,4.31,4.32s4.3-1.93,4.3-4.31c-.11-2.94-2.31-4.28-4.3-4.28ZM29.66,50.17c-1.99,0-4.19,1.34-4.3,4.27,0,2.39,1.93,4.32,4.3,4.32s4.31-1.93,4.31-4.31c-.11-2.94-2.31-4.28-4.31-4.28ZM67.83,54.64h2.13v-3.91h-2.13v3.91ZM60.34,49.32c2.83.03,5.13,2.33,5.13,5.14v.18h1.53v-4.31c0-.23.18-.41.42-.41h1.35v-4.56c0-1.63-1.28-3.01-2.91-3.13l-4.94-.35h-4.71c-.23,0-.42-.18-.42-.41v-7.08c0-.23.18-.41.42-.41h3.88v-.18c0-1.4-1.14-2.54-2.53-2.54H23.76c-1.4,0-2.53,1.14-2.53,2.54v.18h19.06c.22,0,.41.18.41.41v7.67c0,.23-.18.41-.41.41h-19.06v3.31h21.6v-11.39c0-.23.18-.41.41-.41h10.03c.22,0,.41.19.41.41v20.24h1.54v-.18c0-2.83,2.3-5.13,5.13-5.13h0ZM48.65,54.64h4.19v-9.8h-4.19v9.8ZM43.64,54.64h4.19v-9.8h-4.19v9.8ZM29.66,49.33c2.83,0,5.13,2.3,5.13,5.13v.18h8.04v-8.04h-21.6v3.31h1.36c.22,0,.41.19.41.41v4.31h1.54v-.18c0-2.83,2.3-5.13,5.12-5.13ZM20.04,54.64h2.13v-3.91h-2.13v3.91ZM48.65,44.01h4.19v-9.21h-4.19v9.21ZM43.64,44.01h4.19v-9.21h-4.19v9.21ZM34.2,41.66h5.66v-6.86h-5.66v6.86ZM27.71,41.66h5.67v-6.86h-5.67v6.86ZM21.22,41.66h5.66v-6.85h-5.66v6.85ZM56.62,41.06h3.87l-.34-6.26h-3.53v6.26Z"/>
      <path class="cls-1" d="M29.66,56.64c-1.48-.05-2.16-1.17-2.16-2.18s.68-2.13,2.17-2.18c1.48.05,2.15,1.17,2.15,2.18s-.68,2.13-2.17,2.18ZM29.65,53.1c-.92.02-1.34.72-1.34,1.36s.42,1.33,1.34,1.36c.93-.03,1.36-.73,1.36-1.36s-.46-1.34-1.34-1.36h-.01Z"/>
      <path class="cls-1" d="M29.66,56.64c-1.48-.05-2.16-1.17-2.16-2.18s.68-2.13,2.17-2.18c1.48.05,2.15,1.17,2.15,2.18s-.68,2.13-2.17,2.18ZM29.65,53.1c-.92.02-1.34.72-1.34,1.36s.42,1.33,1.34,1.36c.93-.03,1.36-.73,1.36-1.36s-.46-1.34-1.34-1.36h-.01Z"/>
      <path class="cls-1" d="M60.34,56.64c-1.49-.05-2.17-1.17-2.17-2.18s.68-2.13,2.17-2.18c1.48.05,2.15,1.17,2.15,2.18s-.67,2.13-2.16,2.18ZM60.33,53.1c-.88.02-1.34.7-1.34,1.36s.42,1.33,1.34,1.36c.93-.03,1.36-.73,1.36-1.36s-.46-1.34-1.34-1.36h-.01Z"/>
      <path class="cls-1" d="M60.34,56.64c-1.49-.05-2.17-1.17-2.17-2.18s.68-2.13,2.17-2.18c1.48.05,2.15,1.17,2.15,2.18s-.67,2.13-2.16,2.18ZM60.33,53.1c-.88.02-1.34.7-1.34,1.36s.42,1.33,1.34,1.36c.93-.03,1.36-.73,1.36-1.36s-.46-1.34-1.34-1.36h-.01Z"/>
    </g>
  </g>
</svg>