<?xml version="1.0" encoding="UTF-8"?>
<svg id="Layer_2" xmlns="http://www.w3.org/2000/svg" xmlns:xlink="http://www.w3.org/1999/xlink" viewBox="0 0 50 31">
  <defs>
    <style>
      .cls-1 {
        fill: #fff;
      }

      .cls-2 {
        fill: none;
      }

      .cls-3 {
        clip-path: url(#clippath);
      }
    </style>
    <clipPath id="clippath">
      <rect class="cls-2" width="50" height="31"/>
    </clipPath>
  </defs>
  <g id="Layer_1-2" data-name="Layer_1">
    <g class="cls-3">
      <path class="cls-1" d="M25.37,30.89c-.12,0-.23-.07-.28-.17l-.09-.17-.09.17c-.06.11-.16.17-.28.17h-7.27c-.18,0-.32-.14-.32-.32v-1.35c0-.18.14-.32.32-.32h.66v-1.09l-7.32-7.29s-.05-.06-.07-.09l-4.58-8.82c-.13-.24-.16-.52-.09-.78.07-.26.23-.49.46-.63l.73-.45c.17-.1.36-.16.55-.16.07,0,.14,0,.21.02.26.05.49.2.65.42l5.02,6.82,1.08.57.12-.15-.19-.24c-.2-.26-.29-.58-.25-.91s.19-.62.43-.84l.65-.53c.22-.17.49-.26.77-.26.04,0,.09,0,.13,0,.33.03.63.19.84.44l4.57,5.61c.73.43,1.33,1.02,1.74,1.72.43.72.67,1.55.68,2.4v4.22h.46c.12,0,.23.07.28.17l.09.17.09-.17c.05-.11.16-.17.28-.17h.47v-4.6c.01-.85.25-1.68.68-2.4.42-.7,1.01-1.29,1.72-1.7l4.57-5.6c.21-.26.53-.43.87-.47.04,0,.09,0,.13,0,.29,0,.58.1.81.29l.62.5c.25.22.4.51.43.84.03.33-.06.65-.26.91l-.19.23.12.15,1.05-.54,5.05-6.85c.16-.22.39-.37.65-.42.07-.01.14-.02.21-.02.19,0,.38.05.55.16l.73.45c.23.14.4.37.46.63.06.26.03.54-.1.78l-4.58,8.81s-.04.06-.07.09l-7.29,7.22-.03,1.54h.66c.18,0,.32.14.32.32v1.35c0,.18-.14.32-.32.32h-7.27ZM25.69,30.26h6.63v-.72h-6.63v.72ZM17.68,30.26h6.63v-.72h-6.63v.72ZM26.57,28.91h4.77v-1.64c0-.08.03-.17.09-.22l7.38-7.31,4.56-8.78c.05-.11.07-.23.04-.34-.02-.1-.09-.19-.17-.24l-.73-.45c-.06-.04-.14-.06-.22-.06-.19.03-.29.09-.35.18l-5.07,6.89s-.07.08-.12.11l-2.83,1.46-.75.91c-.06.07-.15.12-.25.12-.07,0-.14-.02-.2-.07-.07-.05-.11-.13-.12-.21,0-.08.02-.17.07-.23l.76-.94c.47-.59.96-1.19,1.44-1.77.1-.13.15-.3.14-.47-.02-.17-.1-.33-.24-.44l-.58-.47c-.12-.09-.26-.15-.41-.15h-.07c-.17.02-.33.11-.44.24l-4.59,5.64s-.06.06-.1.08c-.64.36-1.17.88-1.55,1.5-.38.63-.58,1.35-.59,2.08v4.49l.06-.09.04.19ZM7.71,10.24c-.08,0-.16.02-.22.06l-.73.45c-.09.06-.15.14-.18.24-.03.11-.01.23.04.33l4.55,8.76,7.4,7.33c.06.06.09.14.09.22v1.26h4.87v-4.21c0-.73-.21-1.45-.59-2.08-.38-.63-.91-1.15-1.54-1.5-.04-.02-.08-.05-.1-.08l-4.59-5.64c-.11-.13-.27-.22-.44-.24h-.02c-.21,0-.35.05-.46.14l-.59.48c-.13.1-.21.26-.23.44-.02.17.03.34.14.47.49.6.97,1.19,1.46,1.79l.75.92c.11.14.09.34-.05.45-.06.05-.12.07-.2.07-.1,0-.19-.04-.25-.12l-.72-.88-2.86-1.49s-.08-.06-.12-.1l-5.07-6.9c-.06-.09-.16-.15-.27-.17h-.08ZM24.93,14.26l-7.18-1.77c-.17-.04-.27-.21-.23-.38l1.89-6.75.12-.12h-.18s-4.22-1.37-4.22-1.37c-.17-.05-.26-.23-.21-.4.03-.1.11-.17.21-.2L24.91.11h.19l9.79,3.16c.17.05.26.23.21.4-.03.1-.11.17-.21.2l-4.31,1.39,1.91,6.84c.05.17-.05.34-.22.39l-7.19,1.77h-.08s-.07,0-.07,0ZM18.21,11.95l6.76,1.67,6.81-1.67-1.9-6.8c-.05-.17.04-.35.2-.4l3.67-1.18L25.03.75l-8.79,2.81,8.73,2.81,2.75-.87-2.88-1.67c-.07-.04-.13-.11-.15-.19-.02-.08-.01-.17.03-.24.06-.1.16-.16.28-.16.05,0,.11.01.16.04l3.5,2.03c.08.05.14.13.15.22.05.45.03,1.1.02,1.67v.65s.15-.13.15-.13c.12.08.32.2.48.35.26.26.4.6.4.96s-.14.7-.4.96c-.26.26-.6.4-.96.4s-.7-.14-.96-.4c-.26-.26-.4-.6-.4-.96s.14-.7.4-.96c.16-.16.36-.28.57-.34l.07-.02v-1.7l-3.08.99h-.19l-4.87-1.57-1.82,6.5ZM28.5,8.33c-.19,0-.37.07-.51.21-.14.14-.21.32-.21.51s.07.37.21.51c.14.14.32.21.51.21s.37-.07.51-.21c.14-.14.21-.32.21-.51s-.07-.37-.21-.51-.32-.21-.51-.21Z"/>
    </g>
  </g>
</svg>