<?xml version="1.0" encoding="UTF-8"?>
<svg id="Layer_2" xmlns="http://www.w3.org/2000/svg" xmlns:xlink="http://www.w3.org/1999/xlink" viewBox="0 0 50 31">
  <defs>
    <style>
      .cls-1 {
        fill: #fff;
      }

      .cls-2 {
        fill: none;
      }

      .cls-3 {
        clip-path: url(#clippath);
      }
    </style>
    <clipPath id="clippath">
      <rect class="cls-2" width="50" height="31"/>
    </clipPath>
  </defs>
  <g id="Layer_1-2" data-name="Layer_1">
    <g class="cls-3">
      <path class="cls-1" d="M23.91,30.8c-.52,0-.98-.23-1.3-.65-.12-.15-.22-.29-.31-.43-.71-.99-1.06-1.49-2.64-1.67H5.16c-.21-.01-.38-.18-.38-.39s.17-.38.38-.38h.93l1.35-4.35c.21-.68.83-1.14,1.54-1.14h9.25c3.57.06,5.56,1.85,6.6,3.34l.16.24.16-.24c1.04-1.49,3.03-3.28,6.6-3.33h9.25c.71-.01,1.33.44,1.55,1.12l1.35,4.35h.93c.1,0,.2.04.27.11.07.07.11.16.11.26,0,.21-.17.38-.38.38h-14.48c-1.59.2-1.95.7-2.66,1.68l-.31.43c-.31.42-.77.65-1.29.65h-2.19ZM6.88,27.28h12.78c1.97.24,2.51.97,3.24,1.99l.3.42c.17.23.4.35.69.35h2.19c.28,0,.52-.12.69-.35.11-.14.21-.28.3-.42.74-1.02,1.27-1.76,3.2-1.98l12.83-.02-.62-1.99h-7.07c-.21,0-.38-.17-.38-.38s.17-.38.38-.38h6.83l-.43-1.38c-.12-.37-.43-.61-.82-.61h-9.25c-3.87.07-5.69,2.38-6.43,3.75-.07.12-.2.2-.33.2s-.27-.08-.34-.2c-.73-1.37-2.54-3.68-6.44-3.74h-9.24c-.39-.01-.71.23-.82.59l-.43,1.38h6.83c.21,0,.38.17.38.38s-.17.38-.38.38h-7.07l-.62,1.99ZM25,18.5c-2.61,0-6.16-.75-8.84-1.87-.67-.28-1.08-.9-1.08-1.62v-6.02l-6.25-2.01c-.43-.14-.71-.48-.71-.87s.28-.73.71-.87L24.02.36c.32-.1.65-.16.98-.16s.66.05.98.16l15.18,4.88c.43.14.71.48.71.87s-.28.73-.71.87l-2.77.89v3.66l.13.05c.58.22.97.77.97,1.38,0,.37-.13.7-.38.98l-.12.13.12.13c.25.28.38.62.38.98v2.33c0,.47-.39.86-.86.86h-1.24c-.47,0-.86-.39-.86-.86v-2.33c0-.37.13-.7.38-.98l.12-.13-.12-.13c-.25-.28-.38-.62-.38-.98,0-.62.39-1.17.97-1.38l.13-.05v-3.42l-2.72.88v6.02c0,.72-.41,1.34-1.08,1.62-2.67,1.11-6.22,1.86-8.83,1.87ZM15.84,15.01c0,.42.23.76.61.92,2.6,1.08,6.03,1.81,8.55,1.81,2.53,0,5.96-.74,8.55-1.81.38-.16.61-.5.61-.92v-5.78l-8.18,2.63c-.32.11-.64.16-.98.16-.32,0-.65-.05-.98-.16l-8.18-2.63v5.78ZM38.02,14.47c-.4,0-.72.32-.72.72v2.43h1.44v-2.43c0-.4-.32-.72-.72-.72ZM38.02,12.25c-.4,0-.72.32-.72.72s.32.72.72.72.72-.32.72-.72-.32-.72-.72-.72ZM25,.96c-.25,0-.5.04-.75.12l-15.65,5.04,15.65,5.03c.25.08.5.12.75.12s.5-.04.75-.12l9.34-3-.04-.39-10.1-1.27c-.1-.01-.19-.06-.25-.15-.06-.08-.09-.18-.08-.28.02-.19.18-.33.37-.33l12.62,1.57,3.78-1.2L25.75,1.08c-.25-.08-.5-.12-.75-.12Z"/>
    </g>
  </g>
</svg>