<?xml version="1.0" encoding="UTF-8"?>
<svg id="Layer_2" xmlns="http://www.w3.org/2000/svg" xmlns:xlink="http://www.w3.org/1999/xlink" viewBox="0 0 50 31">
  <defs>
    <style>
      .cls-1 {
        fill: #fff;
        fill-rule: evenodd;
      }

      .cls-2 {
        fill: none;
      }

      .cls-3 {
        clip-path: url(#clippath);
      }
    </style>
    <clipPath id="clippath">
      <rect class="cls-2" width="50" height="31"/>
    </clipPath>
  </defs>
  <g id="Layer_1-2" data-name="Layer_1">
    <g class="cls-3">
      <g>
        <path class="cls-1" d="M35.68,0h-18.74c-.46,0-.83.37-.83.83v1.79h-1.79c-.46,0-.83.37-.83.83v26.71c0,.46.37.83.83.83h18.74,0c.46,0,.83-.37.83-.83v-1.79h1.79c.46,0,.83-.37.83-.83V.83c0-.46-.37-.83-.83-.83ZM33.18,30.17c0,.07-.05.12-.12.12H14.32c-.07,0-.12-.05-.12-.12V3.46c0-.07.05-.12.12-.12h1.79v24.21c0,.46.37.83.83.83h16.24v1.79ZM35.8,27.54c0,.07-.06.12-.12.12h-18.74c-.07,0-.12-.05-.12-.12V.83c0-.07.05-.12.12-.12h18.74c.07,0,.12.05.12.12v26.71Z"/>
        <path class="cls-1" d="M19.47,10.13h1.03s0,0,0,0,0,0,0,0h3.15s0,0,0,0h0s0,0,0,0h1.03c.17,0,.34-.07.46-.2.12-.12.18-.28.17-.45v-5.21c0-.35-.28-.63-.63-.63h-5.22c-.35,0-.63.28-.63.63v5.23c0,.35.28.63.63.63ZM22.08,7.13c-.42,0-.76-.34-.76-.76s.34-.76.76-.76.76.34.76.76-.34.76-.76.76ZM21.55,7.85h1.06c.38,0,.69.31.69.69v.88h-2.45v-.88c0-.38.31-.69.69-.69ZM19.55,4.36h5.06v5.07h-.6v-.88c0-.55-.32-1.03-.79-1.26.2-.25.33-.57.33-.91,0-.81-.66-1.47-1.47-1.47s-1.47.66-1.47,1.47c0,.35.12.66.32.91-.47.23-.8.7-.8,1.26v.88h-.59v-5.07Z"/>
        <path class="cls-1" d="M33.43,8.78h-6.59c-.2,0-.35.16-.35.35s.16.35.35.35h6.59c.2,0,.35-.16.35-.35s-.16-.35-.35-.35Z"/>
        <path class="cls-1" d="M33.43,6.54h-6.59c-.2,0-.35.16-.35.35s.16.35.35.35h6.59c.2,0,.35-.16.35-.35s-.16-.35-.35-.35Z"/>
        <path class="cls-1" d="M33.43,4.29h-6.59c-.2,0-.35.16-.35.35s.16.35.35.35h6.59c.2,0,.35-.16.35-.35s-.16-.35-.35-.35Z"/>
        <path class="cls-1" d="M18.84,13.01v2.08c0,.44.36.81.81.81h13.33c.45,0,.81-.36.81-.81v-2.08c0-.44-.36-.81-.81-.81h-13.33c-.44,0-.81.36-.81.81ZM32.98,12.92s.1.05.1.1v2.08c0,.05-.05.1-.1.1h-13.33s-.1-.05-.1-.1v-2.08s.05-.1.1-.1h13.33Z"/>
        <path class="cls-1" d="M33.43,18.13h-14.24c-.2,0-.35.16-.35.35s.16.35.35.35h14.24c.2,0,.35-.16.35-.35s-.16-.35-.35-.35Z"/>
        <path class="cls-1" d="M33.43,21.08h-14.24c-.2,0-.35.16-.35.35s.16.35.35.35h14.24c.2,0,.35-.16.35-.35s-.16-.35-.35-.35Z"/>
        <path class="cls-1" d="M30.53,24.02h-11.33c-.2,0-.35.16-.35.35s.16.35.35.35h11.33c.2,0,.35-.16.35-.35s-.16-.35-.35-.35Z"/>
      </g>
    </g>
  </g>
</svg>