<?xml version="1.0" encoding="UTF-8"?>
<svg id="Layer_2" xmlns="http://www.w3.org/2000/svg" xmlns:xlink="http://www.w3.org/1999/xlink" viewBox="0 0 50 31">
  <defs>
    <style>
      .cls-1 {
        fill: #fff;
      }

      .cls-2 {
        fill: none;
      }

      .cls-3 {
        clip-path: url(#clippath);
      }
    </style>
    <clipPath id="clippath">
      <rect class="cls-2" width="50" height="31"/>
    </clipPath>
  </defs>
  <g id="Layer_1-2" data-name="Layer_1">
    <g class="cls-3">
      <path class="cls-1" d="M41.14,0H8.86C7.79,0,6.91.87,6.91,1.94v19.01c0,1.08.87,1.95,1.95,1.95h19.39l-1.7,6.33c-.04.16.02.32.14.42.13.1.3.11.45.03l2.63-1.52,1.52,2.63c.07.13.2.2.35.2h.05c.16-.02.29-.14.33-.3l1.57-5.85c.08,0,.16,0,.24,0s.16,0,.24,0l1.57,5.85c.04.16.17.27.33.3h.05c.14,0,.28-.07.35-.2l1.52-2.63,2.63,1.52c.14.08.32.07.45-.03.13-.1.19-.27.14-.42l-1.7-6.33h1.7c1.08,0,1.95-.87,1.95-1.95V1.94c0-1.07-.87-1.94-1.95-1.94h0ZM31.5,29.56l-1.24-2.14c-.06-.09-.14-.16-.24-.19-.04,0-.07-.01-.1-.01-.07,0-.14.02-.2.05l-2.14,1.24,1.5-5.6h.02c.99.97,2.27,1.64,3.69,1.87l-1.28,4.78ZM33.88,24.05h-.06c-.28,0-.55-.02-.81-.06-.99-.14-1.9-.52-2.67-1.09-.32-.24-.62-.51-.89-.8-.04-.04-.07-.08-.11-.12-.22-.26-.43-.54-.61-.83-.54-.89-.85-1.95-.85-3.06,0-3.3,2.67-5.97,5.97-5.97s5.97,2.68,5.97,5.97c0,1.12-.31,2.17-.85,3.06-.18.3-.38.57-.61.83-.04.04-.07.08-.11.12-.27.3-.57.57-.89.8-.77.57-1.68.95-2.67,1.09-.26.04-.54.06-.81.06h0ZM40.1,28.51l-2.14-1.24c-.09-.05-.2-.07-.3-.04-.1.03-.19.1-.24.19l-1.24,2.14-1.28-4.78c1.43-.22,2.71-.9,3.69-1.87h.02l1.49,5.6ZM42.29,20.96c0,.63-.51,1.15-1.15,1.15h-1.85c.84-1.12,1.33-2.52,1.33-4.02,0-3.73-3.04-6.77-6.77-6.77s-6.77,3.04-6.77,6.77c0,1.5.49,2.9,1.33,4.02H8.86c-.63,0-1.15-.51-1.15-1.15V1.94c0-.63.51-1.14,1.15-1.14h32.28c.63,0,1.15.51,1.15,1.14v19.01ZM33.84,22.78c-2.59,0-4.7-2.11-4.7-4.7s2.11-4.7,4.7-4.7,4.7,2.11,4.7,4.7-2.11,4.7-4.7,4.7ZM33.84,14.19c-2.15,0-3.9,1.75-3.9,3.9s1.75,3.9,3.9,3.9,3.9-1.75,3.9-3.9-1.75-3.9-3.9-3.9ZM33.51,5.22h-17.01c-.22,0-.4-.18-.4-.4s.18-.4.4-.4h17.01c.22,0,.4.18.4.4,0,.22-.18.4-.4.4ZM39.32,8.54H10.68c-.22,0-.4-.18-.4-.4s.18-.4.4-.4h28.64c.22,0,.4.18.4.4,0,.22-.18.4-.4.4ZM25.05,11.85h-14.37c-.22,0-.4-.18-.4-.4s.18-.4.4-.4h14.37c.22,0,.4.18.4.4,0,.22-.18.4-.4.4ZM25.05,15.17h-14.37c-.22,0-.4-.18-.4-.4s.18-.4.4-.4h14.37c.22,0,.4.18.4.4,0,.22-.18.4-.4.4ZM25.05,18.49h-14.37c-.22,0-.4-.18-.4-.4s.18-.4.4-.4h14.37c.22,0,.4.18.4.4,0,.22-.18.4-.4.4Z"/>
    </g>
  </g>
</svg>