<?xml version="1.0" encoding="UTF-8"?>
<svg id="Layer_2" xmlns="http://www.w3.org/2000/svg" xmlns:xlink="http://www.w3.org/1999/xlink" viewBox="0 0 50 31">
  <defs>
    <style>
      .cls-1 {
        fill: #fff;
        fill-rule: evenodd;
      }

      .cls-2 {
        fill: none;
      }

      .cls-3 {
        clip-path: url(#clippath);
      }
    </style>
    <clipPath id="clippath">
      <rect class="cls-2" width="50" height="31"/>
    </clipPath>
  </defs>
  <g id="Layer_1-2" data-name="Layer_1">
    <g class="cls-3">
      <path class="cls-1" d="M21.05,30.8c-2.57-.33-5-1.51-6.85-3.33s-3.07-4.24-3.43-6.8l-.06-.45-.69.84c-.05.07-.14.11-.22.11-.07,0-.13-.02-.18-.07-.12-.1-.14-.29-.04-.41l1.16-1.4c.05-.07.14-.1.22-.1.07,0,.13.02.18.07l1.4,1.16c.12.1.14.29.04.41-.05.07-.13.11-.22.11-.07,0-.13-.02-.19-.07l-.89-.74.08.52c.36,2.43,1.52,4.72,3.28,6.44,1.76,1.72,4.07,2.84,6.5,3.16.08,0,.15.05.19.11.05.06.07.14.06.21-.02.14-.14.25-.29.25h-.04ZM21.42,28.98c-.98,0-1.78-.8-1.78-1.78v-8.41h-.2c-1.66,0-3.31-.23-4.91-.67-1.52-.46-2.39-1.14-2.39-1.87V2.73c0-.72.88-1.4,2.4-1.85,1.65-.45,3.36-.67,5.07-.67h.61c1.71,0,3.42.23,5.08.67,1.51.45,2.38,1.13,2.39,1.85v12.62h.2c.17,0,.25.05.31.12l1.06,1.3h9.97c.67,0,1.21.55,1.22,1.22v9.21c0,.98-.8,1.78-1.78,1.78h-17.23ZM21.42,15.93c-.66,0-1.2.54-1.2,1.2v10.07c0,.66.54,1.2,1.2,1.2h17.23c.66,0,1.2-.54,1.2-1.2v-7.09h-8.49c-.09,0-.17-.04-.22-.11l-3.32-4.07h-6.4ZM31.5,19.53h8.35v-1.54c0-.35-.29-.64-.64-.64h-9.49l1.78,2.18ZM12.71,13.01v3.24c0,.48.67.92,1.98,1.31,1.55.42,3.14.64,4.74.64h.2s0-1.08,0-1.08c0-.98.8-1.78,1.78-1.78h5.68v-2.57l-.3.18c-.48.29-.99.5-1.51.65-1.66.45-3.37.67-5.09.67h-.57c-1.72,0-3.44-.23-5.09-.68-.49-.14-.97-.34-1.41-.59v-.21l-.4.2ZM20.2,13.71c1.66,0,3.31-.22,4.91-.65,1.32-.4,1.99-.84,1.99-1.32v-3.47s-.3.18-.3.18c-.47.28-.98.5-1.51.65-1.66.45-3.37.67-5.09.67h-.57c-1.72,0-3.44-.23-5.09-.68-.53-.15-1.04-.37-1.51-.65l-.3-.18v3.47c0,.48.67.92,1.98,1.31,1.61.43,3.26.65,4.92.65h.29s.29,0,.29,0ZM20.2,9.21c1.66,0,3.31-.22,4.91-.65,1.32-.4,1.99-.84,1.99-1.32v-3.47l-.3.18c-.48.28-.98.5-1.51.65-1.65.45-3.36.67-5.07.67h-.58c-1.66,0-3.31-.21-4.93-.62-.59-.16-1.16-.39-1.69-.71l-.3-.18v3.47c0,.48.67.92,1.99,1.31,1.6.43,3.25.65,4.91.65h.3s.3,0,.3,0ZM20.2,4.71c1.66,0,3.31-.22,4.91-.65,1.32-.4,1.99-.84,1.99-1.32s-.67-.92-1.98-1.31c-1.61-.43-3.26-.65-4.92-.65h-.59c-1.66,0-3.31.22-4.91.65-1.32.4-1.99.84-1.99,1.32.11.56.83.99,2.15,1.36,1.57.4,3.17.6,4.77.6h.27s.29,0,.29,0ZM23.9,26.14c-.08,0-.15-.03-.21-.09-.06-.06-.08-.13-.08-.21v-4l-.99,1.23c-.05.06-.13.09-.21.09-.07,0-.13-.02-.18-.06-.12-.09-.14-.27-.05-.39l1.48-1.84c.06-.09.15-.14.25-.14.1,0,.19.05.24.13l1.4,1.86c.05.06.07.14.05.21s-.05.14-.11.19c-.05.04-.11.06-.17.06-.09,0-.18-.04-.23-.12l-.89-1.18v3.95c0,.08-.03.16-.08.21-.05.06-.13.09-.21.09ZM28.04,26.12c-.1,0-.19-.05-.24-.12l-1.49-1.85c-.09-.12-.06-.29.06-.39.05-.04.12-.06.18-.06.08,0,.16.04.22.1l.99,1.22v-3.99c0-.08.03-.16.08-.21.06-.06.13-.09.21-.09s.15.03.21.09c.05.05.08.13.08.21v3.96l.89-1.18c.06-.07.14-.12.23-.12.06,0,.12.02.17.06.06.05.1.11.11.19.01.08,0,.15-.06.22l-1.4,1.85c-.06.09-.15.14-.24.14h0ZM39.03,15.21l-.1-.02-.05-.06-.08-.02-1.32-1.11c-.06-.05-.1-.12-.1-.19,0-.08.01-.15.06-.21.06-.07.14-.11.22-.11.07,0,.13.02.18.06l.91.74-.07-.51c-.36-2.43-1.52-4.72-3.27-6.45-1.76-1.72-4.07-2.85-6.51-3.16-.08,0-.15-.05-.19-.11-.05-.06-.07-.13-.06-.21.02-.14.14-.25.28-.25,2.61.33,5.04,1.51,6.88,3.33,1.85,1.82,3.07,4.23,3.43,6.79l.07.45.68-.83c.05-.06.13-.1.22-.1.07,0,.13.02.18.07.12.1.14.28.05.4l-1.13,1.39-.04.04-.09.07h-.03s-.11.01-.11.01Z"/>
    </g>
  </g>
</svg>