<?xml version="1.0" encoding="UTF-8"?>
<svg id="Layer_2" xmlns="http://www.w3.org/2000/svg" xmlns:xlink="http://www.w3.org/1999/xlink" viewBox="0 0 50 31">
  <defs>
    <style>
      .cls-1 {
        fill: #fff;
        fill-rule: evenodd;
      }

      .cls-2 {
        fill: none;
      }

      .cls-3 {
        clip-path: url(#clippath);
      }
    </style>
    <clipPath id="clippath">
      <rect class="cls-2" width="50" height="31"/>
    </clipPath>
  </defs>
  <g id="Layer_1-2" data-name="Layer_1">
    <g class="cls-3">
      <path class="cls-1" d="M40.77,30.9c-.27,0-.53-.11-.72-.3l-.37-.37-.07.04c-.33.21-.71.33-1.11.33H8.09c-1.12,0-2.04-.92-2.04-2.04V2.14c0-1.12.92-2.04,2.04-2.04h30.41c1.12,0,2.03.92,2.04,2.04v21.72l3.11,3.15c.4.4.4,1.05,0,1.45l-2.15,2.15c-.19.19-.45.3-.72.3ZM35.08,24.8c.09,0,.18.04.25.1l5.21,5.21c.06.06.14.1.23.1s.17-.03.23-.1l2.15-2.15c.13-.13.13-.34,0-.47l-5.21-5.21c-.07-.07-.1-.15-.1-.25s.04-.18.1-.24l.95-.95-5.34-.33.33,5.34.95-.95c.07-.06.15-.1.25-.1ZM6.75,28.56c0,.74.6,1.34,1.34,1.34h30.41c.18,0,.35-.03.51-.1l.14-.06-.07-.12-4-4-1.25,1.25c-.06.06-.15.1-.24.1-.05,0-.09,0-.13-.03-.13-.05-.21-.18-.21-.32l-.19-.04.19.04-.07-1.12s-7.26,0-7.26,0c-.11,0-.19-.03-.25-.1-.07-.06-.11-.16-.11-.25s.04-.18.11-.25c.06-.06.15-.1.24-.1h7.23l-.29-4.65c0-.09.03-.18.09-.25.06-.07.15-.11.24-.12l6.64.41.04-.1v-10.87h-14.25c-.69,0-1.32-.4-1.6-1.03l-.74-1.6H6.75v21.96ZM38.68,22.04l1.17,1.17v-2.33l-1.17,1.17ZM23.48,5.91c.13,0,.25.08.31.2l.83,1.8c.17.38.55.62.96.62h14.26v-.79h-14.2c-.13,0-.26-.08-.31-.2l-.83-1.81c-.17-.38-.55-.62-.97-.62H6.75v.79h16.74ZM23.53,4.42c.69,0,1.31.4,1.6,1.03l.74,1.6h13.98V2.14c0-.74-.61-1.34-1.34-1.34H8.09c-.74,0-1.34.6-1.34,1.34v2.29h16.78ZM14.26,27.83c-.56,0-1.12-.11-1.64-.33-1.88-.78-2.96-2.8-2.56-4.79s2.16-3.45,4.2-3.45c1.13,0,2.24.46,3.03,1.25,1.44,1.44,1.67,3.71.53,5.41-.8,1.19-2.13,1.9-3.56,1.9h0ZM14.26,19.95c-.71,0-1.4.21-2,.61-1.42.95-1.98,2.78-1.32,4.36.56,1.35,1.86,2.22,3.32,2.22h0c.23,0,.47-.02.7-.07,1.68-.33,2.89-1.81,2.89-3.52,0-.95-.38-1.87-1.05-2.54-.68-.68-1.58-1.05-2.54-1.05ZM13.57,25.27c-.15,0-.29-.06-.39-.16l-1.31-1.31c-.07-.06-.1-.15-.1-.24s.04-.18.1-.25c.07-.07.15-.1.25-.1s.18.04.24.1l1.21,1.21,2.59-2.59c.07-.07.15-.1.25-.1s.18.04.24.1c.07.07.1.15.1.25s-.04.18-.1.24l-2.69,2.7c-.1.1-.25.16-.39.16ZM25.91,22.26c-.1,0-.19-.04-.25-.1-.07-.06-.11-.16-.11-.25s.04-.18.11-.25c.06-.06.15-.1.24-.1h5.95c.1,0,.19.04.25.1.07.07.11.15.11.25s-.04.18-.11.25c-.06.06-.15.1-.24.1h-5.95ZM14.26,17.4c-.56,0-1.11-.11-1.64-.33-1.88-.78-2.96-2.8-2.56-4.8.4-2,2.17-3.45,4.2-3.45,1.15,0,2.22.45,3.03,1.25,1.44,1.44,1.67,3.72.53,5.41-.8,1.19-2.13,1.9-3.57,1.9h0ZM14.26,9.52c-.71,0-1.4.21-1.99.61-1.42.95-1.98,2.78-1.32,4.36.56,1.35,1.86,2.22,3.32,2.22h0c.23,0,.47-.02.7-.07,1.67-.33,2.89-1.81,2.89-3.52,0-.95-.38-1.87-1.05-2.54-.68-.68-1.58-1.05-2.54-1.05ZM25.91,15.08c-.1,0-.19-.04-.25-.1-.07-.06-.11-.16-.11-.25s.04-.18.1-.25c.06-.06.15-.1.24-.1h10.37c.1,0,.19.04.25.1.07.06.11.16.11.25s-.04.18-.1.25c-.06.06-.15.1-.24.1h-10.36ZM13.57,14.83c-.15,0-.29-.06-.39-.16l-1.31-1.31c-.07-.07-.1-.15-.1-.24s.04-.18.1-.24c.07-.07.15-.1.25-.1s.18.04.24.1l1.21,1.21,2.59-2.59c.06-.06.15-.09.24-.09s.18.04.25.1c.13.13.14.35,0,.49l-2.69,2.69c-.1.1-.24.16-.39.16ZM25.91,11.83c-.1,0-.19-.04-.25-.1-.07-.06-.11-.16-.11-.25s.04-.18.11-.25c.06-.06.15-.1.24-.1h5.95c.1,0,.19.04.25.1.07.07.1.15.1.25s-.04.18-.1.25c-.07.06-.15.1-.25.1h-5.95ZM35.81,5.63c-.09,0-.17,0-.26-.03-.62-.12-1.08-.68-1.08-1.31,0-.35.14-.69.39-.94.25-.25.59-.39.95-.39.26,0,.52.08.74.22.53.35.73,1.04.49,1.62-.21.5-.69.83-1.23.83ZM35.81,3.65c-.17,0-.34.07-.46.19-.22.22-.25.56-.08.81.12.18.32.29.54.29.08,0,.17-.02.25-.05.28-.12.44-.42.38-.72-.06-.3-.32-.52-.63-.52ZM32.14,5.63c-.09,0-.17,0-.26-.03-.62-.12-1.07-.68-1.08-1.31,0-.35.14-.7.39-.94.25-.25.59-.39.95-.39.26,0,.52.08.74.22.53.35.74,1.03.49,1.62-.21.5-.69.83-1.23.83ZM32.14,3.65c-.17,0-.34.07-.46.19-.22.22-.25.56-.08.81.12.18.32.29.53.29.08,0,.17-.02.25-.05.28-.12.44-.42.38-.72-.06-.3-.33-.52-.63-.52ZM28.46,5.63c-.09,0-.17,0-.26-.03-.62-.12-1.07-.68-1.07-1.31,0-.35.14-.69.39-.94.25-.25.59-.39.95-.39.26,0,.52.08.74.22.53.35.73,1.03.49,1.62-.21.5-.69.83-1.23.83ZM28.46,3.65c-.17,0-.34.07-.46.19-.22.22-.25.56-.08.81.12.18.32.29.54.29.08,0,.17-.02.25-.05.28-.12.45-.42.38-.72-.06-.3-.33-.52-.63-.52ZM9.79,3.33c-.1,0-.19-.04-.25-.1-.07-.07-.11-.16-.11-.25s.04-.18.1-.25c.07-.06.15-.1.24-.1h4.61c.1,0,.19.04.25.1.07.06.1.15.1.25s-.04.18-.11.25c-.06.06-.15.1-.24.1h-4.61Z"/>
    </g>
  </g>
</svg>