<?xml version="1.0" encoding="UTF-8"?>
<svg id="Layer_2" xmlns="http://www.w3.org/2000/svg" xmlns:xlink="http://www.w3.org/1999/xlink" viewBox="0 0 50 31">
  <defs>
    <style>
      .cls-1 {
        fill: #fff;
      }

      .cls-2 {
        fill: none;
      }

      .cls-3 {
        clip-path: url(#clippath);
      }
    </style>
    <clipPath id="clippath">
      <rect class="cls-2" width="50" height="31"/>
    </clipPath>
  </defs>
  <g id="Layer_1-2" data-name="Layer_1">
    <g class="cls-3">
      <path class="cls-1" d="M32.07,30.8c-2.02,0-3.88-.92-5.11-2.52l-.06-.08h-15.14c-.15,0-.27-.12-.27-.27V2.87c0-.15.12-.27.27-.27h2.3V.47c0-.15.12-.27.27-.27h15.75c.1.01.15.04.19.08l3.54,3.54c.05.05.08.12.08.19v14.16l.14.04c2.69.85,4.49,3.32,4.49,6.14,0,1.72-.68,3.34-1.89,4.55-1.22,1.22-2.83,1.89-4.55,1.89ZM32.07,18.45c-3.26,0-5.91,2.65-5.91,5.91s2.65,5.91,5.91,5.91,5.91-2.65,5.91-5.91-2.65-5.91-5.91-5.91ZM12.02,27.67h14.51l-.16-.29c-.23-.43-.42-.91-.55-1.43l-.04-.15h-11.47c-.15,0-.27-.12-.27-.27V3.14h-2.02v24.53ZM14.58,25.26h11.1l-.02-.22c-.19-1.84.38-3.61,1.62-4.98,1.22-1.36,2.96-2.14,4.78-2.14.35,0,.7.03,1.05.08l.23.04V4.28h-3.28c-.15,0-.27-.12-.27-.27V.73h-15.21v24.53ZM30.33,3.75h2.63l-2.63-2.63v2.63ZM34.79,26.66c-.13,0-.27-.1-.27-.27v-.45h-3.53c-.15,0-.27-.12-.27-.27s.12-.27.27-.27h3.53v-.53c0-.15.12-.27.26-.27.06,0,.12.02.17.06l1.09.74c.08.05.12.13.12.22,0,.09-.04.17-.12.22l-1.11.76s-.09.05-.15.05ZM29.35,24.36c-.05,0-.1-.02-.15-.05l-1.1-.76c-.08-.05-.12-.14-.12-.23,0-.09.04-.17.12-.22l1.08-.74c.06-.04.12-.06.18-.06.14,0,.27.12.27.27v.53h3.53c.15,0,.27.12.27.27s-.12.27-.27.27h-3.53v.45c0,.17-.14.27-.27.27ZM17.45,20.92c-.15,0-.27-.12-.27-.27s.12-.27.27-.27h6.92c.15,0,.27.12.27.27s-.12.27-.27.27h-6.92ZM17.45,18.46c-.15,0-.27-.12-.27-.27s.12-.27.27-.27h8.84c.15,0,.27.12.27.27s-.12.27-.27.27h-8.84ZM17.45,16c-.15,0-.27-.12-.27-.27s.12-.27.27-.27h13.02c.15,0,.27.12.27.27s-.12.27-.27.27h-13.02ZM23.96,12.91c-2.73,0-4.96-2.22-4.96-4.96s2.22-4.96,4.96-4.96,4.96,2.22,4.96,4.96-2.22,4.96-4.96,4.96ZM23.96,3.53c-1.18,0-2.29.46-3.13,1.3-1.72,1.72-1.72,4.53,0,6.26.84.84,1.95,1.3,3.13,1.3s2.29-.46,3.13-1.3c.84-.84,1.3-1.95,1.3-3.13s-.46-2.29-1.3-3.12c-.84-.84-1.95-1.3-3.13-1.3ZM23.96,10.65c-.15,0-.27-.12-.27-.27v-.39h-.88c-.15,0-.27-.12-.27-.27s.12-.27.27-.27h1.34c.42,0,.75-.28.75-.64,0-.46-.54-.54-.98-.59-.9-.12-1.45-.24-1.45-1.12,0-.57.44-1.06,1.05-1.16l.17-.03v-.38c0-.15.12-.27.27-.27s.27.12.27.27v.39h.68c.15,0,.27.12.27.27s-.12.27-.27.27h-1.14c-.42,0-.75.28-.75.64,0,.46.54.53.98.59.89.12,1.44.24,1.44,1.12,0,.57-.44,1.06-1.05,1.16l-.17.03v.38c0,.15-.12.27-.27.27Z"/>
    </g>
  </g>
</svg>