<?xml version="1.0" encoding="UTF-8"?>
<svg id="Layer_2" xmlns="http://www.w3.org/2000/svg" xmlns:xlink="http://www.w3.org/1999/xlink" viewBox="0 0 50 31">
  <defs>
    <style>
      .cls-1 {
        fill: #fff;
      }

      .cls-2 {
        fill: none;
      }

      .cls-3 {
        clip-path: url(#clippath);
      }
    </style>
    <clipPath id="clippath">
      <rect class="cls-2" width="50" height="31"/>
    </clipPath>
  </defs>
  <g id="Layer_1-2" data-name="Layer_1">
    <g class="cls-3">
      <path class="cls-1" d="M24.99,30.9c-3.4,0-6.17-2.77-6.17-6.17,0-.92.2-1.81.58-2.63v-13c0-.19.17-.35.36-.35h3.57c.19,0,.35.16.35.35v9.59l.12-.02c.38-.07.78-.11,1.19-.11s.82.04,1.18.12l.12.03v-3.17c0-.19.16-.35.35-.35h3.57c.19,0,.35.16.35.35v6.53c.4.86.59,1.75.59,2.67,0,3.4-2.77,6.17-6.17,6.17ZM25,19.25c-1.46,0-2.83.57-3.87,1.6-2.13,2.13-2.13,5.6,0,7.73,1.03,1.03,2.41,1.6,3.87,1.6s2.83-.57,3.87-1.6c1.03-1.03,1.6-2.4,1.6-3.86,0-1.46-.57-2.84-1.6-3.87-1.03-1.03-2.41-1.6-3.87-1.6ZM20.13,20.93l.18-.21c.71-.83,1.61-1.45,2.62-1.81l.07-.02v-9.45h-2.86v11.48ZM27.01,18.88l.07.02c1.01.36,1.92.98,2.62,1.81l.18.21v-5.05h-2.86v3.01ZM25,28.54c-.19,0-.35-.16-.35-.35v-.55l-.07-.02c-.72-.19-1.23-.85-1.23-1.6,0-.19.16-.35.35-.35s.35.16.35.35c0,.59.5.95.96.95.25,0,.48-.1.66-.28.18-.18.28-.42.28-.67,0-.71-.54-.84-1.02-.96-.81-.19-1.57-.37-1.57-1.64,0-.75.5-1.4,1.23-1.6l.07-.02v-.55c0-.19.16-.35.35-.35s.35.16.35.35v.55l.07.02c.72.19,1.23.85,1.23,1.6,0,.19-.16.35-.35.35s-.35-.16-.35-.35c0-.59-.5-.95-.96-.95-.25,0-.48.1-.66.28-.18.18-.28.42-.28.67,0,.71.54.84,1.02.96.81.19,1.57.38,1.57,1.64,0,.75-.5,1.4-1.23,1.6l-.07.02v.55c0,.19-.16.35-.35.35ZM12.9,26.14c-.19,0-.35-.16-.35-.35v-10.67c0-.19.16-.35.35-.35h3.57c.19,0,.35.16.35.35v10.67c0,.19-.16.35-.35.35h-3.57ZM13.25,25.44h2.86v-9.97h-2.86v9.97ZM33.54,22.92c-.19,0-.35-.16-.35-.35v-9.84c0-.19.16-.35.35-.35h3.57c.19,0,.35.16.35.35v9.84c0,.19-.16.35-.35.35h-3.57ZM33.89,22.22h2.86v-9.14h-2.86v9.14ZM28.44,12.26c-.79,0-1.5-.45-1.85-1.16-.35-.72-.26-1.55.23-2.18l.05-.06-4.16-4.96-.07.04c-.32.2-.7.3-1.08.3-.4,0-.79-.11-1.12-.33l-.07-.04-4.03,4.05.05.07c.44.64.48,1.44.12,2.13-.36.69-1.05,1.1-1.83,1.1-.85,0-1.58-.49-1.91-1.28-.33-.79-.16-1.65.44-2.25.38-.38.92-.61,1.46-.61.38,0,.76.11,1.08.31l.07.04,4.04-4.06-.04-.07c-.42-.64-.45-1.43-.09-2.11.37-.68,1.05-1.09,1.82-1.09s1.46.41,1.83,1.11c.36.7.32,1.5-.12,2.14l-.04.06,4.19,5,.07-.04c.29-.16.63-.24.97-.24.55,0,1.08.22,1.47.61l.06.06,3.46-2.12-.03-.08c-.24-.64-.15-1.35.24-1.91.39-.57,1.01-.89,1.69-.89.85,0,1.58.49,1.91,1.28.33.79.16,1.65-.44,2.25-.39.39-.91.6-1.46.6-.56,0-1.08-.22-1.46-.61l-.06-.06-3.46,2.13.03.08c.24.64.15,1.35-.24,1.91-.39.57-1.01.89-1.69.89ZM28.45,8.82c-.68,0-1.38.51-1.38,1.37s.7,1.37,1.37,1.37h0c.36,0,.7-.14.96-.4.26-.26.4-.61.4-.97,0-.36-.14-.7-.4-.96-.26-.26-.6-.4-.95-.4ZM14.68,7.78c-.67,0-1.37.51-1.37,1.37s.71,1.37,1.38,1.37h0c.36,0,.69-.14.95-.4.53-.53.53-1.4,0-1.93-.26-.26-.6-.4-.96-.4ZM35.34,4.49c-.66,0-1.38.52-1.38,1.36s.71,1.37,1.38,1.37h0c.36,0,.69-.14.95-.4.53-.53.53-1.4,0-1.93-.26-.26-.59-.4-.95-.4ZM21.57.8c-.66,0-1.38.52-1.38,1.36s.71,1.37,1.38,1.37h0c.36,0,.69-.14.95-.4s.4-.6.4-.97-.14-.71-.4-.96c-.26-.26-.59-.4-.95-.4Z"/>
    </g>
  </g>
</svg>