<?xml version="1.0" encoding="UTF-8"?>
<svg id="Layer_2" xmlns="http://www.w3.org/2000/svg" xmlns:xlink="http://www.w3.org/1999/xlink" viewBox="0 0 50 31">
  <defs>
    <style>
      .cls-1 {
        fill: #fff;
      }

      .cls-2 {
        fill: none;
      }

      .cls-3 {
        clip-path: url(#clippath);
      }
    </style>
    <clipPath id="clippath">
      <rect class="cls-2" width="50" height="31"/>
    </clipPath>
  </defs>
  <g id="Layer_1-2" data-name="Layer_1">
    <g class="cls-3">
      <path class="cls-1" d="M10.06,30.8c-.2,0-.36-.16-.36-.36s.16-.36.36-.36h1.14V9.26s-.95.57-.95.57c-.06.03-.12.05-.18.05-.13,0-.25-.07-.31-.18-.05-.08-.06-.18-.04-.27.02-.09.08-.17.16-.22L24.82.25c.05-.03.12-.05.18-.05s.13.02.18.05l14.94,8.96c.08.05.14.13.17.22.02.09,0,.19-.04.27-.06.11-.18.18-.31.18-.04,0-.11,0-.18-.05l-.95-.57v20.81h1.13c.2,0,.36.16.36.36s-.16.36-.36.36H10.06ZM33.96,12.15c.2,0,.36.16.36.36v17.57h3.76V8.95L25,.98l-12.99,7.79-.1,21.3h3.76V12.51c0-.2.16-.36.36-.36s.36.16.36.36v1.49l.29-.15c.26-.14.55-.21.84-.21h2.24c1.02,0,1.86.83,1.86,1.85,0,.29-.07.58-.21.84l-.15.29h12.33v-4.12c0-.2.16-.36.36-.36ZM16.4,30.08h17.2v-4.51h-17.2v4.51ZM19.77,21.86c1.02,0,1.86.83,1.86,1.86,0,.29-.07.58-.21.84l-.15.29h12.33v-7.49h-17.2v4.87l.29-.15c.26-.14.54-.21.84-.21h2.24ZM17.53,22.58c-.62,0-1.13.51-1.13,1.13s.51,1.13,1.13,1.13h2.24c.62,0,1.13-.51,1.13-1.13s-.51-1.13-1.13-1.13h-2.24ZM17.53,14.37c-.62,0-1.13.51-1.13,1.13s.51,1.13,1.13,1.13h2.24c.62,0,1.13-.51,1.13-1.13s-.51-1.13-1.13-1.13h-2.24Z"/>
    </g>
  </g>
</svg>