<?xml version="1.0" encoding="UTF-8"?>
<svg id="Layer_2" xmlns="http://www.w3.org/2000/svg" xmlns:xlink="http://www.w3.org/1999/xlink" viewBox="0 0 50 31">
  <defs>
    <style>
      .cls-1 {
        fill: #fff;
      }

      .cls-2 {
        fill: none;
      }

      .cls-3 {
        clip-path: url(#clippath);
      }
    </style>
    <clipPath id="clippath">
      <rect class="cls-2" width="50" height="31"/>
    </clipPath>
  </defs>
  <g id="Layer_1-2" data-name="Layer_1">
    <g class="cls-3">
      <path class="cls-1" d="M23.12,30.9c-.17,0-.31-.12-.33-.29l-.44-3.15-.07-.02c-1-.25-1.95-.65-2.84-1.18l-.06-.03-2.53,1.92c-.06.04-.13.07-.2.07-.09,0-.17-.03-.23-.1l-2.67-2.67c-.12-.12-.13-.3-.03-.43l1.92-2.53-.03-.06c-.52-.88-.92-1.84-1.18-2.84l-.02-.07-3.15-.43c-.16-.02-.29-.16-.29-.33v-3.77c0-.16.12-.3.29-.33l.82-.11-.32-.14c-.53-.23-1.05-.51-1.55-.83-.1-.06-.15-.17-.15-.28v-.99c0-1.4.46-2.8,1.31-3.92.84-1.12,2.05-1.96,3.39-2.36l.2-.06-.17-.12c-1.14-.8-1.62-2.22-1.21-3.55.42-1.32,1.63-2.21,3.02-2.21s2.6.89,3.02,2.21-.07,2.75-1.21,3.55l-.17.12.2.06c1.35.4,2.51,1.2,3.36,2.31l.05.07.08-.04c.39-.21.8-.38,1.23-.5l.2-.06-.17-.12c-1.14-.8-1.62-2.22-1.2-3.55.42-1.32,1.63-2.21,3.02-2.21s2.6.89,3.02,2.21c.42,1.33-.07,2.75-1.2,3.55l-.17.12.2.06c.43.13.84.29,1.23.5l.08.04.05-.07c.85-1.12,2.01-1.92,3.36-2.31l.2-.06-.17-.12c-1.14-.8-1.62-2.22-1.21-3.54.42-1.33,1.63-2.22,3.02-2.22s2.6.89,3.02,2.22-.07,2.75-1.21,3.54l-.17.12.2.06c1.34.4,2.55,1.24,3.39,2.36s1.31,2.52,1.31,3.92v.99c0,.11-.06.22-.15.28-.49.31-1.01.59-1.55.83l-.32.14.82.11c.16.02.29.16.29.33v3.77c0,.16-.12.3-.29.33l-3.15.43-.02.07c-.26,1-.65,1.96-1.18,2.84l-.03.06,1.92,2.53c.1.13.09.32-.03.43l-2.67,2.67c-.06.06-.15.1-.23.1-.07,0-.14-.02-.2-.07l-2.53-1.92-.06.03c-.89.53-1.84.92-2.84,1.18l-.07.02-.43,3.15c-.02.16-.16.29-.33.29h-3.77ZM19.37,25.51c.06,0,.12.02.18.05.97.62,2.04,1.06,3.18,1.32.13.03.24.14.25.28l.43,3.09h3.2l.42-3.09c.02-.14.12-.25.25-.28,1.13-.26,2.2-.7,3.18-1.32.05-.03.11-.05.18-.05.07,0,.14.02.2.07l2.49,1.88,2.26-2.26-1.88-2.48c-.08-.11-.09-.26-.02-.38.62-.98,1.06-2.05,1.32-3.18.03-.13.14-.24.28-.26l3.09-.43v-3.19l-1.84-.25c-1.04.27-2.07.41-3.11.41-.6,0-1.22-.05-1.83-.14h-.06s-.04.04-.04.04c-.03.04-.06.07-.1.09-.29.18-.58.35-.88.5l-.06.03v.07c.05.28.08.56.08.85,0,1.97-1.06,3.8-2.76,4.78-.84.48-1.79.74-2.76.74s-1.92-.26-2.76-.74c-1.7-.98-2.76-2.82-2.76-4.78,0-.28.02-.57.07-.85v-.07s-.05-.03-.05-.03c-.3-.16-.59-.32-.88-.5-.04-.02-.07-.06-.09-.09l-.04-.05h-.06c-.61.1-1.23.15-1.83.15-1.04,0-2.07-.14-3.07-.4l-1.88.25v3.19l3.09.43c.14.02.25.12.28.25.26,1.13.7,2.2,1.32,3.18.08.12.07.27-.02.38l-1.88,2.48,2.26,2.26,2.49-1.88c.06-.04.13-.07.2-.07ZM20.17,16.39c-.13,1.32.29,2.65,1.15,3.66.87,1.01,2.12,1.62,3.44,1.69.08,0,.16,0,.24,0,1.25,0,2.44-.48,3.35-1.34.96-.92,1.51-2.2,1.51-3.53,0-.16,0-.33-.02-.49v-.13s-.14.05-.14.05c-1.49.64-3.07.96-4.7.96s-3.2-.32-4.7-.96l-.12-.05v.14ZM25,8.27c-1.07,0-2.11.29-3.03.84-1.82,1.14-2.85,3-2.85,5.04v.75c1.81,1.14,3.83,1.7,5.88,1.7s4.07-.56,5.83-1.61l.05-.83c0-2.04-1.03-3.91-2.77-4.99l-.08-.05c-.92-.55-1.96-.84-3.03-.84ZM16.6,6.43c-1.48,0-2.9.55-3.99,1.56-1.2,1.11-1.89,2.69-1.89,4.32v.75c.93.62,1.88,1.02,2.87,1.3,1.03.28,2.02.41,3.01.41.59,0,1.19-.05,1.78-.14h.08v-.48c0-2.11,1.03-4.1,2.74-5.32l.09-.06-.06-.08c-1.01-1.29-2.52-2.1-4.16-2.24-.16-.01-.32-.02-.47-.02ZM33.4,6.43c-.16,0-.32,0-.47.02-1.63.13-3.15.95-4.15,2.23l-.06.08.09.06c1.72,1.23,2.74,3.22,2.74,5.33v.46h.08c.59.11,1.18.16,1.78.16.99,0,1.98-.13,2.94-.39,1.07-.29,2.01-.7,2.89-1.23l.04-.84c0-1.64-.69-3.21-1.89-4.32-1.09-1.01-2.5-1.56-3.99-1.56ZM25,2.6c-.33,0-.65.06-.96.19-.94.39-1.55,1.3-1.55,2.31,0,1.38,1.12,2.5,2.5,2.5,1.02,0,1.93-.61,2.32-1.54s.18-2.01-.54-2.73c-.47-.47-1.1-.74-1.77-.74ZM33.4.77c-.33,0-.65.06-.96.19-.94.39-1.54,1.3-1.54,2.31h0c0,1.38,1.13,2.5,2.5,2.5,1.02,0,1.92-.61,2.31-1.54.39-.94.18-2.01-.54-2.73-.47-.47-1.1-.73-1.77-.73ZM16.6.76c-.33,0-.65.06-.96.19-.94.39-1.54,1.3-1.54,2.32,0,1.38,1.13,2.5,2.5,2.5,1.02,0,1.92-.61,2.31-1.55.39-.94.18-2.01-.54-2.73-.47-.47-1.1-.73-1.77-.73Z"/>
    </g>
  </g>
</svg>