<?xml version="1.0" encoding="UTF-8"?>
<svg id="Layer_2" xmlns="http://www.w3.org/2000/svg" xmlns:xlink="http://www.w3.org/1999/xlink" viewBox="0 0 50 31">
  <defs>
    <style>
      .cls-1 {
        fill: #fff;
        fill-rule: evenodd;
      }

      .cls-2 {
        fill: none;
      }

      .cls-3 {
        clip-path: url(#clippath);
      }
    </style>
    <clipPath id="clippath">
      <rect class="cls-2" width="50" height="31"/>
    </clipPath>
  </defs>
  <g id="Layer_1-2" data-name="Layer_1">
    <g class="cls-3">
      <path class="cls-1" d="M23.58,30.8c-8.43,0-15.29-6.86-15.29-15.3S15.15.2,23.58.2s15.3,6.86,15.3,15.3c0,1.53-.23,3.05-.68,4.53l-.06.19.18.06c2.03.69,3.39,2.59,3.39,4.73,0,2.76-2.24,5-5,5-1.59,0-3.04-.73-3.99-1.99l-.12-.16-.16.11c-2.6,1.85-5.66,2.83-8.87,2.83ZM23.55,20.47c-4.08,0-7.87,1.62-10.68,4.58l-.13.13.13.14c2.74,3,6.64,4.71,10.7,4.71,2.93,0,5.76-.87,8.17-2.51l.54-.37h-2c-.13,0-.24-.06-.31-.16l-.36-.52-.36.52c-.08.1-.19.16-.31.16h-1.26c-.13,0-.25-.06-.33-.17l-.37-.52-.35.53c-.07.1-.19.16-.31.16h-1.69c-.12,0-.23-.06-.31-.16l-1.32-1.76c-.1-.14-.1-.32,0-.46l1.32-1.77c.08-.09.19-.15.31-.15h6.99s-.63-.37-.63-.37c-2.24-1.31-4.81-2.01-7.43-2.01ZM29.61,25.42c.12,0,.24.06.32.17l.56.8h1.96c.16,0,.3.09.35.23.66,1.59,2.2,2.62,3.92,2.62,2.34,0,4.24-1.9,4.24-4.23s-1.9-4.23-4.24-4.23c-1.72,0-3.26,1.03-3.92,2.61-.05.14-.2.24-.35.24h-7.62l-1.02,1.38,1.02,1.38h1.3l.55-.8c.08-.1.19-.16.31-.16.13,0,.25.06.33.17l.56.8h.86l.56-.8c.07-.1.19-.16.31-.16ZM23.58.97c-8.01,0-14.53,6.52-14.53,14.53,0,3.26,1.06,6.35,3.05,8.91l.14.18.16-.17c2.95-3.04,6.91-4.72,11.15-4.72,3.11,0,6.11.92,8.67,2.65l.17.11.11-.17c.92-1.44,2.5-2.29,4.21-2.29.17,0,.35,0,.51.03l.16.02.05-.16c.45-1.42.67-2.9.67-4.39,0-8.01-6.52-14.53-14.54-14.53ZM37.94,26.8c-.98,0-1.78-.8-1.78-1.79s.8-1.79,1.78-1.79,1.79.8,1.79,1.79-.8,1.79-1.79,1.79ZM37.94,23.98c-.56,0-1.02.46-1.02,1.02s.46,1.03,1.02,1.03,1.03-.46,1.03-1.03-.46-1.02-1.03-1.02ZM23.58,17.54c-3.52,0-6.38-2.86-6.38-6.38s2.86-6.38,6.38-6.38,6.38,2.86,6.38,6.38-2.86,6.38-6.38,6.38ZM23.58,5.55c-3.09,0-5.61,2.52-5.61,5.61s2.52,5.61,5.61,5.61,5.61-2.52,5.61-5.61-2.52-5.61-5.61-5.61Z"/>
    </g>
  </g>
</svg>