<?xml version="1.0" encoding="UTF-8"?>
<svg id="Layer_2" xmlns="http://www.w3.org/2000/svg" viewBox="0 0 728.38 119.69">
  <defs>
    <style>
      .cls-1 {
        fill: #112e57;
      }

      .cls-2 {
        fill: #0e2a55;
      }

      .cls-3 {
        fill: #fb601c;
      }

      .cls-4 {
        fill: #fd621f;
      }
    </style>
  </defs>
  <g id="Layer_1-2" data-name="Layer_1">
    <g>
      <path class="cls-3" d="M485.81,48.38c0,13.92,11.33,25.24,25.27,25.24,5.31,0,10.37-1.62,14.64-4.69l7.82,10.9c-6.57,4.72-14.34,7.21-22.47,7.21-21.33,0-38.68-17.34-38.68-38.66s17.35-38.68,38.68-38.68c8.13,0,15.9,2.49,22.47,7.2l-7.82,10.9c-4.27-3.07-9.34-4.69-14.64-4.69-13.93,0-25.27,11.34-25.27,25.26Z"/>
      <path class="cls-3" d="M584.73,30.96v55.67h-13.42v-2.6s0,0,0,0c-3.15,1.81-6.71,2.97-10.49,3.29-.76.07-1.56.09-2.32.09-15.27,0-28.02-12.36-28.44-27.61-.22-7.76,2.64-15.09,8.03-20.66,5.41-5.55,12.65-8.61,20.39-8.61,4.49,0,8.9,1.07,12.83,3.06,0,0,0,0,0,0v-2.64h13.42ZM571.31,53.9c0-2.03-.69-3.93-1.9-5.23-2.88-3.04-6.75-4.72-10.93-4.72s-7.92,1.61-10.75,4.56c-2.86,2.93-4.36,6.8-4.25,10.91.22,7.91,7.09,14.58,15.02,14.58.42.02.83-.02,1.23-.04,6.51-.54,11.58-6.39,11.58-13.33v-6.73Z"/>
      <path class="cls-3" d="M669.19,54.96v31.67h-13.42v-31.67c0-6.07-4.36-11.01-9.71-11.01s-9.72,4.94-9.72,11.01v31.67h-13.41v-31.67c0-6.07-4.36-11.01-9.71-11.01s-9.72,4.94-9.72,11.01v31.67h-13.41V30.97h13.41v1.86c2.96-1.45,6.24-2.29,9.72-2.29,6.42,0,12.23,2.78,16.42,7.25,4.19-4.47,10.01-7.25,16.42-7.25,12.75,0,23.13,10.96,23.13,24.42Z"/>
      <path class="cls-3" d="M728.36,59.8c-.42,15.25-13.17,27.61-28.42,27.61-.78,0-1.56-.02-2.35-.09-3.8-.31-7.36-1.48-10.49-3.29h0v23.18h-13.41V31.21h13.41v2.4h0c3.96-2.01,8.36-3.09,12.83-3.09,7.74,0,14.98,3.06,20.39,8.61,5.41,5.57,8.25,12.9,8.03,20.66ZM714.97,59.42c.11-4.11-1.41-7.98-4.25-10.91-2.86-2.95-6.69-4.56-10.78-4.56s-8.05,1.68-10.91,4.72c-1.23,1.3-1.92,3.2-1.92,5.23v6.73c0,6.93,5.1,12.79,11.58,13.33.4.02.78.04,1.23.04,7.94,0,14.82-6.66,15.05-14.58Z"/>
    </g>
    <g>
      <path class="cls-1" d="M294.86,16.44h15.26l.08.04-31.27,73.31h-12.88l-29.54-73.35h15.22l20.94,51.83,22.17-51.83Z"/>
      <path class="cls-1" d="M325.76,28.04v61.75h-14.07V28.04h14.07ZM318.69,23.72c-1.92,0-3.56-.69-4.92-2.06-1.36-1.37-2.04-3.02-2.04-4.94s.68-3.61,2.04-4.98c1.36-1.37,3-2.06,4.92-2.06s3.65.69,5.02,2.06c1.37,1.37,2.06,3.03,2.06,4.98s-.69,3.57-2.06,4.94c-1.37,1.37-3.04,2.06-5.02,2.06Z"/>
      <path class="cls-1" d="M364.48,109.99c-4.28,0-8.43-.6-12.46-1.81-4.03-1.21-7.36-2.76-10-4.65l8.64-10.24c1.45,1.07,3.42,1.93,5.9,2.59,2.48.66,5.12.99,7.92.99,9.41,0,14.11-3.5,14.11-10.49v-4.81c-4.83,2.74-10.09,4.11-15.8,4.11-4.28,0-8.28-.75-12.01-2.24-3.73-1.49-7.01-3.56-9.83-6.19-2.82-2.63-5.04-5.69-6.64-9.17-1.6-3.48-2.41-7.23-2.41-11.23s.8-7.71,2.41-11.19c1.6-3.48,3.82-6.54,6.64-9.17,2.82-2.63,6.1-4.7,9.83-6.19,3.73-1.49,7.73-2.24,12.01-2.24,5.7,0,10.97,1.36,15.8,4.07v.29l.08.04v-4.4h13.99v56.98c-.14,6.64-1.93,11.92-5.39,15.84-2.93,3.35-6.5,5.73-10.7,7.16-3.98,1.32-8.01,1.97-12.09,1.97ZM362.79,72.64c3.59,0,6.81-.94,9.65-2.82,2.84-1.88,4.89-4.34,6.15-7.38v-11.15c-1.21-2.91-3.1-5.27-5.68-7.08-2.99-2.08-6.36-3.13-10.12-3.13-2.33,0-4.52.41-6.56,1.23-2.04.82-3.84,1.95-5.39,3.39-1.55,1.44-2.76,3.11-3.64,5.02-.88,1.91-1.32,3.94-1.32,6.11,0,4.36,1.65,8.08,4.96,11.17,3.3,3.09,7.29,4.63,11.95,4.63Z"/>
      <path class="cls-1" d="M429.72,89.79c-4.28,0-8.28-.8-12.01-2.41-3.73-1.6-7.01-3.81-9.83-6.62-2.82-2.81-5.04-6.09-6.64-9.83-1.6-3.74-2.41-7.74-2.41-11.99s.8-8.28,2.41-12.01c1.6-3.73,3.82-7.01,6.64-9.83,2.82-2.82,6.1-5.04,9.83-6.64,3.73-1.6,7.73-2.41,12.01-2.41s8.25.8,11.99,2.41c3.74,1.6,7.02,3.82,9.83,6.64,2.81,2.82,5.02,6.1,6.62,9.83,1.6,3.73,2.41,7.73,2.41,12.01s-.8,8.25-2.41,11.99c-1.6,3.74-3.81,7.02-6.62,9.83-2.81,2.81-6.09,5.02-9.83,6.62-3.74,1.6-7.74,2.41-11.99,2.41ZM429.72,75.8c2.33,0,4.52-.44,6.56-1.32,2.04-.88,3.83-2.08,5.37-3.62,1.54-1.54,2.74-3.33,3.62-5.37.88-2.04,1.32-4.23,1.32-6.56s-.44-4.52-1.32-6.56c-.88-2.04-2.08-3.84-3.62-5.39-1.54-1.55-3.33-2.76-5.37-3.64-2.04-.88-4.23-1.32-6.56-1.32-4.66,0-8.65,1.65-11.95,4.96-3.31,3.3-4.96,7.29-4.96,11.95,0,2.33.44,4.52,1.32,6.56.88,2.04,2.09,3.83,3.64,5.37,1.55,1.54,3.35,2.74,5.39,3.62,2.04.88,4.23,1.32,6.56,1.32Z"/>
    </g>
    <g>
      <path class="cls-4" d="M190.01,53.39c-3.37,1.56-8.74,4.05-15.31,7.11-49.55,23.09-50.16,24.17-55.49,24.17s-5.94-1.08-55.49-24.17c-6.58-3.07-11.94-5.55-15.31-7.11-4.85,11.7-7.13,23.19-4,35.86,14.38-1.14,28.3.12,41.82,4.8,13.87,4.8,23.56,14.63,32.98,25.63,9.42-11,19.11-20.83,32.98-25.63,13.52-4.68,27.44-5.95,41.82-4.8,3.14-12.68.85-24.17-4-35.86Z"/>
      <path class="cls-2" d="M127.43,1.55c-5.29-2.07-11.17-2.07-16.46,0L22.04,36.33l16.48,6.23c-2.86,7.97-5.48,15.44-8.31,22.81-.39,1.01-1.91,1.79-3.08,2.24-5.1,1.97-6.88,5.94-5.37,11.02.51,1.71.22,4.22-.75,5.67-1.5,2.25-3.69,4.18-5.95,5.73-4.76,3.29-9.76,6.24-15.06,9.59,2.68,3.91,5.11,8.67,10.34,8.88,4.64.2,6.76-4.23,8.7-7.97,2.48-4.78,4.79-9.67,7.43-14.37.71-1.28,2.16-2.55,3.54-2.98,6.45-2.01,8.49-7.16,5.04-12.85-.65-1.07-.94-2.9-.48-4.01,2.45-5.99,5.23-11.85,7.81-17.79.81-1.89,1.75-3.01,3.04-3.36l65.78,24.89c5.15,1.95,10.84,1.95,15.99,0l89.16-33.73L127.43,1.55Z"/>
    </g>
  </g>
</svg>