<?xml version="1.0" encoding="UTF-8"?>
<svg id="Layer_2" xmlns="http://www.w3.org/2000/svg" viewBox="0 0 90 90">
  <defs>
    <style>
      .cls-1 {
        fill: #fff;
      }

      .cls-2 {
        fill: #112e57;
      }
    </style>
  </defs>
  <g id="Layer_1-2" data-name="Layer_1">
    <circle class="cls-2" cx="45" cy="45" r="45"/>
    <path class="cls-1" d="M37.52,69.5c-.31,0-.56-.25-.56-.56v-19.05l-4.48,2.59c-.68.39-1.46.6-2.24.6-1.22,0-2.39-.51-3.22-1.39l-7.7-8.14c-.72-.78-1.12-1.79-1.12-2.84s.39-2.04,1.09-2.81c.6-.64,1.37-1.07,2.23-1.23l.41-.08v-10.5c0-.31.25-.56.56-.56s.56.25.56.56v10.58s.37.1.37.1c.75.21,1.38.57,1.88,1.08l5.22,5.42,3.94-4.38c1.54-1.71,3.74-2.69,6.05-2.69h2.72l-1.04-.88c-1.89-1.61-2.97-3.94-2.97-6.4,0-4.63,3.77-8.4,8.4-8.4s8.4,3.77,8.4,8.4c0,2.46-1.08,4.79-2.97,6.4l-1.04.88h2.34c4.15,0,7.62,3.11,8.08,7.23l.06.53,3.95-.68c.12-.02.23-.03.35-.03.99,0,1.83.7,2.01,1.67l.23,1.26.73-.14s.06,0,.1,0c.14,0,.27.05.37.13.13.11.21.27.21.44v4.19l.35.11c.63.19,1.04.75,1.04,1.4v3.93c0,.65-.42,1.21-1.05,1.4l-.35.11v2.69c0,.27-.19.5-.46.55l-7.49,1.38v5.44c0,.31-.25.56-.56.56s-.56-.25-.56-.56v-5.31h-3.75s-.08,0-.11-.01l-8.11-1.5c-.27-.05-.46-.28-.46-.55v-13.82c0-.16.08-.33.2-.43.1-.08.23-.13.37-.13.03,0,.07,0,.1,0l.74.14.23-1.27c.18-.97,1.03-1.67,2.02-1.67.11,0,.23,0,.34.03l6.76,1.16,1.68-.29-.04-.46c-.32-3.57-3.38-6.36-6.97-6.36h-1.04l-5.76,5.74c-.11.11-.25.17-.4.17-.18,0-.33-.08-.43-.2l-4.83-5.71h-1.38c-1.99,0-3.88.84-5.21,2.32l-4.34,4.83c-.1.12-.25.18-.41.19-.15,0-.31-.06-.42-.17l-5.64-5.86c-.18-.19-.41-.36-.68-.52l-.75-.44v2.02c0,.31-.25.56-.56.56s-.56-.25-.56-.56v-2.05l-.68.25c-.45.17-.83.42-1.13.75-.51.56-.79,1.28-.79,2.04s.29,1.5.82,2.07l7.7,8.14c.62.66,1.5,1.04,2.41,1.04.58,0,1.16-.15,1.67-.45l5.32-3.08c.08-.05.18-.08.28-.08s.2.03.28.08c.17.1.28.29.28.49v20.03c0,.31-.25.56-.56.56ZM60.23,61.34h1.41l7.65-1.4v-2.26h-1.22c-1.89,0-3.43-1.54-3.43-3.44s1.54-3.43,3.43-3.43h1.22v-3.55l-7.46,1.37h-.1s-1.51.01-1.51.01v12.7ZM50.03,47.86v12.08l7.56,1.4h1.51s0-12.69,0-12.69h-1.52s-.07,0-.11-.01l-6.64-1.22-.03-.04h-.24s-.58-.1-.58-.1l.05.59ZM68.07,51.94c-1.27,0-2.31,1.04-2.31,2.31s1.04,2.31,2.31,2.31h2.62v-4.62h-2.62ZM66.62,44.37l-6.39,1.1v2.05h1.41l6.27-1.15-.24-1.26c-.08-.43-.46-.75-.91-.75h-.15ZM52.56,44.36c-.45,0-.83.32-.91.75l-.23,1.27,6.17,1.14h1.51s0-2.04,0-2.04l-6.43-1.11h-.11ZM47.17,41.82l4.53-4.51h-8.35l3.82,4.51ZM47.6,21.63c-4.01,0-7.28,3.26-7.28,7.27s3.26,7.28,7.28,7.28,7.27-3.26,7.27-7.28-3.26-7.27-7.27-7.27Z"/>
  </g>
</svg>