<?xml version="1.0" encoding="UTF-8"?>
<svg id="Layer_2" xmlns="http://www.w3.org/2000/svg" viewBox="0 0 90 90">
  <defs>
    <style>
      .cls-1 {
        fill: #fff;
      }

      .cls-2 {
        fill: #112e57;
      }
    </style>
  </defs>
  <g id="Layer_1-2" data-name="Layer_1">
    <circle class="cls-2" cx="45" cy="45" r="45"/>
    <path class="cls-1" d="M21.22,70.23c-.24,0-.43-.19-.43-.43v-25.84h-.2c-.64,0-1.14-.5-1.14-1.12v-1.47c0-.62.5-1.12,1.12-1.12h13.08s0-5.32,0-5.32l-.18-.02c-.56-.07-.98-.55-.98-1.11v-1.47c0-.62.5-1.12,1.12-1.12h10.95v-9.82l-.08-.06c-.22-.16-.36-.43-.36-.7,0-.48.39-.86.86-.86s.87.39.87.87c0,.27-.13.53-.35.69l-.33.24.39.11c.24.07.48.1.73.1.55,0,1.06-.16,1.59-.34.59-.19,1.19-.39,1.87-.39.62,0,1.22.16,1.84.5.14.07.22.22.22.38v4.69c0,.15-.08.29-.21.37-.07.04-.14.06-.22.06-.07,0-.14-.02-.2-.05-.5-.27-.96-.4-1.44-.4-.54,0-1.05.17-1.59.34-.58.19-1.18.39-1.87.39-.21,0-.43-.02-.65-.06l-.24-.04v3.98h10.95c.62,0,1.12.5,1.12,1.12v1.47c0,.56-.42,1.04-.98,1.11l-.18.02v5.32h13.08c.62,0,1.13.5,1.13,1.12v1.47c0,.62-.5,1.12-1.12,1.12h-.2l-.02.2v25.64c0,.24-.19.43-.43.43H21.22ZM34.51,69.38h1.62v-1.57c0-.53.43-.95.95-.95h.55v-9.71c0-.51.41-.92.92-.92h12.9c.51,0,.92.42.92.92v9.71h.55c.53,0,.95.43.95.95v1.56h1.62v-34.46h-20.98v34.46ZM56.34,69.38h12.01v-25.42h-12.01v25.42ZM36.98,69.38h16.03v-.2s0-1.46,0-1.46h-16.03v1.66ZM21.64,69.38h12.01v-25.42h-12.01v25.42ZM45.42,66.86h.2s5.89,0,5.89,0v-9.78h-6.09v9.77ZM38.48,66.86h.2s5.89,0,5.89,0v-9.78h-6.09v9.77ZM56.34,43.1h13.29s.07-.26.07-.26v-.2h0v-1.47l-.27-.07h-13.08v2ZM20.31,41.37v1.67l.27.07h13.08v-2h-13.28l-.07.27ZM33.35,32.33v1.67l.27.07h22.96l.07-.27v-1.67l-.27-.07h-22.96l-.07.27ZM45.42,22.77v3.56l.15.04c.25.07.5.11.76.11.56,0,1.06-.17,1.59-.34.58-.19,1.18-.38,1.87-.38.32,0,.64.04.96.13l.25.07v-3.76l-.12-.05c-.37-.16-.73-.23-1.09-.23-.54,0-1.05.17-1.59.34-.51.17-1.15.38-1.86.38-.21,0-.43-.02-.66-.06h-.2l-.04.2ZM60.64,66.06c-.62,0-1.12-.5-1.12-1.12v-5.49c0-.62.5-1.12,1.12-1.12h3.4c.62,0,1.12.5,1.12,1.12v5.49c0,.62-.5,1.12-1.12,1.12h-3.4ZM60.38,59.44v5.7s.26.07.26.07h3.6l.07-.27v-5.7l-.27-.07h-3.6l-.07.27ZM25.94,66.06c-.62,0-1.12-.5-1.12-1.12v-5.49c0-.62.5-1.12,1.12-1.12h3.4c.62,0,1.12.5,1.12,1.12v5.49c0,.62-.5,1.12-1.12,1.12h-3.4ZM25.68,59.44v5.7l.27.07h3.6l.07-.27v-5.7l-.27-.07h-3.6l-.07.27ZM25.94,55.01c-.62,0-1.12-.5-1.12-1.12v-5.49c0-.62.5-1.12,1.12-1.12h3.4c.62,0,1.12.5,1.12,1.12v5.49c0,.62-.5,1.12-1.12,1.12h-3.4ZM25.68,48.39v5.7l.27.07h3.6l.07-.27v-5.7l-.27-.07h-3.6l-.07.27ZM60.64,55.01c-.62,0-1.12-.5-1.12-1.12v-5.49c0-.62.5-1.12,1.12-1.12h3.4c.62,0,1.12.5,1.12,1.12v5.5c0,.62-.5,1.12-1.12,1.12h-3.4ZM60.38,48.39v5.69s.26.07.26.07h3.6l.07-.27v-5.69l-.27-.07h-3.6l-.07.27ZM45,52.04c-3.56,0-6.46-2.9-6.46-6.46s2.9-6.46,6.46-6.46,6.46,2.9,6.46,6.46-2.9,6.46-6.46,6.46ZM45,50.28c.24,0,.43.19.43.43v.46l.22-.03c1.02-.12,1.99-.52,2.82-1.17l.18-.14-.32-.32c-.08-.08-.12-.19-.12-.3s.04-.22.12-.3.19-.12.3-.12.22.04.3.12l.32.32.14-.18c.65-.81,1.05-1.79,1.17-2.82l.03-.22h-.46c-.24,0-.43-.19-.43-.43s.19-.43.43-.43h.46l-.03-.22c-.12-1.02-.52-2-1.17-2.82l-.14-.18-.32.32c-.08.08-.18.12-.3.12s-.22-.04-.3-.13c-.16-.16-.16-.44,0-.6l.32-.32-.18-.14c-.82-.65-1.79-1.05-2.82-1.17l-.22-.03v.46c0,.24-.19.43-.43.43s-.43-.19-.43-.43v-.46l-.22.03c-1.02.12-2,.52-2.82,1.17l-.18.14.32.32c.16.16.16.44,0,.6-.08.08-.19.13-.3.13s-.22-.04-.3-.13l-.32-.32-.14.18c-.65.81-1.05,1.79-1.17,2.82l-.03.22h.46c.24,0,.43.19.43.43s-.19.43-.43.43h-.46l.03.22c.12,1.02.52,2,1.17,2.82l.14.18.32-.32c.08-.08.19-.12.3-.12s.22.04.3.12c.16.16.16.44,0,.61l-.32.32.18.14c.82.65,1.79,1.05,2.82,1.17l.22.03v-.46c0-.24.19-.43.43-.43ZM43.14,47.85c-.11,0-.21-.04-.29-.12-.16-.16-.16-.44,0-.6l1.42-1.41v-.08c0-.26.08-.45.24-.59l.07-.06v-2.79c0-.24.19-.43.43-.43s.43.19.43.43v2.79l.07.06c.16.14.24.33.24.54,0,.41-.33.74-.74.74h-.08l-.09.05-1.37,1.36c-.08.08-.19.12-.3.12h-.01Z"/>
  </g>
</svg>