<?xml version="1.0" encoding="UTF-8"?>
<svg id="Layer_2" xmlns="http://www.w3.org/2000/svg" viewBox="0 0 90 90">
  <defs>
    <style>
      .cls-1 {
        fill: #fff;
      }

      .cls-2 {
        fill: #112e57;
      }
    </style>
  </defs>
  <g id="Layer_1-2" data-name="Layer_1">
    <circle class="cls-2" cx="45" cy="45" r="45"/>
    <g>
      <path class="cls-1" d="M56.88,53.73s-.11-.03-.19-.03c-.2,0-.38.09-.5.24-2.73,3.42-6.8,5.39-11.18,5.41-4.37-.01-8.45-1.97-11.18-5.39-.12-.15-.31-.24-.51-.24-.09,0-.17.02-.25.04-3.01,1.28-4.96,4.22-4.97,7.49v5c0,1.74,1.41,3.15,3.15,3.15h27.5c1.74,0,3.15-1.41,3.15-3.15v-5c0-3.27-1.95-6.21-5.02-7.52ZM60.6,66.25c0,1.04-.81,1.85-1.85,1.85h-27.5c-1.04,0-1.85-.81-1.85-1.85v-5.01c0-2.4,1.37-4.58,3.64-5.84l.41-.23.31.34c3.1,3.31,7.09,5.13,11.25,5.14,4.15,0,8.15-1.84,11.25-5.15l.31-.35.42.23c2.26,1.26,3.61,3.45,3.61,5.87v5Z"/>
      <path class="cls-1" d="M56.88,53.73s-.11-.03-.19-.03c-.2,0-.38.09-.5.24-2.73,3.42-6.8,5.39-11.18,5.41-4.37-.01-8.45-1.97-11.18-5.39-.12-.15-.31-.24-.51-.24-.09,0-.17.02-.25.04-3.01,1.28-4.96,4.22-4.97,7.49v5c0,1.74,1.41,3.15,3.15,3.15h27.5c1.74,0,3.15-1.41,3.15-3.15v-5c0-3.27-1.95-6.21-5.02-7.52ZM60.6,66.25c0,1.04-.81,1.85-1.85,1.85h-27.5c-1.04,0-1.85-.81-1.85-1.85v-5.01c0-2.4,1.37-4.58,3.64-5.84l.41-.23.31.34c3.1,3.31,7.09,5.13,11.25,5.14,4.15,0,8.15-1.84,11.25-5.15l.31-.35.42.23c2.26,1.26,3.61,3.45,3.61,5.87v5Z"/>
      <path class="cls-1" d="M56.88,53.73s-.11-.03-.19-.03c-.2,0-.38.09-.5.24-2.73,3.42-6.8,5.39-11.18,5.41-4.37-.01-8.45-1.97-11.18-5.39-.12-.15-.31-.24-.51-.24-.09,0-.17.02-.25.04-3.01,1.28-4.96,4.22-4.97,7.49v5c0,1.74,1.41,3.15,3.15,3.15h27.5c1.74,0,3.15-1.41,3.15-3.15v-5c0-3.27-1.95-6.21-5.02-7.52ZM60.6,66.25c0,1.04-.81,1.85-1.85,1.85h-27.5c-1.04,0-1.85-.81-1.85-1.85v-5.01c0-2.4,1.37-4.58,3.64-5.84l.41-.23.31.34c3.1,3.31,7.09,5.13,11.25,5.14,4.15,0,8.15-1.84,11.25-5.15l.31-.35.42.23c2.26,1.26,3.61,3.45,3.61,5.87v5Z"/>
      <path class="cls-1" d="M56.88,53.73s-.11-.03-.19-.03c-.2,0-.38.09-.5.24-2.73,3.42-6.8,5.39-11.18,5.41-4.37-.01-8.45-1.97-11.18-5.39-.12-.15-.31-.24-.51-.24-.09,0-.17.02-.25.04-3.01,1.28-4.96,4.22-4.97,7.49v5c0,1.74,1.41,3.15,3.15,3.15h27.5c1.74,0,3.15-1.41,3.15-3.15v-5c0-3.27-1.95-6.21-5.02-7.52ZM60.6,66.25c0,1.04-.81,1.85-1.85,1.85h-27.5c-1.04,0-1.85-.81-1.85-1.85v-5.01c0-2.4,1.37-4.58,3.64-5.84l.41-.23.31.34c3.1,3.31,7.09,5.13,11.25,5.14,4.15,0,8.15-1.84,11.25-5.15l.31-.35.42.23c2.26,1.26,3.61,3.45,3.61,5.87v5Z"/>
      <path class="cls-1" d="M64.39,27.5c0-1.17-.55-1.9-1.67-2.21l-15.09-4.32c-.83-.25-1.72-.37-2.63-.37s-1.79.12-2.62.37l-15.1,4.32c-.99.27-1.68,1.18-1.68,2.21s.69,1.94,1.68,2.21l5.82,1.67v11.12c0,6.56,5.34,11.9,11.9,11.9s11.9-5.34,11.9-11.9v-11.12l6.2-1.77v6.64c0,.35.3.65.65.65s.65-.3.65-.65v-1.78c0-2.33,0-4.59-.01-6.97ZM55.6,42.5c0,5.84-4.75,10.6-10.6,10.6s-10.6-4.76-10.6-10.6v-3.1h21.2v3.1ZM55.6,38.1h-21.2v-6.35l7.98,2.28c.87.25,1.75.37,2.62.37s1.75-.12,2.63-.37l7.97-2.28v6.35ZM62.38,28.47l-15.1,4.32c-.76.2-1.53.31-2.28.31s-1.51-.11-2.28-.31l-15.09-4.32c-.44-.13-.73-.52-.73-.97s.29-.84.73-.97l15.09-4.32c.73-.2,1.49-.31,2.28-.31s1.56.11,2.28.31l15.1,4.32c.43.13.72.51.72.97s-.29.84-.72.97Z"/>
      <path class="cls-1" d="M64.39,27.5c0-1.17-.55-1.9-1.67-2.21l-15.09-4.32c-.83-.25-1.72-.37-2.63-.37s-1.79.12-2.62.37l-15.1,4.32c-.99.27-1.68,1.18-1.68,2.21s.69,1.94,1.68,2.21l5.82,1.67v11.12c0,6.56,5.34,11.9,11.9,11.9s11.9-5.34,11.9-11.9v-11.12l6.2-1.77v6.64c0,.35.3.65.65.65s.65-.3.65-.65v-1.78c0-2.33,0-4.59-.01-6.97ZM55.6,42.5c0,5.84-4.75,10.6-10.6,10.6s-10.6-4.76-10.6-10.6v-3.1h21.2v3.1ZM55.6,38.1h-21.2v-6.35l7.98,2.28c.87.25,1.75.37,2.62.37s1.75-.12,2.63-.37l7.97-2.28v6.35ZM62.38,28.47l-15.1,4.32c-.76.2-1.53.31-2.28.31s-1.51-.11-2.28-.31l-15.09-4.32c-.44-.13-.73-.52-.73-.97s.29-.84.73-.97l15.09-4.32c.73-.2,1.49-.31,2.28-.31s1.56.11,2.28.31l15.1,4.32c.43.13.72.51.72.97s-.29.84-.72.97Z"/>
      <path class="cls-1" d="M64.39,27.5c0-1.17-.55-1.9-1.67-2.21l-15.09-4.32c-.83-.25-1.72-.37-2.63-.37s-1.79.12-2.62.37l-15.1,4.32c-.99.27-1.68,1.18-1.68,2.21s.69,1.94,1.68,2.21l5.82,1.67v11.12c0,6.56,5.34,11.9,11.9,11.9s11.9-5.34,11.9-11.9v-11.12l6.2-1.77v6.64c0,.35.3.65.65.65s.65-.3.65-.65v-1.78c0-2.33,0-4.59-.01-6.97ZM55.6,42.5c0,5.84-4.75,10.6-10.6,10.6s-10.6-4.76-10.6-10.6v-3.1h21.2v3.1ZM55.6,38.1h-21.2v-6.35l7.98,2.28c.87.25,1.75.37,2.62.37s1.75-.12,2.63-.37l7.97-2.28v6.35ZM62.38,28.47l-15.1,4.32c-.76.2-1.53.31-2.28.31s-1.51-.11-2.28-.31l-15.09-4.32c-.44-.13-.73-.52-.73-.97s.29-.84.73-.97l15.09-4.32c.73-.2,1.49-.31,2.28-.31s1.56.11,2.28.31l15.1,4.32c.43.13.72.51.72.97s-.29.84-.72.97Z"/>
      <path class="cls-1" d="M64.39,27.5c0-1.17-.55-1.9-1.67-2.21l-15.09-4.32c-.83-.25-1.72-.37-2.63-.37s-1.79.12-2.62.37l-15.1,4.32c-.99.27-1.68,1.18-1.68,2.21s.69,1.94,1.68,2.21l5.82,1.67v11.12c0,6.56,5.34,11.9,11.9,11.9s11.9-5.34,11.9-11.9v-11.12l6.2-1.77v6.64c0,.35.3.65.65.65s.65-.3.65-.65v-1.78c0-2.33,0-4.59-.01-6.97ZM55.6,42.5c0,5.84-4.75,10.6-10.6,10.6s-10.6-4.76-10.6-10.6v-3.1h21.2v3.1ZM55.6,38.1h-21.2v-6.35l7.98,2.28c.87.25,1.75.37,2.62.37s1.75-.12,2.63-.37l7.97-2.28v6.35ZM62.38,28.47l-15.1,4.32c-.76.2-1.53.31-2.28.31s-1.51-.11-2.28-.31l-15.09-4.32c-.44-.13-.73-.52-.73-.97s.29-.84.73-.97l15.09-4.32c.73-.2,1.49-.31,2.28-.31s1.56.11,2.28.31l15.1,4.32c.43.13.72.51.72.97s-.29.84-.72.97Z"/>
    </g>
  </g>
</svg>