<?xml version="1.0" encoding="UTF-8"?>
<svg id="Layer_2" xmlns="http://www.w3.org/2000/svg" xmlns:xlink="http://www.w3.org/1999/xlink" viewBox="0 0 50 40">
  <defs>
    <style>
      .cls-1 {
        fill: #112e57;
      }

      .cls-2 {
        fill: none;
      }

      .cls-3 {
        clip-path: url(#clippath);
      }
    </style>
    <clipPath id="clippath">
      <rect class="cls-2" width="50" height="40"/>
    </clipPath>
  </defs>
  <g id="Layer_1-2" data-name="Layer_1">
    <g class="cls-3">
      <path class="cls-1" d="M9.83,33.56l-.53.53v-2.3h1.78v2.3l-.53-.54h0c-.2-.19-.51-.19-.71,0h0ZM21.29,26.1c0,.21-.12.39-.31.47-.19.08-.41.03-.55-.11l-1.03-1.03-1.04,1.04c-.14.14-.36.19-.55.11-.19-.08-.31-.26-.31-.46v-3.51h-2.21v8.2h8.2v-8.2h-2.21v3.51ZM19.75,33.56l.53.54v-2.3h-1.78v2.3l.53-.54h0c.2-.19.51-.19.71,0h0ZM21.29,35.31h0c0,.2-.12.39-.31.47-.19.07-.41.03-.55-.12l-1.03-1.03-1.04,1.04h0c-.14.14-.36.19-.55.11-.19-.08-.31-.26-.31-.46v-3.51h-2.21v8.2h8.2v-8.2h-2.21v3.51ZM12.08,26.1c0,.21-.12.39-.31.47-.19.08-.41.03-.55-.11l-1.03-1.03-1.04,1.04c-.14.15-.36.19-.55.11-.19-.08-.31-.26-.31-.47v-3.51h-2.21v8.2h8.21v-8.2h-2.21v3.51ZM39.18,3.56h-2.56v12.28l2.56-4.43V3.56ZM14,.71l-3.17,3.17h3.17V.71ZM10.54,24.35l.53.53v-2.3h-1.78v2.3l.53-.53h0c.2-.2.51-.2.71,0ZM12.08,35.31h0c0,.2-.12.39-.31.46-.19.08-.4.03-.55-.11l-1.03-1.03-1.04,1.04c-.14.14-.36.19-.55.11-.19-.08-.31-.26-.31-.46v-3.51h-2.21v8.2h8.21v-8.2h-2.21v3.51ZM19.75,24.35l.53.53v-2.3h-1.78v2.3l.53-.53c.09-.09.22-.15.36-.15s.26.05.36.15h0ZM36.63,33.82c0,.28-.22.5-.5.51h-2.41v2.55h5.47v-17.44l-2.56,4.43v9.95ZM33.47,25.88l1.53-1.51-1.48-.85-.54,2.08-.25,1,.74-.72ZM33.89,22.58l1.75,1.01,7.06-12.24-1.75-1.01-7.06,12.24ZM33.71,31.29h0c0-.28-.22-.5-.5-.51h-8.71v-8.7c0-.28-.22-.51-.5-.51h-13.88V4.88h4.39c.13,0,.26-.05.36-.15s.15-.22.15-.36V0h20.62v17.58l-2.85,4.94s-.05.1-.06.15l-.7,2.69-.69,2.72c-.06.22.05.46.25.57.2.11.46.06.61-.11l1.99-1.94,1.45-1.43v8.15s-1.91,0-1.91,0v-2.02ZM31.81,13.1h0c.28,0,.5-.22.5-.5s-.22-.5-.5-.5h-9.21c-.28,0-.5.22-.5.5s.22.5.5.5h9.22ZM27.37,16.5h-4.78c-.28,0-.5.22-.5.5s.22.5.5.5h4.78c.28,0,.5-.22.5-.5s-.22-.5-.5-.5h0ZM22.59,9.71h4.78c.28,0,.5-.22.5-.5s-.22-.5-.5-.5h-4.78c-.28,0-.5.22-.5.5s.22.5.5.5ZM19.81,16.69c-.09-.09-.22-.15-.36-.15s-.26.05-.36.15l-2.96,2.96-1.85-1.85c-.2-.2-.51-.2-.71,0s-.2.51,0,.71l2.21,2.21c.2.2.51.2.71,0l3.31-3.31c.09-.09.15-.22.15-.36s-.05-.26-.15-.35h0ZM19.81,8.89c-.09-.09-.22-.15-.36-.15s-.26.05-.36.15l-2.96,2.96-1.85-1.85c-.2-.2-.51-.2-.71,0-.2.2-.2.51,0,.71l2.21,2.21c.2.19.51.19.71,0l3.31-3.31h0c.2-.2.2-.52,0-.71h0ZM32.62,4.43c.28,0,.5-.23.5-.51v-1.95c0-.28-.22-.5-.5-.5h-12.19c-.28,0-.5.22-.5.5v1.95h0c0,.28.22.5.5.5h12.19ZM31.81,20.9c.28,0,.5-.22.5-.5s-.22-.5-.5-.5h-9.21c-.28,0-.5.22-.5.5s.22.5.5.5h9.21ZM20.94,3.43h11.18v-.95h-11.18v.95ZM30.5,35.31c0,.2-.12.39-.31.46-.19.08-.4.03-.55-.11l-1.03-1.03-1.04,1.04c-.14.15-.36.19-.55.11-.19-.08-.31-.26-.31-.46v-3.51h-2.21v8.2h8.21v-8.2h-2.21v3.51ZM43.91,8.76c0-.16-.08-.31-.21-.41-.02-.01-.04-.02-.06-.04l-.57-.33c-.16-.07-.34-.07-.49.02-.26.12-.47.32-.61.57l-.52.91,1.75,1.01.52-.91h0c.15-.24.22-.53.19-.81h0ZM28.96,33.56l.53.54v-2.3h-1.78v2.3l.53-.54h0c.2-.19.51-.19.71,0h0Z"/>
    </g>
  </g>
</svg>