<?xml version="1.0" encoding="UTF-8"?>
<svg id="Layer_2" xmlns="http://www.w3.org/2000/svg" xmlns:xlink="http://www.w3.org/1999/xlink" viewBox="0 0 50 40">
  <defs>
    <style>
      .cls-1 {
        fill: #112e57;
      }

      .cls-2 {
        fill: none;
      }

      .cls-3 {
        clip-path: url(#clippath);
      }
    </style>
    <clipPath id="clippath">
      <rect class="cls-2" width="50" height="40"/>
    </clipPath>
  </defs>
  <g id="Layer_1-2" data-name="Layer_1">
    <g class="cls-3">
      <g>
        <path class="cls-1" d="M32.69,10.77h-15.39S6.53,20,6.53,30.77c0,6.15,4.63,9.23,7.69,9.23h21.54c3.07,0,7.69-3.08,7.69-9.23,0-10.77-10.77-20-10.77-20ZM26.54,32.15v2.46h-3.07v-2.46c-2.27-.42-3.69-1.82-3.79-3.85h2.67c.13,1.07,1.2,1.75,2.76,1.75,1.43,0,2.45-.69,2.45-1.68,0-.84-.66-1.32-2.27-1.68l-1.71-.37c-2.4-.5-3.58-1.75-3.58-3.76s1.34-3.46,3.47-3.93v-2.48h3.07v2.48c2.08.46,3.47,1.88,3.53,3.79h-2.57c-.13-1.04-1.1-1.74-2.43-1.74s-2.29.64-2.29,1.64c0,.81.63,1.26,2.17,1.61l1.59.34c2.65.56,3.79,1.68,3.79,3.74,0,2.2-1.41,3.68-3.77,4.13Z"/>
        <path class="cls-1" d="M32.69,1.53h-4.25c-1.71-1.9-4.64-2.05-6.54-.34-.12.11-.23.22-.34.34h-4.25c-.85,0-1.54.7-1.53,1.55,0,.19.04.38.11.56l1.43,4.05h15.39l1.43-4.05c.31-.79-.08-1.69-.87-2-.18-.07-.37-.11-.56-.11Z"/>
      </g>
    </g>
  </g>
</svg>