<?xml version="1.0" encoding="UTF-8"?>
<svg id="Layer_2" xmlns="http://www.w3.org/2000/svg" xmlns:xlink="http://www.w3.org/1999/xlink" viewBox="0 0 50 40">
  <defs>
    <style>
      .cls-1 {
        fill: #112e57;
      }

      .cls-2 {
        fill: none;
      }

      .cls-3 {
        clip-path: url(#clippath);
      }
    </style>
    <clipPath id="clippath">
      <rect class="cls-2" width="50" height="40"/>
    </clipPath>
  </defs>
  <g id="Layer_1-2" data-name="Layer_1">
    <g class="cls-3">
      <path class="cls-1" d="M23.59,6.59V.18c0-.1.08-.18.18-.18h2.47c.1,0,.18.08.18.18v6.41c0,.1-.08.18-.18.18h-2.47c-.1,0-.18-.08-.18-.18ZM37.44,7.66v31.12c0,.67-.54,1.22-1.21,1.22H13.78c-.67,0-1.22-.55-1.22-1.22V7.66c0-.67.55-1.21,1.22-1.21h8.89c-.06.65.43,1.23,1.1,1.23h2.47c.66,0,1.16-.58,1.1-1.23h8.89c.67,0,1.21.54,1.21,1.21h0ZM35.6,8.87c0-.25-.2-.46-.46-.46H14.86c-.25,0-.46.21-.46.46v28.71c0,.25.21.46.46.46h20.28c.26,0,.46-.21.46-.46V8.87ZM15.32,9.33h19.37v27.8H15.32s0-27.8,0-27.8ZM31.3,34.05h-12.59c-.61,0-.6.91,0,.92h12.59c.6-.01.6-.91,0-.92h0ZM31.3,31.38h-12.59c-.61,0-.6.91,0,.92h12.59c.6-.01.6-.91,0-.92h0ZM21.92,29.64h6.16c.26,0,.46-.21.46-.46s-.2-.46-.46-.46h-6.16c-.25,0-.46.21-.46.46,0,.25.21.46.46.46ZM21.48,21.74h7.05c2.68-.4.22-4.05-1.2-4.64,1.58-1.83.16-4.88-2.25-4.88-2.5-.13-4.03,2.99-2.41,4.88-1.2.67-2.08,1.84-2.37,3.19-.18.72.43,1.47,1.17,1.45h0ZM17.09,26.3c0,.25.21.46.46.46h14.9c.25,0,.46-.21.46-.46v-2.35c0-.25-.21-.46-.46-.46h-14.9c-.25,0-.46.21-.46.46v2.35ZM27.08,15.31c.02-2.8-4.06-2.92-4.16-.1.05,2.67,3.98,2.77,4.16.1ZM21.48,20.83h7.05c.21-.02.3-.17.27-.34-.25-1.21-1.09-2.23-2.2-2.73-.96.6-2.22.6-3.18,0-1.12.5-1.95,1.53-2.2,2.73-.03.18.06.33.27.34h0ZM31.99,24.41h-13.98v1.43h13.98v-1.43Z"/>
    </g>
  </g>
</svg>