<?xml version="1.0" encoding="UTF-8"?>
<svg id="Layer_2" xmlns="http://www.w3.org/2000/svg" xmlns:xlink="http://www.w3.org/1999/xlink" viewBox="0 0 50 40">
  <defs>
    <style>
      .cls-1 {
        fill: #112e57;
      }

      .cls-2 {
        fill: none;
      }

      .cls-3 {
        clip-path: url(#clippath);
      }
    </style>
    <clipPath id="clippath">
      <rect class="cls-2" width="50" height="40"/>
    </clipPath>
  </defs>
  <g id="Layer_1-2" data-name="Layer_1">
    <g class="cls-3">
      <path class="cls-1" d="M20.84,9.53l1.7.25-1.23,1.2c-.11.11-.17.27-.14.43l.29,1.7-1.52-.8c-.14-.08-.31-.08-.45,0l-1.52.8.29-1.7c.03-.16-.03-.32-.14-.43l-1.23-1.2,1.7-.25h0c.16-.02.29-.12.36-.26l.76-1.54.76,1.54c.07.14.21.24.36.26h0ZM31.85,11.4l.29,1.7-1.52-.8h0c-.14-.08-.31-.08-.45,0l-1.52.8.29-1.7c.03-.16-.03-.32-.14-.43l-1.23-1.2,1.7-.25c.16-.02.29-.12.36-.26l.76-1.54.76,1.54h0c.07.14.21.24.36.26l1.7.25-1.23,1.2c-.11.11-.17.27-.14.43l.29,1.7-1.52-.8h0c-.14-.08-.31-.08-.45,0l-1.52.8.29-1.7c.03-.16-.03-.32-.14-.43l-1.23-1.2,1.7-.25c.16-.02.29-.12.36-.26l.76-1.54.76,1.54h0c.07.14.21.24.36.26l1.7.25-1.23,1.2c-.11.11-.17.27-.14.43h0ZM20.43,29.71v3.07h-2.52v-3.07h2.52ZM31.31,31.78v.97h-9.91v-2.21h8.68c.68,0,1.23.56,1.23,1.24v.97s-9.91,0-9.91,0v-2.21h8.68c.68,0,1.23.56,1.23,1.24h0ZM20.43,29.71v3.07h-2.52v-3.07h2.52ZM34.51,27.07v5.69h-2.23v-.97c0-1.22-.99-2.21-2.21-2.21h-8.66v-.35c0-.13-.05-.25-.14-.34-.09-.09-.21-.14-.34-.14h-3.48c-.27,0-.49.22-.49.49v3.56h-1.46v-5.73l19.02.02ZM34.51,33.75v1.78H15.51v-1.8l19,.02ZM31.32,31.81v.97h-9.92s0-2.24,0-2.24h8.68c.68,0,1.23.56,1.23,1.24v.03ZM20.43,29.71v3.07h-2.52v-3.07l2.52,3.07h-2.52v-3.07h2.52ZM31.31,31.78v.97h-9.91v-2.21h8.68c.68,0,1.23.56,1.23,1.24v.97s-9.91,0-9.91,0v-2.21h8.68c.68,0,1.23.56,1.23,1.24h0ZM20.43,29.71v3.07h-2.52v-3.07h2.52ZM34.51,24.29v1.81H15.51v-1.83l19,.02ZM31.32,22.35v.97h-9.92s0-2.24,0-2.24h8.68c.68,0,1.23.56,1.23,1.24v.03ZM20.43,20.23v3.07h-2.52v-3.07h2.52ZM31.85,11.4l.29,1.7-1.52-.8h0c-.14-.08-.31-.08-.45,0l-1.52.8.29-1.7c.03-.16-.03-.32-.14-.43l-1.23-1.2,1.7-.25c.16-.02.29-.12.36-.26l.76-1.54.76,1.54h0c.07.14.21.24.36.26l1.7.25-1.23,1.2c-.11.11-.17.27-.14.43h0ZM15.51,36.51v3.49h19v-3.49H15.51ZM36.65,18.06h-.2c-.54,0-.97.43-.97.97v20.97h2.14v-20.97c0-.26-.1-.5-.28-.69-.18-.18-.43-.29-.69-.29h0ZM13.56,18.06h-.21c-.54,0-.97.43-.97.97v20.97h2.15v-20.97c0-.53-.43-.97-.96-.97h0ZM43.27,13.49v23.59c0,1.61-1.3,2.91-2.91,2.91h-1.77v-20.97c0-.52-.21-1.01-.57-1.37s-.86-.57-1.37-.57h-.2c-1.07,0-1.94.87-1.94,1.94v4.28h-2.22v-.97c0-1.22-.99-2.21-2.21-2.21h-8.66v-.36c0-.13-.05-.25-.14-.34s-.21-.14-.34-.14h-3.48c-.27,0-.49.22-.49.49v3.56h-1.46v-4.29c0-.52-.2-1.01-.57-1.37s-.86-.57-1.37-.57h-.2c-1.07,0-1.94.87-1.94,1.94v20.97h-1.77c-1.61,0-2.91-1.3-2.91-2.91V13.49c0-.96.49-1.86,1.29-2.4L23.39.51c.99-.68,2.31-.68,3.3,0l15.33,10.57c.79.54,1.26,1.44,1.26,2.4h0ZM24.03,9.29c-.06-.18-.21-.31-.39-.33l-2.43-.35-1.06-2.19c-.08-.17-.25-.27-.44-.27s-.35.11-.44.27l-1.07,2.19-2.43.35h0c-.18.03-.34.16-.39.33-.05.17,0,.36.12.49l1.76,1.71-.42,2.43c-.03.19.04.37.19.48.15.11.35.12.51.04l2.17-1.14,2.17,1.14c.07.04.15.05.22.05.1,0,.2-.03.29-.09.15-.11.23-.3.19-.48l-.42-2.43,1.76-1.71c.12-.13.16-.32.1-.49h0ZM34.71,9.29h0c-.05-.18-.21-.31-.39-.33l-2.43-.35-1.06-2.19c-.08-.17-.25-.27-.44-.27s-.35.11-.44.27l-1.07,2.19-2.43.35c-.18.03-.34.16-.39.33-.05.17,0,.36.12.49l1.76,1.71-.42,2.43c-.04.19.04.37.19.48.14.1.33.11.49.04l2.17-1.14,2.17,1.14c.07.04.15.05.22.05.1,0,.2-.03.29-.09.15-.11.23-.3.19-.48l-.42-2.43,1.76-1.71c.13-.13.17-.31.12-.49h0Z"/>
    </g>
  </g>
</svg>