<?xml version="1.0" encoding="UTF-8"?>
<svg id="Layer_2" xmlns="http://www.w3.org/2000/svg" xmlns:xlink="http://www.w3.org/1999/xlink" viewBox="0 0 50 40">
  <defs>
    <style>
      .cls-1 {
        fill: #112e57;
      }

      .cls-2 {
        fill: none;
      }

      .cls-3 {
        clip-path: url(#clippath);
      }
    </style>
    <clipPath id="clippath">
      <rect class="cls-2" width="50" height="40"/>
    </clipPath>
  </defs>
  <g id="Layer_1-2" data-name="Layer_1">
    <g class="cls-3">
      <g>
        <path class="cls-1" d="M6.24,0C3.51,0,1.3,3.45,1.3,7.69c0,3.07,1.16,5.7,2.82,6.93h0c.49.36.76.94.74,1.54l-.52,21.89c-.02,1.06.83,1.94,1.89,1.94s1.92-.88,1.89-1.94l-.52-21.89c-.01-.6.25-1.19.74-1.54,1.66-1.23,2.82-3.87,2.82-6.93C11.18,3.45,8.97,0,6.24,0Z"/>
        <path class="cls-1" d="M47.69.38h.02c-.05-.22-.28-.37-.55-.37-.3,0-.56.2-.57.46l-.32,7.25c-.01.3-.3.54-.66.54s-.63-.24-.65-.53l-.45-7.27c-.02-.25-.27-.46-.57-.46h-.13c-.3,0-.55.2-.56.46l-.45,7.27c-.02.29-.31.53-.66.53s-.63-.24-.66-.54l-.32-7.25c-.01-.26-.26-.46-.56-.46-.27,0-.5.16-.56.38-.24.98-.86,3.97-1.01,10.01-.01.39.1.78.32,1.1.41.6,1.23,1.68,2.57,2.95.38.37.6.88.59,1.41l-.52,22.2c-.02,1.06.83,1.94,1.89,1.94s1.92-.88,1.89-1.94l-.52-22.21c-.01-.53.2-1.05.59-1.42,1.33-1.27,2.15-2.34,2.56-2.94.22-.32.33-.71.32-1.1-.15-6.05-.77-9.04-1.01-10.01Z"/>
        <path class="cls-1" d="M25.01,5.08c-8.23,0-14.92,6.69-14.92,14.92s6.69,14.92,14.92,14.92,14.92-6.69,14.92-14.92-6.69-14.92-14.92-14.92ZM25.01,28.55c-4.72,0-8.55-3.83-8.55-8.55s3.83-8.55,8.55-8.55,8.55,3.83,8.55,8.55-3.83,8.55-8.55,8.55Z"/>
        <path class="cls-1" d="M25.01,12.67c-4.04,0-7.34,3.29-7.34,7.34s3.29,7.34,7.34,7.34c4.04,0,7.34-3.29,7.34-7.34s-3.29-7.34-7.34-7.34Z"/>
      </g>
    </g>
  </g>
</svg>