<?xml version="1.0" encoding="UTF-8"?>
<svg id="Layer_2" xmlns="http://www.w3.org/2000/svg" xmlns:xlink="http://www.w3.org/1999/xlink" viewBox="0 0 50 40">
  <defs>
    <style>
      .cls-1 {
        fill: #112e57;
      }

      .cls-2 {
        fill: none;
      }

      .cls-3 {
        clip-path: url(#clippath);
      }
    </style>
    <clipPath id="clippath">
      <rect class="cls-2" width="50" height="40"/>
    </clipPath>
  </defs>
  <g id="Layer_1-2" data-name="Layer_1">
    <g class="cls-3">
      <g>
        <path class="cls-1" d="M7.15,15.84h-.62c-.58,0-1.03.45-1.03,1.03v4.33c0,.58.45,1.03,1.03,1.03h.62c.58,0,1.03-.45,1.03-1.03v-4.33c0-.54-.45-1.03-1.03-1.03Z"/>
        <path class="cls-1" d="M43.47,16.54h-.62c-.58,0-1.03.45-1.03,1.03v4.33c0,.58.45,1.03,1.03,1.03h.62c.58,0,1.03-.45,1.03-1.03v-4.33c0-.58-.45-1.03-1.03-1.03Z"/>
        <path class="cls-1" d="M37.82,8.38c-3.63-1.36-12.82-1.44-12.82-1.44,0,0-9.23.08-12.86,1.44-3.63,1.36-3.09,4-3.09,4v22.1c0,1.69,1.4,3.09,3.09,3.09h.33v1.4c0,.58.45,1.03,1.03,1.03h4.04c.58,0,1.03-.45,1.03-1.03v-1.4h12.82v1.4c0,.58.45,1.03,1.03,1.03h4.04c.58,0,1.03-.45,1.03-1.03v-1.4h.33c1.69,0,3.09-1.4,3.09-3.09V12.38s.58-2.64-3.09-4ZM21.78,9.62c0-.25.21-.41.41-.41h5.52c.25,0,.41.21.41.41v1.2c0,.25-.21.41-.41.41h-5.48c-.25,0-.41-.21-.41-.41v-1.2h-.04ZM17.58,31.26c0,.49-.41.91-.91.91h-3.55c-.49,0-.91-.41-.91-.91v-1.94c0-.29.12-.54.37-.74.21-.16.54-.25.78-.16l3.55.95c.41.12.66.45.66.87,0,0,0,1.03,0,1.03ZM12.76,25.9c-.33,0-.58-.25-.58-.58v-11.21c0-.33.25-.58.58-.58h24.32c.33,0,.58.25.58.58v11.21c0,.33-.25.58-.58.58H12.76ZM37.78,31.26c0,.49-.41.91-.91.91h-3.55c-.49,0-.91-.41-.91-.91v-.95c0-.41.29-.78.66-.87l3.55-.95c.29-.08.58,0,.78.16s.37.45.37.74c0,0,0,1.86,0,1.86Z"/>
        <path class="cls-1" d="M27.72,5.41c-.74-.74-1.73-1.15-2.76-1.15s-2.02.41-2.76,1.15l-.95-.95c.99-.99,2.31-1.53,3.71-1.53s2.72.54,3.71,1.53l-.95.95Z"/>
        <path class="cls-1" d="M19.97,3.39l-.95-.95c3.26-3.26,8.53-3.26,11.79,0l-.95.95c-2.68-2.72-7.13-2.72-9.89,0Z"/>
      </g>
    </g>
  </g>
</svg>