<?xml version="1.0" encoding="UTF-8"?>
<svg id="Layer_2" xmlns="http://www.w3.org/2000/svg" xmlns:xlink="http://www.w3.org/1999/xlink" viewBox="0 0 50 40">
  <defs>
    <style>
      .cls-1 {
        fill: #112e57;
      }

      .cls-2 {
        fill: none;
      }

      .cls-3 {
        clip-path: url(#clippath);
      }
    </style>
    <clipPath id="clippath">
      <rect class="cls-2" width="50" height="40"/>
    </clipPath>
  </defs>
  <g id="Layer_1-2" data-name="Layer_1">
    <g class="cls-3">
      <g>
        <path class="cls-1" d="M13.33,33.65l-5.45-.91c-.26-.04-.53.03-.74.2-.21.17-.32.43-.32.69v3.64c0,1.5,1.22,2.73,2.73,2.73h1.82c1.5,0,2.73-1.22,2.73-2.73v-2.73c0-.45-.32-.82-.76-.9Z"/>
        <path class="cls-1" d="M42.12,32.74l-5.45.91c-.44.07-.76.45-.76.9v2.73c0,1.5,1.22,2.73,2.73,2.73h1.82c1.5,0,2.73-1.22,2.73-2.73v-3.64c0-.27-.12-.52-.32-.69-.2-.17-.47-.24-.74-.2Z"/>
        <path class="cls-1" d="M43.37,10.76c-.73,0-1.3.17-1.36.19-.24.07-.44.24-.55.46l-.87,1.75c-1.55-3.76-4.21-7.57-6.09-8.51-.38-.19-1.21-.34-2.31-.46,0-.01,0-.03-.01-.04l-1.82-3.64c-.15-.31-.47-.5-.81-.5h-9.09c-.34,0-.66.19-.81.5l-1.82,3.64s0,.03-.01.04c-1.1.12-1.93.27-2.31.46-1.88.94-4.53,4.76-6.09,8.52l-.87-1.75c-.11-.22-.31-.39-.55-.46-.06-.02-.63-.19-1.36-.19-2.16,0-3.45,1.41-3.45,3.78,0,1.57,2.33,2.31,3.98,2.63-.81,1.43-1.4,3.03-1.74,4.64h5.95c2.51,0,4.55,2.04,4.55,4.55,0,.5-.41.91-.91.91H5.06c.07,1.15.19,2.24.38,3.19.05.27.22.5.46.63.24.13.53.14.78.04.5-.21,1-.27,1.49-.18l5.45.91c1.32.22,2.28,1.35,2.28,2.69v.42c0,.47.35.86.82.91,2.21.22,5.43.49,8.27.49s6.07-.27,8.27-.49c.46-.05.82-.44.82-.91v-.42c0-1.34.96-2.47,2.28-2.69l5.46-.91c.49-.08.99-.03,1.49.18.25.1.54.09.78-.04.24-.13.41-.36.46-.63.19-.95.31-2.04.38-3.19h-9.94c-.5,0-.91-.41-.91-.91,0-2.51,2.04-4.55,4.55-4.55h5.95c-.34-1.61-.93-3.21-1.74-4.64,1.65-.33,3.98-1.06,3.98-2.63,0-2.37-1.29-3.78-3.45-3.78ZM16.32,6.27c1.54-.77,15.83-.77,17.37,0,1.31.65,4.07,4.39,5.52,8.37-3.04.23-11.14.82-14.21.82s-11.17-.59-14.21-.82c1.45-3.98,4.22-7.72,5.52-8.37ZM31.35,28.33c-.07.44-.45.76-.9.76h-10.91c-.44,0-.82-.32-.9-.76l-.91-5.45c-.04-.26.03-.53.2-.74.17-.21.43-.32.69-.32h12.73c.27,0,.52.12.69.32.17.2.25.47.2.74l-.91,5.45Z"/>
        <polygon class="cls-1" points="20.32 27.27 29.68 27.27 30.29 23.64 19.71 23.64 20.32 27.27"/>
        <path class="cls-1" d="M36.07,25.45h8.93c0-.57-.05-1.19-.12-1.82h-6.25c-1.19,0-2.2.76-2.57,1.82Z"/>
        <path class="cls-1" d="M11.36,23.64h-6.25c-.07.63-.12,1.24-.12,1.82h8.93c-.37-1.06-1.39-1.82-2.57-1.82Z"/>
      </g>
    </g>
  </g>
</svg>