<?xml version="1.0" encoding="UTF-8"?>
<svg id="Layer_2" xmlns="http://www.w3.org/2000/svg" xmlns:xlink="http://www.w3.org/1999/xlink" viewBox="0 0 50 40">
  <defs>
    <style>
      .cls-1 {
        fill: #112e57;
      }

      .cls-2 {
        fill: none;
      }

      .cls-3 {
        clip-path: url(#clippath);
      }
    </style>
    <clipPath id="clippath">
      <rect class="cls-2" width="50" height="40"/>
    </clipPath>
  </defs>
  <g id="Layer_1-2" data-name="Layer_1">
    <g class="cls-3">
      <g>
        <path class="cls-1" d="M35.03,30.47v-6.69c-.55-13.31-19.52-13.31-20.07,0v6.69l-2.2,4.41c-.13.26-.12.57.04.82.15.25.42.4.72.4h22.97c.29,0,.56-.16.71-.41.15-.25.17-.56.04-.82l-2.2-4.41Z"/>
        <path class="cls-1" d="M19.14,36.95c1.91,4.07,9.81,4.07,11.71,0h-11.71Z"/>
        <path class="cls-1" d="M24.29,12.92c1.51-.1,3.02.12,4.44.63-.2-.46-.49-.88-.84-1.22-.95-.95-2.31-1.38-3.63-1.13-1.32.24-2.44,1.13-2.99,2.35.97-.36,1.99-.57,3.02-.63h0Z"/>
        <polygon class="cls-1" points="25.84 0 24.16 0 25 7.16 25.84 0"/>
        <polygon class="cls-1" points="40.52 6.08 36.04 11.74 41.71 7.27 40.52 6.08"/>
        <polygon class="cls-1" points="40.62 22.79 47.79 23.63 47.79 21.94 40.62 22.79"/>
        <polygon class="cls-1" points="2.21 23.63 9.38 22.79 2.21 21.94 2.21 23.63"/>
        <polygon class="cls-1" points="9.48 6.08 8.29 7.27 13.95 11.74 9.48 6.08"/>
      </g>
    </g>
  </g>
</svg>