<?xml version="1.0" encoding="UTF-8"?>
<svg id="Layer_2" xmlns="http://www.w3.org/2000/svg" xmlns:xlink="http://www.w3.org/1999/xlink" viewBox="0 0 50 40">
  <defs>
    <style>
      .cls-1 {
        fill: #112e57;
      }

      .cls-2 {
        fill: none;
      }

      .cls-3 {
        clip-path: url(#clippath);
      }
    </style>
    <clipPath id="clippath">
      <rect class="cls-2" width="50" height="40"/>
    </clipPath>
  </defs>
  <g id="Layer_1-2" data-name="Layer_1">
    <g class="cls-3">
      <path class="cls-1" d="M45.79,4.39H4.21C1.86,4.39,0,6.46,0,9.04v21.93c0,2.57,1.93,4.64,4.21,4.64h41.57c2.36,0,4.21-2.07,4.21-4.64V9.04c0-2.57-1.93-4.64-4.21-4.64ZM39.79,11.04c2.14,0,3.86,1.93,3.86,4.29s-1.71,4.29-3.86,4.29-3.86-1.93-3.86-4.29,1.71-4.29,3.86-4.29ZM14.14,8.32h21.71c.43,0,.86.43.86.93s-.36.93-.86.93H14.14c-.43,0-.86-.43-.86-.93s.43-.93.86-.93ZM28.36,31.75H4c-.43,0-.86-.43-.86-.93s.36-.93.86-.93h24.36c.43,0,.86.43.86.93s-.36.93-.86.93ZM28.36,25.89H4c-.43,0-.86-.43-.86-.93s.36-.93.86-.93h24.36c.43,0,.86.43.86.93s-.36.93-.86.93ZM28.36,20.11H4c-.43,0-.86-.43-.86-.93s.36-.93.86-.93h24.36c.43,0,.86.43.86.93s-.36.93-.86.93ZM31.36,29.25c0-5.14,3.79-9.29,8.43-9.29s8.43,4.14,8.43,9.29-16.86,5.14-16.86,0Z"/>
    </g>
  </g>
</svg>