<?xml version="1.0" encoding="UTF-8"?>
<svg id="Layer_2" xmlns="http://www.w3.org/2000/svg" xmlns:xlink="http://www.w3.org/1999/xlink" viewBox="0 0 50 40">
  <defs>
    <style>
      .cls-1 {
        fill: #112e57;
      }

      .cls-2 {
        fill: none;
      }

      .cls-3 {
        clip-path: url(#clippath);
      }
    </style>
    <clipPath id="clippath">
      <rect class="cls-2" width="50" height="40"/>
    </clipPath>
  </defs>
  <g id="Layer_1-2" data-name="Layer_1">
    <g class="cls-3">
      <g>
        <rect class="cls-1" x="21.62" y="17.42" width="2.61" height="2.61"/>
        <rect class="cls-1" x="15.21" y="17.42" width="2.61" height="2.61"/>
        <rect class="cls-1" x="21.62" y="23.88" width="2.61" height="2.61"/>
        <rect class="cls-1" x="15.21" y="10.96" width="2.61" height="2.61"/>
        <rect class="cls-1" x="15.21" y="23.88" width="2.61" height="2.61"/>
        <rect class="cls-1" x="8.8" y="23.88" width="2.61" height="2.61"/>
        <rect class="cls-1" x="8.8" y="17.42" width="2.61" height="2.61"/>
        <rect class="cls-1" x="8.8" y="10.96" width="2.61" height="2.61"/>
        <path class="cls-1" d="M35.72,18.69c.41.43.64.97.64,1.53v2.26h1.1c.38,0,.68-.31.68-.68v-6.52c0-.38-.31-.68-.68-.68h-6.52c-.38,0-.68.31-.68.68v6.52c0,.38.31.68.68.68h1.11v-2.18c0-.63.26-1.23.73-1.67.43-.41.99-.61,1.57-.57.51.03,1.01.25,1.38.62Z"/>
        <path class="cls-1" d="M23.62,3.38h-14.21c-.34,0-.61.27-.61.61v1.91c0,.34.27.6.6.6h14.21c.34,0,.6-.27.6-.6v-1.91c.01-.34-.26-.61-.6-.61Z"/>
        <path class="cls-1" d="M32.05,25.39v-1.69h-1.11c-1.04,0-1.9-.85-1.9-1.9v-6.52c0-1.04.85-1.9,1.9-1.9h6.52c1.04,0,1.9.85,1.9,1.9v6.52c0,1.04-.85,1.9-1.9,1.9h-1.1v2.87c.29-.14.6-.22.94-.22.58,0,1.12.23,1.52.64l.02.02c.39-.41.94-.66,1.55-.66.55,0,1.06.21,1.46.58V1.97c0-1.09-.88-1.97-1.97-1.97H7.52c-1.09,0-1.97.88-1.97,1.97v25.33c0,1.09.88,1.97,1.97,1.97h21.45v-.62c0-1.74,1.37-3.16,3.09-3.25ZM29.66,2.79h9.09c.34,0,.6.27.6.6s-.27.6-.6.6h-9.09c-.34,0-.6-.27-.6-.6s.27-.6.6-.6ZM29.66,5.66h9.09c.34,0,.6.27.6.6s-.27.6-.6.6h-9.09c-.34,0-.6-.27-.6-.6,0-.33.27-.6.6-.6ZM29.66,8.53h6.09c.34,0,.6.27.6.6s-.27.6-.6.6h-6.09c-.34,0-.6-.27-.6-.6,0-.33.27-.6.6-.6ZM12.63,26.49c0,.67-.55,1.22-1.22,1.22h-2.61c-.67,0-1.22-.55-1.22-1.22v-2.61c0-.67.55-1.22,1.22-1.22h2.61c.67,0,1.22.55,1.22,1.22v2.61ZM12.63,20.03c0,.67-.55,1.22-1.22,1.22h-2.61c-.67,0-1.22-.55-1.22-1.22v-2.61c0-.67.55-1.22,1.22-1.22h2.61c.67,0,1.22.55,1.22,1.22v2.61ZM12.63,13.57c0,.67-.55,1.22-1.22,1.22h-2.61c-.67,0-1.22-.55-1.22-1.22v-2.61c0-.67.55-1.22,1.22-1.22h2.61c.67,0,1.22.55,1.22,1.22v2.61ZM19.04,26.49c0,.67-.55,1.22-1.22,1.22h-2.61c-.67,0-1.22-.55-1.22-1.22v-2.61c0-.67.55-1.22,1.22-1.22h2.61c.67,0,1.22.55,1.22,1.22v2.61ZM19.04,20.03c0,.67-.55,1.22-1.22,1.22h-2.61c-.67,0-1.22-.55-1.22-1.22v-2.61c0-.67.55-1.22,1.22-1.22h2.61c.67,0,1.22.55,1.22,1.22v2.61ZM19.04,13.57c0,.67-.55,1.22-1.22,1.22h-2.61c-.67,0-1.22-.55-1.22-1.22v-2.61c0-.67.55-1.22,1.22-1.22h2.61c.67,0,1.22.55,1.22,1.22v2.61ZM25.44,26.49c0,.67-.55,1.22-1.22,1.22h-2.61c-.67,0-1.22-.55-1.22-1.22v-2.61c0-.67.55-1.22,1.22-1.22h2.61c.67,0,1.22.55,1.22,1.22v2.61ZM25.44,20.03c0,.67-.55,1.22-1.22,1.22h-2.61c-.67,0-1.22-.55-1.22-1.22v-2.61c0-.67.55-1.22,1.22-1.22h2.61c.67,0,1.22.55,1.22,1.22v2.61ZM25.44,13.57c0,.67-.55,1.22-1.22,1.22h-2.61c-.67,0-1.22-.55-1.22-1.22v-2.61c0-.67.55-1.22,1.22-1.22h2.61c.67,0,1.22.55,1.22,1.22v2.61ZM25.44,5.9c0,1.01-.81,1.82-1.82,1.82h-14.21c-1.01,0-1.82-.81-1.82-1.82v-1.91c0-1.01.81-1.82,1.82-1.82h14.21c1.01,0,1.82.81,1.82,1.82v1.91Z"/>
        <path class="cls-1" d="M42.86,27.82c-.21.18-.32.44-.32.71v2.02c0,.34-.27.6-.6.6s-.6-.27-.6-.6v-2.02c0-.25-.1-.49-.27-.67-.18-.18-.41-.28-.67-.28-.52,0-.94.43-.94.94h0v2.01c0,.34-.27.6-.6.6s-.6-.27-.6-.6v-2h0c0-.25-.1-.48-.28-.66-.18-.18-.41-.28-.66-.28-.52,0-.94.43-.94.94h0v2.01c0,.34-.27.6-.6.6s-.6-.27-.6-.6v-2.01h0v-8.3c0-.25-.1-.49-.28-.68-.1-.1-.31-.24-.59-.25-.25-.02-.48.07-.66.25-.22.2-.34.49-.34.78v2.77h0v9.07c0,.34-.27.6-.6.6s-.6-.27-.6-.6v-5.55c-1.05.08-1.88.96-1.88,2.03v1.22h0v3.02c0,1.9.74,3.69,2.08,5.04,1.35,1.34,3.14,2.08,5.04,2.08,3.93,0,7.12-3.19,7.12-7.12v-4.36c0-.25-.1-.49-.28-.67-.37-.34-.96-.36-1.3-.04Z"/>
        <rect class="cls-1" x="21.62" y="10.96" width="2.61" height="2.61"/>
      </g>
    </g>
  </g>
</svg>