<?xml version="1.0" encoding="UTF-8"?>
<svg id="Layer_2" xmlns="http://www.w3.org/2000/svg" xmlns:xlink="http://www.w3.org/1999/xlink" viewBox="0 0 50 40">
  <defs>
    <style>
      .cls-1 {
        fill: #112e57;
        fill-rule: evenodd;
      }

      .cls-2 {
        fill: none;
      }

      .cls-3 {
        clip-path: url(#clippath);
      }
    </style>
    <clipPath id="clippath">
      <rect class="cls-2" width="50" height="40"/>
    </clipPath>
  </defs>
  <g id="Layer_1-2" data-name="Layer_1">
    <g class="cls-3">
      <path class="cls-1" d="M22.19,2.51c-.3,0-.54-.23-.56-.53-.08-.54-.34-1.05-.73-1.42-.77-.75-2-.75-2.77,0-.4.38-.66.88-.73,1.42-.02.3-.26.53-.56.53h-2.83c-.06,0-.11.09-.11.17v3.76c0,.08.04.17.11.17h11.01c.06,0,.11-.09.11-.17v-3.76c0-.08-.04-.17-.11-.17h-2.83ZM18.84,34.37c-.31,0-.56-.25-.56-.56,0-.31.25-.56.56-.56h9.61c.31,0,.56.25.56.56,0,.31-.25.56-.56.56h-9.61ZM18.84,32.08c-.31,0-.56-.25-.56-.56,0-.31.25-.56.56-.56h9.61c.31,0,.56.25.56.56,0,.31-.25.56-.56.56h-9.61ZM18.84,29.79c-.31,0-.56-.25-.56-.56,0-.31.25-.56.56-.56h9.61c.31,0,.56.25.56.56,0,.31-.25.56-.56.56h-9.61ZM18.84,25.21c-.31,0-.56-.25-.56-.56,0-.31.25-.56.56-.56h9.61c.31,0,.56.25.56.56,0,.31-.25.56-.56.56h-9.61ZM18.84,22.92c-.31,0-.56-.25-.56-.56,0-.31.25-.56.56-.56h9.61c.31,0,.56.25.56.56,0,.31-.25.56-.56.56h-9.61ZM18.84,20.63c-.31,0-.56-.25-.56-.56,0-.31.25-.56.56-.56h9.61c.31,0,.56.25.56.56s-.25.56-.56.56h-9.61ZM18.84,16.05c-.31,0-.56-.25-.56-.56,0-.31.25-.56.56-.56h9.61c.31,0,.56.25.56.56s-.25.56-.56.56h-9.61ZM18.84,13.76c-.31,0-.56-.25-.56-.56,0-.31.25-.56.56-.56h9.61c.31,0,.56.25.56.56,0,.31-.25.56-.56.56h-9.61ZM18.84,11.47c-.31,0-.56-.27-.55-.58,0-.3.25-.54.55-.55h9.61c.31,0,.56.27.55.58,0,.3-.25.54-.55.55h-9.61ZM14.25,20.69c.21-.23.57-.24.79-.02.23.21.24.57.02.79l-2.42,2.57c-.21.23-.57.24-.79.02-.01-.01-.02-.02-.03-.03h0l-1.18-1.29c-.21-.23-.2-.58.03-.79s.58-.2.79.03c0,0,0,0,.01.01l.77.85,2.01-2.13h0ZM14.25,11.52c.21-.23.57-.24.79-.02s.24.57.02.79h0l-2.42,2.57c-.21.23-.57.24-.79.02-.01-.01-.02-.02-.03-.03h0l-1.18-1.29c-.21-.23-.2-.58.03-.79s.58-.2.79.03c0,0,0,0,.01.01l.77.85,2.01-2.13h0ZM31.59,20.99c.33-.35.68-.66,1.07-.94V4.79c.03-.46-.32-.86-.78-.89h-5.63v1.31h4.78c.31,0,.56.25.56.56v15.21ZM30.2,36.74H8.55V6.34h4.22v.11c-.01.7.54,1.27,1.23,1.29h11.01c.34,0,.66-.14.89-.4.25-.27.37-.63.35-1h4.22v16.19c-.61,1.1-.93,2.34-.93,3.6v7.55c0,1.06.22,2.1.66,3.06h0ZM31.95,39.18s-.05,0-.08,0H7.14c-.46-.03-.81-.43-.78-.89V4.79c-.03-.46.32-.86.78-.89h5.63v1.31h-4.78c-.31,0-.56.25-.56.56,0,0,0,0,0,0v31.53c0,.31.25.56.56.56h22.84c.32.48.7.92,1.13,1.31h0ZM37.24,23.84c-.14-.14-.38-.14-.52,0-.07.07-.11.16-.11.26v1.19c0,.2.18.36.38.36.19,0,.35-.16.36-.36v-1.19c0-.1-.04-.19-.11-.26ZM43.42,29.35c-4.03,1.93-8.72,1.93-12.75,0v4.33c.03,3.52,2.91,6.35,6.43,6.32,3.48-.03,6.29-2.84,6.32-6.32v-4.32ZM37.6,29.67l-.04-2.99c.56-.23.93-.78.93-1.38v-1.19c0-.6-.37-1.15-.93-1.38l.04-2.94c3.29.3,5.81,3.05,5.82,6.35v1.98c-1.81.92-3.79,1.46-5.82,1.56ZM30.67,28.11v-1.98c.01-3.3,2.52-6.04,5.81-6.35l-.04,2.94c-.57.23-.94.78-.94,1.39v1.19c0,.61.37,1.16.94,1.39l.04,2.98c-2.02-.11-4-.64-5.81-1.56h0ZM36.48,18.65v-1.89c0-.98.79-1.77,1.77-1.77h4.75c.35,0,.64-.29.64-.64v-2.33c-.02-.34-.3-.61-.64-.61h-.04c-2.1.02-4.19.03-6.29.05h0c-.75,0-1.36-.61-1.36-1.36,0,0,0,0,0,0h0v-.78c0-.75.61-1.37,1.37-1.37h2.07c.35,0,.64-.29.64-.64v-1.32c0-.35-.29-.64-.64-.64h-4.95v14.03c.84-.41,1.76-.66,2.7-.73ZM14.25,29.86l-2.01,2.13-.77-.85c-.21-.23-.56-.25-.79-.05-.23.21-.25.56-.05.79,0,0,0,0,.01.01l1.18,1.29h0c.21.23.56.25.79.04.01,0,.02-.02.03-.03l2.42-2.57c.21-.23.2-.58-.02-.79-.23-.21-.58-.2-.79.02h0Z"/>
    </g>
  </g>
</svg>