<?xml version="1.0" encoding="UTF-8"?>
<svg id="Layer_2" xmlns="http://www.w3.org/2000/svg" xmlns:xlink="http://www.w3.org/1999/xlink" viewBox="0 0 50 40">
  <defs>
    <style>
      .cls-1 {
        fill: #112e57;
      }

      .cls-2 {
        fill: none;
      }

      .cls-3 {
        clip-path: url(#clippath);
      }
    </style>
    <clipPath id="clippath">
      <rect class="cls-2" width="50" height="40"/>
    </clipPath>
  </defs>
  <g id="Layer_1-2" data-name="Layer_1">
    <g class="cls-3">
      <g>
        <path class="cls-1" d="M23.47,17.78h1.8c.35,0,.65.29.65.65v9.21h2.01v-9.21c0-.35.29-.65.65-.65h1.8l-3.45-4.2-3.45,4.2Z"/>
        <path class="cls-1" d="M11.66,33.99V4.35h-1.39c-.92,0-1.66.75-1.66,1.66v32.32c0,.92.75,1.66,1.66,1.66h25.12c.92,0,1.66-.75,1.66-1.66v-1.39H14.61c-1.63,0-2.95-1.32-2.95-2.95Z"/>
        <path class="cls-1" d="M36.87,6.19h3.61l-5.28-5.28v3.61c0,.92.75,1.66,1.66,1.66Z"/>
        <path class="cls-1" d="M36.87,7.48c-1.63,0-2.95-1.32-2.95-2.95V0H14.61c-.92,0-1.66.75-1.66,1.66v32.32c0,.92.74,1.66,1.66,1.66h25.12c.92,0,1.66-.75,1.66-1.66V7.48h-4.53ZM32.33,18.7c-.11.23-.34.37-.58.37h-2.52v8.57c0,.71-.58,1.29-1.29,1.29h-2.01c-.71,0-1.29-.58-1.29-1.29v-8.57h-2.52c-.25,0-.48-.14-.58-.37s-.07-.49.08-.68l4.82-5.86c.25-.3.75-.3.99,0l4.82,5.86c.16.19.19.46.08.68ZM16.48,3.06h13.74c.35,0,.65.29.65.65s-.29.65-.65.65h-13.74c-.35,0-.65-.29-.65-.65s.28-.65.65-.65ZM16.48,6.84h13.74c.35,0,.65.29.65.65s-.29.65-.65.65h-13.74c-.35,0-.65-.29-.65-.65s.28-.65.65-.65ZM38.03,28.64c0,1.78-1.45,3.23-3.23,3.23h-15.74c-1.78,0-3.23-1.45-3.23-3.23v-2.84c0-.35.29-.65.65-.65s.65.29.65.65v2.84c0,1.06.87,1.94,1.94,1.94h15.74c1.06,0,1.94-.87,1.94-1.94v-2.84c0-.35.29-.65.65-.65s.65.29.65.65v2.84Z"/>
      </g>
    </g>
  </g>
</svg>