<?xml version="1.0" encoding="UTF-8"?>
<svg id="Layer_2" xmlns="http://www.w3.org/2000/svg" xmlns:xlink="http://www.w3.org/1999/xlink" viewBox="0 0 50 40">
  <defs>
    <style>
      .cls-1 {
        fill: #112e57;
      }

      .cls-2 {
        fill: none;
      }

      .cls-3 {
        clip-path: url(#clippath);
      }
    </style>
    <clipPath id="clippath">
      <rect class="cls-2" width="50" height="40"/>
    </clipPath>
  </defs>
  <g id="Layer_1-2" data-name="Layer_1">
    <g class="cls-3">
      <path class="cls-1" d="M6.05,36.06v-11.31c0-.33.26-.6.6-.6h6.68c.33,0,.6.26.6.6v11.31c0,.33-.26.6-.6.6h-6.68c-.33,0-.6-.26-.6-.6ZM16.67,20.37c-.33,0-.6.26-.6.6v15.08c0,.33.26.6.6.6h6.66c.33,0,.6-.26.6-.6v-15.09c0-.33-.26-.6-.6-.6h-6.66ZM26.67,16.58c-.33,0-.6.29-.6.6v18.88c0,.33.26.6.6.6h6.68c.33,0,.6-.26.6-.6v-18.88c0-.31-.27-.6-.6-.6h-6.68ZM36.1,13.4v22.65c0,.33.26.6.6.6h6.66c.33,0,.6-.26.6-.6V13.4c0-.33-.26-.6-.6-.6h-6.66c-.33,0-.6.26-.6.6ZM47.46,38.25H2.56c-.55,0-1,.45-1,.98s.45,1,1,1h44.9c.55,0,.98-.45.98-1s-.43-.98-.98-.98ZM8.55,17.14c.02.07.07.1.12.17.02.02.05.07.07.1.12.1.24.14.38.17h.36c10.69,0,20.05-3.29,27.85-9.74l.67,1.17c.12.17.31.29.52.29h.05c.24-.02.43-.19.52-.41l2.34-6.66c.05-.17.02-.33-.05-.5-.1-.14-.24-.26-.43-.29l-6.94-1.19c-.24-.05-.48.05-.6.24-.14.19-.14.45-.02.65l1.15,1.98c-3.6,5.84-12.46,9.42-25.58,13.29-.05,0-.07.07-.1.1-.07.02-.14.07-.19.14-.05.05-.05.12-.07.19-.02.05-.07.07-.07.14,0,.02.05.05.05.07,0,.02-.03.07-.03.1h0Z"/>
    </g>
  </g>
</svg>