<?xml version="1.0" encoding="UTF-8"?>
<svg id="Layer_2" xmlns="http://www.w3.org/2000/svg" xmlns:xlink="http://www.w3.org/1999/xlink" viewBox="0 0 50 40">
  <defs>
    <style>
      .cls-1 {
        fill: #112e57;
      }

      .cls-2 {
        fill: none;
      }

      .cls-3 {
        clip-path: url(#clippath);
      }
    </style>
    <clipPath id="clippath">
      <rect class="cls-2" width="50" height="40"/>
    </clipPath>
  </defs>
  <g id="Layer_1-2" data-name="Layer_1">
    <g class="cls-3">
      <g>
        <path class="cls-1" d="M12.19,17.72c-2.59,0-4.7,2.11-4.7,4.7s2.11,4.7,4.7,4.7,4.7-2.11,4.7-4.7-2.11-4.7-4.7-4.7Z"/>
        <path class="cls-1" d="M37.82,27.12c2.59,0,4.71-2.11,4.71-4.7s-2.11-4.7-4.71-4.7-4.7,2.11-4.7,4.7,2.11,4.7,4.7,4.7Z"/>
        <path class="cls-1" d="M16,6.78c1.87,0,3.39-1.52,3.39-3.39s-1.52-3.39-3.39-3.39-3.39,1.52-3.39,3.39,1.52,3.39,3.39,3.39Z"/>
        <path class="cls-1" d="M33.92,6.78c1.87,0,3.39-1.52,3.39-3.39s-1.53-3.39-3.39-3.39-3.39,1.52-3.39,3.39,1.52,3.39,3.39,3.39Z"/>
        <path class="cls-1" d="M44.82,31.3l-1.5-16.43c-.12-1.36-1.25-2.39-2.61-2.39h-1.73v-2.32c0-1.56-1.27-2.83-2.83-2.83h-4.46c-1.56,0-2.83,1.27-2.83,2.83v2.32h-7.82v-2.32c0-1.56-1.27-2.83-2.83-2.83h-4.46c-1.56,0-2.83,1.27-2.83,2.83v2.32h-1.66c-1.36,0-2.49,1.03-2.62,2.39l-1.5,16.58h0c-.04.2-.05.4-.06.6v7.6c0,.19.15.34.34.34h13.47c.19,0,.34-.15.34-.34v-7.2h11.48v7.2c0,.19.15.34.34.34h13.47c.19,0,.34-.15.34-.34v-7.55c0-.28-.03-.55-.08-.81h0ZM30.76,31.77h-11.51c-.17-1.99-1.84-3.56-3.88-3.56h-6.38c-1.19,0-2.26.54-2.98,1.4l1.34-14.68c.09-1,.92-1.76,1.93-1.76h31.43c1.01,0,1.84.76,1.93,1.76l1.33,14.66c-.72-.84-1.78-1.38-2.96-1.38h-6.38c-2.03,0-3.7,1.57-3.88,3.56h0Z"/>
      </g>
    </g>
  </g>
</svg>