<?xml version="1.0" encoding="UTF-8"?>
<svg id="Layer_2" xmlns="http://www.w3.org/2000/svg" xmlns:xlink="http://www.w3.org/1999/xlink" viewBox="0 0 50 40">
  <defs>
    <style>
      .cls-1 {
        fill: #112e57;
      }

      .cls-2 {
        fill: none;
      }

      .cls-3 {
        clip-path: url(#clippath);
      }
    </style>
    <clipPath id="clippath">
      <rect class="cls-2" width="50" height="40"/>
    </clipPath>
  </defs>
  <g id="Layer_1-2" data-name="Layer_1">
    <g class="cls-3">
      <g>
        <path class="cls-1" d="M35.59,18.35c.11,0,.21.01.32.02V.83c0-.46-.37-.83-.82-.83H5.83c-.46,0-.83.37-.83.83v38.35c0,.46.37.82.83.82h29.26c.46,0,.82-.37.82-.82v-.51c-.11,0-.21.02-.32.02-5.64,0-10.23-4.56-10.23-10.17s4.59-10.17,10.23-10.17ZM23.63,6.3h6.77c.46,0,.82.37.82.82s-.37.82-.82.82h-6.77c-.45,0-.82-.37-.82-.82s.37-.82.82-.82ZM23.63,11.45h6.77c.46,0,.82.37.82.82s-.37.82-.82.82h-6.77c-.45,0-.82-.37-.82-.82s.37-.82.82-.82ZM9.69,7.13c0-.46.37-.82.82-.82h7.74c.46,0,.83.37.83.82v10.3c0,.46-.37.82-.82.82h-7.74c-.46,0-.83-.37-.83-.82V7.13ZM23.17,33.7h-12.65c-.46,0-.83-.37-.83-.83s.37-.82.82-.82h12.65c.45,0,.82.37.82.82s-.37.83-.82.83ZM23.17,28.55h-12.65c-.46,0-.83-.37-.83-.83s.37-.82.82-.82h12.65c.45,0,.82.37.82.82s-.37.83-.82.83ZM23.17,23.4h-12.65c-.46,0-.83-.37-.83-.82s.37-.82.83-.82h12.65c.45,0,.82.37.82.82s-.37.82-.82.82ZM23.63,18.25c-.45,0-.82-.37-.82-.82s.37-.82.82-.82h6.77c.46,0,.82.37.82.82s-.37.82-.82.82h-6.77Z"/>
        <path class="cls-1" d="M35.59,19.17c-5.19,0-9.41,4.19-9.41,9.34s4.22,9.34,9.41,9.34c5.19,0,9.41-4.19,9.41-9.34s-4.22-9.34-9.41-9.34ZM41.45,25.95l-7.19,6.37c-.15.13-.35.21-.55.21-.02,0-.05,0-.07,0-.23-.02-.43-.13-.57-.31l-3.42-4.29c-.28-.36-.23-.88.13-1.16s.87-.23,1.16.13l2.88,3.61,6.54-5.79c.34-.3.86-.27,1.16.07.3.34.27.86-.07,1.17Z"/>
      </g>
    </g>
  </g>
</svg>