<?xml version="1.0" encoding="UTF-8"?>
<svg id="Layer_2" xmlns="http://www.w3.org/2000/svg" xmlns:xlink="http://www.w3.org/1999/xlink" viewBox="0 0 50 40">
  <defs>
    <style>
      .cls-1 {
        fill: #112e57;
        fill-rule: evenodd;
      }

      .cls-2 {
        fill: none;
      }

      .cls-3 {
        clip-path: url(#clippath);
      }
    </style>
    <clipPath id="clippath">
      <rect class="cls-2" width="50" height="40"/>
    </clipPath>
  </defs>
  <g id="Layer_1-2" data-name="Layer_1">
    <g class="cls-3">
      <path class="cls-1" d="M3.82,0C1.87,0,.29,1.58.29,3.53v7.06h49.41V3.53C49.71,1.58,48.13,0,46.18,0H3.82ZM49.71,36.47V12.94H.29v23.53c0,1.95,1.58,3.53,3.53,3.53h42.35c1.95,0,3.53-1.58,3.53-3.53ZM17.94,26.47c0-1.3,1.05-2.35,2.35-2.35h6.47c1.3,0,2.35,1.05,2.35,2.35v5.88c0,1.3-1.05,2.35-2.35,2.35h-6.47c-1.3,0-2.35-1.05-2.35-2.35v-5.88ZM26.76,26.47h-6.47v5.88h6.47v-5.88ZM35,24.12c-1.3,0-2.35,1.05-2.35,2.35v5.88c0,1.3,1.05,2.35,2.35,2.35h6.47c1.3,0,2.35-1.05,2.35-2.35v-5.88c0-1.3-1.05-2.35-2.35-2.35h-6.47ZM35,26.47h6.47v5.88h-6.47v-5.88ZM18.53,17.65c-.65,0-1.18.53-1.18,1.18s.53,1.18,1.18,1.18h24.12c.65,0,1.18-.53,1.18-1.18s-.53-1.18-1.18-1.18h-24.12ZM6.77,27.06c0-.65.53-1.18,1.18-1.18h5.29c.65,0,1.18.53,1.18,1.18s-.53,1.18-1.18,1.18h-5.29c-.65,0-1.18-.53-1.18-1.18ZM7.94,32.35c-.65,0-1.18.53-1.18,1.18s.53,1.18,1.18,1.18h5.29c.65,0,1.18-.53,1.18-1.18s-.53-1.18-1.18-1.18h-5.29ZM45.59,5.29c0,.97-.79,1.76-1.76,1.76s-1.76-.79-1.76-1.76.79-1.76,1.76-1.76,1.76.79,1.76,1.76ZM9.12,20.59c.97,0,1.76-.79,1.76-1.76s-.79-1.76-1.76-1.76-1.76.79-1.76,1.76.79,1.76,1.76,1.76ZM37.35,5.29c0,.97-.79,1.76-1.76,1.76s-1.76-.79-1.76-1.76.79-1.76,1.76-1.76,1.76.79,1.76,1.76Z"/>
    </g>
  </g>
</svg>