<?xml version="1.0" encoding="UTF-8"?>
<svg id="Layer_2" xmlns="http://www.w3.org/2000/svg" xmlns:xlink="http://www.w3.org/1999/xlink" viewBox="0 0 50 40">
  <defs>
    <style>
      .cls-1 {
        fill: #112e57;
        fill-rule: evenodd;
      }

      .cls-2 {
        fill: none;
      }

      .cls-3 {
        clip-path: url(#clippath);
      }
    </style>
    <clipPath id="clippath">
      <rect class="cls-2" width="50" height="40"/>
    </clipPath>
  </defs>
  <g id="Layer_1-2" data-name="Layer_1">
    <g class="cls-3">
      <path class="cls-1" d="M30.8,40H9.59c-1.44,0-2.61-1.17-2.61-2.61V6.78c0-1.44,1.17-2.61,2.61-2.61h2.65c-.03.17-.05.34-.05.52v2.26h-1.91c-.29,0-.52.23-.52.52v29.22c0,.29.23.52.52.52h15.5c.05.06.11.14.16.19.09.08.23.22.35.3.13.08.27.14.41.18.14.04.3.06.45.06.15,0,.3-.03.45-.08.26-.07,1.1-.36,1.1-.36.53.39,1.11.73,1.71.99l.24,1.13.14.36h0ZM25.02,36.17h-14.21V8h1.44c.11.59.39,1.14.82,1.57.55.55,1.31.87,2.09.87h12.52c.78,0,1.54-.31,2.09-.87.43-.43.71-.98.82-1.57h1.44v12l-.13.02s-.3.08-.43.15c-.13.07-.26.16-.36.27-.1.1-.2.23-.27.36-.07.12-.16.43-.16.43l-.24,1.13c-.61.26-1.18.6-1.71.99,0,0-.85-.29-1.1-.36-.15-.04-.3-.07-.45-.08-.15,0-.3.02-.45.06-.14.04-.29.1-.41.18-.12.08-.35.3-.35.3-.9,1.04-1.6,2.24-2.04,3.54,0,0-.08.3-.08.45,0,.15.01.31.05.45.04.14.1.3.17.42.08.13.19.25.29.35.19.19.86.78.86.78-.07.66-.07,1.32,0,1.98,0,0-.67.59-.86.78-.1.1-.21.23-.29.35-.07.12-.14.27-.17.42-.03.14-.06.3-.05.45,0,.15.08.45.08.45.28.81.65,1.58,1.11,2.3h0ZM13.05,14.05l1.25,1.25c.47.48,1.25.48,1.72,0l2.64-2.64c.2-.2.2-.53,0-.74-.2-.2-.53-.2-.74,0l-2.64,2.64c-.07.07-.18.07-.25,0l-1.25-1.25c-.2-.2-.53-.2-.74,0-.2.2-.2.53,0,.74h0ZM22.11,12.87h6.96c.29,0,.52-.23.52-.52s-.23-.52-.52-.52h-6.96c-.29,0-.52.23-.52.52s.23.52.52.52ZM13.05,21.01l1.25,1.25c.47.48,1.25.48,1.72,0l2.64-2.64c.2-.2.2-.53,0-.74-.2-.2-.53-.2-.74,0l-2.64,2.64c-.07.07-.18.07-.25,0l-1.25-1.25c-.2-.2-.53-.2-.74,0-.2.2-.2.53,0,.74h0ZM22.11,22.61h3.48c.29,0,.52-.23.52-.52s-.23-.52-.52-.52h-3.48c-.29,0-.52.23-.52.52s.23.52.52.52ZM22.11,15.65h3.48c.29,0,.52-.23.52-.52s-.23-.52-.52-.52h-3.48c-.29,0-.52.23-.52.52s.23.52.52.52ZM22.11,19.83h6.96c.29,0,.52-.23.52-.52s-.23-.52-.52-.52h-6.96c-.29,0-.52.23-.52.52s.23.52.52.52ZM33.07,19.86V7.48c0-.29-.23-.52-.52-.52h-1.91v-2.26c0-.18-.02-.35-.05-.52h2.65c1.44,0,2.61,1.17,2.61,2.61v13.22c-.92-.17-1.85-.21-2.78-.14h0ZM24.68,2.78h3c1.06,0,1.91.86,1.91,1.91v2.78c0,.51-.2.99-.56,1.35-.36.36-.85.56-1.35.56h-12.52c-.51,0-.99-.2-1.35-.56-.36-.36-.56-.85-.56-1.35v-2.78c0-1.06.86-1.91,1.91-1.91h3c.25-1.58,1.62-2.78,3.26-2.78h0c1.65,0,3.01,1.21,3.26,2.78h0ZM17.94,6.61h6.96c.29,0,.52-.23.52-.52s-.23-.52-.52-.52h-6.96c-.29,0-.52.23-.52.52s.23.52.52.52ZM36.19,21.45l.36,1.68c.88.31,1.7.79,2.41,1.39l1.63-.53c.2-.06.42,0,.55.15.81.93,1.44,2.02,1.84,3.19.07.2.01.42-.14.56l-1.27,1.15c.17.92.17,1.86,0,2.78l1.27,1.15c.15.14.21.36.14.56-.4,1.17-1.03,2.26-1.84,3.19-.14.16-.35.22-.55.15l-1.63-.53c-.71.61-1.53,1.08-2.41,1.39l-.36,1.68c-.04.2-.21.36-.41.4-1.22.24-2.47.24-3.68,0-.21-.04-.37-.2-.41-.4l-.36-1.68c-.88-.31-1.7-.79-2.41-1.39l-1.63.53c-.2.06-.42,0-.55-.15-.81-.93-1.44-2.02-1.84-3.19-.07-.2-.01-.42.14-.56l1.27-1.15c-.17-.92-.17-1.86,0-2.78l-1.27-1.15c-.15-.14-.21-.36-.14-.56.4-1.17,1.03-2.26,1.84-3.19.14-.16.35-.22.55-.15l1.63.53c.71-.61,1.53-1.08,2.41-1.39l.36-1.68c.04-.2.21-.36.41-.4,1.22-.24,2.47-.24,3.68,0,.21.04.37.2.41.4ZM33.94,25.74c-2.59,0-4.7,2.1-4.7,4.7s2.1,4.7,4.7,4.7,4.7-2.1,4.7-4.7-2.1-4.7-4.7-4.7ZM33.94,26.78c2.02,0,3.65,1.64,3.65,3.65s-1.64,3.65-3.65,3.65-3.65-1.64-3.65-3.65,1.64-3.65,3.65-3.65Z"/>
    </g>
  </g>
</svg>