<svg xmlns="http://www.w3.org/2000/svg" viewBox="0 0 50 50"><defs><style>.cls-1{fill:#47a142;}.cls-2{fill:#fff;}</style></defs><title>Asset 1</title><g id="Layer_2" data-name="Layer 2"><g id="Layer_1-2" data-name="Layer 1"><circle class="cls-1" cx="25" cy="25" r="25"/><path class="cls-2" d="M32.28,29.62a2.41,2.41,0,0,1,3.19.2l4,4.16a2,2,0,0,1-.21,2.92l-2.74,2.2a4.52,4.52,0,0,1-2.85.89,15.86,15.86,0,0,1-2.53-.15C27.89,38.91,23.24,37,18,31.48s-7-10.33-7.85-13.65a14.56,14.56,0,0,1,0-2.85,2.8,2.8,0,0,1,1.1-2.16,1.73,1.73,0,0,0,.19-.18l1.9-1.55.79-.58a2.41,2.41,0,0,1,3.19.2l4,4.16A2,2,0,0,1,21,17.79l-3.42,2.74a32.09,32.09,0,0,0,5.15,7.12,30.48,30.48,0,0,0,5.94,4.87Z"/><path class="cls-2" d="M36.92,38.75l-.43.35a4.52,4.52,0,0,1-2.85.89,15.86,15.86,0,0,1-2.53-.15C27.89,38.91,23.24,37,18,31.48s-7-10.33-7.85-13.65a14.56,14.56,0,0,1,0-2.85,2.39,2.39,0,0,1,.07-.59C11.67,28.13,25.28,35.79,36.92,38.75Z"/><path class="cls-2" d="M16.44,11.1l2.36,2.47c-1.07-1-3.81-2.83-7.25-.07L14.68,11A1.34,1.34,0,0,1,16.44,11.1Z"/><path class="cls-2" d="M34.63,30.41,37,32.87c-1.07-1-3.81-2.83-7.25-.06l3.13-2.51A1.32,1.32,0,0,1,34.63,30.41Z"/></g></g></svg>