<svg xmlns="http://www.w3.org/2000/svg" xmlns:xlink="http://www.w3.org/1999/xlink" viewBox="0 0 50 50"><defs><style>.cls-1{fill:none;}.cls-2{fill:url(#linear-gradient);}.cls-3{fill:url(#linear-gradient-2);}.cls-4,.cls-5,.cls-7{fill-rule:evenodd;}.cls-4{opacity:0.05;}.cls-4,.cls-5{isolation:isolate;}.cls-5{opacity:0.1;}.cls-6{fill:url(#linear-gradient-3);}.cls-7{fill:#fff;}</style><linearGradient id="linear-gradient" x1="-1038.46" y1="549.58" x2="-1038.32" y2="548.72" gradientTransform="matrix(33.33, 0, 0, -33.33, 34627.73, 18319.59)" gradientUnits="userSpaceOnUse"><stop offset="0.01" stop-color="#00b7f0"/><stop offset="0.34" stop-color="#009de5"/><stop offset="0.76" stop-color="#0082d9"/><stop offset="1" stop-color="#0078d4"/></linearGradient><linearGradient id="linear-gradient-2" x1="-1038.16" y1="548.3" x2="-1037.39" y2="548.75" gradientTransform="matrix(33.33, 0, 0, -33.33, 34627.73, 18319.59)" gradientUnits="userSpaceOnUse"><stop offset="0" stop-color="#0078d4"/><stop offset="0.37" stop-color="#007ad5"/><stop offset="0.57" stop-color="#0082d9"/><stop offset="0.73" stop-color="#0090df"/><stop offset="0.88" stop-color="#00a3e7"/><stop offset="1" stop-color="#00bcf2"/></linearGradient><linearGradient id="linear-gradient-3" x1="-1038.35" y1="549.31" x2="-1037.66" y2="548.1" gradientTransform="matrix(33.33, 0, 0, -33.33, 34627.73, 18319.59)" gradientUnits="userSpaceOnUse"><stop offset="0" stop-color="#00b7f0"/><stop offset="1" stop-color="#007cc1"/></linearGradient></defs><title>Asset 3</title><g id="Layer_2" data-name="Layer 2"><g id="Layer_1-2" data-name="Layer 1"><circle class="cls-1" cx="25" cy="25" r="25"/><path class="cls-2" d="M29.47,14.55A14.64,14.64,0,0,1,14.73,29.1h0A14.64,14.64,0,0,1,0,14.55H0A14.64,14.64,0,0,1,14.73,0h0A14.64,14.64,0,0,1,29.47,14.55h0"/><path class="cls-3" d="M50,35.44A14.74,14.74,0,1,1,35.26,20.89,14.65,14.65,0,0,1,50,35.44h0"/><path class="cls-4" d="M.05,15.8A14.69,14.69,0,0,0,16,29.14a14.58,14.58,0,0,0,.62-29A26.66,26.66,0,0,0,.05,15.8Z"/><path class="cls-4" d="M50,34.4a14.73,14.73,0,1,0-16,15.54A26.66,26.66,0,0,0,50,34.4Z"/><path class="cls-5" d="M.74,19.12a14.77,14.77,0,0,0,18.58,9.34A14.55,14.55,0,0,0,19.92.93,24.94,24.94,0,0,0,.74,19.12Z"/><path class="cls-5" d="M49.29,31a14.75,14.75,0,0,0-18.5-9.48,14.55,14.55,0,0,0-.32,27.71A24.94,24.94,0,0,0,49.29,31Z"/><path class="cls-5" d="M1.29,20.5a14.77,14.77,0,0,0,19.43,7.42,14.54,14.54,0,0,0,.57-26.4A24.08,24.08,0,0,0,1.29,20.5Z"/><path class="cls-5" d="M48.75,29.57A14.79,14.79,0,0,0,29.36,22a14.54,14.54,0,0,0-.31,26.61,24.1,24.1,0,0,0,19.7-19.07Z"/><path class="cls-6" d="M48.34,25.11A23.19,23.19,0,0,1,25,48.15h0a23.18,23.18,0,0,1-23.33-23h0A23.19,23.19,0,0,1,25,2.06h0A23.2,23.2,0,0,1,48.34,25.11h0"/><path class="cls-7" d="M18.44,24.31a7.43,7.43,0,0,1-2.3-2.4,6.68,6.68,0,0,1-.79-3.33,6,6,0,0,1,1.42-4,8.66,8.66,0,0,1,3.7-2.45,14.82,14.82,0,0,1,4.85-.81,19.24,19.24,0,0,1,3.22.25,12.47,12.47,0,0,1,2.24.57,4.32,4.32,0,0,1,1.75,1.11,2.24,2.24,0,0,1,.54,1.49,2.16,2.16,0,0,1-.57,1.55,1.92,1.92,0,0,1-1.43.59A2.57,2.57,0,0,1,30,16.62a20.66,20.66,0,0,0-2.53-.92A9.94,9.94,0,0,0,25,15.4a5.63,5.63,0,0,0-3.05.78,2.5,2.5,0,0,0-1.21,2.26A2.21,2.21,0,0,0,21.41,20a5.5,5.5,0,0,0,1.7,1.21c.72.35,1.78.82,3.2,1.4a4.37,4.37,0,0,1,.46.18,22.63,22.63,0,0,1,3.95,2,7.88,7.88,0,0,1,2.44,2.47A6.52,6.52,0,0,1,34,30.74a6.9,6.9,0,0,1-1.22,4.15,7.17,7.17,0,0,1-3.41,2.5,14.14,14.14,0,0,1-5.12.83,16.25,16.25,0,0,1-7-1.31,3.67,3.67,0,0,1-1.43-1.1,2.48,2.48,0,0,1-.47-1.51A1.94,1.94,0,0,1,16,32.77a2.31,2.31,0,0,1,1.59-.56,4,4,0,0,1,1.85.48c.71.35,1.26.61,1.67.78a8.42,8.42,0,0,0,1.45.46,8.9,8.9,0,0,0,1.86.19,4.94,4.94,0,0,0,3.12-.83A2.73,2.73,0,0,0,28.62,31,2.43,2.43,0,0,0,28,29.38,7.28,7.28,0,0,0,26,28c-.86-.44-2.06-1-3.61-1.63a22.55,22.55,0,0,1-4-2"/></g></g></svg>