<svg xmlns="http://www.w3.org/2000/svg" viewBox="0 0 50 50"><defs><style>.cls-1{fill:#47a142;}.cls-2{fill:none;}.cls-2,.cls-3{fill-rule:evenodd;}.cls-3{fill:#fff;}</style></defs><title>Asset 2</title><g id="Layer_2" data-name="Layer 2"><g id="Layer_1-2" data-name="Layer 1"><circle class="cls-1" cx="25" cy="25" r="25"/><path class="cls-2" d="M25.35,11.83a13,13,0,0,0-13,12.89,12.75,12.75,0,0,0,2.48,7.57L13.2,37.07l5-1.58a12.93,12.93,0,1,0,7.15-23.66Z"/><path class="cls-3" d="M40,24.61a14.75,14.75,0,0,1-21.85,12.8L10,40l2.66-7.84a14.48,14.48,0,0,1-2.11-7.55,14.73,14.73,0,0,1,29.45,0ZM25.27,12.33A12.34,12.34,0,0,0,12.89,24.61a12.2,12.2,0,0,0,2.36,7.21L13.7,36.38l4.76-1.51a12.32,12.32,0,1,0,6.81-22.54ZM32.71,28c-.09-.15-.33-.24-.69-.42s-2.14-1-2.47-1.16-.57-.18-.81.18-.93,1.16-1.15,1.4-.42.27-.78.09a10,10,0,0,1-2.9-1.78,10.88,10.88,0,0,1-2-2.48c-.21-.36,0-.55.16-.73s.36-.42.54-.63a2.59,2.59,0,0,0,.36-.59.66.66,0,0,0,0-.63c-.09-.18-.81-1.94-1.11-2.66s-.6-.69-.81-.69a5.41,5.41,0,0,0-.6.06,2,2,0,0,0-1.06.45,4,4,0,0,0-1.26,3,6.94,6.94,0,0,0,1.47,3.7c.18.24,2.5,4,6.17,5.41s3.67,1,4.33.89a3.61,3.61,0,0,0,2.44-1.7,3,3,0,0,0,.21-1.7Z"/></g></g></svg>