<?xml version="1.0" encoding="UTF-8"?>
<svg id="Layer_2" xmlns="http://www.w3.org/2000/svg" viewBox="0 0 90 90">
  <defs>
    <style>
      .cls-1 {
        fill: #fff;
      }

      .cls-2 {
        fill: #112e57;
      }
    </style>
  </defs>
  <g id="Layer_1-2" data-name="Layer_1">
    <rect class="cls-2" x="0" y="0" width="90" height="90" rx="45" ry="45"/>
    <path class="cls-1" d="M66.94,58.29h-1.32c-1.24-1.85-3.05-3.17-5.11-3.79,2.19-1.16,3.7-3.47,3.7-6.12,0-3.81-3.1-6.92-6.92-6.92s-6.92,3.1-6.92,6.92c0,2.65,1.5,4.96,3.7,6.12-2.06.62-3.87,1.94-5.11,3.79h-1.28c-.19,0-.37.09-.48.24s-.15.35-.09.53l.6,1.95c-.22.81-.34,1.65-.34,2.5v3.89c0,.33.27.6.6.6h18.65c.33,0,.6-.27.6-.6v-3.89c0-.82-.11-1.63-.32-2.42l.62-2.03c.06-.18.02-.38-.09-.53-.12-.15-.29-.24-.48-.24h0ZM51.57,48.37c0-3.15,2.57-5.72,5.72-5.72s5.72,2.57,5.72,5.72-2.57,5.72-5.72,5.72-5.72-2.57-5.72-5.72ZM56.78,55.29h1.03c2.48,0,4.78,1.1,6.33,2.99h-13.69c1.55-1.89,3.85-2.99,6.33-2.99h0ZM65.29,59.48h.84l-2.24,7.33h-13.16l-1.83-5.98s0,0,0,0l-.41-1.34h16.81ZM49.48,66.81h-.92v-3l.92,3ZM66.02,66.81h-.88l.88-2.86v2.86ZM62.99,22h-28.09c-2.51,0-4.54,2.04-4.54,4.54v33.49h-7.3c-.33,0-.6.27-.6.6v2.82c0,2.51,2.04,4.54,4.54,4.54h18.4c.33,0,.6-.27.6-.6s-.27-.6-.6-.6h-15.33c.91-.83,1.48-2.02,1.48-3.35V26.54c0-1.85,1.5-3.35,3.35-3.35s3.35,1.5,3.35,3.35v2.82c0,.33.27.6.6.6h23.55v11c0,.33.27.6.6.6s.6-.27.6-.6v-11s3.35,0,3.35,0c.33,0,.6-.27.6-.6v-2.82c0-2.51-2.04-4.54-4.54-4.54h0ZM30.36,63.46c0,1.85-1.5,3.35-3.35,3.35s-3.35-1.5-3.35-3.35v-2.22h6.7v2.22ZM66.34,28.77h-26.9v-2.22c0-1.32-.57-2.52-1.48-3.35h25.02c1.85,0,3.35,1.5,3.35,3.35v2.22ZM33.86,36.44c0-.33.27-.6.6-.6h25.03c.33,0,.6.27.6.6s-.27.6-.6.6h-25.03c-.33,0-.6-.27-.6-.6ZM33.86,32.45c0-.33.27-.6.6-.6h25.03c.33,0,.6.27.6.6s-.27.6-.6.6h-25.03c-.33,0-.6-.27-.6-.6ZM33.86,40.44c0-.33.27-.6.6-.6h14.02c.33,0,.6.27.6.6s-.27.6-.6.6h-14.02c-.33,0-.6-.27-.6-.6ZM33.86,44.43c0-.33.27-.6.6-.6h14.02c.33,0,.6.27.6.6s-.27.6-.6.6h-14.02c-.33,0-.6-.27-.6-.6ZM33.86,48.43c0-.33.27-.6.6-.6h14.02c.33,0,.6.27.6.6s-.27.6-.6.6h-14.02c-.33,0-.6-.27-.6-.6ZM48.47,53.03h-14.02c-.33,0-.6-.27-.6-.6s.27-.6.6-.6h14.02c.33,0,.6.27.6.6,0,.33-.27.6-.6.6ZM43.3,56.42c0,.33-.27.6-.6.6h-8.25c-.33,0-.6-.27-.6-.6s.27-.6.6-.6h8.25c.33,0,.6.27.6.6ZM43.3,60.42c0,.33-.27.6-.6.6h-8.25c-.33,0-.6-.27-.6-.6s.27-.6.6-.6h8.25c.33,0,.6.27.6.6ZM43.3,64.42c0,.33-.27.6-.6.6h-8.25c-.33,0-.6-.27-.6-.6s.27-.6.6-.6h8.25c.33,0,.6.27.6.6Z"/>
  </g>
</svg>