<?xml version="1.0" encoding="UTF-8"?>
<svg id="Layer_2" xmlns="http://www.w3.org/2000/svg" viewBox="0 0 90 90">
  <defs>
    <style>
      .cls-1 {
        fill: #fff;
      }

      .cls-2 {
        fill: #112e57;
      }
    </style>
  </defs>
  <g id="Layer_1-2" data-name="Layer_1">
    <rect class="cls-2" x="0" y="0" width="90" height="90" rx="45" ry="45"/>
    <path class="cls-1" d="M46.89,46.79v2.03c0,.3.25.55.55.55h4.28c.3,0,.55-.25.55-.55v-7.63c0-.25-.17-.45-.4-.52.53-1.41.81-2.89.81-4.42,0-.41-.03-.82-.07-1.24h.91c.3,0,.55-.25.55-.55,0-6.89-5.6-12.49-12.49-12.49-.3,0-.55.25-.55.55v1.27c-.28-.02-.56-.03-.84-.03-6.89,0-12.49,5.6-12.49,12.49,0,1.15.17,2.29.48,3.39-1.14.89-2.1,2.03-2.78,3.41-2.1,4.29-.79,9.46,3.02,12.25l-.67,1.37c-.61.2-1.14.63-1.45,1.25l-3.2,6.53c-.6,1.22-.09,2.71,1.13,3.31.35.17.72.25,1.08.25.91,0,1.79-.51,2.22-1.38l3.2-6.53c.31-.62.32-1.31.11-1.91l.67-1.37c.89.26,1.8.39,2.7.39,3.66,0,7.15-2.06,8.83-5.5.56-1.14.88-2.35.98-3.58,1.01-.33,1.98-.77,2.87-1.34h0ZM51.17,48.27h-3.18v-6.53h3.17v6.53h0ZM52.93,33.92h-10.81v-10.81c5.84.28,10.53,4.97,10.81,10.81ZM28.8,36.26c0-6.28,5.11-11.39,11.39-11.39.28,0,.56.01.84.03v9.57c0,.3.25.55.55.55h9.92c.04.41.07.82.07,1.24,0,1.53-.31,3-.89,4.39h-3.24c-.3,0-.55.25-.55.55v4.25c-.88.64-1.84,1.15-2.85,1.51-.04-.93-.21-1.86-.52-2.76-.85-2.49-2.62-4.49-4.97-5.65-3.11-1.53-6.65-1.24-9.41.43-.22-.89-.33-1.8-.33-2.73h0ZM29.74,59.62l-3.2,6.53c-.33.68-1.15.96-1.83.63-.68-.33-.96-1.15-.63-1.83l3.2-6.53c.24-.49.73-.77,1.23-.77.2,0,.41.04.6.14.33.16.57.44.69.79.12.35.1.72-.07,1.04h0ZM42.05,51.23c-1.93,3.94-6.52,5.84-10.66,4.42-.02,0-.05,0-.07,0-.04,0-.07-.02-.11-.01-.04,0-.07,0-.1.01s-.07.01-.1.03c-.03.01-.06.03-.09.05-.03.02-.06.04-.08.06s-.04.06-.07.09c-.01.02-.03.04-.04.06l-.6,1.23c-.16-.13-.33-.26-.52-.36-.19-.09-.4-.15-.6-.19l.6-1.23s.01-.05.02-.07c.01-.04.02-.07.03-.11s0-.07,0-.1c0-.04,0-.07-.01-.1s-.02-.07-.04-.1-.03-.06-.05-.09-.05-.05-.08-.08c-.02-.02-.03-.04-.05-.05-3.66-2.41-4.97-7.19-3.03-11.13,2.12-4.32,7.36-6.11,11.68-3.99,2.09,1.03,3.66,2.81,4.42,5.01s.6,4.57-.42,6.67h0ZM54.87,49.37h4.3c.3,0,.55-.25.55-.55v-12.24c0-.3-.25-.55-.55-.55h-4.3c-.3,0-.55.25-.55.55v12.24c0,.3.25.55.55.55ZM55.42,37.14h3.2v11.14h-3.2v-11.14ZM62.3,49.37h4.26c.3,0,.55-.25.55-.55v-15.93c0-.3-.25-.55-.55-.55h-4.26c-.3,0-.55.25-.55.55v15.93c0,.3.25.55.55.55ZM62.85,33.44h3.16v14.83h-3.16v-14.83ZM67.16,51.27c0,.3-.25.55-.55.55h-19.63c-.3,0-.55-.25-.55-.55s.25-.55.55-.55h19.63c.3,0,.55.25.55.55ZM46.5,54.66h-2.8c-.3,0-.55.25-.55.55v2.8c0,.3.25.55.55.55h2.8c.3,0,.55-.25.55-.55v-2.8c0-.3-.25-.55-.55-.55ZM45.95,57.46h-1.7v-1.7h1.7v1.7ZM61.35,55.61c0,.3-.25.55-.55.55h-11.89c-.3,0-.55-.25-.55-.55s.25-.55.55-.55h11.89c.3,0,.55.25.55.55ZM61.35,57.93c0,.3-.25.55-.55.55h-11.89c-.3,0-.55-.25-.55-.55s.25-.55.55-.55h11.89c.3,0,.55.25.55.55ZM46.5,60.26h-2.8c-.3,0-.55.25-.55.55v2.8c0,.3.25.55.55.55h2.8c.3,0,.55-.25.55-.55v-2.8c0-.3-.25-.55-.55-.55ZM45.95,63.06h-1.7v-1.7h1.7v1.7ZM61.35,61.22c0,.3-.25.55-.55.55h-11.89c-.3,0-.55-.25-.55-.55s.25-.55.55-.55h11.89c.3,0,.55.25.55.55ZM61.35,63.53c0,.3-.25.55-.55.55h-11.89c-.3,0-.55-.25-.55-.55s.25-.55.55-.55h11.89c.3,0,.55.25.55.55ZM37.53,40.63c-1.79-.88-3.82-1.01-5.71-.36-1.89.65-3.42,1.99-4.3,3.78-.88,1.79-1.01,3.82-.36,5.71.65,1.89,1.99,3.42,3.78,4.3,1.04.51,2.16.77,3.29.77.82,0,1.63-.13,2.43-.41,1.89-.65,3.42-1.99,4.3-3.78,1.82-3.7.28-8.19-3.42-10.01h0ZM39.96,50.16c-.75,1.53-2.05,2.68-3.66,3.23-1.61.55-3.34.44-4.87-.31-1.53-.75-2.68-2.05-3.23-3.66-.55-1.61-.44-3.34.31-4.87.75-1.53,2.05-2.68,3.66-3.23.68-.23,1.38-.35,2.07-.35.96,0,1.92.22,2.8.66,3.16,1.55,4.47,5.38,2.92,8.54h0ZM39.33,48.65c-.07.25-.29.41-.53.41-.05,0-.09,0-.14-.02-.29-.08-.47-.38-.39-.67.5-1.92-.46-3.92-2.23-4.66-.28-.12-.41-.44-.3-.72.12-.28.44-.41.72-.3,2.28.95,3.52,3.5,2.87,5.95h0Z"/>
  </g>
</svg>