<?xml version="1.0" encoding="UTF-8"?>
<svg id="Layer_2" xmlns="http://www.w3.org/2000/svg" viewBox="0 0 90 90">
  <defs>
    <style>
      .cls-1 {
        fill: #fff;
      }

      .cls-2 {
        fill: #112e57;
      }
    </style>
  </defs>
  <g id="Layer_1-2" data-name="Layer_1">
    <rect class="cls-2" x="0" y="0" width="90" height="90" rx="45" ry="45"/>
    <path class="cls-1" d="M61.16,67.94c-1.66,0-3.21-.65-4.39-1.82-.99-.99-1.62-2.29-1.78-3.67v-.1s-.21.01-.21.01h-24.11v-1.29h24.03l.18.02.11-.09c.16-1.38.79-2.68,1.78-3.67.88-.88,1.99-1.47,3.21-1.71l.11-.02-.04-.11c-1.23-3.4-3.53-6.38-6.67-8.62-3.32-2.38-7.36-3.71-11.36-3.75h-.18c-4.71.17-9.14,2.1-12.48,5.44-3.32,3.32-5.25,7.73-5.43,12.41v.1s2.38,0,2.38,0v1.29h-3.03c-.35,0-.64-.29-.64-.64,0-5.31,2.07-10.31,5.83-14.07,2.66-2.65,5.98-4.5,9.62-5.33l.29-.07-.27-.12c-1.12-.52-2.14-1.23-3.02-2.11-2-2.03-3.08-4.66-3.08-7.45s1.1-5.46,3.08-7.45c2.03-2,4.66-3.09,7.45-3.09,1.94,0,3.84.53,5.49,1.54l-.94.94c-1.38-.78-2.95-1.19-4.55-1.19-2.45,0-4.76.95-6.5,2.67-1.78,1.78-2.74,4.11-2.74,6.58s.95,4.76,2.67,6.5c1.73,1.73,3.98,2.69,6.36,2.75,2.38-.12,4.75-1.14,6.53-2.8,1.89-1.77,2.94-4.06,2.94-6.44,0-1.81-.52-3.56-1.51-5.07l.93-.93c1.22,1.77,1.87,3.83,1.87,5.99,0,2.73-1.19,5.36-3.35,7.38-.98.92-2.11,1.66-3.35,2.2l-.28.12.3.07c2.76.62,5.44,1.82,7.76,3.48,3.43,2.45,6.01,5.87,7.27,9.63l.02.06h.07c1.53.08,2.97.73,4.05,1.81,1.19,1.21,1.82,2.75,1.82,4.39s-.65,3.21-1.82,4.39c-1.17,1.17-2.73,1.82-4.39,1.82ZM61.16,56.82c-1.31,0-2.55.51-3.48,1.44-.93.93-1.44,2.16-1.44,3.48s.51,2.55,1.44,3.48c.93.93,2.16,1.44,3.48,1.44s2.55-.51,3.48-1.44c.93-.93,1.44-2.16,1.44-3.48s-.5-2.52-1.4-3.44c-.97-.96-2.2-1.47-3.52-1.47ZM60.67,63.85c-.17,0-.33-.07-.45-.19l-1.94-1.94c-.12-.13-.19-.29-.19-.46s.07-.33.19-.46c.12-.12.28-.19.45-.19s.33.07.45.19l1.49,1.49,2.47-2.47c.12-.12.28-.19.45-.19s.33.07.46.19c.25.25.25.66,0,.91l-2.92,2.92c-.12.12-.28.19-.45.19ZM28,62.38v-1.29h1v1.29h-1ZM49.06,26.06c-.19-.19-.38-.37-.59-.54l.91-.91c.2.17.4.35.58.54l.14.15-.91.91-.14-.15Z"/>
  </g>
</svg>