<?xml version="1.0" encoding="UTF-8"?>
<svg id="Layer_2" xmlns="http://www.w3.org/2000/svg" xmlns:xlink="http://www.w3.org/1999/xlink" viewBox="0 0 40 40">
  <defs>
    <style>
      .cls-1 {
        fill: #ffca28;
      }

      .cls-2 {
        fill: #3588cb;
      }

      .cls-3 {
        fill: none;
      }

      .cls-4 {
        fill: #549ad4;
      }

      .cls-5 {
        fill: #c4dcf0;
      }

      .cls-6 {
        fill: #e4eff8;
      }

      .cls-7 {
        fill: #ff2929;
      }

      .cls-8 {
        fill: #f5f9fb;
      }

      .cls-9 {
        fill: #333;
      }

      .cls-10 {
        fill: #ecb200;
      }

      .cls-11 {
        fill: #ff5151;
      }

      .cls-12 {
        clip-path: url(#clippath);
      }
    </style>
    <clipPath id="clippath">
      <rect class="cls-3" width="40" height="40"/>
    </clipPath>
  </defs>
  <g id="Layer_1-2" data-name="Layer_1">
    <g class="cls-12">
      <g id="layer1">
        <path id="path4784" class="cls-1" d="M2.66,19.33c-.74,0-1.33-.59-1.33-1.33v-2.67c0-.74.59-1.33,1.33-1.33h17.33c.74,0,1.33.59,1.33,1.33v2.67c0,.74-.59,1.33-1.33,1.33H2.66Z"/>
        <path id="path4786" class="cls-10" d="M14,14c-1.38,4.67-8,4.02-12.67,4.02.01.73.6,1.31,1.33,1.31h17.33c.74,0,1.33-.59,1.33-1.33v-2.67c0-.74-.59-1.33-1.33-1.33h-6Z"/>
        <path id="path4788" class="cls-8" d="M2.66,14c-.74,0-1.33.59-1.33,1.33v2.67c0,.74.59,1.33,1.33,1.33h1.33c-.74,0-1.33-.59-1.33-1.33v-2.67c0-.74.59-1.33,1.33-1.33h-1.33Z"/>
        <path id="path4777" class="cls-1" d="M5.33,14c-.74,0-1.33-.59-1.33-1.33v-2.67c0-.74.59-1.33,1.33-1.33h17.33c.74,0,1.33.59,1.33,1.33v2.67c0,.74-.59,1.33-1.33,1.33H5.33Z"/>
        <path id="path4780" class="cls-10" d="M20,8.67c-1.37,4.67-11.33,4.02-16,4.02.01.73.6,1.31,1.33,1.31h17.33c.74,0,1.33-.59,1.33-1.33v-2.67c0-.74-.59-1.33-1.33-1.33h-2.67Z"/>
        <path id="path4782" class="cls-8" d="M5.33,8.67c-.74,0-1.33.59-1.33,1.33v2.67c0,.74.59,1.33,1.33,1.33h1.33c-.74,0-1.33-.59-1.33-1.33v-2.67c0-.74.59-1.33,1.33-1.33h-1.33Z"/>
        <path id="path4764" class="cls-1" d="M2.67,8.67c-.74,0-1.33-.59-1.33-1.33v-2.67c0-.74.59-1.33,1.33-1.33h17.33c.74,0,1.33.59,1.33,1.33v2.67c0,.74-.59,1.33-1.33,1.33H2.67Z"/>
        <path id="path4767" class="cls-10" d="M19.38,3.33c-1.37,4.67-13.37,4.02-18.04,4.02.01.73.6,1.31,1.33,1.31h17.33c.74,0,1.33-.59,1.33-1.33v-2.67c0-.74-.59-1.33-1.33-1.33h-.63Z"/>
        <path id="ellipse4732" class="cls-1" d="M39.33,10c0,5.15-4.18,9.33-9.33,9.33s-9.33-4.18-9.33-9.33S24.85.67,30,.67c5.15,0,9.33,4.18,9.33,9.33h0Z"/>
        <path id="ellipse4756" class="cls-1" d="M36.67,10c0,3.68-2.98,6.67-6.67,6.67s-6.67-2.98-6.67-6.67,2.98-6.67,6.67-6.67c3.68,0,6.67,2.98,6.67,6.67h0Z"/>
        <path id="ellipse4736" class="cls-10" d="M35.9,2.78c1.36,1.66,2.1,3.74,2.1,5.89,0,5.15-3.19,9.33-9.33,9.33-2.15,0-4.23-.75-5.9-2.11,1.77,2.18,4.43,3.44,7.23,3.44,5.15,0,9.33-4.18,9.33-9.33,0-2.8-1.26-5.45-3.43-7.22Z"/>
        <path id="path4698" class="cls-4" d="M6.21,33.58c3.59,3.64,2.65-.42,7.37,1.57,4.72,1.99,1.13,4.14,6.25,4.19,5.12.04,1.57-2.17,6.32-4.08,4.75-1.91,3.74,2.13,7.39-1.44,3.65-3.58-.43-2.64,1.57-7.34,2-4.7,4.2-1.14,4.2-7.14H.67c0,5.33,2.18,2.15,4.1,6.88,1.92,4.73-2.14,3.73,1.45,7.36h0Z"/>
        <path id="path4754" class="cls-8" d="M.67,19.33c0,5.33,2.18,2.15,4.1,6.88,1.92,4.73-2.14,3.73,1.45,7.36,1.73,1.76,2.41,1.71,3.18,1.43-.47-.2-1.04-.61-1.85-1.43-3.59-3.64.47-2.63-1.45-7.36-1.92-4.73-4.1-1.55-4.1-6.88H.67Z"/>
        <path id="path4749" class="cls-8" d="M12.28,34.57c-.15.01-.28.03-.41.06.48.08,1.03.23,1.72.52,4.72,1.99,1.13,4.14,6.25,4.19.32,0,.61,0,.86-.02-4.39-.18-1.23-2.25-5.78-4.17-1.18-.5-2.01-.62-2.64-.57h0Z"/>
        <path id="path4708" class="cls-2" d="M36.67,19.33c0,6-2.2,2.44-4.2,7.14-2,4.7,2.08,3.76-1.58,7.34-.51.5-.93.84-1.29,1.08,1.2.4,1.66,1.17,3.95-1.08,3.65-3.58-.43-2.64,1.58-7.34,2-4.7,4.2-1.14,4.2-7.14h-2.67Z"/>
        <path id="path4702" class="cls-2" d="M25.63,34.71c-.55.03-1.24.18-2.13.54-4.2,1.69-1.92,3.61-4.88,4.01.35.04.73.07,1.22.07,5.12.04,1.57-2.17,6.32-4.08.33-.13.63-.23.9-.31-.38-.14-.82-.26-1.44-.23h0Z"/>
        <path id="path4774" class="cls-8" d="M2.67,3.33c-.74,0-1.33.59-1.33,1.33v2.67c0,.74.59,1.33,1.33,1.33h1.33c-.74,0-1.33-.59-1.33-1.33v-2.67c0-.74.59-1.33,1.33-1.33h-1.33Z"/>
        <path id="ellipse4743" class="cls-8" d="M30,.67c-5.15,0-9.33,4.18-9.33,9.33,0,1.69.46,3.34,1.33,4.79-.44-1.1-.67-2.27-.67-3.46,0-5.15,4.18-9.33,9.33-9.33,3.28,0,6.32,1.73,8,4.54-1.41-3.55-4.85-5.87-8.67-5.88h0Z"/>
        <path id="ellipse4760" class="cls-10" d="M30,3.33c-3.68,0-6.67,2.98-6.67,6.67,0,2.1.99,4.07,2.67,5.32-.86-1.15-1.33-2.55-1.33-3.99,0-3.68,2.98-6.67,6.67-6.67,1.44,0,2.85.47,4,1.34-1.26-1.68-3.23-2.67-5.33-2.67h0Z"/>
        <path id="circle4710" class="cls-6" d="M28,20c0,4.42-3.58,8-8,8s-8-3.58-8-8,3.58-8,8-8c4.42,0,8,3.58,8,8h0Z"/>
        <path id="path4722" class="cls-5" d="M24.67,15.33c-.11,0-.22.02-.32.07,0,0-1.09.55-2.25,1.16-.58.31-1.18.63-1.67.92-.5.29-.84.46-1.13.76-.82.82-.89,2.23,0,3.12.89.89,2.29.82,3.12,0,.29-.29.47-.64.76-1.13.29-.5.61-1.1.92-1.68.62-1.16,1.16-2.25,1.16-2.25.22-.43-.09-.95-.57-.96h0Z" vector-effect="none"/>
        <path id="circle4716" class="cls-5" d="M20,12c-4.42,0-8,3.58-8,8,0,2.44,1.12,4.75,3.04,6.26-1.1-1.41-1.7-3.14-1.7-4.93,0-4.42,3.58-8,8-8,1.8,0,3.55.62,4.96,1.74-1.52-1.94-3.84-3.07-6.3-3.07Z"/>
        <path id="path4719" class="cls-11" d="M21.29,20.89c.54-.54,2.72-4.89,2.72-4.89,0,0-4.34,2.17-4.89,2.72-.54.54-.6,1.57,0,2.17.6.6,1.63.54,2.17,0Z"/>
        <path id="path4726" class="cls-7" d="M24,16s-.76.39-1.27.65c-.53,2.09-2.48,3.23-3.95,3.72.07.19.18.37.33.52.6.6,1.63.54,2.17,0,.54-.54,2.72-4.89,2.72-4.89h0Z"/>
        <path id="path2522" class="cls-9" d="M21.92,4.11c-.24-.84-1.01-1.44-1.92-1.44H2.67c-1.11,0-2,.9-2,2v2.67c0,1.12.9,2,2,2h.78c-.08.21-.12.44-.12.67v2.67c0,.23.04.45.11.66h-.77c-1.12,0-2,.91-2,2v2.66c0,.23.04.45.11.66h-.11C.3,18.67,0,18.96,0,19.33,0,20.87.13,21.85.42,22.57c.29.72.74,1.11,1.27,1.4.86.46,1.69.71,2.56,2.76.47,1.11.56,1.81.53,2.32-.04.5-.19.83-.36,1.26-.2.51-.33,1.04-.11,1.71.22.66.73,1.34,1.67,2.26.95.93,1.65,1.42,2.3,1.62.72.22,1.27.04,1.71-.14.43-.18.76-.34,1.27-.38.51-.04,1.22.03,2.34.48,1.12.45,1.68.89,2.02,1.27.33.38.46.73.65,1.15.23.53.5.97,1.13,1.28.6.3,1.39.42,2.61.42,1.22,0,2.02-.12,2.61-.42.63-.31.9-.76,1.13-1.28.19-.43.31-.77.65-1.15.33-.38.9-.82,2.02-1.27,1.12-.45,1.83-.53,2.34-.48.51.04.84.21,1.27.38.43.18.99.36,1.71.14.65-.2,1.35-.7,2.3-1.62.95-.93,1.45-1.6,1.67-2.26.22-.66.09-1.2-.11-1.71-.17-.43-.33-.76-.36-1.26-.04-.5.05-1.21.53-2.32.87-2.05,1.71-2.3,2.56-2.76.53-.29.97-.68,1.27-1.4.29-.72.42-1.7.42-3.24,0-.37-.3-.67-.67-.66h-4.35c3-1.73,5.01-4.96,5.01-8.67,0-5.52-4.47-10-10-10-3.33,0-6.26,1.61-8.08,4.11h0ZM38.67,10c0,4.79-3.9,8.67-8.67,8.67-.5,0-.98-.04-1.45-.12-.09-.5-.21-.98-.38-1.44.59.16,1.19.23,1.83.23,4.06,0,7.33-3.29,7.33-7.33s-3.27-7.33-7.33-7.33-7.33,3.29-7.33,7.33c0,.64.07,1.24.23,1.83-.46-.16-.95-.29-1.44-.38-.09-.48-.12-.95-.12-1.46,0-4.79,3.89-8.67,8.67-8.67,4.77,0,8.67,3.87,8.67,8.67ZM4.67,4v1.33c0,.89,1.33.89,1.33,0v-1.33h2.67v1.33c0,.89,1.33.89,1.33,0v-1.33h2.67v1.33c0,.89,1.33.89,1.33,0v-1.33h2.67v1.33c0,.89,1.33.89,1.33,0v-1.33h2c.38,0,.67.3.67.67v1.75c-.19.49-.35,1.02-.46,1.55-.06.02-.13.04-.21.04H2.67c-.38,0-.67-.32-.67-.67v-2.67c0-.38.3-.67.67-.67h2ZM30,4c3.3,0,6,2.68,6,6s-2.7,6-6,6c-.94,0-1.86-.22-2.67-.62-.68-1.07-1.63-2.04-2.7-2.7-.41-.81-.63-1.71-.63-2.68,0-3.32,2.7-6,6-6h0ZM30,5.33c-.33,0-.67.22-.67.67h-.67c-1.13,0-2,.91-2,2v.66c0,1.11.9,2,2,2h.67v2h-.67c-.36,0-.66-.29-.66-.67,0-.89-1.33-.89-1.33,0,0,1.12.9,2,2,2h.67c0,.89,1.33.89,1.33,0h.67c1.1,0,2-.89,2-2v-.67c0-1.11-.9-2-2-2h-.67v-2h.67c.36,0,.66.29.66.67,0,.89,1.33.89,1.33,0,0-1.1-.89-2-2-2h-.67c0-.44-.33-.67-.67-.67h0ZM28.67,7.33h.67v2h-.67c-.38,0-.67-.3-.67-.66v-.66c0-.38.3-.67.67-.67ZM16.67,9.33c1.07,0,2.35,0,3.35,0-.01.22-.02.44-.02.67,0,.46.03.89.09,1.33-.03,0-.06,0-.09,0-2.11,0-4.04.75-5.54,2H5.33c-.36,0-.67-.28-.67-.66v-2.67c0-.37.29-.67.67-.67.7,0,1.3,0,2,0v1.33c0,.89,1.33.89,1.33,0v-1.33c.93,0,1.75,0,2.67,0v1.33c0,.89,1.33.89,1.33,0v-1.33c.9,0,1.79,0,2.67,0v1.33c0,.89,1.33.89,1.33,0v-1.34ZM30.67,10.66h.67c.38,0,.67.31.67.67v.67c0,.38-.3.67-.67.67h-.67v-2ZM20,12.67c4.04,0,7.33,3.28,7.33,7.33s-3.3,7.33-7.33,7.33-7.33-3.28-7.33-7.33c0-4.06,3.29-7.33,7.33-7.33ZM20.12,15.33c.36.01.73.06,1.1.16l.34-1.29c-.52-.14-.93-.19-1.4-.2l-.04,1.33ZM18.67,14.15c-.51.11-1.01.3-1.41.51l.61,1.19c.35-.18.71-.32,1.1-.4-.1-.43-.2-.88-.3-1.3h0ZM2.67,14.67h2v1.33c0,.89,1.33.89,1.33,0v-1.33h2.67v1.33c0,.89,1.33.89,1.33,0v-1.33h3.17c-.89,1.14-1.5,2.5-1.73,4H2.64c-.37-.01-.64-.31-.64-.66v-2.66c0-.37.29-.67.67-.67h0ZM23.69,15.42s-1.09.55-2.25,1.16c-.58.31-1.18.63-1.67.92-.5.29-.84.46-1.13.76-.82.82-.85,2.26,0,3.12.85.85,2.29.82,3.11,0,.29-.29.47-.64.76-1.13.29-.5.61-1.1.92-1.68.62-1.16,1.16-2.25,1.16-2.25.22-.43-.09-.95-.57-.96-.11,0-.22.02-.32.07h0ZM16.02,15.51c-.4.35-.73.75-.98,1.11l1.1.76c.21-.33.48-.63.77-.88l-.89-1ZM22.25,17.94c-.3.57-.62,1.16-.9,1.63-.27.47-.5.82-.55.86-.26.26-.87.36-1.23,0-.36-.36-.26-.97,0-1.23.07-.06.38-.27.85-.55.47-.27,1.06-.59,1.63-.9.2-.1.2-.1.38-.2-.1.19-.09.19-.2.38h0ZM14.35,17.96c-.17.48-.27.94-.32,1.46l1.33.13c.01-.36.15-.81.25-1.14l-1.26-.45ZM24.51,18.79c.12.42.15.79.16,1.16l1.33-.02c0-.54-.08-.99-.2-1.49l-1.29.34ZM1.34,20c3.75.01,6.45,0,9.99,0,0,4.78,3.87,8.67,8.67,8.67s8.67-3.89,8.67-8.67h9.99c-.02,1.02-.18,1.73-.31,2.07-.18.44-.42.59-.68.74-.76.44-2.04.79-3.14,3.4-.53,1.24-.68,2.18-.62,2.93.05.75.31,1.29.45,1.66.1.26.19.49.09.8s-.46.87-1.34,1.73c-.88.86-1.4,1.19-1.76,1.3-.28.09-.44.05-.81-.1s-.9-.41-1.66-.48c-.75-.07-1.7.07-2.95.57-1.26.51-2.03,1.06-2.52,1.63-.5.57-.7,1.13-.86,1.49-.11.25-.21.48-.51.63-.28.14-.9.27-2.02.28-1.12,0-1.74-.13-2.02-.28-.3-.15-.4-.38-.51-.63-.16-.36-.36-.92-.86-1.49-.5-.57-1.27-1.13-2.52-1.63-1.26-.51-2.2-.64-2.95-.57-.75.07-1.29.33-1.66.48-.37.15-.52.19-.81.1-.36-.11-.88-.44-1.76-1.3-.88-.86-1.24-1.42-1.34-1.73s-.01-.55.09-.8c.14-.37.4-.9.45-1.66s-.1-1.69-.62-2.93c-1.11-2.62-2.39-2.97-3.14-3.4-.27-.15-.5-.29-.68-.74-.14-.34-.29-1.05-.31-2.07h0ZM14.07,20.92c.08.5.23,1,.41,1.44l1.23-.52c-.16-.36-.26-.74-.32-1.12l-1.32.21ZM24.53,21.1c-.1.41-.23.75-.41,1.09l1.17.63c.25-.44.4-.9.54-1.4l-1.31-.31ZM9.09,22.26c-.45-.02-.8.41-.67.85,1.11,4.14,4.34,7.38,8.48,8.48.83.25,1.23-1.05.34-1.28-3.68-.99-6.56-3.86-7.54-7.54-.07-.28-.32-.49-.61-.5h0ZM30.92,22.26c-.29.02-.54.22-.61.5-.99,3.68-3.86,6.56-7.54,7.54-.88.23-.48,1.53.34,1.28,4.14-1.11,7.38-4.34,8.48-8.48.12-.44-.22-.87-.67-.85h0ZM16.29,22.84l-1.06.81c.33.43.7.78,1.06,1.06l.83-1.05c-.32-.23-.59-.54-.82-.83ZM23.46,23.14c-.24.27-.61.58-.89.76l.74,1.11c.43-.27.81-.62,1.14-.98l-.98-.9ZM18.1,24.27l-.54,1.22c.45.21.97.34,1.44.44l.22-1.32c-.39-.06-.73-.17-1.12-.33h0ZM21.52,24.42c-.38.14-.77.2-1.14.24l.11,1.33c.6-.06,1.02-.17,1.47-.3l-.44-1.26Z" vector-effect="none"/>
      </g>
    </g>
  </g>
</svg>