<?xml version="1.0" encoding="UTF-8"?>
<svg id="Layer_2" xmlns="http://www.w3.org/2000/svg" xmlns:xlink="http://www.w3.org/1999/xlink" viewBox="0 0 40 40">
  <defs>
    <style>
      .cls-1 {
        fill: #f1f7ff;
      }

      .cls-2 {
        fill: #e1eeff;
      }

      .cls-3 {
        fill: #ddecff;
      }

      .cls-4 {
        fill: #ebf4ff;
      }

      .cls-5 {
        fill: #dbebff;
      }

      .cls-6 {
        fill: #a6ccf4;
      }

      .cls-7 {
        fill: #ecf5ff;
      }

      .cls-8 {
        fill: #e4f0ff;
      }

      .cls-9 {
        fill: #f4f9ff;
      }

      .cls-10 {
        fill: #daebff;
      }

      .cls-11 {
        fill: #e7f2ff;
      }

      .cls-12 {
        fill: #f2f8ff;
      }

      .cls-13 {
        fill: #edf6ff;
      }

      .cls-14 {
        fill: #fff;
      }

      .cls-15 {
        fill: #e2efff;
      }

      .cls-16 {
        fill: #f6faff;
      }

      .cls-17 {
        fill: none;
      }

      .cls-18 {
        fill: #130072;
      }

      .cls-19 {
        fill: #f7fbff;
      }

      .cls-20 {
        fill: #fafdff;
      }

      .cls-21 {
        fill: #e6f1ff;
      }

      .cls-22 {
        fill: #f5faff;
      }

      .cls-23 {
        fill: #f8fbff;
      }

      .cls-24 {
        clip-path: url(#clippath-1);
      }

      .cls-25 {
        fill: #d9eaff;
      }

      .cls-26 {
        fill: #eef6ff;
      }

      .cls-27 {
        fill: #e9f3ff;
      }

      .cls-28 {
        fill: #fbfdff;
      }

      .cls-29 {
        fill: #fdfeff;
      }

      .cls-30 {
        fill: #eaf4ff;
      }

      .cls-31 {
        fill: #deedff;
      }

      .cls-32 {
        fill: #e3f0ff;
      }

      .cls-33 {
        fill: #fefeff;
      }

      .cls-34 {
        fill: #f3f8ff;
      }

      .cls-35 {
        fill: #f9fcff;
      }

      .cls-36 {
        fill: #dfeeff;
      }

      .cls-37 {
        fill: #eff7ff;
      }

      .cls-38 {
        fill: #2680ed;
      }

      .cls-39 {
        fill: #e5f1ff;
      }

      .cls-40 {
        clip-path: url(#clippath);
      }

      .cls-41 {
        fill: #dcecff;
      }

      .cls-42 {
        fill: #e8f3ff;
      }
    </style>
    <clipPath id="clippath">
      <rect class="cls-17" width="40" height="40"/>
    </clipPath>
    <clipPath id="clippath-1">
      <path class="cls-17" d="M26.14,26.16l-6.13,3.6-6.13-3.6c-3.59-2.11-5.8-5.96-5.8-10.12V4.03l3.94-3.47h15.93l3.97,3.47v12.01c0,4.16-2.21,8.02-5.8,10.12Z"/>
    </clipPath>
  </defs>
  <g id="Layer_1-2" data-name="Layer_1">
    <g class="cls-40">
      <g>
        <g>
          <g class="cls-24">
            <rect class="cls-14" x="8.09" y=".55" width="23.85" height="1.52"/>
            <rect class="cls-33" x="8.09" y="2.07" width="23.85" height="1.52"/>
            <rect class="cls-29" x="8.09" y="3.59" width="23.85" height="1.52"/>
            <rect class="cls-28" x="8.09" y="5.11" width="23.85" height="1.52"/>
            <rect class="cls-20" x="8.09" y="6.62" width="23.85" height="1.52"/>
            <rect class="cls-35" x="8.09" y="8.14" width="23.85" height="1.52"/>
            <rect class="cls-35" x="8.09" y="9.66" width="23.85" height=".69"/>
            <rect class="cls-23" x="8.09" y="10.35" width="23.85" height=".69"/>
            <rect class="cls-19" x="8.09" y="11.04" width="23.85" height=".69"/>
            <rect class="cls-16" x="8.09" y="11.73" width="23.85" height=".69"/>
            <rect class="cls-22" x="8.09" y="12.42" width="23.85" height=".69"/>
            <rect class="cls-9" x="8.09" y="13.11" width="23.85" height=".69"/>
            <rect class="cls-34" x="8.09" y="13.79" width="23.85" height=".69"/>
            <rect class="cls-12" x="8.09" y="14.48" width="23.85" height=".69"/>
            <rect class="cls-1" x="8.09" y="15.17" width="23.85" height=".69"/>
            <rect class="cls-37" x="8.09" y="15.86" width="23.85" height=".69"/>
            <rect class="cls-26" x="8.09" y="16.55" width="23.85" height=".69"/>
            <rect class="cls-13" x="8.09" y="17.24" width="23.85" height=".69"/>
            <rect class="cls-7" x="8.09" y="17.93" width="23.85" height=".69"/>
            <rect class="cls-4" x="8.09" y="18.62" width="23.85" height=".69"/>
            <rect class="cls-30" x="8.09" y="19.31" width="23.85" height=".69"/>
            <rect class="cls-27" x="8.09" y="20" width="23.85" height=".69"/>
            <rect class="cls-42" x="8.09" y="20.68" width="23.85" height=".69"/>
            <rect class="cls-11" x="8.09" y="21.37" width="23.85" height=".69"/>
            <rect class="cls-11" x="8.09" y="22.06" width="23.85" height=".55"/>
            <rect class="cls-21" x="8.09" y="22.61" width="23.85" height=".55"/>
            <rect class="cls-39" x="8.09" y="23.16" width="23.85" height=".55"/>
            <rect class="cls-8" x="8.09" y="23.71" width="23.85" height=".55"/>
            <rect class="cls-32" x="8.09" y="24.26" width="23.85" height=".55"/>
            <rect class="cls-15" x="8.09" y="24.81" width="23.85" height=".55"/>
            <rect class="cls-2" x="8.09" y="25.36" width="23.85" height=".55"/>
            <rect class="cls-36" x="8.09" y="25.91" width="23.85" height=".55"/>
            <rect class="cls-31" x="8.09" y="26.46" width="23.85" height=".55"/>
            <rect class="cls-3" x="8.09" y="27.01" width="23.85" height=".55"/>
            <rect class="cls-41" x="8.09" y="27.56" width="23.85" height=".55"/>
            <rect class="cls-5" x="8.09" y="28.11" width="23.85" height=".55"/>
            <rect class="cls-10" x="8.09" y="28.66" width="23.85" height=".55"/>
            <rect class="cls-25" x="8.09" y="29.21" width="23.85" height=".55"/>
          </g>
          <path class="cls-38" d="M20.02,30.31c-.1,0-.19-.03-.28-.08l-6.13-3.6c-1.84-1.08-3.38-2.64-4.44-4.49-1.06-1.86-1.62-3.97-1.62-6.11V4.03c0-.16.07-.31.19-.41L11.67.14c.1-.09.23-.14.37-.14h15.93c.13,0,.26.05.36.14l3.97,3.47c.12.1.19.26.19.42v12.01c0,2.14-.56,4.25-1.62,6.11-1.06,1.86-2.6,3.41-4.44,4.49l-6.13,3.6c-.09.05-.18.08-.28.08ZM8.65,4.28v11.76c0,3.95,2.12,7.65,5.52,9.65l5.85,3.43,5.85-3.43c3.41-2,5.52-5.7,5.52-9.65V4.28l-3.63-3.17h-15.51l-3.6,3.17ZM26.14,26.16h0,0Z"/>
        </g>
        <path class="cls-38" d="M20.02,34.54c-.3,0-.55-.25-.55-.55v-4.24c0-.3.25-.55.55-.55s.55.25.55.55v4.24c0,.3-.25.55-.55.55Z"/>
        <path class="cls-38" d="M17.29,37.27h-6.77c-.3,0-.55-.25-.55-.55s.25-.55.55-.55h6.77c.3,0,.55.25.55.55s-.25.55-.55.55Z"/>
        <g>
          <circle class="cls-14" cx="20.02" cy="36.72" r="2.73"/>
          <path class="cls-38" d="M20.02,40c-1.81,0-3.28-1.47-3.28-3.28s1.47-3.28,3.28-3.28,3.28,1.47,3.28,3.28-1.47,3.28-3.28,3.28ZM20.02,34.54c-1.2,0-2.17.98-2.17,2.18s.98,2.18,2.17,2.18,2.17-.98,2.17-2.18-.98-2.18-2.17-2.18Z"/>
        </g>
        <g>
          <circle class="cls-14" cx="7.8" cy="36.72" r="2.73"/>
          <path class="cls-38" d="M7.8,40c-1.81,0-3.28-1.47-3.28-3.28s1.47-3.28,3.28-3.28,3.28,1.47,3.28,3.28-1.47,3.28-3.28,3.28ZM7.8,34.54c-1.2,0-2.17.98-2.17,2.18s.98,2.18,2.17,2.18,2.17-.98,2.17-2.18-.98-2.18-2.17-2.18Z"/>
        </g>
        <path class="cls-38" d="M5.07,37.27H.55C.25,37.27,0,37.02,0,36.72s.25-.55.55-.55h4.52c.3,0,.55.25.55.55s-.25.55-.55.55Z"/>
        <g>
          <path class="cls-38" d="M29.48,37.27h-6.73c-.3,0-.55-.25-.55-.55s.25-.55.55-.55h6.73c.3,0,.55.25.55.55s-.25.55-.55.55Z"/>
          <g>
            <circle class="cls-14" cx="32.2" cy="36.72" r="2.73"/>
            <path class="cls-38" d="M32.2,40c-1.81,0-3.28-1.47-3.28-3.28s1.47-3.28,3.28-3.28,3.28,1.47,3.28,3.28-1.47,3.28-3.28,3.28ZM32.2,34.54c-1.2,0-2.17.98-2.17,2.18s.98,2.18,2.17,2.18,2.17-.98,2.17-2.18-.98-2.18-2.17-2.18Z"/>
          </g>
          <path class="cls-38" d="M39.45,37.27h-4.52c-.3,0-.55-.25-.55-.55s.25-.55.55-.55h4.52c.3,0,.55.25.55.55s-.25.55-.55.55Z"/>
        </g>
        <g>
          <g>
            <ellipse class="cls-14" cx="20.02" cy="13.86" rx="6.91" ry="6.9"/>
            <path class="cls-18" d="M20.02,21.32c-4.11,0-7.46-3.34-7.46-7.45s3.35-7.45,7.46-7.45,7.46,3.34,7.46,7.45-3.35,7.45-7.46,7.45ZM20.02,7.51c-3.5,0-6.35,2.85-6.35,6.35s2.85,6.35,6.35,6.35,6.35-2.85,6.35-6.35-2.85-6.35-6.35-6.35Z"/>
          </g>
          <path class="cls-6" d="M19.28,15.86c-.14,0-.28-.05-.39-.16l-1.27-1.27c-.22-.22-.22-.57,0-.78.22-.22.57-.22.78,0l.88.88,2.35-2.35c.22-.22.57-.22.78,0,.22.22.22.57,0,.78l-2.74,2.74c-.11.11-.25.16-.39.16Z"/>
        </g>
      </g>
    </g>
  </g>
</svg>