<?xml version="1.0" encoding="UTF-8"?>
<svg id="Layer_2" xmlns="http://www.w3.org/2000/svg" xmlns:xlink="http://www.w3.org/1999/xlink" viewBox="0 0 40 40">
  <defs>
    <style>
      .cls-1 {
        fill: none;
      }

      .cls-2 {
        fill: #9bc9ff;
      }

      .cls-2, .cls-3 {
        fill-rule: evenodd;
      }

      .cls-3 {
        fill: #1e81ce;
      }

      .cls-4 {
        clip-path: url(#clippath);
      }
    </style>
    <clipPath id="clippath">
      <rect class="cls-1" width="40" height="40"/>
    </clipPath>
  </defs>
  <g id="Layer_1-2" data-name="Layer_1">
    <g class="cls-4">
      <g>
        <path class="cls-2" d="M20.13,12.24v-2.55c0-.57-.46-1.03-1.03-1.03h-2.66c-.57,0-1.03.46-1.03,1.03v.68l-3.3-.96v-4.03c0-.6.49-1.09,1.09-1.09h2.2l.56,1.8c.06.18.23.31.42.31h5.44c.19,0,.37-.13.42-.31l.56-1.8h2.2c.6,0,1.09.49,1.09,1.09v11.41h-2.12v-.83c0-.57-.46-1.03-1.03-1.03h-2.66c-.57,0-1.03.46-1.03,1.03v2.55c0,.57.46,1.03,1.03,1.03h2.66c.57,0,1.03-.46,1.03-1.03v-.83h2.12v13.45c0,.6-.49,1.09-1.09,1.09h-11.81c-.6,0-1.09-.49-1.09-1.09v-5.05l3.35-.98.06.12c.17.35.53.58.93.58h2.66c.57,0,1.03-.46,1.03-1.03v-2.54c0-.57-.46-1.03-1.03-1.03h-2.66c-.57,0-1.03.46-1.03,1.03v1.96l-3.3.96v-14.82l3.3.96v.94c0,.57.46,1.03,1.03,1.03h2.66c.57,0,1.03-.46,1.03-1.03h0ZM20.95,29.9h-3.72c-.25,0-.44.2-.44.45s.2.45.44.45h3.72c.24,0,.44-.2.44-.45s-.2-.45-.44-.45Z"/>
        <path class="cls-3" d="M21.56,30.34c0,.33-.27.61-.61.61h-3.72c-.33,0-.61-.28-.61-.61s.27-.61.61-.61h3.72c.33,0,.61.27.61.61ZM33.02,28.93l1.36-1.51-1.26-2.18-1.99.42c-.18.04-.37,0-.51-.12-.55-.45-1.16-.81-1.82-1.05-.17-.07-.31-.2-.36-.38l-.63-1.93h-.68v3.24c2.54.29,4.52,2.45,4.52,5.07,0,2.81-2.29,5.1-5.1,5.1-1.73,0-3.33-.88-4.27-2.31h-3.31l-.25.27,1.26,2.18,1.99-.42c.18-.04.37.01.51.13.55.45,1.16.8,1.82,1.05.17.06.31.2.36.38l.63,1.93h2.52l.63-1.93c.06-.17.19-.32.36-.38.66-.25,1.27-.6,1.82-1.05.14-.12.33-.16.51-.13l1.99.42,1.26-2.18-1.36-1.51c-.12-.14-.18-.32-.15-.51.11-.69.12-1.41,0-2.1-.03-.18.02-.37.15-.5h0ZM22.91,15.98v2.51h-2.62v-2.51h2.62ZM16.45,12.22v-2.51h2.62v2.51h-2.62ZM16.45,24.76v-2.5h2.62v2.5h-2.62ZM12.26,31.14c0,.51.41.92.93.92h11.81c.51,0,.93-.41.93-.92v-13.29h-1.8v.67c0,.65-.53,1.19-1.19,1.19h-2.66c-.66,0-1.19-.54-1.19-1.19v-2.55c0-.66.53-1.19,1.19-1.19h2.66c.66,0,1.19.53,1.19,1.19v.67h1.8V5.38c0-.51-.41-.93-.93-.93h-2.08l-.52,1.69c-.08.25-.31.42-.58.42h-5.44c-.27,0-.5-.17-.58-.42l-.52-1.69h-2.08c-.51,0-.93.42-.93.93v3.91l2.98.86v-.46c0-.65.53-1.19,1.19-1.19h2.66c.66,0,1.19.54,1.19,1.19v2.55c0,.66-.53,1.19-1.19,1.19h-2.66c-.66,0-1.19-.53-1.19-1.19v-.82l-2.98-.87v14.39l2.98-.86v-1.84c0-.66.53-1.19,1.19-1.19h2.66c.66,0,1.19.54,1.19,1.19v2.54c0,.66-.53,1.19-1.19,1.19h-2.66c-.47,0-.88-.28-1.07-.67l-3.1.9v4.93h0ZM21.65,4.45l-.28.9h-4.54l-.28-.9h5.1ZM27.14,31.14v-4.49c1.87.28,3.31,1.89,3.31,3.84,0,2.14-1.74,3.89-3.89,3.89-1.02,0-1.99-.4-2.7-1.09h1.14c1.18,0,2.14-.96,2.14-2.14h0ZM7.63,32.9c0,.77-.62,1.38-1.38,1.38s-1.38-.62-1.38-1.38.62-1.38,1.38-1.38,1.38.62,1.38,1.38ZM4.86,2.59c0-.76.62-1.38,1.38-1.38s1.38.62,1.38,1.38-.62,1.38-1.38,1.38c-.76,0-1.38-.62-1.38-1.38ZM33.76,15.85c.76,0,1.38.62,1.38,1.38s-.62,1.38-1.38,1.38-1.38-.62-1.38-1.38c0-.76.62-1.38,1.38-1.38ZM35.58,27.07l-1.56-2.7c-.17-.3-.52-.45-.86-.38l-2,.42c-.51-.39-1.07-.71-1.66-.95l-.63-1.94c-.11-.33-.41-.56-.76-.56h-.98v-3.12h4.1c.27,1.14,1.3,1.99,2.52,1.99,1.43,0,2.59-1.16,2.59-2.6s-1.16-2.59-2.59-2.59c-1.22,0-2.25.85-2.52,1.99h-4.1V5.38c0-1.18-.96-2.14-2.14-2.14h-11.81c-1.18,0-2.14.96-2.14,2.14v3.55l-3.5-1.02c-.43-.12-.7-.49-.7-.93v-1.87c1.14-.27,1.99-1.3,1.99-2.52,0-1.43-1.16-2.59-2.59-2.59s-2.6,1.16-2.6,2.59c0,1.23.85,2.25,1.99,2.52v1.87c0,.98.63,1.83,1.58,2.1l3.84,1.11v15.1l-3.84,1.11c-.94.28-1.58,1.12-1.58,2.1v1.86c-1.14.28-1.99,1.3-1.99,2.52,0,1.43,1.16,2.6,2.6,2.6s2.59-1.16,2.59-2.6c0-1.22-.85-2.25-1.99-2.52v-1.86c0-.44.28-.81.7-.94l3.5-1.01v4.58c0,1.18.96,2.14,2.14,2.14h4.27c-.06.2-.04.43.08.62l1.55,2.69c.17.3.52.46.86.38l2-.42c.51.39,1.07.71,1.66.95l.63,1.95c.11.33.42.55.76.55h3.11c.35,0,.66-.22.76-.55l.63-1.94c.59-.25,1.15-.57,1.66-.96l2,.42c.34.08.69-.08.86-.38l1.55-2.69c.17-.31.13-.68-.1-.94l-1.37-1.52c.08-.64.08-1.27,0-1.91l1.37-1.52c.23-.26.27-.64.1-.94h0Z"/>
      </g>
    </g>
  </g>
</svg>