<?xml version="1.0" encoding="UTF-8"?>
<svg id="Layer_2" xmlns="http://www.w3.org/2000/svg" xmlns:xlink="http://www.w3.org/1999/xlink" viewBox="0 0 40 40">
  <defs>
    <style>
      .cls-1 {
        fill: none;
      }

      .cls-2 {
        fill: #00429b;
      }

      .cls-3 {
        fill: #ffd422;
      }

      .cls-4 {
        fill: #005edf;
      }

      .cls-5 {
        fill: #fff36c;
      }

      .cls-6 {
        fill: #ff9f22;
      }

      .cls-7 {
        clip-path: url(#clippath);
      }
    </style>
    <clipPath id="clippath">
      <rect class="cls-1" width="40" height="40"/>
    </clipPath>
  </defs>
  <g id="Layer_1-2" data-name="Layer_1">
    <g class="cls-7">
      <g>
        <g>
          <path class="cls-3" d="M18.52,20.31H1.17c-.65,0-1.17.52-1.17,1.17v17.34c0,.65.52,1.17,1.17,1.17h17.34c.65,0,1.17-.52,1.17-1.17v-17.34c0-.65-.52-1.17-1.17-1.17Z"/>
          <path class="cls-6" d="M.34,39.66c.21.21.51.34.83.34h17.34c.65,0,1.17-.52,1.17-1.17v-17.34c0-.32-.13-.62-.34-.83L.34,39.66Z"/>
          <path class="cls-5" d="M38.83,0H12.27c-.65,0-1.17.52-1.17,1.17v26.56c0,.65.52,1.17,1.17,1.17h26.56c.65,0,1.17-.52,1.17-1.17V1.17c0-.65-.52-1.17-1.17-1.17Z"/>
          <path class="cls-3" d="M11.44,28.56c.21.21.51.34.83.34h26.56c.65,0,1.17-.52,1.17-1.17V1.17c0-.32-.13-.62-.34-.83L11.44,28.56Z"/>
          <path class="cls-4" d="M34.14,4.69h-4.69c-.65,0-1.17.52-1.17,1.17s.52,1.17,1.17,1.17h1.86l-13.19,13.19v-1.86c0-.65-.52-1.17-1.17-1.17s-1.17.52-1.17,1.17v4.69c0,.65.52,1.17,1.17,1.17h4.69c.65,0,1.17-.52,1.17-1.17s-.52-1.17-1.17-1.17h-1.86l13.19-13.19v1.86c0,.65.52,1.17,1.17,1.17s1.17-.52,1.17-1.17v-4.69c0-.65-.52-1.17-1.17-1.17Z"/>
        </g>
        <path class="cls-2" d="M34.97,5.03l-18.84,18.84c.21.21.51.34.83.34h4.69c.65,0,1.17-.52,1.17-1.17s-.52-1.17-1.17-1.17h-1.86l13.19-13.19v1.86c0,.65.52,1.17,1.17,1.17s1.17-.52,1.17-1.17v-4.69c0-.32-.13-.62-.34-.83Z"/>
      </g>
    </g>
  </g>
</svg>