<?xml version="1.0" encoding="UTF-8"?>
<svg id="Layer_2" xmlns="http://www.w3.org/2000/svg" xmlns:xlink="http://www.w3.org/1999/xlink" viewBox="0 0 40 40">
  <defs>
    <style>
      .cls-1 {
        fill: #63e2e7;
      }

      .cls-2 {
        fill: #3f3679;
      }

      .cls-3 {
        fill: #cecece;
      }

      .cls-4 {
        fill: #5b5b5b;
      }

      .cls-5 {
        fill: none;
      }

      .cls-6 {
        fill: #f8d323;
      }

      .cls-7 {
        fill: #67beeb;
      }

      .cls-8 {
        fill: #f8af23;
      }

      .cls-9 {
        fill: #6377e7;
      }

      .cls-10 {
        fill: #63bce7;
      }

      .cls-11 {
        clip-path: url(#clippath);
      }

      .cls-12 {
        fill: #707070;
      }

      .cls-13 {
        fill: #f87023;
      }
    </style>
    <clipPath id="clippath">
      <rect class="cls-5" width="40" height="40"/>
    </clipPath>
  </defs>
  <g id="Layer_1-2" data-name="Layer_1">
    <g class="cls-11">
      <g>
        <g>
          <path class="cls-10" d="M17.6,22.99c-5.2.17-9.36,4.43-9.36,9.67v7.1h23.51v-7.1c0-5.24-4.16-9.5-9.36-9.67h-4.79Z"/>
          <path class="cls-1" d="M22.4,22.99h-2.46c5.2.17,9.36,4.43,9.36,9.67v7.1h2.46v-7.1c0-5.24-4.16-9.5-9.36-9.67h0Z"/>
          <path class="cls-9" d="M20.06,22.99h-2.46c-5.2.17-9.36,4.43-9.36,9.67v7.1h2.46v-7.1c0-5.24,4.16-9.5,9.36-9.67h0Z"/>
          <path class="cls-8" d="M18.06,19.11h3.88v6.26h-3.88v-6.26Z"/>
          <path class="cls-13" d="M18.06,19.11h1.64v6.26h-1.64v-6.26Z"/>
          <g>
            <circle class="cls-13" cx="11.93" cy="10.65" r="1.62"/>
            <circle class="cls-6" cx="28.07" cy="10.65" r="1.62"/>
          </g>
          <path class="cls-8" d="M20,20.46c-4.46,0-8.07-3.61-8.07-8.07v-2.98c0-4.46,3.61-8.07,8.07-8.07s8.07,3.61,8.07,8.07v2.98c0,4.46-3.61,8.07-8.07,8.07Z"/>
          <path class="cls-13" d="M14.39,12.39v-2.98c0-4.04,2.97-7.39,6.84-7.98-.4-.06-.81-.09-1.23-.09-4.46,0-8.07,3.61-8.07,8.07v2.98c0,4.46,3.61,8.07,8.07,8.07.42,0,.83-.03,1.23-.09-3.87-.59-6.84-3.94-6.84-7.98Z"/>
          <g>
            <circle class="cls-2" cx="16.83" cy="12.53" r=".78"/>
            <circle class="cls-2" cx="23.25" cy="12.53" r=".78"/>
          </g>
          <path class="cls-3" d="M18.06,22.39l1.94,2.97-3.33,1.27.11-4.5,1.28-.79v1.05Z"/>
          <path class="cls-3" d="M21.94,22.39l-1.94,2.97,3.33,1.27-.11-4.5-1.28-.79v1.05Z"/>
          <path class="cls-12" d="M25.06,6.38l1.52,3.61h1.48v-2.27c0-1.29-.39-2.55-1.12-3.61l-1.89,2.26Z"/>
          <path class="cls-12" d="M11.93,10h1.74l.89-3.3s5.24,2.53,10.28.31c1.79-.79,2.94-2.57,2.94-4.53v-1.36c0-.48-.39-.88-.88-.88h-10.29c-2.59,0-4.69,2.1-4.69,4.69v5.06Z"/>
          <path class="cls-4" d="M19.07.25h-2.46c-2.59,0-4.69,2.1-4.69,4.69v5.06h1.74l.72-2.67v-2.39C14.39,2.34,16.49.25,19.07.25Z"/>
          <g>
            <path class="cls-3" d="M30.93,37.58H9.07l.06.49c.12.96.94,1.69,1.91,1.69h17.91c.97,0,1.79-.72,1.91-1.69l.06-.49Z"/>
            <path class="cls-3" d="M28.15,26.93H11.85c-1.01,0-1.82.82-1.82,1.82v8.82h19.94v-8.82c0-1.01-.82-1.82-1.82-1.82Z"/>
            <g>
              <path class="cls-3" d="M17.64,33.12c.02.07.05.14.08.2l-.62.62,1.22,1.22.62-.62c.07.03.13.06.2.08v.87h1.72v-.87c.07-.02.14-.05.2-.08l.62.62,1.22-1.22-.62-.62c.03-.07.06-.13.08-.2h.87v-1.72h-.87c-.02-.07-.05-.14-.08-.2l.62-.62-1.22-1.22-.62.62c-.07-.03-.13-.06-.2-.08v-.87h-1.72v.87c-.07.02-.14.05-.2.08l-.62-.62-1.22,1.22.62.62c-.03.07-.06.13-.08.2h-.87v1.72h.87Z"/>
              <circle class="cls-7" cx="20" cy="32.26" r="1.09"/>
            </g>
          </g>
        </g>
        <g>
          <g>
            <path class="cls-10" d="M10.57,18.59l-4.52-4.52-4.52,4.52h2.48v5.56h4.09v-5.56h2.48Z"/>
            <g>
              <path class="cls-9" d="M4.01,18.59h2.46v5.56h-2.46v-5.56Z"/>
              <path class="cls-9" d="M6.05,14.07l-4.52,4.52h2.46l3.29-3.29-1.23-1.23Z"/>
            </g>
          </g>
          <g>
            <path class="cls-10" d="M29.43,18.59l4.52-4.52,4.52,4.52h-2.48v5.56h-4.09v-5.56h-2.48Z"/>
            <g>
              <path class="cls-1" d="M33.53,18.59h2.46v5.56h-2.46v-5.56Z"/>
              <path class="cls-1" d="M33.95,14.07l4.52,4.52h-2.46l-3.29-3.29,1.23-1.23Z"/>
            </g>
            <g>
              <path class="cls-2" d="M25.24,6.81l-.1-.23c-.13.07-.27.14-.41.2-4.28,1.88-8.77.24-9.84-.2-.15-.06-.23-.1-.24-.1-.07-.03-.14-.03-.21,0-.02.01-.05.03-.07.05-.03.03-.06.07-.07.11l-.84,3.12h-.2c.05.08.1.16.13.25.04.08.06.16.09.25h.17c.11,0,.21-.07.24-.18l.81-3.02s.01,0,.02,0c1.18.49,5.79,2.13,10.2.19.06-.03.12-.06.18-.09l1.24,2.95c.03.06.08.11.14.14.02-.08.05-.16.08-.23l-1.34-3.19ZM23.48,22.84l-.02-.71c0-.08-.05-.16-.12-.2l-1.16-.72v-.79c3.49-.95,6.08-4.13,6.13-7.91.92-.12,1.63-.9,1.63-1.85s-.71-1.73-1.62-1.85v-1.07c0-1.07-.26-2.14-.76-3.08.31-.67.47-1.4.47-2.17v-1.36c0-.62-.5-1.12-1.12-1.12h-10.29c-2.72,0-4.93,2.21-4.93,4.93v3.87c-.91.12-1.62.9-1.62,1.85s.71,1.73,1.63,1.85c.05,3.78,2.63,6.96,6.13,7.91v.79l-1.16.72c-.07.04-.11.12-.12.2l-.02.71c-4.86.69-8.52,4.89-8.52,9.82v7.34h24.01v-7.34c0-4.93-3.65-9.13-8.52-9.82ZM8.49,39.51v-6.85h0c0-4.65,3.43-8.63,8.01-9.32v.46s-.08,2.83-.08,2.83c0,.02,0,.04,0,.06h-4.58c-1.14,0-2.07.93-2.07,2.07v8.57h-.71c-.07,0-.14.03-.18.08-.05.05-.07.12-.06.19l.06.49c.07.57.36,1.07.78,1.41h-1.19ZM17,23.03l.02-.75.79-.49v.61s.01.09.04.13l.21.32.1.14.14.22,1.33,2.04-.32.12-2.39.91.07-2.68v-.57ZM28.32,9.3c.64.12,1.13.68,1.13,1.35s-.49,1.24-1.13,1.35v-2.71ZM27.82,7.73v2.02h-1.08v-.03s-1.2-2.81-1.2-2.81c.6-.37,1.11-.85,1.51-1.41.08-.1.15-.21.21-.32.32.7.5,1.45.55,2.21,0,.11,0,.22,0,.33ZM27.54,2.48c0,.67-.14,1.32-.41,1.92-.1.22-.22.44-.35.65-.41.63-.96,1.16-1.64,1.54-.13.07-.27.14-.41.2-4.28,1.88-8.77.24-9.84-.2-.15-.06-.23-.1-.24-.1-.07-.03-.14-.03-.21,0-.02.01-.05.03-.07.05-.03.03-.06.07-.07.11l-.84,3.12h-1.3v-4.82h0c0-2.45,1.99-4.44,4.44-4.44h10.29c.35,0,.63.28.63.63v1.36ZM11.68,9.3v2.71c-.64-.12-1.13-.68-1.13-1.35s.49-1.24,1.13-1.35ZM12.18,10.24h1.49c.11,0,.21-.07.24-.18l.81-3.02s.01,0,.02,0c1.18.49,5.79,2.13,10.2.19.06-.03.12-.06.18-.09l1.24,2.95c.03.06.08.11.14.14.03,0,.05.01.08.01h1.24v2.15c0,3.64-2.5,6.71-5.88,7.58-.49.12-.99.2-1.51.23-.14,0-.29.01-.43.01-.1,0-.2,0-.3,0-.56-.02-1.11-.1-1.64-.24-3.38-.87-5.88-3.94-5.88-7.58v-2.15ZM23.01,23.59l.07,2.68-2.39-.91-.32-.12,1.33-2.04.14-.22.1-.14.21-.32s.04-.09.04-.13v-.61l.79.49.02.75v.57ZM28.15,27.18c.87,0,1.58.71,1.58,1.58v8.57H10.27v-8.57c0-.87.71-1.58,1.58-1.58h16.3ZM18.3,20.53c.45.09.92.15,1.39.17.1,0,.2,0,.3,0,.58,0,1.15-.06,1.7-.17v1.62h0v.16l-.44.67-.08.12-1.18,1.81-.3-.46-.88-1.34-.08-.12-.44-.67v-1.79ZM22.79,26.69h-5.58l2.79-1.06,2.79,1.06ZM9.38,38.04l-.03-.21h21.3l-.03.21c-.09.72-.63,1.29-1.32,1.44-.11.02-.23.04-.35.04H11.05c-.12,0-.23-.01-.35-.04-.69-.14-1.23-.71-1.32-1.44ZM31.51,39.51h-1.19c.42-.34.71-.84.78-1.41l.06-.49c0-.07-.01-.14-.06-.19-.05-.05-.11-.08-.18-.08h-.71v-8.57c0-1.14-.93-2.07-2.07-2.07h-4.57s0-.04,0-.06l-.07-2.83v-.46c4.57.69,8,4.66,8,9.32v6.85Z"/>
              <path class="cls-2" d="M20,15.21c.14,0,.25-.11.25-.25v-1.31c0-.14-.11-.25-.25-.25s-.25.11-.25.25v1.31c0,.14.11.25.25.25Z"/>
              <path class="cls-2" d="M17.82,10.66h-2.06c-.14,0-.25.11-.25.25s.11.25.25.25h2.06c.14,0,.25-.11.25-.25s-.11-.25-.25-.25Z"/>
              <path class="cls-2" d="M22.18,11.15h2.06c.14,0,.25-.11.25-.25s-.11-.25-.25-.25h-2.06c-.14,0-.25.11-.25.25s.11.25.25.25Z"/>
              <path class="cls-2" d="M21.25,16.77c.09-.1.08-.26-.02-.35-.1-.09-.26-.08-.35.02-.22.25-.54.4-.88.4s-.66-.15-.88-.4c-.09-.1-.24-.11-.35-.02-.1.09-.11.24-.02.35.32.36.77.57,1.25.57.48,0,.93-.21,1.25-.57h0Z"/>
              <path class="cls-2" d="M23.24,31.15h-.57l.4-.4c.1-.1.1-.25,0-.35l-1.22-1.22s-.11-.07-.17-.07-.13.03-.17.07l-.4.4v-.57c0-.14-.11-.25-.25-.25h-1.72c-.14,0-.25.11-.25.25v.57l-.4-.4s-.11-.07-.17-.07-.13.03-.17.07l-1.22,1.22c-.1.1-.1.25,0,.35l.4.4h-.57c-.14,0-.25.11-.25.25v1.72c0,.14.11.25.25.25h.57l-.4.4c-.1.1-.1.25,0,.35l1.22,1.22c.1.1.25.1.35,0l.4-.4v.57c0,.14.11.25.25.25h1.72c.14,0,.25-.11.25-.25v-.57l.4.4c.1.1.25.1.35,0l1.22-1.22c.1-.1.1-.25,0-.35l-.4-.4h.57c.14,0,.25-.11.25-.25v-1.72c0-.14-.11-.25-.25-.25ZM22.99,32.87h-.63c-.1,0-.2.06-.23.16-.02.06-.05.12-.08.18-.04.09-.02.2.05.28l.44.44-.87.87-.44-.44c-.07-.07-.18-.09-.28-.05-.06.03-.12.05-.18.08-.1.04-.16.13-.16.23v.63h-1.23v-.63c0-.1-.06-.2-.16-.23-.06-.02-.12-.05-.18-.08-.09-.04-.2-.02-.28.05l-.44.44-.87-.87.44-.44c.07-.07.09-.18.05-.28-.03-.06-.05-.12-.07-.18-.04-.1-.13-.16-.23-.16h-.63v-1.23h.63c.1,0,.2-.06.23-.16.02-.06.05-.12.08-.18.04-.09.02-.2-.05-.28l-.44-.44.87-.87.44.45c.07.07.18.09.28.05.06-.03.12-.05.18-.08.1-.04.16-.13.16-.23v-.63h1.23v.63c0,.1.07.2.16.23.06.02.12.05.18.08.09.04.2.02.28-.05l.44-.45.87.87-.44.44c-.07.07-.09.18-.05.28.03.06.05.12.08.18.04.1.13.16.23.16h.63v1.23Z"/>
              <path class="cls-2" d="M20,30.92c-.74,0-1.34.6-1.34,1.34s.6,1.34,1.34,1.34,1.34-.6,1.34-1.34-.6-1.34-1.34-1.34ZM20,33.11c-.47,0-.85-.38-.85-.85s.38-.85.85-.85.85.38.85.85-.38.85-.85.85Z"/>
              <path class="cls-2" d="M10.75,18.42l-4.52-4.52c-.09-.09-.26-.09-.35,0l-4.52,4.52c-.07.07-.09.18-.05.27.04.09.13.15.23.15h2.23v5.31c0,.14.11.25.25.25h4.09c.14,0,.25-.11.25-.25v-5.31h2.23c.1,0,.19-.06.23-.15.04-.09.02-.2-.05-.27ZM8.1,18.35c-.14,0-.25.11-.25.25v5.31h-3.59v-5.31c0-.07-.03-.14-.08-.18-.04-.04-.1-.06-.16-.06h-1.88l3.93-3.93,1.06,1.06,2.87,2.87h-1.88Z"/>
              <path class="cls-2" d="M38.64,18.42l-4.52-4.52c-.09-.09-.26-.09-.35,0l-4.52,4.52c-.07.07-.09.18-.05.27s.13.15.23.15h2.23v5.31c0,.14.11.25.25.25h4.09c.14,0,.25-.11.25-.25v-5.31h2.23c.1,0,.19-.06.23-.15.04-.09.02-.2-.05-.27ZM35.83,18.41c-.05.04-.08.11-.08.18v5.31h-3.59v-5.31c0-.14-.11-.25-.25-.25h-1.88l2.87-2.87,1.06-1.06,3.93,3.93h-1.88c-.06,0-.12.02-.16.06Z"/>
            </g>
          </g>
        </g>
      </g>
    </g>
  </g>
</svg>