<?xml version="1.0" encoding="UTF-8"?>
<svg id="Layer_2" xmlns="http://www.w3.org/2000/svg" xmlns:xlink="http://www.w3.org/1999/xlink" viewBox="0 0 40 40">
  <defs>
    <style>
      .cls-1 {
        fill: #037ca9;
      }

      .cls-2 {
        fill: #fff;
      }

      .cls-3 {
        fill: none;
      }

      .cls-4 {
        clip-path: url(#clippath);
      }
    </style>
    <clipPath id="clippath">
      <rect class="cls-3" width="40" height="40"/>
    </clipPath>
  </defs>
  <g id="Layer_1-2" data-name="Layer_1">
    <g class="cls-4">
      <g>
        <rect class="cls-2" x="8.12" y="6.14" width="23" height="28"/>
        <g>
          <circle class="cls-1" cx="12.5" cy="25.83" r="1.67"/>
          <circle class="cls-1" cx="20" cy="20" r="1.67"/>
          <path class="cls-1" d="M20,0C8.95,0,0,8.95,0,20s8.95,20,20,20,20-8.95,20-20C39.99,8.96,31.04.01,20,0ZM13.33,29.05v2.62c0,.46-.37.83-.83.83s-.83-.37-.83-.83v-2.62c-1.78-.45-2.85-2.26-2.4-4.03.3-1.18,1.22-2.1,2.4-2.4v-14.29c0-.46.37-.83.83-.83s.83.37.83.83v14.29c1.78.45,2.85,2.26,2.4,4.03-.3,1.18-1.22,2.1-2.4,2.4ZM20.83,23.22v8.45c0,.46-.37.83-.83.83s-.83-.37-.83-.83v-8.45c-1.78-.45-2.85-2.26-2.4-4.03.3-1.18,1.22-2.1,2.4-2.4v-8.45c0-.46.37-.83.83-.83s.83.37.83.83v8.45c1.78.45,2.85,2.26,2.4,4.03-.3,1.18-1.22,2.1-2.4,2.4h0ZM28.33,17.38v14.28c0,.46-.37.83-.83.83s-.83-.37-.83-.83v-14.29c-1.78-.45-2.85-2.26-2.4-4.03.3-1.18,1.22-2.1,2.4-2.4v-2.62c0-.46.37-.83.83-.83s.83.37.83.83v2.62c1.78.45,2.85,2.26,2.4,4.03-.3,1.18-1.22,2.1-2.4,2.4h0Z"/>
          <circle class="cls-1" cx="27.5" cy="14.17" r="1.67"/>
        </g>
      </g>
    </g>
  </g>
</svg>