<?xml version="1.0" encoding="UTF-8"?>
<svg id="Layer_2" xmlns="http://www.w3.org/2000/svg" xmlns:xlink="http://www.w3.org/1999/xlink" viewBox="0 0 40 40">
  <defs>
    <style>
      .cls-1 {
        fill: #d7e9f7;
      }

      .cls-2 {
        fill: url(#linear-gradient-2);
      }

      .cls-3 {
        fill: #b4cde1;
      }

      .cls-4 {
        fill: none;
      }

      .cls-5 {
        fill: #ffb369;
      }

      .cls-6 {
        fill: url(#linear-gradient-3);
      }

      .cls-7 {
        fill: #fe9661;
      }

      .cls-8 {
        fill: #4795ea;
      }

      .cls-9 {
        fill: url(#linear-gradient);
      }

      .cls-10 {
        clip-path: url(#clippath);
      }

      .cls-11 {
        fill: #eb7f58;
      }
    </style>
    <clipPath id="clippath">
      <rect class="cls-4" width="40" height="40"/>
    </clipPath>
    <linearGradient id="linear-gradient" x1="-85.75" y1="-23.62" x2="-80.75" y2="-23.62" gradientTransform="translate(686 -184) scale(8 -8)" gradientUnits="userSpaceOnUse">
      <stop offset="0" stop-color="#54a5ff"/>
      <stop offset="1" stop-color="#8ad3fe"/>
    </linearGradient>
    <linearGradient id="linear-gradient-2" x1="-85.75" y1="-26.12" x2="-80.75" y2="-26.12" gradientTransform="translate(686 -184) scale(8 -8)" gradientUnits="userSpaceOnUse">
      <stop offset="0" stop-color="#d3e6f5"/>
      <stop offset="1" stop-color="#f0f7fc"/>
    </linearGradient>
    <linearGradient id="linear-gradient-3" x1="-83.61" y1="-26.12" x2="-82.89" y2="-26.12" xlink:href="#linear-gradient-2"/>
  </defs>
  <g id="Layer_1-2" data-name="Layer_1">
    <g class="cls-10">
      <g id="Idea">
        <path class="cls-9" d="M40,1.43v8.57H0V1.43C0,.64.64,0,1.43,0h37.14c.79,0,1.43.64,1.43,1.43Z"/>
        <path class="cls-2" d="M40,10v28.57c0,.79-.64,1.43-1.43,1.43H1.43c-.79,0-1.43-.64-1.43-1.43V10h40Z"/>
        <rect class="cls-8" x="2.86" y="2.86" width="21.43" height="4.29" rx="1.43" ry="1.43"/>
        <path class="cls-8" d="M32.14,6.43c-.79,0-1.43-.64-1.43-1.43s.64-1.43,1.43-1.43,1.43.64,1.43,1.43-.64,1.43-1.43,1.43Z"/>
        <path class="cls-11" d="M27.86,6.43c-.79,0-1.43-.64-1.43-1.43s.64-1.43,1.43-1.43,1.43.64,1.43,1.43-.64,1.43-1.43,1.43Z"/>
        <path class="cls-5" d="M27.86,20.71c0,2.71-1.4,5.23-3.69,6.66l-.14,1.91h-8.06l-.14-1.91c-3.68-2.3-4.8-7.15-2.5-10.83,2.3-3.68,7.15-4.8,10.83-2.5,2.3,1.44,3.69,3.95,3.69,6.66h0Z"/>
        <path class="cls-1" d="M36.43,6.43c-.79,0-1.43-.64-1.43-1.43s.64-1.43,1.43-1.43,1.43.64,1.43,1.43-.64,1.43-1.43,1.43Z"/>
        <path class="cls-6" d="M22.57,20.14c-.32-.24-.76-.17-1,.14h0l-1.57,2.09-1.57-2.09c-.24-.32-.68-.38-1-.14-.32.24-.38.68-.14,1l2,2.66v5.48c0,.39.32.71.72.71.39,0,.71-.32.71-.71v-5.48l2-2.66c.24-.32.17-.76-.14-1h0Z"/>
        <g>
          <path class="cls-3" d="M31.43,24.88c-.19,0-.37-.07-.51-.21-.28-.28-.28-.73,0-1.01,0,0,0,0,0,0,.84-.84.84-2.19,0-3.03-.28-.28-.28-.73,0-1.01.28-.28.73-.28,1.01,0,1.4,1.39,1.4,3.65,0,5.05,0,0,0,0,0,0-.13.13-.32.21-.51.21h0Z"/>
          <path class="cls-3" d="M35,24.88c-.19,0-.37-.07-.51-.21-.28-.28-.28-.73,0-1.01,0,0,0,0,0,0,.84-.84.84-2.19,0-3.03-.28-.28-.28-.73,0-1.01.28-.28.73-.28,1.01,0,1.4,1.39,1.4,3.65,0,5.05,0,0,0,0,0,0-.13.13-.32.21-.51.21h0Z"/>
          <path class="cls-3" d="M8.69,24.88c-.19,0-.37-.07-.51-.21-1.4-1.39-1.4-3.65,0-5.05,0,0,0,0,0,0,.28-.28.73-.28,1.01,0s.28.73,0,1.01h0c-.84.84-.84,2.19,0,3.03.28.28.28.73,0,1.01,0,0,0,0,0,0-.13.13-.32.21-.51.21Z"/>
          <path class="cls-3" d="M5.12,24.88c-.19,0-.37-.07-.51-.21-1.4-1.39-1.4-3.65,0-5.05,0,0,0,0,0,0,.28-.28.73-.28,1.01,0s.28.73,0,1.01c-.84.84-.84,2.19,0,3.03.28.28.28.73,0,1.01,0,0,0,0,0,0-.13.13-.32.21-.51.21Z"/>
        </g>
        <g>
          <path class="cls-7" d="M23.82,32.14l-.06.91c-.11,1.5-1.35,2.66-2.86,2.66h-1.81c-1.5,0-2.75-1.16-2.86-2.66l-.06-.91h7.64Z"/>
          <path class="cls-7" d="M24.03,29.29l-.21,2.86h-7.64l-.21-2.86h8.06Z"/>
        </g>
      </g>
    </g>
  </g>
</svg>