<?xml version="1.0" encoding="UTF-8"?>
<svg id="Layer_2" xmlns="http://www.w3.org/2000/svg" xmlns:xlink="http://www.w3.org/1999/xlink" viewBox="0 0 40 40">
  <defs>
    <style>
      .cls-1 {
        fill: #1f4571;
      }

      .cls-1, .cls-2 {
        fill-rule: evenodd;
      }

      .cls-3 {
        fill: none;
      }

      .cls-2 {
        fill: #a4d4ff;
      }

      .cls-4 {
        clip-path: url(#clippath);
      }
    </style>
    <clipPath id="clippath">
      <rect class="cls-3" width="40" height="40"/>
    </clipPath>
  </defs>
  <g id="Layer_1-2" data-name="Layer_1">
    <g class="cls-4">
      <g>
        <path class="cls-2" d="M32.93,22.29c-2.73,0-4.09,3.3-2.17,5.23.35.35.35.93,0,1.29l-1.96,1.96c-.35.35-.93.35-1.29,0-1.93-1.93-5.23-.56-5.23,2.17,0,.5-.41.91-.91.91h-2.77c-.5,0-.91-.41-.91-.91,0-2.73-3.3-4.1-5.23-2.17-.35.35-.93.35-1.29,0l-1.96-1.96c-.35-.35-.35-.93,0-1.29,1.93-1.93.56-5.23-2.17-5.23-.5,0-.91-.41-.91-.91v-2.77c0-.5.41-.91.91-.91,2.73,0,4.09-3.3,2.17-5.23-.35-.35-.35-.93,0-1.29l1.96-1.96c.35-.35.93-.35,1.29,0,1.93,1.93,5.23.56,5.23-2.17,0-.5.41-.91.91-.91h2.77c.5,0,.91.41.91.91,0,2.73,3.3,4.09,5.23,2.17.35-.35.93-.35,1.29,0l1.96,1.96c.35.35.35.93,0,1.29-1.93,1.93-.56,5.23,2.17,5.23.5,0,.91.41.91.91v2.77c0,.5-.41.91-.91.91ZM20,26.65c3.66,0,6.65-2.99,6.65-6.65s-2.99-6.65-6.65-6.65-6.65,2.99-6.65,6.65,2.99,6.65,6.65,6.65Z"/>
        <path class="cls-1" d="M3.12,27.26c1.14.26,1.99,1.28,1.99,2.49,0,1.41-1.15,2.56-2.56,2.56s-2.56-1.15-2.56-2.56c0-1.22.85-2.23,1.99-2.49v-2.03c0-.31.25-.57.57-.57h5.69c.31,0,.57.25.57.57s-.25.57-.57.57H3.12v1.46ZM2.56,28.33c-.79,0-1.42.64-1.42,1.42s.64,1.42,1.42,1.42,1.42-.64,1.42-1.42-.64-1.42-1.42-1.42ZM11.76,37.16c-.26,1.14-1.28,1.99-2.49,1.99-1.41,0-2.56-1.15-2.56-2.56s1.15-2.56,2.56-2.56c1.22,0,2.23.85,2.49,1.99h2.63v-3.96c0-.31.25-.57.57-.57s.57.25.57.57v4.52c0,.31-.25.57-.57.57h-3.2ZM10.69,36.59c0-.79-.64-1.42-1.42-1.42s-1.42.64-1.42,1.42.64,1.42,1.42,1.42,1.42-.64,1.42-1.42ZM28.24,37.16h-3.2c-.31,0-.57-.25-.57-.57v-4.52c0-.31.25-.57.57-.57s.57.25.57.57v3.96h2.63c.26-1.14,1.28-1.99,2.49-1.99,1.41,0,2.56,1.15,2.56,2.56s-1.15,2.56-2.56,2.56c-1.22,0-2.23-.85-2.49-1.99ZM29.31,36.59c0,.79.64,1.42,1.42,1.42s1.42-.64,1.42-1.42-.64-1.42-1.42-1.42-1.42.64-1.42,1.42ZM36.88,27.26v-1.46h-5.13c-.31,0-.57-.25-.57-.57s.25-.57.57-.57h5.69c.31,0,.57.25.57.57v2.03c1.14.26,1.99,1.28,1.99,2.49,0,1.41-1.15,2.56-2.56,2.56s-2.56-1.15-2.56-2.56c0-1.22.85-2.23,1.99-2.49h0ZM37.44,28.33c-.79,0-1.42.64-1.42,1.42s.64,1.42,1.42,1.42,1.42-.64,1.42-1.42-.64-1.42-1.42-1.42ZM38.01,12.83v2.03c0,.31-.25.57-.57.57h-5.69c-.31,0-.57-.25-.57-.57s.25-.57.57-.57h5.13v-1.46c-1.14-.26-1.99-1.28-1.99-2.49,0-1.41,1.15-2.56,2.56-2.56s2.56,1.15,2.56,2.56c0,1.22-.85,2.23-1.99,2.49h0ZM37.44,11.76c.79,0,1.42-.64,1.42-1.42s-.64-1.42-1.42-1.42-1.42.64-1.42,1.42.64,1.42,1.42,1.42ZM28.24,3.98h-2.63v3.96c0,.31-.25.57-.57.57s-.57-.25-.57-.57V3.41c0-.31.25-.57.57-.57h3.2c.26-1.14,1.28-1.99,2.49-1.99,1.41,0,2.56,1.15,2.56,2.56s-1.15,2.56-2.56,2.56c-1.22,0-2.23-.85-2.49-1.99ZM29.31,3.41c0,.79.64,1.42,1.42,1.42s1.42-.64,1.42-1.42-.64-1.42-1.42-1.42-1.42.64-1.42,1.42ZM11.76,3.98c-.26,1.14-1.28,1.99-2.49,1.99-1.41,0-2.56-1.15-2.56-2.56s1.15-2.56,2.56-2.56c1.22,0,2.23.85,2.49,1.99h3.2c.31,0,.57.25.57.57v4.52c0,.31-.25.57-.57.57s-.57-.25-.57-.57v-3.96h-2.63ZM10.69,3.41c0-.79-.64-1.42-1.42-1.42s-1.42.64-1.42,1.42.64,1.42,1.42,1.42,1.42-.64,1.42-1.42ZM1.99,12.83C.85,12.57,0,11.55,0,10.34,0,8.93,1.15,7.78,2.56,7.78s2.56,1.15,2.56,2.56c0,1.22-.85,2.23-1.99,2.49v1.46h5.13c.31,0,.57.25.57.57s-.25.57-.57.57H2.56c-.31,0-.57-.25-.57-.57v-2.03ZM2.56,11.76c.79,0,1.42-.64,1.42-1.42s-.64-1.42-1.42-1.42-1.42.64-1.42,1.42.64,1.42,1.42,1.42ZM32.93,22.86c-2.22,0-3.34,2.69-1.77,4.26.58.58.58,1.51,0,2.09l-1.96,1.96c-.58.58-1.51.58-2.09,0-1.57-1.57-4.26-.46-4.26,1.77,0,.82-.66,1.48-1.48,1.48h-2.77c-.81,0-1.48-.66-1.48-1.48,0-2.22-2.69-3.34-4.26-1.77-.58.58-1.51.58-2.09,0l-1.96-1.96c-.58-.58-.58-1.51,0-2.09,1.57-1.57.46-4.26-1.77-4.26-.81,0-1.48-.66-1.48-1.48v-2.77c0-.81.66-1.48,1.48-1.48,2.22,0,3.34-2.69,1.77-4.26-.58-.58-.58-1.51,0-2.09l1.96-1.96c.58-.58,1.51-.58,2.09,0,1.57,1.57,4.26.46,4.26-1.77,0-.81.66-1.48,1.48-1.48h2.77c.81,0,1.48.66,1.48,1.48,0,2.22,2.69,3.34,4.26,1.77.58-.58,1.51-.58,2.09,0l1.96,1.96c.58.58.58,1.51,0,2.09-1.57,1.57-.46,4.26,1.77,4.26.82,0,1.48.66,1.48,1.48v2.77c0,.81-.66,1.48-1.48,1.48h0ZM32.93,21.73c.19,0,.34-.15.34-.34v-2.77c0-.19-.15-.34-.34-.34-3.23,0-4.85-3.91-2.57-6.2.13-.13.13-.35,0-.48l-1.96-1.96c-.13-.13-.35-.13-.49,0-2.28,2.28-6.2.66-6.2-2.57,0-.19-.15-.34-.34-.34h-2.77c-.19,0-.34.15-.34.34,0,3.23-3.91,4.85-6.2,2.57-.13-.13-.35-.13-.48,0l-1.96,1.96c-.13.13-.13.35,0,.48,2.28,2.28.66,6.2-2.57,6.2-.19,0-.34.15-.34.34v2.77c0,.19.15.34.34.34,3.23,0,4.85,3.91,2.57,6.2-.13.13-.13.35,0,.49l1.96,1.96c.13.13.35.13.48,0,2.29-2.29,6.2-.67,6.2,2.57,0,.19.15.34.34.34h2.77c.19,0,.34-.15.34-.34,0-3.23,3.91-4.85,6.2-2.57.13.13.35.13.49,0l1.96-1.96c.13-.13.13-.35,0-.49-2.28-2.28-.66-6.2,2.57-6.2ZM20,27.22c-3.98,0-7.22-3.24-7.22-7.22s3.24-7.22,7.22-7.22,7.22,3.24,7.22,7.22-3.24,7.22-7.22,7.22ZM20,26.09c3.35,0,6.08-2.73,6.08-6.08s-2.73-6.08-6.08-6.08-6.08,2.73-6.08,6.08,2.73,6.08,6.08,6.08ZM16.68,19.99c-.23-.21-.26-.57-.05-.8.21-.23.57-.26.8-.05l1.93,1.71,3.21-2.86c.23-.21.59-.19.8.05s.19.59-.05.8l-3.58,3.19c-.21.19-.54.19-.75,0l-2.31-2.04Z"/>
      </g>
    </g>
  </g>
</svg>