<?xml version="1.0" encoding="UTF-8"?>
<svg id="Layer_2" xmlns="http://www.w3.org/2000/svg" xmlns:xlink="http://www.w3.org/1999/xlink" viewBox="0 0 50 31">
  <defs>
    <style>
      .cls-1 {
        fill: #fff;
        fill-rule: evenodd;
      }

      .cls-2 {
        fill: none;
      }

      .cls-3 {
        clip-path: url(#clippath);
      }
    </style>
    <clipPath id="clippath">
      <rect class="cls-2" width="50" height="31"/>
    </clipPath>
  </defs>
  <g id="Layer_1-2" data-name="Layer_1">
    <g class="cls-3">
      <path class="cls-1" d="M31.36,24.56c0,.23-.18.41-.41.41s-.41-.18-.41-.41v-1.54c-.27-.15-.45-.43-.45-.76,0-.48.39-.86.86-.86s.86.39.86.86c0,.33-.18.61-.45.76v1.54ZM30.94,12.42c-.52,0-1.03.04-1.53.13V3.94h0c0-1.13-1.17-2.11-3.04-2.78-1.75-.63-4.16-1.01-6.82-1.01s-5.07.39-6.82,1.01c-1.87.67-3.03,1.64-3.04,2.76h0v17.02c0,1.13,1.16,2.1,3.04,2.78,1.75.63,4.16,1.01,6.82,1.01.47,0,.94-.01,1.42-.04.36-.02.7-.04,1.04-.08.46,1.45,1.26,2.74,2.3,3.78,1.7,1.7,4.04,2.74,6.62,2.74s4.93-1.05,6.62-2.74,2.74-4.04,2.74-6.62-1.05-4.93-2.74-6.62-4.04-2.74-6.62-2.74h0ZM26.09,1.94c1.54.55,2.49,1.26,2.49,2s-.95,1.45-2.49,2c-1.67.6-3.98.96-6.54.96s-4.87-.37-6.54-.96c-1.54-.55-2.49-1.26-2.49-2s.95-1.45,2.49-2c1.67-.6,3.98-.96,6.54-.96s4.87.37,6.54.96ZM10.52,9.61v-4.1c.52.47,1.28.88,2.22,1.21,1.75.63,4.16,1.01,6.82,1.01s5.07-.39,6.82-1.01c.93-.33,1.69-.74,2.22-1.21v4.1c0,.74-.95,1.45-2.49,2-1.67.6-3.98.96-6.54.96s-4.87-.37-6.54-.96c-1.54-.55-2.49-1.26-2.49-2h0ZM22.33,18.09c-.41.05-.82.08-1.25.11-.49.03-1,.04-1.54.04-2.56,0-4.87-.37-6.54-.96-1.54-.55-2.49-1.26-2.49-2v-4.1c.52.47,1.28.88,2.22,1.21,1.75.63,4.16,1.01,6.82,1.01s5.07-.39,6.82-1.01c.93-.33,1.69-.74,2.22-1.21v1.54c-1.64.43-3.11,1.28-4.27,2.44-.84.84-1.51,1.83-1.99,2.93h0ZM21.8,23.82c-.29.03-.57.05-.87.06-.44.02-.9.03-1.38.03-2.56,0-4.87-.37-6.54-.96-1.54-.55-2.49-1.26-2.49-2v-4.1c.52.47,1.28.88,2.22,1.21,1.75.63,4.16,1.01,6.82,1.01.53,0,1.06-.02,1.58-.05.3-.02.59-.04.88-.07-.28.89-.44,1.84-.44,2.83,0,.7.08,1.38.22,2.03h0ZM36.98,15.75c-1.55-1.55-3.68-2.5-6.04-2.5s-4.49.96-6.04,2.5c-1.55,1.55-2.5,3.68-2.5,6.04s.96,4.49,2.5,6.04c1.55,1.55,3.68,2.5,6.04,2.5s4.49-.96,6.04-2.5c1.55-1.55,2.5-3.68,2.5-6.04s-.96-4.49-2.5-6.04ZM28.29,19h-.95c-.31,0-.59.13-.79.33-.2.2-.33.48-.33.79v5.86c0,.31.13.59.33.79.2.2.48.33.79.33h7.21c.31,0,.59-.13.79-.33.2-.2.33-.48.33-.79v-5.86c0-.31-.13-.59-.33-.79-.2-.2-.48-.33-.79-.33h-5.44v-.68c0-.51.21-.98.55-1.32.34-.34.8-.55,1.32-.55.38,0,.74.12,1.04.32.31.21.55.5.69.85.09.21.33.31.54.22.21-.09.31-.33.22-.54-.2-.5-.55-.92-.99-1.22-.43-.29-.94-.46-1.5-.46-.74,0-1.41.3-1.9.79-.49.49-.79,1.16-.79,1.9v.68h0ZM34.55,19.83h-7.21c-.08,0-.15.03-.21.09-.05.05-.09.13-.09.21v5.86c0,.08.03.15.09.21.05.05.13.09.21.09h7.21c.08,0,.15-.03.21-.09.05-.05.09-.13.09-.21v-5.86c0-.08-.03-.15-.09-.21-.05-.05-.13-.09-.21-.09ZM13.28,20.21c.22.07.33.3.26.52s-.3.33-.52.26c-.24-.08-.48-.17-.71-.26-.21-.09-.43-.18-.64-.29-.2-.1-.29-.35-.18-.55s.35-.29.55-.18c.17.08.36.17.58.26.2.08.42.16.65.24h0ZM13.28,14.54c.22.07.33.3.26.52-.07.22-.3.33-.52.26-.24-.08-.48-.17-.71-.26-.21-.09-.43-.18-.64-.29-.2-.1-.29-.35-.18-.55s.35-.29.55-.18c.17.08.36.17.58.26.2.08.42.16.65.24h0ZM13.28,8.87c.22.07.33.3.26.52s-.3.33-.52.26c-.24-.08-.48-.17-.71-.26-.23-.09-.44-.19-.64-.29-.2-.1-.29-.35-.19-.55.1-.2.35-.29.55-.19.18.09.37.18.58.26.2.08.42.16.65.24h0Z"/>
    </g>
  </g>
</svg>