<?xml version="1.0" encoding="UTF-8"?>
<svg id="Layer_2" xmlns="http://www.w3.org/2000/svg" xmlns:xlink="http://www.w3.org/1999/xlink" viewBox="0 0 50 31">
  <defs>
    <style>
      .cls-1 {
        fill: #fff;
      }

      .cls-2 {
        fill: none;
      }

      .cls-3 {
        clip-path: url(#clippath);
      }
    </style>
    <clipPath id="clippath">
      <rect class="cls-2" width="50" height="31"/>
    </clipPath>
  </defs>
  <g id="Layer_1-2" data-name="Layer_1">
    <g class="cls-3">
      <path class="cls-1" d="M14.5,30.8c-1.45,0-2.63-1.18-2.63-2.63v-1.02h-1.35c-.82,0-1.49-.67-1.49-1.49s.67-1.49,1.49-1.49h1.35v-3.79h-1.35c-.82,0-1.49-.67-1.49-1.49s.67-1.49,1.49-1.49h1.35v-3.79h-1.35c-.82,0-1.49-.67-1.49-1.49s.67-1.49,1.49-1.49h1.35v-3.79h-1.35c-.82,0-1.49-.67-1.49-1.49s.67-1.49,1.49-1.49h1.35v-1.02c0-1.45,1.18-2.63,2.63-2.63h16.9c1.45,0,2.63,1.18,2.63,2.63v19.53c0,.72-.26,1.35-.77,1.86l-5.82,5.81c-.51.51-1.13.77-1.86.77h-11.08ZM12.48,28.17c0,1.11.9,2.02,2.02,2.02h11.08c.18,0,.35-.02.51-.06l.15-.04v-4.46c0-1.45,1.18-2.63,2.63-2.63h4.46l.04-.15c.04-.15.06-.32.06-.51V2.83c0-1.11-.91-2.02-2.02-2.02H14.5c-1.11,0-2.02.91-2.02,2.02v1.02h1.35c.82,0,1.49.67,1.49,1.49s-.67,1.49-1.49,1.49h-1.35v3.79h1.35c.82,0,1.49.67,1.49,1.49s-.67,1.49-1.49,1.49h-1.35v3.79h1.35c.82,0,1.49.67,1.49,1.49s-.67,1.49-1.49,1.49h-1.35v3.79h1.35c.82,0,1.49.67,1.49,1.49s-.67,1.49-1.49,1.49h-1.35v1.02ZM28.86,23.62c-1.11,0-2.02.9-2.02,2.02v4.12l6.14-6.14h-4.12ZM10.52,24.78c-.49,0-.88.4-.88.88s.39.88.88.88h3.32c.49,0,.88-.39.88-.88s-.4-.88-.88-.88h-3.31ZM10.52,18.01c-.49,0-.88.4-.88.88s.39.88.88.88h3.32c.49,0,.88-.39.88-.88s-.4-.88-.88-.88h-3.31ZM10.52,11.23c-.49,0-.88.39-.88.88s.4.88.88.88h3.31c.49,0,.88-.39.88-.88s-.4-.88-.88-.88h-3.31ZM10.52,4.46c-.49,0-.88.4-.88.88s.4.88.88.88h3.31c.49,0,.88-.4.88-.88s-.4-.88-.88-.88h-3.31ZM18.19,25.14c-.17,0-.31-.14-.31-.31s.13-.31.31-.31h5.87c.17,0,.3.14.3.31s-.14.31-.31.31h-5.87ZM38.83,21.81c-.22,0-.42-.11-.55-.29l-1.47-2.16c-.08-.11-.12-.24-.12-.38V2.68c0-.37.3-.67.67-.67h2.95c.37,0,.67.3.67.67v16.31c0,.14-.04.26-.11.38l-1.48,2.16c-.12.19-.33.29-.55.29ZM38.83,21.24l1.41-2.06h-2.82l1.41,2.06ZM37.3,18.57h3.07V5.97h-3.07v12.6ZM37.3,5.36h3.07v-2.74h-3.07v2.74ZM18.19,21.41c-.17,0-.31-.14-.31-.31s.14-.31.31-.31h12.36c.17,0,.31.14.31.31s-.13.31-.31.31h-12.36ZM18.19,17.67c-.17,0-.31-.13-.31-.31s.14-.31.31-.31h5.87c.17,0,.31.14.31.31s-.13.31-.31.31h-5.87ZM18.19,13.94c-.17,0-.31-.14-.31-.31s.14-.31.31-.31h12.36c.17,0,.31.14.31.31s-.13.31-.31.31h-12.36ZM18.19,10.21c-.17,0-.31-.13-.31-.31s.14-.31.31-.31h5.87c.17,0,.31.14.31.31s-.13.31-.31.31h-5.87ZM18.19,6.48c-.17,0-.31-.14-.31-.31s.14-.31.31-.31h12.36c.17,0,.31.14.31.31s-.14.31-.31.31h-12.36Z"/>
    </g>
  </g>
</svg>