<?xml version="1.0" encoding="UTF-8"?>
<svg id="Layer_2" xmlns="http://www.w3.org/2000/svg" xmlns:xlink="http://www.w3.org/1999/xlink" viewBox="0 0 50 31">
  <defs>
    <style>
      .cls-1 {
        fill: #fff;
      }

      .cls-2 {
        fill: none;
      }

      .cls-3 {
        clip-path: url(#clippath);
      }
    </style>
    <clipPath id="clippath">
      <rect class="cls-2" width="50" height="31"/>
    </clipPath>
  </defs>
  <g id="Layer_1-2" data-name="Layer_1">
    <g class="cls-3">
      <g>
        <path class="cls-1" d="M15.99,21.04c.18-.15.46-.38.52-.59.06-.25-.04-.53-.15-.83-.02-.04-.05-.14-.08-.21h-.37c.04.12.09.23.13.32.13.38.13.42.1.54-.05.1-.17.22-.41.38-.24.21-.5.43-.5.74s.26.53.54.76c0,0,.36.24.36.44,0,.07-.03.16-.07.29-.02.06-.04.13-.06.21-.11.27-.24.64-.09.91.07.12.18.2.32.26v-.47c0-.09.04-.2.1-.37l.03-.1c.15-.34.2-.6.15-.8-.05-.2-.22-.39-.5-.58-.12-.08-.27-.22-.34-.29l-.1-.11.06-.13c.06-.12.25-.3.36-.37ZM26.11,28.94l-2.4-4.15-.11-.32h.35s.1-.02.17-.03c.32-.07.65-.14.79-.4.17-.3.02-.69-.09-.92-.12-.36-.13-.41-.11-.54.05-.1.18-.22.41-.38.25-.21.5-.43.5-.74s-.26-.53-.53-.76c-.02-.01-.36-.24-.36-.44,0-.07.02-.16.07-.29.02-.06.04-.13.06-.21.1-.27.24-.64.09-.91-.13-.24-.48-.32-.75-.39,0,0-.21-.05-.26-.07-.17-.04-.26-.06-.32-.12s-.08-.15-.12-.32c-.01-.05-.03-.11-.06-.22-.07-.32-.14-.65-.39-.79-.1-.05-.2-.07-.32-.07-.22,0-.44.08-.61.17-.25.08-.35.11-.44.11-.04,0-.07,0-.1-.01-.1-.05-.22-.17-.38-.41-.21-.24-.43-.5-.73-.5s-.53.26-.77.53c0,.01-.24.36-.43.36-.08,0-.17-.02-.3-.07-.06,0-.12-.04-.2-.06-.18-.06-.42-.15-.64-.15-.11,0-.2.02-.28.06-.24.14-.32.48-.39.76,0,0-.05.2-.06.25-.04.17-.07.26-.13.32s-.15.08-.32.12c-.05.02-.1.03-.22.06-.31.07-.64.14-.78.4-.11.18-.09.4-.04.6l.34-.34c.07-.06.17-.09.37-.13l.18-.04c.25-.03.53-.09.73-.29.15-.15.2-.37.25-.59l.05-.19c.03-.07.05-.19.08-.19l-.32-.33h.47c.09,0,.2.04.37.09l.1.04c.16.07.4.16.63.16.06,0,.12,0,.17-.02.2-.04.39-.21.58-.49.07-.11.21-.25.29-.34l.11-.11.13.07c.12.06.3.25.37.36.16.18.38.45.6.51.05.02.1.02.16.02.2,0,.42-.08.66-.17.04,0,.14-.04.21-.07v-.37l.34.34c.07.06.09.17.14.37l.03.17c.04.25.1.54.3.74.14.14.36.2.58.25l.19.05c.07.02.19.04.19.08l.34-.32v.47c0,.09-.04.2-.1.37l-.04.1c-.15.34-.19.6-.14.8.05.19.21.39.53.6.03.04.09.08.14.13.06.05.13.1.17.15l.1.1-.07.13c-.04.09-.17.21-.36.33-.18.15-.45.38-.51.59-.05.21.01.44.07.68l.05.16s.04.13.07.2h.37l-.34.34c-.07.06-.17.09-.38.13l-.17.04c-.25.03-.53.09-.73.29-.15.15-.2.37-.25.58l-.05.2c-.03.08-.05.19-.08.19l.32.33h-.47c-.09,0-.2-.04-.37-.09l-.1-.04c-.16-.07-.41-.16-.64-.16-.06,0-.11,0-.16,0-.2.05-.4.22-.58.5-.04.06-.1.13-.15.19-.02.02-.04.04-.05.04v.3l-.29-.15c-.09-.04-.17-.13-.26-.23l-.12-.13c-.15-.18-.38-.45-.63-.53-.04-.02-.08-.02-.15-.02-.2,0-.41.07-.65.15-.04.02-.13.05-.2.07v.09h-.19c-.31,0-.32-.49-.32-.52-.03-.25-.09-.54-.29-.74s-.51-.26-.77-.3c-.07-.02-.19-.04-.19-.08l-.34.32c.15.06.31.11.47.15.07,0,.12.01.24.04h.34l-2.61,4.51c-.05.1-.04.21,0,.28.05.04.1.07.19.07.02,0,.05,0,.07-.01l2.11-.69.48,2.19c.02.09.12.19.23.2.03,0,.15-.01.21-.13l2.43-4.22,2.42,4.21c.05.08.15.14.22.14h.05c.11-.02.16-.08.18-.19l.47-2.2,2.16.7c.05,0,.14-.01.2-.09.06-.08.07-.19.02-.28ZM17.82,30.13l-.38-1.81c-.02-.09-.07-.15-.11-.17-.03-.02-.06-.03-.1-.03h-.08s-1.82.6-1.82.6l2.01-3.41.16.33c.12.23.21.31.27.34.09.05.2.08.32.08.22,0,.43-.09.61-.17.25-.09.35-.11.44-.11.03,0,.06,0,.1.01.03,0,.14.07.32.34.04.05.08.1.13.15.03.04.07.09.1.12l.11.11-2.08,3.62ZM23.63,28.13l-.18.02c-.1.07-.1.09-.11.15l-.43,1.81-2.07-3.6.11-.11s.06-.07.09-.11c.05-.06.09-.11.11-.13.01,0,.24-.36.44-.36.08,0,.16.03.3.07.06.02.12.04.2.06.18.07.42.16.64.16.1,0,.2-.02.27-.06.15-.09.2-.21.27-.35l.17-.33,2.01,3.37-1.82-.59Z"/>
        <path class="cls-1" d="M15.99,21.04c.18-.15.46-.38.52-.59.06-.25-.04-.53-.15-.83-.02-.04-.05-.14-.08-.21h-.37c.04.12.09.23.13.32.13.38.13.42.1.54-.05.1-.17.22-.41.38-.24.21-.5.43-.5.74s.26.53.54.76c0,0,.36.24.36.44,0,.07-.03.16-.07.29-.02.06-.04.13-.06.21-.11.27-.24.64-.09.91.07.12.18.2.32.26v-.47c0-.09.04-.2.1-.37l.03-.1c.15-.34.2-.6.15-.8-.05-.2-.22-.39-.5-.58-.12-.08-.27-.22-.34-.29l-.1-.11.06-.13c.06-.12.25-.3.36-.37ZM26.11,28.94l-2.4-4.15-.11-.32h.35s.1-.02.17-.03c.32-.07.65-.14.79-.4.17-.3.02-.69-.09-.92-.12-.36-.13-.41-.11-.54.05-.1.18-.22.41-.38.25-.21.5-.43.5-.74s-.26-.53-.53-.76c-.02-.01-.36-.24-.36-.44,0-.07.02-.16.07-.29.02-.06.04-.13.06-.21.1-.27.24-.64.09-.91-.13-.24-.48-.32-.75-.39,0,0-.21-.05-.26-.07-.17-.04-.26-.06-.32-.12s-.08-.15-.12-.32c-.01-.05-.03-.11-.06-.22-.07-.32-.14-.65-.39-.79-.1-.05-.2-.07-.32-.07-.22,0-.44.08-.61.17-.25.08-.35.11-.44.11-.04,0-.07,0-.1-.01-.1-.05-.22-.17-.38-.41-.21-.24-.43-.5-.73-.5s-.53.26-.77.53c0,.01-.24.36-.43.36-.08,0-.17-.02-.3-.07-.06,0-.12-.04-.2-.06-.18-.06-.42-.15-.64-.15-.11,0-.2.02-.28.06-.24.14-.32.48-.39.76,0,0-.05.2-.06.25-.04.17-.07.26-.13.32s-.15.08-.32.12c-.05.02-.1.03-.22.06-.31.07-.64.14-.78.4-.11.18-.09.4-.04.6l.34-.34c.07-.06.17-.09.37-.13l.18-.04c.25-.03.53-.09.73-.29.15-.15.2-.37.25-.59l.05-.19c.03-.07.05-.19.08-.19l-.32-.33h.47c.09,0,.2.04.37.09l.1.04c.16.07.4.16.63.16.06,0,.12,0,.17-.02.2-.04.39-.21.58-.49.07-.11.21-.25.29-.34l.11-.11.13.07c.12.06.3.25.37.36.16.18.38.45.6.51.05.02.1.02.16.02.2,0,.42-.08.66-.17.04,0,.14-.04.21-.07v-.37l.34.34c.07.06.09.17.14.37l.03.17c.04.25.1.54.3.74.14.14.36.2.58.25l.19.05c.07.02.19.04.19.08l.34-.32v.47c0,.09-.04.2-.1.37l-.04.1c-.15.34-.19.6-.14.8.05.19.21.39.53.6.03.04.09.08.14.13.06.05.13.1.17.15l.1.1-.07.13c-.04.09-.17.21-.36.33-.18.15-.45.38-.51.59-.05.21.01.44.07.68l.05.16s.04.13.07.2h.37l-.34.34c-.07.06-.17.09-.38.13l-.17.04c-.25.03-.53.09-.73.29-.15.15-.2.37-.25.58l-.05.2c-.03.08-.05.19-.08.19l.32.33h-.47c-.09,0-.2-.04-.37-.09l-.1-.04c-.16-.07-.41-.16-.64-.16-.06,0-.11,0-.16,0-.2.05-.4.22-.58.5-.04.06-.1.13-.15.19-.02.02-.04.04-.05.04v.3l-.29-.15c-.09-.04-.17-.13-.26-.23l-.12-.13c-.15-.18-.38-.45-.63-.53-.04-.02-.08-.02-.15-.02-.2,0-.41.07-.65.15-.04.02-.13.05-.2.07v.09h-.19c-.31,0-.32-.49-.32-.52-.03-.25-.09-.54-.29-.74s-.51-.26-.77-.3c-.07-.02-.19-.04-.19-.08l-.34.32c.15.06.31.11.47.15.07,0,.12.01.24.04h.34l-2.61,4.51c-.05.1-.04.21,0,.28.05.04.1.07.19.07.02,0,.05,0,.07-.01l2.11-.69.48,2.19c.02.09.12.19.23.2.03,0,.15-.01.21-.13l2.43-4.22,2.42,4.21c.05.08.15.14.22.14h.05c.11-.02.16-.08.18-.19l.47-2.2,2.16.7c.05,0,.14-.01.2-.09.06-.08.07-.19.02-.28ZM17.82,30.13l-.38-1.81c-.02-.09-.07-.15-.11-.17-.03-.02-.06-.03-.1-.03h-.08s-1.82.6-1.82.6l2.01-3.41.16.33c.12.23.21.31.27.34.09.05.2.08.32.08.22,0,.43-.09.61-.17.25-.09.35-.11.44-.11.03,0,.06,0,.1.01.03,0,.14.07.32.34.04.05.08.1.13.15.03.04.07.09.1.12l.11.11-2.08,3.62ZM23.63,28.13l-.18.02c-.1.07-.1.09-.11.15l-.43,1.81-2.07-3.6.11-.11s.06-.07.09-.11c.05-.06.09-.11.11-.13.01,0,.24-.36.44-.36.08,0,.16.03.3.07.06.02.12.04.2.06.18.07.42.16.64.16.1,0,.2-.02.27-.06.15-.09.2-.21.27-.35l.17-.33,2.01,3.37-1.82-.59Z"/>
        <path class="cls-1" d="M35.34,5.35l-.06-.1L30.45.46l-.08-.03v-.03h-10.6c-1.09,0-1.98.89-1.98,1.98v12.99c0,.08.11.19.27.19.13,0,.23-.1.23-.23V2.34c0-.85.66-1.52,1.52-1.52h10.24v4.66c0,.12.11.23.23.23h4.63v15.02c0,.82-.7,1.51-1.52,1.51h-6.52c-.12,0-.23.11-.23.23s.11.23.23.23h6.52c1.08,0,1.97-.89,1.97-1.97V5.48l-.02-.13ZM30.51,5.25V1.16l4.1,4.09h-4.1Z"/>
        <path class="cls-1" d="M35.34,5.35l-.06-.1L30.45.46l-.08-.03v-.03h-10.6c-1.09,0-1.98.89-1.98,1.98v12.99c0,.08.11.19.27.19.13,0,.23-.1.23-.23V2.34c0-.85.66-1.52,1.52-1.52h10.24v4.66c0,.12.11.23.23.23h4.63v15.02c0,.82-.7,1.51-1.52,1.51h-6.52c-.12,0-.23.11-.23.23s.11.23.23.23h6.52c1.08,0,1.97-.89,1.97-1.97V5.48l-.02-.13ZM30.51,5.25V1.16l4.1,4.09h-4.1Z"/>
        <path class="cls-1" d="M31.75,8.66c0,.12-.11.23-.23.23h-9.85c-.12,0-.23-.11-.23-.23s.11-.23.23-.23h9.85c.12,0,.23.11.23.23Z"/>
        <path class="cls-1" d="M31.75,8.66c0,.12-.11.23-.23.23h-9.85c-.12,0-.23-.11-.23-.23s.11-.23.23-.23h9.85c.12,0,.23.11.23.23Z"/>
        <path class="cls-1" d="M31.75,11.53c0,.12-.11.23-.23.23h-9.85c-.12,0-.23-.11-.23-.23s.11-.23.23-.23h9.85c.12,0,.23.11.23.23Z"/>
        <path class="cls-1" d="M31.75,11.53c0,.12-.11.23-.23.23h-9.85c-.12,0-.23-.11-.23-.23s.11-.23.23-.23h9.85c.12,0,.23.11.23.23Z"/>
        <path class="cls-1" d="M31.75,14.44c0,.12-.11.23-.23.23h-9.85c-.12,0-.23-.11-.23-.23s.11-.23.23-.23h9.85c.12,0,.23.11.23.23Z"/>
        <path class="cls-1" d="M31.75,14.44c0,.12-.11.23-.23.23h-9.85c-.12,0-.23-.11-.23-.23s.11-.23.23-.23h9.85c.12,0,.23.11.23.23Z"/>
        <path class="cls-1" d="M22.27,20.55l-2.14,2.13s-.1.06-.17.06-.13-.02-.17-.06l-1.28-1.28c-.07-.1-.08-.26,0-.34.04-.03.12-.06.19-.06.06,0,.11.02.15.06l1.11,1.11,1.97-1.96s.11-.06.18-.06c.06,0,.12.02.15.06.08.09.09.25.01.34Z"/>
        <path class="cls-1" d="M22.27,20.55l-2.14,2.13s-.1.06-.17.06-.13-.02-.17-.06l-1.28-1.28c-.07-.1-.08-.26,0-.34.04-.03.12-.06.19-.06.06,0,.11.02.15.06l1.11,1.11,1.97-1.96s.11-.06.18-.06c.06,0,.12.02.15.06.08.09.09.25.01.34Z"/>
      </g>
    </g>
  </g>
</svg>