<?xml version="1.0" encoding="UTF-8"?>
<svg id="Layer_2" xmlns="http://www.w3.org/2000/svg" xmlns:xlink="http://www.w3.org/1999/xlink" viewBox="0 0 50 31">
  <defs>
    <style>
      .cls-1 {
        fill: #fff;
      }

      .cls-2 {
        fill: none;
      }

      .cls-3 {
        clip-path: url(#clippath);
      }
    </style>
    <clipPath id="clippath">
      <rect class="cls-2" width="50" height="31"/>
    </clipPath>
  </defs>
  <g id="Layer_1-2" data-name="Layer_1">
    <g class="cls-3">
      <g>
        <path class="cls-1" d="M39.9,2.21h-4.57v-.74c0-.81-.66-1.48-1.48-1.48s-1.48.66-1.48,1.48v.74h-14.76v-.74c0-.81-.66-1.48-1.48-1.48s-1.48.66-1.48,1.48v.74h-4.57c-1.14,0-2.07.93-2.07,2.07v19.33c0,.06,0,.13.02.18.03.13.1.25.19.35l6.64,6.64c.1.1.21.16.35.19.06.01.12.02.18.02h25.83c.41,0,.74-.33.74-.74V4.29c0-1.14-.93-2.07-2.07-2.07ZM33.12,1.48c0-.41.33-.74.74-.74s.74.33.74.74v1.48c0,.41-.33.74-.74.74s-.74-.33-.74-.74v-1.48ZM15.4,1.48c0-.41.33-.74.74-.74s.74.33.74.74v1.48c0,.41-.33.74-.74.74s-.74-.33-.74-.74v-1.48ZM8.76,4.29c0-.74.6-1.34,1.34-1.34h4.57c0,.81.66,1.48,1.48,1.48s1.48-.66,1.48-1.48h14.76c0,.81.66,1.48,1.48,1.48s1.48-.66,1.48-1.48h4.57c.74,0,1.34.6,1.34,1.34v1.02c0,.74-.6,1.34-1.34,1.34H10.1c-.74,0-1.34-.6-1.34-1.34,0,0,0-1.02,0-1.02ZM8.76,23.62h6.64v6.64l-6.64-6.64ZM41.24,30.26h-25.1v-6.64c0-.41-.33-.74-.74-.74h-6.64V6.89c.36.3.83.49,1.34.49h29.8c.5,0,.97-.18,1.34-.49v23.37Z"/>
        <path class="cls-1" d="M13.93,9.6h-2.21c-.81,0-1.48.66-1.48,1.48v1.48c0,.81.66,1.48,1.48,1.48h2.21c.81,0,1.48-.66,1.48-1.48v-1.48c0-.81-.66-1.48-1.48-1.48ZM14.67,12.55c0,.41-.33.74-.74.74h-2.21c-.41,0-.74-.33-.74-.74v-1.48c0-.41.33-.74.74-.74h2.21c.41,0,.74.33.74.74v1.48Z"/>
        <path class="cls-1" d="M22.05,9.6h-2.21c-.81,0-1.48.66-1.48,1.48v1.48c0,.81.66,1.48,1.48,1.48h2.21c.81,0,1.48-.66,1.48-1.48v-1.48c0-.81-.66-1.48-1.48-1.48ZM22.79,12.55c0,.41-.33.74-.74.74h-2.21c-.41,0-.74-.33-.74-.74v-1.48c0-.41.33-.74.74-.74h2.21c.41,0,.74.33.74.74v1.48Z"/>
        <path class="cls-1" d="M30.17,9.6h-2.21c-.81,0-1.48.66-1.48,1.48v1.48c0,.81.66,1.48,1.48,1.48h2.21c.81,0,1.48-.66,1.48-1.48v-1.48c0-.81-.66-1.48-1.48-1.48ZM30.9,12.55c0,.41-.33.74-.74.74h-2.21c-.41,0-.74-.33-.74-.74v-1.48c0-.41.33-.74.74-.74h2.21c.41,0,.74.33.74.74v1.48Z"/>
        <path class="cls-1" d="M38.29,9.6h-2.21c-.81,0-1.48.66-1.48,1.48v1.48c0,.81.66,1.48,1.48,1.48h2.21c.81,0,1.48-.66,1.48-1.48v-1.48c0-.81-.66-1.48-1.48-1.48ZM39.02,12.55c0,.41-.33.74-.74.74h-2.21c-.41,0-.74-.33-.74-.74v-1.48c0-.41.33-.74.74-.74h2.21c.41,0,.74.33.74.74v1.48Z"/>
        <path class="cls-1" d="M13.93,16.24h-2.21c-.81,0-1.48.66-1.48,1.48v1.48c0,.81.66,1.48,1.48,1.48h2.21c.81,0,1.48-.66,1.48-1.48v-1.48c0-.81-.66-1.48-1.48-1.48ZM14.67,19.19c0,.41-.33.74-.74.74h-2.21c-.41,0-.74-.33-.74-.74v-1.48c0-.41.33-.74.74-.74h2.21c.41,0,.74.33.74.74v1.48Z"/>
        <path class="cls-1" d="M22.05,16.24h-2.21c-.81,0-1.48.66-1.48,1.48v1.48c0,.81.66,1.48,1.48,1.48h2.21c.81,0,1.48-.66,1.48-1.48v-1.48c0-.81-.66-1.48-1.48-1.48ZM22.79,19.19c0,.41-.33.74-.74.74h-2.21c-.41,0-.74-.33-.74-.74v-1.48c0-.41.33-.74.74-.74h2.21c.41,0,.74.33.74.74v1.48Z"/>
        <path class="cls-1" d="M30.9,18.52v.67c0,.41-.33.74-.74.74h-2.21c-.41,0-.74-.33-.74-.74v-1.48c0-.41.33-.74.74-.74h.99c.76,0,.77-.74.16-.74h-1.15c-.81,0-1.48.66-1.48,1.48v1.48c0,.81.66,1.48,1.48,1.48h2.21c.81,0,1.48-.66,1.48-1.48v-1.1c0-.46-.77-.53-.74.43Z"/>
        <path class="cls-1" d="M38.29,16.24h-2.21c-.81,0-1.48.66-1.48,1.48v1.48c0,.81.66,1.48,1.48,1.48h2.21c.81,0,1.48-.66,1.48-1.48v-1.48c0-.81-.66-1.48-1.48-1.48ZM39.02,19.19c0,.41-.33.74-.74.74h-2.21c-.41,0-.74-.33-.74-.74v-1.48c0-.41.33-.74.74-.74h2.21c.41,0,.74.33.74.74v1.48Z"/>
        <path class="cls-1" d="M22.05,22.88h-2.21c-.81,0-1.48.66-1.48,1.48v1.48c0,.81.66,1.48,1.48,1.48h2.21c.81,0,1.48-.66,1.48-1.48v-1.48c0-.81-.66-1.48-1.48-1.48ZM22.79,25.83c0,.41-.33.74-.74.74h-2.21c-.41,0-.74-.33-.74-.74v-1.48c0-.41.33-.74.74-.74h2.21c.41,0,.74.33.74.74v1.48Z"/>
        <path class="cls-1" d="M30.17,22.88h-2.21c-.81,0-1.48.66-1.48,1.48v1.48c0,.81.66,1.48,1.48,1.48h2.21c.81,0,1.48-.66,1.48-1.48v-1.48c0-.81-.66-1.48-1.48-1.48ZM30.9,25.83c0,.41-.33.74-.74.74h-2.21c-.41,0-.74-.33-.74-.74v-1.48c0-.41.33-.74.74-.74h2.21c.41,0,.74.33.74.74v1.48Z"/>
        <path class="cls-1" d="M38.29,22.88h-2.21c-.81,0-1.48.66-1.48,1.48v1.48c0,.81.66,1.48,1.48,1.48h2.21c.81,0,1.48-.66,1.48-1.48v-1.48c0-.81-.66-1.48-1.48-1.48ZM39.02,25.83c0,.41-.33.74-.74.74h-2.21c-.41,0-.74-.33-.74-.74v-1.48c0-.41.33-.74.74-.74h2.21c.41,0,.74.33.74.74v1.48Z"/>
        <path class="cls-1" d="M28.65,17.46c-.09-.18-.31-.26-.49-.16-.18.09-.26.31-.16.49l.74,1.48c.06.12.17.19.3.2h.03c.12,0,.22-.05.3-.15l2.21-2.95c.13-.16.09-.39-.07-.52-.16-.13-.39-.09-.52.07l-1.85,2.47-.47-.94h0Z"/>
      </g>
    </g>
  </g>
</svg>