<?xml version="1.0" encoding="UTF-8"?>
<svg id="Layer_2" xmlns="http://www.w3.org/2000/svg" xmlns:xlink="http://www.w3.org/1999/xlink" viewBox="0 0 50 31">
  <defs>
    <style>
      .cls-1 {
        fill: #fff;
      }

      .cls-2 {
        fill: none;
      }

      .cls-3 {
        clip-path: url(#clippath);
      }
    </style>
    <clipPath id="clippath">
      <rect class="cls-2" width="50" height="31"/>
    </clipPath>
  </defs>
  <g id="Layer_1-2" data-name="Layer_1">
    <g class="cls-3">
      <path class="cls-1" d="M40.87,30.9c-.18,0-.32-.14-.32-.32v-2.94h-22.75v2.94c0,.18-.14.32-.32.32h-2.11c-.18,0-.32-.14-.32-.32v-2.94h-5.6v2.94c0,.18-.14.32-.32.32h-2.11c-.18,0-.32-.14-.32-.32V2.61c0-.68.55-1.23,1.23-1.24h.29c.68,0,1.24.55,1.24,1.24v2.89h5.58v-2.89c0-.68.55-1.24,1.24-1.24h.3c.68,0,1.24.55,1.24,1.24v3.71h12.88c.18,0,.32.14.32.32v.94h5.57v-.11c-.41-3.1,1.14-6.33,3.53-7.34.05-.02.09-.03.14-.03s.09.01.14.03c.62.32.88.7.82,1.23l-.02.17.15-.06c.14-.06.29-.08.43-.08h.29c.67,0,1.22.56,1.22,1.24v27.97c0,.18-.14.32-.32.32h-2.11ZM41.79,2.02c-.33,0-.59.27-.59.59v27.67h1.46V2.61c.01-.33-.25-.59-.58-.59h-.29ZM16.29,2.02c-.33,0-.59.27-.59.59v27.65h1.47V2.61c0-.33-.26-.59-.59-.59h-.29ZM7.93,2.02c-.32,0-.58.27-.57.59v27.64h1.46V2.61c0-.33-.27-.59-.59-.59h-.3ZM17.81,27.02l22.73-.02v-2.86h-9.54v1.43c0,.18-.14.32-.32.32h-12.88v1.13ZM9.47,27.02h5.58v-2.86h-5.58v2.86ZM17.81,25.25h12.55v-2.14h-12.55v2.14ZM17.81,22.46h12.88c.18,0,.32.14.32.32v.72h5.54v-.11c-.42-3.09,1.14-6.31,3.53-7.33.05-.02.09-.03.14-.03s.09.01.14.03l.14.07.05-.13v-4.27h-22.73v10.74ZM39.1,23.49h1.44v-3.62l-.19-.03-1.24,3.65ZM40.14,16.72c-2.05,1.02-3.35,3.96-2.95,6.69v.08h1.24l2.02-5.91c.05-.12.08-.24.1-.37-.01-.29-.15-.4-.3-.49l-.05-.03-.05.02ZM9.47,23.49h5.58v-2.95h-5.58v2.95ZM9.47,19.9h5.58v-2.96h-5.58v2.96ZM9.47,16.3h5.58v-2.95h-5.58v2.95ZM9.47,12.7h5.58v-2.96h-5.58v2.96ZM17.81,11.09h22.73v-2.86h-9.54v1.19c0,.18-.14.32-.32.32h-12.88v1.35ZM9.47,9.12h5.58v-2.95l-5.58-.02v2.97ZM17.81,9.1h12.55v-2.13h-12.55v2.13ZM39.13,7.59h1.41v-3.53l-.19-.03-1.22,3.56ZM40.18.8c-2.06,1.02-3.36,3.96-2.96,6.71v.08h1.24l2.02-5.91c.14-.38.18-.6-.13-.81l.09-.19-.26.11Z"/>
    </g>
  </g>
</svg>