<?xml version="1.0" encoding="UTF-8"?>
<svg id="Layer_2" xmlns="http://www.w3.org/2000/svg" xmlns:xlink="http://www.w3.org/1999/xlink" viewBox="0 0 50 31">
  <defs>
    <style>
      .cls-1 {
        fill: #fff;
      }

      .cls-2 {
        fill: none;
      }

      .cls-3 {
        clip-path: url(#clippath);
      }
    </style>
    <clipPath id="clippath">
      <rect class="cls-2" width="50" height="31"/>
    </clipPath>
  </defs>
  <g id="Layer_1-2" data-name="Layer_1">
    <g class="cls-3">
      <path class="cls-1" d="M26.85,30.89c-.47,0-.85-.38-.85-.85v-.22H9.49c-1,0-1.82-.82-1.82-1.82v-.96c0-.62.5-1.12,1.12-1.12h2.82s-.19-.18-.19-.18c-.66-.61-1.03-1.43-1.03-2.31v-14.86c0-1.74,1.42-3.15,3.17-3.15h10.4v-1.34l-2.19-.93c-.09-.04-.12-.12-.12-.19,0-.07.04-.15.13-.18L29,.11h.14l7.23,2.68c.09.04.13.12.13.18,0,.07-.03.15-.12.19l-2.25.96.03.09s.02.08.02.12v1.11h.45c1.75,0,3.17,1.42,3.17,3.15v2.46c0,.18-.15.33-.33.33s-.33-.15-.33-.33v-2.46c0-1.37-1.12-2.49-2.5-2.49h-.45v2.29c0,.07-.02.13-.06.19,0,0-.34.48-1.19.94l-.05.03v1.45l.07.02c.5.17.84.63.84,1.16,0,.67-.55,1.22-1.23,1.22s-1.22-.55-1.22-1.22c0-.51.33-.97.81-1.15l.07-.02v-1.17l-.13.04c-.87.3-1.89.45-3.01.45-3.8,0-5.01-1.68-5.06-1.75-.04-.05-.06-.12-.06-.19v-2.29h-10.4c-1.38,0-2.5,1.12-2.5,2.49v14.86c0,1.37,1.12,2.49,2.5,2.49h12.51l.02-.08c.42-2.03,2.22-3.51,4.3-3.51h.47c.79,0,1.58.23,2.29.66l.11.07.04-.12c.55-1.67,2.15-2.84,3.9-2.84h1.02c2.27,0,4.12,1.85,4.12,4.11v3.62c0,.45-.37.82-.82.82h-6.26v1.38c0,.47-.38.85-.85.85h-7.55ZM30.38,23.01c-2.05,0-3.72,1.67-3.72,3.72v3.31c0,.1.08.18.18.18h7.54c.1,0,.18-.08.18-.18v-3.31c0-2.05-1.67-3.72-3.72-3.72h-.47ZM8.79,26.6c-.25,0-.45.2-.45.45v.96c0,.63.52,1.15,1.15,1.15h16.51v-2.52l-.1-.03H8.79ZM37.19,20.78c-1.59,0-3,1.12-3.36,2.67.92.94,1.41,2.07,1.41,3.28v1.27h6.36l.05-3.77c0-1.9-1.55-3.45-3.45-3.45h-1.02ZM32.56,11.62c-.31,0-.56.25-.56.56s.25.56.56.56.56-.25.56-.56-.25-.56-.56-.56ZM24.62,8.23c.33.39,1.55,1.43,4.45,1.43,1.19,0,2.22-.18,3.08-.52l.06-.03v-4.18l-3.07,1.3h-.16l-4.37-1.86v3.85ZM32.88,4.65v4.13l.16-.11c.25-.17.39-.31.45-.37l.03-3.92-.64.27ZM23.1,3.01l5.93,2.52,6.01-2.52-5.97-2.21-5.97,2.21ZM22.78,28.2c-.18,0-.33-.15-.33-.33s.15-.33.33-.33h1.92c.18,0,.33.15.33.33s-.15.33-.33.33h-1.92ZM17.2,21.5c-.05,0-.11-.01-.16-.04-.11-.06-.18-.17-.18-.29v-8.94c0-.12.07-.24.18-.29.05-.03.1-.04.16-.04.07,0,.13.02.19.06l6.13,4.26c.17.12.27.29.27.48s-.1.36-.27.48l-6.13,4.26c-.06.04-.12.06-.19.06ZM17.53,20.52l5.52-3.83-5.52-3.83v7.67ZM30.62,21.49c-1.69,0-3.07-1.38-3.07-3.07s1.38-3.07,3.07-3.07,3.07,1.38,3.07,3.07-1.38,3.07-3.07,3.07ZM30.62,16.02c-1.32,0-2.4,1.08-2.4,2.4s1.08,2.4,2.4,2.4,2.4-1.08,2.4-2.4-1.08-2.4-2.4-2.4ZM37.7,19.26c-1.69,0-3.07-1.38-3.07-3.07s1.38-3.07,3.07-3.07,3.07,1.38,3.07,3.07-1.38,3.07-3.07,3.07ZM37.7,13.79c-1.32,0-2.4,1.08-2.4,2.4s1.08,2.4,2.4,2.4,2.4-1.08,2.4-2.4-1.08-2.4-2.4-2.4Z"/>
    </g>
  </g>
</svg>