<?xml version="1.0" encoding="UTF-8"?>
<svg id="Layer_2" xmlns="http://www.w3.org/2000/svg" xmlns:xlink="http://www.w3.org/1999/xlink" viewBox="0 0 50 31">
  <defs>
    <style>
      .cls-1 {
        fill: #fff;
      }

      .cls-2 {
        fill: none;
      }

      .cls-3 {
        clip-path: url(#clippath);
      }
    </style>
    <clipPath id="clippath">
      <rect class="cls-2" width="50" height="31"/>
    </clipPath>
  </defs>
  <g id="Layer_1-2" data-name="Layer_1">
    <g class="cls-3">
      <g>
        <path class="cls-1" d="M35.32,18.26l-.09-.06v-5.98c0-3.99-2.71-7.44-6.6-8.39l-.19-.05.04-.19c.03-.15.05-.28.05-.41,0-1.07-.88-1.95-1.95-1.95s-1.94.88-1.94,1.95c0,.13.01.26.05.41l.04.19-.19.05c-3.89.95-6.61,4.4-6.61,8.39v6.01l-.12.05c-1.69.65-2.21,2.22-1.98,3.5.23,1.29,1.27,2.59,3.09,2.61h3.96v.22c-.09,1,.27,2.01.97,2.76.7.77,1.7,1.2,2.72,1.2h.02c2.06,0,3.73-1.67,3.73-3.73,0-.06,0-.11-.01-.24l-.02-.21h3.96c1.82-.02,2.86-1.33,3.09-2.61.23-1.28-.29-2.85-2.02-3.52ZM26.57,1.93c.39,0,.77.17,1,.46.17.21.34.56.23,1.09l-.04.18-.18-.02c-.33-.04-.66-.06-1-.06s-.67.02-.99.06l-.18.02-.04-.17c-.03-.11-.05-.21-.05-.32.04-.85.66-1.24,1.25-1.24ZM26.6,27.86c-.87,0-1.68-.33-2.24-.92-.57-.6-.85-1.42-.8-2.36v-.19h6.04v.18c.02.09.03.18.03.28-.09,2.07-1.63,3.01-3.03,3.01ZM36.69,21.5c-.12,1.08-.92,2.18-2.44,2.2h-15.34c-1.5-.02-2.31-1.15-2.43-2.2-.12-1.07.41-2.31,1.88-2.67.15-.04.26-.18.26-.33v-6.28c0-4.39,3.57-7.96,7.96-7.96s7.97,3.57,7.97,7.96v6.28c0,.16.1.29.26.33,1.47.35,2,1.6,1.88,2.67Z"/>
        <path class="cls-1" d="M35.32,18.26l-.09-.06v-5.98c0-3.99-2.71-7.44-6.6-8.39l-.19-.05.04-.19c.03-.15.05-.28.05-.41,0-1.07-.88-1.95-1.95-1.95s-1.94.88-1.94,1.95c0,.13.01.26.05.41l.04.19-.19.05c-3.89.95-6.61,4.4-6.61,8.39v6.01l-.12.05c-1.69.65-2.21,2.22-1.98,3.5.23,1.29,1.27,2.59,3.09,2.61h3.96v.22c-.09,1,.27,2.01.97,2.76.7.77,1.7,1.2,2.72,1.2h.02c2.06,0,3.73-1.67,3.73-3.73,0-.06,0-.11-.01-.24l-.02-.21h3.96c1.82-.02,2.86-1.33,3.09-2.61.23-1.28-.29-2.85-2.02-3.52ZM26.57,1.93c.39,0,.77.17,1,.46.17.21.34.56.23,1.09l-.04.18-.18-.02c-.33-.04-.66-.06-1-.06s-.67.02-.99.06l-.18.02-.04-.17c-.03-.11-.05-.21-.05-.32.04-.85.66-1.24,1.25-1.24ZM26.6,27.86c-.87,0-1.68-.33-2.24-.92-.57-.6-.85-1.42-.8-2.36v-.19h6.04v.18c.02.09.03.18.03.28-.09,2.07-1.63,3.01-3.03,3.01ZM36.69,21.5c-.12,1.08-.92,2.18-2.44,2.2h-15.34c-1.5-.02-2.31-1.15-2.43-2.2-.12-1.07.41-2.31,1.88-2.67.15-.04.26-.18.26-.33v-6.28c0-4.39,3.57-7.96,7.96-7.96s7.97,3.57,7.97,7.96v6.28c0,.16.1.29.26.33,1.47.35,2,1.6,1.88,2.67Z"/>
        <path class="cls-1" d="M36.26,6.43c.01.1-.02.19-.08.26-.06.06-.16.1-.27.1-.14,0-.31-.08-.33-.31-.07-.79-.4-1.5-.95-2.05-.55-.56-1.29-.89-2.06-.95-.24-.02-.32-.2-.32-.36.01-.15.1-.33.33-.33,1.92.11,3.56,1.74,3.68,3.64Z"/>
        <path class="cls-1" d="M36.26,6.43c.01.1-.02.19-.08.26-.06.06-.16.1-.27.1-.14,0-.31-.08-.33-.31-.07-.79-.4-1.5-.95-2.05-.55-.56-1.29-.89-2.06-.95-.24-.02-.32-.2-.32-.36.01-.15.1-.33.33-.33,1.92.11,3.56,1.74,3.68,3.64Z"/>
        <path class="cls-1" d="M38.85,6.64c.02.19-.12.36-.31.37h-.03c-.18,0-.33-.13-.34-.31-.19-3.01-2.8-5.62-5.82-5.81-.09-.01-.17-.05-.23-.12s-.09-.16-.08-.25c.01-.19.16-.32.35-.32,1.68.13,3.24.86,4.43,2.04l.11.11c1.12,1.17,1.8,2.69,1.92,4.29Z"/>
        <path class="cls-1" d="M38.85,6.64c.02.19-.12.36-.31.37h-.03c-.18,0-.33-.13-.34-.31-.19-3.01-2.8-5.62-5.82-5.81-.09-.01-.17-.05-.23-.12s-.09-.16-.08-.25c.01-.19.16-.32.35-.32,1.68.13,3.24.86,4.43,2.04l.11.11c1.12,1.17,1.8,2.69,1.92,4.29Z"/>
        <path class="cls-1" d="M17.74,27.88c-.01.12-.09.33-.34.33h-.03c-1.9-.13-3.53-1.76-3.63-3.65-.01-.09.02-.18.08-.25s.15-.11.24-.12c.21,0,.35.14.37.32.09,1.59,1.41,2.91,3,3.01.31.03.31.31.31.36Z"/>
        <path class="cls-1" d="M17.74,27.88c-.01.12-.09.33-.34.33h-.03c-1.9-.13-3.53-1.76-3.63-3.65-.01-.09.02-.18.08-.25s.15-.11.24-.12c.21,0,.35.14.37.32.09,1.59,1.41,2.91,3,3.01.31.03.31.31.31.36Z"/>
        <path class="cls-1" d="M17.95,30.47c0,.15-.09.32-.33.33-3.36-.19-6.26-3.08-6.47-6.44-.01-.11.02-.2.08-.26.06-.07.16-.11.26-.11.15,0,.32.08.34.31.19,3.01,2.8,5.62,5.82,5.81h.02c.22.04.29.21.28.36Z"/>
        <path class="cls-1" d="M17.95,30.47c0,.15-.09.32-.33.33-3.36-.19-6.26-3.08-6.47-6.44-.01-.11.02-.2.08-.26.06-.07.16-.11.26-.11.15,0,.32.08.34.31.19,3.01,2.8,5.62,5.82,5.81h.02c.22.04.29.21.28.36Z"/>
      </g>
    </g>
  </g>
</svg>