<?xml version="1.0" encoding="UTF-8"?>
<svg id="Layer_2" xmlns="http://www.w3.org/2000/svg" xmlns:xlink="http://www.w3.org/1999/xlink" viewBox="0 0 50 31">
  <defs>
    <style>
      .cls-1 {
        fill: #fff;
      }

      .cls-2 {
        fill: none;
      }

      .cls-3 {
        clip-path: url(#clippath);
      }
    </style>
    <clipPath id="clippath">
      <rect class="cls-2" width="50" height="31"/>
    </clipPath>
  </defs>
  <g id="Layer_1-2" data-name="Layer_1">
    <g class="cls-3">
      <path class="cls-1" d="M9.34,30.8c-1.3,0-2.36-1.06-2.36-2.37V2.57c0-1.3,1.06-2.36,2.36-2.36h31.31c1.3,0,2.37,1.06,2.37,2.36v25.87c0,1.3-1.06,2.37-2.36,2.37H9.34ZM7.72,8.47v19.97c0,.91.71,1.63,1.62,1.63h31.31c.91,0,1.63-.72,1.63-1.63V8.47H7.72ZM9.34.94c-.91,0-1.62.71-1.62,1.62v5.16h34.56V2.56c0-.91-.71-1.62-1.63-1.62H9.34ZM13.45,25.9c-.2,0-.37-.17-.37-.37,0-.1.04-.19.11-.26s.17-.11.26-.11h1.41v-5.09c0-.2.16-.37.37-.37h4.31c.1,0,.19.04.26.11.07.07.11.17.11.26v5.09h2.57v-8.38c0-.1.04-.19.11-.26.07-.07.17-.11.26-.11h4.31c.1,0,.19.04.26.11.07.07.11.16.11.26v8.38h2.57v-12.17c0-.2.16-.37.37-.37h4.31c.1,0,.19.04.26.11.07.07.11.17.11.26v12.17h1.41c.1,0,.19.04.26.11.07.07.11.16.11.26,0,.2-.17.37-.37.37H13.45ZM30.84,25.17h3.57v-11.8h-3.57v11.8ZM23.22,25.16h3.57v-8.01h-3.57v8.01ZM15.6,25.16h3.57v-4.72h-3.57v4.72ZM21.22,5.11c-.42,0-.77-.35-.77-.77s.34-.76.75-.77c.44,0,.79.34.79.77s-.35.77-.77.77ZM16.88,5.11c-.42,0-.77-.35-.77-.77s.34-.76.75-.77c.44,0,.79.34.79.77s-.35.77-.77.77ZM12.53,5.11c-.42,0-.77-.35-.77-.77s.34-.76.75-.77c.44,0,.79.34.79.77s-.34.77-.77.77Z"/>
    </g>
  </g>
</svg>