<?xml version="1.0" encoding="UTF-8"?>
<svg id="Layer_2" xmlns="http://www.w3.org/2000/svg" xmlns:xlink="http://www.w3.org/1999/xlink" viewBox="0 0 50 31">
  <defs>
    <style>
      .cls-1 {
        fill: #fff;
      }

      .cls-2 {
        fill: none;
      }

      .cls-3 {
        clip-path: url(#clippath);
      }
    </style>
    <clipPath id="clippath">
      <rect class="cls-2" width="50" height="31"/>
    </clipPath>
  </defs>
  <g id="Layer_1-2" data-name="Layer_1">
    <g class="cls-3">
      <path class="cls-1" d="M34.47,30.9c-.13,0-.24-.11-.24-.24V13.87c0-.13.11-.24.24-.24h4.43c.13,0,.24.11.24.24v16.79c0,.13-.11.24-.24.24h-4.43ZM34.7,30.43h3.95V14.11h-3.95v16.32ZM27.22,30.9c-.13,0-.24-.11-.24-.24v-8.85c0-.13.11-.24.24-.24h4.43c.13,0,.24.11.24.24v8.85c0,.13-.11.24-.24.24h-4.43ZM27.45,30.43h3.95v-8.37h-3.95v8.37ZM19.97,30.9c-.13,0-.24-.11-.24-.24v-10.88c0-.13.11-.24.24-.24h4.43c.13,0,.24.11.24.24v10.88c0,.13-.11.24-.24.24h-4.43ZM20.2,30.43h3.95v-10.4h-3.95v10.4ZM12.71,30.9c-.13,0-.24-.11-.24-.24v-5.71c0-.13.1-.24.24-.24h4.43c.13,0,.24.11.24.24v5.71c0,.13-.1.24-.24.24h-4.43ZM12.95,30.43h3.95v-5.24h-3.95v5.24ZM21.08,16.76c-.79,0-1.65-.07-2.55-.2-.11-.02-.19-.1-.2-.21s.05-.21.15-.25c4.5-1.77,7.31-3.72,10.17-9.51l.04-.09-1.55-.72c-.09-.04-.14-.13-.14-.22,0-.09.06-.18.15-.21l5.28-2.18c.05,0,.09-.01.11-.01.04,0,.06,0,.07.01.06.03.11.08.13.14l1.75,5.44c.03.09,0,.19-.07.25-.04.04-.1.06-.16.06-.03,0-.07,0-.1-.02l-1.56-.72-.04.09c-1.79,3.55-3.86,5.89-6.32,7.17-1.53.79-3.22,1.18-5.16,1.18ZM27.83,5.59l1.28.59c.06.03.1.07.12.13.02.06.02.12,0,.18-2.81,5.8-5.56,7.89-9.36,9.55l.03.19c.4.03.81.05,1.22.05,4.81,0,8.36-2.67,11.17-8.39.04-.08.12-.13.21-.13.03,0,.07,0,.1.02l1.28.59-1.5-4.68-4.54,1.88ZM15.18,11.7c-.12,0-.23-.02-.35-.06-.55-.21-1.07-.5-1.54-.85-.39-.29-.5-.82-.26-1.24.21-.39.21-.86-.02-1.24-.22-.37-.63-.6-1.06-.6h0c-.52,0-.92-.34-1-.81-.05-.29-.07-.58-.08-.88,0-.29,0-.59.05-.88.06-.48.46-.84.94-.85.44,0,.85-.25,1.06-.64.21-.39.21-.86-.02-1.24-.25-.42-.16-.94.21-1.25.46-.38.97-.68,1.51-.91.12-.05.25-.08.38-.08.34,0,.65.18.83.47.22.37.63.6,1.06.6.46,0,.87-.25,1.08-.64.17-.31.49-.5.84-.5.12,0,.23.02.35.06.55.21,1.07.5,1.54.85.39.29.5.82.26,1.24-.21.39-.21.86.02,1.24.22.37.63.6,1.06.6h0c.52,0,.93.34,1,.81.05.29.07.58.08.88,0,.29,0,.59-.05.88-.06.48-.46.84-.94.85-.44,0-.85.25-1.06.64-.21.38-.21.86.02,1.24.25.42.16.94-.21,1.25-.46.38-.96.68-1.51.91-.12.05-.25.08-.38.08-.34,0-.65-.18-.83-.47-.22-.37-.63-.6-1.06-.6-.46,0-.87.25-1.08.64-.17.31-.49.5-.84.5ZM14.99.64c-.06,0-.13.01-.19.04-.5.21-.97.49-1.39.84-.19.16-.24.43-.11.64.32.52.33,1.18.03,1.71-.29.53-.86.87-1.47.88-.25,0-.45.19-.48.43-.03.27-.05.54-.04.81,0,.27.03.54.07.81.04.24.24.42.49.42.64,0,1.2.32,1.51.83.31.52.33,1.18.03,1.71-.12.22-.06.48.13.63.43.33.91.6,1.42.79.06.02.12.03.18.03.18,0,.34-.1.43-.26.29-.54.86-.87,1.47-.89.63,0,1.19.32,1.5.83.09.15.25.24.42.24.07,0,.13-.01.19-.04.5-.21.97-.49,1.39-.84.19-.16.24-.42.11-.64-.32-.52-.33-1.18-.03-1.71.29-.53.86-.87,1.47-.88.25,0,.45-.19.48-.43.03-.27.05-.54.04-.81,0-.27-.03-.54-.07-.81-.04-.24-.25-.42-.49-.42h0c-.64,0-1.2-.32-1.51-.83-.31-.52-.33-1.18-.03-1.71.12-.22.06-.48-.13-.63-.43-.33-.91-.6-1.42-.79-.06-.02-.12-.03-.18-.03-.18,0-.34.1-.43.26-.29.54-.86.87-1.47.89-.63,0-1.19-.32-1.5-.83-.09-.15-.25-.24-.42-.24ZM16.99,8.14c-.58,0-1.13-.22-1.55-.63-.43-.42-.68-.97-.69-1.57-.01-.6.21-1.17.63-1.6.41-.43.97-.68,1.57-.69h0c.62,0,1.18.22,1.6.63.43.42.68.97.69,1.57.02,1.23-.96,2.26-2.2,2.29h-.04ZM16.96,4.13c-.47,0-.91.2-1.24.54-.33.34-.5.79-.5,1.26,0,.47.2.91.54,1.24.33.32.77.5,1.23.5.51,0,.95-.2,1.27-.54.33-.34.5-.79.5-1.26,0-.47-.2-.91-.54-1.24-.33-.32-.77-.49-1.23-.49h-.03Z"/>
    </g>
  </g>
</svg>