<?xml version="1.0" encoding="UTF-8"?>
<svg id="Layer_2" xmlns="http://www.w3.org/2000/svg" xmlns:xlink="http://www.w3.org/1999/xlink" viewBox="0 0 50 31">
  <defs>
    <style>
      .cls-1 {
        fill: #fff;
      }

      .cls-2 {
        fill: none;
      }

      .cls-3 {
        clip-path: url(#clippath);
      }
    </style>
    <clipPath id="clippath">
      <rect class="cls-2" width="50" height="31"/>
    </clipPath>
  </defs>
  <g id="Layer_1-2" data-name="Layer_1">
    <g class="cls-3">
      <path class="cls-1" d="M6.73,30.7c-1.12,0-2.04-.91-2.04-2.04v-3c0-.19.16-.35.35-.35h1.54V2.09c0-.99.8-1.79,1.79-1.79h33.25c.99,0,1.79.8,1.79,1.79v23.22h1.53c.19,0,.35.16.35.35v3c0,1.12-.91,2.04-2.04,2.04H6.73ZM5.4,28.66c0,.73.6,1.33,1.33,1.33h36.54c.73,0,1.33-.6,1.33-1.33v-2.65s-13.62,0-13.62,0v1.99c0,.19-.16.35-.35.35h-11.26c-.19,0-.35-.16-.35-.35v-1.99H5.4v2.65ZM19.72,27.65h10.55v-1.64h-10.55v1.64ZM7.29,25.31h35.43v-1.69H7.29v1.69ZM8.38,1c-.6,0-1.09.49-1.09,1.09v20.82h35.43V2.09c0-.6-.49-1.09-1.09-1.09H8.38ZM25.01,21.69c-1.63,0-3.09-.97-3.72-2.48l-.08-.18h-11.31c-.19,0-.35-.16-.35-.35v-2.04c0-1.93.97-3.68,2.61-4.69l.28-.17-.19-.26c-.44-.61-.68-1.33-.68-2.08,0-1.94,1.58-3.52,3.52-3.52s3.52,1.58,3.52,3.52c0,.75-.24,1.47-.68,2.08l-.19.26.28.17c.4.25.77.55,1.1.9l.26.28.21-.33c.54-.84,1.27-1.55,2.13-2.07l.29-.17-.21-.27c-.56-.72-.86-1.59-.86-2.5,0-2.25,1.83-4.08,4.08-4.08s4.08,1.83,4.08,4.08c0,.91-.3,1.78-.86,2.5l-.21.27.29.17c.85.51,1.59,1.22,2.13,2.07l.21.33.26-.28c.32-.34.69-.65,1.1-.9l.28-.17-.19-.26c-.44-.61-.68-1.32-.68-2.08,0-1.94,1.58-3.52,3.52-3.52s3.52,1.58,3.52,3.52c0,.75-.24,1.47-.68,2.08l-.35.48h.54c1.52.99,2.51,2.78,2.51,4.65v2.04c0,.19-.16.35-.35.35h-11.31l-.08.18c-.63,1.51-2.09,2.48-3.72,2.48ZM25,14.33c-1.84,0-3.33,1.49-3.33,3.33s1.49,3.33,3.33,3.33,3.33-1.49,3.33-3.33-1.49-3.33-3.33-3.33ZM32.69,12.36c-.64.33-1.18.79-1.61,1.36l-.07.09.02.2c.27.72.41,1.48.41,2.26v2.06h8.3v-1.69c0-1.77-1.02-3.45-2.59-4.28l-.16-.08-.15.1c-.57.38-1.24.58-1.93.58s-1.36-.2-1.93-.58l-.15-.1-.16.08ZM25,13.62c2.23,0,4.04,1.81,4.04,4.04,0,.12,0,.23-.02.34l-.02.32h1.75v-2.06c0-2.14-1.24-4.16-3.15-5.13l-.16-.08-.15.1c-.68.46-1.47.71-2.29.71s-1.61-.24-2.29-.71l-.15-.1-.16.08c-1.94.98-3.15,2.95-3.15,5.13v2.06h1.76l-.03-.33c0-.11-.02-.22-.02-.34,0-2.23,1.81-4.04,4.04-4.04ZM12.84,12.35c-1.6.83-2.59,2.47-2.59,4.28v1.69h8.3v-2.06c0-.77.14-1.54.41-2.26l.04-.1-.08-.18c-.43-.57-.97-1.03-1.61-1.36l-.16-.08-.15.1c-.57.38-1.24.58-1.93.58s-1.36-.2-1.93-.58l-.15-.1-.16.08ZM34.93,6.61c-1.55,0-2.81,1.26-2.81,2.81s1.26,2.81,2.81,2.81,2.81-1.26,2.81-2.81-1.26-2.81-2.81-2.81ZM15.07,6.61c-1.55,0-2.81,1.26-2.81,2.81s1.26,2.81,2.81,2.81,2.81-1.26,2.81-2.81-1.26-2.81-2.81-2.81ZM25,4.4c-1.86,0-3.38,1.52-3.38,3.38s1.52,3.38,3.38,3.38,3.38-1.52,3.38-3.38-1.52-3.38-3.38-3.38ZM24.53,19.63c-.09,0-.18-.04-.25-.1l-1.41-1.41c-.07-.07-.1-.16-.1-.25s.04-.18.1-.25c.07-.07.16-.1.25-.1s.18.04.25.1l1.17,1.17,2.1-2.1c.07-.07.16-.1.25-.1s.18.04.25.1c.14.14.14.36,0,.5l-2.35,2.35c-.07.07-.15.1-.25.1Z"/>
    </g>
  </g>
</svg>