<?xml version="1.0" encoding="UTF-8"?>
<svg id="Layer_2" xmlns="http://www.w3.org/2000/svg" xmlns:xlink="http://www.w3.org/1999/xlink" viewBox="0 0 50 31">
  <defs>
    <style>
      .cls-1 {
        fill: #fff;
      }

      .cls-2 {
        fill: none;
      }

      .cls-3 {
        clip-path: url(#clippath);
      }
    </style>
    <clipPath id="clippath">
      <rect class="cls-2" width="50" height="31"/>
    </clipPath>
  </defs>
  <g id="Layer_1-2" data-name="Layer_1">
    <g class="cls-3">
      <g>
        <path class="cls-1" d="M42.81,19.91c-1.31-1.01-2.65-1.52-3.97-1.52-.17,0-.34,0-.51.03l-.22.02V4.95c0-.99-.81-1.8-1.8-1.8h-2.51l-.02-.17c-.21-1.59-1.36-2.78-2.68-2.78s-2.48,1.19-2.69,2.78l-.02.17h-3.1l-.03-.17c-.21-1.59-1.36-2.78-2.68-2.78s-2.47,1.19-2.69,2.78l-.02.17h-3.1l-.03-.17c-.21-1.59-1.36-2.78-2.68-2.78s-2.47,1.19-2.68,2.78l-.03.17h-2.51c-.99,0-1.79.81-1.79,1.8v4.28s0,16.28,0,16.28c0,.99.81,1.8,1.8,1.8h18.3v3.15c0,.12.06.23.17.29.05.03.1.04.16.04s.12-.01.17-.04c1.21-.75,2.42-1.12,3.61-1.12s2.41.37,3.68,1.15c.04.01.07.02.11.02s.07-.01.17-.05c1.21-.75,2.42-1.12,3.62-1.12s2.4.37,3.61,1.12c.05.03.11.05.18.05.05,0,.11-.02.15-.04.11-.06.18-.17.18-.29v-10.3c0-.1-.05-.2-.14-.26ZM29.08,2.92c.21-1.22,1.04-2.06,2.01-2.06s1.79.84,2.01,2.06l.04.23h-4.1l.04-.23ZM20.56,2.92c.22-1.22,1.04-2.06,2.01-2.06s1.8.84,2.01,2.06l.05.23h-4.11l.04-.23ZM12.05,2.92c.22-1.22,1.05-2.06,2.02-2.06s1.79.84,2.01,2.06l.04.23h-4.11l.04-.23ZM7.7,4.95c0-.63.51-1.14,1.14-1.14h2.5l.02.18c.17,1.46,1.1,2.59,2.36,2.8.17,0,.3-.11.33-.27.03-.17-.09-.35-.27-.38-.86-.15-1.56-.99-1.74-2.1l-.04-.23h4.31l.14.03.15-.03h3.27l.02.18c.17,1.46,1.09,2.59,2.36,2.8.16,0,.3-.11.32-.27.03-.18-.09-.35-.27-.38-.86-.15-1.56-1-1.74-2.1l-.03-.23h4.3l.15.03.15-.03h3.26l.02.17c.17,1.47,1.1,2.6,2.36,2.81.16,0,.3-.11.33-.27.03-.18-.1-.35-.27-.38-.87-.15-1.57-1-1.74-2.1l-.04-.24h4.3l.15.04.15-.04h2.68c.62,0,1.14.52,1.14,1.14v3.76H7.7s0-3.75,0-3.75ZM34.71,29.89l-.29-.14c-1.05-.52-2.12-.78-3.17-.78s-2.11.26-3.17.78l-.29.14v-9.56l.09-.06c1.12-.81,2.25-1.22,3.37-1.22s2.25.41,3.38,1.22l.08.06v9.56ZM35.19,19.64l-.12.14-.15-.11c-1.22-.85-2.45-1.29-3.67-1.29-1.32,0-2.66.52-3.98,1.52-.09.07-.13.16-.13.27v6.49H8.85c-.63,0-1.14-.51-1.14-1.14V9.36h29.75v9.21l-.15.04c-.71.21-1.44.56-2.11,1.03ZM42.29,29.89l-.29-.14c-1.05-.52-2.11-.78-3.16-.78s-2.12.26-3.18.78l-.29.14v-9.56l.09-.06c1.13-.81,2.26-1.22,3.38-1.22s2.24.41,3.37,1.21l.08.07v9.56Z"/>
        <path class="cls-1" d="M42.81,19.91c-1.31-1.01-2.65-1.52-3.97-1.52-.17,0-.34,0-.51.03l-.22.02V4.95c0-.99-.81-1.8-1.8-1.8h-2.51l-.02-.17c-.21-1.59-1.36-2.78-2.68-2.78s-2.48,1.19-2.69,2.78l-.02.17h-3.1l-.03-.17c-.21-1.59-1.36-2.78-2.68-2.78s-2.47,1.19-2.69,2.78l-.02.17h-3.1l-.03-.17c-.21-1.59-1.36-2.78-2.68-2.78s-2.47,1.19-2.68,2.78l-.03.17h-2.51c-.99,0-1.79.81-1.79,1.8v4.28s0,16.28,0,16.28c0,.99.81,1.8,1.8,1.8h18.3v3.15c0,.12.06.23.17.29.05.03.1.04.16.04s.12-.01.17-.04c1.21-.75,2.42-1.12,3.61-1.12s2.41.37,3.68,1.15c.04.01.07.02.11.02s.07-.01.17-.05c1.21-.75,2.42-1.12,3.62-1.12s2.4.37,3.61,1.12c.05.03.11.05.18.05.05,0,.11-.02.15-.04.11-.06.18-.17.18-.29v-10.3c0-.1-.05-.2-.14-.26ZM29.08,2.92c.21-1.22,1.04-2.06,2.01-2.06s1.79.84,2.01,2.06l.04.23h-4.1l.04-.23ZM20.56,2.92c.22-1.22,1.04-2.06,2.01-2.06s1.8.84,2.01,2.06l.05.23h-4.11l.04-.23ZM12.05,2.92c.22-1.22,1.05-2.06,2.02-2.06s1.79.84,2.01,2.06l.04.23h-4.11l.04-.23ZM7.7,4.95c0-.63.51-1.14,1.14-1.14h2.5l.02.18c.17,1.46,1.1,2.59,2.36,2.8.17,0,.3-.11.33-.27.03-.17-.09-.35-.27-.38-.86-.15-1.56-.99-1.74-2.1l-.04-.23h4.31l.14.03.15-.03h3.27l.02.18c.17,1.46,1.09,2.59,2.36,2.8.16,0,.3-.11.32-.27.03-.18-.09-.35-.27-.38-.86-.15-1.56-1-1.74-2.1l-.03-.23h4.3l.15.03.15-.03h3.26l.02.17c.17,1.47,1.1,2.6,2.36,2.81.16,0,.3-.11.33-.27.03-.18-.1-.35-.27-.38-.87-.15-1.57-1-1.74-2.1l-.04-.24h4.3l.15.04.15-.04h2.68c.62,0,1.14.52,1.14,1.14v3.76H7.7s0-3.75,0-3.75ZM34.71,29.89l-.29-.14c-1.05-.52-2.12-.78-3.17-.78s-2.11.26-3.17.78l-.29.14v-9.56l.09-.06c1.12-.81,2.25-1.22,3.37-1.22s2.25.41,3.38,1.22l.08.06v9.56ZM35.19,19.64l-.12.14-.15-.11c-1.22-.85-2.45-1.29-3.67-1.29-1.32,0-2.66.52-3.98,1.52-.09.07-.13.16-.13.27v6.49H8.85c-.63,0-1.14-.51-1.14-1.14V9.36h29.75v9.21l-.15.04c-.71.21-1.44.56-2.11,1.03ZM42.29,29.89l-.29-.14c-1.05-.52-2.11-.78-3.16-.78s-2.12.26-3.18.78l-.29.14v-9.56l.09-.06c1.13-.81,2.26-1.22,3.38-1.22s2.24.41,3.37,1.21l.08.07v9.56Z"/>
        <path class="cls-1" d="M13.95,12.15h-2.22c-.59,0-1.08.48-1.08,1.08v2.21c0,.6.49,1.08,1.08,1.08h2.22c.6,0,1.08-.48,1.08-1.08v-2.21c0-.6-.48-1.08-1.08-1.08ZM14.37,15.44c0,.23-.19.43-.42.43h-2.22c-.23,0-.42-.2-.42-.43v-2.21c0-.24.19-.43.42-.43h2.22c.23,0,.42.2.42.43v2.21Z"/>
        <path class="cls-1" d="M13.95,12.15h-2.22c-.59,0-1.08.48-1.08,1.08v2.21c0,.6.49,1.08,1.08,1.08h2.22c.6,0,1.08-.48,1.08-1.08v-2.21c0-.6-.48-1.08-1.08-1.08ZM14.37,15.44c0,.23-.19.43-.42.43h-2.22c-.23,0-.42-.2-.42-.43v-2.21c0-.24.19-.43.42-.43h2.22c.23,0,.42.2.42.43v2.21Z"/>
        <path class="cls-1" d="M23.68,12.15h-2.22c-.59,0-1.08.48-1.08,1.08v2.21c0,.6.49,1.08,1.08,1.08h2.22c.59,0,1.08-.48,1.08-1.08v-2.21c0-.6-.49-1.08-1.08-1.08ZM24.11,15.44c0,.23-.19.43-.42.43h-2.22c-.23,0-.42-.2-.42-.43v-2.21c0-.23.19-.43.42-.43h2.22c.23,0,.42.2.42.43v2.21Z"/>
        <path class="cls-1" d="M23.68,12.15h-2.22c-.59,0-1.08.48-1.08,1.08v2.21c0,.6.49,1.08,1.08,1.08h2.22c.59,0,1.08-.48,1.08-1.08v-2.21c0-.6-.49-1.08-1.08-1.08ZM24.11,15.44c0,.23-.19.43-.42.43h-2.22c-.23,0-.42-.2-.42-.43v-2.21c0-.23.19-.43.42-.43h2.22c.23,0,.42.2.42.43v2.21Z"/>
        <path class="cls-1" d="M33.42,12.15h-2.22c-.59,0-1.08.48-1.08,1.08v2.21c0,.6.49,1.08,1.08,1.08h2.22c.6,0,1.08-.48,1.08-1.08v-2.21c0-.6-.48-1.08-1.08-1.08ZM33.83,15.44c0,.23-.19.43-.42.43h-2.22c-.23,0-.42-.2-.42-.43v-2.21c0-.24.19-.43.42-.43h2.22c.23,0,.42.19.42.43v2.21Z"/>
        <path class="cls-1" d="M33.42,12.15h-2.22c-.59,0-1.08.48-1.08,1.08v2.21c0,.6.49,1.08,1.08,1.08h2.22c.6,0,1.08-.48,1.08-1.08v-2.21c0-.6-.48-1.08-1.08-1.08ZM33.83,15.44c0,.23-.19.43-.42.43h-2.22c-.23,0-.42-.2-.42-.43v-2.21c0-.24.19-.43.42-.43h2.22c.23,0,.42.19.42.43v2.21Z"/>
        <path class="cls-1" d="M13.95,19.36h-2.22c-.59,0-1.08.49-1.08,1.08v2.22c0,.6.49,1.08,1.08,1.08h2.22c.6,0,1.08-.48,1.08-1.08v-2.22c0-.59-.48-1.08-1.08-1.08ZM14.37,22.66c0,.23-.19.42-.42.42h-2.22c-.23,0-.42-.19-.42-.42v-2.22c0-.22.19-.42.42-.42h2.22c.23,0,.42.2.42.42v2.22Z"/>
        <path class="cls-1" d="M13.95,19.36h-2.22c-.59,0-1.08.49-1.08,1.08v2.22c0,.6.49,1.08,1.08,1.08h2.22c.6,0,1.08-.48,1.08-1.08v-2.22c0-.59-.48-1.08-1.08-1.08ZM14.37,22.66c0,.23-.19.42-.42.42h-2.22c-.23,0-.42-.19-.42-.42v-2.22c0-.22.19-.42.42-.42h2.22c.23,0,.42.2.42.42v2.22Z"/>
        <path class="cls-1" d="M23.68,19.36h-2.22c-.59,0-1.08.49-1.08,1.08v2.22c0,.6.49,1.08,1.08,1.08h2.22c.59,0,1.08-.48,1.08-1.08v-2.22c0-.59-.49-1.08-1.08-1.08ZM24.11,22.66c0,.24-.19.42-.42.42h-2.22c-.23,0-.42-.19-.42-.42v-2.22c0-.22.19-.42.42-.42h2.22c.23,0,.42.2.42.42v2.22Z"/>
        <path class="cls-1" d="M23.68,19.36h-2.22c-.59,0-1.08.49-1.08,1.08v2.22c0,.6.49,1.08,1.08,1.08h2.22c.59,0,1.08-.48,1.08-1.08v-2.22c0-.59-.49-1.08-1.08-1.08ZM24.11,22.66c0,.24-.19.42-.42.42h-2.22c-.23,0-.42-.19-.42-.42v-2.22c0-.22.19-.42.42-.42h2.22c.23,0,.42.2.42.42v2.22Z"/>
      </g>
    </g>
  </g>
</svg>