<?xml version="1.0" encoding="UTF-8"?>
<svg id="Layer_2" xmlns="http://www.w3.org/2000/svg" xmlns:xlink="http://www.w3.org/1999/xlink" viewBox="0 0 50 31">
  <defs>
    <style>
      .cls-1 {
        fill: #fff;
      }

      .cls-2 {
        fill: none;
      }

      .cls-3 {
        clip-path: url(#clippath);
      }
    </style>
    <clipPath id="clippath">
      <rect class="cls-2" width="50" height="31"/>
    </clipPath>
  </defs>
  <g id="Layer_1-2" data-name="Layer_1">
    <g class="cls-3">
      <g>
        <rect class="cls-1" x="19.36" y="14.03" width=".95" height="2.85"/>
        <rect class="cls-1" x="19.36" y="14.03" width=".95" height="2.85"/>
        <rect class="cls-1" x="19.36" y="7.89" width=".95" height="2.85"/>
        <rect class="cls-1" x="19.36" y="7.89" width=".95" height="2.85"/>
        <path class="cls-1" d="M34.83,4.02l-.17-.15c-1.23-1.11-2.8-1.72-4.42-1.72s-3.25.63-4.49,1.78l-.17.16L19.79.35l-9.99,5.09v25.02l10.03-6.25,10.34,6.44,10.03-6.02V.55l-5.37,3.47ZM30.24,3.1c3.13,0,5.68,2.54,5.68,5.67,0,.52-.07,1.03-.2,1.52-.06.2-.13.4-.19.56l-.17.39-5.12,9.45-5.11-9.46-.17-.37c-.07-.19-.14-.38-.19-.57-.14-.5-.21-1.01-.21-1.52.01-3.13,2.56-5.67,5.68-5.67ZM39.25,24.09l-8.53,5.13v-2.91h-.95v2.97l-9.32-5.81-.14-.09v-3.21h-.95v3.05l-.05.2-8.56,5.33V6.02L19.36,1.63v2.97h.95V1.82l4.62,2.98-.17.25c-.75,1.1-1.14,2.39-1.14,3.72,0,.6.08,1.2.24,1.78.06.22.13.44.21.65l.2.45,5.97,11.04,5.97-11.03.18-.42c.1-.23.17-.46.24-.69.16-.58.24-1.18.24-1.78,0-1.35-.42-2.66-1.2-3.78l-.18-.26,3.76-2.43v21.79Z"/>
        <path class="cls-1" d="M34.83,4.02l-.17-.15c-1.23-1.11-2.8-1.72-4.42-1.72s-3.25.63-4.49,1.78l-.17.16L19.79.35l-9.99,5.09v25.02l10.03-6.25,10.34,6.44,10.03-6.02V.55l-5.37,3.47ZM30.24,3.1c3.13,0,5.68,2.54,5.68,5.67,0,.52-.07,1.03-.2,1.52-.06.2-.13.4-.19.56l-.17.39-5.12,9.45-5.11-9.46-.17-.37c-.07-.19-.14-.38-.19-.57-.14-.5-.21-1.01-.21-1.52.01-3.13,2.56-5.67,5.68-5.67ZM39.25,24.09l-8.53,5.13v-2.91h-.95v2.97l-9.32-5.81-.14-.09v-3.21h-.95v3.05l-.05.2-8.56,5.33V6.02L19.36,1.63v2.97h.95V1.82l4.62,2.98-.17.25c-.75,1.1-1.14,2.39-1.14,3.72,0,.6.08,1.2.24,1.78.06.22.13.44.21.65l.2.45,5.97,11.04,5.97-11.03.18-.42c.1-.23.17-.46.24-.69.16-.58.24-1.18.24-1.78,0-1.35-.42-2.66-1.2-3.78l-.18-.26,3.76-2.43v21.79Z"/>
        <path class="cls-1" d="M30.24,5.95c-1.52,0-2.76,1.24-2.76,2.76s1.24,2.76,2.76,2.76,2.77-1.24,2.77-2.76-1.24-2.76-2.77-2.76ZM30.24,10.52c-1,0-1.81-.81-1.81-1.81s.81-1.81,1.81-1.81,1.82.81,1.82,1.81-.82,1.81-1.82,1.81Z"/>
        <path class="cls-1" d="M30.24,5.95c-1.52,0-2.76,1.24-2.76,2.76s1.24,2.76,2.76,2.76,2.77-1.24,2.77-2.76-1.24-2.76-2.77-2.76ZM30.24,10.52c-1,0-1.81-.81-1.81-1.81s.81-1.81,1.81-1.81,1.82.81,1.82,1.81-.82,1.81-1.82,1.81Z"/>
      </g>
    </g>
  </g>
</svg>