<?xml version="1.0" encoding="UTF-8"?>
<svg id="Layer_2" xmlns="http://www.w3.org/2000/svg" xmlns:xlink="http://www.w3.org/1999/xlink" viewBox="0 0 50 31">
  <defs>
    <style>
      .cls-1 {
        fill: #fff;
      }

      .cls-2 {
        fill: none;
      }

      .cls-3 {
        clip-path: url(#clippath);
      }
    </style>
    <clipPath id="clippath">
      <rect class="cls-2" width="50" height="31"/>
    </clipPath>
  </defs>
  <g id="Layer_1-2" data-name="Layer_1">
    <g class="cls-3">
      <path class="cls-1" d="M9.25,30.8c-.22,0-.41-.18-.41-.41V.61c0-.22.18-.41.41-.41h22.7c.22,0,.41.18.41.41v8.51c0,.22-.18.41-.41.41s-.41-.18-.41-.41V1.01H9.66v28.98h17.87l4.02-4.02v-5.51c0-.22.18-.41.41-.41s.41.18.41.41v5.67c0,.11-.04.21-.12.29l-4.25,4.26c-.08.08-.18.12-.29.12H9.25ZM13.51,22.29c-.22,0-.41-.18-.41-.41s.18-.41.41-.41h11.35c.22,0,.4.18.4.41s-.18.41-.41.41h-11.35ZM27.7,20.87c-.09,0-.17-.03-.24-.08-.12-.09-.18-.25-.16-.4l.57-3.12c.01-.06.04-.12.08-.17l10.21-13.62c.08-.1.2-.16.33-.16.09,0,.17.03.24.08l2.27,1.7c.09.07.14.16.16.27.02.11-.01.21-.07.3l-10.21,13.62c-.04.05-.09.09-.14.12l-2.83,1.42c-.06.03-.12.04-.18.04ZM28.67,17.47l-.36,1.87-.07.39,1.98-.99,9.95-13.24-1.62-1.21-9.88,13.18ZM13.51,17.56c-.22,0-.41-.18-.41-.41s.18-.41.41-.41h11.35c.22,0,.4.18.4.41s-.18.41-.41.41h-11.35ZM13.51,12.83c-.22,0-.41-.18-.41-.41s.18-.41.41-.41h14.19c.22,0,.41.18.41.41s-.18.41-.41.41h-14.19ZM13.51,8.1c-.22,0-.41-.18-.41-.41s.18-.41.41-.41h14.19c.22,0,.41.18.41.41s-.18.41-.41.41h-14.19Z"/>
    </g>
  </g>
</svg>