<?xml version="1.0" encoding="UTF-8"?>
<svg id="Layer_2" xmlns="http://www.w3.org/2000/svg" xmlns:xlink="http://www.w3.org/1999/xlink" viewBox="0 0 50 31">
  <defs>
    <style>
      .cls-1 {
        fill: #fff;
        fill-rule: evenodd;
      }

      .cls-2 {
        fill: none;
      }

      .cls-3 {
        clip-path: url(#clippath);
      }
    </style>
    <clipPath id="clippath">
      <rect class="cls-2" width="50" height="31"/>
    </clipPath>
  </defs>
  <g id="Layer_1-2" data-name="Layer_1">
    <g class="cls-3">
      <path class="cls-1" d="M32.35,30.9c-1.11,0-2.21-.29-3.18-.84-1.5-.85-2.62-2.3-3.06-3.97l-.02-.07H9.57c-.78,0-1.41-.64-1.41-1.41V3.52c0-.78.63-1.41,1.41-1.41h2.86v-.54c.01-.8.67-1.45,1.47-1.45.82.01,1.46.65,1.47,1.45v.53h4.99v-.54c.01-.8.67-1.45,1.47-1.45.82.01,1.46.65,1.47,1.45v.53h4.99v-.54c0-.81.66-1.47,1.47-1.47s1.47.66,1.47,1.47v.54h2.85c.74,0,1.35.56,1.41,1.3v.11s.12-.03.12-.03c.37-.08.75-.13,1.13-.13,1.36,0,2.64.53,3.6,1.49s1.49,2.24,1.49,3.6c0,2.81-2.29,5.09-5.09,5.09-.38,0-.75-.04-1.13-.13l-.12-.03v5.37l.05.03c3.1,1.76,4.2,5.72,2.44,8.82-1.15,2.02-3.31,3.28-5.64,3.28ZM32.36,26.65c-.79,0-1.54.23-2.2.67-.54.37-.99.87-1.29,1.45l-.04.07.07.05c.99.76,2.21,1.19,3.46,1.19s2.48-.42,3.46-1.19l.07-.05-.04-.07c-.3-.58-.75-1.08-1.29-1.45-.65-.44-1.41-.67-2.2-.67ZM32.36,18.79c-1.37,0-2.69.5-3.72,1.4-1.13.99-1.81,2.37-1.91,3.87-.1,1.5.39,2.96,1.39,4.09l.09.1.07-.12c.4-.67.97-1.24,1.64-1.64.74-.44,1.58-.67,2.43-.67,1.67,0,3.23.89,4.09,2.32l.07.12.09-.1c1.95-2.23,1.84-5.62-.25-7.71-1.07-1.07-2.48-1.65-3.99-1.65ZM8.98,24.6c0,.32.26.58.58.58h16.37v-.11c-.11-.95.01-1.92.33-2.82.92-2.57,3.37-4.3,6.1-4.3.74,0,1.47.13,2.17.38l.13.05v-5.26l-.06-.03c-1.77-.82-2.93-2.62-2.96-4.57v-.1H8.98v16.18ZM36.75,4.2c-1.14,0-2.21.44-3.02,1.25-.81.81-1.25,1.88-1.25,3.02s.44,2.21,1.25,3.02c.81.81,1.88,1.25,3.02,1.25s2.21-.44,3.02-1.25c.79-.79,1.25-1.89,1.25-3.02,0-1.12-.45-2.22-1.25-3.02-.81-.81-1.88-1.25-3.02-1.25ZM9.57,2.94c-.32,0-.58.26-.58.58v4.07h22.75l.02-.08c.31-1.61,1.38-2.99,2.87-3.67l.06-.03v-.29c0-.32-.26-.58-.58-.58h-2.85v.8c0,.81-.66,1.47-1.47,1.47s-1.47-.66-1.47-1.47v-.8h-4.99v.8c-.01.8-.65,1.44-1.45,1.45h0c-.82,0-1.48-.65-1.5-1.45v-.79h-4.99v.8c-.01.8-.65,1.44-1.45,1.45h0c-.82,0-1.48-.65-1.5-1.45v-.79h-2.86ZM29.76.93c-.17,0-.34.07-.46.19-.12.12-.19.29-.19.45v2.16c0,.36.29.65.65.65s.65-.29.65-.65V1.57c0-.17-.07-.34-.19-.46-.12-.12-.28-.19-.46-.19ZM21.83.93c-.17,0-.34.07-.46.19-.12.12-.19.28-.19.45v2.16c0,.36.29.65.65.65s.65-.29.65-.65V1.57c0-.17-.07-.34-.19-.46-.12-.12-.29-.19-.46-.19ZM13.89.93c-.17,0-.34.07-.46.19-.12.12-.19.28-.19.45v2.16c0,.36.29.65.65.65s.65-.29.65-.65V1.57c0-.17-.07-.34-.19-.46-.12-.12-.28-.19-.46-.19ZM32.37,25.3c-1.17,0-2.11-.95-2.12-2.11,0-.57.22-1.1.62-1.5.39-.39.94-.62,1.49-.62,1.17,0,2.12.95,2.12,2.11,0,1.17-.95,2.12-2.11,2.12h0ZM32.36,21.9c-.34,0-.67.13-.91.38-.24.24-.38.57-.38.91s.13.67.38.91c.24.24.56.38.91.38s.67-.13.91-.38.38-.57.38-.91-.13-.67-.38-.91c-.24-.24-.56-.38-.91-.38ZM12.33,22.43c-.23,0-.41-.19-.41-.41v-3.74c0-.23.19-.41.41-.41h3.74c.23,0,.41.19.41.41v3.74c0,.23-.19.41-.41.41h-3.74ZM12.74,21.6h2.91v-2.91h-2.91v2.91ZM19.96,22.43c-.23,0-.41-.19-.41-.41v-3.74c0-.23.19-.41.41-.41h3.74c.23,0,.41.19.41.41v3.74c0,.23-.19.41-.41.41h-3.74ZM20.37,21.6h2.91v-2.91h-2.91v2.91ZM27.59,15.92c-.23,0-.41-.19-.41-.41v-3.74c0-.23.19-.41.41-.41h3.74c.23,0,.41.19.41.41v3.74c0,.23-.19.41-.41.41h-3.74ZM28.01,15.09h2.91v-2.91h-2.91v2.91ZM19.96,15.92c-.23,0-.41-.19-.41-.41v-3.74c0-.23.19-.41.41-.41h3.74c.11,0,.21.04.29.12s.12.18.12.29v3.74c0,.23-.19.41-.41.41h-3.74ZM20.37,15.09h2.91v-2.91h-2.91v2.91ZM12.33,15.92c-.23,0-.41-.19-.41-.41v-3.74c0-.23.19-.41.41-.41h3.74c.23,0,.41.19.41.41v3.74c0,.23-.19.41-.41.41h-3.74ZM12.74,15.09h2.91v-2.91h-2.91v2.91ZM38.35,10.67c-.11,0-.22-.05-.3-.13l-1.57-1.67c-.09-.08-.14-.19-.14-.31v-3.21c0-.23.19-.41.42-.41.23,0,.41.19.41.41v3.01l1.48,1.61c.08.08.12.19.11.29,0,.11-.05.21-.13.29-.08.07-.18.11-.28.11Z"/>
    </g>
  </g>
</svg>