<?xml version="1.0" encoding="UTF-8"?>
<svg id="Layer_2" xmlns="http://www.w3.org/2000/svg" xmlns:xlink="http://www.w3.org/1999/xlink" viewBox="0 0 50 31">
  <defs>
    <style>
      .cls-1 {
        fill: #fff;
        fill-rule: evenodd;
      }

      .cls-2 {
        fill: none;
      }

      .cls-3 {
        clip-path: url(#clippath);
      }
    </style>
    <clipPath id="clippath">
      <rect class="cls-2" width="50" height="31"/>
    </clipPath>
  </defs>
  <g id="Layer_1-2" data-name="Layer_1">
    <g class="cls-3">
      <path class="cls-1" d="M41,30.8c-.11,0-.21-.04-.29-.1l-7.75-6.26h-13.68c-.86,0-1.56-.7-1.56-1.56v-2.97h-.68l-7.76,6.25c-.08.07-.18.1-.29.1-.07,0-.13-.02-.2-.05-.16-.08-.26-.24-.26-.41v-5.9h-2.9c-.86,0-1.56-.7-1.56-1.56V1.76c0-.86.7-1.56,1.56-1.56h25.08c.86,0,1.56.7,1.56,1.56v2.97h12.08c.86,0,1.56.7,1.56,1.56v16.59c0,.86-.7,1.56-1.56,1.56h-2.9v5.9c0,.11-.04.21-.1.29-.09.11-.22.17-.36.17ZM18.64,22.88c0,.35.29.64.64.64h13.84c.1,0,.21.04.29.1l7.13,5.75v-5.39c0-.25.21-.46.46-.46h3.36c.35,0,.64-.29.64-.64V6.29c0-.35-.29-.64-.64-.64h-12.08v12.7c0,.86-.7,1.56-1.56,1.56h-12.08v2.96ZM5.64,1.12c-.35,0-.64.29-.64.64v16.59c0,.35.29.64.64.64h3.36c.25,0,.46.21.46.46v5.39l7.13-5.75c.07-.06.16-.09.24-.1h13.89c.35,0,.64-.29.64-.64V1.76c0-.35-.29-.64-.64-.64H5.64ZM24.47,12.26c-1.21,0-2.2-.99-2.2-2.2s.99-2.2,2.2-2.2c1.21,0,2.2.99,2.2,2.2,0,1.21-.99,2.2-2.2,2.2ZM24.47,8.78c-.7,0-1.28.57-1.28,1.28,0,.7.57,1.28,1.28,1.28s1.28-.57,1.28-1.28-.57-1.28-1.28-1.28ZM11.89,12.26c-1.21,0-2.2-.99-2.2-2.2,0-1.21.99-2.2,2.2-2.2,1.21,0,2.2.99,2.2,2.2s-.99,2.2-2.2,2.2ZM11.89,8.78c-.7,0-1.28.57-1.28,1.28,0,.34.13.66.37.9.24.24.56.37.9.37.7,0,1.27-.57,1.28-1.28,0-.71-.57-1.28-1.28-1.28ZM18.18,12.26c-1.21,0-2.2-.99-2.2-2.2,0-1.21.99-2.2,2.2-2.2,1.21,0,2.19.99,2.2,2.2,0,1.21-.99,2.2-2.2,2.2h0ZM18.18,8.78c-.7,0-1.28.57-1.28,1.28,0,.7.57,1.28,1.28,1.28s1.28-.57,1.28-1.28c0-.7-.57-1.28-1.28-1.28Z"/>
    </g>
  </g>
</svg>