<?xml version="1.0" encoding="UTF-8"?>
<svg id="Layer_2" xmlns="http://www.w3.org/2000/svg" xmlns:xlink="http://www.w3.org/1999/xlink" viewBox="0 0 50 31">
  <defs>
    <style>
      .cls-1 {
        fill: #fff;
      }

      .cls-2 {
        fill: none;
      }

      .cls-3 {
        clip-path: url(#clippath);
      }
    </style>
    <clipPath id="clippath">
      <rect class="cls-2" width="50" height="31"/>
    </clipPath>
  </defs>
  <g id="Layer_1-2" data-name="Layer_1">
    <g class="cls-3">
      <g>
        <path class="cls-1" d="M35.54.3h-19.22c-1.2,0-2.18.97-2.18,2.17v2.93h-1.54c-.17,0-.32.15-.32.32s.15.32.32.32h1.54v2.01h-1.54c-.17,0-.32.15-.32.32,0,.18.14.32.32.32h1.54v5.16h-1.54c-.17,0-.32.15-.32.32s.15.32.32.32h1.54v2.01h-1.54c-.17,0-.32.15-.32.32s.15.32.32.32h1.54v5.16h-1.54c-.17,0-.32.15-.32.32s.15.32.32.32h1.54v2.01h-1.54c-.17,0-.32.15-.32.32s.15.32.32.32h1.54v2.94c0,1.2.98,2.17,2.18,2.17h19.23c1.2,0,2.17-.97,2.17-2.17V2.47c0-1.2-.98-2.17-2.18-2.17ZM37.08,28.52c0,.84-.69,1.53-1.54,1.53h-19.22c-.85,0-1.54-.69-1.54-1.53v-2.93h1.54c.17,0,.32-.15.32-.32,0-.18-.14-.32-.32-.32h-1.54v-2.01h1.54c.17,0,.32-.15.32-.32s-.15-.32-.32-.32h-1.54v-5.16h1.54c.17,0,.32-.15.32-.32s-.15-.32-.32-.32h-1.54v-2.01h1.54c.17,0,.32-.15.32-.32s-.15-.32-.32-.32h-1.54v-5.16h1.54c.18,0,.32-.14.32-.32,0-.17-.15-.32-.32-.32h-1.54v-2.01h1.54c.17,0,.32-.15.32-.32s-.15-.32-.32-.32h-1.54v-2.93c0-.84.69-1.53,1.54-1.53h19.23c.84,0,1.53.69,1.53,1.53v26.05Z"/>
        <path class="cls-1" d="M35.54.3h-19.22c-1.2,0-2.18.97-2.18,2.17v2.93h-1.54c-.17,0-.32.15-.32.32s.15.32.32.32h1.54v2.01h-1.54c-.17,0-.32.15-.32.32,0,.18.14.32.32.32h1.54v5.16h-1.54c-.17,0-.32.15-.32.32s.15.32.32.32h1.54v2.01h-1.54c-.17,0-.32.15-.32.32s.15.32.32.32h1.54v5.16h-1.54c-.17,0-.32.15-.32.32s.15.32.32.32h1.54v2.01h-1.54c-.17,0-.32.15-.32.32s.15.32.32.32h1.54v2.94c0,1.2.98,2.17,2.18,2.17h19.23c1.2,0,2.17-.97,2.17-2.17V2.47c0-1.2-.98-2.17-2.18-2.17ZM37.08,28.52c0,.84-.69,1.53-1.54,1.53h-19.22c-.85,0-1.54-.69-1.54-1.53v-2.93h1.54c.17,0,.32-.15.32-.32,0-.18-.14-.32-.32-.32h-1.54v-2.01h1.54c.17,0,.32-.15.32-.32s-.15-.32-.32-.32h-1.54v-5.16h1.54c.17,0,.32-.15.32-.32s-.15-.32-.32-.32h-1.54v-2.01h1.54c.17,0,.32-.15.32-.32s-.15-.32-.32-.32h-1.54v-5.16h1.54c.18,0,.32-.14.32-.32,0-.17-.15-.32-.32-.32h-1.54v-2.01h1.54c.17,0,.32-.15.32-.32s-.15-.32-.32-.32h-1.54v-2.93c0-.84.69-1.53,1.54-1.53h19.23c.84,0,1.53.69,1.53,1.53v26.05Z"/>
        <path class="cls-1" d="M35.54.3h-19.22c-1.2,0-2.18.97-2.18,2.17v2.93h-1.54c-.17,0-.32.15-.32.32s.15.32.32.32h1.54v2.01h-1.54c-.17,0-.32.15-.32.32,0,.18.14.32.32.32h1.54v5.16h-1.54c-.17,0-.32.15-.32.32s.15.32.32.32h1.54v2.01h-1.54c-.17,0-.32.15-.32.32s.15.32.32.32h1.54v5.16h-1.54c-.17,0-.32.15-.32.32s.15.32.32.32h1.54v2.01h-1.54c-.17,0-.32.15-.32.32s.15.32.32.32h1.54v2.94c0,1.2.98,2.17,2.18,2.17h19.23c1.2,0,2.17-.97,2.17-2.17V2.47c0-1.2-.98-2.17-2.18-2.17ZM37.08,28.52c0,.84-.69,1.53-1.54,1.53h-19.22c-.85,0-1.54-.69-1.54-1.53v-2.93h1.54c.17,0,.32-.15.32-.32,0-.18-.14-.32-.32-.32h-1.54v-2.01h1.54c.17,0,.32-.15.32-.32s-.15-.32-.32-.32h-1.54v-5.16h1.54c.17,0,.32-.15.32-.32s-.15-.32-.32-.32h-1.54v-2.01h1.54c.17,0,.32-.15.32-.32s-.15-.32-.32-.32h-1.54v-5.16h1.54c.18,0,.32-.14.32-.32,0-.17-.15-.32-.32-.32h-1.54v-2.01h1.54c.17,0,.32-.15.32-.32s-.15-.32-.32-.32h-1.54v-2.93c0-.84.69-1.53,1.54-1.53h19.23c.84,0,1.53.69,1.53,1.53v26.05Z"/>
        <path class="cls-1" d="M35.54.3h-19.22c-1.2,0-2.18.97-2.18,2.17v2.93h-1.54c-.17,0-.32.15-.32.32s.15.32.32.32h1.54v2.01h-1.54c-.17,0-.32.15-.32.32,0,.18.14.32.32.32h1.54v5.16h-1.54c-.17,0-.32.15-.32.32s.15.32.32.32h1.54v2.01h-1.54c-.17,0-.32.15-.32.32s.15.32.32.32h1.54v5.16h-1.54c-.17,0-.32.15-.32.32s.15.32.32.32h1.54v2.01h-1.54c-.17,0-.32.15-.32.32s.15.32.32.32h1.54v2.94c0,1.2.98,2.17,2.18,2.17h19.23c1.2,0,2.17-.97,2.17-2.17V2.47c0-1.2-.98-2.17-2.18-2.17ZM37.08,28.52c0,.84-.69,1.53-1.54,1.53h-19.22c-.85,0-1.54-.69-1.54-1.53v-2.93h1.54c.17,0,.32-.15.32-.32,0-.18-.14-.32-.32-.32h-1.54v-2.01h1.54c.17,0,.32-.15.32-.32s-.15-.32-.32-.32h-1.54v-5.16h1.54c.17,0,.32-.15.32-.32s-.15-.32-.32-.32h-1.54v-2.01h1.54c.17,0,.32-.15.32-.32s-.15-.32-.32-.32h-1.54v-5.16h1.54c.18,0,.32-.14.32-.32,0-.17-.15-.32-.32-.32h-1.54v-2.01h1.54c.17,0,.32-.15.32-.32s-.15-.32-.32-.32h-1.54v-2.93c0-.84.69-1.53,1.54-1.53h19.23c.84,0,1.53.69,1.53,1.53v26.05Z"/>
        <path class="cls-1" d="M26.55,11.98c-3.11,0-3.54,1.96-3.54,4.08,0,2.51,1.56,4.47,3.54,4.47s3.54-1.96,3.54-4.47c0-2.12-.43-4.08-3.54-4.08ZM26.55,19.89c-1.63,0-2.9-1.68-2.9-3.83,0-2.54.76-3.44,2.9-3.44s2.9.87,2.9,3.44c0,2.15-1.27,3.83-2.9,3.83Z"/>
        <path class="cls-1" d="M26.55,11.98c-3.11,0-3.54,1.96-3.54,4.08,0,2.51,1.56,4.47,3.54,4.47s3.54-1.96,3.54-4.47c0-2.12-.43-4.08-3.54-4.08ZM26.55,19.89c-1.63,0-2.9-1.68-2.9-3.83,0-2.54.76-3.44,2.9-3.44s2.9.87,2.9,3.44c0,2.15-1.27,3.83-2.9,3.83Z"/>
        <path class="cls-1" d="M26.55,11.98c-3.11,0-3.54,1.96-3.54,4.08,0,2.51,1.56,4.47,3.54,4.47s3.54-1.96,3.54-4.47c0-2.12-.43-4.08-3.54-4.08ZM26.55,19.89c-1.63,0-2.9-1.68-2.9-3.83,0-2.54.76-3.44,2.9-3.44s2.9.87,2.9,3.44c0,2.15-1.27,3.83-2.9,3.83Z"/>
        <path class="cls-1" d="M26.55,11.98c-3.11,0-3.54,1.96-3.54,4.08,0,2.51,1.56,4.47,3.54,4.47s3.54-1.96,3.54-4.47c0-2.12-.43-4.08-3.54-4.08ZM26.55,19.89c-1.63,0-2.9-1.68-2.9-3.83,0-2.54.76-3.44,2.9-3.44s2.9.87,2.9,3.44c0,2.15-1.27,3.83-2.9,3.83Z"/>
        <path class="cls-1" d="M30.42,20.85s-.12-.04-.17-.04c-.08,0-.16.03-.22.09-.98.96-2.18,1.47-3.48,1.47s-2.51-.51-3.49-1.48c-.04-.05-.12-.08-.21-.08-.05,0-.11.01-.16.04-1.96,1.08-2.95,2.86-2.95,5.3,0,.17.15.32.32.32h12.98c.17,0,.32-.15.32-.32,0-2.44-.99-4.22-2.94-5.3ZM20.38,25.83l.03-.33c.14-1.73.86-2.99,2.19-3.85l.18-.14.18.15c1.02.87,2.29,1.35,3.59,1.35s2.57-.48,3.59-1.35l.18-.15.17.14c1.34.86,2.06,2.12,2.2,3.85l.03.33h-12.34Z"/>
        <path class="cls-1" d="M30.42,20.85s-.12-.04-.17-.04c-.08,0-.16.03-.22.09-.98.96-2.18,1.47-3.48,1.47s-2.51-.51-3.49-1.48c-.04-.05-.12-.08-.21-.08-.05,0-.11.01-.16.04-1.96,1.08-2.95,2.86-2.95,5.3,0,.17.15.32.32.32h12.98c.17,0,.32-.15.32-.32,0-2.44-.99-4.22-2.94-5.3ZM20.38,25.83l.03-.33c.14-1.73.86-2.99,2.19-3.85l.18-.14.18.15c1.02.87,2.29,1.35,3.59,1.35s2.57-.48,3.59-1.35l.18-.15.17.14c1.34.86,2.06,2.12,2.2,3.85l.03.33h-12.34Z"/>
        <path class="cls-1" d="M30.42,20.85s-.12-.04-.17-.04c-.08,0-.16.03-.22.09-.98.96-2.18,1.47-3.48,1.47s-2.51-.51-3.49-1.48c-.04-.05-.12-.08-.21-.08-.05,0-.11.01-.16.04-1.96,1.08-2.95,2.86-2.95,5.3,0,.17.15.32.32.32h12.98c.17,0,.32-.15.32-.32,0-2.44-.99-4.22-2.94-5.3ZM20.38,25.83l.03-.33c.14-1.73.86-2.99,2.19-3.85l.18-.14.18.15c1.02.87,2.29,1.35,3.59,1.35s2.57-.48,3.59-1.35l.18-.15.17.14c1.34.86,2.06,2.12,2.2,3.85l.03.33h-12.34Z"/>
        <path class="cls-1" d="M30.42,20.85s-.12-.04-.17-.04c-.08,0-.16.03-.22.09-.98.96-2.18,1.47-3.48,1.47s-2.51-.51-3.49-1.48c-.04-.05-.12-.08-.21-.08-.05,0-.11.01-.16.04-1.96,1.08-2.95,2.86-2.95,5.3,0,.17.15.32.32.32h12.98c.17,0,.32-.15.32-.32,0-2.44-.99-4.22-2.94-5.3ZM20.38,25.83l.03-.33c.14-1.73.86-2.99,2.19-3.85l.18-.14.18.15c1.02.87,2.29,1.35,3.59,1.35s2.57-.48,3.59-1.35l.18-.15.17.14c1.34.86,2.06,2.12,2.2,3.85l.03.33h-12.34Z"/>
        <path class="cls-1" d="M32.88,4.53h-12.66c-.17,0-.32.15-.32.32v4.15c0,.18.14.32.32.32h12.66c.18,0,.32-.14.32-.32v-4.15c0-.18-.14-.32-.32-.32ZM32.56,8.67h-12.02v-3.5h12.02v3.5Z"/>
        <path class="cls-1" d="M32.88,4.53h-12.66c-.17,0-.32.15-.32.32v4.15c0,.18.14.32.32.32h12.66c.18,0,.32-.14.32-.32v-4.15c0-.18-.14-.32-.32-.32ZM32.56,8.67h-12.02v-3.5h12.02v3.5Z"/>
        <path class="cls-1" d="M32.88,4.53h-12.66c-.17,0-.32.15-.32.32v4.15c0,.18.14.32.32.32h12.66c.18,0,.32-.14.32-.32v-4.15c0-.18-.14-.32-.32-.32ZM32.56,8.67h-12.02v-3.5h12.02v3.5Z"/>
        <path class="cls-1" d="M32.88,4.53h-12.66c-.17,0-.32.15-.32.32v4.15c0,.18.14.32.32.32h12.66c.18,0,.32-.14.32-.32v-4.15c0-.18-.14-.32-.32-.32ZM32.56,8.67h-12.02v-3.5h12.02v3.5Z"/>
      </g>
    </g>
  </g>
</svg>