<?xml version="1.0" encoding="UTF-8"?>
<svg id="Layer_2" xmlns="http://www.w3.org/2000/svg" xmlns:xlink="http://www.w3.org/1999/xlink" viewBox="0 0 50 31">
  <defs>
    <style>
      .cls-1 {
        fill: #fff;
      }

      .cls-2 {
        fill: none;
      }

      .cls-3 {
        clip-path: url(#clippath);
      }
    </style>
    <clipPath id="clippath">
      <rect class="cls-2" width="50" height="31"/>
    </clipPath>
  </defs>
  <g id="Layer_1-2" data-name="Layer_1">
    <g class="cls-3">
      <g>
        <path class="cls-1" d="M37.42,5.45c-.09-.21-.23-.41-.41-.59l-4.02-4.03c-.19-.18-.4-.33-.55-.41h-.21v-.07c-.25-.1-.5-.15-.76-.15h-13.12c-1.12,0-2.03.91-2.03,2.03v1.94h-1.94c-1.12,0-2.03.91-2.03,2.03v22.58c0,1.11.91,2.02,2.03,2.02h17.14c1.19,0,2.15-.96,2.15-2.14v-1.83h1.83c1.18,0,2.15-.97,2.15-2.15V6.38c-.01-.32-.09-.65-.23-.93ZM32.51,1.12l4.17,4.17h-3.63c-.29,0-.54-.25-.54-.54V1.12ZM33.13,28.87h-.02c-.09.79-.77,1.41-1.59,1.41H14.38c-.82,0-1.49-.67-1.49-1.49V6.22c0-.82.67-1.49,1.49-1.49h13.11c.12,0,.23.01.35.04l.16.03v3.93c0,.6.49,1.08,1.08,1.08h3.96l.04.15c.03.15.05.28.05.4v18.51ZM28.54,8.73v-3.63l4.16,4.17h-3.62c-.3,0-.54-.25-.54-.54ZM37.1,24.7c0,.88-.72,1.6-1.6,1.6h-1.83v-15.94c0-.33-.08-.64-.22-.94-.09-.2-.23-.4-.41-.58l-4.03-4.03c-.18-.17-.39-.32-.63-.43-.28-.13-.58-.2-.89-.2h-10.63v-1.94c0-.82.67-1.49,1.49-1.49h13.12c.13,0,.25.02.35.04l.16.04v3.93c0,.59.48,1.07,1.08,1.07h3.95l.04.16c.04.14.05.27.05.4v18.31Z"/>
        <path class="cls-1" d="M37.42,5.45c-.09-.21-.23-.41-.41-.59l-4.02-4.03c-.19-.18-.4-.33-.55-.41h-.21v-.07c-.25-.1-.5-.15-.76-.15h-13.12c-1.12,0-2.03.91-2.03,2.03v1.94h-1.94c-1.12,0-2.03.91-2.03,2.03v22.58c0,1.11.91,2.02,2.03,2.02h17.14c1.19,0,2.15-.96,2.15-2.14v-1.83h1.83c1.18,0,2.15-.97,2.15-2.15V6.38c-.01-.32-.09-.65-.23-.93ZM32.51,1.12l4.17,4.17h-3.63c-.29,0-.54-.25-.54-.54V1.12ZM33.13,28.87h-.02c-.09.79-.77,1.41-1.59,1.41H14.38c-.82,0-1.49-.67-1.49-1.49V6.22c0-.82.67-1.49,1.49-1.49h13.11c.12,0,.23.01.35.04l.16.03v3.93c0,.6.49,1.08,1.08,1.08h3.96l.04.15c.03.15.05.28.05.4v18.51ZM28.54,8.73v-3.63l4.16,4.17h-3.62c-.3,0-.54-.25-.54-.54ZM37.1,24.7c0,.88-.72,1.6-1.6,1.6h-1.83v-15.94c0-.33-.08-.64-.22-.94-.09-.2-.23-.4-.41-.58l-4.03-4.03c-.18-.17-.39-.32-.63-.43-.28-.13-.58-.2-.89-.2h-10.63v-1.94c0-.82.67-1.49,1.49-1.49h13.12c.13,0,.25.02.35.04l.16.04v3.93c0,.59.48,1.07,1.08,1.07h3.95l.04.16c.04.14.05.27.05.4v18.31Z"/>
        <path class="cls-1" d="M19.47,7.32h-2.86c-.66,0-1.21.54-1.21,1.2v2.86c0,.66.55,1.2,1.21,1.2h2.86c.66,0,1.2-.54,1.2-1.2v-2.86c0-.66-.54-1.2-1.2-1.2ZM20.14,11.38c0,.37-.3.67-.67.67h-2.86c-.37,0-.67-.3-.67-.67v-2.86c0-.37.3-.67.67-.67h2.86c.37,0,.67.3.67.67v2.86Z"/>
        <path class="cls-1" d="M19.47,7.32h-2.86c-.66,0-1.21.54-1.21,1.2v2.86c0,.66.55,1.2,1.21,1.2h2.86c.66,0,1.2-.54,1.2-1.2v-2.86c0-.66-.54-1.2-1.2-1.2ZM20.14,11.38c0,.37-.3.67-.67.67h-2.86c-.37,0-.67-.3-.67-.67v-2.86c0-.37.3-.67.67-.67h2.86c.37,0,.67.3.67.67v2.86Z"/>
        <path class="cls-1" d="M19.47,14.86h-2.86c-.66,0-1.21.55-1.21,1.21v2.86c0,.66.55,1.2,1.21,1.2h2.86c.66,0,1.2-.54,1.2-1.2v-2.86c0-.66-.54-1.21-1.2-1.21ZM20.14,18.93c0,.36-.3.66-.67.66h-2.86c-.37,0-.67-.3-.67-.66v-2.86c0-.37.3-.67.67-.67h2.86c.37,0,.67.3.67.67v2.86Z"/>
        <path class="cls-1" d="M19.47,14.86h-2.86c-.66,0-1.21.55-1.21,1.21v2.86c0,.66.55,1.2,1.21,1.2h2.86c.66,0,1.2-.54,1.2-1.2v-2.86c0-.66-.54-1.21-1.2-1.21ZM20.14,18.93c0,.36-.3.66-.67.66h-2.86c-.37,0-.67-.3-.67-.66v-2.86c0-.37.3-.67.67-.67h2.86c.37,0,.67.3.67.67v2.86Z"/>
        <path class="cls-1" d="M19.47,22.41h-2.86c-.66,0-1.21.54-1.21,1.21v2.85c0,.67.55,1.21,1.21,1.21h2.86c.66,0,1.2-.54,1.2-1.21v-2.85c0-.67-.54-1.21-1.2-1.21ZM20.14,26.48c0,.37-.3.67-.67.67h-2.86c-.37,0-.67-.3-.67-.67v-2.86c0-.37.3-.67.67-.67h2.86c.37,0,.67.3.67.67v2.86Z"/>
        <path class="cls-1" d="M19.47,22.41h-2.86c-.66,0-1.21.54-1.21,1.21v2.85c0,.67.55,1.21,1.21,1.21h2.86c.66,0,1.2-.54,1.2-1.21v-2.85c0-.67-.54-1.21-1.2-1.21ZM20.14,26.48c0,.37-.3.67-.67.67h-2.86c-.37,0-.67-.3-.67-.67v-2.86c0-.37.3-.67.67-.67h2.86c.37,0,.67.3.67.67v2.86Z"/>
        <path class="cls-1" d="M19.31,9.39l-1.5,1.5s-.11.08-.19.08c-.05,0-.12-.02-.18-.08l-.67-.67s-.08-.11-.08-.19c0-.07.03-.13.08-.19.05-.05.12-.07.19-.07s.14.02.19.07l.47.48,1.31-1.31c.05-.05.12-.08.19-.08s.14.03.19.08c.11.11.11.27,0,.38Z"/>
        <path class="cls-1" d="M19.31,9.39l-1.5,1.5s-.11.08-.19.08c-.05,0-.12-.02-.18-.08l-.67-.67s-.08-.11-.08-.19c0-.07.03-.13.08-.19.05-.05.12-.07.19-.07s.14.02.19.07l.47.48,1.31-1.31c.05-.05.12-.08.19-.08s.14.03.19.08c.11.11.11.27,0,.38Z"/>
        <path class="cls-1" d="M19.31,24.49l-1.5,1.49s-.12.08-.19.08-.13-.03-.19-.08l-.66-.66c-.1-.11-.1-.27,0-.38.05-.05.12-.08.19-.08s.14.03.19.08l.47.47,1.31-1.3c.05-.05.12-.08.19-.08s.14.03.19.08c.11.1.11.27,0,.38Z"/>
        <path class="cls-1" d="M19.31,24.49l-1.5,1.49s-.12.08-.19.08-.13-.03-.19-.08l-.66-.66c-.1-.11-.1-.27,0-.38.05-.05.12-.08.19-.08s.14.03.19.08l.47.47,1.31-1.3c.05-.05.12-.08.19-.08s.14.03.19.08c.11.1.11.27,0,.38Z"/>
        <path class="cls-1" d="M19.08,18.16c.11.11.11.28,0,.38-.05.06-.11.08-.19.08-.07,0-.13-.02-.19-.08l-.66-.66-.67.66c-.05.06-.11.08-.19.08-.07,0-.13-.03-.18-.08-.11-.1-.11-.27,0-.38l.66-.66-.66-.67c-.06-.05-.08-.11-.08-.19,0-.07.02-.14.08-.19.05-.05.11-.07.18-.07.08,0,.14.02.2.07l.66.67.66-.67s.12-.07.19-.07.14.02.19.07c.11.11.11.28,0,.38l-.66.67.66.66Z"/>
        <path class="cls-1" d="M19.08,18.16c.11.11.11.28,0,.38-.05.06-.11.08-.19.08-.07,0-.13-.02-.19-.08l-.66-.66-.67.66c-.05.06-.11.08-.19.08-.07,0-.13-.03-.18-.08-.11-.1-.11-.27,0-.38l.66-.66-.66-.67c-.06-.05-.08-.11-.08-.19,0-.07.02-.14.08-.19.05-.05.11-.07.18-.07.08,0,.14.02.2.07l.66.67.66-.67s.12-.07.19-.07.14.02.19.07c.11.11.11.28,0,.38l-.66.67.66.66Z"/>
        <path class="cls-1" d="M26.21,8.94c0,.15-.12.27-.27.27h-4.01c-.15,0-.27-.12-.27-.27s.12-.27.27-.27h4.01c.15,0,.27.12.27.27Z"/>
        <path class="cls-1" d="M26.21,8.94c0,.15-.12.27-.27.27h-4.01c-.15,0-.27-.12-.27-.27s.12-.27.27-.27h4.01c.15,0,.27.12.27.27Z"/>
        <path class="cls-1" d="M27.64,10.96c0,.15-.12.27-.27.27h-5.44c-.15,0-.27-.12-.27-.27s.12-.27.27-.27h5.44c.15.01.27.13.27.27Z"/>
        <path class="cls-1" d="M27.64,10.96c0,.15-.12.27-.27.27h-5.44c-.15,0-.27-.12-.27-.27s.12-.27.27-.27h5.44c.15.01.27.13.27.27Z"/>
        <path class="cls-1" d="M30.46,24.04c0,.14-.12.26-.27.26h-8.26c-.15,0-.27-.12-.27-.27s.12-.27.27-.27h8.26c.14,0,.27.13.27.28Z"/>
        <path class="cls-1" d="M30.46,24.04c0,.14-.12.26-.27.26h-8.26c-.15,0-.27-.12-.27-.27s.12-.27.27-.27h8.26c.14,0,.27.13.27.28Z"/>
        <path class="cls-1" d="M30.46,26.07c0,.14-.12.26-.27.26h-5.46c-.15,0-.27-.12-.27-.27,0-.14.12-.26.27-.26h5.46c.15,0,.27.12.27.27Z"/>
        <path class="cls-1" d="M30.46,26.07c0,.14-.12.26-.27.26h-5.46c-.15,0-.27-.12-.27-.27,0-.14.12-.26.27-.26h5.46c.15,0,.27.12.27.27Z"/>
        <path class="cls-1" d="M23.43,26.06c0,.15-.12.27-.26.27h-1.24c-.15,0-.27-.12-.27-.27,0-.14.12-.26.27-.26h1.24c.14,0,.26.12.26.26Z"/>
        <path class="cls-1" d="M23.43,26.06c0,.15-.12.27-.26.27h-1.24c-.15,0-.27-.12-.27-.27,0-.14.12-.26.27-.26h1.24c.14,0,.26.12.26.26Z"/>
        <path class="cls-1" d="M30.45,16.49c0,.14-.12.26-.26.26h-1.15c-.15,0-.27-.12-.27-.26,0-.15.12-.27.27-.27h1.15c.14,0,.26.12.26.27Z"/>
        <path class="cls-1" d="M30.45,16.49c0,.14-.12.26-.26.26h-1.15c-.15,0-.27-.12-.27-.26,0-.15.12-.27.27-.27h1.15c.14,0,.26.12.26.27Z"/>
        <path class="cls-1" d="M27.91,16.49c0,.15-.12.27-.27.27h-5.71c-.15,0-.27-.12-.27-.27s.12-.27.27-.27h5.71c.14,0,.27.12.27.27Z"/>
        <path class="cls-1" d="M27.91,16.49c0,.15-.12.27-.27.27h-5.71c-.15,0-.27-.12-.27-.27s.12-.27.27-.27h5.71c.14,0,.27.12.27.27Z"/>
        <path class="cls-1" d="M30.46,18.51c0,.15-.12.27-.27.27h-8.26c-.15,0-.27-.12-.27-.27s.12-.27.27-.27h8.26c.14,0,.27.12.27.27Z"/>
        <path class="cls-1" d="M30.46,18.51c0,.15-.12.27-.27.27h-8.26c-.15,0-.27-.12-.27-.27s.12-.27.27-.27h8.26c.14,0,.27.12.27.27Z"/>
      </g>
    </g>
  </g>
</svg>