<?xml version="1.0" encoding="UTF-8"?>
<svg id="Layer_2" xmlns="http://www.w3.org/2000/svg" xmlns:xlink="http://www.w3.org/1999/xlink" viewBox="0 0 50 31">
  <defs>
    <style>
      .cls-1 {
        fill: #fff;
        fill-rule: evenodd;
      }

      .cls-2 {
        fill: none;
      }

      .cls-3 {
        clip-path: url(#clippath);
      }
    </style>
    <clipPath id="clippath">
      <rect class="cls-2" width="50" height="31"/>
    </clipPath>
  </defs>
  <g id="Layer_1-2" data-name="Layer_1">
    <g class="cls-3">
      <path class="cls-1" d="M28.92,30.8c-.96,0-1.74-.78-1.74-1.74v-9.65c0-.96.78-1.74,1.74-1.74h9.65c.96,0,1.74.78,1.74,1.74v9.65c0,.96-.78,1.74-1.74,1.74h-9.65ZM33.73,25.89c1.47,0,2.86.57,3.91,1.61.27.27.4.59.4.97v1.79h.36c.35,0,.67-.03,1-.35.23-.23.35-.53.35-.85v-9.65c0-.66-.54-1.2-1.2-1.2h-9.65c-.66,0-1.2.54-1.2,1.2v9.65c0,.66.54,1.2,1.2,1.2h.51v-1.79c0-.38.14-.71.41-.98,1.04-1.03,2.43-1.6,3.89-1.6ZM33.73,26.43c-1.33,0-2.57.51-3.52,1.44-.17.16-.25.36-.25.6v1.79h7.55v-1.79c0-.23-.09-.43-.25-.59-.95-.94-2.2-1.46-3.53-1.46ZM33.74,24.82c-1.35,0-2.45-1.1-2.45-2.45s1.1-2.45,2.45-2.45,2.44,1.1,2.44,2.45-1.1,2.45-2.44,2.45ZM33.76,20.47c-.92,0-1.92.73-1.92,1.91s1,1.91,1.92,1.91h0c.5,0,.97-.2,1.33-.56.36-.36.56-.84.56-1.35s-.2-.99-.56-1.35c-.36-.36-.83-.56-1.33-.56ZM11.73,24.65c-1.12,0-2.03-.91-2.03-2.03V4.43c0-1.12.91-2.03,2.03-2.03h2.24v-1.05c0-.63.52-1.15,1.15-1.15h.45c.63,0,1.15.52,1.15,1.15v2.71c0,.63-.52,1.15-1.15,1.15h-.45c-.63,0-1.15-.52-1.15-1.15v-1.11h-2.24c-.82,0-1.49.67-1.49,1.49v2.76h23.96v-2.76c0-.82-.67-1.49-1.49-1.49h-1.01c-.15,0-.27-.12-.27-.27s.12-.27.27-.27h1.01c1.12,0,2.03.91,2.03,2.03v11.9c-.02.13-.13.23-.27.23-.15,0-.27-.12-.27-.27V7.73H10.24v14.89c0,.82.67,1.49,1.49,1.49h14.06c.15,0,.27.12.27.27s-.12.27-.27.27h-14.06ZM15.12.74c-.34,0-.61.27-.61.61v2.71c0,.34.27.61.61.61h.45c.34,0,.61-.27.61-.61V1.35c0-.34-.27-.61-.61-.61h-.45ZM20.22,21.78c-.15,0-.27-.12-.27-.27v-3.99c0-.15.12-.27.27-.27h3.99c.15,0,.27.12.27.27v3.99c0,.15-.12.27-.27.27h-3.99ZM20.5,21.24h3.44v-3.45h-3.44v3.45ZM12.65,21.78c-.15,0-.27-.12-.27-.27v-3.99c0-.15.12-.27.27-.27h3.98c.15,0,.27.12.27.27v3.99c0,.15-.12.27-.27.27h-3.98ZM12.92,21.24h3.45v-3.45h-3.45v3.45ZM27.79,14.59c-.15,0-.27-.12-.27-.27v-3.99c0-.15.12-.27.27-.27h3.99c.15,0,.27.12.27.27v3.99c0,.15-.12.27-.27.27h-3.99ZM28.06,14.05h3.45v-3.45h-3.45v3.45ZM20.23,14.59c-.15,0-.27-.12-.27-.27v-3.99c0-.15.12-.27.27-.27h3.88l.16-.16c.13-.14.49-.5.57-.55.04-.02.09-.04.14-.04.12,0,.21.09.24.17.02.05.06.18-.06.29l-2.75,2.75c-.05.05-.12.08-.19.08s-.14-.03-.19-.08c-.1-.1-.1-.28,0-.38l1.54-1.54h-3.07v3.45h3.45v-1.38c0-.15.12-.27.27-.27s.27.12.27.27v1.66c0,.15-.12.27-.27.27h-3.99ZM12.65,14.59c-.15,0-.27-.12-.27-.27v-3.99c0-.15.12-.27.27-.27h3.88l.17-.18c.13-.13.48-.49.56-.54.04-.02.08-.03.13-.03.07,0,.14.03.19.08.1.1.1.28,0,.38l-2.75,2.75c-.05.05-.12.08-.19.08s-.14-.03-.19-.08c-.11-.1-.11-.28,0-.38l1.54-1.54h-3.07v3.45h3.46v-1.38c0-.15.12-.27.27-.27s.27.12.27.27v1.66c0,.15-.12.27-.27.27h-3.99ZM28.7,5.2c-.63,0-1.15-.52-1.15-1.15v-1.11h-2.65c-.15,0-.27-.12-.27-.27s.12-.27.27-.27h2.65v-1.05c0-.63.52-1.15,1.15-1.15h.45c.63,0,1.15.52,1.15,1.15v2.7c0,.63-.52,1.15-1.15,1.15h-.45ZM28.7.74c-.34,0-.61.27-.61.61v2.71c0,.34.27.61.61.61h.45c.34,0,.61-.27.61-.61V1.35c0-.34-.27-.61-.61-.61h-.45ZM21.91,5.2c-.63,0-1.15-.52-1.15-1.15v-1.11h-2.65c-.15,0-.27-.12-.27-.27s.12-.27.27-.27h2.65v-1.05c0-.63.52-1.15,1.15-1.15h.45c.63,0,1.15.52,1.15,1.15v2.7c0,.63-.52,1.15-1.15,1.15h-.45ZM21.91.74c-.34,0-.61.27-.61.61v2.71c0,.34.27.61.61.61h.45c.34,0,.61-.27.61-.61V1.35c0-.34-.27-.61-.61-.61h-.45Z"/>
    </g>
  </g>
</svg>