<?xml version="1.0" encoding="UTF-8"?>
<svg id="Layer_2" xmlns="http://www.w3.org/2000/svg" xmlns:xlink="http://www.w3.org/1999/xlink" viewBox="0 0 50 31">
  <defs>
    <style>
      .cls-1 {
        fill: #fff;
      }

      .cls-2 {
        fill: none;
      }

      .cls-3 {
        clip-path: url(#clippath);
      }
    </style>
    <clipPath id="clippath">
      <rect class="cls-2" width="50" height="31"/>
    </clipPath>
  </defs>
  <g id="Layer_1-2" data-name="Layer_1">
    <g class="cls-3">
      <path class="cls-1" d="M35.27,30.9c-.2,0-.37-.17-.37-.37v-2.51c0-1.42,1.06-2.64,2.46-2.85l.19-.03-.14-.14c-.48-.49-.74-1.13-.74-1.81,0-1.27.91-2.35,2.16-2.57h.08v-3h-13.55v2.98h.08c1.25.21,2.19,1.32,2.19,2.58,0,.68-.26,1.32-.74,1.81l-.13.14.19.03c1.4.21,2.46,1.43,2.46,2.85v2.51c0,.2-.17.37-.37.37h-8.04c-.2,0-.37-.17-.37-.37v-2.51c0-1.42,1.06-2.64,2.46-2.85l.19-.03-.14-.14c-.47-.49-.74-1.13-.74-1.81,0-1.25.89-2.33,2.12-2.56l.08-.02v-2.99h-13.55v2.99h.08c1.25.24,2.16,1.32,2.16,2.58,0,.68-.26,1.32-.74,1.81l-.14.14.19.03c1.4.21,2.46,1.43,2.46,2.85v2.51c0,.2-.17.37-.37.37H6.69c-.2,0-.37-.17-.37-.37v-2.51c0-1.42,1.06-2.64,2.46-2.85l.19-.03-.14-.14c-.48-.49-.74-1.13-.74-1.81,0-1.27.91-2.35,2.16-2.57h.08v-3.37c0-.2.17-.37.37-.37h13.92v-4.2h-6.03c-.87,0-1.59-.71-1.59-1.59V1.17c0-.59.48-1.07,1.07-1.07h3.91c.48,0,.91.21,1.22.59l1.26,1.58,6.94.04c.87,0,1.59.71,1.59,1.59v7.21c0,.87-.71,1.59-1.59,1.59h-6.03v4.2h13.92c.2,0,.37.17.37.37v3.35h.08c1.25.24,2.16,1.32,2.16,2.58,0,.68-.26,1.32-.74,1.81l-.13.14.19.03c1.4.21,2.46,1.43,2.47,2.85v2.51c0,.2-.17.37-.37.37h-8.04ZM37.77,25.87c-1.18,0-2.14.96-2.14,2.14v2.14h7.3v-2.14c0-1.18-.96-2.14-2.14-2.14h-3.01ZM23.52,25.87c-1.18,0-2.14.96-2.14,2.14v2.14h7.3v-2.14c0-1.18-.96-2.14-2.14-2.14h-3.01ZM9.2,25.87c-1.18,0-2.14.96-2.14,2.14v2.14h7.3v-2.14c0-1.18-.96-2.14-2.14-2.14h-3.01ZM39.28,21.32c-1.03,0-1.87.84-1.87,1.87s.84,1.87,1.87,1.87,1.87-.84,1.87-1.87-.84-1.87-1.87-1.87ZM25.03,21.32c-1.03,0-1.87.84-1.87,1.87s.84,1.87,1.87,1.87,1.87-.84,1.87-1.87-.84-1.87-1.87-1.87ZM10.71,21.32c-1.03,0-1.87.84-1.87,1.87s.84,1.87,1.87,1.87,1.87-.84,1.87-1.87-.84-1.87-1.87-1.87ZM17.74,11.09c0,.47.38.85.85.85h12.8c.47,0,.85-.38.85-.85V3.89c0-.47-.38-.85-.85-.85h-13.65v8.06ZM18.07.84c-.18,0-.33.15-.33.33v1.14h5.8l-.92-1.16c-.16-.2-.38-.31-.64-.31h-3.91Z"/>
    </g>
  </g>
</svg>