<?xml version="1.0" encoding="UTF-8"?>
<svg id="Layer_2" xmlns="http://www.w3.org/2000/svg" xmlns:xlink="http://www.w3.org/1999/xlink" viewBox="0 0 50 31">
  <defs>
    <style>
      .cls-1 {
        fill: #fff;
      }

      .cls-2 {
        fill: none;
      }

      .cls-3 {
        clip-path: url(#clippath);
      }
    </style>
    <clipPath id="clippath">
      <rect class="cls-2" width="50" height="31"/>
    </clipPath>
  </defs>
  <g id="Layer_1-2" data-name="Layer_1">
    <g class="cls-3">
      <g>
        <path class="cls-1" d="M29.48,2.27h-8.96c-.27,0-.49.22-.49.49s.22.49.49.49h8.96c.27,0,.48-.22.48-.49s-.21-.49-.48-.49ZM37.04,2.27h-2.06c-.25,0-.49.24-.49.49s.24.49.5.49h2.05c1.28,0,2.28,1,2.28,2.27v6.39H10.68v-6.39c0-1.27,1-2.27,2.27-2.27h2.07c.25,0,.49-.24.49-.49s-.24-.49-.5-.49h-2.06c-1.79,0-3.25,1.46-3.25,3.25v22.03c0,1.79,1.46,3.25,3.25,3.25h24.09c1.8,0,3.26-1.46,3.26-3.25V5.52c0-1.79-1.46-3.25-3.26-3.25ZM39.32,27.55c0,1.27-1,2.27-2.28,2.27H12.95c-1.27,0-2.27-1-2.27-2.27v-14.66h28.64v14.66ZM32.88,5.11l-.15-.04V.69c0-.27-.22-.49-.49-.49s-.49.22-.49.49v4.38l-.15.04c-1.12.3-1.91,1.31-1.91,2.47,0,1.41,1.14,2.55,2.55,2.55s2.56-1.14,2.56-2.55c0-1.16-.79-2.17-1.92-2.47ZM32.24,9.16c-.88,0-1.58-.7-1.58-1.58s.7-1.58,1.58-1.58,1.58.69,1.58,1.58-.69,1.58-1.58,1.58ZM18.41,5.11l-.15-.04V.69c0-.27-.21-.49-.48-.49s-.49.22-.49.49v4.38l-.15.04c-1.13.3-1.92,1.31-1.92,2.47,0,1.41,1.15,2.55,2.56,2.55s2.55-1.14,2.55-2.55c0-1.16-.79-2.17-1.92-2.47ZM17.78,9.16c-.89,0-1.58-.7-1.58-1.58s.69-1.58,1.58-1.58,1.57.69,1.57,1.58-.69,1.58-1.57,1.58Z"/>
        <path class="cls-1" d="M29.48,2.27h-8.96c-.27,0-.49.22-.49.49s.22.49.49.49h8.96c.27,0,.48-.22.48-.49s-.21-.49-.48-.49ZM18.41,5.11l-.15-.04V.69c0-.27-.21-.49-.48-.49s-.49.22-.49.49v4.38l-.15.04c-1.13.3-1.92,1.31-1.92,2.47,0,1.41,1.15,2.55,2.56,2.55s2.55-1.14,2.55-2.55c0-1.16-.79-2.17-1.92-2.47ZM17.78,9.16c-.89,0-1.58-.7-1.58-1.58s.69-1.58,1.58-1.58,1.57.69,1.57,1.58-.69,1.58-1.57,1.58ZM32.88,5.11l-.15-.04V.69c0-.27-.22-.49-.49-.49s-.49.22-.49.49v4.38l-.15.04c-1.12.3-1.91,1.31-1.91,2.47,0,1.41,1.14,2.55,2.55,2.55s2.56-1.14,2.56-2.55c0-1.16-.79-2.17-1.92-2.47ZM32.24,9.16c-.88,0-1.58-.7-1.58-1.58s.7-1.58,1.58-1.58,1.58.69,1.58,1.58-.69,1.58-1.58,1.58ZM37.04,2.27h-2.06c-.25,0-.49.24-.49.49s.24.49.5.49h2.05c1.28,0,2.28,1,2.28,2.27v6.39H10.68v-6.39c0-1.27,1-2.27,2.27-2.27h2.07c.25,0,.49-.24.49-.49s-.24-.49-.5-.49h-2.06c-1.79,0-3.25,1.46-3.25,3.25v22.03c0,1.79,1.46,3.25,3.25,3.25h24.09c1.8,0,3.26-1.46,3.26-3.25V5.52c0-1.79-1.46-3.25-3.26-3.25ZM39.32,27.55c0,1.27-1,2.27-2.28,2.27H12.95c-1.27,0-2.27-1-2.27-2.27v-14.66h28.64v14.66Z"/>
      </g>
    </g>
  </g>
</svg>