<?xml version="1.0" encoding="UTF-8"?>
<svg id="Layer_2" xmlns="http://www.w3.org/2000/svg" xmlns:xlink="http://www.w3.org/1999/xlink" viewBox="0 0 50 31">
  <defs>
    <style>
      .cls-1 {
        fill: #fff;
      }

      .cls-2 {
        fill: none;
      }

      .cls-3 {
        clip-path: url(#clippath);
      }
    </style>
    <clipPath id="clippath">
      <rect class="cls-2" width="50" height="31"/>
    </clipPath>
  </defs>
  <g id="Layer_1-2" data-name="Layer_1">
    <g class="cls-3">
      <g>
        <path class="cls-1" d="M36.62,10.16h-11.28v-2.41c0-1.11-.9-2.02-2.01-2.02h-3.33l.09-.27c.19-.51.45-1.36.63-2.46.11-.69-.09-1.4-.54-1.94-.47-.55-1.14-.86-1.86-.86-.46,0-.85.34-.9.79-.23,2.18-2.06,4.29-3.13,5.36l-.16.17-.14-.19c-.28-.38-.71-.6-1.17-.6h-.55c-.81,0-1.47.66-1.47,1.46v6.65c0,.8.66,1.46,1.47,1.46h.55c.53,0,1.01-.3,1.27-.77l.1-.17.97.49c.58.29,1.24.45,1.89.45h1.5v8.5c0,1.42,1.16,2.57,2.57,2.57h10.17v4.07c0,.15.09.28.23.34.03.01.07.02.12.02.1,0,.2-.05.27-.12l3.76-4.31h.95c1.42,0,2.57-1.15,2.57-2.57v-11.07c0-1.42-1.15-2.57-2.57-2.57ZM13.58,13.84c0,.41-.34.75-.76.75h-.55c-.42,0-.75-.34-.75-.75v-6.65c0-.41.33-.75.75-.75h.55c.42,0,.76.34.76.75v6.65ZM17.05,14.59c-.54,0-1.08-.12-1.57-.36l-.11-.06-1.1-.55v-6.26l.07-.06c.81-.74,3.48-3.38,3.78-6.21l.02-.18h.18c.5,0,.98.22,1.32.61.32.38.46.89.38,1.38-.29,1.76-.82,2.91-.88,3.03s-.05.25.02.35c.06.1.17.16.3.16h3.87c.72,0,1.31.59,1.31,1.31v3.32c0,1.94-1.58,3.52-3.52,3.52h-4.07ZM38.48,23.8c0,1.03-.84,1.86-1.86,1.86h-1.11c-.1,0-.2.04-.27.12l-3.25,3.72v-3.49c0-.19-.16-.35-.36-.35h-10.51c-1.03,0-1.86-.83-1.86-1.86v-8.5h1.86c2.33,0,4.22-1.9,4.22-4.23v-.2h11.28c1.02,0,1.86.83,1.86,1.86v11.07Z"/>
        <path class="cls-1" d="M36.62,10.16h-11.28v-2.41c0-1.11-.9-2.02-2.01-2.02h-3.33l.09-.27c.19-.51.45-1.36.63-2.46.11-.69-.09-1.4-.54-1.94-.47-.55-1.14-.86-1.86-.86-.46,0-.85.34-.9.79-.23,2.18-2.06,4.29-3.13,5.36l-.16.17-.14-.19c-.28-.38-.71-.6-1.17-.6h-.55c-.81,0-1.47.66-1.47,1.46v6.65c0,.8.66,1.46,1.47,1.46h.55c.53,0,1.01-.3,1.27-.77l.1-.17.97.49c.58.29,1.24.45,1.89.45h1.5v8.5c0,1.42,1.16,2.57,2.57,2.57h10.17v4.07c0,.15.09.28.23.34.03.01.07.02.12.02.1,0,.2-.05.27-.12l3.76-4.31h.95c1.42,0,2.57-1.15,2.57-2.57v-11.07c0-1.42-1.15-2.57-2.57-2.57ZM13.58,13.84c0,.41-.34.75-.76.75h-.55c-.42,0-.75-.34-.75-.75v-6.65c0-.41.33-.75.75-.75h.55c.42,0,.76.34.76.75v6.65ZM17.05,14.59c-.54,0-1.08-.12-1.57-.36l-.11-.06-1.1-.55v-6.26l.07-.06c.81-.74,3.48-3.38,3.78-6.21l.02-.18h.18c.5,0,.98.22,1.32.61.32.38.46.89.38,1.38-.29,1.76-.82,2.91-.88,3.03s-.05.25.02.35c.06.1.17.16.3.16h3.87c.72,0,1.31.59,1.31,1.31v3.32c0,1.94-1.58,3.52-3.52,3.52h-4.07ZM38.48,23.8c0,1.03-.84,1.86-1.86,1.86h-1.11c-.1,0-.2.04-.27.12l-3.25,3.72v-3.49c0-.19-.16-.35-.36-.35h-10.51c-1.03,0-1.86-.83-1.86-1.86v-8.5h1.86c2.33,0,4.22-1.9,4.22-4.23v-.2h11.28c1.02,0,1.86.83,1.86,1.86v11.07Z"/>
        <path class="cls-1" d="M34.77,21.59c0,.19-.16.35-.36.35h-11.07c-.19,0-.35-.16-.35-.35,0-.2.16-.36.35-.36h11.07c.2,0,.36.16.36.36Z"/>
        <path class="cls-1" d="M34.77,21.59c0,.19-.16.35-.36.35h-11.07c-.19,0-.35-.16-.35-.35,0-.2.16-.36.35-.36h11.07c.2,0,.36.16.36.36Z"/>
        <path class="cls-1" d="M34.77,18.26c0,.2-.16.36-.36.36h-11.07c-.19,0-.35-.16-.35-.36s.16-.35.35-.35h11.07c.2,0,.36.16.36.35Z"/>
        <path class="cls-1" d="M34.77,18.26c0,.2-.16.36-.36.36h-11.07c-.19,0-.35-.16-.35-.36s.16-.35.35-.35h11.07c.2,0,.36.16.36.35Z"/>
        <path class="cls-1" d="M34.77,14.94c0,.2-.16.36-.36.36h-6.09c-.19,0-.35-.16-.35-.36s.16-.35.35-.35h6.09c.2,0,.36.16.36.35Z"/>
        <path class="cls-1" d="M34.77,14.94c0,.2-.16.36-.36.36h-6.09c-.19,0-.35-.16-.35-.36s.16-.35.35-.35h6.09c.2,0,.36.16.36.35Z"/>
      </g>
    </g>
  </g>
</svg>