<?xml version="1.0" encoding="UTF-8"?>
<svg id="Layer_2" xmlns="http://www.w3.org/2000/svg" xmlns:xlink="http://www.w3.org/1999/xlink" viewBox="0 0 50 31">
  <defs>
    <style>
      .cls-1 {
        fill: #fff;
      }

      .cls-2 {
        fill: none;
      }

      .cls-3 {
        clip-path: url(#clippath);
      }
    </style>
    <clipPath id="clippath">
      <rect class="cls-2" width="50" height="31"/>
    </clipPath>
  </defs>
  <g id="Layer_1-2" data-name="Layer_1">
    <g class="cls-3">
      <g>
        <path class="cls-1" d="M13.43,22.11s-.13-.08-.26-.08h-.05c-1.82.37-3.68.64-5.51.82-.2.02-.36.19-.36.39v7.07c0,.21.17.39.39.39h5.56c.21,0,.38-.18.38-.39v-7.9c0-.13-.05-.23-.15-.3ZM12.82,29.92h-4.78v-6.33l.27-.03c1.35-.14,2.75-.35,4.15-.61l.36-.07v7.04Z"/>
        <path class="cls-1" d="M13.43,22.11s-.13-.08-.26-.08h-.05c-1.82.37-3.68.64-5.51.82-.2.02-.36.19-.36.39v7.07c0,.21.17.39.39.39h5.56c.21,0,.38-.18.38-.39v-7.9c0-.13-.05-.23-.15-.3ZM12.82,29.92h-4.78v-6.33l.27-.03c1.35-.14,2.75-.35,4.15-.61l.36-.07v7.04Z"/>
        <path class="cls-1" d="M13.43,22.11s-.13-.08-.26-.08h-.05c-1.82.37-3.68.64-5.51.82-.2.02-.36.19-.36.39v7.07c0,.21.17.39.39.39h5.56c.21,0,.38-.18.38-.39v-7.9c0-.13-.05-.23-.15-.3ZM12.82,29.92h-4.78v-6.33l.27-.03c1.35-.14,2.75-.35,4.15-.61l.36-.07v7.04Z"/>
        <path class="cls-1" d="M13.43,22.11s-.13-.08-.26-.08h-.05c-1.82.37-3.68.64-5.51.82-.2.02-.36.19-.36.39v7.07c0,.21.17.39.39.39h5.56c.21,0,.38-.18.38-.39v-7.9c0-.13-.05-.23-.15-.3ZM12.82,29.92h-4.78v-6.33l.27-.03c1.35-.14,2.75-.35,4.15-.61l.36-.07v7.04Z"/>
        <path class="cls-1" d="M23.14,19.18c-.05-.04-.13-.06-.21-.06-.06,0-.1,0-.14.02-1.77.71-3.63,1.34-5.51,1.88-.17.04-.29.2-.29.37v8.93c0,.21.17.38.39.38h5.55c.22,0,.39-.17.39-.38v-10.82c0-.13-.06-.25-.18-.32ZM22.53,29.93h-4.77v-8.25l.21-.06c1.37-.4,2.77-.87,4.16-1.39l.4-.15v9.85Z"/>
        <path class="cls-1" d="M23.14,19.18c-.05-.04-.13-.06-.21-.06-.06,0-.1,0-.14.02-1.77.71-3.63,1.34-5.51,1.88-.17.04-.29.2-.29.37v8.93c0,.21.17.38.39.38h5.55c.22,0,.39-.17.39-.38v-10.82c0-.13-.06-.25-.18-.32ZM22.53,29.93h-4.77v-8.25l.21-.06c1.37-.4,2.77-.87,4.16-1.39l.4-.15v9.85Z"/>
        <path class="cls-1" d="M23.14,19.18c-.05-.04-.13-.06-.21-.06-.06,0-.1,0-.14.02-1.77.71-3.63,1.34-5.51,1.88-.17.04-.29.2-.29.37v8.93c0,.21.17.38.39.38h5.55c.22,0,.39-.17.39-.38v-10.82c0-.13-.06-.25-.18-.32ZM22.53,29.93h-4.77v-8.25l.21-.06c1.37-.4,2.77-.87,4.16-1.39l.4-.15v9.85Z"/>
        <path class="cls-1" d="M23.14,19.18c-.05-.04-.13-.06-.21-.06-.06,0-.1,0-.14.02-1.77.71-3.63,1.34-5.51,1.88-.17.04-.29.2-.29.37v8.93c0,.21.17.38.39.38h5.55c.22,0,.39-.17.39-.38v-10.82c0-.13-.06-.25-.18-.32ZM22.53,29.93h-4.77v-8.25l.21-.06c1.37-.4,2.77-.87,4.16-1.39l.4-.15v9.85Z"/>
        <path class="cls-1" d="M32.82,14.14s-.11-.05-.18-.05c-.09,0-.16.02-.22.06-1.77,1.15-3.63,2.2-5.5,3.13-.14.07-.22.2-.22.35v12.68c0,.21.18.39.39.39h5.55c.21,0,.39-.18.39-.39v-15.83c0-.14-.08-.28-.21-.34ZM32.24,29.93h-4.77v-12.06l.16-.08c1.45-.74,2.85-1.52,4.16-2.33l.45-.28v14.75Z"/>
        <path class="cls-1" d="M32.82,14.14s-.11-.05-.18-.05c-.09,0-.16.02-.22.06-1.77,1.15-3.63,2.2-5.5,3.13-.14.07-.22.2-.22.35v12.68c0,.21.18.39.39.39h5.55c.21,0,.39-.18.39-.39v-15.83c0-.14-.08-.28-.21-.34ZM32.24,29.93h-4.77v-12.06l.16-.08c1.45-.74,2.85-1.52,4.16-2.33l.45-.28v14.75Z"/>
        <path class="cls-1" d="M32.82,14.14s-.11-.05-.18-.05c-.09,0-.16.02-.22.06-1.77,1.15-3.63,2.2-5.5,3.13-.14.07-.22.2-.22.35v12.68c0,.21.18.39.39.39h5.55c.21,0,.39-.18.39-.39v-15.83c0-.14-.08-.28-.21-.34ZM32.24,29.93h-4.77v-12.06l.16-.08c1.45-.74,2.85-1.52,4.16-2.33l.45-.28v14.75Z"/>
        <path class="cls-1" d="M32.82,14.14s-.11-.05-.18-.05c-.09,0-.16.02-.22.06-1.77,1.15-3.63,2.2-5.5,3.13-.14.07-.22.2-.22.35v12.68c0,.21.18.39.39.39h5.55c.21,0,.39-.18.39-.39v-15.83c0-.14-.08-.28-.21-.34ZM32.24,29.93h-4.77v-12.06l.16-.08c1.45-.74,2.85-1.52,4.16-2.33l.45-.28v14.75Z"/>
        <path class="cls-1" d="M42.52,6.54c-.06-.02-.11-.03-.16-.03-.09,0-.19.04-.26.1-1.78,1.66-3.64,3.22-5.52,4.63-.11.08-.16.19-.16.32v18.75c0,.21.18.39.39.39h5.55c.21,0,.39-.18.39-.39V6.9c0-.15-.1-.29-.23-.36ZM41.96,29.92h-4.77V11.8l.08-.11.04-.03c1.44-1.1,2.84-2.25,4.15-3.42l.5-.46v22.14Z"/>
        <path class="cls-1" d="M42.52,6.54c-.06-.02-.11-.03-.16-.03-.09,0-.19.04-.26.1-1.78,1.66-3.64,3.22-5.52,4.63-.11.08-.16.19-.16.32v18.75c0,.21.18.39.39.39h5.55c.21,0,.39-.18.39-.39V6.9c0-.15-.1-.29-.23-.36ZM41.96,29.92h-4.77V11.8l.08-.11.04-.03c1.44-1.1,2.84-2.25,4.15-3.42l.5-.46v22.14Z"/>
        <path class="cls-1" d="M42.52,6.54c-.06-.02-.11-.03-.16-.03-.09,0-.19.04-.26.1-1.78,1.66-3.64,3.22-5.52,4.63-.11.08-.16.19-.16.32v18.75c0,.21.18.39.39.39h5.55c.21,0,.39-.18.39-.39V6.9c0-.15-.1-.29-.23-.36ZM41.96,29.92h-4.77V11.8l.08-.11.04-.03c1.44-1.1,2.84-2.25,4.15-3.42l.5-.46v22.14Z"/>
        <path class="cls-1" d="M42.52,6.54c-.06-.02-.11-.03-.16-.03-.09,0-.19.04-.26.1-1.78,1.66-3.64,3.22-5.52,4.63-.11.08-.16.19-.16.32v18.75c0,.21.18.39.39.39h5.55c.21,0,.39-.18.39-.39V6.9c0-.15-.1-.29-.23-.36ZM41.96,29.92h-4.77V11.8l.08-.11.04-.03c1.44-1.1,2.84-2.25,4.15-3.42l.5-.46v22.14Z"/>
        <path class="cls-1" d="M42.73.73l-.6,2.71c-.04.17-.2.3-.38.3-.19-.03-.27-.09-.33-.18-.05-.09-.08-.2-.05-.29l.33-1.46-.7.62c-9.95,8.74-21.16,13.78-33.32,14.98h-.03c-.21.01-.37-.13-.39-.34-.02-.21.13-.41.35-.43,12.1-1.19,23.25-6.25,33.15-15.03l.58-.53h-1.76c-.21,0-.39-.18-.39-.39s.18-.39.39-.39h2.77c.06.01.12.02.16.04l.11.07c.07.12.09.15.09.17.02.12.02.14.02.15Z"/>
        <path class="cls-1" d="M42.73.73l-.6,2.71c-.04.17-.2.3-.38.3-.19-.03-.27-.09-.33-.18-.05-.09-.08-.2-.05-.29l.33-1.46-.7.62c-9.95,8.74-21.16,13.78-33.32,14.98h-.03c-.21.01-.37-.13-.39-.34-.02-.21.13-.41.35-.43,12.1-1.19,23.25-6.25,33.15-15.03l.58-.53h-1.76c-.21,0-.39-.18-.39-.39s.18-.39.39-.39h2.77c.06.01.12.02.16.04l.11.07c.07.12.09.15.09.17.02.12.02.14.02.15Z"/>
        <path class="cls-1" d="M42.73.73l-.6,2.71c-.04.17-.2.3-.38.3-.19-.03-.27-.09-.33-.18-.05-.09-.08-.2-.05-.29l.33-1.46-.7.62c-9.95,8.74-21.16,13.78-33.32,14.98h-.03c-.21.01-.37-.13-.39-.34-.02-.21.13-.41.35-.43,12.1-1.19,23.25-6.25,33.15-15.03l.58-.53h-1.76c-.21,0-.39-.18-.39-.39s.18-.39.39-.39h2.77c.06.01.12.02.16.04l.11.07c.07.12.09.15.09.17.02.12.02.14.02.15Z"/>
        <path class="cls-1" d="M42.73.73l-.6,2.71c-.04.17-.2.3-.38.3-.19-.03-.27-.09-.33-.18-.05-.09-.08-.2-.05-.29l.33-1.46-.7.62c-9.95,8.74-21.16,13.78-33.32,14.98h-.03c-.21.01-.37-.13-.39-.34-.02-.21.13-.41.35-.43,12.1-1.19,23.25-6.25,33.15-15.03l.58-.53h-1.76c-.21,0-.39-.18-.39-.39s.18-.39.39-.39h2.77c.06.01.12.02.16.04l.11.07c.07.12.09.15.09.17.02.12.02.14.02.15Z"/>
      </g>
    </g>
  </g>
</svg>