<?xml version="1.0" encoding="UTF-8"?>
<svg id="Layer_2" xmlns="http://www.w3.org/2000/svg" xmlns:xlink="http://www.w3.org/1999/xlink" viewBox="0 0 50 31">
  <defs>
    <style>
      .cls-1 {
        fill: #fff;
      }

      .cls-2 {
        fill: none;
      }

      .cls-3 {
        clip-path: url(#clippath);
      }
    </style>
    <clipPath id="clippath">
      <rect class="cls-2" width="50" height="31"/>
    </clipPath>
  </defs>
  <g id="Layer_1-2" data-name="Layer_1">
    <g class="cls-3">
      <path class="cls-1" d="M40.25,0H9.75c-1.21,0-2.2.99-2.2,2.2v19.98c0,1.21.99,2.2,2.2,2.2h11.14l-.54,3.63h-2.28c-.83,0-1.5.67-1.5,1.5s.67,1.5,1.5,1.5h13.86c.83,0,1.5-.67,1.5-1.5s-.67-1.5-1.5-1.5h-2.28l-.54-3.63h11.14c1.21,0,2.2-.99,2.2-2.2V2.2C42.45.99,41.46,0,40.25,0h0ZM9.75.85h30.5c.74,0,1.35.61,1.35,1.35v17.83H8.4V2.2c0-.74.6-1.35,1.35-1.35h0ZM32.58,29.5c0,.36-.29.65-.65.65h-13.86c-.36,0-.65-.29-.65-.65s.29-.65.65-.65h13.86c.36,0,.65.29.65.65ZM28.79,28.01h-7.58l.54-3.63h6.51l.54,3.63ZM40.25,23.53H9.75c-.74,0-1.35-.6-1.35-1.35v-1.29h33.2v1.3c0,.74-.6,1.35-1.35,1.35h0ZM12.77,18.27h24.45c.24,0,.43-.19.43-.43s-.19-.43-.43-.43h-1.29v-8.51c0-.43-.35-.78-.78-.78h-3.16c-.43,0-.78.35-.78.78v8.5h-.99v-3.71c0-.43-.35-.78-.78-.78h-3.16c-.43,0-.78.35-.78.78v3.71h-.99v-6.11c0-.43-.35-.78-.78-.78h-3.15c-.43,0-.78.35-.78.78v6.1h-.99v-2.07c0-.43-.35-.78-.78-.78h-3.16c-.43,0-.78.35-.78.79v2.07h-1.29c-.24,0-.43.19-.43.43,0,.23.19.43.43.43h0ZM32.06,8.98h3.02v8.44h-3.02v-8.44ZM26.35,13.78h3.02v3.64h-3.02v-3.64ZM20.63,11.38h3.02v6.04h-3.02v-6.04ZM14.92,15.42h3.02v2h-3.02v-2ZM16.43,13.01c.88,0,1.6-.71,1.6-1.6,0-.24-.05-.46-.15-.66l3.36-2.82c.26.18.57.28.9.28.51,0,.95-.24,1.25-.61l2.89,1.21c0,.07-.02.13-.02.2,0,.88.71,1.6,1.6,1.6s1.59-.71,1.59-1.6c0-.24-.05-.46-.15-.66l3.36-2.82c.26.18.57.28.9.28.88,0,1.59-.71,1.59-1.59s-.71-1.6-1.59-1.6-1.6.71-1.6,1.6c0,.24.05.46.15.66l-3.36,2.82c-.26-.18-.57-.28-.9-.28-.51,0-.95.24-1.25.61l-2.89-1.21c0-.07.02-.13.02-.2,0-.88-.71-1.59-1.6-1.59s-1.6.71-1.6,1.59c0,.24.05.46.15.66l-3.36,2.82c-.26-.18-.57-.28-.9-.28-.88,0-1.59.71-1.59,1.59s.72,1.6,1.6,1.6ZM33.57,3.47c.41,0,.74.34.74.74s-.34.74-.74.74-.74-.34-.74-.74.33-.74.74-.74ZM27.86,8.27c.41,0,.74.34.74.74s-.34.74-.74.74-.74-.34-.74-.74.34-.74.74-.74ZM22.14,5.87c.41,0,.74.34.74.74s-.34.74-.74.74-.74-.34-.74-.74.33-.74.74-.74ZM16.43,10.66c.41,0,.74.34.74.74s-.34.74-.74.74-.74-.34-.74-.74.34-.74.74-.74Z"/>
    </g>
  </g>
</svg>