<?xml version="1.0" encoding="UTF-8"?>
<svg id="Layer_2" xmlns="http://www.w3.org/2000/svg" xmlns:xlink="http://www.w3.org/1999/xlink" viewBox="0 0 40 40">
  <defs>
    <style>
      .cls-1 {
        fill: #32d736;
      }

      .cls-1, .cls-2, .cls-3, .cls-4, .cls-5, .cls-6, .cls-7 {
        fill-rule: evenodd;
      }

      .cls-2, .cls-8 {
        fill: #ffe600;
      }

      .cls-9, .cls-6 {
        fill: #17ace8;
      }

      .cls-10 {
        fill: none;
      }

      .cls-3 {
        fill: #c8effe;
      }

      .cls-4 {
        fill: #ff9801;
      }

      .cls-5 {
        fill: #fe5694;
      }

      .cls-7 {
        fill: #fd481e;
      }

      .cls-11 {
        clip-path: url(#clippath);
      }
    </style>
    <clipPath id="clippath">
      <rect class="cls-10" width="40" height="40"/>
    </clipPath>
  </defs>
  <g id="Layer_1-2" data-name="Layer_1">
    <g class="cls-11">
      <g id="Layer_x5F_1">
        <g id="_224201040">
          <path id="_224202576" class="cls-3" d="M31.75,26.13l-3.85,12.69H1.31V0h30.44v26.13Z"/>
          <path id="_224202648" class="cls-6" d="M4.98,2.51h23.1v3.91H4.98v-3.91Z"/>
          <path id="_224202864" class="cls-9" d="M5.41,10.4c-.24,0-.43.2-.43.45s.2.45.43.45h1.17c.24,0,.43-.2.43-.45s-.2-.45-.43-.45h-1.17ZM8.54,10.4c-.24,0-.43.2-.43.45s.2.45.43.45h6.91c.24,0,.43-.2.43-.45s-.2-.45-.43-.45h-6.91Z"/>
          <path id="_224202984" class="cls-9" d="M5.41,13.71c-.24,0-.43.2-.43.45s.2.45.43.45h1.17c.24,0,.43-.2.43-.45s-.2-.45-.43-.45h-1.17ZM8.54,13.71c-.24,0-.43.2-.43.45s.2.45.43.45h6.91c.24,0,.43-.2.43-.45s-.2-.45-.43-.45h-6.91Z"/>
          <path id="_224202288" class="cls-9" d="M5.41,17.03c-.24,0-.43.2-.43.45s.2.45.43.45h1.17c.24,0,.43-.2.43-.45s-.2-.45-.43-.45h-1.17ZM8.54,17.03c-.24,0-.43.2-.43.45s.2.45.43.45h6.91c.24,0,.43-.2.43-.45s-.2-.45-.43-.45h-6.91Z"/>
          <path id="_224203032" class="cls-7" d="M26.35,14.05c0,1.89-1.53,3.42-3.42,3.42s-3.42-1.53-3.42-3.42,1.53-3.42,3.42-3.42v3.42h3.42Z"/>
          <path id="_224202744" class="cls-2" d="M28.09,12.31c0-1.89-1.53-3.42-3.42-3.42v3.42h3.42Z"/>
          <path id="_224202144" class="cls-9" d="M5.41,20.15c-.24,0-.43.2-.43.45s.2.45.43.45h22.25c.24,0,.43-.2.43-.45s-.2-.45-.43-.45H5.41Z"/>
          <path id="_224202024" class="cls-9" d="M5.41,23.4c-.24,0-.43.2-.43.45s.2.45.43.45h22.25c.24,0,.43-.2.43-.45s-.2-.45-.43-.45H5.41Z"/>
          <g>
            <path id="_224201856" class="cls-7" d="M4.98,33.57h2.02v2.74h-2.02v-2.74Z"/>
            <path id="_224201928" class="cls-1" d="M8.51,32.38h2.02v3.93h-2.02v-3.93Z"/>
            <path id="_224201904" class="cls-5" d="M12.03,30.67h2.02v5.65h-2.02v-5.65Z"/>
            <path id="_224201712" class="cls-4" d="M15.55,29.28h2.02v7.04h-2.02v-7.04Z"/>
          </g>
          <path id="_224201976" class="cls-9" d="M5.4,29.36c-.24.02-.43.23-.41.47s.23.43.47.41c.03,0,7.51-.52,10.78-3.14l-.03.22c-.03.24.14.47.38.49s.47-.14.49-.38l.2-1.53c.07-.3-.19-.58-.49-.54l-1.57.2c-.24.03-.42.25-.38.49s.25.42.49.38l.37-.05c-2.93,2.46-10.29,2.97-10.3,2.97Z"/>
          <circle id="_224201256" class="cls-8" cx="31.75" cy="33.06" r="6.94"/>
          <path id="_224201064" class="cls-6" d="M32.9,33.1v5.22h-2.31v-5.22h-1.9l3.05-5.28,3.06,5.28h-1.91Z"/>
        </g>
      </g>
    </g>
  </g>
</svg>