<?xml version="1.0" encoding="UTF-8"?>
<svg id="Layer_2" xmlns="http://www.w3.org/2000/svg" xmlns:xlink="http://www.w3.org/1999/xlink" viewBox="0 0 40 40">
  <defs>
    <style>
      .cls-1 {
        fill: #5fa254;
      }

      .cls-2 {
        fill: #dca968;
      }

      .cls-3 {
        fill: none;
      }

      .cls-4 {
        fill: #3b71c5;
      }

      .cls-5 {
        fill: #f1f1f1;
      }

      .cls-6 {
        fill: #d56566;
      }

      .cls-7 {
        fill: #909eb0;
      }

      .cls-8 {
        clip-path: url(#clippath);
      }
    </style>
    <clipPath id="clippath">
      <rect class="cls-3" width="40" height="40"/>
    </clipPath>
  </defs>
  <g id="Layer_1-2" data-name="Layer_1">
    <g class="cls-8">
      <g>
        <circle class="cls-2" cx="34.67" cy="3" r="3"/>
        <path class="cls-4" d="M40,15.33v-6c0-1.84-1.49-3.33-3.33-3.33h-4c-1.84,0-3.33,1.49-3.33,3.33v6h10.67Z"/>
        <circle class="cls-1" cx="20" cy="34" r="6"/>
        <path class="cls-5" d="M18.71,36.67c-.18,0-.35-.07-.47-.2l-1.65-1.65.95-.95,1.18,1.18,3.77-3.72.95.95-4.25,4.24c-.13.11-.3.16-.47.15h0Z"/>
        <path class="cls-5" d="M34.67,6l-1.33,4,1.33,2,1.33-2-1.33-4Z"/>
        <path class="cls-6" d="M0,.67h10.67v14.67H0V.67Z"/>
        <g>
          <path class="cls-5" d="M4.67,4h4v1.33h-4v-1.33Z"/>
          <path class="cls-5" d="M2,7.33h6.67v1.33H2v-1.33Z"/>
          <path class="cls-5" d="M2,10.67h6.67v1.33H2v-1.33Z"/>
          <path class="cls-5" d="M2,4h1.33v1.33h-1.33v-1.33Z"/>
        </g>
        <path class="cls-7" d="M36,18.67v14.67h-3v-2.31l-4.25,2.97,4.25,2.97v-2.31h3.67c.37,0,.67-.3.67-.67v-15.33h-1.33Z"/>
        <path class="cls-7" d="M4,23h2.31l-2.97-4.25L.36,23h2.31v11c0,.37.3.67.67.67h8v-1.33h-7.33v-10.33Z"/>
        <path class="cls-7" d="M22.33,7.33h-9v1.33h9v2.31l4.25-2.97-4.25-2.97v2.31Z"/>
      </g>
    </g>
  </g>
</svg>