<?xml version="1.0" encoding="UTF-8"?>
<svg id="Layer_2" xmlns="http://www.w3.org/2000/svg" xmlns:xlink="http://www.w3.org/1999/xlink" viewBox="0 0 40 40">
  <defs>
    <style>
      .cls-1 {
        fill: #ff9100;
      }

      .cls-2 {
        fill: #fdbf00;
      }

      .cls-3 {
        fill: #ff5959;
      }

      .cls-4 {
        fill: none;
      }

      .cls-5 {
        fill: #ffdf40;
      }

      .cls-6 {
        fill: #6cf;
      }

      .cls-7 {
        fill: #f5f5f5;
      }

      .cls-8 {
        fill: #393939;
      }

      .cls-9 {
        fill: #4da6ff;
      }

      .cls-10 {
        fill: #ffbe40;
      }

      .cls-11 {
        clip-path: url(#clippath);
      }

      .cls-12 {
        fill: #e6e6e6;
      }
    </style>
    <clipPath id="clippath">
      <rect class="cls-4" width="40" height="40"/>
    </clipPath>
  </defs>
  <g id="Layer_1-2" data-name="Layer_1">
    <g class="cls-11">
      <g id="Layer_1-3" data-name="Layer_1">
        <path class="cls-8" d="M35.69,7.48v7.25c0,.82-.73,1.49-1.63,1.49h-1.67v-1.12h1.67c.28,0,.51-.17.51-.37v-7.25c0-.2-.23-.37-.51-.37h-1.67v-1.12h1.67c.9,0,1.63.67,1.63,1.49ZM0,7.48v6.51c0,.82.73,1.49,1.63,1.49h1.67v-1.12h-1.67c-.28,0-.51-.17-.51-.37v-6.51c0-.2.23-.37.51-.37h1.67v-1.12h-1.67C.73,5.99,0,6.66,0,7.48ZM0,18.31v6.51c0,.82.73,1.49,1.63,1.49h1.67v-1.12h-1.67c-.28,0-.51-.17-.51-.37v-6.51c0-.2.23-.37.51-.37h1.67v-1.12h-1.67C.73,16.83,0,17.49,0,18.31h0Z"/>
        <path class="cls-6" d="M3.17,22.79v5.87c0,.39.32.71.71.71h27.75c.39,0,.71-.32.71-.71h0v-5.87c0-.39-.32-.71-.71-.71H3.89c-.39,0-.71.32-.71.71,0,0,0,0,0,0Z"/>
        <path class="cls-9" d="M32.35,27.34v1.32c0,.39-.32.71-.71.71H3.89c-.39,0-.71-.32-.71-.71h0v-1.32c0,.39.32.71.71.71h27.75c.39,0,.71-.32.71-.71Z"/>
        <path class="cls-6" d="M3.17,13.21v5.87c0,.39.32.71.71.71h27.75c.39,0,.71-.32.71-.71h0v-5.87c0-.39-.32-.71-.71-.71H3.89c-.39,0-.71.32-.71.71,0,0,0,0,0,0Z"/>
        <path class="cls-9" d="M32.35,17.76v1.32c0,.39-.32.71-.71.71H3.89c-.39,0-.71-.32-.71-.71v-1.32c0,.39.32.71.71.71h27.75c.39,0,.71-.32.71-.71Z"/>
        <path class="cls-6" d="M3.17,3.62v5.87c0,.39.32.71.71.71h27.75c.39,0,.71-.32.71-.71V3.62c0-.39-.32-.71-.71-.71H3.89c-.39,0-.71.32-.71.71,0,0,0,0,0,0Z"/>
        <path class="cls-9" d="M32.35,8.17v1.32c0,.39-.32.71-.71.71H3.89c-.39,0-.71-.32-.71-.71v-1.32c0,.39.32.71.71.71h27.75c.39,0,.71-.32.71-.71h0Z"/>
        <path class="cls-3" d="M30.23,5.32v2.49h-10.11v-2.49h10.11Z"/>
        <path class="cls-7" d="M26.31,31.66H9.29v-2.29h17.02v2.29Z"/>
        <path class="cls-12" d="M11.58,31.66h-2.29v-2.29h2.29v2.29Z"/>
        <path class="cls-7" d="M26.31,22.08H9.29v-2.29h17.02v2.29Z"/>
        <path class="cls-12" d="M11.58,22.08h-2.29v-2.29h2.29v2.29Z"/>
        <path class="cls-7" d="M26.31,12.49H9.29v-2.29h17.02v2.29Z"/>
        <path class="cls-12" d="M11.58,12.49h-2.29v-2.29h2.29v2.29Z"/>
        <path class="cls-5" d="M40,22.12c-1.23,7.21-5.64,11.44-11.74,14.97-6.06-3.5-10.45-7.68-11.72-14.82l3.92-6.78c5.08-1.75,10.61-1.76,15.7-.03l3.85,6.66Z"/>
        <path class="cls-10" d="M28.27,37.08h-.01c-6.06-3.5-10.45-7.67-11.72-14.81l3.92-6.78c2.51-.87,5.15-1.31,7.81-1.32v22.91Z"/>
        <path class="cls-2" d="M28.26,34.07c-5.24-3.28-7.93-6.68-8.99-11.35l2.93-5.07c3.99-1.18,8.23-1.19,12.22-.03l2.86,4.96c-.57,2.57-1.65,4.79-3.3,6.74-1.41,1.68-3.25,3.21-5.72,4.75h0Z"/>
        <path class="cls-1" d="M28.27,34.06h-.01c-5.24-3.27-7.93-6.68-8.99-11.34l2.93-5.07c1.97-.58,4.02-.88,6.07-.89v17.31Z"/>
        <g>
          <path class="cls-7" d="M8.12,5.32c0,.31-.25.56-.56.56h-1.83c-.31,0-.56-.25-.56-.56s.25-.56.56-.56h1.83c.31,0,.56.25.56.56ZM11.15,4.76h-1.83c-.31,0-.56.25-.56.56s.25.56.56.56h1.83c.31,0,.56-.25.56-.56s-.25-.56-.56-.56h0ZM12.91,5.87h1.83c.31,0,.56-.25.56-.56s-.25-.56-.56-.56h-1.83c-.31,0-.56.25-.56.56s.25.56.56.56ZM7.56,7.2h-1.83c-.31,0-.56.25-.56.56s.25.56.56.56h1.83c.31,0,.56-.25.56-.56s-.25-.56-.56-.56ZM11.15,7.2h-1.83c-.31,0-.56.25-.56.56s.25.56.56.56h1.83c.31,0,.56-.25.56-.56s-.25-.56-.56-.56h0ZM14.74,7.2h-1.83c-.31,0-.56.25-.56.56s.25.56.56.56h1.83c.31,0,.56-.25.56-.56s-.25-.56-.56-.56Z"/>
          <path class="cls-7" d="M8.12,14.92c0,.31-.25.56-.56.56h-1.83c-.31,0-.56-.25-.56-.56s.25-.56.56-.56h1.83c.31,0,.56.25.56.56h0ZM11.15,14.36h-1.83c-.31,0-.56.25-.56.56s.25.56.56.56h1.83c.31,0,.56-.25.56-.56s-.25-.56-.56-.56h0ZM12.91,15.48h1.83c.31,0,.56-.25.56-.56s-.25-.56-.56-.56h-1.83c-.31,0-.56.25-.56.56s.25.56.56.56ZM7.56,16.8h-1.83c-.31,0-.56.25-.56.56s.25.56.56.56h1.83c.31,0,.56-.25.56-.56s-.25-.56-.56-.56ZM11.15,16.8h-1.83c-.31,0-.56.25-.56.56s.25.56.56.56h1.83c.31,0,.56-.25.56-.56s-.25-.56-.56-.56h0ZM14.74,16.8h-1.83c-.31,0-.56.25-.56.56s.25.56.56.56h1.83c.31,0,.56-.25.56-.56s-.25-.56-.56-.56Z"/>
          <path class="cls-7" d="M8.12,24.52c0,.31-.25.56-.56.56h-1.83c-.31,0-.56-.25-.56-.56s.25-.56.56-.56h1.83c.31,0,.56.25.56.56ZM11.15,23.96h-1.83c-.31,0-.56.25-.56.56s.25.56.56.56h1.83c.31,0,.56-.25.56-.56s-.25-.56-.56-.56h0ZM12.91,25.08h1.83c.31,0,.56-.25.56-.56s-.25-.56-.56-.56h-1.83c-.31,0-.56.25-.56.56s.25.56.56.56ZM7.56,26.41h-1.83c-.31,0-.56.25-.56.56s.25.56.56.56h1.83c.31,0,.56-.25.56-.56s-.25-.56-.56-.56ZM11.15,26.41h-1.83c-.31,0-.56.25-.56.56s.25.56.56.56h1.83c.31,0,.56-.25.56-.56s-.25-.56-.56-.56h0ZM14.74,26.41h-1.83c-.31,0-.56.25-.56.56s.25.56.56.56h1.83c.31,0,.56-.25.56-.56s-.25-.56-.56-.56Z"/>
        </g>
      </g>
    </g>
  </g>
</svg>