<?xml version="1.0" encoding="UTF-8"?>
<svg id="Layer_2" xmlns="http://www.w3.org/2000/svg" xmlns:xlink="http://www.w3.org/1999/xlink" viewBox="0 0 40 40">
  <defs>
    <style>
      .cls-1 {
        fill: none;
      }

      .cls-2 {
        fill: #2074a8;
      }

      .cls-3 {
        fill: #828282;
      }

      .cls-4 {
        clip-path: url(#clippath);
      }
    </style>
    <clipPath id="clippath">
      <rect class="cls-1" width="40" height="40"/>
    </clipPath>
  </defs>
  <g id="Layer_1-2" data-name="Layer_1">
    <g class="cls-4">
      <g>
        <g id="LINE">
          <path class="cls-2" d="M24.73,23.48c-.13,0-.25-.03-.37-.1l-4.73-2.73c-.35-.2-.48-.66-.27-1.01s.66-.48,1.01-.27l4.73,2.73c.35.2.48.66.27,1.01-.14.24-.39.37-.64.37Z"/>
        </g>
        <g id="LINE-2" data-name="LINE">
          <path class="cls-2" d="M12.3,25.19c-.26,0-.51-.13-.64-.37-.2-.35-.08-.81.27-1.01l7.7-4.44c.35-.21.81-.08,1.01.27.2.35.08.81-.27,1.01l-7.7,4.44c-.12.07-.24.1-.37.1Z"/>
        </g>
        <g id="LINE-3" data-name="LINE">
          <path class="cls-2" d="M20,20.74c-.41,0-.74-.33-.74-.74v-8.89c0-.41.33-.74.74-.74s.74.33.74.74v8.89c0,.41-.33.74-.74.74Z"/>
        </g>
        <g id="LINE-4" data-name="LINE">
          <path class="cls-3" d="M36.68,11.11c-.13,0-.25-.03-.37-.1l-2.57-1.48c-.35-.2-.48-.66-.27-1.01.2-.35.66-.48,1.01-.27l2.57,1.48c.35.2.48.66.27,1.01-.14.24-.39.37-.64.37Z"/>
        </g>
        <g id="LINE-5" data-name="LINE">
          <path class="cls-3" d="M36.68,14.07c-.41,0-.74-.33-.74-.74v-2.96c0-.41.33-.74.74-.74s.74.33.74.74v2.96c0,.41-.33.74-.74.74Z"/>
        </g>
        <g id="LINE-6" data-name="LINE">
          <path class="cls-3" d="M30.66,14.59c-.26,0-.51-.13-.64-.37-.2-.35-.08-.81.27-1.01l6.02-3.47c.35-.21.81-.08,1.01.27.2.35.08.81-.27,1.01l-6.02,3.47c-.12.07-.24.1-.37.1Z"/>
        </g>
        <g id="LINE-7" data-name="LINE">
          <path class="cls-3" d="M5.89,31.85c-.13,0-.25-.03-.37-.1l-2.57-1.48c-.35-.2-.48-.66-.27-1.01s.66-.48,1.01-.27l2.57,1.48c.35.2.48.66.27,1.01-.14.24-.39.37-.64.37Z"/>
        </g>
        <g id="LINE-8" data-name="LINE">
          <path class="cls-3" d="M3.32,30.37c-.41,0-.74-.33-.74-.74v-2.96c0-.41.33-.74.74-.74s.74.33.74.74v2.96c0,.41-.33.74-.74.74Z"/>
        </g>
        <g id="LINE-9" data-name="LINE">
          <path class="cls-3" d="M3.32,30.37c-.26,0-.51-.13-.64-.37-.2-.35-.08-.81.27-1.01l6.02-3.47c.35-.21.81-.08,1.01.27.2.35.08.81-.27,1.01l-6.02,3.47c-.12.07-.24.1-.37.1Z"/>
        </g>
        <g id="LINE-10" data-name="LINE">
          <path class="cls-3" d="M36.68,30.37c-.41,0-.74-.33-.74-.74v-2.96c0-.41.33-.74.74-.74s.74.33.74.74v2.96c0,.41-.33.74-.74.74Z"/>
        </g>
        <g id="LINE-11" data-name="LINE">
          <path class="cls-3" d="M34.11,31.85c-.26,0-.51-.13-.64-.37-.2-.35-.08-.81.27-1.01l2.57-1.48c.35-.2.81-.08,1.01.27.2.35.08.81-.27,1.01l-2.57,1.48c-.12.07-.24.1-.37.1Z"/>
        </g>
        <g id="LINE-12" data-name="LINE">
          <path class="cls-3" d="M36.68,30.37c-.13,0-.25-.03-.37-.1l-6.02-3.47c-.35-.2-.48-.66-.27-1.01.2-.35.66-.48,1.01-.27l6.02,3.47c.35.2.48.66.27,1.01-.14.24-.39.37-.64.37Z"/>
        </g>
        <g id="LINE-13" data-name="LINE">
          <path class="cls-3" d="M3.32,14.07c-.41,0-.74-.33-.74-.74v-2.96c0-.41.33-.74.74-.74s.74.33.74.74v2.96c0,.41-.33.74-.74.74Z"/>
        </g>
        <g id="LINE-14" data-name="LINE">
          <path class="cls-3" d="M3.32,11.11c-.26,0-.51-.13-.64-.37-.2-.35-.08-.81.27-1.01l2.57-1.48c.35-.2.81-.08,1.01.27s.08.81-.27,1.01l-2.57,1.48c-.12.07-.24.1-.37.1Z"/>
        </g>
        <g id="LINE-15" data-name="LINE">
          <path class="cls-3" d="M9.34,14.59c-.13,0-.25-.03-.37-.1l-6.02-3.47c-.35-.21-.48-.66-.27-1.01s.66-.48,1.01-.27l6.02,3.47c.35.2.48.66.27,1.01-.14.24-.39.37-.64.37Z"/>
        </g>
        <g id="LINE-16" data-name="LINE">
          <path class="cls-3" d="M20,40c-.26,0-.51-.13-.64-.37-.2-.35-.08-.81.27-1.01l2.57-1.48c.35-.21.81-.08,1.01.27.2.35.08.81-.27,1.01l-2.57,1.48c-.12.07-.24.1-.37.1Z"/>
        </g>
        <g id="LINE-17" data-name="LINE">
          <path class="cls-3" d="M20,40c-.13,0-.25-.03-.37-.1l-2.57-1.48c-.35-.2-.48-.66-.27-1.01s.66-.48,1.01-.27l2.57,1.48c.35.2.48.66.27,1.01-.14.24-.39.37-.64.37Z"/>
        </g>
        <g id="LINE-18" data-name="LINE">
          <path class="cls-3" d="M20,40c-.41,0-.74-.33-.74-.74v-6.95c0-.41.33-.74.74-.74s.74.33.74.74v6.95c0,.41-.33.74-.74.74Z"/>
        </g>
        <g id="LINE-19" data-name="LINE">
          <path class="cls-3" d="M17.43,2.96c-.26,0-.51-.13-.64-.37-.2-.35-.08-.81.27-1.01L19.63.1c.35-.21.81-.08,1.01.27s.08.81-.27,1.01l-2.57,1.48c-.12.07-.24.1-.37.1Z"/>
        </g>
        <g id="LINE-20" data-name="LINE">
          <path class="cls-3" d="M22.57,2.96c-.13,0-.25-.03-.37-.1l-2.57-1.48c-.35-.2-.48-.66-.27-1.01s.66-.48,1.01-.27l2.57,1.48c.35.2.48.66.27,1.01-.14.24-.39.37-.64.37Z"/>
        </g>
        <g id="LINE-21" data-name="LINE">
          <path class="cls-3" d="M20,8.43c-.41,0-.74-.33-.74-.74V.74C19.26.33,19.59,0,20,0s.74.33.74.74v6.95c0,.41-.33.74-.74.74Z"/>
        </g>
        <g id="LWPOLYLINE">
          <path class="cls-2" d="M20,29.63c-.13,0-.26-.03-.37-.1l-7.7-4.44c-.23-.13-.37-.38-.37-.64v-8.89c0-.26.14-.51.37-.64l7.7-4.44c.23-.13.51-.13.74,0l7.7,4.44c.23.13.37.38.37.64v8.89c0,.26-.14.51-.37.64l-7.7,4.44c-.11.07-.24.1-.37.1ZM13.04,24.02l6.96,4.02,6.96-4.02v-8.03l-6.96-4.02-6.96,4.02v8.03Z"/>
        </g>
      </g>
    </g>
  </g>
</svg>