<?xml version="1.0" encoding="UTF-8"?>
<svg id="Layer_2" xmlns="http://www.w3.org/2000/svg" xmlns:xlink="http://www.w3.org/1999/xlink" viewBox="0 0 50 40">
  <defs>
    <style>
      .cls-1 {
        fill: #112e57;
        fill-rule: evenodd;
      }

      .cls-2 {
        fill: none;
      }

      .cls-3 {
        clip-path: url(#clippath);
      }
    </style>
    <clipPath id="clippath">
      <rect class="cls-2" width="50" height="40"/>
    </clipPath>
  </defs>
  <g id="Layer_1-2" data-name="Layer_1">
    <g class="cls-3">
      <path class="cls-1" d="M18.46,37.15h13.09c.19,0,.34-.15.34-.34v-2.96c0-2.24-1.28-4.2-3.14-5.18-1,.88-2.31,1.42-3.75,1.42s-2.76-.54-3.75-1.42c-1.86.99-3.14,2.94-3.14,5.18v2.96c0,.19.15.34.34.34h0ZM7.39,2.85c3.76,0,6.8,3.05,6.8,6.8s-3.05,6.8-6.8,6.8S.59,13.4.59,9.65,3.63,2.85,7.39,2.85ZM42.61,2.85c3.76,0,6.8,3.05,6.8,6.8s-3.05,6.8-6.8,6.8-6.8-3.05-6.8-6.8,3.05-6.8,6.8-6.8ZM44.92,7.23l-3.23,3.3-1.43-1.19c-.31-.26-.78-.22-1.04.09-.26.31-.22.78.09,1.04l1.93,1.61c.29.27.75.27,1.04-.02l3.71-3.79c.29-.29.28-.76-.01-1.05-.29-.29-.76-.28-1.05.01h0ZM25,2.85c3.76,0,6.8,3.05,6.8,6.8s-3.05,6.8-6.8,6.8-6.8-3.05-6.8-6.8,3.05-6.8,6.8-6.8ZM27,6.54l-2,2-2-2c-.29-.29-.76-.29-1.05,0-.29.29-.29.76,0,1.05l2,2-2,2c-.29.29-.29.76,0,1.05.29.29.76.29,1.05,0l2-2,2,2c.29.29.76.29,1.05,0,.29-.29.29-.76,0-1.05l-2-2,2-2c.29-.29.29-.76,0-1.05-.29-.29-.76-.29-1.05,0ZM9.69,7.23l-3.23,3.3-1.43-1.19c-.31-.26-.78-.22-1.04.09-.26.31-.22.78.09,1.04l1.93,1.61c.29.27.75.27,1.04-.02l3.71-3.79c.29-.29.28-.76-.01-1.05-.29-.29-.76-.28-1.05.01h0ZM42.61,20.41c2.29,0,4.15,1.83,4.15,4.1s-1.86,4.1-4.15,4.1-4.15-1.83-4.15-4.1,1.86-4.1,4.15-4.1ZM36.07,37.15h13.09c.19,0,.34-.15.34-.34v-2.96c0-2.24-1.28-4.2-3.14-5.18-1,.88-2.31,1.42-3.75,1.42s-2.76-.54-3.75-1.42c-1.86.99-3.14,2.94-3.14,5.18v2.96c0,.19.15.34.34.34h0ZM7.39,20.41c2.29,0,4.15,1.83,4.15,4.1s-1.86,4.1-4.15,4.1-4.15-1.83-4.15-4.1,1.86-4.1,4.15-4.1ZM.84,37.15h13.09c.19,0,.34-.15.34-.34v-2.96c0-2.24-1.28-4.2-3.14-5.18-1,.88-2.31,1.42-3.75,1.42s-2.76-.54-3.75-1.42c-1.86.99-3.14,2.94-3.14,5.18v2.96c0,.19.15.34.34.34h0ZM25,20.41c2.29,0,4.15,1.83,4.15,4.1s-1.86,4.1-4.15,4.1-4.15-1.83-4.15-4.1,1.86-4.1,4.15-4.1Z"/>
    </g>
  </g>
</svg>