<?xml version="1.0" encoding="UTF-8"?>
<svg id="Layer_2" xmlns="http://www.w3.org/2000/svg" xmlns:xlink="http://www.w3.org/1999/xlink" viewBox="0 0 50 40">
  <defs>
    <style>
      .cls-1 {
        fill: #112e57;
      }

      .cls-2 {
        fill: none;
      }

      .cls-3 {
        clip-path: url(#clippath);
      }
    </style>
    <clipPath id="clippath">
      <rect class="cls-2" width="50" height="40"/>
    </clipPath>
  </defs>
  <g id="Layer_1-2" data-name="Layer_1">
    <g class="cls-3">
      <g>
        <path class="cls-1" d="M29.42,31.02c0-2.74,1.75-5.18,4.35-6.06V0H5.21v38.64h28.56v-1.55c-2.6-.88-4.35-3.32-4.35-6.06ZM25.51,35.1h-12.05v-2.22c0-3,2.43-5.43,5.43-5.43h1.19c3,0,5.43,2.43,5.43,5.43v2.22ZM15.9,21.34c0-1.45.87-2.76,2.22-3.32,1.34-.55,2.89-.25,3.91.78,1.03,1.03,1.33,2.57.78,3.91-.56,1.34-1.86,2.22-3.32,2.22-.95,0-1.86-.38-2.54-1.05s-1.05-1.59-1.05-2.54ZM27.55,14.26H11.43c-.28,0-.51-.23-.51-.51s.23-.51.51-.51h16.12c.28,0,.51.23.51.51s-.23.51-.51.51ZM27.55,9.41h0s-16.12,0-16.12,0c-.28,0-.51-.23-.51-.51s.23-.51.51-.51h16.12c.28,0,.51.23.51.51s-.23.51-.51.51Z"/>
        <path class="cls-1" d="M44.26,36.95l-3.59-3.59c.99-2.06.58-4.52-1.04-6.14h0c-1.65-1.64-4.17-2.04-6.24-.99-2.07,1.06-3.23,3.33-2.87,5.63.36,2.3,2.16,4.11,4.46,4.48,1.11.18,2.21,0,3.18-.46l3.6,3.6c.33.34.79.53,1.26.53.47,0,.93-.19,1.26-.52.33-.34.52-.79.52-1.27,0-.47-.19-.93-.53-1.26ZM35.82,34.88c-1.73,0-3.25-1.15-3.71-2.82-.47-1.66.23-3.43,1.7-4.34,1.47-.9,3.37-.71,4.64.47,1.27,1.18,1.6,3.05.81,4.59h0c-.66,1.29-1.99,2.1-3.44,2.1Z"/>
      </g>
    </g>
  </g>
</svg>