<?xml version="1.0" encoding="UTF-8"?>
<svg id="Layer_2" xmlns="http://www.w3.org/2000/svg" xmlns:xlink="http://www.w3.org/1999/xlink" viewBox="0 0 50 40">
  <defs>
    <style>
      .cls-1 {
        fill: #112e57;
        fill-rule: evenodd;
      }

      .cls-2 {
        fill: none;
      }

      .cls-3 {
        clip-path: url(#clippath);
      }
    </style>
    <clipPath id="clippath">
      <rect class="cls-2" width="50" height="40"/>
    </clipPath>
  </defs>
  <g id="Layer_1-2" data-name="Layer_1">
    <g class="cls-3">
      <path class="cls-1" d="M10.7,0h28.15v24.35l-13.78,9.27-14.37-9.59V0h0ZM25,15.79c.43,0,.82.17,1.1.46s.46.67.46,1.1-.17.82-.46,1.1-.67.46-1.1.46-.82-.17-1.1-.46-.46-.67-.46-1.1c0-.38-.3-.68-.68-.68s-.68.3-.68.68c0,.81.33,1.54.86,2.07.37.37.85.65,1.39.78v1.54c0,.38.3.68.68.68s.68-.3.68-.68v-1.54c.53-.13,1.01-.4,1.39-.78.53-.53.86-1.26.86-2.07s-.33-1.54-.86-2.07c-.53-.53-1.26-.86-2.07-.86-.43,0-.82-.17-1.1-.46s-.46-.67-.46-1.1.17-.82.46-1.1c.28-.28.67-.46,1.1-.46s.82.17,1.1.46.46.67.46,1.1c0,.38.3.68.68.68s.68-.3.68-.68c0-.81-.33-1.54-.86-2.07-.37-.37-.85-.65-1.39-.77v-1.54c0-.38-.3-.68-.68-.68s-.68.3-.68.68v1.54c-.53.13-1.01.4-1.39.77-.53.53-.86,1.26-.86,2.07s.33,1.54.86,2.07c.53.53,1.26.86,2.07.86h0ZM25,5.7c-2.6,0-4.95,1.05-6.66,2.76-1.7,1.7-2.76,4.06-2.76,6.66s1.05,4.95,2.76,6.66,4.06,2.76,6.66,2.76,4.95-1.05,6.66-2.76c1.7-1.7,2.76-4.06,2.76-6.66s-1.05-4.95-2.76-6.66c-1.7-1.7-4.06-2.76-6.66-2.76h0ZM30.69,9.42c-1.45-1.45-3.47-2.36-5.69-2.36s-4.24.9-5.69,2.36-2.36,3.47-2.36,5.69.9,4.24,2.36,5.69,3.47,2.36,5.69,2.36,4.24-.9,5.69-2.36,2.36-3.47,2.36-5.69-.9-4.24-2.36-5.69h0ZM46.13,17.55v1.92l-5.91,3.96v-12.15l5.12,4.41c.55.47.78,1.12.78,1.85h0ZM46.13,21.11l-5.91,3.96h0s-15.15,10.19-15.15,10.19l-.29-.19s-.08-.04-.12-.06l-3.63-2.44-11.7-7.81v-.05l-5.46-3.66v15.54c0,1.88,1.54,3.43,3.43,3.43h35.4c1.88,0,3.43-1.54,3.43-3.43v-15.46h0ZM3.87,19.39v-1.85c0-.72.23-1.37.78-1.84l4.68-4.03v11.39l-5.46-3.67Z"/>
    </g>
  </g>
</svg>