<?xml version="1.0" encoding="UTF-8"?>
<svg id="Layer_2" xmlns="http://www.w3.org/2000/svg" xmlns:xlink="http://www.w3.org/1999/xlink" viewBox="0 0 50 40">
  <defs>
    <style>
      .cls-1 {
        fill: #112e57;
      }

      .cls-2 {
        fill: none;
      }

      .cls-3 {
        clip-path: url(#clippath);
      }
    </style>
    <clipPath id="clippath">
      <rect class="cls-2" width="50" height="40"/>
    </clipPath>
  </defs>
  <g id="Layer_1-2" data-name="Layer_1">
    <g class="cls-3">
      <g>
        <path class="cls-1" d="M42.22,1.24H3.13c-1.17,0-2.13.96-2.13,2.13v22.88c0,1.17.96,2.13,2.13,2.13h39.09c1.17,0,2.13-.96,2.13-2.13V3.38c0-1.17-.96-2.13-2.13-2.13ZM12.25,21.13h0c.05,0-6.08,0-6.08,0l.11-.64c.27-.69.27-1.17,1.01-1.49.96-.43,2.51-.85,3.04-1.33.27-.27.32-.53.32-.85,0-.11,0-.21-.05-.32-.43-.16-.69-1.01-.8-1.28-.16-.05-.27-.11-.32-.21-.48-.8-.69-1.39-.21-1.44,0,0-.05-.27-.05-.75l-.27-.8s0-.21.21-.8c.21-.64-.05-1.12.85-1.01,0,0-.11-.91,2.35-1.49,2.45-.59,1.76.8,3.04,1.44,0,0,.21.59-.27,1.01.43,1.17.16,2.45.16,2.45.43.05.27.64-.21,1.44-.05.11-.21.16-.32.21-.11.27-.37,1.12-.8,1.28-.05.11-.05.21-.05.32,0,.32.05.59.32.85.53.53,2.08.96,3.04,1.33.75.32.75.8,1.01,1.49l.11.64c-.05-.05-6.19-.05-6.13-.05ZM29.58,18.89h-7.73c-.27,0-.53-.21-.53-.53,0-.27.21-.53.53-.53h7.68c.27,0,.53.21.53.53,0,.27-.21.53-.48.53ZM37.26,15.32h-15.41c-.27,0-.53-.21-.53-.53,0-.27.21-.53.53-.53h15.41c.27,0,.53.21.53.53s-.27.53-.53.53ZM37.26,11.8h-15.41c-.27,0-.53-.21-.53-.53,0-.27.21-.53.53-.53h15.41c.27,0,.53.21.53.53s-.27.53-.53.53Z"/>
        <path class="cls-1" d="M47.45,12.55l-2.03-.53v14.24c0,1.76-1.44,3.2-3.2,3.2H6.39l33.92,9.23c1.12.32,2.29-.37,2.61-1.49l6.03-22.02c.27-1.12-.37-2.29-1.49-2.61Z"/>
      </g>
    </g>
  </g>
</svg>