<?xml version="1.0" encoding="UTF-8"?>
<svg id="Layer_2" xmlns="http://www.w3.org/2000/svg" xmlns:xlink="http://www.w3.org/1999/xlink" viewBox="0 0 50 40">
  <defs>
    <style>
      .cls-1 {
        fill: #112e57;
        fill-rule: evenodd;
      }

      .cls-2 {
        fill: none;
      }

      .cls-3 {
        clip-path: url(#clippath);
      }
    </style>
    <clipPath id="clippath">
      <rect class="cls-2" width="50" height="40"/>
    </clipPath>
  </defs>
  <g id="Layer_1-2" data-name="Layer_1">
    <g class="cls-3">
      <path class="cls-1" d="M6.77,3.02h2v2.67c0,.87.7,1.57,1.57,1.57h2.23c.87,0,1.57-.7,1.57-1.57v-2.67h2.42v2.67c0,.87.7,1.57,1.57,1.57h2.23c.87,0,1.57-.7,1.57-1.57v-2.67h2.42v2.67c0,.87.7,1.57,1.57,1.57h2.23c.87,0,1.57-.7,1.57-1.57v-2.67h2.42v2.67c0,.87.7,1.57,1.57,1.57h2.23c.87,0,1.57-.7,1.57-1.57v-2.67h2c.78,0,1.42.64,1.42,1.42v4.58H5.35s0-4.58,0-4.58c0-.78.64-1.42,1.42-1.42h0ZM35.69,22.07c4.95,0,8.96,4.01,8.96,8.96,0,2.21-.8,4.24-2.13,5.8-.26-.86-.71-1.64-1.32-2.29-.66-.71-1.5-1.26-2.44-1.57.75-.76,1.21-1.81,1.21-2.95s-.48-2.23-1.26-3c-.78-.77-1.85-1.24-3.03-1.24s-2.25.47-3.03,1.24c-.78.77-1.26,1.83-1.26,3s.46,2.19,1.21,2.95c-.94.31-1.78.86-2.44,1.57-.6.64-1.05,1.42-1.32,2.29-1.33-1.56-2.13-3.59-2.13-5.8,0-4.95,4.01-8.96,8.96-8.96h0ZM41.51,37.86c-.13-.95-.56-1.81-1.19-2.48-.75-.8-1.77-1.34-2.92-1.45-.52.23-1.1.35-1.71.35s-1.18-.12-1.71-.35c-1.15.11-2.18.65-2.92,1.45-.62.67-1.05,1.53-1.19,2.48,1.57,1.34,3.6,2.14,5.82,2.14s4.25-.81,5.82-2.14h0ZM37.87,27.9c-.56-.55-1.33-.89-2.18-.89s-1.62.34-2.18.89c-.55.55-.9,1.3-.9,2.14s.34,1.59.9,2.14c.56.55,1.33.89,2.18.89s1.62-.34,2.18-.89c.55-.55.9-1.3.9-2.14s-.34-1.59-.9-2.14ZM10.34,0c-.2,0-.36.16-.36.36v5.33c0,.2.16.36.36.36h2.23c.2,0,.36-.16.36-.36V.36c0-.2-.16-.36-.36-.36h-2.23ZM33.72,0c-.2,0-.36.16-.36.36v5.33c0,.2.16.36.36.36h2.23c.2,0,.36-.16.36-.36V.36c0-.2-.16-.36-.36-.36h-2.23ZM25.93,0c-.2,0-.36.16-.36.36v5.33c0,.2.16.36.36.36h2.23c.2,0,.36-.16.36-.36V.36c0-.2-.16-.36-.36-.36h-2.23ZM18.14,0c-.2,0-.36.16-.36.36v5.33c0,.2.16.36.36.36h2.23c.2,0,.36-.16.36-.36V.36c0-.2-.16-.36-.36-.36h-2.23ZM40.95,10.24H5.35v25.77c0,.78.64,1.42,1.42,1.42h21c-1.42-1.75-2.27-3.98-2.27-6.4,0-3.8,2.08-7.11,5.17-8.86h-2.71c-.2,0-.37-.16-.37-.37v-2.92c0-.2.16-.37.37-.37h2.92c.2,0,.37.16.37.37v2.92s0,.05,0,.07c.82-.4,1.71-.69,2.64-.86v-2.12c0-.2.16-.37.37-.37h2.92c.2,0,.37.16.37.37v2.13c1.23.22,2.39.67,3.42,1.3v-12.08h0ZM9.14,18.54h2.92c.2,0,.37.16.37.37v2.92c0,.2-.16.37-.37.37h-2.92c-.2,0-.37-.16-.37-.37v-2.92c0-.2.16-.37.37-.37ZM34.24,12.26h2.92c.2,0,.37.16.37.37v2.92c0,.2-.16.37-.37.37h-2.92c-.2,0-.37-.16-.37-.37v-2.92c0-.2.16-.37.37-.37ZM27.97,12.26h2.92c.2,0,.37.16.37.37v2.92c0,.2-.16.37-.37.37h-2.92c-.2,0-.37-.16-.37-.37v-2.92c0-.2.16-.37.37-.37ZM21.69,31.09h2.92c.2,0,.37.16.37.37v2.92c0,.2-.16.37-.37.37h-2.92c-.2,0-.37-.16-.37-.37v-2.92c0-.2.16-.37.37-.37ZM15.41,31.09h2.92c.2,0,.37.16.37.37v2.92c0,.2-.16.37-.37.37h-2.92c-.2,0-.37-.16-.37-.37v-2.92c0-.2.16-.37.37-.37ZM9.14,31.09h2.92c.2,0,.37.16.37.37v2.92c0,.2-.16.37-.37.37h-2.92c-.2,0-.37-.16-.37-.37v-2.92c0-.2.16-.37.37-.37ZM21.69,24.81h2.92c.2,0,.37.16.37.37v2.92c0,.2-.16.37-.37.37h-2.92c-.2,0-.37-.16-.37-.37v-2.92c0-.2.16-.37.37-.37ZM15.41,24.81h2.92c.2,0,.37.16.37.37v2.92c0,.2-.16.37-.37.37h-2.92c-.2,0-.37-.16-.37-.37v-2.92c0-.2.16-.37.37-.37ZM9.14,24.81h2.92c.2,0,.37.16.37.37v2.92c0,.2-.16.37-.37.37h-2.92c-.2,0-.37-.16-.37-.37v-2.92c0-.2.16-.37.37-.37ZM21.69,18.54h2.92c.2,0,.37.16.37.37v2.92c0,.2-.16.37-.37.37h-2.92c-.2,0-.37-.16-.37-.37v-2.92c0-.2.16-.37.37-.37ZM15.41,18.54h2.92c.2,0,.37.16.37.37v2.92c0,.2-.16.37-.37.37h-2.92c-.2,0-.37-.16-.37-.37v-2.92c0-.2.16-.37.37-.37ZM8.32,14.38c-.22-.25-.2-.63.04-.85.25-.22.63-.2.85.04l.86.95,1.89-2.2c.22-.25.6-.28.85-.07.25.22.28.6.07.85l-2.31,2.7s-.05.06-.07.08c-.25.22-.63.2-.85-.04l-1.32-1.47h0ZM20.87,14.38c-.22-.25-.2-.63.04-.85.25-.22.63-.2.85.04l.86.95,1.89-2.2c.22-.25.6-.28.85-.07.25.22.28.6.07.85l-2.31,2.7s-.05.06-.07.08c-.25.22-.63.2-.85-.04l-1.32-1.47h0ZM14.6,14.38c-.22-.25-.2-.63.04-.85.25-.22.63-.2.85.04l.86.95,1.89-2.2c.22-.25.6-.28.85-.07.25.22.28.6.07.85l-2.31,2.7s-.05.06-.07.08c-.25.22-.63.2-.85-.04l-1.32-1.47h0Z"/>
    </g>
  </g>
</svg>