<?xml version="1.0" encoding="UTF-8"?>
<svg id="Layer_2" xmlns="http://www.w3.org/2000/svg" xmlns:xlink="http://www.w3.org/1999/xlink" viewBox="0 0 50 40">
  <defs>
    <style>
      .cls-1 {
        fill: #112e57;
      }

      .cls-2 {
        fill: none;
      }

      .cls-3 {
        clip-path: url(#clippath);
      }
    </style>
    <clipPath id="clippath">
      <rect class="cls-2" width="50" height="40"/>
    </clipPath>
  </defs>
  <g id="Layer_1-2" data-name="Layer_1">
    <g class="cls-3">
      <path class="cls-1" d="M22.83,25.87c0,2.09.83,4.09,2.3,5.56,1.48,1.48,3.47,2.3,5.56,2.3s4.08-.83,5.56-2.3c1.47-1.47,2.3-3.47,2.3-5.56s-.83-4.09-2.3-5.56c-1.48-1.48-3.47-2.3-5.56-2.3s-4.09.83-5.56,2.3c-1.47,1.47-2.3,3.47-2.3,5.56ZM35.11,21.46c2.11,2.11,2.43,5.41.77,7.88-1.65,2.48-4.83,3.44-7.58,2.3-2.75-1.14-4.31-4.07-3.73-6.99.58-2.92,3.15-5.02,6.13-5.02,1.65,0,3.24.65,4.41,1.82h0ZM29.28,17.29c-.7.11-1.38.31-2.03.6v-7.26h2.03v6.66ZM24.43,19.85c-.51.53-.96,1.12-1.32,1.76h-.72v-5.44h2.03v3.68ZM32.89,28.34c.55.49.91,1.14,1.05,1.86-1.92,1.43-4.56,1.43-6.48,0,.21-1.17,1.04-2.14,2.17-2.53,1.13-.39,2.37-.13,3.26.66h0ZM26.76,29.58c.22-.71.64-1.36,1.19-1.85,1.05-.93,2.5-1.27,3.85-.89,1.35.38,2.42,1.41,2.84,2.75,1.48-1.57,1.89-3.87,1.03-5.86-.86-1.98-2.81-3.27-4.97-3.27s-4.11,1.28-4.97,3.27c-.86,1.98-.45,4.28,1.03,5.86h0ZM29.14,22.55h0c.75-.74,1.91-.85,2.78-.27.87.59,1.21,1.7.81,2.68-.4.97-1.44,1.52-2.47,1.32-1.03-.21-1.77-1.11-1.77-2.16,0-.58.23-1.14.64-1.56h0ZM29.73,25.08h0c-.26-.25-.4-.6-.4-.97s.14-.71.4-.97c.54-.54,1.4-.54,1.94,0,.53.54.53,1.41,0,1.94-.26.26-.61.4-.97.4s-.71-.14-.97-.4h0ZM12.66,21.61v-2.67h2.03v2.67h-2.03ZM34.03,33.9l1.53,1.52v.84c0,1.91-1.55,3.45-3.46,3.46H9.84c-1.91,0-3.45-1.55-3.46-3.46V7.08c0-1.91,1.55-3.45,3.46-3.46h5.18v1.79h-5.18c-.92,0-1.66.75-1.67,1.67v29.18c0,.92.75,1.66,1.67,1.67h22.26c.92,0,1.66-.75,1.66-1.67v-2.25c.09-.03.18-.06.27-.11h0ZM32.1,5.41h-5.18v-1.79h5.18c1.91,0,3.45,1.55,3.46,3.46v11.6c-.56-.37-1.16-.68-1.79-.92V7.08c0-.92-.75-1.66-1.66-1.67h0ZM43.14,39.52c-.31.31-.72.48-1.16.48s-.85-.17-1.16-.48l-6-6c.97-.52,1.83-1.22,2.54-2.07l5.77,5.76c.64.64.64,1.67,0,2.31h0ZM15.85,6.18v-2.93c0-.44.36-.8.8-.8h1.5c.21,0,.39-.15.41-.36.17-1.2,1.2-2.09,2.41-2.09s2.24.89,2.41,2.09c.03.21.2.36.41.36h1.5c.44,0,.8.36.8.8v2.95c0,.44-.36.8-.8.8h-8.64c-.22,0-.42-.09-.57-.24-.15-.15-.23-.36-.23-.58h0ZM9.24,6.49c-.15.15-.24.37-.24.59v29.18c0,.22.09.43.24.59.16.16.37.24.59.25h22.27c.46,0,.83-.37.84-.83v-1.98c-2.11.56-4.36.31-6.29-.71-1.93-1.02-3.41-2.73-4.14-4.79-.73-2.06-.66-4.32.2-6.33h-11.21c-.12.01-.23-.03-.32-.11-.09-.08-.14-.19-.14-.31s.05-.23.14-.31c.09-.08.2-.12.32-.11h.35v-2.84c0-.18.07-.35.2-.47.13-.13.29-.19.47-.19h2.36c.19,0,.37.08.49.22.11.12.18.28.18.44v2.83h1.17v-8.37c0-.18.07-.35.19-.47.13-.12.29-.19.47-.19h2.35c.37,0,.66.3.67.66v8.37h1.17v-5.57c0-.18.07-.35.19-.47.13-.13.3-.19.47-.19h2.35c.18,0,.35.07.47.19.13.12.21.29.21.47v3.09c.37-.3.76-.56,1.17-.79v-7.86c0-.18.07-.35.19-.47.12-.13.29-.2.47-.2h2.36c.18,0,.35.07.47.19.13.12.19.29.19.47v6.73h.59c.75,0,1.5.1,2.23.29V7.08c0-.46-.37-.83-.83-.83h-5.18c-.04.87-.76,1.56-1.63,1.57h-8.64c-.87,0-1.59-.69-1.63-1.57h-5.18c-.22,0-.43.09-.59.25h-.01ZM18.71,25.38h2.28c.21.02.38.2.38.42s-.16.39-.38.42h-2.28c-.12.01-.23-.03-.32-.11-.09-.08-.14-.19-.14-.31s.05-.23.14-.31c.09-.08.21-.12.32-.11ZM18.71,27.58h2.2c.12-.01.24.03.32.11s.14.19.14.31-.05.23-.14.31-.2.12-.32.11h-2.2c-.12.01-.23-.03-.32-.11-.09-.08-.14-.19-.14-.31s.05-.23.14-.31c.09-.08.21-.12.32-.11ZM18.71,31.37h4.05c.12-.01.24.03.32.11.09.08.14.19.14.31s-.05.23-.14.31c-.09.08-.2.12-.32.11h-4.05c-.12.01-.23-.03-.32-.11-.09-.08-.14-.19-.14-.31s.05-.23.14-.31c.09-.08.21-.12.32-.11h0ZM18.71,33.57h4.66c.21.02.38.2.38.42s-.16.39-.38.42h-4.66c-.12.01-.23-.03-.32-.11-.09-.08-.14-.19-.14-.31s.05-.23.14-.31c.09-.08.21-.12.32-.11h0ZM11.43,26.61c.17-.15.42-.15.59,0l1.08,1.08,2.46-2.46h0c.17-.15.42-.15.59,0,.08.08.12.18.12.29s-.04.22-.12.29l-2.75,2.76h0c-.17.15-.42.15-.59,0l-1.38-1.38c-.15-.17-.15-.42,0-.59h0ZM11.43,32.6c.17-.15.42-.15.59,0l1.08,1.08,2.46-2.46c.17-.14.41-.13.57.02.15.15.16.4.02.57l-2.75,2.75c-.17.15-.42.15-.59,0l-1.38-1.38c-.15-.17-.15-.42,0-.59h0ZM17.51,13.38h2.03v8.23h-2.03v-8.23Z"/>
    </g>
  </g>
</svg>