<?xml version="1.0" encoding="UTF-8"?>
<svg id="Layer_2" xmlns="http://www.w3.org/2000/svg" xmlns:xlink="http://www.w3.org/1999/xlink" viewBox="0 0 50 40">
  <defs>
    <style>
      .cls-1 {
        fill: #112e57;
        fill-rule: evenodd;
      }

      .cls-2 {
        fill: none;
      }

      .cls-3 {
        clip-path: url(#clippath);
      }
    </style>
    <clipPath id="clippath">
      <rect class="cls-2" width="50" height="40"/>
    </clipPath>
  </defs>
  <g id="Layer_1-2" data-name="Layer_1">
    <g class="cls-3">
      <path class="cls-1" d="M18.72,23.93h14.15c1.59,0,2.89-1.29,2.9-2.88-.63-.42-1.17-.97-1.58-1.62h-7.98v1.9c0,.23-.18.41-.41.41s-.41-.18-.41-.41v-9.59c0-.23.18-.41.41-.41s.41.18.41.41v1.9h7.98c.41-.65.95-1.2,1.58-1.62,0-1.58-1.31-2.88-2.9-2.88h-11.61v-2.06c0-2.49,2.04-4.54,4.54-4.54s4.54,2.04,4.54,4.54h2.54C32.87,3.18,29.69,0,25.79,0s-7.08,3.18-7.08,7.08v2.06c-1.59,0-2.9,1.3-2.9,2.9v9.01c0,1.59,1.3,2.9,2.9,2.9h0ZM36.86,7.16c-.21.08-.45-.01-.53-.22-.08-.21.01-.45.22-.53l1.95-.81c.21-.08.45.01.53.22s-.01.45-.22.53l-1.95.81h0ZM36.5,3.24c.16-.16.42-.16.58,0s.16.42,0,.58l-1.62,1.62c-.16.16-.42.16-.58,0s-.16-.42,0-.58l1.62-1.62ZM39.07,8.61c.23,0,.41.18.41.41s-.18.41-.41.41h-2.29c-.23,0-.41-.18-.41-.41s.18-.41.41-.41h2.29ZM39.72,16.54c0-.26-.11-.5-.28-.67-.17-.17-.41-.28-.67-.28s-.5.11-.67.28c-.17.17-.28.41-.28.67s.11.5.28.67c.17.17.41.28.67.28s.5-.11.67-.28c.17-.17.28-.41.28-.67ZM13.69,39.35s0,0,.01-.01c.43-.35.83-.66,1.2-.9,1.03-.66,2.07-.97,3.29-.98l6.58-.05c1.2-.01,2.24-.31,3.25-.96,3.97-2.52,7.83-5.09,11.77-7.7l-1.11-1.78c-.61-.98-1.89-1.26-2.85-.62l-5.86,3.89-2.15,1.37c-1.56.99-3.29,1.23-5.06.7l-4.16-1.24c-.34-.1-.27-.6.08-.6l4.72-.07c2.72-.04,2.73-4.2,0-4.2h-6.34c-1.47,0-3.1-.1-4.24.82-1.85,1.5-3.26,3.42-5.04,4.79h0c-.66.51-1.04,1.18-1.14,2.01-.1.82.11,1.57.62,2.22l2.22,2.82c.51.65,1.18,1.02,2,1.12.82.1,1.56-.11,2.2-.62h0ZM43.38,16.54c0,2.55-2.06,4.61-4.61,4.61-1.8,0-3.36-1.03-4.12-2.53h-8.45v-4.16h8.45c.76-1.5,2.32-2.53,4.12-2.53,2.55,0,4.61,2.06,4.61,4.61h0Z"/>
    </g>
  </g>
</svg>