<?xml version="1.0" encoding="UTF-8"?>
<svg id="Layer_2" xmlns="http://www.w3.org/2000/svg" xmlns:xlink="http://www.w3.org/1999/xlink" viewBox="0 0 50 40">
  <defs>
    <style>
      .cls-1 {
        fill: #112e57;
      }

      .cls-2 {
        fill: none;
      }

      .cls-3 {
        clip-path: url(#clippath);
      }
    </style>
    <clipPath id="clippath">
      <rect class="cls-2" width="50" height="40"/>
    </clipPath>
  </defs>
  <g id="Layer_1-2" data-name="Layer_1">
    <g class="cls-3">
      <path class="cls-1" d="M39.9,38.33c.18.18.29.43.29.69s-.1.51-.29.69c-.18.18-.43.29-.69.29s-.51-.1-.69-.29c-.14-.14-1.54-1.7-3.86-4.29l-.12-.13.14-.11c.26-.21.5-.43.72-.67l.11-.12.12.11c2.57,2.29,4.12,3.69,4.26,3.83h0ZM34.16,13.92c0,2.18,1.77,3.95,3.95,3.95s3.95-1.77,3.95-3.95-1.77-3.95-3.95-3.95-3.95,1.77-3.95,3.95ZM36.33,29.6c0,3.39-2.76,6.15-6.15,6.15s-6.15-2.76-6.15-6.15,2.76-6.15,6.15-6.15,6.15,2.76,6.15,6.15ZM35.49,29.6c0-2.93-2.38-5.31-5.31-5.31s-5.31,2.38-5.31,5.31,2.38,5.31,5.31,5.31,5.31-2.38,5.31-5.31ZM34.47,29.6c0,2.37-1.92,4.29-4.29,4.29s-4.29-1.92-4.29-4.29,1.92-4.29,4.29-4.29,4.29,1.92,4.29,4.29ZM32.82,28.54c-.1-.1-.22-.15-.36-.15s-.26.05-.36.15l-2.47,2.47-1.36-1.36c-.1-.1-.22-.15-.36-.15s-.26.05-.36.15-.15.22-.15.36.05.26.15.36l1.72,1.72c.1.1.22.15.36.15s.26-.05.36-.15l2.83-2.83c.2-.2.2-.52,0-.72h0ZM41.12,17.94h-.07s-.06.03-.06.03c-.85.6-1.84.92-2.88.92s-2.03-.32-2.88-.92l-.06-.04h-.07c-2.2.46-3.52,1.46-4.02,3.07l-.04.13.11.07c.73.46,1.3,1.04,1.71,1.72l.03.05.05.02c1.92.81,3.4,2.41,4.05,4.39l.04.12h7.46c.48,0,.87-.39.87-.87v-3.95c0-2.64-1.35-4.14-4.25-4.72h0ZM16.86,13.92c0,1.08-.34,2.11-.99,2.97l-.15.19.23.07c.34.1.67.22.97.35h.03s2.88.01,2.88.01v-.18c-.03-.15-.03-.28-.03-.4,0-2.86,2.33-5.19,5.19-5.19.06,0,.12,0,.18,0h.22s-.04-.2-.04-.2c-.36-1.92-1.72-3.09-4.15-3.58h-.07s-.06.03-.06.03c-.85.6-1.84.92-2.88.92s-2.03-.32-2.88-.92l-.06-.04h-.07c-.86.19-1.61.46-2.22.82l-.36.21.41.1c2.25.53,3.83,2.52,3.83,4.84h0ZM31.8,7.91c2.18,0,3.95-1.77,3.95-3.95s-1.77-3.95-3.95-3.95-3.95,1.77-3.95,3.95,1.77,3.95,3.95,3.95ZM18.2,7.91c2.18,0,3.95-1.77,3.95-3.95s-1.77-3.95-3.95-3.95-3.95,1.77-3.95,3.95,1.77,3.95,3.95,3.95ZM26.43,11.84v.11s.12.03.12.03c2.18.68,3.64,2.67,3.64,4.96,0,.12,0,.25-.02.4v.18s2.87,0,2.87,0h.03c.3-.15.62-.26.97-.36l.23-.07-.15-.19c-.65-.86-.99-1.89-.99-2.97,0-2.32,1.57-4.3,3.83-4.84l.41-.1-.36-.21c-.6-.36-1.35-.63-2.22-.8h-.07s-.06.03-.06.03c-.85.6-1.84.92-2.88.92s-2.03-.32-2.88-.92l-.06-.04h-.07c-1.33.28-2.35.77-3.05,1.45l-.1.09.07.12c.39.64.63,1.39.72,2.23h0ZM11.89,17.88c2.18,0,3.95-1.77,3.95-3.95s-1.77-3.95-3.95-3.95-3.95,1.77-3.95,3.95,1.77,3.95,3.95,3.95ZM23.01,29.6c0-3.95,3.22-7.17,7.17-7.17.15,0,.3,0,.46.01l.62.04-.52-.35c-.68-.46-1.53-.79-2.6-1h-.07s-.06.03-.06.03c-.88.63-1.93.97-3.02.97s-2.13-.34-3.02-.97l-.06-.04h-.07c-3.07.63-4.5,2.21-4.5,5v4.15c0,.52.42.94.94.94h4.9l-.04-.2c-.09-.46-.14-.94-.14-1.41h0ZM18.85,21.19l.11-.07-.04-.13c-.5-1.61-1.82-2.61-4.02-3.05h-.07s-.06.03-.06.03c-.85.6-1.84.92-2.88.92s-2.03-.32-2.88-.92l-.06-.04h-.07c-2.9.6-4.25,2.1-4.25,4.74v3.95c0,.48.39.87.87.87h10.83v-1.37c0-1.76.53-3.17,1.58-4.2.27-.27.59-.51.93-.73h0ZM25,12.77c-2.3,0-4.18,1.87-4.18,4.18s1.87,4.18,4.18,4.18,4.18-1.87,4.18-4.18-1.87-4.18-4.18-4.18Z"/>
    </g>
  </g>
</svg>