<?xml version="1.0" encoding="UTF-8"?>
<svg id="Layer_2" xmlns="http://www.w3.org/2000/svg" xmlns:xlink="http://www.w3.org/1999/xlink" viewBox="0 0 50 40">
  <defs>
    <style>
      .cls-1 {
        fill: #112e57;
      }

      .cls-2 {
        fill: none;
      }

      .cls-3 {
        clip-path: url(#clippath);
      }
    </style>
    <clipPath id="clippath">
      <rect class="cls-2" width="50" height="40"/>
    </clipPath>
  </defs>
  <g id="Layer_1-2" data-name="Layer_1">
    <g class="cls-3">
      <g>
        <path class="cls-1" d="M14.67,10.21c1.26,0,2.3-1.02,2.3-2.3V2.3c0-1.26-1.02-2.3-2.3-2.3s-2.3,1.02-2.3,2.3v5.62c0,1.26,1.03,2.3,2.3,2.3Z"/>
        <path class="cls-1" d="M35.33,10.21c1.26,0,2.3-1.02,2.3-2.3V2.3c0-1.26-1.02-2.3-2.3-2.3s-2.29,1.03-2.29,2.3v5.62c0,1.26,1.02,2.3,2.29,2.3Z"/>
        <path class="cls-1" d="M40.16,5.45h-1.23v2.46c0,1.98-1.61,3.59-3.59,3.59s-3.59-1.61-3.59-3.59v-2.46h-13.48v2.46c0,1.98-1.61,3.59-3.59,3.59s-3.59-1.61-3.59-3.59v-2.46h-1.23c-2.73,0-4.95,2.22-4.95,4.96v3.88h40.21v-3.88c0-2.74-2.22-4.96-4.95-4.96Z"/>
        <path class="cls-1" d="M32.01,32.64c.3-.14.58-.32.82-.55l-3.57-2.25c-.1.32-.15.64-.14.98l.05,3.14,2.85-1.32Z"/>
        <path class="cls-1" d="M39.98,20.94c.12-.19.16-.42.11-.64-.05-.22-.18-.41-.38-.53l-2.3-1.45c-.19-.12-.42-.16-.64-.11-.22.05-.41.18-.53.38l-1.11,1.76,3.74,2.36,1.11-1.76Z"/>
        <rect class="cls-1" x="29.73" y="24.03" width="8.58" height="4.42" transform="translate(-6.32 41.04) rotate(-57.79)"/>
        <path class="cls-1" d="M4.89,35.05c0,2.73,2.22,4.95,4.95,4.95h30.31c2.73,0,4.95-2.22,4.95-4.95V15.58H4.89v19.47ZM28.33,28.73s0-.03.01-.05c.02-.03.04-.06.05-.1,0,0,0-.02.01-.03h0s.05-.08.07-.13l6.65-10.56c.3-.49.78-.82,1.34-.95.56-.12,1.14-.03,1.62.28l2.3,1.45c.49.3.82.78.95,1.34.13.56.03,1.14-.28,1.62l-6.65,10.57s-.05.08-.08.12h0s0,.01-.01.02c-.02.03-.03.05-.05.08-.01.02-.03.03-.05.05-.44.6-1.01,1.07-1.68,1.38l-2.85,1.3c-.18.08-.36.12-.54.12-.24,0-.48-.06-.69-.2-.37-.23-.6-.64-.6-1.07l-.05-3.14c-.02-.74.16-1.47.51-2.11ZM10.17,24.34h13.74c.36,0,.65.29.65.65s-.29.65-.65.65h-13.74c-.36,0-.65-.29-.65-.65s.29-.65.65-.65ZM10.17,28.65h13.74c.36,0,.65.29.65.65s-.29.65-.65.65h-13.74c-.36,0-.65-.29-.65-.65s.29-.65.65-.65ZM10.17,32.96h8.96c.36,0,.65.29.65.65s-.29.65-.65.65h-8.96c-.36,0-.65-.29-.65-.65s.29-.65.65-.65Z"/>
      </g>
    </g>
  </g>
</svg>