<?xml version="1.0" encoding="UTF-8"?>
<svg id="Layer_2" xmlns="http://www.w3.org/2000/svg" viewBox="0 0 90 90">
  <defs>
    <style>
      .cls-1 {
        fill: #fff;
      }

      .cls-2 {
        fill: #112e57;
      }
    </style>
  </defs>
  <g id="Layer_1-2" data-name="Layer_1">
    <rect class="cls-2" x="0" y="0" width="90" height="90" rx="45" ry="45"/>
    <path class="cls-1" d="M56.43,67.5c-.16,0-.32-.04-.46-.12l-8.27-4.77c-.21-.12-.37-.32-.43-.56-.06-.24-.03-.49.09-.7l.88-1.53c.16-.28.47-.46.8-.46.15,0,.3.04.43.11l.27.15.31-2.35c.17-1.25.71-2.18,1.58-2.68l6.45-3.69c.4-.23.84-.35,1.3-.35.23,0,.47.03.7.09.25.07.49.17.7.3l.25.15,1.88-7.03c.17-.62.57-1.15,1.13-1.47.37-.21.79-.33,1.21-.33.21,0,.42.03.63.08.62.17,1.15.57,1.47,1.13.32.56.41,1.21.24,1.84l-3.07,11.44c-.27,1-.89,1.81-1.84,2.41l-3.57,2.24c-.95.6-1.44,1.35-1.64,2.51l-.03.15.31.18c.21.12.37.32.43.56.06.24.03.49-.09.7l-.88,1.53c-.12.21-.32.37-.56.43-.08.02-.16.03-.24.03ZM48.27,61.77l8.13,4.7.8-1.39-8.13-4.7-.8,1.39ZM59.39,51.54c-.28,0-.55.07-.8.21l-6.45,3.69c-.59.34-.96.99-1.09,1.94l-.37,2.78,5.84,3.38.07-.27c.31-1.19.94-2.05,1.99-2.7l3.57-2.24c.75-.47,1.2-1.05,1.4-1.82l3.07-11.44c.2-.76-.25-1.54-1-1.74-.12-.03-.24-.05-.37-.05-.25,0-.49.07-.71.19-.33.19-.57.5-.66.86l-2.09,7.79.03.07c.5,1.21.01,2.62-1.13,3.27l-3.44,1.97c-.08.04-.16.07-.25.07-.18,0-.35-.1-.44-.25-.14-.24-.05-.55.19-.69l3.44-1.97c.38-.22.65-.57.76-.98.11-.42.06-.86-.16-1.23-.21-.37-.56-.64-.98-.76-.14-.04-.29-.06-.43-.06ZM33.57,67.5c-.08,0-.16-.01-.24-.03-.24-.06-.44-.22-.56-.43l-.88-1.53c-.12-.21-.16-.46-.09-.7.06-.24.22-.44.43-.56l.31-.18-.03-.15c-.2-1.17-.69-1.92-1.64-2.51l-3.57-2.24c-.95-.6-1.57-1.41-1.84-2.41l-3.07-11.45c-.17-.62-.08-1.28.24-1.84s.85-.96,1.47-1.13c.2-.05.42-.08.63-.08.42,0,.84.11,1.21.33.56.33.96.85,1.13,1.47l1.88,7.03.25-.15c.22-.14.45-.24.7-.3.23-.06.46-.09.7-.09.45,0,.9.12,1.3.35l6.44,3.69c.87.5,1.42,1.42,1.58,2.68l.31,2.35.27-.15c.13-.07.28-.11.43-.11.33,0,.64.18.8.46l.88,1.53c.12.21.16.46.09.7-.06.24-.22.44-.43.56l-8.27,4.78c-.14.08-.3.12-.46.12ZM32.79,65.07l.8,1.39,8.13-4.7-.8-1.39-8.13,4.7ZM24.73,43.26c-.12,0-.25.02-.37.05-.37.1-.67.33-.86.66s-.24.71-.14,1.08l3.07,11.44c.21.77.65,1.35,1.4,1.82l3.57,2.24c1.05.66,1.68,1.51,1.99,2.7l.07.27,5.85-3.38-.37-2.78c-.13-.94-.49-1.6-1.09-1.94l-6.45-3.69c-.24-.14-.52-.21-.8-.21-.14,0-.29.02-.43.06-.42.12-.77.38-.98.76-.21.38-.27.81-.16,1.23.11.42.38.77.76.98l3.44,1.97c.24.14.32.44.19.69-.09.16-.26.25-.44.25-.09,0-.17-.02-.25-.07l-3.44-1.97c-1.14-.65-1.62-2.06-1.13-3.27l.03-.07-2.09-7.79c-.1-.36-.33-.67-.66-.86-.22-.13-.46-.19-.71-.19ZM42.27,53.59c-.28,0-.5-.23-.5-.5v-2.33l-.17-.04c-1.44-.35-2.82-.92-4.09-1.7l-.15-.09-1.65,1.65c-.09.09-.22.15-.35.15s-.26-.05-.35-.15l-3.86-3.86c-.2-.2-.2-.51,0-.71l1.65-1.65-.09-.15c-.78-1.27-1.35-2.65-1.7-4.09l-.04-.17h-2.33c-.13,0-.26-.05-.36-.15-.09-.09-.15-.22-.14-.35v-2.73c0-.16.08-.32.22-.41l.08-.06v-.1c.22-2.67,1.99-5.04,4.5-6.03l.35-.14-.29-.23c-.98-.78-1.54-1.94-1.54-3.18,0-2.24,1.82-4.07,4.07-4.07s4.07,1.82,4.07,4.07c0,1.24-.56,2.4-1.54,3.18l-.29.23.35.14c.93.37,1.76.92,2.47,1.64l.12.12.15-.09c.45-.27.92-.5,1.41-.68l.38-.14-.32-.24c-1.16-.86-1.86-2.23-1.86-3.67,0-2.51,2.05-4.56,4.56-4.56s4.56,2.04,4.56,4.56c0,1.44-.69,2.81-1.86,3.67l-.32.24.38.14c.49.18.96.41,1.41.68l.15.09.12-.12c.71-.72,1.54-1.27,2.47-1.64l.35-.14-.29-.23c-.98-.78-1.54-1.94-1.54-3.18,0-2.24,1.82-4.07,4.07-4.07s4.07,1.82,4.07,4.07c0,1.24-.56,2.4-1.54,3.18l-.29.23.35.14c2.51.99,4.28,3.36,4.49,6.03v.1s.09.06.09.06c.14.09.22.25.22.41v2.73c0,.28-.23.5-.5.5h-2.33l-.04.17c-.35,1.45-.92,2.82-1.7,4.09l-.09.15,1.65,1.65c.1.1.15.22.15.35s-.05.26-.15.35l-3.86,3.86c-.09.1-.22.15-.35.15s-.26-.05-.35-.15l-1.65-1.65-.15.09c-1.27.78-2.65,1.35-4.09,1.7l-.17.04v2.33c0,.28-.23.5-.5.5h-5.46ZM37.3,47.79c.1,0,.19.03.28.08,1.46.98,3.07,1.64,4.79,1.99.23.05.4.25.4.49v2.24h4.46v-2.24c0-.24.17-.45.4-.49,1.72-.34,3.33-1.01,4.79-1.99.08-.05.18-.08.28-.08.13,0,.26.05.35.15l1.58,1.58,3.15-3.15-1.58-1.58c-.17-.17-.2-.44-.06-.63.98-1.46,1.64-3.07,1.99-4.79.05-.23.25-.4.49-.4h2.24v-1.73h-6.89l-.02.2c-.36,4.64-4.3,8.28-8.96,8.28s-8.6-3.64-8.96-8.28l-.02-.2h-6.89v1.73h2.24c.24,0,.45.17.49.4.34,1.72,1.01,3.33,1.99,4.79.13.2.11.46-.06.63l-1.58,1.58,3.15,3.15,1.58-1.58c.1-.1.22-.15.36-.15ZM37.06,37.46c.38,4.06,3.87,7.24,7.95,7.24s7.57-3.18,7.94-7.24l.02-.24h-15.93l.02.24ZM54.49,30.63c-1.56,0-3.05.6-4.18,1.68l-.17.16.18.16c1.05.93,1.83,2.12,2.28,3.45l.05.15h7.93l-.03-.24c-.38-3.05-2.98-5.35-6.05-5.35ZM45,31.61c-2.83,0-5.36,1.69-6.46,4.31l-.13.3h13.17l-.13-.3c-1.09-2.62-3.63-4.31-6.46-4.31h0ZM35.51,30.63c-3.07,0-5.67,2.3-6.05,5.35l-.03.24h7.93l.05-.15c.45-1.32,1.23-2.52,2.28-3.45l.18-.16-.17-.16c-1.14-1.08-2.63-1.68-4.19-1.68ZM45,23.5c-1.96,0-3.55,1.59-3.55,3.55s1.59,3.55,3.55,3.55c1.96,0,3.55-1.6,3.55-3.55s-1.59-3.55-3.55-3.55ZM54.49,23.5c-1.69,0-3.06,1.37-3.06,3.06s1.37,3.06,3.06,3.06,3.06-1.37,3.06-3.06-1.37-3.06-3.06-3.06ZM35.51,23.5c-1.69,0-3.06,1.37-3.06,3.06s1.37,3.06,3.06,3.06,3.06-1.37,3.06-3.06-1.37-3.06-3.06-3.06Z"/>
  </g>
</svg>