<?xml version="1.0" encoding="UTF-8"?>
<svg id="Layer_2" xmlns="http://www.w3.org/2000/svg" viewBox="0 0 90 90">
  <defs>
    <style>
      .cls-1 {
        fill: #112e57;
      }

      .cls-2 {
        fill: #fff;
        fill-rule: evenodd;
      }
    </style>
  </defs>
  <g id="Layer_1-2" data-name="Layer_1">
    <rect class="cls-1" x="0" y="0" width="90" height="90" rx="45" ry="45"/>
    <path class="cls-2" d="M55.04,61.98h10.41c.3,0,.55.25.55.55v2.92c0,.3-.24.55-.55.55H24.55c-.3,0-.55-.25-.55-.55v-2.92c0-.3.25-.55.55-.55h1.64v-5.3c0-2.86,1.14-5.6,3.16-7.62,1.94-1.94,4.54-3.07,7.28-3.15-2.31-1.37-3.86-3.89-3.86-6.76,0-4.33,3.52-7.85,7.85-7.85s7.85,3.52,7.85,7.85c0,2.88-1.55,5.39-3.86,6.76,2.73.09,5.34,1.21,7.28,3.15,2.02,2.02,3.16,4.76,3.16,7.62v5.29h0ZM64.9,63.08H25.1v1.83h39.81v-1.83ZM44.27,47.01h-7.3c-2.57,0-5.03,1.02-6.85,2.84-1.81,1.81-2.83,4.28-2.83,6.84v5.29h4.71l-.58-8.07c-.04-.56.16-1.1.54-1.51.38-.41.91-.64,1.47-.64h14.39c.56,0,1.09.23,1.47.64.38.41.57.96.54,1.51l-.58,8.07h4.71v-5.29c0-2.57-1.02-5.03-2.83-6.84-1.82-1.82-4.28-2.84-6.84-2.84h0ZM40.62,45.91c3.73,0,6.75-3.03,6.75-6.76s-3.03-6.75-6.75-6.75-6.76,3.03-6.76,6.75,3.03,6.76,6.76,6.76ZM33.09,61.98h15.05l.58-8.15c.02-.25-.07-.5-.24-.69-.17-.19-.41-.29-.67-.29h-14.39c-.25,0-.49.11-.67.29-.17.19-.26.43-.24.69l.58,8.15h0ZM40.62,54.68c1.51,0,2.74,1.23,2.74,2.74s-1.23,2.74-2.74,2.74-2.74-1.23-2.74-2.74,1.23-2.74,2.74-2.74ZM40.62,55.77c-.91,0-1.65.73-1.65,1.64s.74,1.65,1.65,1.65,1.64-.74,1.64-1.65-.74-1.64-1.64-1.64ZM66,26.01v8.76c0,.53-.21,1.04-.59,1.42-.38.38-.89.59-1.42.59h-5.62s-3.49,3.49-3.49,3.49c-.16.16-.39.2-.6.12-.2-.09-.34-.29-.34-.51v-3.11h-1.64c-.53,0-1.04-.21-1.42-.59-.38-.38-.59-.89-.59-1.42v-8.76c0-.53.21-1.04.59-1.42.38-.38.89-.59,1.42-.59h11.69c.53,0,1.04.21,1.42.59.38.38.59.89.59,1.42h0ZM64.9,26.01c0-.24-.1-.47-.27-.64-.17-.17-.4-.27-.64-.27h-11.69c-.24,0-.48.1-.65.27-.17.17-.27.4-.27.64v8.76c0,.24.1.47.27.64.17.17.41.27.65.27h2.19c.15,0,.29.06.39.16s.16.24.16.39v2.33l2.72-2.72c.1-.1.24-.16.39-.16h5.84c.24,0,.47-.1.64-.27.17-.17.27-.4.27-.64v-8.77ZM53.77,29.48c-.3,0-.55-.25-.55-.55s.25-.55.55-.55h8.76c.3,0,.55.24.55.55s-.25.55-.55.55h-8.76ZM53.77,32.4c-.3,0-.55-.25-.55-.55s.25-.55.55-.55h8.76c.3,0,.55.25.55.55s-.25.55-.55.55h-8.76Z"/>
  </g>
</svg>