<?xml version="1.0" encoding="UTF-8"?>
<svg id="Layer_2" xmlns="http://www.w3.org/2000/svg" viewBox="0 0 90 90">
  <defs>
    <style>
      .cls-1 {
        fill: #fff;
      }

      .cls-2 {
        fill: #112e57;
      }
    </style>
  </defs>
  <g id="Layer_1-2" data-name="Layer_1">
    <rect class="cls-2" x="0" y="0" width="90" height="90" rx="45" ry="45"/>
    <path class="cls-1" d="M23.62,66c-.34,0-.62-.28-.62-.62s.28-.62.62-.62h1.53v-29.51s-1.21.72-1.21.72c-.1.06-.21.09-.32.09-.22,0-.42-.11-.53-.3-.08-.14-.11-.3-.07-.46.04-.16.14-.3.28-.38l21.38-12.83c.1-.06.21-.09.32-.09s.22.03.31.09l21.38,12.83c.14.09.24.22.28.38.04.16.01.32-.07.47-.11.19-.31.3-.53.3-.08,0-.2-.01-.31-.08l-1.21-.73v29.51h1.52c.34,0,.62.28.62.62s-.28.62-.62.62H23.62ZM57.83,39.11c.34,0,.62.28.62.62v25.04h5.18v-30.25l-18.63-11.17-18.63,11.17v30.25h5.18v-25.04c0-.34.28-.62.62-.62s.62.28.62.62v1.97l.27-.14c.39-.2.81-.3,1.25-.3h3.21c1.52,0,2.76,1.24,2.76,2.76,0,.44-.11.87-.31,1.25l-.14.27h17.38v-5.8c0-.34.28-.62.62-.62ZM32.79,64.77h24.42v-6.25h-24.42v6.25ZM37.52,53.01c1.52,0,2.76,1.24,2.76,2.76,0,.44-.1.86-.31,1.25l-.14.27h17.38v-10.53h-24.42v6.69l.27-.14c.39-.2.81-.31,1.25-.31h3.21ZM34.31,54.24c-.84,0-1.52.68-1.52,1.52s.68,1.52,1.52,1.52h3.21c.84,0,1.52-.68,1.52-1.52s-.68-1.52-1.52-1.52h-3.21ZM34.31,42.48c-.84,0-1.52.68-1.52,1.52s.68,1.52,1.52,1.52h3.21c.84,0,1.52-.68,1.52-1.52s-.68-1.52-1.52-1.52h-3.21Z"/>
  </g>
</svg>