<?xml version="1.0" encoding="UTF-8"?>
<svg id="Layer_2" xmlns="http://www.w3.org/2000/svg" xmlns:xlink="http://www.w3.org/1999/xlink" viewBox="0 0 50 40">
  <defs>
    <style>
      .cls-1 {
        fill: #112e57;
        fill-rule: evenodd;
      }

      .cls-2 {
        fill: none;
      }

      .cls-3 {
        clip-path: url(#clippath);
      }
    </style>
    <clipPath id="clippath">
      <rect class="cls-2" width="50" height="40"/>
    </clipPath>
  </defs>
  <g id="Layer_1-2" data-name="Layer_1">
    <g class="cls-3">
      <path class="cls-1" d="M39.65,1.66c1.23,0,2.24,1,2.24,2.23v33.87c0,1.23-1,2.23-2.24,2.23H10.34c-1.23,0-2.23-1-2.23-2.23V3.9c0-1.23,1-2.23,2.23-2.23h4.86v2.49s-3.76,0-3.76,0c-.33,0-.61.27-.61.61v32.15c0,.34.27.61.61.61h27.13c.34,0,.61-.27.61-.61V4.76c0-.34-.27-.61-.61-.61h-3.77V1.66s4.86,0,4.86,0ZM33.74,1.63c0-.9-.73-1.63-1.63-1.63h-14.23c-.9,0-1.63.73-1.63,1.63v2.38c0,.9.73,1.63,1.63,1.63h14.23c.9,0,1.63-.73,1.63-1.63V1.63ZM30.92,28.05v2.76h2.76v-1.9l-.95.95c-.24.24-.62.24-.86,0-.24-.24-.24-.62,0-.86l.95-.95h-1.9ZM34.03,26.84h-3.72c-.33,0-.61.27-.61.61v3.97c0,.34.27.61.61.61h3.97c.34,0,.61-.27.61-.61v-3.72l.57-.57c.24-.24.24-.62,0-.86-.24-.24-.62-.24-.86,0l-.57.57h0ZM19.62,26.42c-.44,0-.79.35-.79.79,0,.7.85,1.05,1.35.56.5-.5.14-1.35-.56-1.35h0ZM21.04,25.79c-1.26-1.26-3.42-.36-3.42,1.41s2.16,2.67,3.42,1.41c.78-.78.78-2.05,0-2.83ZM15.73,24.55c-.08,0-.15.07-.15.15v7.79c0,.08.07.15.15.15h.51v-.82c0-.37.14-.71.41-.97,1.66-1.63,4.31-1.63,5.97.01.26.26.4.59.4.97v.81h.51c.08,0,.15-.07.15-.15v-7.79c0-.08-.07-.15-.15-.15h-7.79,0ZM21.8,32.65v-.81l-.04-.11c-1.18-1.17-3.08-1.17-4.27,0l-.04.11v.82h4.36,0ZM23.52,23.34h-7.79c-.75,0-1.36.61-1.36,1.36v7.79c0,.75.61,1.36,1.36,1.36h7.79c.75,0,1.36-.61,1.36-1.36v-7.79c0-.75-.61-1.36-1.36-1.36ZM19.62,12.27c-.44,0-.79.35-.79.79,0,.7.85,1.05,1.35.56.5-.5.14-1.35-.56-1.35h0ZM21.04,11.65c-1.26-1.26-3.42-.36-3.42,1.41s2.16,2.67,3.42,1.41c.78-.78.78-2.05,0-2.83h0ZM15.73,10.41c-.08,0-.15.07-.15.15v7.79c0,.08.07.15.15.15h.51v-.82c0-.37.14-.71.41-.97,1.66-1.63,4.31-1.63,5.97.01.26.26.4.59.4.97v.81h.51c.08,0,.15-.07.15-.15v-7.79c0-.08-.07-.15-.15-.15h-7.79,0ZM21.8,18.5v-.81l-.04-.11c-1.18-1.17-3.08-1.17-4.27,0l-.04.11v.82h4.36,0ZM23.52,9.2h-7.79c-.75,0-1.36.61-1.36,1.36v7.79c0,.75.61,1.36,1.36,1.36h7.79c.75,0,1.36-.61,1.36-1.36v-7.79c0-.75-.61-1.36-1.36-1.36ZM30.92,13.45v2.76h2.76v-1.9l-.95.95c-.24.24-.62.24-.86,0-.24-.24-.24-.62,0-.86l.95-.95h-1.9ZM34.03,12.24h-3.72c-.33,0-.61.27-.61.61v3.97c0,.34.27.61.61.61h3.97c.34,0,.61-.27.61-.61v-3.72l.57-.57c.24-.24.24-.62,0-.86-.24-.24-.62-.24-.86,0l-.57.57h0ZM12.04,5.36v30.94h25.92V5.36h-3.53c-.47.79-1.33,1.33-2.32,1.33h-14.23c-.99,0-1.85-.53-2.32-1.33h-3.53Z"/>
    </g>
  </g>
</svg>