<?xml version="1.0" encoding="UTF-8"?>
<svg id="Layer_2" xmlns="http://www.w3.org/2000/svg" xmlns:xlink="http://www.w3.org/1999/xlink" viewBox="0 0 50 40">
  <defs>
    <style>
      .cls-1 {
        fill: #112e57;
        fill-rule: evenodd;
      }

      .cls-2 {
        fill: none;
      }

      .cls-3 {
        clip-path: url(#clippath);
      }
    </style>
    <clipPath id="clippath">
      <rect class="cls-2" width="50" height="40"/>
    </clipPath>
  </defs>
  <g id="Layer_1-2" data-name="Layer_1">
    <g class="cls-3">
      <path class="cls-1" d="M8.05,29.01c-.21.34-.5.55-.89.65l-2.17.51,1.42,1.55c.27.3.38.65.35,1.04l-.17,2.33,2.01-.88c.36-.16.74-.16,1.1,0l2.06.88-.19-2.24c-.03-.39.08-.75.34-1.05l1.45-1.63-2.18-.52c-.39-.09-.68-.3-.88-.64l-1.13-1.87-1.13,1.89ZM16.7,17.32c.24-.24.63-.24.87,0,.24.24.24.63,0,.87l-2.36,2.36c-.24.24-.63.24-.87,0l-.79-.79c-.24-.24-.24-.63,0-.87.24-.24.63-.24.87,0l.35.35,1.92-1.92ZM16.57,20.41v.36c0,.36-.3.66-.66.66h-2.61c-.36,0-.66-.3-.66-.66v-2.61c0-.36.3-.66.66-.66h2.1c.34,0,.62-.28.62-.62s-.28-.62-.62-.62h-2.1c-1.05,0-1.9.85-1.9,1.9v2.61c0,1.05.85,1.9,1.9,1.9h2.61c1.05,0,1.9-.85,1.9-1.9v-.36c0-.34-.28-.62-.62-.62s-.62.28-.62.62h0ZM19.7,21.58c-.34,0-.62-.28-.62-.62s.28-.62.62-.62h11.63c.34,0,.62.28.62.62s-.28.62-.62.62h-11.63ZM24.88,17.37c.34,0,.62.28.62.62s-.28.62-.62.62h-5.17c-.34,0-.62-.28-.62-.62s.28-.62.62-.62h5.17ZM37.99,17.37c.34,0,.62.28.62.62s-.28.62-.62.62h-10.86c-.34,0-.62-.28-.62-.62s.28-.62.62-.62h10.86ZM16.7,7.39c.24-.24.63-.24.87,0,.24.24.24.63,0,.87l-2.36,2.36c-.24.24-.63.24-.87,0l-.79-.79c-.24-.24-.24-.63,0-.87.24-.24.63-.24.87,0l.35.35,1.92-1.92h0ZM16.57,10.48v.36c0,.36-.3.66-.66.66h-2.61c-.36,0-.66-.3-.66-.66v-2.61c0-.36.3-.66.66-.66h2.1c.34,0,.62-.28.62-.62s-.28-.62-.62-.62h-2.1c-1.05,0-1.9.85-1.9,1.9v2.61c0,1.05.85,1.9,1.9,1.9h2.61c1.05,0,1.9-.85,1.9-1.9v-.36c0-.34-.28-.62-.62-.62s-.62.28-.62.62h0ZM19.7,11.65c-.34,0-.62-.28-.62-.62s.28-.62.62-.62h11.63c.34,0,.62.28.62.62s-.28.62-.62.62h-11.63ZM24.88,7.44c.34,0,.62.28.62.62s-.28.62-.62.62h-5.17c-.34,0-.62-.28-.62-.62s.28-.62.62-.62h5.17ZM37.99,7.44c.34,0,.62.28.62.62s-.28.62-.62.62h-10.86c-.34,0-.62-.28-.62-.62s.28-.62.62-.62h10.86ZM40.81,27.13l-1.13,1.89c-.21.34-.5.55-.88.65l-2.17.51,1.42,1.55c.27.3.38.65.35,1.04l-.17,2.33,2.01-.88c.36-.16.74-.16,1.1,0l2.06.88-.19-2.24c-.03-.39.08-.75.34-1.05l1.45-1.63-2.18-.52c-.39-.09-.68-.3-.88-.64l-1.13-1.87ZM26.15,25.32l1.46,2.43c.06.1.12.14.24.17l2.82.68c.48.11.9.35,1.07.86.16.51-.04.97-.36,1.33l-1.89,2.12c-.08.09-.1.14-.08.27l.25,2.91c.04.49-.06.97-.49,1.29-.43.31-.92.26-1.38.07l-2.67-1.14c-.11-.05-.17-.05-.28,0l-2.62,1.14c-.45.2-.95.25-1.38-.06-.43-.32-.53-.79-.49-1.28l.22-3.01c0-.12,0-.19-.08-.27l-1.85-2.02c-.34-.37-.54-.82-.37-1.34.17-.51.59-.75,1.07-.86l2.81-.66c.12-.03.17-.07.23-.17l1.47-2.45c.25-.42.61-.76,1.15-.76s.9.33,1.15.76h0ZM26.55,28.38c-.18-.3-1.47-2.47-1.56-2.56-.09.1-1.38,2.28-1.56,2.58-.24.39-.57.63-1.01.74-.35.08-2.85.66-2.97.71.06.11,1.71,1.89,1.94,2.14.31.34.43.74.4,1.19-.03.37-.23,3.05-.22,3.18.13-.03,2.44-1.05,2.76-1.19.42-.18.84-.18,1.26,0,.33.14,2.7,1.17,2.83,1.19.01-.13-.23-2.72-.26-3.07-.04-.45.09-.86.39-1.2.23-.26,1.92-2.14,1.98-2.25l-2.98-.73c-.44-.11-.77-.34-1.01-.74h0ZM9.25,38.83v-3.5l2.2.92c.95.41,1.75-.17,1.66-1.2l-.2-2.38,1.53-1.73c.29-.32.46-.73.32-1.18-.15-.45-.52-.66-.94-.77-.24-.06-2.26-.53-2.31-.57l-1.2-1.98c-.23-.39-.57-.68-1.06-.66V1.18c0-.65.53-1.18,1.17-1.18h23.93v3.07c0,1.47,1.2,2.68,2.68,2.68h3.72v20.02c-.49-.02-.83.28-1.06.66-.12.21-1.16,1.96-1.21,1.99l-2.3.55c-.42.1-.8.32-.94.77-.15.46.02.86.32,1.19l1.5,1.64c.02.06-.15,2.22-.17,2.48-.03.43.06.85.44,1.12.38.28.82.23,1.22.06l2.2-.91v3.48c0,.65-.53,1.18-1.18,1.18H10.43c-.65,0-1.17-.53-1.17-1.17h0ZM40.58,4.51L35.6.02v3.06c0,.79.65,1.44,1.44,1.44h3.55,0Z"/>
    </g>
  </g>
</svg>