<?xml version="1.0" encoding="UTF-8"?>
<svg id="Layer_2" xmlns="http://www.w3.org/2000/svg" xmlns:xlink="http://www.w3.org/1999/xlink" viewBox="0 0 50 40">
  <defs>
    <style>
      .cls-1 {
        fill: #112e57;
        fill-rule: evenodd;
      }

      .cls-2 {
        fill: none;
      }

      .cls-3 {
        clip-path: url(#clippath);
      }
    </style>
    <clipPath id="clippath">
      <rect class="cls-2" width="50" height="40"/>
    </clipPath>
  </defs>
  <g id="Layer_1-2" data-name="Layer_1">
    <g class="cls-3">
      <path class="cls-1" d="M5,7.65V1.91c0-.51.2-.99.56-1.35.36-.36.85-.56,1.35-.56h5.32c.78,0,1.49.48,1.78,1.2l.69,1.73c.13.33.45.55.81.55h8.1c.51,0,.99.2,1.35.56.36.36.56.85.56,1.35v2.26H5ZM25.52,8.7v7.13c0,1.06-.86,1.91-1.91,1.91H6.91c-.51,0-.99-.2-1.35-.56-.36-.36-.56-.85-.56-1.35v-7.13h20.52ZM24.48,29.91v-5.74c0-.51.2-.99.56-1.35.36-.36.85-.56,1.35-.56h5.32c.78,0,1.49.48,1.78,1.2l.69,1.73c.13.33.45.55.81.55h8.1c.51,0,.99.2,1.35.56.36.36.56.85.56,1.35v2.26h-20.52,0ZM45,30.96v7.13c0,1.06-.86,1.91-1.91,1.91h-16.7c-.51,0-.99-.2-1.35-.56-.36-.36-.56-.85-.56-1.35v-7.13h20.52ZM14.74,22.65l-1.89,1.89c-.2.2-.53.2-.74,0s-.2-.53,0-.74l2.78-2.78c.2-.2.53-.2.74,0l2.78,2.78c.2.2.2.53,0,.74s-.53.2-.74,0l-1.89-1.89v7.09c0,.48.39.87.87.87h4.17c.29,0,.52.23.52.52s-.23.52-.52.52h-4.17c-1.06,0-1.91-.86-1.91-1.91v-7.09ZM34.22,17.35v-7.09c0-.48-.39-.87-.87-.87h-4.17c-.29,0-.52-.23-.52-.52s.23-.52.52-.52h4.17c1.06,0,1.91.86,1.91,1.91v7.09l1.89-1.89c.2-.2.53-.2.74,0s.2.53,0,.74l-2.78,2.78c-.2.2-.53.2-.74,0l-2.78-2.78c-.2-.2-.2-.53,0-.74s.53-.2.74,0l1.89,1.89Z"/>
    </g>
  </g>
</svg>