<?xml version="1.0" encoding="UTF-8"?>
<svg id="Layer_2" xmlns="http://www.w3.org/2000/svg" xmlns:xlink="http://www.w3.org/1999/xlink" viewBox="0 0 50 40">
  <defs>
    <style>
      .cls-1 {
        fill: #112e57;
      }

      .cls-2 {
        fill: none;
      }

      .cls-3 {
        clip-path: url(#clippath);
      }
    </style>
    <clipPath id="clippath">
      <rect class="cls-2" width="50" height="40"/>
    </clipPath>
  </defs>
  <g id="Layer_1-2" data-name="Layer_1">
    <g class="cls-3">
      <path class="cls-1" d="M45.6,3.86v25.82c0,1.05-.86,1.91-1.91,1.91H6.31c-1.05,0-1.91-.86-1.91-1.91V3.86c0-.63.31-1.19.77-1.54v9.13c0,1.08.75,1.99,1.75,2.25v15.37h36.16V4.47h-17.48V1.95h18.09c1.05,0,1.91.86,1.91,1.91ZM38.68,7.39v.56l1.73-.71c.14-.06.35.02.35.24v3.75c0,.21-.21.29-.35.24l-1.73-.71v.56c0,.23-.19.42-.42.42h-5.53c-.23,0-.42-.19-.42-.42v-3.92c0-.23.19-.42.42-.42h5.53c.23,0,.42.19.42.42ZM36.72,9.35c0-.35-.28-.62-.62-.62h-1.2c-.35,0-.62.28-.62.62s.28.62.62.62h1.2c.35,0,.62-.28.62-.62ZM28.11,21.46c-1.35,0-2.58-.49-3.54-1.29-2.25.85-3.86,3.03-3.86,5.57v2.09h14.8v-2.09c0-2.54-1.61-4.72-3.86-5.57-.96.81-2.19,1.29-3.54,1.29ZM28.11,11.89c-2.33,0-4.21,1.86-4.21,4.16s1.89,4.16,4.21,4.16,4.21-1.86,4.21-4.16-1.89-4.16-4.21-4.16ZM6.42,11.46V1.07c0-.59.48-1.07,1.07-1.07h15.79c.59,0,1.07.48,1.07,1.07v10.39c0,.59-.48,1.07-1.07,1.07h-1.27v3.94c0,.18-.11.33-.28.37-.17.05-.33-.03-.44-.17l-3.39-4.14H7.49c-.59,0-1.07-.48-1.07-1.07ZM8.57,3.16c0,.35.28.62.62.62h12.39c.35,0,.62-.28.62-.62s-.28-.62-.62-.62h-12.39c-.35,0-.62.28-.62.62ZM8.57,6.26c0,.34.28.62.62.62h12.39c.35,0,.62-.28.62-.62s-.28-.62-.62-.62h-12.39c-.35,0-.62.28-.62.62ZM8.57,9.36c0,.35.28.62.62.62h12.39c.35,0,.62-.28.62-.62s-.28-.62-.62-.62h-12.39c-.35,0-.62.28-.62.62ZM19.88,32.84l-1.54,3.13h13.32l-1.54-3.13h-10.25ZM35.51,37.22H14.49c-.76,0-1.39.63-1.39,1.39s.63,1.39,1.39,1.39h21.02c.76,0,1.39-.63,1.39-1.39,0-.76-.63-1.39-1.39-1.39Z"/>
    </g>
  </g>
</svg>