<?xml version="1.0" encoding="UTF-8"?>
<svg id="Layer_2" xmlns="http://www.w3.org/2000/svg" xmlns:xlink="http://www.w3.org/1999/xlink" viewBox="0 0 50 40">
  <defs>
    <style>
      .cls-1 {
        fill: #112e57;
        fill-rule: evenodd;
      }

      .cls-2 {
        fill: none;
      }

      .cls-3 {
        clip-path: url(#clippath);
      }
    </style>
    <clipPath id="clippath">
      <rect class="cls-2" width="50" height="40"/>
    </clipPath>
  </defs>
  <g id="Layer_1-2" data-name="Layer_1">
    <g class="cls-3">
      <path class="cls-1" d="M37.34,35.74V8.45c0-.81-.66-1.47-1.47-1.47h-3.48v.23c0,.65-.53,1.18-1.18,1.18h-12.43c-.65,0-1.18-.53-1.18-1.18v-.23h-3.48c-.81,0-1.47.66-1.47,1.47v27.29c0,.81.66,1.47,1.47,1.47h21.74c.81,0,1.47-.66,1.47-1.47ZM22.02,21.52h11.93c.33,0,.59.29.58.62,0,.32-.27.58-.58.58h-11.93c-.33,0-.6-.27-.6-.6,0-.33.27-.6.6-.6h0ZM19.43,27.81c.23.23.23.62,0,.85l-2.45,2.45c-.23.23-.61.23-.85,0l-1.2-1.21c-.23-.24-.23-.62,0-.85.23-.23.61-.23.84,0l.78.78,2.02-2.02c.23-.23.61-.23.85,0h0ZM19.43,19.86c.23.23.23.62,0,.85l-2.45,2.44c-.23.23-.61.23-.85,0l-1.2-1.2c-.23-.23-.23-.62,0-.85s.62-.23.85,0l.78.78,2.02-2.02c.23-.23.61-.23.85,0h0ZM22.01,14.91c-.33,0-.6-.27-.6-.6,0-.33.27-.6.6-.6h11.93c.33,0,.6.27.6.6s-.27.6-.6.6h-11.93ZM19.43,13.08l-2.45,2.45c-.23.23-.62.23-.85,0l-1.2-1.2c-.24-.23-.24-.61,0-.85s.61-.24.85,0c0,0,0,0,0,0l.78.78,2.02-2.02c.23-.23.62-.23.85,0s.23.62,0,.85h0ZM21.41,29.85c0-.33.27-.6.6-.6h11.93c.33,0,.6.27.6.6s-.27.6-.6.6h-11.93c-.33,0-.6-.27-.6-.6,0,0,0,0,0,0h0ZM18.81,7.18V2.95h2.78c.33,0,.6-.27.6-.6h0v-.49c0-1.02.83-1.86,1.86-1.86h1.91c1.02,0,1.86.83,1.86,1.86v.49c0,.33.27.6.6.6,0,0,0,0,0,0h2.78v4.23h-12.39ZM35.87,5.78h-3.48v-1.58h5.1c1.46,0,2.64,1.18,2.64,2.64v30.53c0,1.46-1.18,2.64-2.64,2.64H12.51c-1.46,0-2.64-1.18-2.64-2.64V6.83c0-1.46,1.18-2.64,2.64-2.64h5.1v1.58h-3.48c-1.48,0-2.67,1.2-2.67,2.67v27.29c0,1.48,1.2,2.67,2.67,2.67h21.74c1.48,0,2.67-1.2,2.67-2.67V8.45c0-1.48-1.2-2.67-2.67-2.67Z"/>
    </g>
  </g>
</svg>