<?xml version="1.0" encoding="UTF-8"?>
<svg id="Layer_2" xmlns="http://www.w3.org/2000/svg" xmlns:xlink="http://www.w3.org/1999/xlink" viewBox="0 0 50 40">
  <defs>
    <style>
      .cls-1 {
        fill: #112e57;
      }

      .cls-2 {
        fill: none;
      }

      .cls-3 {
        clip-path: url(#clippath);
      }
    </style>
    <clipPath id="clippath">
      <rect class="cls-2" width="50" height="40"/>
    </clipPath>
  </defs>
  <g id="Layer_1-2" data-name="Layer_1">
    <g class="cls-3">
      <path class="cls-1" d="M5.93,37.53v-5.1c0-.3.25-.55.55-.55h5.11c.3,0,.55.25.55.55v5.1c0,.3-.25.55-.55.55h-5.11c-.3,0-.55-.25-.55-.55ZM38.66,38.9H6.48c-.3,0-.55.25-.55.55s.25.55.55.55h32.18c.3,0,.55-.24.55-.55s-.25-.55-.55-.55ZM20.52,38.08c.3,0,.55-.25.55-.55v-13.98c0-.3-.24-.55-.55-.55h-5.11c-.3,0-.55.25-.55.55v13.98c0,.3.25.55.55.55h5.11ZM44.36,8.06c0,.3-.25.55-.55.55h-7.45v3.29c.72.12,1.36.46,1.85.95.61.61,1,1.46,1,2.4s-.38,1.79-1,2.4c-.61.61-1.46,1-2.4,1s-1.79-.38-2.4-1c-.13-.13-.25-.27-.36-.42l-2.91,1.44c.09.3.14.63.14.96,0,.94-.38,1.79-1,2.4-.61.61-1.46,1-2.4,1s-1.79-.38-2.4-1c-.61-.61-1-1.46-1-2.4,0-.1,0-.2.01-.29l-2.44-.66c-.17.38-.41.72-.7,1-.61.62-1.46,1-2.4,1s-1.79-.38-2.4-1c-.04-.04-.07-.08-.11-.12l-3.19,2.04c.28,1.17.07,2.75-.97,4.76h0l-.06.1c-.13.23-.32.55-.52.87.44.14.82.34,1.1.59.36.31.57.69.57,1.12,0,.61-.43,1.13-1.13,1.49-.58.29-1.38.47-2.24.47s-1.65-.18-2.24-.47c-.7-.35-1.13-.87-1.13-1.49,0-.43.21-.81.58-1.13.29-.25.69-.45,1.15-.6-.25-.4-.47-.77-.61-1.03h0c-1.38-2.77-1.26-4.71-.45-5.86.63-.9,1.68-1.34,2.73-1.33,1.06.01,2.12.48,2.75,1.4.02.03.03.06.05.08l3.02-1.93c-.18-.42-.29-.88-.29-1.36,0-.94.38-1.79,1-2.4.61-.61,1.46-1,2.4-1s1.79.38,2.4,1,1,1.46,1,2.4c0,.11,0,.23-.02.34l2.43.65c.17-.4.41-.75.71-1.05.61-.61,1.46-1,2.4-1s1.79.38,2.4,1c.14.14.27.29.38.45l2.89-1.43c-.1-.32-.15-.65-.15-1,0-.94.38-1.79,1-2.4.49-.49,1.13-.83,1.85-.95v-3.83h0V1.63h0V.55c0-.3.24-.55.55-.55s.55.25.55.55v.53h7.45c.14,0,.29.06.4.17.21.22.2.57-.01.77l-2.94,2.82,2.91,2.79c.12.1.2.25.2.42h0ZM7.49,22.71c0,.86.69,1.55,1.55,1.55s1.55-.69,1.55-1.55-.69-1.55-1.55-1.55-1.55.69-1.55,1.55ZM10.26,28.36c-.06-.02-.12-.05-.17-.08-.37.49-.74.87-1.03.87s-.69-.4-1.08-.91c-.06.05-.13.09-.21.11-.36.1-.65.24-.84.41-.12.1-.19.2-.19.3,0,.17.2.35.52.51.43.22,1.05.35,1.75.35s1.31-.13,1.75-.35c.32-.16.52-.34.52-.51,0-.09-.07-.19-.19-.29-.19-.16-.47-.3-.83-.4h0ZM29.44,38.08c.3,0,.55-.25.55-.55v-11.64c0-.3-.25-.55-.55-.55h-5.11c-.3,0-.55.24-.55.55v11.64c0,.3.25.55.55.55h5.11ZM38.37,38.08c.3,0,.55-.25.55-.55v-16.02c0-.3-.24-.55-.55-.55h-5.11c-.3,0-.55.25-.55.55v16.02c0,.3.25.55.55.55h5.11Z"/>
    </g>
  </g>
</svg>