<?xml version="1.0" encoding="UTF-8"?>
<svg id="Layer_2" xmlns="http://www.w3.org/2000/svg" xmlns:xlink="http://www.w3.org/1999/xlink" viewBox="0 0 50 40">
  <defs>
    <style>
      .cls-1 {
        fill: #112e57;
      }

      .cls-2 {
        fill: none;
      }

      .cls-3 {
        clip-path: url(#clippath);
      }
    </style>
    <clipPath id="clippath">
      <rect class="cls-2" width="50" height="40"/>
    </clipPath>
  </defs>
  <g id="Layer_1-2" data-name="Layer_1">
    <g class="cls-3">
      <g>
        <path class="cls-1" d="M19.29,27.14v2.14h11.07c.59,0,1.07-.48,1.07-1.07s-.48-1.07-1.07-1.07h-11.07Z"/>
        <polygon class="cls-1" points="25 22.84 29.91 21.61 30.63 21.43 25 20.02 19.37 21.43 20.09 21.61 25 22.84"/>
        <path class="cls-1" d="M24.83,24.26l-4.11-1.03v2.48h8.57v-2.48l-4.11,1.03c-.11.03-.23.03-.34,0Z"/>
        <path class="cls-1" d="M39.21,26.43c.2-.01.4.05.56.19l.23.21v-11.82H10v20.71h22.16l6.54-8.99c.12-.16.3-.27.51-.29ZM33.74,22.12l-3.03.76v2.86c1.37.2,2.31,1.46,2.12,2.83-.18,1.23-1.23,2.14-2.47,2.14h-11.79c-.39,0-.71-.32-.71-.71v-3.57c0-.39.32-.71.71-.71h.71v-2.84l-1.43-.36v2.48c0,.39-.32.71-.71.71s-.71-.32-.71-.71v-2.84l-.17-.04c-.38-.09-.62-.48-.52-.86.06-.26.26-.46.52-.52l8.57-2.14c.11-.03.23-.03.34,0l8.57,2.14c.38.09.62.48.52.86-.06.26-.26.46-.52.52Z"/>
        <path class="cls-1" d="M40,28.71c-.2-.15-.39-.3-.57-.47l-.04-.04-5.46,7.51-1.04,1.43-2.04,2.81,12.31-8.4,1.11-.93v-.41c-.99-.02-1.96-.24-2.86-.65-.51-.22-.99-.51-1.43-.84Z"/>
        <path class="cls-1" d="M43.57,2.14h-2.14v-.36c0-.99-.8-1.79-1.79-1.79s-1.79.8-1.79,1.79v.36h1.43v-.36c0-.2.16-.36.36-.36s.36.16.36.36v.36h-.71v3.21c0,.2.16.36.36.36s.36-.16.36-.36v-.36c0-.39.32-.71.71-.71s.71.32.71.71v.36c0,.99-.8,1.79-1.79,1.79s-1.79-.8-1.79-1.79v-3.21h-2.14v-.36c0-.99-.8-1.79-1.79-1.79s-1.79.8-1.79,1.79v.36h1.43v-.36c0-.2.16-.36.36-.36s.36.16.36.36v.36h-.71v3.21c0,.2.16.36.36.36s.36-.16.36-.36v-.36c0-.39.32-.71.71-.71s.71.32.71.71v.36c0,.99-.8,1.79-1.79,1.79s-1.79-.8-1.79-1.79v-3.21h-2.14v-.36c0-.99-.8-1.79-1.79-1.79s-1.79.8-1.79,1.79v.36h1.43v-.36c0-.2.16-.36.36-.36s.36.16.36.36v.36h-.71v3.21c0,.2.16.36.36.36s.36-.16.36-.36v-.36c0-.39.32-.71.71-.71s.71.32.71.71v.36c0,.99-.8,1.79-1.79,1.79s-1.79-.8-1.79-1.79v-3.21h-2.86v-.36c0-.99-.8-1.79-1.79-1.79s-1.79.8-1.79,1.79v.36h1.43v-.36c0-.2.16-.36.36-.36s.36.16.36.36v.36h-.71v3.21c0,.2.16.36.36.36s.36-.16.36-.36v-.36c0-.39.32-.71.71-.71s.71.32.71.71v.36c0,.99-.8,1.79-1.79,1.79s-1.79-.8-1.79-1.79v-3.21h-2.14v-.36c0-.99-.8-1.79-1.79-1.79s-1.79.8-1.79,1.79v.36h1.43v-.36c0-.2.16-.36.36-.36s.36.16.36.36v.36h-.71v3.21c0,.2.16.36.36.36s.36-.16.36-.36v-.36c0-.39.32-.71.71-.71s.71.32.71.71v.36c0,.99-.8,1.79-1.79,1.79s-1.79-.8-1.79-1.79v-3.21h-2.14v-.36c0-.99-.8-1.79-1.79-1.79s-1.79.8-1.79,1.79v.36h1.43v-.36c0-.2.16-.36.36-.36s.36.16.36.36v.36h-.71v3.21c0,.2.16.36.36.36s.36-.16.36-.36v-.36c0-.39.32-.71.71-.71s.71.32.71.71v.36c0,.99-.8,1.79-1.79,1.79s-1.79-.8-1.79-1.79v-3.21h-2.14c-.39,0-.71.32-.71.71v7.86h38.57V2.86c0-.39-.32-.71-.71-.71Z"/>
        <path class="cls-1" d="M5.71,39.29c0,.39.32.71.71.71h22.62l2.08-2.86H9.29c-.39,0-.71-.32-.71-.71V14.29c0-.39.32-.71.71-.71h31.43c.39,0,.71.32.71.71v13.66c.87.52,1.85.8,2.86.83V12.14H5.71v27.14Z"/>
        <path class="cls-1" d="M33.31,40h10.26c.39,0,.71-.32.71-.71v-6.81l-.26.21-10.71,7.31Z"/>
      </g>
    </g>
  </g>
</svg>