<?xml version="1.0" encoding="UTF-8"?>
<svg id="Layer_2" xmlns="http://www.w3.org/2000/svg" xmlns:xlink="http://www.w3.org/1999/xlink" viewBox="0 0 50 40">
  <defs>
    <style>
      .cls-1 {
        fill: #112e57;
      }

      .cls-2 {
        fill: none;
      }

      .cls-3 {
        clip-path: url(#clippath);
      }
    </style>
    <clipPath id="clippath">
      <rect class="cls-2" width="50" height="40"/>
    </clipPath>
  </defs>
  <g id="Layer_1-2" data-name="Layer_1">
    <g class="cls-3">
      <g>
        <path class="cls-1" d="M37.91,6.54v6.39l-2.99-1.6v-3.29c0-.31-.25-.56-.56-.56h-2.06v-2.43c0-.19-.04-.39-.1-.56h3.65c1.14,0,2.06.92,2.06,2.06Z"/>
        <path class="cls-1" d="M34.92,30.71c1.18-.37,2.19-.86,2.99-1.32v8.55c0,1.14-.92,2.06-2.06,2.06H10.43c-1.14,0-2.06-.92-2.06-2.06V6.54c0-1.14.92-2.06,2.06-2.06h3.65c-.06.17-.1.37-.1.56v2.43h-2.06c-.31,0-.56.25-.56.56v28.41c0,.31.25.56.56.56h22.43c.31,0,.56-.25.56-.56v-5.74Z"/>
        <path class="cls-1" d="M18.49,16.97c0,.61.22,1.17.61,1.61-.41.55-.63,1.2-.63,1.88v8c-.58.49-.93,1.21-.93,2,0,1.44,1.17,2.62,2.62,2.62s2.62-1.17,2.62-2.62c0-.26-.05-.51-.12-.75l.55-.4c1.65.96,4.26,2.09,7.42,2.09,1.14,0,2.21-.14,3.18-.38v4.87H12.49V8.6h21.31v2.13l-2.03-1.09c-.35-.19-.75-.29-1.14-.29s-.79.1-1.15.29l-9.7,5.2c-.79.43-1.28,1.24-1.28,2.14Z"/>
        <path class="cls-1" d="M31.77,24.31c-.35.19-.75.29-1.15.29s-.79-.1-1.15-.29l-7.16-3.84-.48,6.21c-.01.18.06.35.19.46.15.13,3.64,3.13,8.59,3.13s8.45-3,8.59-3.13c.13-.12.2-.29.19-.46l-.48-6.21-7.16,3.84h.01Z"/>
        <path class="cls-1" d="M40.94,15.82l-9.7-5.2c-.39-.21-.85-.21-1.24,0l-9.7,5.2c-.43.22-.69.67-.69,1.15s.26.93.69,1.15l9.7,5.2c.19.1.4.16.62.16s.43-.05.62-.16l9.7-5.2c.43-.23.69-.67.69-1.15s-.26-.93-.69-1.15h0Z"/>
        <path class="cls-1" d="M21.65,30.47c0,.82-.67,1.5-1.5,1.5s-1.5-.67-1.5-1.5c0-.63.39-1.16.93-1.38v-8.62c0-.45.15-.88.4-1.23l1.02.55c-.19.17-.3.42-.3.68v8.62c.55.22.93.76.93,1.38Z"/>
        <path class="cls-1" d="M31.18,5.05v2.43H15.1v-2.43c0-.31.25-.56.56-.56h2.43v-.93c0-1.96,1.59-3.55,3.55-3.55h2.99c1.96,0,3.55,1.59,3.55,3.55v.93h2.43c.31,0,.56.25.56.56Z"/>
      </g>
    </g>
  </g>
</svg>