<?xml version="1.0" encoding="UTF-8"?>
<svg id="Layer_2" xmlns="http://www.w3.org/2000/svg" xmlns:xlink="http://www.w3.org/1999/xlink" viewBox="0 0 50 40">
  <defs>
    <style>
      .cls-1 {
        fill: #112e57;
        fill-rule: evenodd;
      }

      .cls-2 {
        fill: none;
      }

      .cls-3 {
        clip-path: url(#clippath);
      }
    </style>
    <clipPath id="clippath">
      <rect class="cls-2" width="50" height="40"/>
    </clipPath>
  </defs>
  <g id="Layer_1-2" data-name="Layer_1">
    <g class="cls-3">
      <path class="cls-1" d="M8.97,19.86v13.53c0,.63.37,1.21.95,1.46,10.77,4.78,18.58,4.78,30.11.02.6-.25.99-.83.99-1.48v-13.53l-15.36,7.03c-.42.19-.91.19-1.33,0l-15.36-7.03ZM2.56,27.01v1.59c0,.88.72,1.6,1.6,1.6s1.6-.72,1.6-1.6v-1.59c0-.88-.72-1.6-1.6-1.6s-1.6.72-1.6,1.6ZM3.87,12.72c-.75.14-1.31.79-1.31,1.58v7.95c0,.88.72,1.6,1.6,1.6s1.6-.72,1.6-1.6v-5.36l18.56,8.57c.43.2.92.2,1.34,0l20.84-9.62c.55-.25.91-.8.93-1.41.02-.61-.31-1.17-.84-1.46L25.76,1.75c-.47-.26-1.04-.26-1.52,0L3.87,12.72Z"/>
    </g>
  </g>
</svg>