<?xml version="1.0" encoding="UTF-8"?>
<svg id="Layer_2" xmlns="http://www.w3.org/2000/svg" xmlns:xlink="http://www.w3.org/1999/xlink" viewBox="0 0 50 40">
  <defs>
    <style>
      .cls-1 {
        fill: #112e57;
      }

      .cls-2 {
        fill: none;
      }

      .cls-3 {
        clip-path: url(#clippath);
      }
    </style>
    <clipPath id="clippath">
      <rect class="cls-2" width="50" height="40"/>
    </clipPath>
  </defs>
  <g id="Layer_1-2" data-name="Layer_1">
    <g class="cls-3">
      <g>
        <circle class="cls-1" cx="13.22" cy="25.04" r="3.71"/>
        <path class="cls-1" d="M16.51,29.84c-.93.63-2.07,1.01-3.29,1.01s-2.36-.38-3.29-1.01c-1.69.59-2.87,2.15-2.87,4v2.11c0,.42.34.76.76.76h9.02c.13-1.73.93-3.29,2.23-4.38-.42-1.14-1.39-2.07-2.57-2.49Z"/>
        <circle class="cls-1" cx="36.82" cy="25.04" r="3.71"/>
        <path class="cls-1" d="M40.11,29.84c-.93.63-2.07,1.01-3.29,1.01s-2.36-.38-3.29-1.01c-1.22.42-2.15,1.35-2.61,2.53,1.31,1.1,2.11,2.66,2.23,4.38h9.02c.42,0,.76-.34.76-.76v-2.11c.04-1.9-1.18-3.46-2.82-4.05Z"/>
        <circle class="cls-1" cx="25.02" cy="28.37" r="3.71"/>
        <path class="cls-1" d="M28.31,33.13c-.93.63-2.07,1.01-3.29,1.01s-2.36-.38-3.29-1.01c-1.69.59-2.87,2.15-2.87,4v2.11c0,.42.34.76.76.76h10.75c.42,0,.76-.34.76-.76v-2.11c.04-1.85-1.18-3.41-2.82-4Z"/>
        <path class="cls-1" d="M16.76,19.6c.21.17.46.21.67.21.34,0,.72-.17.93-.46l2.61-3.5c.89.46,1.85.8,2.87.93v4.17c0,.63.51,1.18,1.18,1.18s1.18-.51,1.18-1.18v-4.17c1.01-.13,1.98-.46,2.87-.93l2.61,3.5c.21.3.59.46.93.46.25,0,.46-.08.67-.21.51-.38.63-1.1.25-1.64l-2.61-3.5c1.56-1.52,2.53-3.67,2.53-6.03,0-4.68-3.79-8.43-8.43-8.43s-8.43,3.79-8.43,8.43c0,2.36.97,4.51,2.53,6.03l-2.61,3.54c-.38.51-.25,1.22.25,1.6ZM20.85,7.76c.46-.46,1.22-.46,1.69,0l1.35,1.35,3.62-3.62c.46-.46,1.22-.46,1.69,0s.46,1.22,0,1.69l-4.47,4.47c-.21.21-.55.34-.84.34s-.63-.13-.84-.34l-2.19-2.19c-.46-.46-.46-1.22,0-1.69Z"/>
      </g>
    </g>
  </g>
</svg>