<?xml version="1.0" encoding="UTF-8"?>
<svg id="Layer_2" xmlns="http://www.w3.org/2000/svg" xmlns:xlink="http://www.w3.org/1999/xlink" viewBox="0 0 50 40">
  <defs>
    <style>
      .cls-1 {
        fill: #112e57;
      }

      .cls-2 {
        fill: none;
      }

      .cls-3 {
        clip-path: url(#clippath);
      }
    </style>
    <clipPath id="clippath">
      <rect class="cls-2" width="50" height="40"/>
    </clipPath>
  </defs>
  <g id="Layer_1-2" data-name="Layer_1">
    <g class="cls-3">
      <g>
        <path class="cls-1" d="M32.51,20.15h0c.04-.57-.17-1.08-.53-1.45-.34-.33-.8-.54-1.32-.54h-6.9l-2.5-3.99c-.52-.82-1.28-1.48-2.2-1.8-.49-.17-.99-.27-1.49-.27-1.79,0-3.47,1.12-4.09,2.9l-3.25,9.26c-.37,1.04-.55,2.12-.55,3.22,0,1.63.66,3.11,1.73,4.17,1.07,1.07,2.55,1.74,4.18,1.74h7.66v6.61h4.5v-6.87c0-1.2-.56-2.26-1.43-2.96h14.33s0-4.48,0-4.48h-15.25v3.91c-.46-.19-.95-.3-1.48-.3h-4.51c-.43,0-.83-.18-1.1-.51-.23-.27-.34-.6-.34-.93,0-.2.04-.39.12-.58l2.29-5.13-1.63-3.05c-.23-.43-.06-.95.36-1.19.43-.23.95-.06,1.19.36l1.39,2.59c.32.59.91,1.02,1.58,1.02h.82v2.93h17.92v-2.94s-11.43,0-11.43,0c.99,0,1.9-.74,1.96-1.73Z"/>
        <circle class="cls-1" cx="22.09" cy="7.05" r="4.46"/>
        <path class="cls-1" d="M37.71,0c-3.39,0-6.14,2.75-6.14,6.14s2.75,6.14,6.14,6.14,6.14-2.75,6.14-6.14-2.75-6.14-6.14-6.14ZM38.12,7.52h-2.25c-.48,0-.87-.39-.87-.87s.39-.87.87-.87h1.38v-1.37c0-.48.39-.87.87-.87s.87.39.87.87v2.24c0,.48-.39.87-.87.87Z"/>
        <path class="cls-1" d="M28.73,17.26l2.62.25-1.62-3.62c-.19-.43-.61-.67-1.04-.67-.16,0-.32.03-.48.1-.58.26-.83.93-.58,1.51l1.09,2.44Z"/>
        <path class="cls-1" d="M17.99,34.39h0s-3.63,0-3.63,0c-3.07,0-5.55-2.49-5.55-5.55v-7.09c0-.73-.59-1.33-1.33-1.33s-1.33.6-1.33,1.33v7.66c0,4.2,3.41,7.61,7.61,7.61h4.23c.72,0,1.31-.59,1.31-1.31s-.59-1.31-1.31-1.31Z"/>
      </g>
    </g>
  </g>
</svg>