<?xml version="1.0" encoding="UTF-8"?>
<svg id="Layer_2" xmlns="http://www.w3.org/2000/svg" xmlns:xlink="http://www.w3.org/1999/xlink" viewBox="0 0 50 40">
  <defs>
    <style>
      .cls-1 {
        fill: #112e57;
        fill-rule: evenodd;
      }

      .cls-2 {
        fill: none;
      }

      .cls-3 {
        clip-path: url(#clippath);
      }
    </style>
    <clipPath id="clippath">
      <rect class="cls-2" width="50" height="40"/>
    </clipPath>
  </defs>
  <g id="Layer_1-2" data-name="Layer_1">
    <g class="cls-3">
      <path class="cls-1" d="M17.67,7.95c-.4,0-.73-.32-.73-.73s.32-.73.73-.73h15.63c.4,0,.73.32.73.73s-.32.73-.73.73h-15.63ZM17.67,10.75c-.4,0-.73-.32-.73-.73s.32-.73.73-.73h7.81c.4,0,.73.32.73.73s-.32.73-.73.73h-7.81ZM17.67,17.12c-.4,0-.73-.32-.73-.73s.32-.73.73-.73h13.88c.4,0,.73.32.73.73s-.32.73-.73.73h-13.88ZM17.67,19.92c-.4,0-.73-.32-.73-.73s.32-.73.73-.73h7.81c.4,0,.73.32.73.73s-.32.73-.73.73h-7.81ZM17.67,26.29c-.4,0-.73-.32-.73-.73s.32-.73.73-.73h8.83c.4,0,.73.32.73.73s-.32.73-.73.73h-8.83ZM17.67,29.09c-.4,0-.73-.32-.73-.73s.32-.73.73-.73h3.91c.4,0,.73.32.73.73s-.32.73-.73.73h-3.91ZM34.55,3.21l-2.53-2.3v2.3h2.53ZM11.38,9.01c-.28-.28-.28-.74,0-1.03s.74-.28,1.03,0l.54.54,1.72-1.72c.28-.28.74-.28,1.03,0,.28.28.28.74,0,1.03l-2.23,2.23c-.28.28-.74.28-1.03,0l-1.05-1.05h0ZM11.38,18.39c-.28-.28-.28-.74,0-1.03.28-.28.74-.28,1.03,0l.54.54,1.72-1.72c.28-.28.74-.28,1.03,0,.28.28.28.74,0,1.03l-2.23,2.23c-.28.28-.74.28-1.03,0l-1.05-1.05h0ZM11.38,28.08c-.28-.28-.28-.74,0-1.03.28-.28.74-.28,1.03,0l.54.54,1.72-1.72c.28-.28.74-.28,1.03,0,.28.28.28.74,0,1.03l-2.23,2.23c-.28.28-.74.28-1.03,0l-1.05-1.05h0ZM39.15,9.75l4.41,2.55.98-1.69c.88-1.52.42-2.99-.81-3.7-.31-.18-.65-.3-1.01-.34-.91-.1-1.92.31-2.6,1.49l-.98,1.7h0ZM34.37,27.2l-3.53-2.04-.05,4.16,3.58-2.13ZM35.53,26.2l5.96-10.31-4.41-2.55s-.04.07-.06.11l-5.89,10.2,4.41,2.55ZM37.8,12.09l.63-1.09,4.41,2.55-.63,1.09-4.41-2.55ZM30.84,35.17h-2.6v2.6h-1.45v-2.6h-2.6v-1.45h2.6v-2.6h1.45v2.6h2.6v1.45ZM31.51,30.58l-1.1.65c-.47.28-1.12-.04-1.09-.68l.08-6.6c0-.17.03-.28.12-.43l6.17-10.68V4.66s-4.4,0-4.4,0c-.4,0-.73-.32-.73-.73V0H9.53v34.44h10.98c-.01-3.84,3.13-7,7.01-7,.4,0,.73.32.73.73s-.32.73-.73.73c-3.07,0-5.56,2.49-5.56,5.56s2.49,5.56,5.56,5.56,5.56-2.49,5.56-5.56c0-1.47-.56-2.83-1.56-3.86h0ZM34.53,34.46c0-1.73-.62-3.36-1.74-4.64l2.92-1.73v6.37h-1.18ZM20.66,35.9h-11.85c-.4-.01-.72-.34-.72-.73V3.75h-3.09v34.64h16.73c-.51-.74-.87-1.59-1.06-2.49h0Z"/>
    </g>
  </g>
</svg>