<?xml version="1.0" encoding="UTF-8"?>
<svg id="Layer_2" xmlns="http://www.w3.org/2000/svg" xmlns:xlink="http://www.w3.org/1999/xlink" viewBox="0 0 50 40">
  <defs>
    <style>
      .cls-1 {
        fill: #112e57;
      }

      .cls-2 {
        fill: none;
      }

      .cls-3 {
        clip-path: url(#clippath);
      }
    </style>
    <clipPath id="clippath">
      <rect class="cls-2" width="50" height="40"/>
    </clipPath>
  </defs>
  <g id="Layer_1-2" data-name="Layer_1">
    <g class="cls-3">
      <g>
        <path class="cls-1" d="M8.89,31.67l2.75,1.26v-12.77l-3.87,8.55c-.51,1.13,0,2.45,1.11,2.96Z"/>
        <path class="cls-1" d="M23.14.2c-1.12-.51-2.45-.02-2.96,1.11,0,0,0,0,0,0l-.07.15h5.83l-2.79-1.27Z"/>
        <path class="cls-1" d="M26.86,39.8c.29.13.6.2.92.2.27,0,.54-.05.79-.14.56-.2,1.02-.63,1.26-1.17l.07-.15h-5.84l2.8,1.27Z"/>
        <path class="cls-1" d="M42.28,9.58c-.21-.56-.63-1.01-1.17-1.26l-2.75-1.26v12.77l3.87-8.54c.25-.54.27-1.16.06-1.71Z"/>
        <path class="cls-1" d="M18.42,6.93c-1.1,0-1.98.89-1.98,1.99,0,1.1.89,1.98,1.99,1.98,1.09,0,1.98-.89,1.98-1.98,0-1.1-.89-1.98-1.99-1.98ZM18.69,9.88c-.05.05-.13.08-.2.08-.07,0-.14-.03-.2-.08-.05-.05-.08-.12-.08-.19,0-.07.03-.14.08-.18.05-.05.12-.08.2-.08.07,0,.15.02.2.08.05.05.08.11.08.18,0,.07-.03.13-.08.18h0ZM19.16,8.62c-.03.05-.06.1-.09.15-.05.05-.1.1-.15.14-.06.05-.11.1-.15.16-.04.04-.05.1-.05.16h-.43c0-.09.02-.18.06-.25.06-.08.13-.15.2-.21.05-.04.1-.09.14-.14.03-.04.05-.09.04-.14,0-.07-.03-.13-.08-.16-.07-.05-.15-.07-.23-.06-.09,0-.17.02-.25.06-.07.04-.13.09-.18.16l-.35-.22c.08-.12.19-.22.33-.28.15-.07.32-.11.49-.1.19-.01.38.04.54.14.13.09.21.24.2.4,0,.07-.02.14-.04.21h0Z"/>
        <path class="cls-1" d="M18.42,21.71c-1.1,0-1.98.89-1.98,1.99,0,1.1.89,1.98,1.99,1.98,1.09,0,1.97-.89,1.98-1.98,0-1.1-.89-1.99-1.99-1.99ZM18.69,24.66c-.05.05-.13.08-.2.08-.07,0-.14-.03-.2-.08-.05-.05-.08-.12-.08-.19,0-.07.03-.14.08-.18.05-.05.12-.07.2-.07.07,0,.15.02.2.07.05.05.08.11.08.18,0,.07-.03.14-.08.19ZM19.16,23.4c-.03.05-.06.1-.09.15-.05.05-.1.1-.15.14-.06.05-.11.1-.15.16-.04.04-.05.1-.05.16h-.43c0-.09.02-.17.06-.25.06-.08.13-.15.2-.22.05-.04.1-.09.14-.14.03-.04.05-.08.04-.13,0-.07-.03-.13-.08-.17-.07-.05-.15-.07-.23-.06-.09,0-.17.02-.25.06-.07.04-.13.09-.18.16l-.35-.2c.08-.12.19-.22.33-.29.15-.07.32-.11.49-.1.19,0,.38.04.54.14.13.09.21.23.2.39,0,.07-.02.14-.04.21Z"/>
        <path class="cls-1" d="M18.42,14.31c-1.1,0-1.99.89-1.99,1.99s.89,1.99,1.99,1.99,1.99-.89,1.99-1.99h0c0-1.1-.89-1.99-1.99-1.99ZM18.69,17.26c-.05.05-.13.08-.2.08-.08,0-.15-.02-.21-.08-.05-.05-.08-.11-.08-.18,0-.07.03-.14.08-.18.05-.05.12-.08.2-.08.07,0,.15.02.2.08.05.05.08.11.08.18,0,.07-.02.13-.06.18ZM19.16,16c-.02.06-.06.11-.09.15-.05.05-.1.1-.15.14-.05.05-.1.1-.15.16-.03.04-.05.1-.05.16h-.43c0-.09.02-.17.06-.25.06-.08.13-.15.2-.21.05-.05.1-.1.14-.15.03-.04.05-.08.04-.13,0-.07-.03-.13-.08-.17-.07-.04-.15-.07-.23-.06-.09,0-.17.02-.25.06-.07.04-.13.09-.18.16l-.35-.2c.08-.12.19-.22.33-.29.15-.07.32-.1.49-.1.19,0,.38.04.54.14.13.09.2.23.2.39,0,.07-.01.14-.04.21Z"/>
        <path class="cls-1" d="M18.42,29.12c-1.1,0-1.98.89-1.98,1.99s.89,1.98,1.99,1.98c1.09,0,1.98-.89,1.98-1.98,0-1.1-.89-1.98-1.99-1.98ZM18.69,32.06c-.05.05-.13.08-.2.08-.08,0-.15-.02-.21-.08-.05-.05-.08-.12-.08-.19,0-.07.03-.14.08-.18.05-.05.12-.08.2-.08.07,0,.15.02.2.08.05.05.08.11.08.18,0,.07-.02.14-.06.19ZM19.16,30.8c-.03.05-.06.1-.09.15-.05.05-.1.1-.15.14-.06.05-.11.1-.15.16-.04.04-.05.1-.05.16h-.43c0-.09.02-.18.06-.25.06-.08.13-.15.2-.21.05-.04.1-.09.14-.14.03-.04.05-.08.04-.13,0-.07-.03-.13-.08-.17-.07-.05-.15-.07-.23-.06-.09,0-.17.02-.25.06-.07.04-.13.09-.18.16l-.35-.21c.08-.12.2-.22.33-.28.15-.07.32-.11.49-.1.19-.01.38.04.54.14.13.09.21.24.2.4,0,.07-.02.14-.04.21Z"/>
        <path class="cls-1" d="M34.86,2.73H15.13c-1.23,0-2.23,1.01-2.23,2.24v30.07c0,1.23,1,2.23,2.23,2.24h19.73c1.23,0,2.23-1.01,2.23-2.24V4.96c0-1.23-1-2.23-2.23-2.24ZM18.42,34.02c-1.62,0-2.93-1.32-2.92-2.94s1.32-2.93,2.94-2.92c1.62,0,2.92,1.31,2.92,2.93,0,1.62-1.31,2.93-2.93,2.93,0,0,0,0,0,0ZM18.42,26.61c-1.62,0-2.93-1.32-2.92-2.94,0-1.62,1.32-2.93,2.94-2.92,1.62,0,2.93,1.32,2.92,2.94,0,1.62-1.31,2.93-2.92,2.94,0,0,0,0-.01,0h0ZM18.42,19.22c-1.62,0-2.94-1.31-2.94-2.94s1.31-2.94,2.94-2.94,2.94,1.31,2.94,2.94c0,0,0,0,0,0,0,1.62-1.31,2.94-2.93,2.94,0,0,0,0,0,0h0ZM18.42,11.82c-1.62,0-2.93-1.32-2.92-2.94s1.32-2.93,2.94-2.92c1.62,0,2.92,1.31,2.92,2.93,0,1.62-1.3,2.93-2.92,2.94,0,0-.01,0-.02,0h0ZM34.03,31.57h-10.53c-.26,0-.47-.21-.47-.47s.21-.47.47-.47h10.53c.26,0,.47.21.47.47s-.21.47-.47.47ZM34.03,24.17h-10.53c-.26,0-.47-.21-.47-.47s.21-.47.47-.47h10.53c.26,0,.47.21.47.47s-.21.47-.47.47ZM34.03,16.77h-10.53c-.26,0-.47-.21-.47-.47s.21-.47.47-.47h10.53c.26,0,.47.21.47.47s-.21.47-.47.47ZM34.03,9.37h-10.53c-.26,0-.47-.21-.47-.47s.21-.47.47-.47h10.53c.26,0,.47.21.47.47s-.21.47-.47.47Z"/>
      </g>
    </g>
  </g>
</svg>