<?xml version="1.0" encoding="UTF-8"?>
<svg id="Layer_2" xmlns="http://www.w3.org/2000/svg" xmlns:xlink="http://www.w3.org/1999/xlink" viewBox="0 0 50 40">
  <defs>
    <style>
      .cls-1 {
        fill: #112e57;
        fill-rule: evenodd;
      }

      .cls-2 {
        fill: none;
      }

      .cls-3 {
        clip-path: url(#clippath);
      }
    </style>
    <clipPath id="clippath">
      <rect class="cls-2" width="50" height="40"/>
    </clipPath>
  </defs>
  <g id="Layer_1-2" data-name="Layer_1">
    <g class="cls-3">
      <path class="cls-1" d="M30.24.42l5.04,5.04h-3.2c-1.01,0-1.84-.83-1.84-1.84V.42ZM29.34,35.43c.12.47.39.88.8,1.17,1.05.76,1.91.19,2.23.26l-1.55,3.04c-.08.16-.32.13-.36-.04l-.42-1.72c-.05-.22-.28-.35-.49-.28l-1.69.5c-.17.05-.32-.14-.22-.29l1.71-2.63h0ZM34.51,28.26l.59,1.26c.04.08.1.13.19.14l1.38.17c.1.01.15.14.07.21l-1.02.95c-.06.06-.09.14-.07.23l.26,1.37c.02.1-.09.18-.18.13l-1.22-.67c-.08-.04-.16-.04-.24,0l-1.22.67c-.09.05-.2-.03-.18-.13l.26-1.37c.02-.09,0-.17-.07-.23l-1.02-.95c-.08-.07-.04-.2.07-.21l1.38-.17c.09,0,.15-.06.19-.14l.59-1.26c.05-.1.18-.1.22,0h.02ZM34.4,26.51c-2.33,0-4.22,1.89-4.22,4.22s1.89,4.22,4.22,4.22,4.22-1.89,4.22-4.22-1.89-4.22-4.22-4.22ZM34.4,27.34c-1.87,0-3.39,1.52-3.39,3.39s1.52,3.39,3.39,3.39,3.39-1.52,3.39-3.39-1.52-3.39-3.39-3.39ZM36.82,25.41c-.47.11-.94-.04-1.25-.41-.32-.38-.57-.69-1.17-.69s-.84.31-1.17.69c-.32.37-.78.52-1.25.41-.49-.12-.86-.23-1.35.13-.49.35-.5.75-.54,1.24-.04.49-.33.88-.78,1.07-.46.19-.83.33-1.02.9-.19.57.03.9.29,1.33.25.41.25.9,0,1.32-.26.43-.48.75-.29,1.33.19.57.55.71,1.02.9.45.19.74.58.78,1.07.04.5.05.89.54,1.24.49.35.87.24,1.35.13.47-.11.94.04,1.25.41.32.38.57.69,1.17.69s.84-.31,1.17-.69c.32-.37.78-.52,1.25-.41.49.12.86.23,1.35-.13.49-.35.5-.75.54-1.24.04-.49.33-.88.78-1.07.46-.19.83-.33,1.02-.9.19-.57-.03-.9-.29-1.33-.25-.41-.25-.9,0-1.32.26-.43.48-.75.29-1.33-.19-.57-.55-.71-1.02-.9-.45-.19-.74-.58-.78-1.07-.04-.5-.05-.89-.54-1.24-.49-.35-.87-.24-1.35-.13ZM39.46,35.43l1.71,2.63c.1.15-.05.35-.22.29l-1.69-.5c-.22-.06-.44.06-.49.28l-.42,1.72c-.04.18-.28.2-.36.04l-1.55-3.04c.31-.06,1.18.5,2.23-.26.41-.29.68-.7.8-1.17h0ZM17.55,4.82c-.23,0-.42-.19-.42-.42s.19-.42.42-.42h9.4c.23,0,.42.19.42.42s-.19.42-.42.42h-9.4ZM20.67,31.35c-.23,0-.42-.19-.42-.42s.19-.42.42-.42h5.88c.23,0,.42.19.42.42s-.19.42-.42.42h-5.88ZM20.67,28.52c-.23,0-.42-.19-.42-.42s.19-.42.42-.42h5.74c.23,0,.42.19.42.42s-.19.42-.42.42h-5.74ZM13.07,29.2c-.14-.19-.1-.44.09-.58s.44-.1.58.09l.88,1.2,3.26-2.67c.18-.15.44-.12.58.06.15.18.12.44-.06.58l-3.58,2.94c-.18.17-.47.14-.62-.06l-1.14-1.55h0ZM16.19,30.7c-.06.34-.36.59-.7.59h-2.12c-.39,0-.71-.32-.71-.71v-2.12c0-.39.32-.71.71-.71h2.12c.1,0,.19.02.28.06.21.09.46,0,.55-.22.09-.21,0-.46-.22-.55-.19-.08-.4-.13-.61-.13h-2.12c-.85,0-1.55.69-1.55,1.55v2.12c0,.85.69,1.55,1.55,1.55h2.12c.75,0,1.4-.55,1.52-1.29.04-.23-.11-.44-.34-.48-.23-.04-.44.11-.48.34h0ZM20.67,22.12c-.23,0-.42-.19-.42-.42s.19-.42.42-.42h9.33c.23,0,.42.19.42.42s-.19.42-.42.42h-9.33ZM20.67,19.3c-.23,0-.42-.19-.42-.42s.19-.42.42-.42h11.59c.23,0,.42.19.42.42s-.19.42-.42.42h-11.59ZM13.07,19.98c-.14-.19-.1-.44.09-.58s.44-.1.58.09l.88,1.2,3.26-2.67c.18-.15.44-.12.58.06.15.18.12.44-.06.58l-3.58,2.94c-.18.17-.47.14-.62-.06l-1.14-1.55h0ZM16.19,21.48c-.06.34-.36.59-.7.59h-2.12c-.39,0-.71-.32-.71-.71v-2.12c0-.39.32-.71.71-.71h2.12c.1,0,.19.02.28.06.21.09.46,0,.55-.22.09-.21,0-.46-.22-.55-.19-.08-.4-.13-.61-.13h-2.12c-.85,0-1.55.69-1.55,1.55v2.12c0,.85.69,1.55,1.55,1.55h2.12c.75,0,1.4-.55,1.52-1.29.04-.23-.11-.44-.34-.48-.23-.04-.44.11-.48.34h0ZM20.67,12.9c-.23,0-.42-.19-.42-.42s.19-.42.42-.42h9.33c.23,0,.42.19.42.42s-.19.42-.42.42h-9.33ZM20.67,10.07c-.23,0-.42-.19-.42-.42s.19-.42.42-.42h11.59c.23,0,.42.19.42.42s-.19.42-.42.42h-11.59ZM13.07,10.75c-.14-.19-.1-.44.09-.58s.44-.1.58.09l.88,1.2,3.26-2.67c.18-.15.44-.12.58.06.15.18.12.44-.06.58l-3.58,2.94c-.18.17-.47.14-.62-.06l-1.14-1.55h0ZM16.19,12.25c-.06.34-.36.59-.7.59h-2.12c-.39,0-.71-.32-.71-.71v-2.12c0-.39.32-.71.71-.71h2.12c.1,0,.19.02.28.06.21.09.46,0,.55-.22.09-.21,0-.46-.22-.55-.19-.08-.4-.13-.61-.13h-2.12c-.85,0-1.55.69-1.55,1.55v2.12c0,.85.69,1.55,1.55,1.55h2.12c.75,0,1.4-.55,1.52-1.29.04-.23-.11-.44-.34-.48-.23-.04-.44.11-.48.34h0ZM35.7,6.29h-3.62c-1.47,0-2.67-1.2-2.67-2.67V0H11.05c-1.24,0-2.25,1.01-2.25,2.25v31.6c0,1.24,1.01,2.25,2.25,2.25h16.85l1.12-1.72-.32-.13c-.58-.24-1-.69-1.19-1.29-.19-.59-.12-1.21.21-1.74.32-.52.32-.48,0-1-.33-.53-.4-1.15-.21-1.74.19-.59.61-1.05,1.19-1.29.57-.23.54-.19.58-.81.05-.63.35-1.16.86-1.53.51-.37,1.11-.49,1.72-.34.58.14.54.17.95-.31s.97-.74,1.59-.74c.49,0,.93.15,1.3.45V6.29Z"/>
    </g>
  </g>
</svg>