<?xml version="1.0" encoding="UTF-8"?>
<svg id="Layer_2" xmlns="http://www.w3.org/2000/svg" xmlns:xlink="http://www.w3.org/1999/xlink" viewBox="0 0 50 40">
  <defs>
    <style>
      .cls-1 {
        fill: #112e57;
      }

      .cls-2 {
        fill: none;
      }

      .cls-3 {
        clip-path: url(#clippath);
      }
    </style>
    <clipPath id="clippath">
      <rect class="cls-2" width="50" height="40"/>
    </clipPath>
  </defs>
  <g id="Layer_1-2" data-name="Layer_1">
    <g class="cls-3">
      <g>
        <path class="cls-1" d="M32.38,24.21c-1.54,2.85-1.67,6.25-.36,9.21H6.95c-1.64,0-3.22-.57-4.47-1.62l16.68-11.25,2.54,2.09c.79.64,1.92.64,2.7,0l2.54-2.09,5.44,3.66Z"/>
        <path class="cls-1" d="M1.04,5.71l16.56,13.57L1.18,30.34C.41,29.2,0,27.86,0,26.49V9.37c0-1.3.36-2.57,1.04-3.67Z"/>
        <path class="cls-1" d="M46.1,9.37v10.35c-4.38-2.09-9.62-.89-12.66,2.89l-4.95-3.33,16.56-13.57c.69,1.1,1.05,2.37,1.05,3.67Z"/>
        <path class="cls-1" d="M43.82,4.23l-19.43,15.91c-.79.64-1.92.64-2.7,0L2.28,4.23c1.28-1.17,2.94-1.81,4.67-1.81h32.2c1.73,0,3.4.64,4.67,1.81Z"/>
        <path class="cls-1" d="M49.98,28.49c-.37-4.63-4.43-8.08-9.06-7.71s-8.08,4.43-7.71,9.06c.33,4.11,3.59,7.37,7.69,7.71,4.65.36,8.72-3.11,9.08-7.76.03-.43.03-.87,0-1.3ZM45.92,34.26c-.46.86-1.54,1.19-2.41.73-.63-.34-1-1.02-.93-1.73l-4.6-2.55-.07.05c-.85.48-1.94.18-2.42-.67-.48-.85-.18-1.94.67-2.42.54-.31,1.21-.31,1.75,0l4.58-2.56c-.11-.98.6-1.85,1.57-1.96.98-.11,1.85.6,1.96,1.57.11.98-.6,1.85-1.57,1.96-.4.04-.81-.05-1.15-.27l-4.51,2.52c.02.17.02.34,0,.51l4.51,2.52c.8-.57,1.91-.39,2.48.41.4.56.44,1.31.1,1.91l.03-.02Z"/>
      </g>
    </g>
  </g>
</svg>